<svg xmlns="http://www.w3.org/2000/svg" width="621" height="71" viewBox="0 0 621 71" role="img" aria-labelledby="title desc" style="background: transparent;">
  <title id="title">Cozette Vector Px Regular preview</title>
  <desc id="desc">Sphinx of black quartz, judge my vow.</desc>
  <style>
    svg { background: transparent; }
    .preview-text { fill: #24292f; }
    @media (prefers-color-scheme: dark) {
      .preview-text { fill: #f0f6fc; }
    }
  </style>
  <g class="preview-text" transform="translate(21.38 43.54)">
    <path d="M2.6153846153846154 -2.6153846153846154H5.230769230769231V-5.230769230769231H2.6153846153846154ZM2.6153846153846154 -13.076923076923077H5.230769230769231V-18.307692307692307H2.6153846153846154ZM5.230769230769231 0.0H13.076923076923077V-2.6153846153846154H5.230769230769231ZM5.230769230769231 -10.461538461538462H13.076923076923077V-13.076923076923077H5.230769230769231ZM5.230769230769231 -18.307692307692307H13.076923076923077V-20.923076923076923H5.230769230769231ZM13.076923076923077 -2.6153846153846154H15.692307692307693V-10.461538461538462H13.076923076923077ZM13.076923076923077 -15.692307692307693H15.692307692307693V-18.307692307692307H13.076923076923077Z M18.30769230769231 7.846153846153847H20.923076923076923V0.0H28.76923076923077V-2.6153846153846154H20.923076923076923V-13.076923076923077H28.76923076923077V-15.692307692307693H18.30769230769231ZM28.76923076923077 -2.6153846153846154H31.384615384615387V-13.076923076923077H28.76923076923077Z M34.0 0.0H36.61538461538462V-13.076923076923077H44.46153846153847V-15.692307692307693H36.61538461538462V-23.53846153846154H34.0ZM44.46153846153847 0.0H47.07692307692308V-13.076923076923077H44.46153846153847Z M52.307692307692314 -13.076923076923077H54.92307692307693V-2.6153846153846154H57.53846153846154V-15.692307692307693H52.307692307692314ZM54.92307692307693 -18.307692307692307H57.53846153846154V-20.923076923076923H54.92307692307693ZM57.53846153846154 0.0H62.769230769230774V-2.6153846153846154H57.53846153846154Z M65.38461538461539 0.0H68.0V-13.076923076923077H75.84615384615385V-15.692307692307693H65.38461538461539ZM75.84615384615385 0.0H78.46153846153847V-13.076923076923077H75.84615384615385Z M81.07692307692308 0.0H83.6923076923077V-2.6153846153846154H81.07692307692308ZM81.07692307692308 -13.076923076923077H83.6923076923077V-15.692307692307693H81.07692307692308ZM83.6923076923077 -2.6153846153846154H86.30769230769232V-5.230769230769231H83.6923076923077ZM83.6923076923077 -10.461538461538462H86.30769230769232V-13.076923076923077H83.6923076923077ZM86.30769230769232 -5.230769230769231H88.92307692307693V-10.461538461538462H86.30769230769232ZM88.92307692307693 -2.6153846153846154H91.53846153846155V-5.230769230769231H88.92307692307693ZM88.92307692307693 -10.461538461538462H91.53846153846155V-13.076923076923077H88.92307692307693ZM91.53846153846155 0.0H94.15384615384616V-2.6153846153846154H91.53846153846155ZM91.53846153846155 -13.076923076923077H94.15384615384616V-15.692307692307693H91.53846153846155Z M112.46153846153847 -2.6153846153846154H115.07692307692308V-13.076923076923077H112.46153846153847ZM115.07692307692308 0.0H122.92307692307693V-2.6153846153846154H115.07692307692308ZM115.07692307692308 -13.076923076923077H122.92307692307693V-15.692307692307693H115.07692307692308ZM122.92307692307693 -2.6153846153846154H125.53846153846155V-13.076923076923077H122.92307692307693Z M128.15384615384616 -13.076923076923077H130.76923076923077V0.0H133.3846153846154V-13.076923076923077H138.6153846153846V-15.692307692307693H133.3846153846154V-20.923076923076923H130.76923076923077V-15.692307692307693H128.15384615384616ZM133.3846153846154 -20.923076923076923H141.23076923076923V-23.53846153846154H133.3846153846154Z M159.53846153846155 0.0H170.0V-2.6153846153846154H162.15384615384616V-13.076923076923077H170.0V-15.692307692307693H162.15384615384616V-23.53846153846154H159.53846153846155ZM170.0 -2.6153846153846154H172.61538461538464V-13.076923076923077H170.0Z M177.84615384615384 -20.923076923076923H180.46153846153845V0.0H185.69230769230768V-2.6153846153846154H183.07692307692307V-23.53846153846154H177.84615384615384Z M190.92307692307693 -2.6153846153846154H193.53846153846155V-13.076923076923077H190.92307692307693ZM193.53846153846155 0.0H198.76923076923077V-2.6153846153846154H193.53846153846155ZM193.53846153846155 -13.076923076923077H201.3846153846154V-5.230769230769231H198.76923076923077V-2.6153846153846154H201.3846153846154V0.0H204.0V-15.692307692307693H193.53846153846155Z M206.6153846153846 -2.6153846153846154H209.23076923076923V-13.076923076923077H206.6153846153846ZM209.23076923076923 0.0H217.07692307692307V-2.6153846153846154H209.23076923076923ZM209.23076923076923 -13.076923076923077H217.07692307692307V-15.692307692307693H209.23076923076923ZM217.07692307692307 -2.6153846153846154H219.69230769230768V-5.230769230769231H217.07692307692307ZM217.07692307692307 -10.461538461538462H219.69230769230768V-13.076923076923077H217.07692307692307Z M222.30769230769232 0.0H224.92307692307693V-5.230769230769231H230.15384615384616V-10.461538461538462H227.53846153846155V-7.846153846153847H224.92307692307693V-23.53846153846154H222.30769230769232ZM230.15384615384616 -2.6153846153846154H232.76923076923077V-5.230769230769231H230.15384615384616ZM230.15384615384616 -10.461538461538462H232.76923076923077V-13.076923076923077H230.15384615384616ZM232.76923076923077 0.0H235.38461538461542V-2.6153846153846154H232.76923076923077ZM232.76923076923077 -13.076923076923077H235.38461538461542V-15.692307692307693H232.76923076923077Z M253.6923076923077 -2.6153846153846154H256.3076923076923V-13.076923076923077H253.6923076923077ZM256.3076923076923 0.0H264.1538461538462V7.846153846153847H269.3846153846154V5.230769230769231H266.7692307692308V-15.692307692307693H256.3076923076923V-13.076923076923077H264.1538461538462V-2.6153846153846154H256.3076923076923Z M269.3846153846154 -2.6153846153846154H272.0V-15.692307692307693H269.3846153846154ZM272.0 0.0H282.46153846153845V-15.692307692307693H279.84615384615387V-2.6153846153846154H272.0Z M285.0769230769231 -2.6153846153846154H287.6923076923077V-13.076923076923077H285.0769230769231ZM287.6923076923077 0.0H292.9230769230769V-2.6153846153846154H287.6923076923077ZM287.6923076923077 -13.076923076923077H295.53846153846155V-5.230769230769231H292.9230769230769V-2.6153846153846154H295.53846153846155V0.0H298.15384615384613V-15.692307692307693H287.6923076923077Z M300.7692307692308 0.0H303.38461538461536V-13.076923076923077H311.2307692307692V-15.692307692307693H300.7692307692308ZM311.2307692307692 -10.461538461538462H313.8461538461538V-13.076923076923077H311.2307692307692Z M316.4615384615385 -13.076923076923077H319.0769230769231V-2.6153846153846154H321.69230769230774V-13.076923076923077H326.92307692307696V-15.692307692307693H321.69230769230774V-20.923076923076923H319.0769230769231V-15.692307692307693H316.4615384615385ZM321.69230769230774 0.0H329.53846153846155V-2.6153846153846154H321.69230769230774Z M332.1538461538462 0.0H345.2307692307692V-2.6153846153846154H334.7692307692308V-5.230769230769231H332.1538461538462ZM332.1538461538462 -13.076923076923077H340.0V-10.461538461538462H342.61538461538464V-13.076923076923077H345.2307692307692V-15.692307692307693H332.1538461538462ZM334.7692307692308 -5.230769230769231H337.3846153846154V-7.846153846153847H334.7692307692308ZM337.3846153846154 -7.846153846153847H340.0V-10.461538461538462H337.3846153846154Z M350.46153846153845 5.230769230769231H353.0769230769231V2.6153846153846154H350.46153846153845ZM350.46153846153845 0.0H353.0769230769231V2.6153846153846154H355.6923076923077V-5.230769230769231H350.46153846153845Z M381.84615384615387 2.6153846153846154H384.4615384615385V0.0H381.84615384615387ZM384.4615384615385 5.230769230769231H387.0769230769231V2.6153846153846154H384.4615384615385ZM384.4615384615385 -13.076923076923077H387.0769230769231V2.6153846153846154H389.69230769230774V-15.692307692307693H384.4615384615385ZM387.0769230769231 -18.307692307692307H389.69230769230774V-20.923076923076923H387.0769230769231Z M394.92307692307696 -2.6153846153846154H397.53846153846155V-15.692307692307693H394.92307692307696ZM397.53846153846155 0.0H408.0V-15.692307692307693H405.3846153846154V-2.6153846153846154H397.53846153846155Z M410.61538461538464 -2.6153846153846154H413.2307692307692V-13.076923076923077H410.61538461538464ZM413.2307692307692 0.0H423.6923076923077V-23.53846153846154H421.0769230769231V-15.692307692307693H413.2307692307692V-13.076923076923077H421.0769230769231V-2.6153846153846154H413.2307692307692Z M426.3076923076923 -2.6153846153846154H428.9230769230769V-13.076923076923077H426.3076923076923ZM428.9230769230769 7.846153846153847H436.7692307692308V5.230769230769231H428.9230769230769ZM428.9230769230769 0.0H436.7692307692308V5.230769230769231H439.38461538461536V-15.692307692307693H428.9230769230769V-13.076923076923077H436.7692307692308V-2.6153846153846154H428.9230769230769Z M442.00000000000006 -2.6153846153846154H444.61538461538464V-7.846153846153847H455.0769230769231V-13.076923076923077H452.4615384615385V-10.461538461538462H444.61538461538464V-13.076923076923077H442.00000000000006ZM444.61538461538464 0.0H452.4615384615385V-2.6153846153846154H444.61538461538464ZM444.61538461538464 -13.076923076923077H452.4615384615385V-15.692307692307693H444.61538461538464ZM452.4615384615385 -2.6153846153846154H455.0769230769231V-5.230769230769231H452.4615384615385Z M473.3846153846154 0.0H476.0V-13.076923076923077H478.61538461538464V-15.692307692307693H473.3846153846154ZM478.61538461538464 0.0H481.2307692307692V-13.076923076923077H478.61538461538464ZM481.2307692307692 -13.076923076923077H483.84615384615387V-15.692307692307693H481.2307692307692ZM483.84615384615387 0.0H486.46153846153845V-13.076923076923077H483.84615384615387Z M489.0769230769231 -2.6153846153846154H491.6923076923077V-15.692307692307693H489.0769230769231ZM491.6923076923077 7.846153846153847H499.53846153846155V5.230769230769231H491.6923076923077ZM491.6923076923077 0.0H499.53846153846155V5.230769230769231H502.15384615384613V-15.692307692307693H499.53846153846155V-2.6153846153846154H491.6923076923077Z M520.4615384615385 -10.461538461538462H523.0769230769231V-15.692307692307693H520.4615384615385ZM523.0769230769231 -5.230769230769231H525.6923076923076V-10.461538461538462H523.0769230769231ZM525.6923076923076 0.0H528.3076923076923V-5.230769230769231H525.6923076923076ZM528.3076923076923 -5.230769230769231H530.9230769230769V-10.461538461538462H528.3076923076923ZM530.9230769230769 -10.461538461538462H533.5384615384615V-15.692307692307693H530.9230769230769Z M536.1538461538462 -2.6153846153846154H538.7692307692308V-13.076923076923077H536.1538461538462ZM538.7692307692308 0.0H546.6153846153846V-2.6153846153846154H538.7692307692308ZM538.7692307692308 -13.076923076923077H546.6153846153846V-15.692307692307693H538.7692307692308ZM546.6153846153846 -2.6153846153846154H549.2307692307693V-13.076923076923077H546.6153846153846Z M551.8461538461539 -5.230769230769231H554.4615384615386V-15.692307692307693H551.8461538461539ZM554.4615384615386 0.0H557.0769230769231V-5.230769230769231H554.4615384615386ZM557.0769230769231 -5.230769230769231H559.6923076923077V-10.461538461538462H557.0769230769231ZM559.6923076923077 0.0H562.3076923076924V-5.230769230769231H559.6923076923077ZM562.3076923076924 -5.230769230769231H564.923076923077V-15.692307692307693H562.3076923076924Z M570.1538461538462 0.0H575.3846153846154V-5.230769230769231H570.1538461538462Z"/>
  </g>
</svg>
