<svg xmlns="http://www.w3.org/2000/svg" width="594" height="67" viewBox="0 0 594 67" role="img" aria-labelledby="title desc" style="background: transparent;">
  <title id="title">Astra Pixel Regular preview</title>
  <desc id="desc">Sphinx of black quartz, judge my vow.</desc>
  <style>
    svg { background: transparent; }
    .preview-text { fill: #24292f; }
    @media (prefers-color-scheme: dark) {
      .preview-text { fill: #f0f6fc; }
    }
  </style>
  <g class="preview-text" transform="translate(24.00 44.00)">
    <path d="M0.0 0.0H9.0V-3.0H0.0ZM0.0 -15.0H3.0V-21.0H0.0ZM3.0 -12.0H9.0V-15.0H3.0ZM3.0 -21.0H12.0V-24.0H3.0ZM9.0 -3.0H12.0V-12.0H9.0Z M15.0 3.0H18.0V0.0H24.0V-3.0H18.0V-15.0H24.0V-18.0H15.0ZM24.0 -3.0H27.0V-15.0H24.0Z M30.0 0.0H33.0V-15.0H39.0V-18.0H33.0V-24.0H30.0ZM39.0 0.0H42.0V-15.0H39.0Z M45.0 0.0H54.0V-3.0H51.0V-18.0H45.0V-15.0H48.0V-3.0H45.0ZM48.0 -21.0H51.0V-24.0H48.0Z M60.0 0.0H63.0V-15.0H69.0V-18.0H60.0ZM69.0 0.0H72.0V-15.0H69.0Z M75.0 0.0H78.0V-6.0H75.0ZM75.0 -12.0H78.0V-18.0H75.0ZM78.0 -6.0H84.0V-12.0H78.0ZM84.0 0.0H87.0V-6.0H84.0ZM84.0 -12.0H87.0V-18.0H84.0Z M105.0 -3.0H108.0V-15.0H105.0ZM108.0 0.0H114.0V-3.0H108.0ZM108.0 -15.0H114.0V-18.0H108.0ZM114.0 -3.0H117.0V-15.0H114.0Z M120.0 -12.0H123.0V0.0H126.0V-12.0H129.0V-15.0H126.0V-21.0H123.0V-15.0H120.0ZM126.0 -21.0H132.0V-24.0H126.0Z M150.0 0.0H159.0V-3.0H153.0V-15.0H159.0V-18.0H153.0V-24.0H150.0ZM159.0 -3.0H162.0V-15.0H159.0Z M165.0 -21.0H168.0V-3.0H171.0V-24.0H165.0ZM171.0 0.0H174.0V-3.0H171.0Z M180.0 -3.0H183.0V-9.0H180.0ZM183.0 0.0H192.0V-15.0H189.0V-12.0H183.0V-9.0H189.0V-3.0H183.0ZM183.0 -15.0H189.0V-18.0H183.0Z M195.0 -3.0H198.0V-15.0H195.0ZM198.0 0.0H207.0V-3.0H198.0ZM198.0 -15.0H207.0V-18.0H198.0Z M210.0 0.0H213.0V-6.0H216.0V-9.0H213.0V-24.0H210.0ZM216.0 -3.0H219.0V-6.0H216.0ZM216.0 -9.0H219.0V-12.0H216.0ZM219.0 0.0H222.0V-3.0H219.0ZM219.0 -12.0H222.0V-18.0H219.0Z M240.0 -3.0H243.0V-15.0H240.0ZM243.0 0.0H249.0V3.0H252.0V-18.0H243.0V-15.0H249.0V-3.0H243.0Z M255.0 -3.0H258.0V-18.0H255.0ZM258.0 0.0H267.0V-18.0H264.0V-3.0H258.0Z M270.0 -3.0H273.0V-9.0H270.0ZM273.0 0.0H282.0V-15.0H279.0V-12.0H273.0V-9.0H279.0V-3.0H273.0ZM273.0 -15.0H279.0V-18.0H273.0Z M285.0 0.0H288.0V-12.0H291.0V-15.0H288.0V-18.0H285.0ZM291.0 -15.0H297.0V-18.0H291.0Z M300.0 -15.0H303.0V-3.0H306.0V-15.0H309.0V-18.0H306.0V-24.0H303.0V-18.0H300.0ZM306.0 0.0H312.0V-3.0H306.0Z M315.0 0.0H327.0V-3.0H318.0V-6.0H315.0ZM315.0 -15.0H324.0V-12.0H327.0V-18.0H315.0ZM318.0 -6.0H321.0V-9.0H318.0ZM321.0 -9.0H324.0V-12.0H321.0Z M330.0 3.0H333.0V0.0H330.0ZM333.0 0.0H336.0V-3.0H333.0Z M360.0 3.0H366.0V0.0H360.0ZM363.0 -15.0H366.0V0.0H369.0V-18.0H363.0ZM366.0 -21.0H369.0V-24.0H366.0Z M375.0 -3.0H378.0V-18.0H375.0ZM378.0 0.0H387.0V-18.0H384.0V-3.0H378.0Z M390.0 -3.0H393.0V-15.0H390.0ZM393.0 0.0H402.0V-24.0H399.0V-18.0H393.0V-15.0H399.0V-3.0H393.0Z M405.0 3.0H414.0V0.0H405.0ZM405.0 -6.0H408.0V-15.0H405.0ZM408.0 -3.0H414.0V0.0H417.0V-18.0H408.0V-15.0H414.0V-6.0H408.0Z M420.0 -3.0H423.0V-6.0H432.0V-15.0H429.0V-9.0H423.0V-15.0H420.0ZM423.0 0.0H432.0V-3.0H423.0ZM423.0 -15.0H429.0V-18.0H423.0Z M450.0 0.0H453.0V-12.0H459.0V0.0H462.0V-15.0H459.0V-18.0H450.0Z M465.0 3.0H474.0V0.0H465.0ZM465.0 -6.0H468.0V-18.0H465.0ZM468.0 -3.0H474.0V0.0H477.0V-18.0H474.0V-6.0H468.0Z M495.0 -6.0H498.0V-18.0H495.0ZM498.0 0.0H501.0V-3.0H504.0V-6.0H498.0ZM504.0 -6.0H507.0V-18.0H504.0Z M510.0 -3.0H513.0V-15.0H510.0ZM513.0 0.0H519.0V-3.0H513.0ZM513.0 -15.0H519.0V-18.0H513.0ZM519.0 -3.0H522.0V-15.0H519.0Z M525.0 -3.0H528.0V0.0H534.0V-3.0H537.0V-18.0H534.0V-6.0H528.0V-18.0H525.0Z M543.0 0.0H546.0V-3.0H543.0Z"/>
  </g>
</svg>
