<svg xmlns="http://www.w3.org/2000/svg" width="833" height="95" viewBox="0 0 833 95" role="img" aria-labelledby="title desc">
  <title id="title">Atkinson Hyperlegible Mono Regular Sonic preview</title>
  <desc id="desc">Sphinx of black quartz, judge my vow.</desc>
  <rect width="100%" height="100%" rx="10" fill="#0d1117"/>
  <text x="24" y="34" fill="#8b949e" font-family="ui-monospace, SFMono-Regular, Menlo, Consolas, monospace" font-size="16">Atkinson Hyperlegible Mono Regular Sonic</text>
  <g transform="translate(21.86 70.38)" fill="#f0f6fc">
    <path d="M10.744000000000002 0.40800000000000003Q8.942 0.40800000000000003 7.174 -0.16999999999999998Q5.406000000000001 -0.748 4.063000000000001 -1.9210000000000003Q2.72 -3.0940000000000003 2.1420000000000003 -4.930000000000001L4.964 -5.984Q5.508 -4.0120000000000005 7.191000000000001 -3.043Q8.874 -2.0740000000000003 10.812000000000001 -2.0740000000000003Q12.308000000000002 -2.0740000000000003 13.549000000000001 -2.5500000000000003Q14.790000000000001 -3.0260000000000002 15.555 -3.9780000000000006Q16.32 -4.930000000000001 16.32 -6.324000000000001Q16.32 -7.752000000000001 15.283000000000001 -8.636000000000001Q14.246 -9.520000000000001 11.56 -10.166L8.738000000000001 -10.846Q7.072000000000001 -11.254000000000001 5.695 -11.951Q4.3180000000000005 -12.648000000000001 3.5020000000000007 -13.838000000000001Q2.6860000000000004 -15.028 2.6860000000000004 -16.830000000000002Q2.6860000000000004 -18.666 3.774 -20.094Q4.862 -21.522000000000002 6.698 -22.321Q8.534 -23.12 10.812000000000001 -23.12Q13.192 -23.12 15.334000000000001 -22.117Q17.476000000000003 -21.114 18.53 -18.904L15.742 -17.85Q15.062000000000001 -19.21 13.617 -19.924Q12.172 -20.638 10.71 -20.638Q9.350000000000001 -20.638 8.228000000000002 -20.230000000000004Q7.106000000000001 -19.822000000000003 6.409000000000001 -18.989000000000004Q5.712000000000001 -18.156000000000002 5.712000000000001 -16.898Q5.712000000000001 -15.504000000000001 6.783000000000001 -14.722000000000001Q7.854000000000001 -13.940000000000001 9.384 -13.566L12.342 -12.818000000000001Q14.416 -12.308000000000002 15.997000000000002 -11.577000000000002Q17.578000000000003 -10.846 18.462000000000003 -9.639Q19.346 -8.432 19.346 -6.460000000000001Q19.346 -4.352 18.156 -2.805Q16.966 -1.258 15.011000000000001 -0.425Q13.056000000000001 0.40800000000000003 10.744000000000002 0.40800000000000003Z M24.514000000000003 5.508V-16.864H26.894000000000005L27.438000000000002 -14.076Q28.322000000000003 -15.504000000000001 29.869000000000003 -16.371000000000002Q31.416000000000004 -17.238 33.354000000000006 -17.238Q35.666000000000004 -17.238 37.434000000000005 -16.184Q39.202000000000005 -15.13 40.188 -13.158000000000001Q41.17400000000001 -11.186 41.17400000000001 -8.398000000000001Q41.17400000000001 -5.61 40.188 -3.6380000000000003Q39.202000000000005 -1.6660000000000001 37.434000000000005 -0.629Q35.666000000000004 0.40800000000000003 33.354000000000006 0.40800000000000003Q31.348000000000006 0.40800000000000003 29.784000000000006 -0.49300000000000005Q28.220000000000002 -1.3940000000000001 27.404000000000003 -2.72V5.508ZM32.708000000000006 -1.9720000000000002Q35.156000000000006 -1.9720000000000002 36.68600000000001 -3.6380000000000003Q38.21600000000001 -5.304 38.21600000000001 -8.398000000000001Q38.21600000000001 -11.492 36.68600000000001 -13.175Q35.156000000000006 -14.858 32.708000000000006 -14.858Q30.328000000000003 -14.858 28.832000000000004 -13.175Q27.336000000000006 -11.492 27.336000000000006 -8.432Q27.336000000000006 -5.372000000000001 28.832000000000004 -3.6720000000000006Q30.328000000000003 -1.9720000000000002 32.708000000000006 -1.9720000000000002Z M46.47800000000001 0.0V-24.072000000000003H49.40200000000001V-14.382000000000001Q49.77600000000001 -14.994000000000002 50.54100000000001 -15.674000000000003Q51.306000000000004 -16.354000000000003 52.44500000000001 -16.796Q53.584 -17.238 55.04600000000001 -17.238Q58.208000000000006 -17.238 59.63600000000001 -15.521Q61.06400000000001 -13.804 61.06400000000001 -11.05V0.0H58.17400000000001V-10.302000000000001Q58.17400000000001 -12.342 57.27300000000001 -13.600000000000001Q56.37200000000001 -14.858 54.230000000000004 -14.858Q52.05400000000001 -14.858 50.72800000000001 -13.362000000000002Q49.40200000000001 -11.866000000000001 49.40200000000001 -9.078000000000001V0.0Z M68.204 0.0V-2.278H74.154V-14.586H69.088V-16.864H77.078V-2.278H83.02799999999999V0.0ZM75.242 -20.162000000000003Q74.39200000000001 -20.162000000000003 73.78 -20.774Q73.168 -21.386000000000003 73.168 -22.236Q73.168 -23.086000000000002 73.78 -23.698Q74.39200000000001 -24.310000000000002 75.242 -24.310000000000002Q76.09200000000001 -24.310000000000002 76.70400000000001 -23.698Q77.316 -23.086000000000002 77.316 -22.236Q77.316 -21.386000000000003 76.70400000000001 -20.774Q76.09200000000001 -20.162000000000003 75.242 -20.162000000000003Z M89.45400000000001 0.0V-16.864H91.83400000000002L92.31000000000002 -14.314000000000002Q92.68400000000001 -14.926000000000002 93.44900000000001 -15.606000000000002Q94.21400000000001 -16.286 95.35300000000001 -16.762Q96.49200000000002 -17.238 97.98800000000001 -17.238Q101.15 -17.238 102.59500000000001 -15.504000000000001Q104.04000000000002 -13.770000000000001 104.04000000000002 -11.05V0.0H101.11600000000001V-10.302000000000001Q101.11600000000001 -12.342 100.215 -13.600000000000001Q99.31400000000001 -14.858 97.20600000000002 -14.858Q94.99600000000001 -14.858 93.67000000000002 -13.362000000000002Q92.34400000000001 -11.866000000000001 92.34400000000001 -9.078000000000001V0.0Z M109.71800000000002 0.0 116.45000000000002 -8.67 110.058 -16.864H113.35600000000001L118.11600000000001 -10.71H118.25200000000001L123.08000000000001 -16.864H126.34400000000001L119.95200000000001 -8.636000000000001L126.65 0.0H123.35200000000002L118.21800000000002 -6.596H118.08200000000001L112.98200000000001 0.0Z M161.16 0.40800000000000003Q159.596 0.40800000000000003 158.066 -0.119Q156.536 -0.646 155.312 -1.717Q154.088 -2.7880000000000003 153.33999999999997 -4.454000000000001Q152.59199999999998 -6.12 152.59199999999998 -8.432Q152.59199999999998 -10.744000000000002 153.33999999999997 -12.41Q154.088 -14.076 155.312 -15.147Q156.536 -16.218 158.066 -16.728Q159.596 -17.238 161.16 -17.238Q162.724 -17.238 164.254 -16.728Q165.784 -16.218 167.00799999999998 -15.147Q168.232 -14.076 168.98000000000002 -12.41Q169.728 -10.744000000000002 169.728 -8.432Q169.728 -6.12 168.98000000000002 -4.454000000000001Q168.232 -2.7880000000000003 167.00799999999998 -1.717Q165.784 -0.646 164.254 -0.119Q162.724 0.40800000000000003 161.16 0.40800000000000003ZM161.16 -1.9720000000000002Q162.656 -1.9720000000000002 163.93099999999998 -2.669Q165.206 -3.366 165.988 -4.7940000000000005Q166.77 -6.222 166.77 -8.432Q166.77 -10.642000000000001 165.988 -12.07Q165.206 -13.498000000000001 163.914 -14.178Q162.62199999999999 -14.858 161.16 -14.858Q159.698 -14.858 158.406 -14.178Q157.114 -13.498000000000001 156.332 -12.07Q155.55 -10.642000000000001 155.55 -8.432Q155.55 -6.222 156.332 -4.7940000000000005Q157.114 -3.366 158.389 -2.669Q159.664 -1.9720000000000002 161.16 -1.9720000000000002Z M180.50600000000003 0.0V-14.586H175.372V-16.864H180.50600000000003V-19.992Q180.50600000000003 -21.76 180.93100000000004 -22.695Q181.35600000000002 -23.630000000000003 182.35900000000004 -24.004Q183.36200000000002 -24.378 185.09600000000003 -24.378H191.04600000000002V-21.964000000000002H185.33400000000003Q184.17800000000003 -21.964000000000002 183.80400000000003 -21.573Q183.43000000000004 -21.182000000000002 183.43000000000004 -19.856V-16.864H188.08800000000002V-14.586H183.43000000000004V0.0Z M226.74600000000004 0.40800000000000003Q224.74000000000004 0.40800000000000003 223.17600000000004 -0.47600000000000003Q221.61200000000002 -1.36 220.76200000000003 -2.72L220.28600000000003 0.0H217.90600000000003V-24.072000000000003H220.79600000000002V-14.008000000000001Q221.68000000000004 -15.47 223.24400000000003 -16.354Q224.80800000000002 -17.238 226.74600000000004 -17.238Q229.05800000000002 -17.238 230.82600000000002 -16.201Q232.59400000000002 -15.164000000000001 233.58000000000004 -13.192Q234.56600000000003 -11.22 234.56600000000003 -8.466000000000001Q234.56600000000003 -5.678000000000001 233.58000000000004 -3.6890000000000005Q232.59400000000002 -1.7000000000000002 230.82600000000002 -0.6460000000000001Q229.05800000000002 0.40800000000000003 226.74600000000004 0.40800000000000003ZM226.10000000000002 -1.9720000000000002Q228.54800000000003 -1.9720000000000002 230.07800000000003 -3.6720000000000006Q231.60800000000003 -5.372000000000001 231.60800000000003 -8.466000000000001Q231.60800000000003 -11.56 230.07800000000003 -13.209Q228.54800000000003 -14.858 226.10000000000002 -14.858Q223.72000000000003 -14.858 222.22400000000005 -13.175Q220.72800000000004 -11.492 220.72800000000004 -8.432Q220.72800000000004 -5.338 222.22400000000005 -3.6550000000000002Q223.72000000000003 -1.9720000000000002 226.10000000000002 -1.9720000000000002Z M248.03000000000003 0.0Q245.68400000000003 0.0 244.817 -0.765Q243.95000000000002 -1.53 243.95000000000002 -3.7060000000000004V-21.794H240.04000000000002V-24.072000000000003H246.87400000000002V-4.25Q246.87400000000002 -3.1620000000000004 247.18 -2.7880000000000003Q247.48600000000002 -2.414 248.71000000000004 -2.414H254.86400000000003V0.0Z M266.526 0.40800000000000003Q263.908 0.40800000000000003 262.225 -0.8160000000000001Q260.542 -2.04 260.542 -4.25Q260.542 -7.3100000000000005 263.534 -8.721Q266.526 -10.132000000000001 272.442 -10.540000000000001V-10.914000000000001Q272.442 -12.886000000000001 271.473 -13.991000000000001Q270.504 -15.096000000000002 268.36199999999997 -15.096000000000002Q266.628 -15.096000000000002 265.57399999999996 -14.331000000000001Q264.52 -13.566 264.248 -12.41L261.562 -13.192Q262.276 -15.096000000000002 264.095 -16.167Q265.914 -17.238 268.43 -17.238Q275.23 -17.238 275.23 -10.642000000000001V-6.494000000000001Q275.23 -4.284000000000001 275.4 -2.6860000000000004Q275.57 -1.088 275.842 0.0H273.326L272.68 -2.5500000000000003Q272.0 -1.292 270.52099999999996 -0.442Q269.042 0.40800000000000003 266.526 0.40800000000000003ZM267.206 -1.7680000000000002Q268.668 -1.7680000000000002 269.858 -2.244Q271.048 -2.72 271.745 -3.8080000000000007Q272.442 -4.896000000000001 272.442 -6.732V-8.534Q267.954 -8.228 265.727 -7.293Q263.5 -6.3580000000000005 263.5 -4.454000000000001Q263.5 -3.2640000000000002 264.486 -2.516Q265.472 -1.7680000000000002 267.206 -1.7680000000000002Z M290.972 0.40800000000000003Q288.354 0.40800000000000003 286.45 -0.7310000000000001Q284.546 -1.87 283.509 -3.842Q282.472 -5.814 282.472 -8.364Q282.472 -10.846 283.52599999999995 -12.869Q284.58 -14.892000000000001 286.501 -16.065Q288.42199999999997 -17.238 291.108 -17.238Q293.522 -17.238 295.341 -16.201Q297.15999999999997 -15.164000000000001 298.146 -13.328000000000001L295.63 -12.41Q294.406 -14.858 291.142 -14.858Q289.68 -14.858 288.371 -14.178Q287.062 -13.498000000000001 286.246 -12.07Q285.43 -10.642000000000001 285.43 -8.398000000000001Q285.43 -6.154000000000001 286.246 -4.743Q287.062 -3.3320000000000003 288.35400000000004 -2.652Q289.646 -1.9720000000000002 291.074 -1.9720000000000002Q292.638 -1.9720000000000002 293.89599999999996 -2.584Q295.154 -3.196 295.73199999999997 -4.284000000000001L298.248 -3.366Q297.398 -1.87 295.528 -0.7310000000000001Q293.658 0.40800000000000003 290.972 0.40800000000000003Z M305.218 0.0V-24.072000000000003H308.108V-8.874L316.234 -16.864H319.804L312.664 -9.928L320.688 0.0H317.118L310.692 -7.99L308.108 -5.474V0.0Z M362.98400000000004 5.916Q361.8960000000001 5.916 361.01200000000006 5.525Q360.12800000000004 5.134 359.61800000000005 4.165Q359.10800000000006 3.196 359.10800000000006 1.4280000000000002V-2.754Q358.22400000000005 -1.36 356.711 -0.47600000000000003Q355.19800000000004 0.40800000000000003 353.22600000000006 0.40800000000000003Q350.982 0.40800000000000003 349.26500000000004 -0.629Q347.54800000000006 -1.6660000000000001 346.57900000000006 -3.6380000000000003Q345.61000000000007 -5.61 345.61000000000007 -8.398000000000001Q345.61000000000007 -11.186 346.57900000000006 -13.158000000000001Q347.54800000000006 -15.13 349.28200000000004 -16.184Q351.0160000000001 -17.238 353.26000000000005 -17.238Q355.232 -17.238 356.745 -16.354Q358.25800000000004 -15.47 359.10800000000006 -14.042000000000002L359.61800000000005 -16.864H361.99800000000005V0.918Q361.99800000000005 2.108 362.355 2.737Q362.71200000000005 3.366 363.66400000000004 3.366Q364.51400000000007 3.366 365.29600000000005 2.9240000000000004V5.406000000000001Q364.85400000000004 5.61 364.27600000000007 5.763Q363.69800000000004 5.916 362.98400000000004 5.916ZM353.94000000000005 -1.9720000000000002Q356.28600000000006 -1.9720000000000002 357.73100000000005 -3.6720000000000006Q359.17600000000004 -5.372000000000001 359.17600000000004 -8.432Q359.17600000000004 -11.492 357.71400000000006 -13.175Q356.25200000000007 -14.858 353.94000000000005 -14.858Q351.56000000000006 -14.858 350.0640000000001 -13.209Q348.56800000000004 -11.56 348.56800000000004 -8.432Q348.56800000000004 -5.304 350.0640000000001 -3.6380000000000003Q351.56000000000006 -1.9720000000000002 353.94000000000005 -1.9720000000000002Z M374.81600000000003 0.40800000000000003Q371.58600000000007 0.40800000000000003 370.22600000000006 -1.36Q368.86600000000004 -3.128 368.86600000000004 -6.0520000000000005V-16.864H371.7900000000001V-6.868Q371.7900000000001 -5.44 372.09600000000006 -4.335000000000001Q372.40200000000004 -3.2300000000000004 373.2180000000001 -2.6010000000000004Q374.03400000000005 -1.9720000000000002 375.5640000000001 -1.9720000000000002Q377.672 -1.9720000000000002 378.93000000000006 -3.4000000000000004Q380.18800000000005 -4.828 380.18800000000005 -7.65V-16.864H383.07800000000003V0.0H380.732L380.25600000000003 -2.6180000000000003Q379.61000000000007 -1.4620000000000002 378.3180000000001 -0.5270000000000001Q377.02600000000007 0.40800000000000003 374.81600000000003 0.40800000000000003Z M395.45400000000006 0.40800000000000003Q392.83600000000007 0.40800000000000003 391.153 -0.8160000000000001Q389.47 -2.04 389.47 -4.25Q389.47 -7.3100000000000005 392.46200000000005 -8.721Q395.45400000000006 -10.132000000000001 401.37000000000006 -10.540000000000001V-10.914000000000001Q401.37000000000006 -12.886000000000001 400.40100000000007 -13.991000000000001Q399.4320000000001 -15.096000000000002 397.2900000000001 -15.096000000000002Q395.55600000000004 -15.096000000000002 394.50200000000007 -14.331000000000001Q393.44800000000004 -13.566 393.17600000000004 -12.41L390.49000000000007 -13.192Q391.20400000000006 -15.096000000000002 393.023 -16.167Q394.84200000000004 -17.238 397.35800000000006 -17.238Q404.1580000000001 -17.238 404.1580000000001 -10.642000000000001V-6.494000000000001Q404.1580000000001 -4.284000000000001 404.3280000000001 -2.6860000000000004Q404.49800000000005 -1.088 404.77000000000004 0.0H402.2540000000001L401.60800000000006 -2.5500000000000003Q400.92800000000005 -1.292 399.44900000000007 -0.442Q397.97 0.40800000000000003 395.45400000000006 0.40800000000000003ZM396.13400000000007 -1.7680000000000002Q397.59600000000006 -1.7680000000000002 398.78600000000006 -2.244Q399.97600000000006 -2.72 400.67300000000006 -3.8080000000000007Q401.37000000000006 -4.896000000000001 401.37000000000006 -6.732V-8.534Q396.88200000000006 -8.228 394.6550000000001 -7.293Q392.42800000000005 -6.3580000000000005 392.42800000000005 -4.454000000000001Q392.42800000000005 -3.2640000000000002 393.41400000000004 -2.516Q394.40000000000003 -1.7680000000000002 396.13400000000007 -1.7680000000000002Z M413.30400000000003 0.0V-16.864H415.51400000000007L416.16 -12.954Q417.35 -15.096000000000002 419.40700000000004 -16.133000000000003Q421.46400000000006 -17.17 423.84400000000005 -17.17Q424.52400000000006 -17.17 425.25500000000005 -17.068Q425.98600000000005 -16.966 426.53000000000003 -16.864V-13.872000000000002Q425.74800000000005 -14.110000000000001 424.898 -14.246000000000002Q424.04800000000006 -14.382000000000001 423.232 -14.382000000000001Q421.19200000000006 -14.382000000000001 419.61100000000005 -13.566000000000003Q418.03000000000003 -12.750000000000002 417.1120000000001 -11.135000000000002Q416.1940000000001 -9.520000000000001 416.1940000000001 -7.038V0.0Z M441.62600000000003 0.0Q440.028 0.0 439.11 -0.323Q438.19200000000006 -0.646 437.80100000000004 -1.5470000000000002Q437.41 -2.4480000000000004 437.41 -4.216V-14.586H433.77200000000005V-16.864H437.41V-21.080000000000002H440.30000000000007V-16.864H447.47400000000005V-14.586H440.30000000000007V-4.6240000000000006Q440.30000000000007 -3.2300000000000004 440.69100000000003 -2.822Q441.08200000000005 -2.414 442.27200000000005 -2.414H445.77400000000006V0.0Z M454.47800000000007 0.0V-2.414L465.69800000000004 -14.450000000000001H454.81800000000004V-16.864H469.47200000000004V-14.450000000000001L458.25200000000007 -2.414H469.81200000000007V0.0Z M481.37200000000007 4.896000000000001 483.14000000000004 0.374Q482.29 0.23800000000000002 481.71200000000005 -0.42500000000000004Q481.13400000000007 -1.088 481.13400000000007 -1.9720000000000002Q481.13400000000007 -2.958 481.831 -3.6550000000000002Q482.528 -4.352 483.51400000000007 -4.352Q484.50000000000006 -4.352 485.18000000000006 -3.6550000000000002Q485.86000000000007 -2.958 485.86000000000007 -1.9720000000000002Q485.86000000000007 -1.7680000000000002 485.826 -1.4960000000000002Q485.79200000000003 -1.2240000000000002 485.62200000000007 -0.8500000000000001L483.37800000000004 4.896000000000001Z M518.806 5.508V3.0940000000000003H523.532Q524.824 3.0940000000000003 525.4359999999999 2.873Q526.048 2.652 526.252 2.023Q526.456 1.3940000000000001 526.456 0.17V-14.586H521.356V-16.864H529.346V0.30600000000000005Q529.346 2.278 528.921 3.417Q528.496 4.556 527.306 5.032Q526.116 5.508 523.838 5.508ZM527.544 -20.162000000000003Q526.694 -20.162000000000003 526.0819999999999 -20.774Q525.4699999999999 -21.386000000000003 525.4699999999999 -22.236Q525.4699999999999 -23.086000000000002 526.0819999999999 -23.698Q526.694 -24.310000000000002 527.544 -24.310000000000002Q528.394 -24.310000000000002 529.006 -23.698Q529.6179999999999 -23.086000000000002 529.6179999999999 -22.236Q529.6179999999999 -21.386000000000003 529.006 -20.774Q528.394 -20.162000000000003 527.544 -20.162000000000003Z M546.72 0.40800000000000003Q543.49 0.40800000000000003 542.1300000000001 -1.36Q540.7700000000001 -3.128 540.7700000000001 -6.0520000000000005V-16.864H543.6940000000001V-6.868Q543.6940000000001 -5.44 544.0 -4.335000000000001Q544.306 -3.2300000000000004 545.1220000000001 -2.6010000000000004Q545.9380000000001 -1.9720000000000002 547.4680000000001 -1.9720000000000002Q549.576 -1.9720000000000002 550.8340000000001 -3.4000000000000004Q552.0920000000001 -4.828 552.0920000000001 -7.65V-16.864H554.9820000000001V0.0H552.6360000000001L552.1600000000001 -2.6180000000000003Q551.514 -1.4620000000000002 550.222 -0.5270000000000001Q548.9300000000001 0.40800000000000003 546.72 0.40800000000000003Z M568.31 0.40800000000000003Q565.9979999999999 0.40800000000000003 564.23 -0.6460000000000001Q562.462 -1.7000000000000002 561.476 -3.6890000000000005Q560.49 -5.678000000000001 560.49 -8.466000000000001Q560.49 -11.22 561.4929999999999 -13.192Q562.496 -15.164000000000001 564.247 -16.201Q565.9979999999999 -17.238 568.31 -17.238Q570.282 -17.238 571.846 -16.354Q573.41 -15.47 574.26 -14.042000000000002V-24.072000000000003H577.15V-6.324000000000001Q577.15 -5.508 577.2349999999999 -3.859Q577.3199999999999 -2.21 577.728 0.0H575.008L574.26 -2.652Q573.308 -1.292 571.7950000000001 -0.442Q570.282 0.40800000000000003 568.31 0.40800000000000003ZM568.956 -1.9720000000000002Q571.336 -1.9720000000000002 572.832 -3.6550000000000002Q574.328 -5.338 574.328 -8.432Q574.328 -11.492 572.832 -13.175Q571.336 -14.858 568.956 -14.858Q566.508 -14.858 564.9780000000001 -13.209Q563.448 -11.56 563.448 -8.466000000000001Q563.448 -5.372000000000001 564.9780000000001 -3.6720000000000006Q566.508 -1.9720000000000002 568.956 -1.9720000000000002Z M590.784 6.494000000000001Q589.288 6.494000000000001 587.8430000000001 6.120000000000001Q586.398 5.746 585.2760000000001 4.896000000000001Q584.154 4.046 583.678 2.652L586.2620000000001 1.7340000000000002Q586.6360000000001 2.8560000000000003 587.826 3.5020000000000007Q589.0160000000001 4.148000000000001 590.8520000000001 4.148000000000001Q592.892 4.148000000000001 594.32 3.1620000000000004Q595.748 2.176 595.748 -0.10200000000000001V-3.298Q594.796 -1.9380000000000002 593.3000000000001 -1.122Q591.8040000000001 -0.30600000000000005 589.832 -0.30600000000000005Q587.69 -0.30600000000000005 585.9390000000001 -1.292Q584.1880000000001 -2.278 583.1850000000001 -4.165Q582.182 -6.0520000000000005 582.182 -8.704Q582.182 -11.458 583.1850000000001 -13.362000000000002Q584.1880000000001 -15.266000000000002 585.922 -16.252000000000002Q587.6560000000001 -17.238 589.764 -17.238Q591.7700000000001 -17.238 593.317 -16.354Q594.864 -15.47 595.748 -14.042000000000002L596.292 -16.864H598.638V-0.30600000000000005Q598.638 3.06 596.479 4.777Q594.32 6.494000000000001 590.784 6.494000000000001ZM590.546 -2.6860000000000004Q592.926 -2.6860000000000004 594.3710000000001 -4.25Q595.816 -5.814 595.816 -8.704Q595.816 -11.628 594.354 -13.243Q592.892 -14.858 590.546 -14.858Q588.166 -14.858 586.653 -13.277000000000001Q585.1400000000001 -11.696000000000002 585.1400000000001 -8.772Q585.1400000000001 -5.814 586.653 -4.25Q588.166 -2.6860000000000004 590.546 -2.6860000000000004Z M612.7479999999999 0.40800000000000003Q610.096 0.40800000000000003 608.192 -0.7310000000000001Q606.288 -1.87 605.268 -3.8590000000000004Q604.2479999999999 -5.848000000000001 604.2479999999999 -8.398000000000001Q604.2479999999999 -11.084000000000001 605.336 -13.073Q606.424 -15.062000000000001 608.328 -16.15Q610.232 -17.238 612.612 -17.238Q615.298 -17.238 617.1510000000001 -15.929Q619.004 -14.620000000000001 619.905 -12.495000000000001Q620.806 -10.370000000000001 620.602 -7.922000000000001H607.138Q607.206 -5.644 608.107 -4.352Q609.008 -3.06 610.3 -2.516Q611.592 -1.9720000000000002 612.884 -1.9720000000000002Q614.482 -1.9720000000000002 615.4849999999999 -2.516Q616.4879999999999 -3.06 617.1 -3.8760000000000003L619.65 -2.958Q618.698 -1.53 617.015 -0.5609999999999999Q615.332 0.40800000000000003 612.7479999999999 0.40800000000000003ZM607.172 -9.928H617.78Q617.746 -11.152000000000001 617.168 -12.291Q616.59 -13.430000000000001 615.4680000000001 -14.178Q614.346 -14.926000000000002 612.68 -14.926000000000002Q611.388 -14.926000000000002 610.215 -14.450000000000001Q609.042 -13.974 608.226 -12.869Q607.41 -11.764000000000001 607.172 -9.928Z M646.7820000000002 0.0V-16.864H648.8560000000001L649.1960000000001 -15.096000000000002Q649.6720000000001 -15.912 650.5730000000001 -16.575Q651.474 -17.238 652.8340000000001 -17.238Q654.1940000000001 -17.238 655.0610000000001 -16.66Q655.9280000000001 -16.082 656.3360000000001 -15.062000000000001Q656.7780000000001 -15.912 657.7300000000001 -16.575Q658.6820000000001 -17.238 660.1100000000001 -17.238Q662.1840000000001 -17.238 663.1190000000001 -15.98Q664.0540000000001 -14.722000000000001 664.0540000000001 -12.750000000000002V0.0H661.4700000000001V-11.866000000000001Q661.4700000000001 -13.260000000000002 660.9770000000001 -14.059000000000001Q660.4840000000002 -14.858 659.3280000000001 -14.858Q658.1720000000001 -14.858 657.4410000000001 -13.940000000000001Q656.7100000000002 -13.022 656.7100000000002 -11.186V0.0H654.1260000000001V-11.9Q654.1260000000001 -13.294 653.6500000000001 -14.076Q653.1740000000001 -14.858 652.0180000000001 -14.858Q650.8960000000001 -14.858 650.1310000000001 -13.923000000000002Q649.3660000000001 -12.988000000000001 649.3660000000001 -11.152000000000001V0.0Z M669.2220000000001 5.508V3.196H671.806Q673.0300000000001 3.196 673.5910000000001 2.873Q674.152 2.5500000000000003 674.628 1.53L675.4780000000001 -0.30600000000000005L668.168 -16.864H671.296L676.8720000000001 -3.672H677.008L682.4480000000001 -16.864H685.576L677.2460000000001 1.802Q676.668 3.1620000000000004 676.09 3.9780000000000006Q675.5120000000001 4.7940000000000005 674.594 5.151Q673.676 5.508 672.01 5.508Z M718.4200000000001 0.0 711.144 -16.864H714.2040000000001L719.8480000000001 -3.366H719.984L725.5260000000001 -16.864H728.552L721.2420000000001 0.0Z M741.3360000000001 0.40800000000000003Q739.772 0.40800000000000003 738.2420000000001 -0.119Q736.7120000000001 -0.646 735.488 -1.717Q734.2640000000001 -2.7880000000000003 733.5160000000001 -4.454000000000001Q732.7680000000001 -6.12 732.7680000000001 -8.432Q732.7680000000001 -10.744000000000002 733.5160000000001 -12.41Q734.2640000000001 -14.076 735.488 -15.147Q736.7120000000001 -16.218 738.2420000000001 -16.728Q739.772 -17.238 741.3360000000001 -17.238Q742.9000000000001 -17.238 744.4300000000001 -16.728Q745.9600000000002 -16.218 747.1840000000002 -15.147Q748.4080000000001 -14.076 749.1560000000002 -12.41Q749.9040000000001 -10.744000000000002 749.9040000000001 -8.432Q749.9040000000001 -6.12 749.1560000000002 -4.454000000000001Q748.4080000000001 -2.7880000000000003 747.1840000000002 -1.717Q745.9600000000002 -0.646 744.4300000000001 -0.119Q742.9000000000001 0.40800000000000003 741.3360000000001 0.40800000000000003ZM741.3360000000001 -1.9720000000000002Q742.8320000000001 -1.9720000000000002 744.1070000000001 -2.669Q745.3820000000001 -3.366 746.1640000000001 -4.7940000000000005Q746.9460000000001 -6.222 746.9460000000001 -8.432Q746.9460000000001 -10.642000000000001 746.1640000000001 -12.07Q745.3820000000001 -13.498000000000001 744.0900000000001 -14.178Q742.7980000000001 -14.858 741.3360000000001 -14.858Q739.8740000000001 -14.858 738.5820000000001 -14.178Q737.2900000000001 -13.498000000000001 736.508 -12.07Q735.7260000000001 -10.642000000000001 735.7260000000001 -8.432Q735.7260000000001 -6.222 736.508 -4.7940000000000005Q737.2900000000001 -3.366 738.565 -2.669Q739.8400000000001 -1.9720000000000002 741.3360000000001 -1.9720000000000002Z M757.1800000000001 0.0 753.066 -16.864H755.6500000000001L758.5740000000001 -3.8760000000000003H758.71L761.6 -16.864H764.082L767.0740000000001 -3.91H767.21L770.066 -16.864H772.582L768.5020000000001 0.0H765.986L762.892 -13.328000000000001H762.7560000000001L759.696 0.0Z M784.3120000000001 0.40800000000000003Q783.3260000000001 0.40800000000000003 782.6290000000001 -0.28900000000000003Q781.9320000000001 -0.9860000000000001 781.9320000000001 -1.9720000000000002Q781.9320000000001 -2.958 782.6290000000001 -3.6550000000000002Q783.3260000000001 -4.352 784.3120000000001 -4.352Q785.2980000000001 -4.352 785.9950000000001 -3.6550000000000002Q786.6920000000001 -2.958 786.6920000000001 -1.9720000000000002Q786.6920000000001 -0.9860000000000001 785.9950000000001 -0.28900000000000003Q785.2980000000001 0.40800000000000003 784.3120000000001 0.40800000000000003Z"/>
  </g>
</svg>
