<svg xmlns="http://www.w3.org/2000/svg" width="833" height="71" viewBox="0 0 833 71" role="img" aria-labelledby="title desc" style="background: transparent;">
  <title id="title">Atkinson Hyperlegible Mono Regular Sonic preview</title>
  <desc id="desc">Sphinx of black quartz, judge my vow.</desc>
  <style>
    svg { background: transparent; }
    .preview-text { fill: #24292f; }
    @media (prefers-color-scheme: dark) {
      .preview-text { fill: #f0f6fc; }
    }
  </style>
  <g class="preview-text" transform="translate(22.44 44.38)">
    <path d="M10.846 0.40800000000000003Q7.582000000000001 0.40800000000000003 5.083 -1.054Q2.584 -2.516 1.564 -5.2700000000000005L6.086 -6.902Q6.5280000000000005 -5.338 7.888000000000001 -4.454000000000001Q9.248000000000001 -3.5700000000000003 10.948 -3.5700000000000003Q11.9 -3.5700000000000003 12.818000000000001 -3.8760000000000003Q13.736 -4.182 14.331000000000001 -4.828Q14.926000000000002 -5.474 14.926000000000002 -6.460000000000001Q14.926000000000002 -7.6160000000000005 13.957 -8.296000000000001Q12.988000000000001 -8.976 10.88 -9.418000000000001L8.772 -9.860000000000001Q5.78 -10.472000000000001 3.944 -12.002000000000002Q2.108 -13.532000000000002 2.108 -16.354000000000003Q2.108 -18.394000000000002 3.349 -19.924Q4.590000000000001 -21.454 6.613000000000001 -22.287Q8.636000000000001 -23.12 11.016 -23.12Q12.648000000000001 -23.12 14.280000000000001 -22.627000000000002Q15.912 -22.134 17.238 -21.08Q18.564 -20.026 19.278000000000002 -18.326L14.790000000000001 -16.66Q14.280000000000001 -17.85 13.141000000000002 -18.496000000000002Q12.002 -19.142000000000003 10.676 -19.142000000000003Q9.146 -19.142000000000003 8.109000000000002 -18.479000000000003Q7.072000000000001 -17.816000000000003 7.072000000000001 -16.558Q7.072000000000001 -15.606000000000002 7.803000000000001 -15.011000000000001Q8.534 -14.416 9.826 -14.144000000000002L12.274000000000001 -13.600000000000001Q14.518 -13.124 16.218000000000004 -12.359000000000002Q17.918000000000003 -11.594000000000001 18.887 -10.319Q19.856 -9.044 19.856 -7.038Q19.856 -4.760000000000001 18.615000000000002 -3.0940000000000003Q17.374000000000002 -1.4280000000000002 15.317000000000002 -0.51Q13.260000000000002 0.40800000000000003 10.846 0.40800000000000003Z M23.834000000000003 5.508V-16.864H28.016000000000005L28.628000000000004 -14.450000000000001Q29.478 -15.878000000000002 30.991000000000003 -16.609Q32.504000000000005 -17.34 33.932 -17.34Q36.21000000000001 -17.34 37.910000000000004 -16.252000000000002Q39.61 -15.164000000000001 40.562 -13.175Q41.514 -11.186 41.514 -8.432Q41.514 -5.644 40.562 -3.672Q39.61 -1.7000000000000002 37.910000000000004 -0.6460000000000001Q36.21000000000001 0.40800000000000003 33.932 0.40800000000000003Q32.470000000000006 0.40800000000000003 30.957000000000004 -0.34Q29.444000000000003 -1.088 28.628000000000004 -2.482V5.508ZM32.504000000000005 -3.3320000000000003Q34.20400000000001 -3.3320000000000003 35.411 -4.6240000000000006Q36.618 -5.916 36.618 -8.432Q36.618 -10.88 35.411 -12.257000000000001Q34.20400000000001 -13.634 32.504000000000005 -13.634Q30.804000000000002 -13.634 29.597 -12.427Q28.390000000000004 -11.22 28.390000000000004 -8.534Q28.390000000000004 -5.848000000000001 29.597 -4.590000000000001Q30.804000000000002 -3.3320000000000003 32.504000000000005 -3.3320000000000003Z M46.47800000000001 0.0V-24.072000000000003H49.40200000000001V-14.382000000000001Q49.77600000000001 -14.994000000000002 50.54100000000001 -15.674000000000003Q51.306000000000004 -16.354000000000003 52.44500000000001 -16.796Q53.584 -17.238 55.04600000000001 -17.238Q58.208000000000006 -17.238 59.63600000000001 -15.521Q61.06400000000001 -13.804 61.06400000000001 -11.05V0.0H58.17400000000001V-10.302000000000001Q58.17400000000001 -12.342 57.27300000000001 -13.600000000000001Q56.37200000000001 -14.858 54.230000000000004 -14.858Q52.05400000000001 -14.858 50.72800000000001 -13.362000000000002Q49.40200000000001 -11.866000000000001 49.40200000000001 -9.078000000000001V0.0Z M68.204 0.0V-2.278H74.154V-14.586H69.088V-16.864H77.078V-2.278H83.02799999999999V0.0ZM75.242 -20.162000000000003Q74.39200000000001 -20.162000000000003 73.78 -20.774Q73.168 -21.386000000000003 73.168 -22.236Q73.168 -23.086000000000002 73.78 -23.698Q74.39200000000001 -24.310000000000002 75.242 -24.310000000000002Q76.09200000000001 -24.310000000000002 76.70400000000001 -23.698Q77.316 -23.086000000000002 77.316 -22.236Q77.316 -21.386000000000003 76.70400000000001 -20.774Q76.09200000000001 -20.162000000000003 75.242 -20.162000000000003Z M89.45400000000001 0.0V-16.864H91.83400000000002L92.31000000000002 -14.314000000000002Q92.68400000000001 -14.926000000000002 93.44900000000001 -15.606000000000002Q94.21400000000001 -16.286 95.35300000000001 -16.762Q96.49200000000002 -17.238 97.98800000000001 -17.238Q101.15 -17.238 102.59500000000001 -15.504000000000001Q104.04000000000002 -13.770000000000001 104.04000000000002 -11.05V0.0H101.11600000000001V-10.302000000000001Q101.11600000000001 -12.342 100.215 -13.600000000000001Q99.31400000000001 -14.858 97.20600000000002 -14.858Q94.99600000000001 -14.858 93.67000000000002 -13.362000000000002Q92.34400000000001 -11.866000000000001 92.34400000000001 -9.078000000000001V0.0Z M109.71800000000002 0.0 116.45000000000002 -8.67 110.058 -16.864H113.35600000000001L118.11600000000001 -10.71H118.25200000000001L123.08000000000001 -16.864H126.34400000000001L119.95200000000001 -8.636000000000001L126.65 0.0H123.35200000000002L118.21800000000002 -6.596H118.08200000000001L112.98200000000001 0.0Z M161.16 0.40800000000000003Q158.882 0.40800000000000003 156.84199999999998 -0.544Q154.802 -1.496 153.527 -3.468Q152.252 -5.44 152.252 -8.5Q152.252 -11.56 153.527 -13.515Q154.802 -15.47 156.84199999999998 -16.405Q158.882 -17.34 161.16 -17.34Q163.438 -17.34 165.478 -16.405Q167.518 -15.47 168.793 -13.515Q170.06799999999998 -11.56 170.06799999999998 -8.5Q170.06799999999998 -5.44 168.793 -3.468Q167.518 -1.496 165.478 -0.544Q163.438 0.40800000000000003 161.16 0.40800000000000003ZM161.16 -3.298Q162.894 -3.298 164.05 -4.59Q165.206 -5.882000000000001 165.206 -8.5Q165.206 -11.118 164.016 -12.376000000000001Q162.826 -13.634 161.16 -13.634Q159.494 -13.634 158.304 -12.376000000000001Q157.114 -11.118 157.114 -8.5Q157.114 -5.882000000000001 158.26999999999998 -4.59Q159.426 -3.298 161.16 -3.298Z M180.50600000000003 0.0V-14.586H175.372V-16.864H180.50600000000003V-19.992Q180.50600000000003 -21.76 180.93100000000004 -22.695Q181.35600000000002 -23.630000000000003 182.35900000000004 -24.004Q183.36200000000002 -24.378 185.09600000000003 -24.378H191.04600000000002V-21.964000000000002H185.33400000000003Q184.17800000000003 -21.964000000000002 183.80400000000003 -21.573Q183.43000000000004 -21.182000000000002 183.43000000000004 -19.856V-16.864H188.08800000000002V-14.586H183.43000000000004V0.0Z M227.324 0.40800000000000003Q225.86200000000002 0.40800000000000003 224.34900000000002 -0.28900000000000003Q222.836 -0.9860000000000001 221.98600000000002 -2.3800000000000003L221.40800000000002 0.0H217.22600000000003V-24.072000000000003H222.02000000000004V-14.450000000000001Q222.87000000000003 -15.844000000000001 224.38300000000004 -16.592Q225.89600000000002 -17.34 227.324 -17.34Q229.60200000000003 -17.34 231.30200000000002 -16.286Q233.002 -15.232000000000001 233.954 -13.277000000000001Q234.90600000000003 -11.322000000000001 234.90600000000003 -8.568000000000001Q234.90600000000003 -5.78 233.954 -3.774Q233.002 -1.7680000000000002 231.30200000000002 -0.6800000000000002Q229.60200000000003 0.40800000000000003 227.324 0.40800000000000003ZM225.89600000000002 -3.3320000000000003Q227.59600000000003 -3.3320000000000003 228.80300000000003 -4.7090000000000005Q230.01000000000002 -6.086 230.01000000000002 -8.568000000000001Q230.01000000000002 -11.016 228.80300000000003 -12.325Q227.59600000000003 -13.634 225.89600000000002 -13.634Q224.19600000000003 -13.634 222.98900000000003 -12.376000000000001Q221.782 -11.118 221.782 -8.466000000000001Q221.782 -5.746 222.98900000000003 -4.539000000000001Q224.19600000000003 -3.3320000000000003 225.89600000000002 -3.3320000000000003Z M248.30200000000002 0.0Q246.33 0.0 245.17400000000004 -0.35700000000000004Q244.01800000000003 -0.7140000000000001 243.50800000000004 -1.7000000000000002Q242.99800000000002 -2.6860000000000004 242.99800000000002 -4.556V-20.434H239.08800000000002V-24.072000000000003H247.79200000000003V-5.882000000000001Q247.79200000000003 -4.590000000000001 248.16600000000003 -4.182Q248.54000000000002 -3.7740000000000005 249.93400000000003 -3.7740000000000005H255.81600000000003V0.0Z M266.526 0.40800000000000003Q263.908 0.40800000000000003 262.225 -0.8160000000000001Q260.542 -2.04 260.542 -4.25Q260.542 -7.3100000000000005 263.534 -8.721Q266.526 -10.132000000000001 272.442 -10.540000000000001V-10.914000000000001Q272.442 -12.886000000000001 271.473 -13.991000000000001Q270.504 -15.096000000000002 268.36199999999997 -15.096000000000002Q266.628 -15.096000000000002 265.57399999999996 -14.331000000000001Q264.52 -13.566 264.248 -12.41L261.562 -13.192Q262.276 -15.096000000000002 264.095 -16.167Q265.914 -17.238 268.43 -17.238Q275.23 -17.238 275.23 -10.642000000000001V-6.494000000000001Q275.23 -4.284000000000001 275.4 -2.6860000000000004Q275.57 -1.088 275.842 0.0H273.326L272.68 -2.5500000000000003Q272.0 -1.292 270.52099999999996 -0.442Q269.042 0.40800000000000003 266.526 0.40800000000000003ZM267.206 -1.7680000000000002Q268.668 -1.7680000000000002 269.858 -2.244Q271.048 -2.72 271.745 -3.8080000000000007Q272.442 -4.896000000000001 272.442 -6.732V-8.534Q267.954 -8.228 265.727 -7.293Q263.5 -6.3580000000000005 263.5 -4.454000000000001Q263.5 -3.2640000000000002 264.486 -2.516Q265.472 -1.7680000000000002 267.206 -1.7680000000000002Z M290.972 0.40800000000000003Q288.354 0.40800000000000003 286.45 -0.7310000000000001Q284.546 -1.87 283.509 -3.842Q282.472 -5.814 282.472 -8.364Q282.472 -10.846 283.52599999999995 -12.869Q284.58 -14.892000000000001 286.501 -16.065Q288.42199999999997 -17.238 291.108 -17.238Q293.522 -17.238 295.341 -16.201Q297.15999999999997 -15.164000000000001 298.146 -13.328000000000001L295.63 -12.41Q294.406 -14.858 291.142 -14.858Q289.68 -14.858 288.371 -14.178Q287.062 -13.498000000000001 286.246 -12.07Q285.43 -10.642000000000001 285.43 -8.398000000000001Q285.43 -6.154000000000001 286.246 -4.743Q287.062 -3.3320000000000003 288.35400000000004 -2.652Q289.646 -1.9720000000000002 291.074 -1.9720000000000002Q292.638 -1.9720000000000002 293.89599999999996 -2.584Q295.154 -3.196 295.73199999999997 -4.284000000000001L298.248 -3.366Q297.398 -1.87 295.528 -0.7310000000000001Q293.658 0.40800000000000003 290.972 0.40800000000000003Z M305.218 0.0V-24.072000000000003H308.108V-8.874L316.234 -16.864H319.804L312.664 -9.928L320.688 0.0H317.118L310.692 -7.99L308.108 -5.474V0.0Z M362.23600000000005 5.916Q360.9440000000001 5.916 359.83900000000006 5.474Q358.73400000000004 5.032 358.05400000000003 3.8760000000000003Q357.374 2.72 357.374 0.5780000000000001V-2.482Q356.59200000000004 -1.088 355.16400000000004 -0.34Q353.73600000000005 0.40800000000000003 352.24000000000007 0.40800000000000003Q350.20000000000005 0.40800000000000003 348.619 -0.6460000000000001Q347.03800000000007 -1.7000000000000002 346.15400000000005 -3.672Q345.27000000000004 -5.644 345.27000000000004 -8.432Q345.27000000000004 -11.186 346.15400000000005 -13.175Q347.03800000000007 -15.164000000000001 348.653 -16.252000000000002Q350.26800000000003 -17.34 352.37600000000003 -17.34Q353.77000000000004 -17.34 355.16400000000004 -16.592Q356.55800000000005 -15.844000000000001 357.374 -14.450000000000001L357.98600000000005 -16.864H362.16800000000006V-0.748Q362.16800000000006 0.30600000000000005 362.40600000000006 1.02Q362.64400000000006 1.7340000000000002 363.66400000000004 1.7340000000000002Q364.10600000000005 1.7340000000000002 364.4630000000001 1.649Q364.82000000000005 1.564 365.29600000000005 1.36V5.338Q364.85400000000004 5.508 364.05500000000006 5.712Q363.25600000000003 5.916 362.23600000000005 5.916ZM353.90600000000006 -3.3320000000000003Q355.43600000000004 -3.3320000000000003 356.50700000000006 -4.573Q357.57800000000003 -5.814 357.57800000000003 -8.466000000000001Q357.57800000000003 -11.118 356.50700000000006 -12.376000000000001Q355.43600000000004 -13.634 353.90600000000006 -13.634Q352.34200000000004 -13.634 351.254 -12.325Q350.16600000000005 -11.016 350.16600000000005 -8.466000000000001Q350.16600000000005 -5.916 351.254 -4.6240000000000006Q352.34200000000004 -3.3320000000000003 353.90600000000006 -3.3320000000000003Z M374.06800000000004 0.40800000000000003Q370.70200000000006 0.40800000000000003 369.4100000000001 -1.4110000000000003Q368.11800000000005 -3.2300000000000004 368.11800000000005 -6.596V-16.864H372.91200000000003V-7.82Q372.91200000000003 -6.562 373.06500000000005 -5.525Q373.2180000000001 -4.488 373.83000000000004 -3.8930000000000002Q374.44200000000006 -3.298 375.73400000000004 -3.298Q377.4680000000001 -3.298 378.26700000000005 -4.4030000000000005Q379.06600000000003 -5.508 379.06600000000003 -7.922000000000001V-16.864H383.826V0.0H379.71200000000005L379.06600000000003 -2.4480000000000004Q378.35200000000003 -1.2240000000000002 377.2130000000001 -0.4080000000000001Q376.07400000000007 0.40800000000000003 374.06800000000004 0.40800000000000003Z M395.45400000000006 0.40800000000000003Q392.83600000000007 0.40800000000000003 391.153 -0.8160000000000001Q389.47 -2.04 389.47 -4.25Q389.47 -7.3100000000000005 392.46200000000005 -8.721Q395.45400000000006 -10.132000000000001 401.37000000000006 -10.540000000000001V-10.914000000000001Q401.37000000000006 -12.886000000000001 400.40100000000007 -13.991000000000001Q399.4320000000001 -15.096000000000002 397.2900000000001 -15.096000000000002Q395.55600000000004 -15.096000000000002 394.50200000000007 -14.331000000000001Q393.44800000000004 -13.566 393.17600000000004 -12.41L390.49000000000007 -13.192Q391.20400000000006 -15.096000000000002 393.023 -16.167Q394.84200000000004 -17.238 397.35800000000006 -17.238Q404.1580000000001 -17.238 404.1580000000001 -10.642000000000001V-6.494000000000001Q404.1580000000001 -4.284000000000001 404.3280000000001 -2.6860000000000004Q404.49800000000005 -1.088 404.77000000000004 0.0H402.2540000000001L401.60800000000006 -2.5500000000000003Q400.92800000000005 -1.292 399.44900000000007 -0.442Q397.97 0.40800000000000003 395.45400000000006 0.40800000000000003ZM396.13400000000007 -1.7680000000000002Q397.59600000000006 -1.7680000000000002 398.78600000000006 -2.244Q399.97600000000006 -2.72 400.67300000000006 -3.8080000000000007Q401.37000000000006 -4.896000000000001 401.37000000000006 -6.732V-8.534Q396.88200000000006 -8.228 394.6550000000001 -7.293Q392.42800000000005 -6.3580000000000005 392.42800000000005 -4.454000000000001Q392.42800000000005 -3.2640000000000002 393.41400000000004 -2.516Q394.40000000000003 -1.7680000000000002 396.13400000000007 -1.7680000000000002Z M413.30400000000003 0.0V-16.864H415.51400000000007L416.16 -12.954Q417.35 -15.096000000000002 419.40700000000004 -16.133000000000003Q421.46400000000006 -17.17 423.84400000000005 -17.17Q424.52400000000006 -17.17 425.25500000000005 -17.068Q425.98600000000005 -16.966 426.53000000000003 -16.864V-13.872000000000002Q425.74800000000005 -14.110000000000001 424.898 -14.246000000000002Q424.04800000000006 -14.382000000000001 423.232 -14.382000000000001Q421.19200000000006 -14.382000000000001 419.61100000000005 -13.566000000000003Q418.03000000000003 -12.750000000000002 417.1120000000001 -11.135000000000002Q416.1940000000001 -9.520000000000001 416.1940000000001 -7.038V0.0Z M441.62600000000003 0.0Q440.028 0.0 439.11 -0.323Q438.19200000000006 -0.646 437.80100000000004 -1.5470000000000002Q437.41 -2.4480000000000004 437.41 -4.216V-14.586H433.77200000000005V-16.864H437.41V-21.080000000000002H440.30000000000007V-16.864H447.47400000000005V-14.586H440.30000000000007V-4.6240000000000006Q440.30000000000007 -3.2300000000000004 440.69100000000003 -2.822Q441.08200000000005 -2.414 442.27200000000005 -2.414H445.77400000000006V0.0Z M454.47800000000007 0.0V-2.414L465.69800000000004 -14.450000000000001H454.81800000000004V-16.864H469.47200000000004V-14.450000000000001L458.25200000000007 -2.414H469.81200000000007V0.0Z M481.37200000000007 4.896000000000001 483.14000000000004 0.374Q482.29 0.23800000000000002 481.71200000000005 -0.42500000000000004Q481.13400000000007 -1.088 481.13400000000007 -1.9720000000000002Q481.13400000000007 -2.958 481.831 -3.6550000000000002Q482.528 -4.352 483.51400000000007 -4.352Q484.50000000000006 -4.352 485.18000000000006 -3.6550000000000002Q485.86000000000007 -2.958 485.86000000000007 -1.9720000000000002Q485.86000000000007 -1.7680000000000002 485.826 -1.4960000000000002Q485.79200000000003 -1.2240000000000002 485.62200000000007 -0.8500000000000001L483.37800000000004 4.896000000000001Z M518.806 5.508V3.0940000000000003H523.532Q524.824 3.0940000000000003 525.4359999999999 2.873Q526.048 2.652 526.252 2.023Q526.456 1.3940000000000001 526.456 0.17V-14.586H521.356V-16.864H529.346V0.30600000000000005Q529.346 2.278 528.921 3.417Q528.496 4.556 527.306 5.032Q526.116 5.508 523.838 5.508ZM527.952 -20.162000000000003Q527.102 -20.162000000000003 526.49 -20.774Q525.8779999999999 -21.386000000000003 525.8779999999999 -22.236Q525.8779999999999 -23.086000000000002 526.49 -23.698Q527.102 -24.310000000000002 527.952 -24.310000000000002Q528.802 -24.310000000000002 529.414 -23.698Q530.026 -23.086000000000002 530.026 -22.236Q530.026 -21.386000000000003 529.414 -20.774Q528.802 -20.162000000000003 527.952 -20.162000000000003Z M545.9720000000001 0.40800000000000003Q542.606 0.40800000000000003 541.3140000000001 -1.4110000000000003Q540.022 -3.2300000000000004 540.022 -6.596V-16.864H544.816V-7.82Q544.816 -6.562 544.969 -5.525Q545.1220000000001 -4.488 545.734 -3.8930000000000002Q546.346 -3.298 547.638 -3.298Q549.3720000000001 -3.298 550.171 -4.4030000000000005Q550.97 -5.508 550.97 -7.922000000000001V-16.864H555.73V0.0H551.6160000000001L550.97 -2.4480000000000004Q550.2560000000001 -1.2240000000000002 549.1170000000001 -0.4080000000000001Q547.9780000000001 0.40800000000000003 545.9720000000001 0.40800000000000003Z M568.31 0.40800000000000003Q565.9979999999999 0.40800000000000003 564.23 -0.6460000000000001Q562.462 -1.7000000000000002 561.476 -3.6890000000000005Q560.49 -5.678000000000001 560.49 -8.466000000000001Q560.49 -11.22 561.4929999999999 -13.192Q562.496 -15.164000000000001 564.247 -16.201Q565.9979999999999 -17.238 568.31 -17.238Q570.282 -17.238 571.846 -16.354Q573.41 -15.47 574.26 -14.042000000000002V-24.072000000000003H577.15V-6.324000000000001Q577.15 -5.508 577.2349999999999 -3.859Q577.3199999999999 -2.21 577.728 0.0H575.008L574.26 -2.652Q573.308 -1.292 571.7950000000001 -0.442Q570.282 0.40800000000000003 568.31 0.40800000000000003ZM568.956 -1.9720000000000002Q571.336 -1.9720000000000002 572.832 -3.6550000000000002Q574.328 -5.338 574.328 -8.432Q574.328 -11.492 572.832 -13.175Q571.336 -14.858 568.956 -14.858Q566.508 -14.858 564.9780000000001 -13.209Q563.448 -11.56 563.448 -8.466000000000001Q563.448 -5.372000000000001 564.9780000000001 -3.6720000000000006Q566.508 -1.9720000000000002 568.956 -1.9720000000000002Z M590.784 6.494000000000001Q589.288 6.494000000000001 587.8430000000001 6.120000000000001Q586.398 5.746 585.2760000000001 4.896000000000001Q584.154 4.046 583.678 2.652L586.2620000000001 1.7340000000000002Q586.6360000000001 2.8560000000000003 587.826 3.5020000000000007Q589.0160000000001 4.148000000000001 590.8520000000001 4.148000000000001Q592.892 4.148000000000001 594.32 3.1620000000000004Q595.748 2.176 595.748 -0.10200000000000001V-3.298Q594.796 -1.9380000000000002 593.3000000000001 -1.122Q591.8040000000001 -0.30600000000000005 589.832 -0.30600000000000005Q587.69 -0.30600000000000005 585.9390000000001 -1.292Q584.1880000000001 -2.278 583.1850000000001 -4.165Q582.182 -6.0520000000000005 582.182 -8.704Q582.182 -11.458 583.1850000000001 -13.362000000000002Q584.1880000000001 -15.266000000000002 585.922 -16.252000000000002Q587.6560000000001 -17.238 589.764 -17.238Q591.7700000000001 -17.238 593.317 -16.354Q594.864 -15.47 595.748 -14.042000000000002L596.292 -16.864H598.638V-0.30600000000000005Q598.638 3.06 596.479 4.777Q594.32 6.494000000000001 590.784 6.494000000000001ZM590.546 -2.6860000000000004Q592.926 -2.6860000000000004 594.3710000000001 -4.25Q595.816 -5.814 595.816 -8.704Q595.816 -11.628 594.354 -13.243Q592.892 -14.858 590.546 -14.858Q588.166 -14.858 586.653 -13.277000000000001Q585.1400000000001 -11.696000000000002 585.1400000000001 -8.772Q585.1400000000001 -5.814 586.653 -4.25Q588.166 -2.6860000000000004 590.546 -2.6860000000000004Z M612.7479999999999 0.40800000000000003Q610.096 0.40800000000000003 608.192 -0.7310000000000001Q606.288 -1.87 605.268 -3.8590000000000004Q604.2479999999999 -5.848000000000001 604.2479999999999 -8.398000000000001Q604.2479999999999 -11.084000000000001 605.336 -13.073Q606.424 -15.062000000000001 608.328 -16.15Q610.232 -17.238 612.612 -17.238Q615.298 -17.238 617.1510000000001 -15.929Q619.004 -14.620000000000001 619.905 -12.495000000000001Q620.806 -10.370000000000001 620.602 -7.922000000000001H607.138Q607.206 -5.644 608.107 -4.352Q609.008 -3.06 610.3 -2.516Q611.592 -1.9720000000000002 612.884 -1.9720000000000002Q614.482 -1.9720000000000002 615.4849999999999 -2.516Q616.4879999999999 -3.06 617.1 -3.8760000000000003L619.65 -2.958Q618.698 -1.53 617.015 -0.5609999999999999Q615.332 0.40800000000000003 612.7479999999999 0.40800000000000003ZM607.172 -9.928H617.78Q617.746 -11.152000000000001 617.168 -12.291Q616.59 -13.430000000000001 615.4680000000001 -14.178Q614.346 -14.926000000000002 612.68 -14.926000000000002Q611.388 -14.926000000000002 610.215 -14.450000000000001Q609.042 -13.974 608.226 -12.869Q607.41 -11.764000000000001 607.172 -9.928Z M646.272 0.0V-16.864H649.5020000000001L649.9440000000001 -15.266000000000002Q650.488 -16.150000000000002 651.4060000000001 -16.745Q652.3240000000001 -17.34 653.5140000000001 -17.34Q655.9280000000001 -17.34 656.8460000000001 -15.334000000000001Q657.3560000000001 -16.184 658.325 -16.762Q659.2940000000001 -17.34 660.5520000000001 -17.34Q662.5580000000001 -17.34 663.5440000000001 -16.082Q664.5300000000001 -14.824000000000002 664.5300000000001 -12.784V0.0H660.5860000000001V-11.356000000000002Q660.5860000000001 -13.634 659.1240000000001 -13.634Q657.3560000000001 -13.634 657.3560000000001 -10.744000000000002V0.0H653.4460000000001V-11.356000000000002Q653.4460000000001 -13.634 651.9840000000002 -13.634Q651.1680000000001 -13.634 650.6920000000001 -12.903Q650.2160000000001 -12.172 650.2160000000001 -10.71V0.0Z M669.2220000000001 5.508V3.196H671.806Q673.0300000000001 3.196 673.5910000000001 2.873Q674.152 2.5500000000000003 674.628 1.53L675.4780000000001 -0.30600000000000005L668.168 -16.864H671.296L676.8720000000001 -3.672H677.008L682.4480000000001 -16.864H685.576L677.2460000000001 1.802Q676.668 3.1620000000000004 676.09 3.9780000000000006Q675.5120000000001 4.7940000000000005 674.594 5.151Q673.676 5.508 672.01 5.508Z M717.196 0.0 710.8040000000001 -16.864H715.734L719.8140000000001 -4.964H719.95L723.9960000000001 -16.864H728.892L722.466 0.0Z M741.3360000000001 0.40800000000000003Q739.772 0.40800000000000003 738.2420000000001 -0.119Q736.7120000000001 -0.646 735.488 -1.717Q734.2640000000001 -2.7880000000000003 733.5160000000001 -4.454000000000001Q732.7680000000001 -6.12 732.7680000000001 -8.432Q732.7680000000001 -10.744000000000002 733.5160000000001 -12.41Q734.2640000000001 -14.076 735.488 -15.147Q736.7120000000001 -16.218 738.2420000000001 -16.728Q739.772 -17.238 741.3360000000001 -17.238Q742.9000000000001 -17.238 744.4300000000001 -16.728Q745.9600000000002 -16.218 747.1840000000002 -15.147Q748.4080000000001 -14.076 749.1560000000002 -12.41Q749.9040000000001 -10.744000000000002 749.9040000000001 -8.432Q749.9040000000001 -6.12 749.1560000000002 -4.454000000000001Q748.4080000000001 -2.7880000000000003 747.1840000000002 -1.717Q745.9600000000002 -0.646 744.4300000000001 -0.119Q742.9000000000001 0.40800000000000003 741.3360000000001 0.40800000000000003ZM741.3360000000001 -1.9720000000000002Q742.8320000000001 -1.9720000000000002 744.1070000000001 -2.669Q745.3820000000001 -3.366 746.1640000000001 -4.7940000000000005Q746.9460000000001 -6.222 746.9460000000001 -8.432Q746.9460000000001 -10.642000000000001 746.1640000000001 -12.07Q745.3820000000001 -13.498000000000001 744.0900000000001 -14.178Q742.7980000000001 -14.858 741.3360000000001 -14.858Q739.8740000000001 -14.858 738.5820000000001 -14.178Q737.2900000000001 -13.498000000000001 736.508 -12.07Q735.7260000000001 -10.642000000000001 735.7260000000001 -8.432Q735.7260000000001 -6.222 736.508 -4.7940000000000005Q737.2900000000001 -3.366 738.565 -2.669Q739.8400000000001 -1.9720000000000002 741.3360000000001 -1.9720000000000002Z M757.1800000000001 0.0 753.066 -16.864H755.6500000000001L758.5740000000001 -3.8760000000000003H758.71L761.6 -16.864H764.082L767.0740000000001 -3.91H767.21L770.066 -16.864H772.582L768.5020000000001 0.0H765.986L762.892 -13.328000000000001H762.7560000000001L759.696 0.0Z M784.3120000000001 0.40800000000000003Q783.3260000000001 0.40800000000000003 782.6290000000001 -0.28900000000000003Q781.9320000000001 -0.9860000000000001 781.9320000000001 -1.9720000000000002Q781.9320000000001 -2.958 782.6290000000001 -3.6550000000000002Q783.3260000000001 -4.352 784.3120000000001 -4.352Q785.2980000000001 -4.352 785.9950000000001 -3.6550000000000002Q786.6920000000001 -2.958 786.6920000000001 -1.9720000000000002Q786.6920000000001 -0.9860000000000001 785.9950000000001 -0.28900000000000003Q785.2980000000001 0.40800000000000003 784.3120000000001 0.40800000000000003Z"/>
  </g>
</svg>
