<svg xmlns="http://www.w3.org/2000/svg" width="793" height="74" viewBox="0 0 793 74" role="img" aria-labelledby="title desc" style="background: transparent;">
  <title id="title">CommitMono 275 Regular preview</title>
  <desc id="desc">Sphinx of black quartz, judge my vow.</desc>
  <style>
    svg { background: transparent; }
    .preview-text { fill: #24292f; }
    @media (prefers-color-scheme: dark) {
      .preview-text { fill: #f0f6fc; }
    }
  </style>
  <g class="preview-text" transform="translate(22.06 46.69)">
    <path d="M1.9380000000000002 -5.882000000000001C2.0740000000000003 -2.21 5.406000000000001 0.47600000000000003 9.860000000000001 0.47600000000000003C14.450000000000001 0.47600000000000003 17.646 -2.3800000000000003 17.646 -6.460000000000001C17.646 -9.928 15.3 -12.206000000000001 10.71 -13.158000000000001L9.316 -13.464C6.494000000000001 -14.076 5.032 -15.47 5.032 -17.714000000000002C5.032 -20.264000000000003 6.936000000000001 -21.998 9.826 -21.998C12.546000000000001 -21.998 14.722000000000001 -20.434 15.028 -18.258000000000003H17.34C17.102 -21.624000000000002 13.906 -24.14 9.826 -24.14C5.5760000000000005 -24.14 2.652 -21.454 2.652 -17.578000000000003C2.652 -14.212000000000002 4.828 -12.036000000000001 8.976 -11.152000000000001L10.370000000000001 -10.846C13.600000000000001 -10.166 15.266000000000002 -8.704 15.266000000000002 -6.3580000000000005C15.266000000000002 -3.604 13.022 -1.7000000000000002 9.826 -1.7000000000000002C6.766000000000001 -1.7000000000000002 4.454000000000001 -3.434 4.216 -5.882000000000001Z M23.936000000000003 -18.360000000000003V6.800000000000001H26.282000000000004V-3.196H26.452C27.608000000000004 -0.9520000000000001 29.546000000000003 0.34 31.994000000000003 0.34C36.312000000000005 0.34 39.440000000000005 -3.672 39.440000000000005 -9.180000000000001C39.440000000000005 -14.688 36.346000000000004 -18.700000000000003 32.028000000000006 -18.700000000000003C29.410000000000004 -18.700000000000003 27.404000000000003 -17.238 26.248000000000005 -14.756H26.112000000000002V-18.360000000000003ZM31.688000000000002 -16.592000000000002C34.884 -16.592000000000002 37.06 -13.600000000000001 37.06 -9.180000000000001C37.06 -4.760000000000001 34.884 -1.7680000000000002 31.688000000000002 -1.7680000000000002C28.458000000000002 -1.7680000000000002 26.214000000000002 -4.828 26.214000000000002 -9.180000000000001C26.214000000000002 -13.532000000000002 28.458000000000002 -16.592000000000002 31.688000000000002 -16.592000000000002Z M45.016000000000005 0.0H47.362V-10.574000000000002C47.362 -14.110000000000001 49.36800000000001 -16.694000000000003 52.156000000000006 -16.694000000000003C54.434000000000005 -16.694000000000003 55.93000000000001 -14.926000000000002 55.93000000000001 -12.206000000000001V0.0H58.27600000000001V-12.41C58.27600000000001 -16.150000000000002 55.998000000000005 -18.700000000000003 52.632000000000005 -18.700000000000003C50.354000000000006 -18.700000000000003 48.55200000000001 -17.544 47.498000000000005 -15.572000000000001H47.362V-25.16H45.016000000000005Z M64.974 0.0H78.676V-2.0740000000000003H72.998V-18.360000000000003H65.144V-16.286H70.652V-2.0740000000000003H64.974ZM69.156 -24.446C69.156 -23.188000000000002 70.176 -22.202 71.4 -22.202C72.658 -22.202 73.644 -23.188000000000002 73.644 -24.446C73.644 -25.704 72.658 -26.69 71.4 -26.69C70.176 -26.69 69.156 -25.704 69.156 -24.446Z M85.00000000000001 0.0H87.346V-10.574000000000002C87.346 -14.144000000000002 89.31800000000001 -16.694000000000003 92.14000000000001 -16.694000000000003C94.45200000000001 -16.694000000000003 95.91400000000002 -14.96 95.91400000000002 -12.206000000000001V0.0H98.26V-12.41C98.26 -16.184 96.016 -18.700000000000003 92.58200000000001 -18.700000000000003C90.20200000000001 -18.700000000000003 88.33200000000001 -17.476000000000003 87.278 -15.402000000000001H87.17600000000002V-18.360000000000003H85.00000000000001Z M104.95800000000001 0.0H107.64400000000002L112.77800000000002 -7.854000000000001L117.91200000000002 0.0H120.66600000000001L114.34200000000001 -9.554L120.05400000000002 -18.360000000000003H117.40200000000002L112.81200000000001 -11.152000000000001L108.25600000000001 -18.360000000000003H105.50200000000001L111.24800000000002 -9.486Z M153.0 0.34C157.59 0.34 160.92200000000003 -3.6380000000000003 160.92200000000003 -9.180000000000001C160.92200000000003 -14.722000000000001 157.59 -18.700000000000003 153.0 -18.700000000000003C148.41000000000003 -18.700000000000003 145.078 -14.722000000000001 145.078 -9.180000000000001C145.078 -3.6380000000000003 148.41000000000003 0.34 153.0 0.34ZM153.0 -1.7680000000000002C149.73600000000002 -1.7680000000000002 147.458 -4.828 147.458 -9.180000000000001C147.458 -13.532000000000002 149.73600000000002 -16.592000000000002 153.0 -16.592000000000002C156.264 -16.592000000000002 158.542 -13.532000000000002 158.542 -9.180000000000001C158.542 -4.828 156.264 -1.7680000000000002 153.0 -1.7680000000000002Z M172.00600000000003 0.0H174.35200000000003V-16.286H180.88000000000002V-18.360000000000003H174.35200000000003V-19.176000000000002C174.35200000000003 -22.134 175.57600000000002 -23.528000000000002 178.092 -23.528000000000002C179.14600000000002 -23.528000000000002 180.20000000000002 -23.290000000000003 181.22000000000003 -22.746000000000002V-24.684C180.26800000000003 -25.228 179.07800000000003 -25.500000000000004 177.752 -25.500000000000004C173.978 -25.500000000000004 172.00600000000003 -23.324 172.00600000000003 -19.176000000000002V-18.360000000000003H166.668V-16.286H172.00600000000003Z M207.12800000000004 0.0H209.30400000000003V-3.604H209.44000000000003C210.59600000000003 -1.122 212.60200000000003 0.34 215.22000000000003 0.34C219.53800000000004 0.34 222.63200000000003 -3.672 222.63200000000003 -9.180000000000001C222.63200000000003 -14.688 219.50400000000002 -18.700000000000003 215.18600000000004 -18.700000000000003C212.70400000000004 -18.700000000000003 210.76600000000002 -17.408 209.61000000000004 -15.13H209.47400000000002V-25.16H207.12800000000004ZM214.88000000000002 -1.7680000000000002C211.65000000000003 -1.7680000000000002 209.40600000000003 -4.828 209.40600000000003 -9.180000000000001C209.40600000000003 -13.532000000000002 211.65000000000003 -16.592000000000002 214.88000000000002 -16.592000000000002C218.07600000000002 -16.592000000000002 220.25200000000004 -13.600000000000001 220.25200000000004 -9.180000000000001C220.25200000000004 -4.760000000000001 218.07600000000002 -1.7680000000000002 214.88000000000002 -1.7680000000000002Z M228.174 0.0H241.876V-2.0740000000000003H236.198V-25.16H228.344V-23.086000000000002H233.852V-2.0740000000000003H228.174Z M258.774 -13.226C258.774 -11.866000000000001 258.128 -11.186 256.802 -11.05L254.864 -10.88C249.798 -10.370000000000001 247.282 -8.568000000000001 247.282 -5.202C247.282 -1.9380000000000002 249.69600000000003 0.34 253.096 0.34C255.68 0.34 257.72 -0.9520000000000001 258.808 -3.128H258.944C259.046 -1.802 259.284 -0.782 259.59000000000003 0.0H261.8C261.324 -1.4620000000000002 261.12 -3.5700000000000003 261.12 -6.562V-13.192C261.12 -16.490000000000002 258.502 -18.700000000000003 254.69400000000002 -18.700000000000003C250.988 -18.700000000000003 248.20000000000002 -16.66 248.03 -13.838000000000001H250.30800000000002C250.54600000000002 -15.538 252.31400000000002 -16.694000000000003 254.69400000000002 -16.694000000000003C257.21000000000004 -16.694000000000003 258.774 -15.368 258.774 -13.226ZM258.774 -10.064V-7.242000000000001C258.774 -4.046 256.428 -1.6320000000000001 253.47 -1.6320000000000001C251.192 -1.6320000000000001 249.662 -3.06 249.662 -5.236000000000001C249.662 -7.548000000000001 251.36200000000002 -8.738000000000001 255.17000000000002 -9.180000000000001L257.00600000000003 -9.418000000000001C257.754 -9.486 258.332 -9.690000000000001 258.774 -10.064Z M280.6700000000001 -4.522C280.12600000000003 -2.7880000000000003 278.39200000000005 -1.7340000000000002 276.28400000000005 -1.7340000000000002C272.71400000000006 -1.7340000000000002 270.36800000000005 -4.760000000000001 270.36800000000005 -9.214C270.36800000000005 -13.600000000000001 272.68000000000006 -16.626 276.1820000000001 -16.626C278.25600000000003 -16.626 279.922 -15.572000000000001 280.46600000000007 -13.838000000000001H282.71000000000004C282.20000000000005 -16.728 279.51400000000007 -18.700000000000003 276.1820000000001 -18.700000000000003C271.456 -18.700000000000003 268.02200000000005 -14.688 268.02200000000005 -9.180000000000001C268.02200000000005 -3.7060000000000004 271.49000000000007 0.34 276.25000000000006 0.34C279.58200000000005 0.34 282.37000000000006 -1.6320000000000001 282.94800000000004 -4.522Z M289.442 0.0H291.788V-5.44L295.324 -9.180000000000001L301.78400000000005 0.0H304.64000000000004L296.922 -10.88L304.028 -18.360000000000003H300.968L291.788 -8.568000000000001V-25.16H289.442Z M340.884 -18.360000000000003V-14.756H340.74800000000005C339.59200000000004 -17.238 337.586 -18.700000000000003 334.968 -18.700000000000003C330.65000000000003 -18.700000000000003 327.55600000000004 -14.688 327.55600000000004 -9.180000000000001C327.55600000000004 -3.672 330.684 0.34 335.002 0.34C337.45000000000005 0.34 339.38800000000003 -0.9520000000000001 340.54400000000004 -3.196H340.71400000000006V6.800000000000001H343.06000000000006V-18.360000000000003ZM335.30800000000005 -16.592000000000002C338.538 -16.592000000000002 340.78200000000004 -13.532000000000002 340.78200000000004 -9.180000000000001C340.78200000000004 -4.828 338.538 -1.7680000000000002 335.30800000000005 -1.7680000000000002C332.112 -1.7680000000000002 329.93600000000004 -4.760000000000001 329.93600000000004 -9.180000000000001C329.93600000000004 -13.600000000000001 332.112 -16.592000000000002 335.30800000000005 -16.592000000000002Z M363.392 -6.12V-18.360000000000003H361.046V-7.7860000000000005C361.046 -4.216 359.074 -1.6660000000000001 356.286 -1.6660000000000001C353.974 -1.6660000000000001 352.478 -3.434 352.478 -6.154000000000001V-18.360000000000003H350.132V-5.95C350.132 -2.176 352.41 0.34 355.844 0.34C358.156 0.34 359.992 -0.8160000000000001 361.046 -2.822H361.182C361.216 -1.9040000000000001 361.318 -0.9520000000000001 361.42 0.0H363.63C363.494 -2.1420000000000003 363.392 -4.386 363.392 -6.12Z M381.99000000000007 -13.226C381.99000000000007 -11.866000000000001 381.34400000000005 -11.186 380.01800000000003 -11.05L378.08000000000004 -10.88C373.01400000000007 -10.370000000000001 370.49800000000005 -8.568000000000001 370.49800000000005 -5.202C370.49800000000005 -1.9380000000000002 372.91200000000003 0.34 376.31200000000007 0.34C378.8960000000001 0.34 380.93600000000004 -0.9520000000000001 382.02400000000006 -3.128H382.16C382.26200000000006 -1.802 382.50000000000006 -0.782 382.80600000000004 0.0H385.0160000000001C384.54 -1.4620000000000002 384.33600000000007 -3.5700000000000003 384.33600000000007 -6.562V-13.192C384.33600000000007 -16.490000000000002 381.7180000000001 -18.700000000000003 377.91 -18.700000000000003C374.20400000000006 -18.700000000000003 371.41600000000005 -16.66 371.24600000000004 -13.838000000000001H373.52400000000006C373.76200000000006 -15.538 375.53000000000003 -16.694000000000003 377.91 -16.694000000000003C380.42600000000004 -16.694000000000003 381.99000000000007 -15.368 381.99000000000007 -13.226ZM381.99000000000007 -10.064V-7.242000000000001C381.99000000000007 -4.046 379.64400000000006 -1.6320000000000001 376.68600000000004 -1.6320000000000001C374.4080000000001 -1.6320000000000001 372.87800000000004 -3.06 372.87800000000004 -5.236000000000001C372.87800000000004 -7.548000000000001 374.57800000000003 -8.738000000000001 378.386 -9.180000000000001L380.22200000000004 -9.418000000000001C380.97 -9.486 381.54800000000006 -9.690000000000001 381.99000000000007 -10.064Z M395.148 0.0V-10.506C395.148 -14.042000000000002 397.052 -16.524 399.84000000000003 -16.524C401.608 -16.524 402.90000000000003 -15.504000000000001 403.24 -13.838000000000001H405.62C405.28000000000003 -16.728 403.24 -18.598000000000003 400.35 -18.598000000000003C397.97 -18.598000000000003 396.1 -17.306 395.08000000000004 -15.198H394.978V-18.360000000000003H392.802V0.0Z M417.79200000000003 -5.984V-16.286H424.32000000000005V-18.360000000000003H417.79200000000003V-24.14L415.4460000000001 -23.732000000000003V-18.360000000000003H410.10800000000006V-16.286H415.4460000000001V-5.984C415.4460000000001 -1.836 417.41800000000006 0.34 421.19200000000006 0.34C422.51800000000003 0.34 423.7080000000001 0.068 424.6600000000001 -0.47600000000000003V-2.414C423.64000000000004 -1.9040000000000001 422.58600000000007 -1.6320000000000001 421.49800000000005 -1.6320000000000001C419.0160000000001 -1.6320000000000001 417.79200000000003 -3.0260000000000002 417.79200000000003 -5.984Z M431.494 0.0H445.77400000000006V-2.04H434.31600000000003L445.196 -16.456V-18.360000000000003H431.83400000000006V-16.32H442.34000000000003L431.494 -1.9040000000000001Z M453.866 5.338H456.178L461.38 -3.842H457.81Z M502.452 0.8160000000000001V-18.360000000000003H493.408V-16.286H500.106V0.8160000000000001C500.106 3.7740000000000005 498.882 5.168 496.36600000000004 5.168C495.312 5.168 494.25800000000004 4.930000000000001 493.238 4.386V6.324000000000001C494.156 6.868 495.346 7.140000000000001 496.672 7.140000000000001C500.48 7.140000000000001 502.452 4.964 502.452 0.8160000000000001ZM498.71200000000005 -24.446C498.71200000000005 -23.188000000000002 499.732 -22.202 500.956 -22.202C502.214 -22.202 503.20000000000005 -23.188000000000002 503.20000000000005 -24.446C503.20000000000005 -25.704 502.214 -26.69 500.956 -26.69C499.732 -26.69 498.71200000000005 -25.704 498.71200000000005 -24.446Z M526.1840000000001 -6.12V-18.360000000000003H523.8380000000001V-7.7860000000000005C523.8380000000001 -4.216 521.8660000000001 -1.6660000000000001 519.0780000000001 -1.6660000000000001C516.7660000000001 -1.6660000000000001 515.2700000000001 -3.434 515.2700000000001 -6.154000000000001V-18.360000000000003H512.9240000000001V-5.95C512.9240000000001 -2.176 515.2020000000001 0.34 518.6360000000001 0.34C520.9480000000001 0.34 522.7840000000001 -0.8160000000000001 523.8380000000001 -2.822H523.974C524.008 -1.9040000000000001 524.11 -0.9520000000000001 524.2120000000001 0.0H526.422C526.2860000000001 -2.1420000000000003 526.1840000000001 -4.386 526.1840000000001 -6.12Z M545.666 0.0H547.9100000000001C547.7740000000001 -2.1420000000000003 547.6720000000001 -4.386 547.6720000000001 -6.12V-25.16H545.3260000000001V-15.164000000000001H545.1560000000001C544.0000000000001 -17.408 542.0620000000001 -18.700000000000003 539.6140000000001 -18.700000000000003C535.33 -18.700000000000003 532.1680000000001 -14.688 532.1680000000001 -9.180000000000001C532.1680000000001 -3.672 535.33 0.34 539.6140000000001 0.34C542.1300000000001 0.34 544.1020000000001 -1.02 545.258 -3.4000000000000004H545.4280000000001C545.4620000000001 -2.278 545.5640000000001 -1.1560000000000001 545.666 0.0ZM540.0900000000001 -1.7680000000000002C536.8600000000001 -1.7680000000000002 534.5480000000001 -4.862 534.5480000000001 -9.180000000000001C534.5480000000001 -13.498000000000001 536.8940000000001 -16.592000000000002 540.1240000000001 -16.592000000000002C543.2860000000001 -16.592000000000002 545.3940000000001 -13.634 545.3940000000001 -9.180000000000001C545.3940000000001 -4.760000000000001 543.2520000000001 -1.7680000000000002 540.0900000000001 -1.7680000000000002Z M565.3860000000001 -3.8760000000000003V0.544C565.3860000000001 3.128 563.3800000000001 5.032 560.6260000000001 5.032C558.2120000000001 5.032 556.3420000000001 3.5700000000000003 556.07 1.53H553.724C553.9620000000001 4.726 556.9200000000001 7.140000000000001 560.6600000000001 7.140000000000001C564.706 7.140000000000001 567.7320000000001 4.3180000000000005 567.7320000000001 0.544V-18.360000000000003H565.556V-15.164000000000001H565.4200000000001C564.3320000000001 -17.408 562.4620000000001 -18.700000000000003 560.1500000000001 -18.700000000000003C556.172 -18.700000000000003 553.1800000000001 -14.824000000000002 553.1800000000001 -9.690000000000001C553.1800000000001 -4.590000000000001 556.2400000000001 -0.68 560.2520000000001 -0.68C562.4280000000001 -0.68 564.196 -1.836 565.2840000000001 -3.8760000000000003ZM560.5240000000001 -2.7880000000000003C557.6680000000001 -2.7880000000000003 555.5600000000001 -5.712000000000001 555.5600000000001 -9.690000000000001C555.5600000000001 -13.668000000000001 557.6680000000001 -16.592000000000002 560.5240000000001 -16.592000000000002C563.3800000000001 -16.592000000000002 565.522 -13.668000000000001 565.522 -9.690000000000001C565.522 -5.712000000000001 563.3800000000001 -2.7880000000000003 560.5240000000001 -2.7880000000000003Z M576.6400000000001 -8.874H589.356V-9.792000000000002C589.356 -15.062000000000001 586.296 -18.700000000000003 581.9780000000001 -18.700000000000003C577.49 -18.700000000000003 574.2940000000001 -14.790000000000001 574.2940000000001 -9.316C574.2940000000001 -3.672 577.6600000000001 0.34 582.3520000000001 0.34C585.6500000000001 0.34 588.302 -1.598 589.0160000000001 -4.522H586.772C586.1600000000001 -2.822 584.528 -1.7680000000000002 582.4540000000001 -1.7680000000000002C579.0540000000001 -1.7680000000000002 576.7760000000001 -4.590000000000001 576.6400000000001 -8.874ZM582.0120000000001 -16.626C584.8340000000001 -16.626 586.908 -14.280000000000001 587.0780000000001 -10.744000000000002H576.7080000000001C577.1500000000001 -14.314000000000002 579.19 -16.626 582.0120000000001 -16.626Z M613.122 0.0H615.434V-12.784C615.434 -15.096000000000002 616.658 -16.762 618.358 -16.762C619.82 -16.762 620.704 -15.538 620.704 -13.464V0.0H623.016V-12.818000000000001C623.016 -15.13 624.24 -16.762 625.94 -16.762C627.402 -16.762 628.2860000000001 -15.504000000000001 628.2860000000001 -13.464V0.0H630.598V-13.702000000000002C630.598 -16.762 628.932 -18.700000000000003 626.28 -18.700000000000003C624.41 -18.700000000000003 623.05 -17.714000000000002 622.438 -15.844000000000001H622.302C621.894 -17.612000000000002 620.534 -18.700000000000003 618.766 -18.700000000000003C617.202 -18.700000000000003 615.876 -17.85 615.4 -16.422H615.264V-18.360000000000003H613.122Z M636.2760000000001 4.590000000000001V6.596C637.1600000000001 6.868 637.9080000000001 6.970000000000001 638.6220000000001 6.970000000000001C641.5120000000001 6.970000000000001 643.3820000000001 5.338 644.7080000000001 1.7340000000000002L652.0520000000001 -18.360000000000003H649.6720000000001L644.2320000000001 -3.0940000000000003H644.0960000000001L638.6560000000001 -18.360000000000003H636.2080000000001L642.974 0.034L642.6340000000001 1.02C641.58 3.842 640.3900000000001 4.930000000000001 638.282 4.930000000000001C637.6360000000001 4.930000000000001 636.9900000000001 4.828 636.2760000000001 4.590000000000001Z M681.36 0.0H684.3860000000001L690.336 -18.360000000000003H687.99L682.9920000000001 -2.482H682.856L677.654 -18.360000000000003H675.24Z M702.8820000000001 0.34C707.472 0.34 710.804 -3.6380000000000003 710.804 -9.180000000000001C710.804 -14.722000000000001 707.472 -18.700000000000003 702.8820000000001 -18.700000000000003C698.292 -18.700000000000003 694.96 -14.722000000000001 694.96 -9.180000000000001C694.96 -3.6380000000000003 698.292 0.34 702.8820000000001 0.34ZM702.8820000000001 -1.7680000000000002C699.618 -1.7680000000000002 697.34 -4.828 697.34 -9.180000000000001C697.34 -13.532000000000002 699.618 -16.592000000000002 702.8820000000001 -16.592000000000002C706.1460000000001 -16.592000000000002 708.424 -13.532000000000002 708.424 -9.180000000000001C708.424 -4.828 706.1460000000001 -1.7680000000000002 702.8820000000001 -1.7680000000000002Z M717.944 0.0H720.902L724.744 -13.430000000000001H724.88L728.722 0.0H731.68L734.4 -18.360000000000003H732.19L730.014 -2.6180000000000003H729.878L725.934 -16.32H723.69L719.78 -2.6860000000000004H719.644L717.434 -18.360000000000003H715.258Z M742.2540000000001 -2.108C742.2540000000001 -0.8160000000000001 743.2740000000001 0.23800000000000002 744.6000000000001 0.23800000000000002C745.926 0.23800000000000002 746.9800000000001 -0.8160000000000001 746.9800000000001 -2.108C746.9800000000001 -3.434 745.926 -4.488 744.6000000000001 -4.488C743.2740000000001 -4.488 742.2540000000001 -3.434 742.2540000000001 -2.108Z"/>
  </g>
</svg>
