<svg xmlns="http://www.w3.org/2000/svg" width="792" height="74" viewBox="0 0 792 74" role="img" aria-labelledby="title desc" style="background: transparent;">
  <title id="title">CommitMono 200 Sonic Italic preview</title>
  <desc id="desc">Sphinx of black quartz, judge my vow.</desc>
  <style>
    svg { background: transparent; }
    .preview-text { fill: #24292f; }
    @media (prefers-color-scheme: dark) {
      .preview-text { fill: #f0f6fc; }
    }
  </style>
  <g class="preview-text" transform="translate(22.77 46.93)">
    <path d="M1.292 -6.460000000000001C0.748 -2.4480000000000004 3.842 0.47600000000000003 8.636000000000001 0.47600000000000003C13.464 0.47600000000000003 17.17 -2.482 17.918000000000003 -6.902C18.564 -10.778 16.524 -13.090000000000002 11.798 -13.940000000000001L10.472000000000001 -14.178C8.296000000000001 -14.586 7.378 -15.572000000000001 7.65 -17.17C7.956 -19.108 9.724 -20.400000000000002 12.002 -20.400000000000002C14.144000000000002 -20.400000000000002 15.64 -19.278000000000002 15.572000000000001 -17.68H19.516000000000002C19.958000000000002 -21.42 16.966 -24.14 12.444 -24.14C7.7860000000000005 -24.14 4.182 -21.25 3.4680000000000004 -16.932000000000002C2.8560000000000003 -13.226 4.760000000000001 -11.016 9.282 -10.200000000000001L10.608 -9.962000000000002C13.022 -9.520000000000001 14.042000000000002 -8.466000000000001 13.736 -6.698C13.396 -4.658 11.526000000000002 -3.2640000000000002 9.112 -3.2640000000000002C6.766000000000001 -3.2640000000000002 5.168 -4.590000000000001 5.236000000000001 -6.460000000000001Z M24.310000000000002 -18.360000000000003 20.128000000000004 6.800000000000001H24.208000000000002L25.772000000000002 -2.652H25.942000000000004C26.69 -0.68 28.186000000000003 0.34 30.362000000000002 0.34C34.68000000000001 0.34 38.386 -3.6380000000000003 39.304 -9.180000000000001C40.22200000000001 -14.722000000000001 37.842 -18.700000000000003 33.524 -18.700000000000003C31.212000000000003 -18.700000000000003 29.308000000000003 -17.544 27.880000000000003 -15.368H27.71L28.220000000000002 -18.360000000000003ZM31.96 -14.96C34.44200000000001 -14.96 35.80200000000001 -12.58 35.224000000000004 -9.180000000000001C34.646 -5.78 32.538000000000004 -3.4000000000000004 30.056000000000004 -3.4000000000000004C27.574 -3.4000000000000004 26.214000000000002 -5.78 26.792 -9.180000000000001C27.370000000000005 -12.58 29.478 -14.96 31.96 -14.96Z M43.010000000000005 0.0H45.050000000000004L46.818000000000005 -10.540000000000001C47.43000000000001 -14.246 49.980000000000004 -16.932000000000002 52.870000000000005 -16.932000000000002C55.284000000000006 -16.932000000000002 56.57600000000001 -15.062000000000001 56.10000000000001 -12.24L54.06 0.0H56.10000000000001L58.17400000000001 -12.41C58.786 -16.150000000000002 56.916000000000004 -18.700000000000003 53.550000000000004 -18.700000000000003C51.23800000000001 -18.700000000000003 49.164 -17.476000000000003 47.77 -15.47H47.63400000000001L49.232000000000006 -25.16H47.19200000000001Z M63.308 0.0H76.908L77.214 -1.7680000000000002H71.434L74.188 -18.360000000000003H66.538L66.232 -16.592000000000002H71.842L69.394 -1.7680000000000002H63.614000000000004ZM71.57000000000001 -24.548000000000002C71.366 -23.392000000000003 72.182 -22.44 73.33800000000001 -22.44C74.528 -22.44 75.58200000000001 -23.392000000000003 75.786 -24.548000000000002C75.99000000000001 -25.738000000000003 75.242 -26.656000000000002 74.052 -26.656000000000002C72.896 -26.656000000000002 71.774 -25.738000000000003 71.57000000000001 -24.548000000000002Z M83.81 0.0H85.85000000000001L87.61800000000001 -10.540000000000001C88.23 -14.280000000000001 90.74600000000001 -16.932000000000002 93.67000000000002 -16.932000000000002C96.11800000000001 -16.932000000000002 97.376 -15.096000000000002 96.9 -12.24L94.86000000000001 0.0H96.9L98.97400000000002 -12.41C99.62 -16.184 97.75000000000001 -18.700000000000003 94.316 -18.700000000000003C91.86800000000001 -18.700000000000003 89.76 -17.442 88.33200000000001 -15.3H88.23L88.74000000000001 -18.360000000000003H86.87Z M102.78200000000001 0.0H105.12800000000001L111.82600000000002 -8.092L115.80400000000002 0.0H118.21800000000002L113.42400000000002 -9.554L120.66600000000001 -18.360000000000003H118.35400000000001L112.33600000000001 -10.948L108.80000000000001 -18.360000000000003H106.38600000000001L110.73800000000001 -9.486Z M151.232 0.34C155.99200000000002 0.34 160.174 -3.672 161.092 -9.180000000000001C162.01000000000002 -14.688 159.18800000000002 -18.700000000000003 154.428 -18.700000000000003C149.668 -18.700000000000003 145.48600000000002 -14.688 144.568 -9.180000000000001C143.65 -3.672 146.472 0.34 151.232 0.34ZM151.87800000000001 -3.4000000000000004C149.39600000000002 -3.4000000000000004 148.07000000000002 -5.746 148.64800000000002 -9.214C149.226 -12.614 151.3 -14.96 153.782 -14.96C156.264 -14.96 157.59 -12.614 157.012 -9.146C156.43400000000003 -5.746 154.36 -3.4000000000000004 151.87800000000001 -3.4000000000000004Z M169.83 0.0H171.87L174.62400000000002 -16.592000000000002H181.25400000000002L181.56000000000003 -18.360000000000003H174.93L175.10000000000002 -19.278000000000002C175.61 -22.338 177.07200000000003 -23.8 179.622 -23.8C180.71 -23.8 181.764 -23.528000000000002 182.68200000000002 -22.984L182.954 -24.684C182.13800000000003 -25.228 181.01600000000002 -25.500000000000004 179.69000000000003 -25.500000000000004C176.01800000000003 -25.500000000000004 173.74 -23.358 173.06000000000003 -19.278000000000002L172.89000000000001 -18.360000000000003H167.45000000000002L167.144 -16.592000000000002H172.584Z M204.85000000000002 0.0H208.76000000000002L209.27000000000004 -3.06H209.40600000000003C210.08600000000004 -0.8500000000000001 211.61600000000004 0.34 213.96200000000002 0.34C218.28000000000003 0.34 221.98600000000002 -3.6380000000000003 222.90400000000002 -9.180000000000001C223.82200000000003 -14.722000000000001 221.44200000000004 -18.700000000000003 217.12400000000002 -18.700000000000003C214.91400000000004 -18.700000000000003 213.04400000000004 -17.646 211.68400000000003 -15.64H211.54800000000003L213.11200000000002 -25.16H209.03200000000004ZM213.65600000000003 -3.4000000000000004C211.17400000000004 -3.4000000000000004 209.81400000000002 -5.78 210.39200000000002 -9.180000000000001C210.97000000000003 -12.58 213.07800000000003 -14.96 215.56000000000003 -14.96C218.04200000000003 -14.96 219.40200000000004 -12.58 218.82400000000004 -9.180000000000001C218.24600000000004 -5.78 216.13800000000003 -3.4000000000000004 213.65600000000003 -3.4000000000000004Z M226.168 0.0H240.448L241.06 -3.74H235.96L239.56400000000002 -25.16H230.554L229.90800000000002 -21.42H234.838L231.88 -3.74H226.78Z M259.896 -13.294C259.692 -11.9 258.91 -11.186 257.516 -11.05L255.40800000000002 -10.846C250.30800000000002 -10.336 247.52 -8.534 246.976 -5.202C246.43200000000002 -1.9380000000000002 248.40400000000002 0.34 251.83800000000002 0.34C254.45600000000002 0.34 256.802 -1.02 258.264 -3.2640000000000002H258.40000000000003C258.264 -1.87 258.332 -0.8160000000000001 258.502 0.0H260.406C260.168 -1.3940000000000001 260.30400000000003 -3.4680000000000004 260.814 -6.562L261.93600000000004 -13.260000000000002C262.48 -16.524 260.30400000000003 -18.700000000000003 256.53000000000003 -18.700000000000003C252.92600000000002 -18.700000000000003 249.83200000000002 -16.694000000000003 249.186 -13.940000000000001H251.192C251.702 -15.708000000000002 253.776 -16.932000000000002 256.25800000000004 -16.932000000000002C258.87600000000003 -16.932000000000002 260.27000000000004 -15.538 259.896 -13.294ZM259.42 -10.268 258.91 -7.276000000000001C258.332 -3.9440000000000004 255.476 -1.3940000000000001 252.382 -1.3940000000000001C250.002 -1.3940000000000001 248.64200000000002 -2.9240000000000004 249.05 -5.236000000000001C249.458 -7.65 251.43 -8.874 255.442 -9.350000000000001L257.44800000000004 -9.588000000000001C258.264 -9.690000000000001 258.91 -9.894 259.42 -10.268Z M279.99000000000007 -4.42C279.10600000000005 -2.584 277.06600000000003 -1.4280000000000002 274.82200000000006 -1.4280000000000002C271.15000000000003 -1.4280000000000002 269.24600000000004 -4.590000000000001 269.994 -9.180000000000001C270.742 -13.736 273.70000000000005 -16.932000000000002 277.338 -16.932000000000002C279.51400000000007 -16.932000000000002 281.07800000000003 -15.776000000000002 281.31600000000003 -13.940000000000001H283.254C283.22 -16.762 280.9080000000001 -18.700000000000003 277.64400000000006 -18.700000000000003C272.95200000000006 -18.700000000000003 268.87200000000007 -14.688 267.95400000000006 -9.180000000000001C267.03600000000006 -3.7060000000000004 269.82400000000007 0.34 274.55000000000007 0.34C277.84800000000007 0.34 280.9080000000001 -1.598 281.92800000000005 -4.42Z M287.47 0.0H289.51000000000005L290.428 -5.542000000000001L294.78000000000003 -9.384L299.91400000000004 0.0H302.43L296.41200000000003 -10.88L304.84400000000005 -18.360000000000003H302.124L290.87 -8.228L293.692 -25.16H291.65200000000004Z M341.70000000000005 -18.360000000000003 341.19000000000005 -15.368H341.02000000000004C340.34000000000003 -17.544 338.81000000000006 -18.700000000000003 336.49800000000005 -18.700000000000003C332.18 -18.700000000000003 328.47400000000005 -14.722000000000001 327.55600000000004 -9.180000000000001C326.63800000000003 -3.6380000000000003 329.01800000000003 0.34 333.336 0.34C335.51200000000006 0.34 337.348 -0.68 338.742 -2.652H338.91200000000003L337.348 6.800000000000001H341.42800000000005L345.61 -18.360000000000003ZM336.80400000000003 -14.96C339.28600000000006 -14.96 340.646 -12.58 340.06800000000004 -9.180000000000001C339.49 -5.78 337.38200000000006 -3.4000000000000004 334.90000000000003 -3.4000000000000004C332.418 -3.4000000000000004 331.05800000000005 -5.78 331.636 -9.180000000000001C332.21400000000006 -12.58 334.32200000000006 -14.96 336.80400000000003 -14.96Z M363.358 -6.12 365.398 -18.360000000000003H361.318L359.55 -7.65C359.108 -4.964 357.30600000000004 -3.06 355.266 -3.06C353.634 -3.06 352.85200000000003 -4.284000000000001 353.192 -6.29L355.19800000000004 -18.360000000000003H351.118L349.04400000000004 -5.95C348.398 -2.1420000000000003 350.166 0.34 353.53200000000004 0.34C355.64 0.34 357.442 -0.646 358.7 -2.414H358.836C358.76800000000003 -1.6320000000000001 358.7 -0.8500000000000001 358.666 0.0H362.576C362.814 -2.1420000000000003 363.086 -4.386 363.358 -6.12Z M382.29600000000005 -13.294C382.09200000000004 -11.9 381.31000000000006 -11.186 379.91600000000005 -11.05L377.80800000000005 -10.846C372.708 -10.336 369.9200000000001 -8.534 369.37600000000003 -5.202C368.83200000000005 -1.9380000000000002 370.80400000000003 0.34 374.23800000000006 0.34C376.85600000000005 0.34 379.20200000000006 -1.02 380.66400000000004 -3.2640000000000002H380.80000000000007C380.66400000000004 -1.87 380.732 -0.8160000000000001 380.90200000000004 0.0H382.80600000000004C382.56800000000004 -1.3940000000000001 382.70400000000006 -3.4680000000000004 383.21400000000006 -6.562L384.33600000000007 -13.260000000000002C384.88000000000005 -16.524 382.70400000000006 -18.700000000000003 378.93000000000006 -18.700000000000003C375.326 -18.700000000000003 372.232 -16.694000000000003 371.58600000000007 -13.940000000000001H373.59200000000004C374.10200000000003 -15.708000000000002 376.17600000000004 -16.932000000000002 378.6580000000001 -16.932000000000002C381.27600000000007 -16.932000000000002 382.6700000000001 -15.538 382.29600000000005 -13.294ZM381.82000000000005 -10.268 381.31000000000006 -7.276000000000001C380.732 -3.9440000000000004 377.87600000000003 -1.3940000000000001 374.78200000000004 -1.3940000000000001C372.40200000000004 -1.3940000000000001 371.04200000000003 -2.9240000000000004 371.45000000000005 -5.236000000000001C371.85800000000006 -7.65 373.83000000000004 -8.874 377.84200000000004 -9.350000000000001L379.84800000000007 -9.588000000000001C380.66400000000004 -9.690000000000001 381.31000000000006 -9.894 381.82000000000005 -10.268Z M392.87 0.0 394.63800000000003 -10.540000000000001C395.25 -14.212000000000002 397.69800000000004 -16.796000000000003 400.55400000000003 -16.796000000000003C402.42400000000004 -16.796000000000003 403.61400000000003 -15.708000000000002 403.682 -13.940000000000001H405.72200000000004C405.858 -16.762 404.124 -18.598000000000003 401.26800000000003 -18.598000000000003C398.82000000000005 -18.598000000000003 396.71200000000005 -17.272000000000002 395.35200000000003 -15.096000000000002H395.216L395.76000000000005 -18.360000000000003H393.89000000000004L390.83000000000004 0.0Z M417.31600000000003 -5.882000000000001 419.08400000000006 -16.592000000000002H425.71400000000006L426.02000000000004 -18.360000000000003H419.39000000000004L420.34200000000004 -24.14L418.26800000000003 -23.8L417.3500000000001 -18.360000000000003H411.9100000000001L411.60400000000004 -16.592000000000002H417.04400000000004L415.27600000000007 -5.882000000000001C414.59600000000006 -1.802 416.1940000000001 0.34 419.86600000000004 0.34C421.19200000000006 0.34 422.34800000000007 0.068 423.36800000000005 -0.47600000000000003L423.67400000000004 -2.176C422.5520000000001 -1.6320000000000001 421.43000000000006 -1.36 420.34200000000004 -1.36C417.79200000000003 -1.36 416.80600000000004 -2.822 417.31600000000003 -5.882000000000001Z M429.76000000000005 0.0H444.04L444.34600000000006 -1.7680000000000002H432.514L446.25000000000006 -16.694000000000003L446.52200000000005 -18.360000000000003H433.16L432.85400000000004 -16.592000000000002H443.76800000000003L430.03200000000004 -1.6660000000000001Z M451.52000000000004 5.304H453.56L460.156 -3.672H456.926Z M502.48600000000005 0.23800000000000002 505.58000000000004 -18.360000000000003H495.38L494.76800000000003 -14.620000000000001H500.88800000000003L498.406 0.23800000000000002C498.03200000000004 2.5500000000000003 496.74 3.672 494.49600000000004 3.672C493.54400000000004 3.672 492.55800000000005 3.4680000000000004 491.64000000000004 3.0260000000000002L491.096 6.426C492.048 6.902 493.30600000000004 7.140000000000001 494.70000000000005 7.140000000000001C499.052 7.140000000000001 501.738 4.760000000000001 502.48600000000005 0.23800000000000002ZM501.024 -23.834000000000003C500.752 -22.134 501.908 -20.740000000000002 503.608 -20.740000000000002C505.34200000000004 -20.740000000000002 506.94 -22.134 507.21200000000005 -23.834000000000003C507.51800000000003 -25.568 506.362 -26.928 504.62800000000004 -26.928C502.928 -26.928 501.33000000000004 -25.568 501.024 -23.834000000000003Z M526.5580000000001 -6.12 528.5980000000001 -18.360000000000003H524.518L522.7500000000001 -7.65C522.3080000000001 -4.964 520.5060000000001 -3.06 518.466 -3.06C516.8340000000001 -3.06 516.052 -4.284000000000001 516.392 -6.29L518.398 -18.360000000000003H514.3180000000001L512.244 -5.95C511.59800000000007 -2.1420000000000003 513.3660000000001 0.34 516.7320000000001 0.34C518.84 0.34 520.642 -0.646 521.9000000000001 -2.414H522.0360000000001C521.9680000000001 -1.6320000000000001 521.9000000000001 -0.8500000000000001 521.8660000000001 0.0H525.7760000000001C526.014 -2.1420000000000003 526.2860000000001 -4.386 526.5580000000001 -6.12Z M544.1700000000001 0.0H546.1080000000001C546.3460000000001 -2.1420000000000003 546.618 -4.386 546.8900000000001 -6.12L550.0520000000001 -25.16H548.0120000000001L546.3460000000001 -15.062000000000001H546.176C545.3940000000001 -17.374000000000002 543.6600000000001 -18.700000000000003 541.1440000000001 -18.700000000000003C536.8260000000001 -18.700000000000003 532.984 -14.688 532.0660000000001 -9.180000000000001C531.1480000000001 -3.672 533.6640000000001 0.34 537.9820000000001 0.34C540.532 0.34 542.7760000000001 -1.054 544.3400000000001 -3.4680000000000004H544.5100000000001C544.3400000000001 -2.3120000000000003 544.238 -1.1900000000000002 544.1700000000001 0.0ZM538.628 -1.4620000000000002C535.2620000000001 -1.4620000000000002 533.392 -4.692 534.1400000000001 -9.180000000000001C534.8880000000001 -13.668000000000001 537.8800000000001 -16.898 541.2460000000001 -16.898C544.5440000000001 -16.898 546.21 -13.838000000000001 545.4280000000001 -9.180000000000001C544.6460000000001 -4.556 541.926 -1.4620000000000002 538.628 -1.4620000000000002Z M564.57 -4.0120000000000005 563.7880000000001 0.544C563.3460000000001 3.298 560.898 5.304 558.008 5.304C555.4920000000001 5.304 553.758 3.7740000000000005 553.86 1.598H551.82C551.5480000000001 4.760000000000001 554.0640000000001 7.140000000000001 557.7360000000001 7.140000000000001C561.748 7.140000000000001 565.2160000000001 4.3180000000000005 565.8280000000001 0.544L568.9900000000001 -18.360000000000003H567.1200000000001L566.576 -15.028H566.4060000000001C565.6920000000001 -17.34 564.0260000000001 -18.700000000000003 561.6460000000001 -18.700000000000003C557.634 -18.700000000000003 553.9620000000001 -14.824000000000002 553.1120000000001 -9.690000000000001C552.2620000000001 -4.590000000000001 554.71 -0.68 558.7220000000001 -0.68C560.9660000000001 -0.68 562.9720000000001 -1.9040000000000001 564.4340000000001 -4.0120000000000005ZM559.1980000000001 -2.482C556.206 -2.482 554.5060000000001 -5.542000000000001 555.186 -9.690000000000001C555.8660000000001 -13.838000000000001 558.6200000000001 -16.898 561.6120000000001 -16.898C564.604 -16.898 566.2700000000001 -13.838000000000001 565.59 -9.690000000000001C564.9100000000001 -5.542000000000001 562.19 -2.482 559.1980000000001 -2.482Z M575.7900000000001 -9.01H588.676L588.812 -9.826C589.696 -15.062000000000001 587.248 -18.700000000000003 582.964 -18.700000000000003C578.51 -18.700000000000003 574.736 -14.790000000000001 573.8180000000001 -9.350000000000001C572.8660000000001 -3.672 575.552 0.34 580.21 0.34C583.44 0.34 586.398 -1.564 587.5880000000001 -4.42H585.6500000000001C584.6980000000001 -2.6180000000000003 582.76 -1.496 580.5840000000001 -1.496C577.014 -1.496 575.11 -4.522 575.7900000000001 -9.01ZM582.692 -16.864C585.6500000000001 -16.864 587.452 -14.382000000000001 586.976 -10.642000000000001H576.13C577.1500000000001 -14.416 579.734 -16.864 582.692 -16.864Z M611.558 0.0H615.468L617.576 -12.58C617.848 -14.178 618.732 -15.3 619.786 -15.3C620.636 -15.3 621.044 -14.518 620.84 -13.260000000000002L618.63 0.0H622.54L624.648 -12.716000000000001C624.92 -14.246 625.804 -15.3 626.824 -15.3C627.708 -15.3 628.116 -14.518 627.912 -13.260000000000002L625.702 0.0H629.612L631.924 -13.940000000000001C632.4 -16.830000000000002 631.142 -18.700000000000003 628.592 -18.700000000000003C626.96 -18.700000000000003 625.566 -17.918000000000003 624.546 -16.388H624.41C624.0360000000001 -17.884 623.084 -18.700000000000003 621.656 -18.700000000000003C620.16 -18.700000000000003 618.766 -17.782 617.984 -16.252000000000002H617.848L618.188 -18.360000000000003H614.618Z M632.3320000000001 4.862 632.0600000000001 6.596C632.9100000000001 6.868 633.5900000000001 6.970000000000001 634.2700000000001 6.970000000000001C637.0240000000001 6.970000000000001 639.1320000000001 5.338 641.0020000000001 1.836L651.8140000000001 -18.360000000000003H649.7400000000001L641.4780000000001 -2.652H641.3420000000001L638.282 -18.360000000000003H636.1400000000001L639.9140000000001 0.10200000000000001L639.3020000000001 1.1900000000000002C637.738 4.08 636.344 5.202 634.2700000000001 5.202C633.6240000000001 5.202 633.0120000000001 5.1000000000000005 632.3320000000001 4.862Z M678.98 0.0H684.4200000000001L692.9200000000001 -18.360000000000003H688.908L682.5160000000001 -4.25H682.38L680.6800000000001 -18.360000000000003H676.6Z M702.032 0.34C706.5880000000001 0.34 710.566 -3.6380000000000003 711.484 -9.180000000000001C712.402 -14.722000000000001 709.784 -18.700000000000003 705.2280000000001 -18.700000000000003C700.672 -18.700000000000003 696.6940000000001 -14.722000000000001 695.7760000000001 -9.180000000000001C694.8580000000001 -3.6380000000000003 697.476 0.34 702.032 0.34ZM702.3380000000001 -1.496C698.938 -1.496 697.102 -4.658 697.85 -9.180000000000001C698.5980000000001 -13.702000000000002 701.522 -16.864 704.922 -16.864C708.322 -16.864 710.158 -13.702000000000002 709.41 -9.180000000000001C708.662 -4.658 705.738 -1.496 702.3380000000001 -1.496Z M715.802 0.0H718.352L724.71 -13.668000000000001H724.846L726.648 0.0H729.198L735.08 -18.360000000000003H733.176L728.178 -2.346H728.042L726.172 -16.32H724.268L717.808 -2.414H717.672L717.978 -18.360000000000003H716.04Z M741.0300000000001 -1.9720000000000002C740.8260000000001 -0.748 741.642 0.23800000000000002 742.8660000000001 0.23800000000000002C744.0900000000001 0.23800000000000002 745.2460000000001 -0.748 745.45 -1.9720000000000002C745.6540000000001 -3.196 744.8380000000001 -4.182 743.6140000000001 -4.182C742.3900000000001 -4.182 741.234 -3.196 741.0300000000001 -1.9720000000000002Z"/>
  </g>
</svg>
