<svg xmlns="http://www.w3.org/2000/svg" width="793" height="74" viewBox="0 0 793 74" role="img" aria-labelledby="title desc" style="background: transparent;">
  <title id="title">CommitMono 275 Regular preview</title>
  <desc id="desc">Sphinx of black quartz, judge my vow.</desc>
  <style>
    svg { background: transparent; }
    .preview-text { fill: #24292f; }
    @media (prefers-color-scheme: dark) {
      .preview-text { fill: #f0f6fc; }
    }
  </style>
  <g class="preview-text" transform="translate(22.06 46.69)">
    <path d="M1.9380000000000002 -5.882000000000001H4.216Q4.386 -4.046 5.9670000000000005 -2.873Q7.548000000000001 -1.7000000000000002 9.826 -1.7000000000000002Q12.24 -1.7000000000000002 13.753 -2.9920000000000004Q15.266000000000002 -4.284000000000001 15.266000000000002 -6.3580000000000005Q15.266000000000002 -9.826 10.370000000000001 -10.846L8.976 -11.152000000000001Q2.652 -12.512 2.652 -17.578000000000003Q2.652 -20.502000000000002 4.641 -22.321Q6.630000000000001 -24.14 9.826 -24.14Q12.886000000000001 -24.14 15.028000000000002 -22.457Q17.17 -20.774 17.34 -18.258000000000003H15.028Q14.790000000000001 -19.89 13.328000000000001 -20.944000000000003Q11.866000000000001 -21.998 9.826 -21.998Q7.65 -21.998 6.341 -20.808Q5.032 -19.618000000000002 5.032 -17.714000000000002Q5.032 -14.382000000000001 9.316 -13.464L10.71 -13.158000000000001Q17.646 -11.73 17.646 -6.460000000000001Q17.646 -3.4000000000000004 15.47 -1.4620000000000002Q13.294 0.47600000000000003 9.860000000000001 0.47600000000000003Q6.5280000000000005 0.47600000000000003 4.284000000000001 -1.326Q2.04 -3.128 1.9380000000000002 -5.882000000000001Z M23.936000000000003 -18.360000000000003H26.112000000000002V-14.756H26.248000000000005Q28.084000000000003 -18.700000000000003 32.028000000000006 -18.700000000000003Q35.258 -18.700000000000003 37.349000000000004 -16.014000000000003Q39.440000000000005 -13.328000000000001 39.440000000000005 -9.18Q39.440000000000005 -5.032 37.33200000000001 -2.346Q35.224000000000004 0.34 31.994000000000003 0.34Q28.288000000000004 0.34 26.452 -3.196H26.282000000000004V6.800000000000001H23.936000000000003ZM35.581 -14.535000000000002Q34.102000000000004 -16.592000000000002 31.688000000000002 -16.592000000000002Q29.274 -16.592000000000002 27.744 -14.518Q26.214000000000002 -12.444 26.214000000000002 -9.18Q26.214000000000002 -5.916 27.744 -3.8420000000000005Q29.274 -1.7680000000000002 31.688000000000002 -1.7680000000000002Q34.102000000000004 -1.7680000000000002 35.581 -3.825Q37.06 -5.882000000000001 37.06 -9.180000000000001Q37.06 -12.478000000000002 35.581 -14.535000000000002Z M45.016000000000005 0.0V-25.16H47.362V-15.572000000000001H47.498000000000005Q49.164 -18.700000000000003 52.632000000000005 -18.700000000000003Q55.148 -18.700000000000003 56.712 -16.966Q58.27600000000001 -15.232000000000001 58.27600000000001 -12.41V0.0H55.93000000000001V-12.206000000000001Q55.93000000000001 -14.246 54.89300000000001 -15.470000000000002Q53.85600000000001 -16.694000000000003 52.156000000000006 -16.694000000000003Q50.08200000000001 -16.694000000000003 48.72200000000001 -14.96Q47.362 -13.226 47.362 -10.574000000000002V0.0Z M64.974 0.0V-2.0740000000000003H70.652V-16.286H65.144V-18.360000000000003H72.998V-2.0740000000000003H78.676V0.0ZM71.4 -26.69Q72.352 -26.69 72.998 -26.044000000000004Q73.644 -25.398000000000003 73.644 -24.446000000000005Q73.644 -23.494000000000003 72.998 -22.848000000000003Q72.352 -22.202 71.4 -22.202Q70.482 -22.202 69.819 -22.848000000000003Q69.156 -23.494000000000003 69.156 -24.446000000000005Q69.156 -25.398000000000003 69.819 -26.044000000000004Q70.482 -26.69 71.4 -26.69Z M85.00000000000001 0.0V-18.360000000000003H87.17600000000002V-15.402000000000001H87.278Q88.944 -18.700000000000003 92.58200000000001 -18.700000000000003Q95.16600000000001 -18.700000000000003 96.71300000000001 -16.966Q98.26 -15.232000000000001 98.26 -12.41V0.0H95.91400000000002V-12.206000000000001Q95.91400000000002 -14.280000000000001 94.894 -15.487000000000002Q93.87400000000001 -16.694000000000003 92.14000000000001 -16.694000000000003Q90.03200000000001 -16.694000000000003 88.68900000000001 -14.977000000000002Q87.346 -13.260000000000002 87.346 -10.574000000000002V0.0Z M104.95800000000001 0.0 111.24800000000002 -9.486 105.50200000000001 -18.360000000000003H108.25600000000001L112.81200000000001 -11.152000000000001L117.40200000000002 -18.360000000000003H120.05400000000002L114.34200000000001 -9.554L120.66600000000001 0.0H117.91200000000002L112.77800000000002 -7.854000000000001L107.64400000000002 0.0Z M158.67800000000003 -2.346Q156.43400000000003 0.34 153.0 0.34Q149.566 0.34 147.322 -2.346Q145.078 -5.032 145.078 -9.18Q145.078 -13.328000000000001 147.322 -16.014000000000003Q149.566 -18.700000000000003 153.0 -18.700000000000003Q156.43400000000003 -18.700000000000003 158.67800000000003 -16.014000000000003Q160.92200000000003 -13.328000000000001 160.92200000000003 -9.18Q160.92200000000003 -5.032 158.67800000000003 -2.346ZM149.005 -3.8420000000000005Q150.55200000000002 -1.7680000000000002 153.0 -1.7680000000000002Q155.448 -1.7680000000000002 156.995 -3.8420000000000005Q158.542 -5.916 158.542 -9.18Q158.542 -12.444 156.995 -14.518Q155.448 -16.592000000000002 153.0 -16.592000000000002Q150.55200000000002 -16.592000000000002 149.005 -14.518Q147.458 -12.444 147.458 -9.18Q147.458 -5.916 149.005 -3.8420000000000005Z M172.00600000000003 0.0V-16.286H166.668V-18.360000000000003H172.00600000000003V-19.176000000000002Q172.00600000000003 -22.304000000000002 173.46800000000002 -23.902Q174.93 -25.500000000000004 177.752 -25.500000000000004Q179.79200000000003 -25.500000000000004 181.22000000000003 -24.684V-22.746000000000002Q179.758 -23.528000000000002 178.092 -23.528000000000002Q174.35200000000003 -23.528000000000002 174.35200000000003 -19.176000000000002V-18.360000000000003H180.88000000000002V-16.286H174.35200000000003V0.0Z M207.12800000000004 0.0V-25.16H209.47400000000002V-15.13H209.61000000000004Q211.41200000000003 -18.700000000000003 215.18600000000004 -18.700000000000003Q218.41600000000003 -18.700000000000003 220.52400000000003 -16.014000000000003Q222.63200000000003 -13.328000000000001 222.63200000000003 -9.18Q222.63200000000003 -5.032 220.54100000000003 -2.346Q218.45000000000002 0.34 215.22000000000003 0.34Q211.27600000000004 0.34 209.44000000000003 -3.604H209.30400000000003V0.0ZM210.93600000000004 -3.8420000000000005Q212.46600000000004 -1.7680000000000002 214.88000000000005 -1.7680000000000002Q217.29400000000004 -1.7680000000000002 218.77300000000002 -3.825Q220.25200000000004 -5.882000000000001 220.25200000000004 -9.180000000000001Q220.25200000000004 -12.478000000000002 218.77300000000002 -14.535000000000002Q217.29400000000004 -16.592000000000002 214.88000000000005 -16.592000000000002Q212.46600000000004 -16.592000000000002 210.93600000000004 -14.518Q209.40600000000003 -12.444 209.40600000000003 -9.18Q209.40600000000003 -5.916 210.93600000000004 -3.8420000000000005Z M228.174 0.0V-2.0740000000000003H233.852V-23.086000000000002H228.344V-25.16H236.198V-2.0740000000000003H241.876V0.0Z M258.774 -13.226Q258.774 -14.824000000000002 257.68600000000004 -15.759000000000002Q256.598 -16.694000000000003 254.69400000000002 -16.694000000000003Q252.92600000000002 -16.694000000000003 251.702 -15.912000000000003Q250.478 -15.13 250.30800000000002 -13.838000000000001H248.03Q248.16600000000003 -15.946000000000002 250.036 -17.323Q251.906 -18.700000000000003 254.69400000000002 -18.700000000000003Q257.55 -18.700000000000003 259.33500000000004 -17.187Q261.12 -15.674000000000001 261.12 -13.192V-6.562Q261.12 -2.0740000000000003 261.8 0.0H259.59000000000003Q259.08000000000004 -1.292 258.944 -3.128H258.808Q257.992 -1.496 256.51300000000003 -0.578Q255.03400000000002 0.34 253.096 0.34Q250.54600000000002 0.34 248.91400000000002 -1.207Q247.282 -2.754 247.282 -5.202Q247.282 -10.132000000000001 254.864 -10.88L256.802 -11.05Q258.774 -11.254000000000001 258.774 -13.226ZM258.774 -10.064Q258.128 -9.520000000000001 257.00600000000003 -9.418000000000001L255.17000000000002 -9.180000000000001Q252.31400000000002 -8.84 250.988 -7.905Q249.662 -6.970000000000001 249.662 -5.236000000000001Q249.662 -3.604 250.716 -2.6180000000000003Q251.77 -1.6320000000000001 253.47 -1.6320000000000001Q255.714 -1.6320000000000001 257.244 -3.247Q258.774 -4.862 258.774 -7.242000000000001Z M280.6700000000001 -4.522H282.94800000000004Q282.50600000000003 -2.3800000000000003 280.636 -1.0200000000000002Q278.766 0.34 276.25000000000006 0.34Q272.68000000000006 0.34 270.35100000000006 -2.3630000000000004Q268.02200000000005 -5.066000000000001 268.02200000000005 -9.180000000000001Q268.02200000000005 -13.328000000000001 270.33400000000006 -16.014000000000003Q272.6460000000001 -18.700000000000003 276.1820000000001 -18.700000000000003Q278.69800000000004 -18.700000000000003 280.51700000000005 -17.357000000000003Q282.33600000000007 -16.014000000000003 282.71000000000004 -13.838000000000001H280.46600000000007Q280.05800000000005 -15.13 278.90200000000004 -15.878Q277.74600000000004 -16.626 276.1820000000001 -16.626Q273.564 -16.626 271.966 -14.569Q270.36800000000005 -12.512 270.36800000000005 -9.214Q270.36800000000005 -5.848000000000001 271.98300000000006 -3.7910000000000004Q273.59800000000007 -1.7340000000000002 276.28400000000005 -1.7340000000000002Q277.88200000000006 -1.7340000000000002 279.07200000000006 -2.482Q280.26200000000006 -3.2300000000000004 280.6700000000001 -4.522Z M289.442 0.0V-25.16H291.788V-8.568000000000001L300.968 -18.360000000000003H304.028L296.922 -10.88L304.64000000000004 0.0H301.78400000000005L295.324 -9.180000000000001L291.788 -5.44V0.0Z M340.884 -18.360000000000003H343.06000000000006V6.800000000000001H340.71400000000006V-3.196H340.54400000000004Q338.708 0.34 335.002 0.34Q331.77200000000005 0.34 329.66400000000004 -2.346Q327.55600000000004 -5.032 327.55600000000004 -9.18Q327.55600000000004 -13.328000000000001 329.64700000000005 -16.014000000000003Q331.73800000000006 -18.700000000000003 334.968 -18.700000000000003Q338.91200000000003 -18.700000000000003 340.74800000000005 -14.756H340.884ZM339.25200000000007 -14.518Q337.72200000000004 -16.592000000000002 335.30800000000005 -16.592000000000002Q332.89400000000006 -16.592000000000002 331.4150000000001 -14.535000000000002Q329.93600000000004 -12.478000000000002 329.93600000000004 -9.180000000000001Q329.93600000000004 -5.882000000000001 331.4150000000001 -3.825Q332.89400000000006 -1.7680000000000002 335.30800000000005 -1.7680000000000002Q337.72200000000004 -1.7680000000000002 339.25200000000007 -3.8420000000000005Q340.78200000000004 -5.916 340.78200000000004 -9.18Q340.78200000000004 -12.444 339.25200000000007 -14.518Z M363.392 -6.12Q363.392 -3.74 363.63 0.0H361.42Q361.216 -1.9040000000000001 361.182 -2.822H361.046Q359.38 0.34 355.844 0.34Q353.26 0.34 351.696 -1.3940000000000001Q350.132 -3.128 350.132 -5.95V-18.360000000000003H352.478V-6.154000000000001Q352.478 -4.114 353.515 -2.89Q354.552 -1.6660000000000001 356.286 -1.6660000000000001Q358.36 -1.6660000000000001 359.703 -3.3830000000000005Q361.046 -5.1000000000000005 361.046 -7.7860000000000005V-18.360000000000003H363.392Z M381.99000000000007 -13.226Q381.99000000000007 -14.824000000000002 380.90200000000004 -15.759000000000002Q379.814 -16.694000000000003 377.91 -16.694000000000003Q376.14200000000005 -16.694000000000003 374.91800000000006 -15.912000000000003Q373.6940000000001 -15.13 373.52400000000006 -13.838000000000001H371.24600000000004Q371.38200000000006 -15.946000000000002 373.25200000000007 -17.323Q375.12200000000007 -18.700000000000003 377.91 -18.700000000000003Q380.766 -18.700000000000003 382.55100000000004 -17.187Q384.33600000000007 -15.674000000000001 384.33600000000007 -13.192V-6.562Q384.33600000000007 -2.0740000000000003 385.0160000000001 0.0H382.80600000000004Q382.29600000000005 -1.292 382.16 -3.128H382.02400000000006Q381.208 -1.496 379.72900000000004 -0.578Q378.25000000000006 0.34 376.31200000000007 0.34Q373.76200000000006 0.34 372.13000000000005 -1.207Q370.49800000000005 -2.754 370.49800000000005 -5.202Q370.49800000000005 -10.132000000000001 378.08000000000004 -10.88L380.01800000000003 -11.05Q381.99000000000007 -11.254000000000001 381.99000000000007 -13.226ZM381.99000000000007 -10.064Q381.34400000000005 -9.520000000000001 380.22200000000004 -9.418000000000001L378.386 -9.180000000000001Q375.53000000000003 -8.84 374.20400000000006 -7.905Q372.87800000000004 -6.970000000000001 372.87800000000004 -5.236000000000001Q372.87800000000004 -3.604 373.932 -2.6180000000000003Q374.98600000000005 -1.6320000000000001 376.68600000000004 -1.6320000000000001Q378.93000000000006 -1.6320000000000001 380.46000000000004 -3.247Q381.99000000000007 -4.862 381.99000000000007 -7.242000000000001Z M395.148 0.0H392.802V-18.360000000000003H394.978V-15.198H395.08000000000004Q395.862 -16.796000000000003 397.22200000000004 -17.697000000000003Q398.58200000000005 -18.598000000000003 400.35 -18.598000000000003Q402.526 -18.598000000000003 403.937 -17.306000000000004Q405.348 -16.014000000000003 405.62 -13.838000000000001H403.24Q403.002 -15.096000000000002 402.084 -15.810000000000002Q401.166 -16.524 399.84000000000003 -16.524Q397.766 -16.524 396.457 -14.841000000000001Q395.148 -13.158000000000001 395.148 -10.506Z M417.79200000000003 -5.984Q417.79200000000003 -1.6320000000000001 421.49800000000005 -1.6320000000000001Q423.09600000000006 -1.6320000000000001 424.6600000000001 -2.414V-0.47600000000000003Q423.2320000000001 0.34 421.19200000000006 0.34Q418.37000000000006 0.34 416.9080000000001 -1.2580000000000002Q415.4460000000001 -2.8560000000000003 415.4460000000001 -5.984V-16.286H410.10800000000006V-18.360000000000003H415.4460000000001V-23.732000000000003L417.79200000000003 -24.14V-18.360000000000003H424.32000000000005V-16.286H417.79200000000003Z M431.494 0.0V-1.9040000000000001L442.34000000000003 -16.32H431.83400000000006V-18.360000000000003H445.196V-16.456L434.31600000000003 -2.04H445.77400000000006V0.0Z M453.866 5.338 457.81 -3.842H461.38L456.178 5.338Z M502.452 0.8160000000000001Q502.452 7.140000000000001 496.672 7.140000000000001Q494.632 7.140000000000001 493.238 6.324000000000001V4.386Q494.70000000000005 5.168 496.36600000000004 5.168Q500.106 5.168 500.106 0.8160000000000001V-16.286H493.408V-18.360000000000003H502.452ZM500.956 -26.69Q501.908 -26.69 502.55400000000003 -26.044000000000004Q503.20000000000005 -25.398000000000003 503.20000000000005 -24.446000000000005Q503.20000000000005 -23.494000000000003 502.55400000000003 -22.848000000000003Q501.908 -22.202 500.956 -22.202Q500.038 -22.202 499.375 -22.848000000000003Q498.71200000000005 -23.494000000000003 498.71200000000005 -24.446000000000005Q498.71200000000005 -25.398000000000003 499.375 -26.044000000000004Q500.038 -26.69 500.956 -26.69Z M526.1840000000001 -6.12Q526.1840000000001 -3.74 526.422 0.0H524.2120000000001Q524.008 -1.9040000000000001 523.974 -2.822H523.8380000000001Q522.172 0.34 518.6360000000001 0.34Q516.052 0.34 514.488 -1.3940000000000001Q512.9240000000001 -3.128 512.9240000000001 -5.95V-18.360000000000003H515.2700000000001V-6.154000000000001Q515.2700000000001 -4.114 516.307 -2.89Q517.344 -1.6660000000000001 519.0780000000001 -1.6660000000000001Q521.152 -1.6660000000000001 522.4950000000001 -3.3830000000000005Q523.8380000000001 -5.1000000000000005 523.8380000000001 -7.7860000000000005V-18.360000000000003H526.1840000000001Z M545.666 0.0Q545.4620000000001 -2.346 545.4280000000001 -3.4000000000000004H545.258Q543.4560000000001 0.34 539.6140000000001 0.34Q536.3840000000001 0.34 534.2760000000001 -2.3630000000000004Q532.1680000000001 -5.066000000000001 532.1680000000001 -9.18Q532.1680000000001 -13.294 534.2760000000001 -15.997000000000002Q536.3840000000001 -18.700000000000003 539.6140000000001 -18.700000000000003Q543.32 -18.700000000000003 545.1560000000001 -15.164000000000001H545.3260000000001V-25.16H547.6720000000001V-6.12Q547.6720000000001 -3.74 547.9100000000001 0.0ZM540.0900000000001 -1.7680000000000002Q542.4700000000001 -1.7680000000000002 543.9320000000001 -3.825Q545.3940000000001 -5.882000000000001 545.3940000000001 -9.180000000000001Q545.3940000000001 -12.512 543.9490000000001 -14.552000000000001Q542.5040000000001 -16.592000000000002 540.1240000000001 -16.592000000000002Q537.71 -16.592000000000002 536.1290000000001 -14.501000000000001Q534.5480000000001 -12.41 534.5480000000001 -9.18Q534.5480000000001 -5.95 536.1120000000001 -3.859Q537.676 -1.7680000000000002 540.0900000000001 -1.7680000000000002Z M565.3860000000001 -3.8760000000000003H565.2840000000001Q563.5840000000001 -0.68 560.2520000000001 -0.68Q557.2600000000001 -0.68 555.22 -3.2640000000000002Q553.1800000000001 -5.848000000000001 553.1800000000001 -9.690000000000001Q553.1800000000001 -13.532000000000002 555.1690000000001 -16.116000000000003Q557.158 -18.700000000000003 560.1500000000001 -18.700000000000003Q563.72 -18.700000000000003 565.4200000000001 -15.164000000000001H565.556V-18.360000000000003H567.7320000000001V0.544Q567.7320000000001 3.366 565.7090000000001 5.253Q563.686 7.140000000000001 560.6600000000001 7.140000000000001Q557.8720000000001 7.140000000000001 555.883 5.542000000000001Q553.8940000000001 3.9440000000000004 553.724 1.53H556.07Q556.2740000000001 3.06 557.5490000000001 4.046Q558.8240000000001 5.032 560.6260000000001 5.032Q562.7 5.032 564.0430000000001 3.757Q565.3860000000001 2.482 565.3860000000001 0.544ZM556.971 -4.743Q558.3820000000001 -2.7880000000000003 560.5240000000001 -2.7880000000000003Q562.666 -2.7880000000000003 564.094 -4.743Q565.522 -6.698 565.522 -9.690000000000001Q565.522 -12.682 564.094 -14.637Q562.666 -16.592000000000002 560.5240000000001 -16.592000000000002Q558.3820000000001 -16.592000000000002 556.971 -14.637Q555.5600000000001 -12.682 555.5600000000001 -9.690000000000001Q555.5600000000001 -6.698 556.971 -4.743Z M576.6400000000001 -8.874Q576.7420000000001 -5.644 578.3230000000001 -3.7060000000000004Q579.904 -1.7680000000000002 582.4540000000001 -1.7680000000000002Q584.018 -1.7680000000000002 585.157 -2.4990000000000006Q586.296 -3.2300000000000004 586.772 -4.522H589.0160000000001Q588.4720000000001 -2.3120000000000003 586.653 -0.9860000000000001Q584.8340000000001 0.34 582.3520000000001 0.34Q578.816 0.34 576.5550000000001 -2.3800000000000003Q574.2940000000001 -5.1000000000000005 574.2940000000001 -9.316Q574.2940000000001 -13.430000000000001 576.4530000000001 -16.065Q578.6120000000001 -18.700000000000003 581.9780000000001 -18.700000000000003Q585.2080000000001 -18.700000000000003 587.282 -16.218000000000004Q589.356 -13.736 589.356 -9.792000000000002V-8.874ZM582.0120000000001 -16.626Q579.904 -16.626 578.476 -15.028000000000002Q577.048 -13.430000000000001 576.7080000000001 -10.744000000000002H587.0780000000001Q586.942 -13.396 585.548 -15.011000000000001Q584.154 -16.626 582.0120000000001 -16.626Z M613.122 0.0V-18.360000000000003H615.264V-16.422H615.4Q615.74 -17.476000000000003 616.658 -18.088Q617.576 -18.700000000000003 618.766 -18.700000000000003Q620.092 -18.700000000000003 621.044 -17.935000000000002Q621.996 -17.17 622.302 -15.844000000000001H622.438Q623.356 -18.700000000000003 626.28 -18.700000000000003Q628.252 -18.700000000000003 629.425 -17.357000000000003Q630.598 -16.014000000000003 630.598 -13.702000000000002V0.0H628.2860000000001V-13.464Q628.2860000000001 -14.994000000000002 627.657 -15.878Q627.028 -16.762 625.94 -16.762Q624.648 -16.762 623.832 -15.657Q623.016 -14.552000000000001 623.016 -12.818000000000001V0.0H620.704V-13.464Q620.704 -15.028 620.075 -15.895Q619.446 -16.762 618.358 -16.762Q617.1 -16.762 616.267 -15.64Q615.434 -14.518 615.434 -12.784V0.0Z M636.2760000000001 4.590000000000001Q637.296 4.930000000000001 638.282 4.930000000000001Q639.8460000000001 4.930000000000001 640.8490000000002 4.029Q641.8520000000001 3.128 642.6340000000001 1.02L642.974 0.034L636.2080000000001 -18.360000000000003H638.6560000000001L644.0960000000001 -3.0940000000000003H644.2320000000001L649.6720000000001 -18.360000000000003H652.0520000000001L644.7080000000001 1.7340000000000002Q643.7220000000001 4.454000000000001 642.2600000000001 5.712000000000001Q640.7980000000001 6.970000000000001 638.6220000000001 6.970000000000001Q637.5000000000001 6.970000000000001 636.2760000000001 6.596Z M681.36 0.0 675.24 -18.360000000000003H677.654L682.856 -2.482H682.9920000000001L687.99 -18.360000000000003H690.336L684.3860000000001 0.0Z M708.56 -2.346Q706.316 0.34 702.8820000000001 0.34Q699.448 0.34 697.204 -2.346Q694.96 -5.032 694.96 -9.18Q694.96 -13.328000000000001 697.204 -16.014000000000003Q699.448 -18.700000000000003 702.8820000000001 -18.700000000000003Q706.316 -18.700000000000003 708.56 -16.014000000000003Q710.804 -13.328000000000001 710.804 -9.18Q710.804 -5.032 708.56 -2.346ZM698.887 -3.8420000000000005Q700.434 -1.7680000000000002 702.8820000000001 -1.7680000000000002Q705.33 -1.7680000000000002 706.877 -3.8420000000000005Q708.424 -5.916 708.424 -9.18Q708.424 -12.444 706.877 -14.518Q705.33 -16.592000000000002 702.8820000000001 -16.592000000000002Q700.434 -16.592000000000002 698.887 -14.518Q697.34 -12.444 697.34 -9.18Q697.34 -5.916 698.887 -3.8420000000000005Z M717.944 0.0 715.258 -18.360000000000003H717.434L719.644 -2.6860000000000004H719.78L723.69 -16.32H725.934L729.878 -2.6180000000000003H730.014L732.19 -18.360000000000003H734.4L731.68 0.0H728.722L724.88 -13.430000000000001H724.744L720.902 0.0Z M742.9340000000002 -0.44200000000000006Q742.2540000000001 -1.122 742.2540000000001 -2.108Q742.2540000000001 -3.0940000000000003 742.9340000000002 -3.7910000000000004Q743.6140000000001 -4.488 744.6000000000001 -4.488Q745.5860000000001 -4.488 746.2830000000001 -3.7910000000000004Q746.9800000000001 -3.0940000000000003 746.9800000000001 -2.108Q746.9800000000001 -1.122 746.2830000000001 -0.44200000000000006Q745.5860000000001 0.23800000000000002 744.6000000000001 0.23800000000000002Q743.6140000000001 0.23800000000000002 742.9340000000002 -0.44200000000000006Z"/>
  </g>
</svg>
