<svg xmlns="http://www.w3.org/2000/svg" width="793" height="98" viewBox="0 0 793 98" role="img" aria-labelledby="title desc">
  <title id="title">CommitMono 275 Regular preview</title>
  <desc id="desc">Sphinx of black quartz, judge my vow.</desc>
  <rect width="100%" height="100%" rx="10" fill="#0d1117"/>
  <text x="24" y="34" fill="#8b949e" font-family="ui-monospace, SFMono-Regular, Menlo, Consolas, monospace" font-size="16">CommitMono 275 Regular</text>
  <g transform="translate(21.65 72.69)" fill="#f0f6fc">
    <path d="M2.346 -5.882000000000001C2.482 -2.21 5.814 0.47600000000000003 10.268 0.47600000000000003C14.858 0.47600000000000003 18.054000000000002 -2.3800000000000003 18.054000000000002 -6.460000000000001C18.054000000000002 -9.928 15.708000000000002 -12.206000000000001 11.118 -13.158000000000001L9.724 -13.464C6.902 -14.076 5.44 -15.47 5.44 -17.714000000000002C5.44 -20.264000000000003 7.344 -21.998 10.234 -21.998C12.954 -21.998 15.13 -20.434 15.436000000000002 -18.258000000000003H17.748C17.51 -21.624000000000002 14.314000000000002 -24.14 10.234 -24.14C5.984 -24.14 3.06 -21.454 3.06 -17.578000000000003C3.06 -14.212000000000002 5.236000000000001 -12.036000000000001 9.384 -11.152000000000001L10.778 -10.846C14.008000000000001 -10.166 15.674000000000001 -8.704 15.674000000000001 -6.3580000000000005C15.674000000000001 -3.604 13.430000000000001 -1.7000000000000002 10.234 -1.7000000000000002C7.174 -1.7000000000000002 4.862 -3.434 4.6240000000000006 -5.882000000000001Z M23.528000000000002 -18.360000000000003V6.800000000000001H25.874000000000002V-3.196H26.044000000000004C27.200000000000003 -0.9520000000000001 29.138000000000005 0.34 31.586000000000002 0.34C35.904 0.34 39.032000000000004 -3.672 39.032000000000004 -9.180000000000001C39.032000000000004 -14.688 35.938 -18.700000000000003 31.620000000000005 -18.700000000000003C29.002000000000002 -18.700000000000003 26.996000000000002 -17.238 25.840000000000003 -14.756H25.704V-18.360000000000003ZM31.28 -16.592000000000002C34.476 -16.592000000000002 36.652 -13.600000000000001 36.652 -9.180000000000001C36.652 -4.760000000000001 34.476 -1.7680000000000002 31.28 -1.7680000000000002C28.050000000000004 -1.7680000000000002 25.806000000000004 -4.828 25.806000000000004 -9.180000000000001C25.806000000000004 -13.532000000000002 28.050000000000004 -16.592000000000002 31.28 -16.592000000000002Z M44.608000000000004 0.0H46.95400000000001V-10.574000000000002C46.95400000000001 -14.110000000000001 48.96000000000001 -16.694000000000003 51.748000000000005 -16.694000000000003C54.026 -16.694000000000003 55.522000000000006 -14.926000000000002 55.522000000000006 -12.206000000000001V0.0H57.86800000000001V-12.41C57.86800000000001 -16.150000000000002 55.59 -18.700000000000003 52.224000000000004 -18.700000000000003C49.946000000000005 -18.700000000000003 48.144000000000005 -17.544 47.09 -15.572000000000001H46.95400000000001V-25.16H44.608000000000004Z M64.974 0.0H78.676V-2.0740000000000003H72.998V-18.360000000000003H65.144V-16.286H70.652V-2.0740000000000003H64.974ZM69.156 -24.446C69.156 -23.188000000000002 70.176 -22.202 71.4 -22.202C72.658 -22.202 73.644 -23.188000000000002 73.644 -24.446C73.644 -25.704 72.658 -26.69 71.4 -26.69C70.176 -26.69 69.156 -25.704 69.156 -24.446Z M85.40800000000002 0.0H87.754V-10.574000000000002C87.754 -14.144000000000002 89.72600000000001 -16.694000000000003 92.548 -16.694000000000003C94.86000000000001 -16.694000000000003 96.322 -14.96 96.322 -12.206000000000001V0.0H98.668V-12.41C98.668 -16.184 96.424 -18.700000000000003 92.99000000000001 -18.700000000000003C90.61000000000001 -18.700000000000003 88.74000000000001 -17.476000000000003 87.686 -15.402000000000001H87.584V-18.360000000000003H85.40800000000002Z M104.34600000000002 0.0H107.03200000000001L112.16600000000001 -7.854000000000001L117.30000000000001 0.0H120.05400000000002L113.73000000000002 -9.554L119.44200000000001 -18.360000000000003H116.79000000000002L112.20000000000002 -11.152000000000001L107.64400000000002 -18.360000000000003H104.89000000000001L110.63600000000001 -9.486Z M153.0 0.34C157.59 0.34 160.92200000000003 -3.6380000000000003 160.92200000000003 -9.180000000000001C160.92200000000003 -14.722000000000001 157.59 -18.700000000000003 153.0 -18.700000000000003C148.41000000000003 -18.700000000000003 145.078 -14.722000000000001 145.078 -9.180000000000001C145.078 -3.6380000000000003 148.41000000000003 0.34 153.0 0.34ZM153.0 -1.7680000000000002C149.73600000000002 -1.7680000000000002 147.458 -4.828 147.458 -9.180000000000001C147.458 -13.532000000000002 149.73600000000002 -16.592000000000002 153.0 -16.592000000000002C156.264 -16.592000000000002 158.542 -13.532000000000002 158.542 -9.180000000000001C158.542 -4.828 156.264 -1.7680000000000002 153.0 -1.7680000000000002Z M171.394 0.0H173.74V-16.286H180.26800000000003V-18.360000000000003H173.74V-19.176000000000002C173.74 -22.134 174.96400000000003 -23.528000000000002 177.48000000000002 -23.528000000000002C178.53400000000002 -23.528000000000002 179.58800000000002 -23.290000000000003 180.608 -22.746000000000002V-24.684C179.656 -25.228 178.466 -25.500000000000004 177.14000000000001 -25.500000000000004C173.366 -25.500000000000004 171.394 -23.324 171.394 -19.176000000000002V-18.360000000000003H166.056V-16.286H171.394Z M207.12800000000004 0.0H209.30400000000003V-3.604H209.44000000000003C210.59600000000003 -1.122 212.60200000000003 0.34 215.22000000000003 0.34C219.53800000000004 0.34 222.63200000000003 -3.672 222.63200000000003 -9.180000000000001C222.63200000000003 -14.688 219.50400000000002 -18.700000000000003 215.18600000000004 -18.700000000000003C212.70400000000004 -18.700000000000003 210.76600000000002 -17.408 209.61000000000004 -15.13H209.47400000000002V-25.16H207.12800000000004ZM214.88000000000002 -1.7680000000000002C211.65000000000003 -1.7680000000000002 209.40600000000003 -4.828 209.40600000000003 -9.180000000000001C209.40600000000003 -13.532000000000002 211.65000000000003 -16.592000000000002 214.88000000000002 -16.592000000000002C218.07600000000002 -16.592000000000002 220.25200000000004 -13.600000000000001 220.25200000000004 -9.180000000000001C220.25200000000004 -4.760000000000001 218.07600000000002 -1.7680000000000002 214.88000000000002 -1.7680000000000002Z M228.174 0.0H241.876V-2.0740000000000003H236.198V-25.16H228.344V-23.086000000000002H233.852V-2.0740000000000003H228.174Z M259.182 -13.226C259.182 -11.866000000000001 258.536 -11.186 257.21000000000004 -11.05L255.27200000000002 -10.88C250.20600000000002 -10.370000000000001 247.69 -8.568000000000001 247.69 -5.202C247.69 -1.9380000000000002 250.104 0.34 253.50400000000002 0.34C256.088 0.34 258.128 -0.9520000000000001 259.216 -3.128H259.35200000000003C259.454 -1.802 259.692 -0.782 259.998 0.0H262.208C261.732 -1.4620000000000002 261.528 -3.5700000000000003 261.528 -6.562V-13.192C261.528 -16.490000000000002 258.91 -18.700000000000003 255.102 -18.700000000000003C251.39600000000002 -18.700000000000003 248.608 -16.66 248.43800000000002 -13.838000000000001H250.716C250.954 -15.538 252.722 -16.694000000000003 255.102 -16.694000000000003C257.618 -16.694000000000003 259.182 -15.368 259.182 -13.226ZM259.182 -10.064V-7.242000000000001C259.182 -4.046 256.836 -1.6320000000000001 253.87800000000001 -1.6320000000000001C251.60000000000002 -1.6320000000000001 250.07000000000002 -3.06 250.07000000000002 -5.236000000000001C250.07000000000002 -7.548000000000001 251.77 -8.738000000000001 255.578 -9.180000000000001L257.414 -9.418000000000001C258.16200000000003 -9.486 258.74 -9.690000000000001 259.182 -10.064Z M280.6700000000001 -4.522C280.12600000000003 -2.7880000000000003 278.39200000000005 -1.7340000000000002 276.28400000000005 -1.7340000000000002C272.71400000000006 -1.7340000000000002 270.36800000000005 -4.760000000000001 270.36800000000005 -9.214C270.36800000000005 -13.600000000000001 272.68000000000006 -16.626 276.1820000000001 -16.626C278.25600000000003 -16.626 279.922 -15.572000000000001 280.46600000000007 -13.838000000000001H282.71000000000004C282.20000000000005 -16.728 279.51400000000007 -18.700000000000003 276.1820000000001 -18.700000000000003C271.456 -18.700000000000003 268.02200000000005 -14.688 268.02200000000005 -9.180000000000001C268.02200000000005 -3.7060000000000004 271.49000000000007 0.34 276.25000000000006 0.34C279.58200000000005 0.34 282.37000000000006 -1.6320000000000001 282.94800000000004 -4.522Z M289.03400000000005 0.0H291.38V-5.44L294.916 -9.180000000000001L301.37600000000003 0.0H304.232L296.514 -10.88L303.62 -18.360000000000003H300.56L291.38 -8.568000000000001V-25.16H289.03400000000005Z M341.49600000000004 -18.360000000000003V-14.756H341.36C340.204 -17.238 338.19800000000004 -18.700000000000003 335.58000000000004 -18.700000000000003C331.26200000000006 -18.700000000000003 328.168 -14.688 328.168 -9.180000000000001C328.168 -3.672 331.29600000000005 0.34 335.61400000000003 0.34C338.062 0.34 340.00000000000006 -0.9520000000000001 341.15600000000006 -3.196H341.326V6.800000000000001H343.672V-18.360000000000003ZM335.92 -16.592000000000002C339.15000000000003 -16.592000000000002 341.39400000000006 -13.532000000000002 341.39400000000006 -9.180000000000001C341.39400000000006 -4.828 339.15000000000003 -1.7680000000000002 335.92 -1.7680000000000002C332.72400000000005 -1.7680000000000002 330.54800000000006 -4.760000000000001 330.54800000000006 -9.180000000000001C330.54800000000006 -13.600000000000001 332.72400000000005 -16.592000000000002 335.92 -16.592000000000002Z M363.392 -6.12V-18.360000000000003H361.046V-7.7860000000000005C361.046 -4.216 359.074 -1.6660000000000001 356.286 -1.6660000000000001C353.974 -1.6660000000000001 352.478 -3.434 352.478 -6.154000000000001V-18.360000000000003H350.132V-5.95C350.132 -2.176 352.41 0.34 355.844 0.34C358.156 0.34 359.992 -0.8160000000000001 361.046 -2.822H361.182C361.216 -1.9040000000000001 361.318 -0.9520000000000001 361.42 0.0H363.63C363.494 -2.1420000000000003 363.392 -4.386 363.392 -6.12Z M381.58200000000005 -13.226C381.58200000000005 -11.866000000000001 380.93600000000004 -11.186 379.61000000000007 -11.05L377.672 -10.88C372.60600000000005 -10.370000000000001 370.09000000000003 -8.568000000000001 370.09000000000003 -5.202C370.09000000000003 -1.9380000000000002 372.504 0.34 375.90400000000005 0.34C378.48800000000006 0.34 380.528 -0.9520000000000001 381.61600000000004 -3.128H381.75200000000007C381.85400000000004 -1.802 382.09200000000004 -0.782 382.398 0.0H384.60800000000006C384.13200000000006 -1.4620000000000002 383.92800000000005 -3.5700000000000003 383.92800000000005 -6.562V-13.192C383.92800000000005 -16.490000000000002 381.31000000000006 -18.700000000000003 377.50200000000007 -18.700000000000003C373.79600000000005 -18.700000000000003 371.00800000000004 -16.66 370.838 -13.838000000000001H373.11600000000004C373.35400000000004 -15.538 375.12200000000007 -16.694000000000003 377.50200000000007 -16.694000000000003C380.01800000000003 -16.694000000000003 381.58200000000005 -15.368 381.58200000000005 -13.226ZM381.58200000000005 -10.064V-7.242000000000001C381.58200000000005 -4.046 379.23600000000005 -1.6320000000000001 376.278 -1.6320000000000001C374.00000000000006 -1.6320000000000001 372.47 -3.06 372.47 -5.236000000000001C372.47 -7.548000000000001 374.1700000000001 -8.738000000000001 377.97800000000007 -9.180000000000001L379.814 -9.418000000000001C380.56200000000007 -9.486 381.14000000000004 -9.690000000000001 381.58200000000005 -10.064Z M394.74 0.0V-10.506C394.74 -14.042000000000002 396.644 -16.524 399.432 -16.524C401.20000000000005 -16.524 402.492 -15.504000000000001 402.83200000000005 -13.838000000000001H405.21200000000005C404.872 -16.728 402.83200000000005 -18.598000000000003 399.942 -18.598000000000003C397.562 -18.598000000000003 395.692 -17.306 394.672 -15.198H394.57000000000005V-18.360000000000003H392.394V0.0Z M418.20000000000005 -5.984V-16.286H424.72800000000007V-18.360000000000003H418.20000000000005V-24.14L415.85400000000004 -23.732000000000003V-18.360000000000003H410.5160000000001V-16.286H415.85400000000004V-5.984C415.85400000000004 -1.836 417.8260000000001 0.34 421.6000000000001 0.34C422.92600000000004 0.34 424.11600000000004 0.068 425.06800000000004 -0.47600000000000003V-2.414C424.04800000000006 -1.9040000000000001 422.9940000000001 -1.6320000000000001 421.90600000000006 -1.6320000000000001C419.42400000000004 -1.6320000000000001 418.20000000000005 -3.0260000000000002 418.20000000000005 -5.984Z M431.494 0.0H445.77400000000006V-2.04H434.31600000000003L445.196 -16.456V-18.360000000000003H431.83400000000006V-16.32H442.34000000000003L431.494 -1.9040000000000001Z M453.866 5.338H456.178L461.38 -3.842H457.81Z M503.064 0.8160000000000001V-18.360000000000003H494.02000000000004V-16.286H500.718V0.8160000000000001C500.718 3.7740000000000005 499.494 5.168 496.978 5.168C495.92400000000004 5.168 494.87 4.930000000000001 493.85 4.386V6.324000000000001C494.76800000000003 6.868 495.958 7.140000000000001 497.28400000000005 7.140000000000001C501.09200000000004 7.140000000000001 503.064 4.964 503.064 0.8160000000000001ZM499.324 -24.446C499.324 -23.188000000000002 500.34400000000005 -22.202 501.56800000000004 -22.202C502.826 -22.202 503.812 -23.188000000000002 503.812 -24.446C503.812 -25.704 502.826 -26.69 501.56800000000004 -26.69C500.34400000000005 -26.69 499.324 -25.704 499.324 -24.446Z M526.5920000000001 -6.12V-18.360000000000003H524.2460000000001V-7.7860000000000005C524.2460000000001 -4.216 522.2740000000001 -1.6660000000000001 519.4860000000001 -1.6660000000000001C517.1740000000001 -1.6660000000000001 515.6780000000001 -3.434 515.6780000000001 -6.154000000000001V-18.360000000000003H513.3320000000001V-5.95C513.3320000000001 -2.176 515.61 0.34 519.0440000000001 0.34C521.3560000000001 0.34 523.192 -0.8160000000000001 524.2460000000001 -2.822H524.3820000000001C524.416 -1.9040000000000001 524.518 -0.9520000000000001 524.62 0.0H526.83C526.6940000000001 -2.1420000000000003 526.5920000000001 -4.386 526.5920000000001 -6.12Z M545.666 0.0H547.9100000000001C547.7740000000001 -2.1420000000000003 547.6720000000001 -4.386 547.6720000000001 -6.12V-25.16H545.3260000000001V-15.164000000000001H545.1560000000001C544.0000000000001 -17.408 542.0620000000001 -18.700000000000003 539.6140000000001 -18.700000000000003C535.33 -18.700000000000003 532.1680000000001 -14.688 532.1680000000001 -9.180000000000001C532.1680000000001 -3.672 535.33 0.34 539.6140000000001 0.34C542.1300000000001 0.34 544.1020000000001 -1.02 545.258 -3.4000000000000004H545.4280000000001C545.4620000000001 -2.278 545.5640000000001 -1.1560000000000001 545.666 0.0ZM540.0900000000001 -1.7680000000000002C536.8600000000001 -1.7680000000000002 534.5480000000001 -4.862 534.5480000000001 -9.180000000000001C534.5480000000001 -13.498000000000001 536.8940000000001 -16.592000000000002 540.1240000000001 -16.592000000000002C543.2860000000001 -16.592000000000002 545.3940000000001 -13.634 545.3940000000001 -9.180000000000001C545.3940000000001 -4.760000000000001 543.2520000000001 -1.7680000000000002 540.0900000000001 -1.7680000000000002Z M565.3860000000001 -3.8760000000000003V0.544C565.3860000000001 3.128 563.3800000000001 5.032 560.6260000000001 5.032C558.2120000000001 5.032 556.3420000000001 3.5700000000000003 556.07 1.53H553.724C553.9620000000001 4.726 556.9200000000001 7.140000000000001 560.6600000000001 7.140000000000001C564.706 7.140000000000001 567.7320000000001 4.3180000000000005 567.7320000000001 0.544V-18.360000000000003H565.556V-15.164000000000001H565.4200000000001C564.3320000000001 -17.408 562.4620000000001 -18.700000000000003 560.1500000000001 -18.700000000000003C556.172 -18.700000000000003 553.1800000000001 -14.824000000000002 553.1800000000001 -9.690000000000001C553.1800000000001 -4.590000000000001 556.2400000000001 -0.68 560.2520000000001 -0.68C562.4280000000001 -0.68 564.196 -1.836 565.2840000000001 -3.8760000000000003ZM560.5240000000001 -2.7880000000000003C557.6680000000001 -2.7880000000000003 555.5600000000001 -5.712000000000001 555.5600000000001 -9.690000000000001C555.5600000000001 -13.668000000000001 557.6680000000001 -16.592000000000002 560.5240000000001 -16.592000000000002C563.3800000000001 -16.592000000000002 565.522 -13.668000000000001 565.522 -9.690000000000001C565.522 -5.712000000000001 563.3800000000001 -2.7880000000000003 560.5240000000001 -2.7880000000000003Z M576.2320000000001 -8.874H588.9480000000001V-9.792000000000002C588.9480000000001 -15.062000000000001 585.888 -18.700000000000003 581.57 -18.700000000000003C577.082 -18.700000000000003 573.8860000000001 -14.790000000000001 573.8860000000001 -9.316C573.8860000000001 -3.672 577.2520000000001 0.34 581.9440000000001 0.34C585.2420000000001 0.34 587.894 -1.598 588.6080000000001 -4.522H586.364C585.7520000000001 -2.822 584.12 -1.7680000000000002 582.046 -1.7680000000000002C578.6460000000001 -1.7680000000000002 576.368 -4.590000000000001 576.2320000000001 -8.874ZM581.604 -16.626C584.426 -16.626 586.5 -14.280000000000001 586.6700000000001 -10.744000000000002H576.3000000000001C576.7420000000001 -14.314000000000002 578.782 -16.626 581.604 -16.626Z M613.53 0.0H615.842V-12.784C615.842 -15.096000000000002 617.066 -16.762 618.766 -16.762C620.228 -16.762 621.112 -15.538 621.112 -13.464V0.0H623.424V-12.818000000000001C623.424 -15.13 624.648 -16.762 626.348 -16.762C627.81 -16.762 628.694 -15.504000000000001 628.694 -13.464V0.0H631.006V-13.702000000000002C631.006 -16.762 629.34 -18.700000000000003 626.688 -18.700000000000003C624.818 -18.700000000000003 623.458 -17.714000000000002 622.846 -15.844000000000001H622.71C622.302 -17.612000000000002 620.942 -18.700000000000003 619.174 -18.700000000000003C617.61 -18.700000000000003 616.284 -17.85 615.808 -16.422H615.672V-18.360000000000003H613.53Z M634.7800000000001 4.590000000000001V6.596C635.6640000000001 6.868 636.412 6.970000000000001 637.1260000000001 6.970000000000001C640.0160000000001 6.970000000000001 641.8860000000001 5.338 643.2120000000001 1.7340000000000002L650.556 -18.360000000000003H648.176L642.7360000000001 -3.0940000000000003H642.6000000000001L637.1600000000001 -18.360000000000003H634.7120000000001L641.4780000000001 0.034L641.1380000000001 1.02C640.0840000000001 3.842 638.8940000000001 4.930000000000001 636.7860000000001 4.930000000000001C636.1400000000001 4.930000000000001 635.4940000000001 4.828 634.7800000000001 4.590000000000001Z M681.9720000000001 0.0H684.998L690.9480000000001 -18.360000000000003H688.6020000000001L683.604 -2.482H683.4680000000001L678.2660000000001 -18.360000000000003H675.8520000000001Z M703.8000000000001 0.34C708.39 0.34 711.722 -3.6380000000000003 711.722 -9.180000000000001C711.722 -14.722000000000001 708.39 -18.700000000000003 703.8000000000001 -18.700000000000003C699.21 -18.700000000000003 695.878 -14.722000000000001 695.878 -9.180000000000001C695.878 -3.6380000000000003 699.21 0.34 703.8000000000001 0.34ZM703.8000000000001 -1.7680000000000002C700.5360000000001 -1.7680000000000002 698.258 -4.828 698.258 -9.180000000000001C698.258 -13.532000000000002 700.5360000000001 -16.592000000000002 703.8000000000001 -16.592000000000002C707.0640000000001 -16.592000000000002 709.342 -13.532000000000002 709.342 -9.180000000000001C709.342 -4.828 707.0640000000001 -1.7680000000000002 703.8000000000001 -1.7680000000000002Z M717.332 0.0H720.29L724.132 -13.430000000000001H724.268L728.11 0.0H731.068L733.788 -18.360000000000003H731.578L729.402 -2.6180000000000003H729.266L725.322 -16.32H723.078L719.168 -2.6860000000000004H719.032L716.822 -18.360000000000003H714.646Z M742.2540000000001 -2.108C742.2540000000001 -0.8160000000000001 743.2740000000001 0.23800000000000002 744.6000000000001 0.23800000000000002C745.926 0.23800000000000002 746.9800000000001 -0.8160000000000001 746.9800000000001 -2.108C746.9800000000001 -3.434 745.926 -4.488 744.6000000000001 -4.488C743.2740000000001 -4.488 742.2540000000001 -3.434 742.2540000000001 -2.108Z"/>
  </g>
</svg>
