<svg xmlns="http://www.w3.org/2000/svg" width="793" height="74" viewBox="0 0 793 74" role="img" aria-labelledby="title desc" style="background: transparent;">
  <title id="title">CommitMono 200 Regular Sonic preview</title>
  <desc id="desc">Sphinx of black quartz, judge my vow.</desc>
  <style>
    svg { background: transparent; }
    .preview-text { fill: #24292f; }
    @media (prefers-color-scheme: dark) {
      .preview-text { fill: #f0f6fc; }
    }
  </style>
  <g class="preview-text" transform="translate(22.10 46.93)">
    <path d="M1.9040000000000001 -6.460000000000001C2.04 -2.4480000000000004 5.61 0.47600000000000003 10.404 0.47600000000000003C15.232000000000001 0.47600000000000003 18.462 -2.482 18.462 -6.936000000000001C18.462 -10.778 16.048000000000002 -13.090000000000002 11.186 -13.940000000000001L9.826 -14.178C7.582000000000001 -14.586 6.494000000000001 -15.572000000000001 6.494000000000001 -17.204C6.494000000000001 -19.108 8.024000000000001 -20.400000000000002 10.302000000000001 -20.400000000000002C12.444 -20.400000000000002 14.110000000000001 -19.278000000000002 14.314000000000002 -17.68H18.258000000000003C18.088 -21.42 14.654000000000002 -24.14 10.132000000000001 -24.14C5.474 -24.14 2.346 -21.25 2.346 -16.932000000000002C2.346 -13.226 4.6240000000000006 -11.016 9.282 -10.200000000000001L10.642000000000001 -9.962000000000002C13.124 -9.520000000000001 14.314000000000002 -8.466000000000001 14.314000000000002 -6.698C14.314000000000002 -4.658 12.682 -3.2640000000000002 10.268 -3.2640000000000002C7.922000000000001 -3.2640000000000002 6.086 -4.590000000000001 5.848000000000001 -6.460000000000001Z M22.950000000000003 -18.360000000000003V6.800000000000001H27.03V-2.652H27.200000000000003C28.254000000000005 -0.68 29.92 0.34 32.096000000000004 0.34C36.414 0.34 39.474000000000004 -3.6380000000000003 39.474000000000004 -9.180000000000001C39.474000000000004 -14.722000000000001 36.414 -18.700000000000003 32.096000000000004 -18.700000000000003C29.784000000000002 -18.700000000000003 28.050000000000004 -17.544 27.03 -15.368H26.860000000000003V-18.360000000000003ZM31.178000000000004 -14.96C33.660000000000004 -14.96 35.394000000000005 -12.58 35.394000000000005 -9.180000000000001C35.394000000000005 -5.78 33.660000000000004 -3.4000000000000004 31.178000000000004 -3.4000000000000004C28.696000000000005 -3.4000000000000004 26.962000000000003 -5.78 26.962000000000003 -9.180000000000001C26.962000000000003 -12.58 28.696000000000005 -14.96 31.178000000000004 -14.96Z M44.71000000000001 0.0H46.75000000000001V-10.540000000000001C46.75000000000001 -14.246 48.858000000000004 -16.932000000000002 51.748000000000005 -16.932000000000002C54.162000000000006 -16.932000000000002 55.760000000000005 -15.062000000000001 55.760000000000005 -12.24V0.0H57.800000000000004V-12.41C57.800000000000004 -16.150000000000002 55.48800000000001 -18.700000000000003 52.12200000000001 -18.700000000000003C49.81 -18.700000000000003 47.940000000000005 -17.476000000000003 46.886 -15.47H46.75000000000001V-25.16H44.71000000000001Z M65.00800000000001 0.0H78.608V-1.7680000000000002H72.828V-18.360000000000003H65.178V-16.592000000000002H70.78800000000001V-1.7680000000000002H65.00800000000001ZM69.292 -24.548000000000002C69.292 -23.392000000000003 70.244 -22.44 71.4 -22.44C72.59 -22.44 73.50800000000001 -23.392000000000003 73.50800000000001 -24.548000000000002C73.50800000000001 -25.738000000000003 72.59 -26.656000000000002 71.4 -26.656000000000002C70.244 -26.656000000000002 69.292 -25.738000000000003 69.292 -24.548000000000002Z M85.51 0.0H87.55000000000001V-10.540000000000001C87.55000000000001 -14.280000000000001 89.62400000000001 -16.932000000000002 92.548 -16.932000000000002C94.99600000000001 -16.932000000000002 96.56 -15.096000000000002 96.56 -12.24V0.0H98.60000000000001V-12.41C98.60000000000001 -16.184 96.322 -18.700000000000003 92.888 -18.700000000000003C90.44000000000001 -18.700000000000003 88.53600000000002 -17.442 87.48200000000001 -15.3H87.38000000000001V-18.360000000000003H85.51Z M104.48200000000001 0.0H106.82800000000002L112.16600000000001 -8.092L117.50400000000002 0.0H119.91800000000002L113.52600000000001 -9.554L119.30600000000001 -18.360000000000003H116.99400000000001L112.20000000000002 -10.948L107.44000000000001 -18.360000000000003H105.02600000000001L110.84000000000002 -9.486Z M153.0 0.34C157.76000000000002 0.34 161.262 -3.672 161.262 -9.180000000000001C161.262 -14.688 157.76000000000002 -18.700000000000003 153.0 -18.700000000000003C148.24 -18.700000000000003 144.738 -14.688 144.738 -9.180000000000001C144.738 -3.672 148.24 0.34 153.0 0.34ZM153.0 -3.4000000000000004C150.518 -3.4000000000000004 148.818 -5.746 148.818 -9.180000000000001C148.818 -12.614 150.518 -14.96 153.0 -14.96C155.482 -14.96 157.18200000000002 -12.614 157.18200000000002 -9.180000000000001C157.18200000000002 -5.746 155.482 -3.4000000000000004 153.0 -3.4000000000000004Z M171.53000000000003 0.0H173.57000000000002V-16.592000000000002H180.20000000000002V-18.360000000000003H173.57000000000002V-19.278000000000002C173.57000000000002 -22.338 174.82800000000003 -23.8 177.37800000000001 -23.8C178.466 -23.8 179.52 -23.528000000000002 180.54000000000002 -22.984V-24.684C179.622 -25.228 178.466 -25.500000000000004 177.14000000000001 -25.500000000000004C173.46800000000002 -25.500000000000004 171.53000000000003 -23.358 171.53000000000003 -19.278000000000002V-18.360000000000003H166.09V-16.592000000000002H171.53000000000003Z M206.55000000000004 0.0H210.46000000000004V-3.06H210.59600000000003C211.61600000000004 -0.8500000000000001 213.35000000000002 0.34 215.69600000000003 0.34C220.01400000000004 0.34 223.07400000000004 -3.6380000000000003 223.07400000000004 -9.180000000000001C223.07400000000004 -14.722000000000001 220.01400000000004 -18.700000000000003 215.69600000000003 -18.700000000000003C213.48600000000002 -18.700000000000003 211.82000000000002 -17.646 210.76600000000002 -15.64H210.63000000000002V-25.16H206.55000000000004ZM214.77800000000002 -3.4000000000000004C212.29600000000002 -3.4000000000000004 210.56200000000004 -5.78 210.56200000000004 -9.180000000000001C210.56200000000004 -12.58 212.29600000000002 -14.96 214.77800000000002 -14.96C217.26000000000002 -14.96 218.99400000000003 -12.58 218.99400000000003 -9.180000000000001C218.99400000000003 -5.78 217.26000000000002 -3.4000000000000004 214.77800000000002 -3.4000000000000004Z M227.868 0.0H242.148V-3.74H237.048V-25.16H228.038V-21.42H232.96800000000002V-3.74H227.868Z M259.386 -13.294C259.386 -11.9 258.74 -11.186 257.38 -11.05L255.306 -10.846C250.274 -10.336 247.792 -8.534 247.792 -5.202C247.792 -1.9380000000000002 250.17200000000003 0.34 253.572 0.34C256.224 0.34 258.332 -1.02 259.42 -3.2640000000000002H259.55600000000004C259.658 -1.87 259.896 -0.8160000000000001 260.202 0.0H262.106C261.63 -1.3940000000000001 261.426 -3.4680000000000004 261.426 -6.562V-13.260000000000002C261.426 -16.524 258.87600000000003 -18.700000000000003 255.102 -18.700000000000003C251.49800000000002 -18.700000000000003 248.744 -16.694000000000003 248.54000000000002 -13.940000000000001H250.54600000000002C250.78400000000002 -15.708000000000002 252.65400000000002 -16.932000000000002 255.13600000000002 -16.932000000000002C257.754 -16.932000000000002 259.386 -15.538 259.386 -13.294ZM259.386 -10.268V-7.276000000000001C259.386 -3.9440000000000004 256.938 -1.3940000000000001 253.84400000000002 -1.3940000000000001C251.464 -1.3940000000000001 249.866 -2.9240000000000004 249.866 -5.236000000000001C249.866 -7.65 251.63400000000001 -8.874 255.578 -9.350000000000001L257.55 -9.588000000000001C258.332 -9.690000000000001 258.944 -9.894 259.386 -10.268Z M280.94200000000006 -4.42C280.36400000000003 -2.584 278.528 -1.4280000000000002 276.28400000000005 -1.4280000000000002C272.612 -1.4280000000000002 270.16400000000004 -4.590000000000001 270.16400000000004 -9.180000000000001C270.16400000000004 -13.736 272.57800000000003 -16.932000000000002 276.21600000000007 -16.932000000000002C278.39200000000005 -16.932000000000002 280.16 -15.776000000000002 280.70400000000006 -13.940000000000001H282.64200000000005C282.13200000000006 -16.762 279.48 -18.700000000000003 276.21600000000007 -18.700000000000003C271.52400000000006 -18.700000000000003 268.124 -14.688 268.124 -9.180000000000001C268.124 -3.7060000000000004 271.55800000000005 0.34 276.28400000000005 0.34C279.58200000000005 0.34 282.33600000000007 -1.598 282.88000000000005 -4.42Z M289.17 0.0H291.21000000000004V-5.542000000000001L294.916 -9.384L301.61400000000003 0.0H304.13L296.31 -10.88L303.48400000000004 -18.360000000000003H300.764L291.21000000000004 -8.228V-25.16H289.17Z M340.34000000000003 -18.360000000000003V-15.368H340.17C339.15000000000003 -17.544 337.41600000000005 -18.700000000000003 335.10400000000004 -18.700000000000003C330.78600000000006 -18.700000000000003 327.72600000000006 -14.722000000000001 327.72600000000006 -9.180000000000001C327.72600000000006 -3.6380000000000003 330.78600000000006 0.34 335.10400000000004 0.34C337.28000000000003 0.34 338.946 -0.68 340.00000000000006 -2.652H340.17V6.800000000000001H344.25000000000006V-18.360000000000003ZM336.02200000000005 -14.96C338.504 -14.96 340.23800000000006 -12.58 340.23800000000006 -9.180000000000001C340.23800000000006 -5.78 338.504 -3.4000000000000004 336.02200000000005 -3.4000000000000004C333.54 -3.4000000000000004 331.80600000000004 -5.78 331.80600000000004 -9.180000000000001C331.80600000000004 -12.58 333.54 -14.96 336.02200000000005 -14.96Z M364.038 -6.12V-18.360000000000003H359.958V-7.65C359.958 -4.964 358.49600000000004 -3.06 356.456 -3.06C354.824 -3.06 353.838 -4.284000000000001 353.838 -6.29V-18.360000000000003H349.75800000000004V-5.95C349.75800000000004 -2.1420000000000003 351.934 0.34 355.3 0.34C357.408 0.34 359.04 -0.646 359.992 -2.414H360.128C360.196 -1.6320000000000001 360.264 -0.8500000000000001 360.366 0.0H364.276C364.14 -2.1420000000000003 364.038 -4.386 364.038 -6.12Z M381.78600000000006 -13.294C381.78600000000006 -11.9 381.14000000000004 -11.186 379.78000000000003 -11.05L377.706 -10.846C372.67400000000004 -10.336 370.19200000000006 -8.534 370.19200000000006 -5.202C370.19200000000006 -1.9380000000000002 372.57200000000006 0.34 375.97200000000004 0.34C378.624 0.34 380.732 -1.02 381.82000000000005 -3.2640000000000002H381.956C382.05800000000005 -1.87 382.29600000000005 -0.8160000000000001 382.60200000000003 0.0H384.50600000000003C384.03000000000003 -1.3940000000000001 383.826 -3.4680000000000004 383.826 -6.562V-13.260000000000002C383.826 -16.524 381.27600000000007 -18.700000000000003 377.50200000000007 -18.700000000000003C373.898 -18.700000000000003 371.14400000000006 -16.694000000000003 370.94000000000005 -13.940000000000001H372.946C373.184 -15.708000000000002 375.05400000000003 -16.932000000000002 377.53600000000006 -16.932000000000002C380.15400000000005 -16.932000000000002 381.78600000000006 -15.538 381.78600000000006 -13.294ZM381.78600000000006 -10.268V-7.276000000000001C381.78600000000006 -3.9440000000000004 379.338 -1.3940000000000001 376.244 -1.3940000000000001C373.86400000000003 -1.3940000000000001 372.266 -2.9240000000000004 372.266 -5.236000000000001C372.266 -7.65 374.03400000000005 -8.874 377.97800000000007 -9.350000000000001L379.95000000000005 -9.588000000000001C380.732 -9.690000000000001 381.34400000000005 -9.894 381.78600000000006 -10.268Z M394.57000000000005 0.0V-10.540000000000001C394.57000000000005 -14.212000000000002 396.576 -16.796000000000003 399.466 -16.796000000000003C401.336 -16.796000000000003 402.696 -15.708000000000002 403.07000000000005 -13.940000000000001H405.11C404.77000000000004 -16.762 402.73 -18.598000000000003 399.874 -18.598000000000003C397.42600000000004 -18.598000000000003 395.52200000000005 -17.272000000000002 394.536 -15.096000000000002H394.40000000000003V-18.360000000000003H392.53000000000003V0.0Z M418.0300000000001 -5.882000000000001V-16.592000000000002H424.6600000000001V-18.360000000000003H418.0300000000001V-24.14L415.99000000000007 -23.8V-18.360000000000003H410.55000000000007V-16.592000000000002H415.99000000000007V-5.882000000000001C415.99000000000007 -1.802 417.92800000000005 0.34 421.6000000000001 0.34C422.92600000000004 0.34 424.08200000000005 0.068 425.00000000000006 -0.47600000000000003V-2.176C423.9800000000001 -1.6320000000000001 422.92600000000004 -1.36 421.8380000000001 -1.36C419.28800000000007 -1.36 418.0300000000001 -2.822 418.0300000000001 -5.882000000000001Z M431.46000000000004 0.0H445.74V-1.7680000000000002H433.908L445.16200000000003 -16.694000000000003V-18.360000000000003H431.8V-16.592000000000002H442.71400000000006L431.46000000000004 -1.6660000000000001Z M454.104 5.304H456.144L461.244 -3.672H458.014Z M504.22 0.23800000000000002V-18.360000000000003H494.02000000000004V-14.620000000000001H500.14000000000004V0.23800000000000002C500.14000000000004 2.5500000000000003 499.052 3.672 496.80800000000005 3.672C495.856 3.672 494.836 3.4680000000000004 493.85 3.0260000000000002V6.426C494.87 6.902 496.196 7.140000000000001 497.59000000000003 7.140000000000001C501.942 7.140000000000001 504.22 4.760000000000001 504.22 0.23800000000000002ZM498.74600000000004 -23.834000000000003C498.74600000000004 -22.134 500.14000000000004 -20.740000000000002 501.84000000000003 -20.740000000000002C503.574 -20.740000000000002 504.934 -22.134 504.934 -23.834000000000003C504.934 -25.568 503.574 -26.928 501.84000000000003 -26.928C500.14000000000004 -26.928 498.74600000000004 -25.568 498.74600000000004 -23.834000000000003Z M527.238 -6.12V-18.360000000000003H523.158V-7.65C523.158 -4.964 521.696 -3.06 519.6560000000001 -3.06C518.0240000000001 -3.06 517.038 -4.284000000000001 517.038 -6.29V-18.360000000000003H512.9580000000001V-5.95C512.9580000000001 -2.1420000000000003 515.134 0.34 518.5 0.34C520.6080000000001 0.34 522.24 -0.646 523.192 -2.414H523.3280000000001C523.3960000000001 -1.6320000000000001 523.464 -0.8500000000000001 523.566 0.0H527.4760000000001C527.34 -2.1420000000000003 527.238 -4.386 527.238 -6.12Z M545.8700000000001 0.0H547.8080000000001C547.6720000000001 -2.1420000000000003 547.57 -4.386 547.57 -6.12V-25.16H545.5300000000001V-15.062000000000001H545.3600000000001C544.2040000000001 -17.374000000000002 542.2320000000001 -18.700000000000003 539.7160000000001 -18.700000000000003C535.3980000000001 -18.700000000000003 532.2360000000001 -14.688 532.2360000000001 -9.180000000000001C532.2360000000001 -3.672 535.3980000000001 0.34 539.7160000000001 0.34C542.2660000000001 0.34 544.272 -1.054 545.4620000000001 -3.4680000000000004H545.5980000000001C545.666 -2.3120000000000003 545.734 -1.1900000000000002 545.8700000000001 0.0ZM540.0900000000001 -1.4620000000000002C536.724 -1.4620000000000002 534.3100000000001 -4.692 534.3100000000001 -9.180000000000001C534.3100000000001 -13.668000000000001 536.758 -16.898 540.1240000000001 -16.898C543.4220000000001 -16.898 545.5980000000001 -13.838000000000001 545.5980000000001 -9.180000000000001C545.5980000000001 -4.556 543.3880000000001 -1.4620000000000002 540.0900000000001 -1.4620000000000002Z M565.59 -4.0120000000000005V0.544C565.59 3.298 563.4820000000001 5.304 560.5920000000001 5.304C558.076 5.304 556.104 3.7740000000000005 555.8320000000001 1.598H553.792C554.0300000000001 4.760000000000001 556.9540000000001 7.140000000000001 560.6260000000001 7.140000000000001C564.638 7.140000000000001 567.6300000000001 4.3180000000000005 567.6300000000001 0.544V-18.360000000000003H565.7600000000001V-15.028H565.624C564.5020000000001 -17.34 562.5980000000001 -18.700000000000003 560.2180000000001 -18.700000000000003C556.206 -18.700000000000003 553.214 -14.824000000000002 553.214 -9.690000000000001C553.214 -4.590000000000001 556.3080000000001 -0.68 560.32 -0.68C562.5640000000001 -0.68 564.3660000000001 -1.9040000000000001 565.488 -4.0120000000000005ZM560.4900000000001 -2.482C557.498 -2.482 555.2880000000001 -5.542000000000001 555.2880000000001 -9.690000000000001C555.2880000000001 -13.838000000000001 557.498 -16.898 560.4900000000001 -16.898C563.4820000000001 -16.898 565.6920000000001 -13.838000000000001 565.6920000000001 -9.690000000000001C565.6920000000001 -5.542000000000001 563.4820000000001 -2.482 560.4900000000001 -2.482Z M575.994 -9.01H588.88V-9.826C588.88 -15.062000000000001 585.854 -18.700000000000003 581.57 -18.700000000000003C577.1160000000001 -18.700000000000003 573.9540000000001 -14.790000000000001 573.9540000000001 -9.316C573.9540000000001 -3.672 577.2860000000001 0.34 581.9440000000001 0.34C585.1740000000001 0.34 587.826 -1.564 588.5400000000001 -4.42H586.6020000000001C585.956 -2.6180000000000003 584.2220000000001 -1.496 582.046 -1.496C578.476 -1.496 576.096 -4.522 575.994 -9.01ZM581.604 -16.864C584.562 -16.864 586.772 -14.382000000000001 586.908 -10.642000000000001H576.062C576.47 -14.416 578.6460000000001 -16.864 581.604 -16.864Z M613.122 0.0H617.032V-12.58C617.032 -14.178 617.78 -15.3 618.868 -15.3C619.786 -15.3 620.33 -14.518 620.33 -13.260000000000002V0.0H624.24V-12.716000000000001C624.24 -14.246 624.988 -15.3 626.042 -15.3C626.96 -15.3 627.538 -14.518 627.538 -13.260000000000002V0.0H631.448V-13.940000000000001C631.448 -16.830000000000002 629.816 -18.700000000000003 627.232 -18.700000000000003C625.566 -18.700000000000003 624.274 -17.918000000000003 623.526 -16.388H623.39C622.778 -17.884 621.622 -18.700000000000003 620.16 -18.700000000000003C618.63 -18.700000000000003 617.338 -17.782 616.828 -16.252000000000002H616.692V-18.360000000000003H613.122Z M634.8480000000001 4.862V6.596C635.7320000000001 6.868 636.4460000000001 6.970000000000001 637.1260000000001 6.970000000000001C639.8800000000001 6.970000000000001 641.7160000000001 5.338 643.008 1.836L650.4540000000001 -18.360000000000003H648.3800000000001L642.7360000000001 -2.652H642.6000000000001L636.9220000000001 -18.360000000000003H634.7800000000001L641.6140000000001 0.068L641.2060000000001 1.1900000000000002C640.118 4.08 638.9280000000001 5.202 636.854 5.202C636.2080000000001 5.202 635.5620000000001 5.1000000000000005 634.8480000000001 4.862Z M680.6800000000001 0.0H686.12L691.5600000000001 -18.360000000000003H687.548L683.5020000000001 -4.25H683.3660000000001L679.32 -18.360000000000003H675.24Z M703.8000000000001 0.34C708.356 0.34 711.654 -3.6380000000000003 711.654 -9.180000000000001C711.654 -14.722000000000001 708.356 -18.700000000000003 703.8000000000001 -18.700000000000003C699.244 -18.700000000000003 695.946 -14.722000000000001 695.946 -9.180000000000001C695.946 -3.6380000000000003 699.244 0.34 703.8000000000001 0.34ZM703.8000000000001 -1.496C700.4 -1.496 698.02 -4.658 698.02 -9.180000000000001C698.02 -13.702000000000002 700.4 -16.864 703.8000000000001 -16.864C707.2 -16.864 709.58 -13.702000000000002 709.58 -9.180000000000001C709.58 -4.658 707.2 -1.496 703.8000000000001 -1.496Z M717.502 0.0H720.052L724.132 -13.668000000000001H724.268L728.348 0.0H730.898L733.72 -18.360000000000003H731.816L729.47 -2.346H729.334L725.152 -16.32H723.248L719.1 -2.414H718.964L716.618 -18.360000000000003H714.68Z M742.3900000000001 -1.9720000000000002C742.3900000000001 -0.748 743.3760000000001 0.23800000000000002 744.6000000000001 0.23800000000000002C745.8240000000001 0.23800000000000002 746.8100000000001 -0.748 746.8100000000001 -1.9720000000000002C746.8100000000001 -3.196 745.8240000000001 -4.182 744.6000000000001 -4.182C743.3760000000001 -4.182 742.3900000000001 -3.196 742.3900000000001 -1.9720000000000002Z"/>
  </g>
</svg>
