<svg xmlns="http://www.w3.org/2000/svg" width="793" height="74" viewBox="0 0 793 74" role="img" aria-labelledby="title desc">
  <title id="title">CommitMono 275 Italic preview</title>
  <desc id="desc">Sphinx of black quartz, judge my vow.</desc>
  <rect width="100%" height="100%" rx="10" fill="#0d1117"/>
  <g transform="translate(22.86 46.69)" fill="#f0f6fc">
    <path d="M1.1900000000000002 -5.882000000000001C0.7140000000000001 -2.21 3.6380000000000003 0.47600000000000003 8.092 0.47600000000000003C12.682 0.47600000000000003 16.32 -2.3800000000000003 17.0 -6.426C17.612000000000002 -9.928 15.64 -12.206000000000001 11.22 -13.158000000000001L9.860000000000001 -13.464C7.106000000000001 -14.076 5.916 -15.47 6.29 -17.68C6.698 -20.264000000000003 8.908000000000001 -21.998 11.798 -21.998C14.518 -21.998 16.422 -20.434 16.388 -18.258000000000003H18.666C19.006 -21.624000000000002 16.218 -24.14 12.138000000000002 -24.14C7.888000000000001 -24.14 4.556 -21.454 3.91 -17.578000000000003C3.3320000000000003 -14.212000000000002 5.134 -12.036000000000001 9.180000000000001 -11.152000000000001L10.506 -10.846C13.600000000000001 -10.166 15.028 -8.704 14.620000000000001 -6.3580000000000005C14.178 -3.604 11.594000000000001 -1.7000000000000002 8.398000000000001 -1.7000000000000002C5.338 -1.7000000000000002 3.3320000000000003 -3.434 3.5020000000000002 -5.882000000000001Z M25.296000000000003 -18.360000000000003 21.114 6.800000000000001H23.46L25.126 -3.196H25.262C26.078000000000003 -0.9520000000000001 27.778000000000002 0.34 30.226000000000003 0.34C34.544000000000004 0.34 38.352000000000004 -3.672 39.27 -9.180000000000001C40.188 -14.688 37.774 -18.700000000000003 33.456 -18.700000000000003C30.838 -18.700000000000003 28.594 -17.238 27.03 -14.756H26.860000000000003L27.472 -18.360000000000003ZM32.742000000000004 -16.592000000000002C35.904 -16.592000000000002 37.638000000000005 -13.600000000000001 36.89 -9.180000000000001C36.176 -4.760000000000001 33.456 -1.7680000000000002 30.260000000000005 -1.7680000000000002C27.064000000000004 -1.7680000000000002 25.330000000000002 -4.828 26.044000000000004 -9.180000000000001C26.758000000000003 -13.532000000000002 29.512 -16.592000000000002 32.742000000000004 -16.592000000000002Z M43.316 0.0H45.662000000000006L47.43000000000001 -10.574000000000002C48.008 -14.110000000000001 50.456 -16.694000000000003 53.24400000000001 -16.694000000000003C55.522000000000006 -16.694000000000003 56.74600000000001 -14.926000000000002 56.27 -12.206000000000001L54.230000000000004 0.0H56.57600000000001L58.650000000000006 -12.41C59.262 -16.150000000000002 57.426 -18.700000000000003 54.06 -18.700000000000003C51.782000000000004 -18.700000000000003 49.776 -17.544 48.416000000000004 -15.572000000000001H48.246L49.84400000000001 -25.16H47.498000000000005Z M63.274 0.0H76.976L77.316 -2.0740000000000003H71.638L74.358 -18.360000000000003H66.504L66.13000000000001 -16.286H71.638L69.292 -2.0740000000000003H63.614000000000004ZM71.434 -24.446C71.23 -23.188000000000002 72.08 -22.202 73.33800000000001 -22.202C74.596 -22.202 75.75200000000001 -23.188000000000002 75.956 -24.446C76.16 -25.704 75.378 -26.69 74.086 -26.69C72.86200000000001 -26.69 71.672 -25.704 71.434 -24.446Z M83.30000000000001 0.0H85.64600000000002L87.41400000000002 -10.574000000000002C87.992 -14.144000000000002 90.406 -16.694000000000003 93.22800000000001 -16.694000000000003C95.54 -16.694000000000003 96.73 -14.96 96.254 -12.206000000000001L94.21400000000001 0.0H96.56L98.63400000000001 -12.41C99.28 -16.184 97.44400000000002 -18.700000000000003 94.01 -18.700000000000003C91.63000000000001 -18.700000000000003 89.55600000000001 -17.476000000000003 88.162 -15.402000000000001H88.02600000000001L88.53600000000002 -18.360000000000003H86.36000000000001Z M103.25800000000001 0.0H105.94400000000002L112.40400000000001 -7.854000000000001L116.21200000000002 0.0H118.96600000000001L114.24000000000001 -9.554L121.41400000000002 -18.360000000000003H118.76200000000001L112.98200000000001 -11.152000000000001L109.61600000000001 -18.360000000000003H106.86200000000001L111.14600000000002 -9.486Z M151.232 0.34C155.822 0.34 159.834 -3.6380000000000003 160.752 -9.180000000000001C161.67000000000002 -14.722000000000001 159.018 -18.700000000000003 154.428 -18.700000000000003C149.83800000000002 -18.700000000000003 145.82600000000002 -14.722000000000001 144.90800000000002 -9.180000000000001C143.99 -3.6380000000000003 146.64200000000002 0.34 151.232 0.34ZM151.60600000000002 -1.7680000000000002C148.342 -1.7680000000000002 146.574 -4.828 147.288 -9.180000000000001C148.002 -13.532000000000002 150.824 -16.592000000000002 154.08800000000002 -16.592000000000002C157.318 -16.592000000000002 159.086 -13.532000000000002 158.372 -9.180000000000001C157.65800000000002 -4.828 154.836 -1.7680000000000002 151.60600000000002 -1.7680000000000002Z M170.306 0.0H172.65200000000002L175.33800000000002 -16.286H181.866L182.24 -18.360000000000003H175.71200000000002L175.848 -19.176000000000002C176.324 -22.134 177.78600000000003 -23.528000000000002 180.30200000000002 -23.528000000000002C181.35600000000002 -23.528000000000002 182.37600000000003 -23.290000000000003 183.294 -22.746000000000002L183.63400000000001 -24.684C182.78400000000002 -25.228 181.62800000000001 -25.500000000000004 180.30200000000002 -25.500000000000004C176.52800000000002 -25.500000000000004 174.18200000000002 -23.324 173.502 -19.176000000000002L173.366 -18.360000000000003H168.02800000000002L167.65400000000002 -16.286H172.99200000000002Z M205.42800000000003 0.0H207.60400000000004L208.21600000000004 -3.604H208.35200000000003C209.06600000000003 -1.122 210.86800000000002 0.34 213.45200000000003 0.34C217.77000000000004 0.34 221.54400000000004 -3.672 222.46200000000002 -9.180000000000001C223.38000000000002 -14.688 220.89800000000002 -18.700000000000003 216.58000000000004 -18.700000000000003C214.09800000000004 -18.700000000000003 211.95600000000002 -17.408 210.42600000000002 -15.13H210.29000000000002L211.95600000000002 -25.16H209.61000000000004ZM213.45200000000003 -1.7680000000000002C210.25600000000003 -1.7680000000000002 208.52200000000002 -4.828 209.23600000000002 -9.180000000000001C209.95000000000002 -13.532000000000002 212.70400000000004 -16.592000000000002 215.93400000000003 -16.592000000000002C219.09600000000003 -16.592000000000002 220.83000000000004 -13.600000000000001 220.08200000000002 -9.180000000000001C219.36800000000002 -4.760000000000001 216.64800000000002 -1.7680000000000002 213.45200000000003 -1.7680000000000002Z M226.47400000000002 0.0H240.17600000000002L240.51600000000002 -2.0740000000000003H234.838L238.714 -25.16H230.86L230.48600000000002 -23.086000000000002H235.994L232.49200000000002 -2.0740000000000003H226.814Z M259.284 -13.226C259.046 -11.866000000000001 258.298 -11.186 256.97200000000004 -11.05L255.0 -10.88C249.83200000000002 -10.370000000000001 247.01000000000002 -8.568000000000001 246.466 -5.202C245.92200000000003 -1.9380000000000002 247.928 0.34 251.36200000000002 0.34C253.912 0.34 256.19 -0.9520000000000001 257.652 -3.128H257.788C257.68600000000004 -1.802 257.72 -0.782 257.89 0.0H260.1C259.862 -1.4620000000000002 259.998 -3.5700000000000003 260.50800000000004 -6.562L261.63 -13.192C262.17400000000004 -16.490000000000002 259.93 -18.700000000000003 256.122 -18.700000000000003C252.41600000000003 -18.700000000000003 249.288 -16.66 248.64200000000002 -13.838000000000001H250.954C251.464 -15.538 253.47 -16.694000000000003 255.816 -16.694000000000003C258.332 -16.694000000000003 259.658 -15.368 259.284 -13.226ZM258.774 -10.064 258.264 -7.242000000000001C257.72 -4.046 254.966 -1.6320000000000001 252.008 -1.6320000000000001C249.73000000000002 -1.6320000000000001 248.472 -3.06 248.846 -5.236000000000001C249.25400000000002 -7.548000000000001 251.12400000000002 -8.738000000000001 255.03400000000002 -9.180000000000001L256.904 -9.418000000000001C257.652 -9.486 258.264 -9.690000000000001 258.774 -10.064Z M279.75200000000007 -4.522C278.90200000000004 -2.7880000000000003 276.99800000000005 -1.7340000000000002 274.89000000000004 -1.7340000000000002C271.32000000000005 -1.7340000000000002 269.48400000000004 -4.760000000000001 270.232 -9.180000000000001C270.946 -13.600000000000001 273.76800000000003 -16.626 277.27000000000004 -16.626C279.31000000000006 -16.626 280.80600000000004 -15.572000000000001 281.04400000000004 -13.838000000000001H283.32200000000006C283.28800000000007 -16.728 280.94200000000006 -18.700000000000003 277.61000000000007 -18.700000000000003C272.88400000000007 -18.700000000000003 268.80400000000003 -14.688 267.886 -9.214C266.968 -3.7060000000000004 269.75600000000003 0.34 274.516 0.34C277.84800000000007 0.34 280.97600000000006 -1.6320000000000001 281.99600000000004 -4.522Z M287.742 0.0H290.088L291.00600000000003 -5.44L295.154 -9.180000000000001L300.084 0.0H302.94L297.024 -10.88L305.38800000000003 -18.360000000000003H302.32800000000003L291.516 -8.568000000000001L294.27000000000004 -25.16H291.92400000000004Z M342.244 -18.360000000000003 341.63200000000006 -14.756H341.49600000000004C340.74800000000005 -17.238 338.98 -18.700000000000003 336.396 -18.700000000000003C332.07800000000003 -18.700000000000003 328.30400000000003 -14.688 327.386 -9.180000000000001C326.468 -3.672 328.95000000000005 0.34 333.26800000000003 0.34C335.716 0.34 337.85800000000006 -0.9520000000000001 339.38800000000003 -3.196H339.55800000000005L337.89200000000005 6.800000000000001H340.23800000000006L344.42 -18.360000000000003ZM336.396 -16.592000000000002C339.59200000000004 -16.592000000000002 341.326 -13.532000000000002 340.612 -9.180000000000001C339.898 -4.828 337.14400000000006 -1.7680000000000002 333.91400000000004 -1.7680000000000002C330.752 -1.7680000000000002 329.01800000000003 -4.760000000000001 329.766 -9.180000000000001C330.514 -13.600000000000001 333.20000000000005 -16.592000000000002 336.396 -16.592000000000002Z M362.712 -6.12 364.752 -18.360000000000003H362.406L360.63800000000003 -7.7860000000000005C360.06 -4.216 357.646 -1.6660000000000001 354.858 -1.6660000000000001C352.546 -1.6660000000000001 351.356 -3.434 351.798 -6.154000000000001L353.838 -18.360000000000003H351.492L349.418 -5.95C348.80600000000004 -2.176 350.642 0.34 354.076 0.34C356.38800000000003 0.34 358.428 -0.8160000000000001 359.788 -2.822H359.92400000000004C359.822 -1.9040000000000001 359.754 -0.9520000000000001 359.72 0.0H361.93C362.168 -2.1420000000000003 362.44 -4.386 362.712 -6.12Z M382.50000000000006 -13.226C382.26200000000006 -11.866000000000001 381.51400000000007 -11.186 380.18800000000005 -11.05L378.21600000000007 -10.88C373.04800000000006 -10.370000000000001 370.22600000000006 -8.568000000000001 369.6820000000001 -5.202C369.13800000000003 -1.9380000000000002 371.14400000000006 0.34 374.57800000000003 0.34C377.12800000000004 0.34 379.40600000000006 -0.9520000000000001 380.86800000000005 -3.128H381.004C380.90200000000004 -1.802 380.93600000000004 -0.782 381.10600000000005 0.0H383.31600000000003C383.07800000000003 -1.4620000000000002 383.21400000000006 -3.5700000000000003 383.72400000000005 -6.562L384.84600000000006 -13.192C385.39000000000004 -16.490000000000002 383.1460000000001 -18.700000000000003 379.338 -18.700000000000003C375.63200000000006 -18.700000000000003 372.504 -16.66 371.85800000000006 -13.838000000000001H374.1700000000001C374.68000000000006 -15.538 376.68600000000004 -16.694000000000003 379.03200000000004 -16.694000000000003C381.54800000000006 -16.694000000000003 382.874 -15.368 382.50000000000006 -13.226ZM381.99000000000007 -10.064 381.48 -7.242000000000001C380.93600000000004 -4.046 378.1820000000001 -1.6320000000000001 375.22400000000005 -1.6320000000000001C372.946 -1.6320000000000001 371.68800000000005 -3.06 372.06200000000007 -5.236000000000001C372.47 -7.548000000000001 374.34000000000003 -8.738000000000001 378.25000000000006 -9.180000000000001L380.12000000000006 -9.418000000000001C380.86800000000005 -9.486 381.48 -9.690000000000001 381.99000000000007 -10.064Z M393.44800000000004 0.0 395.182 -10.506C395.79400000000004 -14.042000000000002 398.14000000000004 -16.524 400.86 -16.524C402.62800000000004 -16.524 403.78400000000005 -15.504000000000001 403.85200000000003 -13.838000000000001H406.232C406.36800000000005 -16.728 404.634 -18.598000000000003 401.744 -18.598000000000003C399.36400000000003 -18.598000000000003 397.29 -17.306 395.93 -15.198H395.79400000000004L396.338 -18.360000000000003H394.16200000000003L391.10200000000003 0.0Z M417.07800000000003 -5.984 418.7780000000001 -16.286H425.30600000000004L425.68000000000006 -18.360000000000003H419.15200000000004L420.10400000000004 -24.14L417.69000000000005 -23.732000000000003L416.80600000000004 -18.360000000000003H411.4680000000001L411.09400000000005 -16.286H416.4320000000001L414.7320000000001 -5.984C414.0520000000001 -1.836 415.6840000000001 0.34 419.4580000000001 0.34C420.78400000000005 0.34 421.97400000000005 0.068 423.0280000000001 -0.47600000000000003L423.36800000000005 -2.414C422.24600000000004 -1.9040000000000001 421.1240000000001 -1.6320000000000001 420.03600000000006 -1.6320000000000001C417.55400000000003 -1.6320000000000001 416.60200000000003 -3.0260000000000002 417.07800000000003 -5.984Z M429.79400000000004 0.0H444.074L444.41400000000004 -2.04H432.99L446.25000000000006 -16.456L446.55600000000004 -18.360000000000003H433.194L432.85400000000004 -16.32H443.36L430.1 -1.9040000000000001Z M451.28200000000004 5.338H453.56L460.326 -3.842H456.75600000000003Z M500.61600000000004 0.8160000000000001 503.812 -18.360000000000003H494.76800000000003L494.428 -16.286H501.12600000000003L498.27000000000004 0.8160000000000001C497.79400000000004 3.7740000000000005 496.33200000000005 5.168 493.81600000000003 5.168C492.762 5.168 491.708 4.930000000000001 490.79 4.386L490.48400000000004 6.324000000000001C491.334 6.868 492.456 7.140000000000001 493.78200000000004 7.140000000000001C497.59000000000003 7.140000000000001 499.93600000000004 4.964 500.61600000000004 0.8160000000000001ZM501.05800000000005 -24.446C500.85400000000004 -23.188000000000002 501.704 -22.202 502.96200000000005 -22.202C504.22 -22.202 505.37600000000003 -23.188000000000002 505.58000000000004 -24.446C505.78400000000005 -25.704 505.002 -26.69 503.71000000000004 -26.69C502.48600000000005 -26.69 501.29600000000005 -25.704 501.05800000000005 -24.446Z M525.504 -6.12 527.5440000000001 -18.360000000000003H525.1980000000001L523.4300000000001 -7.7860000000000005C522.8520000000001 -4.216 520.4380000000001 -1.6660000000000001 517.6500000000001 -1.6660000000000001C515.3380000000001 -1.6660000000000001 514.148 -3.434 514.59 -6.154000000000001L516.6300000000001 -18.360000000000003H514.2840000000001L512.21 -5.95C511.59800000000007 -2.176 513.4340000000001 0.34 516.868 0.34C519.1800000000001 0.34 521.22 -0.8160000000000001 522.58 -2.822H522.716C522.614 -1.9040000000000001 522.546 -0.9520000000000001 522.5120000000001 0.0H524.7220000000001C524.96 -2.1420000000000003 525.2320000000001 -4.386 525.504 -6.12Z M543.9660000000001 0.0H546.21C546.4480000000001 -2.1420000000000003 546.7200000000001 -4.386 546.9920000000001 -6.12L550.1540000000001 -25.16H547.8080000000001L546.142 -15.164000000000001H546.0060000000001C545.19 -17.408 543.4900000000001 -18.700000000000003 541.0420000000001 -18.700000000000003C536.758 -18.700000000000003 532.916 -14.688 531.998 -9.180000000000001C531.08 -3.672 533.5960000000001 0.34 537.8800000000001 0.34C540.3960000000001 0.34 542.6060000000001 -1.02 544.1360000000001 -3.4000000000000004H544.272C544.1360000000001 -2.278 544.0680000000001 -1.1560000000000001 543.9660000000001 0.0ZM538.662 -1.7680000000000002C535.4320000000001 -1.7680000000000002 533.6640000000001 -4.862 534.378 -9.180000000000001C535.0920000000001 -13.498000000000001 537.9480000000001 -16.592000000000002 541.1780000000001 -16.592000000000002C544.3400000000001 -16.592000000000002 545.9720000000001 -13.634 545.224 -9.180000000000001C544.4760000000001 -4.760000000000001 541.8240000000001 -1.7680000000000002 538.662 -1.7680000000000002Z M564.3660000000001 -3.8760000000000003 563.5840000000001 0.544C563.176 3.128 560.864 5.032 558.11 5.032C555.696 5.032 554.0300000000001 3.5700000000000003 554.0980000000001 1.53H551.7520000000001C551.48 4.726 554.0300000000001 7.140000000000001 557.7700000000001 7.140000000000001C561.816 7.140000000000001 565.3180000000001 4.3180000000000005 565.9300000000001 0.544L569.0920000000001 -18.360000000000003H566.916L566.4060000000001 -15.164000000000001H566.2360000000001C565.522 -17.408 563.8900000000001 -18.700000000000003 561.5780000000001 -18.700000000000003C557.6 -18.700000000000003 553.9280000000001 -14.824000000000002 553.0780000000001 -9.690000000000001C552.2280000000001 -4.590000000000001 554.642 -0.68 558.6540000000001 -0.68C560.83 -0.68 562.768 -1.836 564.23 -3.8760000000000003ZM559.3000000000001 -2.7880000000000003C556.4100000000001 -2.7880000000000003 554.778 -5.712000000000001 555.4580000000001 -9.690000000000001C556.104 -13.668000000000001 558.7220000000001 -16.592000000000002 561.6120000000001 -16.592000000000002C564.4680000000001 -16.592000000000002 566.066 -13.668000000000001 565.4200000000001 -9.690000000000001C564.7740000000001 -5.712000000000001 562.1560000000001 -2.7880000000000003 559.3000000000001 -2.7880000000000003Z M576.402 -8.874H589.118L589.288 -9.792000000000002C590.172 -15.062000000000001 587.724 -18.700000000000003 583.3720000000001 -18.700000000000003C578.884 -18.700000000000003 575.076 -14.790000000000001 574.158 -9.316C573.206 -3.672 575.926 0.34 580.618 0.34C583.916 0.34 586.908 -1.598 588.0640000000001 -4.522H585.854C584.936 -2.822 583.1 -1.7680000000000002 581.0260000000001 -1.7680000000000002C577.6260000000001 -1.7680000000000002 575.8240000000001 -4.590000000000001 576.402 -8.874ZM583.066 -16.626C585.888 -16.626 587.5880000000001 -14.280000000000001 587.1460000000001 -10.744000000000002H576.7760000000001C577.83 -14.314000000000002 580.244 -16.626 583.066 -16.626Z M611.626 0.0H613.938L616.08 -12.784C616.454 -15.096000000000002 617.882 -16.762 619.514 -16.762C620.908 -16.762 621.588 -15.538 621.248 -13.464L619.004 0.0H621.316L623.458 -12.818000000000001C623.832 -15.13 625.294 -16.762 626.926 -16.762C628.354 -16.762 628.966 -15.504000000000001 628.626 -13.464L626.382 0.0H628.728L631.006 -13.702000000000002C631.516 -16.762 630.258 -18.700000000000003 627.674 -18.700000000000003C625.804 -18.700000000000003 624.308 -17.714000000000002 623.356 -15.844000000000001H623.22C623.118 -17.612000000000002 621.996 -18.700000000000003 620.262 -18.700000000000003C618.732 -18.700000000000003 617.372 -17.85 616.658 -16.422H616.522L616.828 -18.360000000000003H614.686Z M633.7940000000001 4.590000000000001 633.488 6.596C634.3380000000001 6.868 635.0520000000001 6.970000000000001 635.7660000000001 6.970000000000001C638.6560000000001 6.970000000000001 640.8320000000001 5.338 642.7360000000001 1.7340000000000002L653.412 -18.360000000000003H651.032L643.0760000000001 -3.0940000000000003H642.94L640.0160000000001 -18.360000000000003H637.5680000000001L641.2740000000001 0.068L640.7640000000001 1.02C639.234 3.842 637.8400000000001 4.930000000000001 635.7320000000001 4.930000000000001C635.0860000000001 4.930000000000001 634.474 4.828 633.7940000000001 4.590000000000001Z M679.6600000000001 0.0H682.686L691.696 -18.360000000000003H689.35L681.7 -2.482H681.5640000000001L679.014 -18.360000000000003H676.6Z M701.114 0.34C705.7040000000001 0.34 709.716 -3.6380000000000003 710.634 -9.180000000000001C711.552 -14.722000000000001 708.9 -18.700000000000003 704.3100000000001 -18.700000000000003C699.72 -18.700000000000003 695.708 -14.722000000000001 694.7900000000001 -9.180000000000001C693.8720000000001 -3.6380000000000003 696.524 0.34 701.114 0.34ZM701.488 -1.7680000000000002C698.224 -1.7680000000000002 696.456 -4.828 697.1700000000001 -9.180000000000001C697.884 -13.532000000000002 700.706 -16.592000000000002 703.97 -16.592000000000002C707.2 -16.592000000000002 708.9680000000001 -13.532000000000002 708.254 -9.180000000000001C707.5400000000001 -4.828 704.7180000000001 -1.7680000000000002 701.488 -1.7680000000000002Z M716.244 0.0H719.202L725.288 -13.430000000000001H725.424L727.022 0.0H729.98L735.76 -18.360000000000003H733.55L728.756 -2.6180000000000003H728.62L726.954 -16.32H724.71L718.522 -2.6860000000000004H718.386L718.794 -18.360000000000003H716.618Z M740.8940000000001 -2.108C740.69 -0.8160000000000001 741.5400000000001 0.23800000000000002 742.8660000000001 0.23800000000000002C744.1580000000001 0.23800000000000002 745.416 -0.8160000000000001 745.6200000000001 -2.108C745.8580000000001 -3.434 744.974 -4.488 743.6480000000001 -4.488C742.3560000000001 -4.488 741.1320000000001 -3.434 740.8940000000001 -2.108Z"/>
  </g>
</svg>
