<svg xmlns="http://www.w3.org/2000/svg" width="792" height="74" viewBox="0 0 792 74" role="img" aria-labelledby="title desc" style="background: transparent;">
  <title id="title">CommitMono 200 Italic Sonic preview</title>
  <desc id="desc">Sphinx of black quartz, judge my vow.</desc>
  <style>
    svg { background: transparent; }
    .preview-text { fill: #24292f; }
    @media (prefers-color-scheme: dark) {
      .preview-text { fill: #f0f6fc; }
    }
  </style>
  <g class="preview-text" transform="translate(22.78 46.93)">
    <path d="M1.292 -6.460000000000001H5.236000000000001Q5.168 -5.066000000000001 6.256 -4.165000000000001Q7.344 -3.2640000000000002 9.112 -3.2640000000000002Q10.914000000000001 -3.2640000000000002 12.189 -4.216Q13.464 -5.168 13.736 -6.698Q14.178 -9.316 10.608 -9.962000000000002L9.282 -10.200000000000001Q2.5500000000000003 -11.424000000000001 3.4680000000000004 -16.932000000000002Q4.0120000000000005 -20.162000000000003 6.477 -22.151000000000003Q8.942 -24.14 12.444 -24.14Q15.844000000000001 -24.14 17.85 -22.304000000000002Q19.856 -20.468 19.516000000000002 -17.68H15.572000000000001Q15.606000000000002 -18.87 14.603000000000002 -19.635Q13.600000000000001 -20.400000000000002 12.002 -20.400000000000002Q10.302000000000001 -20.400000000000002 9.095 -19.516000000000002Q7.888000000000001 -18.632 7.65 -17.17Q7.242000000000001 -14.790000000000001 10.472000000000001 -14.178L11.798 -13.940000000000001Q18.87 -12.682 17.918000000000003 -6.902Q17.34 -3.5700000000000003 14.79 -1.5470000000000002Q12.24 0.47600000000000003 8.636 0.47600000000000003Q5.032 0.47600000000000003 2.958 -1.479Q0.8840000000000001 -3.434 1.292 -6.460000000000001Z M24.310000000000002 -18.360000000000003H28.220000000000002L27.71 -15.368H27.880000000000003Q30.056000000000004 -18.700000000000003 33.524 -18.700000000000003Q36.754000000000005 -18.700000000000003 38.36900000000001 -16.014000000000003Q39.98400000000001 -13.328000000000001 39.304 -9.18Q38.624 -5.032 36.108000000000004 -2.346Q33.592 0.34 30.362000000000002 0.34Q27.064000000000004 0.34 25.942000000000004 -2.652H25.772000000000002L24.208000000000002 6.800000000000001H20.128000000000004ZM34.748000000000005 -13.345Q33.830000000000005 -14.96 31.960000000000004 -14.96Q30.090000000000003 -14.96 28.662000000000003 -13.345Q27.234 -11.73 26.792 -9.18Q26.35 -6.630000000000001 27.268 -5.015000000000001Q28.186000000000003 -3.4000000000000004 30.056000000000004 -3.4000000000000004Q31.926000000000002 -3.4000000000000004 33.354 -5.015000000000001Q34.782000000000004 -6.630000000000001 35.224000000000004 -9.18Q35.666000000000004 -11.73 34.748000000000005 -13.345Z M43.010000000000005 0.0 47.19200000000001 -25.16H49.232000000000006L47.63400000000001 -15.47H47.77Q50.014 -18.700000000000003 53.550000000000004 -18.700000000000003Q56.066 -18.700000000000003 57.358000000000004 -16.966Q58.650000000000006 -15.232000000000001 58.17400000000001 -12.41L56.10000000000001 0.0H54.06L56.10000000000001 -12.24Q56.440000000000005 -14.348 55.556000000000004 -15.64Q54.672000000000004 -16.932000000000002 52.870000000000005 -16.932000000000002Q50.694 -16.932000000000002 48.977000000000004 -15.130000000000003Q47.260000000000005 -13.328000000000001 46.818000000000005 -10.540000000000001L45.050000000000004 0.0Z M63.308 0.0 63.614000000000004 -1.7680000000000002H69.394L71.842 -16.592000000000002H66.232L66.538 -18.360000000000003H74.188L71.434 -1.7680000000000002H77.214L76.908 0.0ZM71.57000000000001 -24.548000000000002Q71.706 -25.432000000000002 72.43700000000001 -26.044000000000004Q73.168 -26.656000000000002 74.052 -26.656000000000002Q74.936 -26.656000000000002 75.446 -26.044000000000004Q75.956 -25.432000000000002 75.786 -24.548000000000002Q75.616 -23.664 74.91900000000001 -23.052Q74.22200000000001 -22.44 73.33800000000001 -22.44Q72.45400000000001 -22.44 71.944 -23.069000000000003Q71.434 -23.698 71.57000000000001 -24.548000000000002Z M83.81 0.0 86.87 -18.360000000000003H88.74000000000001L88.23 -15.3H88.33200000000001Q90.61000000000001 -18.700000000000003 94.316 -18.700000000000003Q96.9 -18.700000000000003 98.17500000000001 -16.966Q99.45000000000002 -15.232000000000001 98.97400000000002 -12.41L96.9 0.0H94.86000000000001L96.9 -12.24Q97.27400000000002 -14.382000000000001 96.39000000000001 -15.657000000000002Q95.50600000000001 -16.932000000000002 93.67000000000002 -16.932000000000002Q91.46000000000001 -16.932000000000002 89.76 -15.130000000000003Q88.06 -13.328000000000001 87.61800000000001 -10.540000000000001L85.85000000000001 0.0Z M102.78200000000001 0.0 110.73800000000001 -9.486 106.38600000000001 -18.360000000000003H108.80000000000001L112.33600000000001 -10.948L118.35400000000001 -18.360000000000003H120.66600000000001L113.42400000000002 -9.554L118.21800000000002 0.0H115.80400000000002L111.82600000000002 -8.092L105.12800000000001 0.0Z M157.60700000000003 -2.3630000000000004Q154.80200000000002 0.34 151.23200000000003 0.34Q147.662 0.34 145.775 -2.3630000000000004Q143.888 -5.066000000000001 144.568 -9.18Q145.24800000000002 -13.294 148.053 -15.997000000000002Q150.858 -18.700000000000003 154.428 -18.700000000000003Q157.99800000000002 -18.700000000000003 159.88500000000002 -15.997000000000002Q161.77200000000002 -13.294 161.092 -9.18Q160.412 -5.066000000000001 157.60700000000003 -2.3630000000000004ZM157.012 -9.146Q157.454 -11.73 156.553 -13.345Q155.65200000000002 -14.96 153.782 -14.96Q151.912 -14.96 150.501 -13.362000000000002Q149.09 -11.764000000000001 148.64800000000002 -9.214Q148.20600000000002 -6.630000000000001 149.10700000000003 -5.015000000000001Q150.008 -3.4000000000000004 151.87800000000001 -3.4000000000000004Q153.74800000000002 -3.4000000000000004 155.15900000000002 -4.998Q156.57000000000002 -6.596 157.012 -9.146Z M169.83 0.0 172.584 -16.592000000000002H167.144L167.45000000000002 -18.360000000000003H172.89000000000001L173.06000000000003 -19.278000000000002Q173.57000000000002 -22.338 175.25300000000001 -23.919000000000004Q176.936 -25.500000000000004 179.69000000000003 -25.500000000000004Q181.73000000000002 -25.500000000000004 182.954 -24.684L182.68200000000002 -22.984Q181.288 -23.8 179.622 -23.8Q175.848 -23.8 175.10000000000002 -19.278000000000002L174.93 -18.360000000000003H181.56000000000003L181.25400000000002 -16.592000000000002H174.62400000000002L171.87 0.0Z M204.85000000000002 0.0 209.03200000000004 -25.16H213.11200000000002L211.54800000000003 -15.64H211.68400000000003Q213.75800000000004 -18.700000000000003 217.12400000000002 -18.700000000000003Q220.35400000000004 -18.700000000000003 221.96900000000005 -16.014000000000003Q223.58400000000003 -13.328000000000001 222.90400000000002 -9.18Q222.22400000000002 -5.032 219.70800000000003 -2.346Q217.19200000000004 0.34 213.96200000000002 0.34Q210.46000000000004 0.34 209.40600000000003 -3.06H209.27000000000004L208.76000000000002 0.0ZM210.86800000000002 -5.015000000000001Q211.78600000000003 -3.4000000000000004 213.65600000000003 -3.4000000000000004Q215.52600000000004 -3.4000000000000004 216.95400000000004 -5.015000000000001Q218.38200000000003 -6.630000000000001 218.824 -9.18Q219.26600000000002 -11.73 218.348 -13.345Q217.43000000000004 -14.96 215.56000000000003 -14.96Q213.69000000000003 -14.96 212.26200000000003 -13.345Q210.83400000000003 -11.73 210.39200000000002 -9.18Q209.95000000000002 -6.630000000000001 210.86800000000002 -5.015000000000001Z M226.168 0.0 226.78 -3.74H231.88L234.838 -21.42H229.90800000000002L230.554 -25.16H239.56400000000002L235.96 -3.74H241.06L240.448 0.0Z M259.896 -13.294Q260.168 -14.96 259.199 -15.946000000000002Q258.23 -16.932000000000002 256.25800000000004 -16.932000000000002Q254.388 -16.932000000000002 252.977 -16.099000000000004Q251.566 -15.266000000000002 251.192 -13.940000000000001H249.186Q249.662 -16.014000000000003 251.75300000000001 -17.357000000000003Q253.84400000000002 -18.700000000000003 256.53000000000003 -18.700000000000003Q259.35200000000003 -18.700000000000003 260.848 -17.204Q262.344 -15.708000000000002 261.93600000000004 -13.260000000000002L260.814 -6.562Q260.06600000000003 -2.0060000000000002 260.406 0.0H258.502Q258.23 -1.36 258.40000000000003 -3.2640000000000002H258.264Q257.176 -1.564 255.476 -0.612Q253.776 0.34 251.83800000000002 0.34Q249.25400000000002 0.34 247.911 -1.207Q246.568 -2.754 246.976 -5.202Q247.758 -10.098 255.40800000000002 -10.846L257.516 -11.05Q259.59000000000003 -11.254000000000001 259.896 -13.294ZM259.42 -10.268Q258.706 -9.758000000000001 257.44800000000004 -9.588000000000001L255.442 -9.350000000000001Q252.41600000000003 -8.976 250.88600000000002 -8.007000000000001Q249.35600000000002 -7.038 249.05 -5.236000000000001Q248.744 -3.5020000000000002 249.662 -2.4480000000000004Q250.58 -1.3940000000000001 252.382 -1.3940000000000001Q254.69400000000002 -1.3940000000000001 256.581 -3.0940000000000003Q258.468 -4.7940000000000005 258.91 -7.276000000000001Z M279.99000000000007 -4.42H281.92800000000005Q281.18000000000006 -2.3120000000000003 279.10600000000005 -0.9860000000000001Q277.03200000000004 0.34 274.55000000000007 0.34Q271.01400000000007 0.34 269.14400000000006 -2.3630000000000004Q267.27400000000006 -5.066000000000001 267.95400000000006 -9.180000000000001Q268.63400000000007 -13.328000000000001 271.38800000000003 -16.014000000000003Q274.14200000000005 -18.700000000000003 277.64400000000006 -18.700000000000003Q280.09200000000004 -18.700000000000003 281.65600000000006 -17.374000000000002Q283.22 -16.048000000000002 283.254 -13.940000000000001H281.31600000000003Q281.1460000000001 -15.3 280.05800000000005 -16.116Q278.97 -16.932000000000002 277.338 -16.932000000000002Q274.61800000000005 -16.932000000000002 272.595 -14.773000000000001Q270.57200000000006 -12.614 269.994 -9.180000000000001Q269.41600000000005 -5.712000000000001 270.7420000000001 -3.5700000000000003Q272.06800000000004 -1.4280000000000002 274.82200000000006 -1.4280000000000002Q276.52200000000005 -1.4280000000000002 277.93300000000005 -2.244Q279.34400000000005 -3.06 279.99000000000007 -4.42Z M287.47 0.0 291.65200000000004 -25.16H293.692L290.87 -8.228L302.124 -18.360000000000003H304.84400000000005L296.41200000000003 -10.88L302.43 0.0H299.91400000000004L294.78000000000003 -9.384L290.428 -5.542000000000001L289.51000000000005 0.0Z M341.70000000000005 -18.360000000000003H345.61L341.42800000000005 6.800000000000001H337.348L338.91200000000003 -2.652H338.742Q336.634 0.34 333.336 0.34Q330.10600000000005 0.34 328.49100000000004 -2.346Q326.87600000000003 -5.032 327.55600000000004 -9.18Q328.23600000000005 -13.328000000000001 330.75200000000007 -16.014000000000003Q333.26800000000003 -18.700000000000003 336.49800000000005 -18.700000000000003Q339.966 -18.700000000000003 341.02000000000004 -15.368H341.19000000000005ZM339.59200000000004 -13.345Q338.67400000000004 -14.96 336.80400000000003 -14.96Q334.934 -14.96 333.50600000000003 -13.345Q332.07800000000003 -11.73 331.636 -9.18Q331.194 -6.630000000000001 332.112 -5.015000000000001Q333.03000000000003 -3.4000000000000004 334.90000000000003 -3.4000000000000004Q336.77000000000004 -3.4000000000000004 338.19800000000004 -5.015000000000001Q339.62600000000003 -6.630000000000001 340.06800000000004 -9.18Q340.51000000000005 -11.73 339.59200000000004 -13.345Z M363.358 -6.12Q363.01800000000003 -3.8760000000000003 362.576 0.0H358.666Q358.7 -0.8500000000000001 358.836 -2.414H358.7Q356.728 0.34 353.53200000000004 0.34Q351.016 0.34 349.79200000000003 -1.3770000000000002Q348.568 -3.0940000000000003 349.04400000000004 -5.95L351.118 -18.360000000000003H355.19800000000004L353.192 -6.29Q352.92 -4.7940000000000005 353.481 -3.9270000000000005Q354.04200000000003 -3.06 355.266 -3.06Q356.796 -3.06 358.00300000000004 -4.352Q359.21000000000004 -5.644 359.55 -7.65L361.318 -18.360000000000003H365.398Z M382.29600000000005 -13.294Q382.56800000000004 -14.96 381.59900000000005 -15.946000000000002Q380.63000000000005 -16.932000000000002 378.6580000000001 -16.932000000000002Q376.78800000000007 -16.932000000000002 375.37700000000007 -16.099000000000004Q373.96600000000007 -15.266000000000002 373.59200000000004 -13.940000000000001H371.58600000000007Q372.06200000000007 -16.014000000000003 374.153 -17.357000000000003Q376.244 -18.700000000000003 378.93000000000006 -18.700000000000003Q381.75200000000007 -18.700000000000003 383.24800000000005 -17.204Q384.744 -15.708000000000002 384.33600000000007 -13.260000000000002L383.21400000000006 -6.562Q382.46600000000007 -2.0060000000000002 382.80600000000004 0.0H380.90200000000004Q380.63000000000005 -1.36 380.80000000000007 -3.2640000000000002H380.66400000000004Q379.576 -1.564 377.87600000000003 -0.612Q376.17600000000004 0.34 374.23800000000006 0.34Q371.65400000000005 0.34 370.31100000000004 -1.207Q368.968 -2.754 369.37600000000003 -5.202Q370.1580000000001 -10.098 377.80800000000005 -10.846L379.91600000000005 -11.05Q381.99000000000007 -11.254000000000001 382.29600000000005 -13.294ZM381.82000000000005 -10.268Q381.10600000000005 -9.758000000000001 379.84800000000007 -9.588000000000001L377.84200000000004 -9.350000000000001Q374.81600000000003 -8.976 373.28600000000006 -8.007000000000001Q371.75600000000003 -7.038 371.45000000000005 -5.236000000000001Q371.14400000000006 -3.5020000000000002 372.062 -2.4480000000000004Q372.98 -1.3940000000000001 374.78200000000004 -1.3940000000000001Q377.09400000000005 -1.3940000000000001 378.98100000000005 -3.0940000000000003Q380.86800000000005 -4.7940000000000005 381.31000000000006 -7.276000000000001Z M392.87 0.0H390.83000000000004L393.89000000000004 -18.360000000000003H395.76000000000005L395.216 -15.096000000000002H395.35200000000003Q397.528 -18.598000000000003 401.26800000000003 -18.598000000000003Q403.41 -18.598000000000003 404.617 -17.323Q405.824 -16.048000000000002 405.72200000000004 -13.940000000000001H403.682Q403.61400000000003 -15.266000000000002 402.78100000000006 -16.031000000000002Q401.94800000000004 -16.796000000000003 400.55400000000003 -16.796000000000003Q398.41200000000003 -16.796000000000003 396.74600000000004 -15.045000000000002Q395.08000000000004 -13.294 394.63800000000003 -10.540000000000001Z M417.31600000000003 -5.882000000000001Q416.56800000000004 -1.36 420.34200000000004 -1.36Q422.00800000000004 -1.36 423.67400000000004 -2.176L423.36800000000005 -0.47600000000000003Q421.8380000000001 0.34 419.86600000000004 0.34Q417.1120000000001 0.34 415.9390000000001 -1.241Q414.7660000000001 -2.822 415.27600000000007 -5.882000000000001L417.04400000000004 -16.592000000000002H411.60400000000004L411.9100000000001 -18.360000000000003H417.3500000000001L418.26800000000003 -23.8L420.34200000000004 -24.14L419.39000000000004 -18.360000000000003H426.02000000000004L425.71400000000006 -16.592000000000002H419.08400000000006Z M429.76000000000005 0.0 430.03200000000004 -1.6660000000000001 443.76800000000003 -16.592000000000002H432.85400000000004L433.16 -18.360000000000003H446.52200000000005L446.25000000000006 -16.694000000000003L432.514 -1.7680000000000002H444.34600000000006L444.04 0.0Z M451.52000000000004 5.304 456.926 -3.672H460.156L453.56 5.304Z M502.48600000000005 0.23800000000000002Q501.33000000000004 7.140000000000001 494.70000000000005 7.140000000000001Q492.524 7.140000000000001 491.096 6.426L491.64000000000004 3.0260000000000002Q492.966 3.672 494.49600000000004 3.672Q497.862 3.672 498.406 0.23800000000000002L500.88800000000003 -14.620000000000001H494.76800000000003L495.38 -18.360000000000003H505.58000000000004ZM501.024 -23.834000000000003Q501.262 -25.126 502.299 -26.027Q503.336 -26.928 504.62800000000004 -26.928Q505.92 -26.928 506.68500000000006 -26.027Q507.45000000000005 -25.126 507.21200000000005 -23.834000000000003Q507.00800000000004 -22.542 505.95400000000006 -21.641000000000002Q504.90000000000003 -20.740000000000002 503.608 -20.740000000000002Q502.35 -20.740000000000002 501.58500000000004 -21.641000000000002Q500.82000000000005 -22.542 501.024 -23.834000000000003Z M526.5580000000001 -6.12Q526.2180000000001 -3.8760000000000003 525.7760000000001 0.0H521.8660000000001Q521.9000000000001 -0.8500000000000001 522.0360000000001 -2.414H521.9000000000001Q519.9280000000001 0.34 516.7320000000001 0.34Q514.216 0.34 512.992 -1.3770000000000002Q511.76800000000003 -3.0940000000000003 512.244 -5.95L514.3180000000001 -18.360000000000003H518.398L516.392 -6.29Q516.12 -4.7940000000000005 516.681 -3.9270000000000005Q517.2420000000001 -3.06 518.466 -3.06Q519.9960000000001 -3.06 521.2030000000001 -4.352Q522.4100000000001 -5.644 522.7500000000001 -7.65L524.518 -18.360000000000003H528.5980000000001Z M544.1700000000001 0.0Q544.272 -1.9040000000000001 544.5100000000001 -3.4680000000000004H544.3400000000001Q541.8580000000001 0.34 537.9820000000001 0.34Q534.7520000000001 0.34 533.0690000000001 -2.3630000000000004Q531.3860000000001 -5.066000000000001 532.066 -9.18Q532.7460000000001 -13.294 535.3300000000002 -15.997000000000002Q537.9140000000001 -18.700000000000003 541.1440000000001 -18.700000000000003Q544.9520000000001 -18.700000000000003 546.176 -15.062000000000001H546.3460000000001L548.0120000000001 -25.16H550.0520000000001L546.8900000000001 -6.12Q546.5500000000001 -3.8760000000000003 546.1080000000001 0.0ZM538.628 -1.4620000000000002Q541.1100000000001 -1.4620000000000002 542.9800000000001 -3.5870000000000006Q544.8500000000001 -5.712000000000001 545.4280000000001 -9.180000000000001Q546.0060000000001 -12.682 544.8670000000001 -14.79Q543.7280000000001 -16.898 541.2460000000001 -16.898Q538.7300000000001 -16.898 536.7070000000001 -14.722000000000001Q534.6840000000001 -12.546000000000001 534.1400000000001 -9.180000000000001Q533.5620000000001 -5.814 534.8370000000001 -3.638Q536.1120000000001 -1.4620000000000002 538.628 -1.4620000000000002Z M564.57 -4.0120000000000005H564.4340000000001Q562.1220000000001 -0.68 558.7220000000001 -0.68Q555.696 -0.68 554.0810000000001 -3.281Q552.4660000000001 -5.882000000000001 553.1120000000001 -9.690000000000001Q553.758 -13.532000000000002 556.1890000000001 -16.116000000000003Q558.6200000000001 -18.700000000000003 561.6460000000001 -18.700000000000003Q563.4140000000001 -18.700000000000003 564.6380000000001 -17.748000000000005Q565.8620000000001 -16.796000000000003 566.4060000000001 -15.028H566.576L567.1200000000001 -18.360000000000003H568.9900000000001L565.8280000000001 0.544Q565.3860000000001 3.366 563.0740000000001 5.253Q560.7620000000001 7.140000000000001 557.7360000000001 7.140000000000001Q554.9820000000001 7.140000000000001 553.2990000000001 5.559Q551.6160000000001 3.978 551.82 1.598H553.86Q553.792 3.2300000000000004 554.9480000000001 4.267Q556.104 5.304 558.008 5.304Q560.1840000000001 5.304 561.816 3.9610000000000003Q563.4480000000001 2.6180000000000003 563.7880000000001 0.544ZM565.59 -9.690000000000001Q566.1 -12.818000000000001 564.9780000000001 -14.858Q563.8560000000001 -16.898 561.6120000000001 -16.898Q559.368 -16.898 557.532 -14.841000000000001Q555.696 -12.784 555.186 -9.690000000000001Q554.676 -6.562 555.815 -4.522Q556.9540000000001 -2.482 559.1980000000001 -2.482Q561.4420000000001 -2.482 563.2610000000001 -4.539Q565.08 -6.596 565.59 -9.690000000000001Z M575.7900000000001 -9.01Q575.2800000000001 -5.644 576.589 -3.5700000000000003Q577.898 -1.496 580.5840000000001 -1.496Q582.216 -1.496 583.576 -2.278Q584.936 -3.06 585.6500000000001 -4.42H587.5880000000001Q586.7040000000001 -2.278 584.664 -0.969Q582.624 0.34 580.21 0.34Q576.7080000000001 0.34 574.9060000000001 -2.3800000000000003Q573.104 -5.1000000000000005 573.8180000000001 -9.350000000000001Q574.498 -13.430000000000001 577.065 -16.065Q579.6320000000001 -18.700000000000003 582.964 -18.700000000000003Q586.1940000000001 -18.700000000000003 587.826 -16.218000000000004Q589.4580000000001 -13.736 588.812 -9.826L588.676 -9.01ZM582.692 -16.864Q580.4820000000001 -16.864 578.6800000000001 -15.164000000000001Q576.878 -13.464 576.13 -10.642000000000001H586.976Q587.316 -13.430000000000001 586.126 -15.147000000000002Q584.936 -16.864 582.692 -16.864Z M611.558 0.0 614.618 -18.360000000000003H618.188L617.848 -16.252000000000002H617.984Q618.562 -17.408 619.548 -18.054000000000002Q620.534 -18.700000000000003 621.656 -18.700000000000003Q623.832 -18.700000000000003 624.41 -16.388H624.546Q626.076 -18.700000000000003 628.592 -18.700000000000003Q630.496 -18.700000000000003 631.3969999999999 -17.408Q632.298 -16.116 631.924 -13.940000000000001L629.612 0.0H625.702L627.912 -13.260000000000002Q628.082 -14.212000000000002 627.7760000000001 -14.756Q627.47 -15.3 626.824 -15.3Q626.076 -15.3 625.4639999999999 -14.586000000000002Q624.852 -13.872000000000002 624.648 -12.716000000000001L622.54 0.0H618.63L620.84 -13.260000000000002Q620.976 -14.212000000000002 620.704 -14.756Q620.432 -15.3 619.786 -15.3Q619.004 -15.3 618.392 -14.535Q617.78 -13.770000000000001 617.576 -12.58L615.468 0.0Z M632.3320000000001 4.862Q633.3180000000001 5.202 634.2700000000001 5.202Q635.8340000000001 5.202 636.9730000000001 4.284Q638.1120000000001 3.366 639.3020000000001 1.1900000000000002L639.9140000000001 0.10200000000000001L636.1400000000001 -18.360000000000003H638.282L641.3420000000001 -2.652H641.4780000000001L649.7400000000001 -18.360000000000003H651.8140000000001L641.0020000000001 1.836Q638.248 6.970000000000001 634.2700000000001 6.970000000000001Q633.2160000000001 6.970000000000001 632.0600000000001 6.596Z M678.98 0.0 676.6 -18.360000000000003H680.6800000000001L682.38 -4.25H682.5160000000001L688.908 -18.360000000000003H692.9200000000001L684.4200000000001 0.0Z M708.135 -2.346Q705.466 0.34 702.032 0.34Q698.5980000000001 0.34 696.847 -2.346Q695.096 -5.032 695.7760000000001 -9.18Q696.456 -13.328000000000001 699.125 -16.014000000000003Q701.794 -18.700000000000003 705.2280000000001 -18.700000000000003Q708.662 -18.700000000000003 710.413 -16.014000000000003Q712.164 -13.328000000000001 711.4839999999999 -9.18Q710.804 -5.032 708.135 -2.346ZM709.41 -9.180000000000001Q709.988 -12.58 708.73 -14.722000000000001Q707.472 -16.864 704.922 -16.864Q702.3720000000001 -16.864 700.383 -14.722000000000001Q698.394 -12.58 697.85 -9.180000000000001Q697.272 -5.78 698.53 -3.638Q699.788 -1.496 702.338 -1.496Q704.888 -1.496 706.877 -3.638Q708.866 -5.78 709.41 -9.180000000000001Z M715.802 0.0 716.04 -18.360000000000003H717.978L717.672 -2.414H717.808L724.268 -16.32H726.172L728.042 -2.346H728.178L733.176 -18.360000000000003H735.08L729.198 0.0H726.648L724.846 -13.668000000000001H724.71L718.352 0.0Z M741.0300000000001 -1.9720000000000002Q741.166 -2.89 741.931 -3.5360000000000005Q742.6960000000001 -4.182 743.614 -4.182Q744.532 -4.182 745.076 -3.5360000000000005Q745.6200000000001 -2.89 745.45 -1.9720000000000002Q745.3140000000001 -1.054 744.5490000000001 -0.40800000000000003Q743.7840000000001 0.23800000000000002 742.8660000000001 0.23800000000000002Q741.9480000000001 0.23800000000000002 741.4040000000001 -0.40800000000000003Q740.8600000000001 -1.054 741.0300000000001 -1.9720000000000002Z"/>
  </g>
</svg>
