<svg xmlns="http://www.w3.org/2000/svg" width="792" height="98" viewBox="0 0 792 98" role="img" aria-labelledby="title desc">
  <title id="title">CommitMono 200 Regular Sonic preview</title>
  <desc id="desc">Sphinx of black quartz, judge my vow.</desc>
  <rect width="100%" height="100%" rx="10" fill="#0d1117"/>
  <text x="24" y="34" fill="#8b949e" font-family="ui-monospace, SFMono-Regular, Menlo, Consolas, monospace" font-size="16">CommitMono 200 Regular Sonic</text>
  <g transform="translate(21.59 72.66)" fill="#f0f6fc">
    <path d="M2.414 -5.78C2.5500000000000003 -2.176 5.848000000000001 0.47600000000000003 10.234 0.47600000000000003C14.790000000000001 0.47600000000000003 17.986 -2.346 17.986 -6.3580000000000005C17.986 -9.792000000000002 15.64 -12.036000000000001 11.118 -13.022L9.724 -13.328000000000001C6.766000000000001 -13.974 5.2700000000000005 -15.436000000000002 5.2700000000000005 -17.782C5.2700000000000005 -20.468 7.242000000000001 -22.270000000000003 10.234 -22.270000000000003C13.056000000000001 -22.270000000000003 15.3 -20.638 15.64 -18.360000000000003H17.646C17.408 -21.658 14.246 -24.14 10.234 -24.14C6.086 -24.14 3.196 -21.488000000000003 3.196 -17.68C3.196 -14.382000000000001 5.338 -12.206000000000001 9.418000000000001 -11.322000000000001L10.812000000000001 -11.016C14.178 -10.268 15.912 -8.738000000000001 15.912 -6.29C15.912 -3.434 13.566 -1.4280000000000002 10.200000000000001 -1.4280000000000002C7.038 -1.4280000000000002 4.658 -3.2300000000000004 4.42 -5.78Z M23.630000000000003 -18.360000000000003V6.800000000000001H25.67V-3.298H25.840000000000003C26.996000000000002 -0.9860000000000001 28.968000000000004 0.34 31.484 0.34C35.80200000000001 0.34 38.964 -3.672 38.964 -9.180000000000001C38.964 -14.688 35.836000000000006 -18.700000000000003 31.518 -18.700000000000003C28.900000000000002 -18.700000000000003 26.826 -17.204 25.636000000000003 -14.654000000000002H25.500000000000004V-18.360000000000003ZM31.314000000000004 -16.898C34.612 -16.898 36.89 -13.770000000000001 36.89 -9.180000000000001C36.89 -4.590000000000001 34.612 -1.4620000000000002 31.314000000000004 -1.4620000000000002C27.948000000000004 -1.4620000000000002 25.602000000000004 -4.658 25.602000000000004 -9.180000000000001C25.602000000000004 -13.702000000000002 27.948000000000004 -16.898 31.314000000000004 -16.898Z M44.71000000000001 0.0H46.75000000000001V-10.540000000000001C46.75000000000001 -14.246 48.858000000000004 -16.932000000000002 51.748000000000005 -16.932000000000002C54.162000000000006 -16.932000000000002 55.760000000000005 -15.062000000000001 55.760000000000005 -12.24V0.0H57.800000000000004V-12.41C57.800000000000004 -16.150000000000002 55.48800000000001 -18.700000000000003 52.12200000000001 -18.700000000000003C49.81 -18.700000000000003 47.940000000000005 -17.476000000000003 46.886 -15.47H46.75000000000001V-25.16H44.71000000000001Z M65.00800000000001 0.0H78.608V-1.7680000000000002H72.828V-18.360000000000003H65.178V-16.592000000000002H70.78800000000001V-1.7680000000000002H65.00800000000001ZM69.292 -24.548000000000002C69.292 -23.392000000000003 70.244 -22.44 71.4 -22.44C72.59 -22.44 73.50800000000001 -23.392000000000003 73.50800000000001 -24.548000000000002C73.50800000000001 -25.738000000000003 72.59 -26.656000000000002 71.4 -26.656000000000002C70.244 -26.656000000000002 69.292 -25.738000000000003 69.292 -24.548000000000002Z M85.51 0.0H87.55000000000001V-10.540000000000001C87.55000000000001 -14.280000000000001 89.62400000000001 -16.932000000000002 92.548 -16.932000000000002C94.99600000000001 -16.932000000000002 96.56 -15.096000000000002 96.56 -12.24V0.0H98.60000000000001V-12.41C98.60000000000001 -16.184 96.322 -18.700000000000003 92.888 -18.700000000000003C90.44000000000001 -18.700000000000003 88.53600000000002 -17.442 87.48200000000001 -15.3H87.38000000000001V-18.360000000000003H85.51Z M104.48200000000001 0.0H106.82800000000002L112.16600000000001 -8.092L117.50400000000002 0.0H119.91800000000002L113.52600000000001 -9.554L119.30600000000001 -18.360000000000003H116.99400000000001L112.20000000000002 -10.948L107.44000000000001 -18.360000000000003H105.02600000000001L110.84000000000002 -9.486Z M153.0 0.34C157.556 0.34 160.854 -3.6380000000000003 160.854 -9.180000000000001C160.854 -14.722000000000001 157.556 -18.700000000000003 153.0 -18.700000000000003C148.44400000000002 -18.700000000000003 145.14600000000002 -14.722000000000001 145.14600000000002 -9.180000000000001C145.14600000000002 -3.6380000000000003 148.44400000000002 0.34 153.0 0.34ZM153.0 -1.496C149.60000000000002 -1.496 147.22 -4.658 147.22 -9.180000000000001C147.22 -13.702000000000002 149.60000000000002 -16.864 153.0 -16.864C156.4 -16.864 158.78 -13.702000000000002 158.78 -9.180000000000001C158.78 -4.658 156.4 -1.496 153.0 -1.496Z M171.53000000000003 0.0H173.57000000000002V-16.592000000000002H180.20000000000002V-18.360000000000003H173.57000000000002V-19.278000000000002C173.57000000000002 -22.338 174.82800000000003 -23.8 177.37800000000001 -23.8C178.466 -23.8 179.52 -23.528000000000002 180.54000000000002 -22.984V-24.684C179.622 -25.228 178.466 -25.500000000000004 177.14000000000001 -25.500000000000004C173.46800000000002 -25.500000000000004 171.53000000000003 -23.358 171.53000000000003 -19.278000000000002V-18.360000000000003H166.09V-16.592000000000002H171.53000000000003Z M207.23000000000002 0.0H209.10000000000002V-3.7060000000000004H209.23600000000002C210.42600000000002 -1.1560000000000001 212.50000000000003 0.34 215.11800000000002 0.34C219.43600000000004 0.34 222.56400000000002 -3.672 222.56400000000002 -9.180000000000001C222.56400000000002 -14.688 219.40200000000004 -18.700000000000003 215.08400000000003 -18.700000000000003C212.56800000000004 -18.700000000000003 210.59600000000003 -17.34 209.40600000000003 -15.028H209.27000000000004V-25.16H207.23000000000002ZM214.91400000000004 -1.4620000000000002C211.54800000000003 -1.4620000000000002 209.20200000000003 -4.658 209.20200000000003 -9.180000000000001C209.20200000000003 -13.702000000000002 211.54800000000003 -16.898 214.91400000000004 -16.898C218.21200000000002 -16.898 220.49000000000004 -13.770000000000001 220.49000000000004 -9.180000000000001C220.49000000000004 -4.590000000000001 218.21200000000002 -1.4620000000000002 214.91400000000004 -1.4620000000000002Z M228.208 0.0H241.808V-1.7680000000000002H236.02800000000002V-25.16H228.37800000000001V-23.392000000000003H233.988V-1.7680000000000002H228.208Z M259.386 -13.294C259.386 -11.9 258.74 -11.186 257.38 -11.05L255.306 -10.846C250.274 -10.336 247.792 -8.534 247.792 -5.202C247.792 -1.9380000000000002 250.17200000000003 0.34 253.572 0.34C256.224 0.34 258.332 -1.02 259.42 -3.2640000000000002H259.55600000000004C259.658 -1.87 259.896 -0.8160000000000001 260.202 0.0H262.106C261.63 -1.3940000000000001 261.426 -3.4680000000000004 261.426 -6.562V-13.260000000000002C261.426 -16.524 258.87600000000003 -18.700000000000003 255.102 -18.700000000000003C251.49800000000002 -18.700000000000003 248.744 -16.694000000000003 248.54000000000002 -13.940000000000001H250.54600000000002C250.78400000000002 -15.708000000000002 252.65400000000002 -16.932000000000002 255.13600000000002 -16.932000000000002C257.754 -16.932000000000002 259.386 -15.538 259.386 -13.294ZM259.386 -10.268V-7.276000000000001C259.386 -3.9440000000000004 256.938 -1.3940000000000001 253.84400000000002 -1.3940000000000001C251.464 -1.3940000000000001 249.866 -2.9240000000000004 249.866 -5.236000000000001C249.866 -7.65 251.63400000000001 -8.874 255.578 -9.350000000000001L257.55 -9.588000000000001C258.332 -9.690000000000001 258.944 -9.894 259.386 -10.268Z M280.94200000000006 -4.42C280.36400000000003 -2.584 278.528 -1.4280000000000002 276.28400000000005 -1.4280000000000002C272.612 -1.4280000000000002 270.16400000000004 -4.590000000000001 270.16400000000004 -9.180000000000001C270.16400000000004 -13.736 272.57800000000003 -16.932000000000002 276.21600000000007 -16.932000000000002C278.39200000000005 -16.932000000000002 280.16 -15.776000000000002 280.70400000000006 -13.940000000000001H282.64200000000005C282.13200000000006 -16.762 279.48 -18.700000000000003 276.21600000000007 -18.700000000000003C271.52400000000006 -18.700000000000003 268.124 -14.688 268.124 -9.180000000000001C268.124 -3.7060000000000004 271.55800000000005 0.34 276.28400000000005 0.34C279.58200000000005 0.34 282.33600000000007 -1.598 282.88000000000005 -4.42Z M289.17 0.0H291.21000000000004V-5.542000000000001L294.916 -9.384L301.61400000000003 0.0H304.13L296.31 -10.88L303.48400000000004 -18.360000000000003H300.764L291.21000000000004 -8.228V-25.16H289.17Z M341.70000000000005 -18.360000000000003V-14.654000000000002H341.564C340.374 -17.204 338.3 -18.700000000000003 335.682 -18.700000000000003C331.36400000000003 -18.700000000000003 328.23600000000005 -14.688 328.23600000000005 -9.180000000000001C328.23600000000005 -3.672 331.398 0.34 335.716 0.34C338.232 0.34 340.204 -0.9860000000000001 341.36 -3.298H341.53000000000003V6.800000000000001H343.57000000000005V-18.360000000000003ZM335.886 -16.898C339.252 -16.898 341.598 -13.702000000000002 341.598 -9.180000000000001C341.598 -4.658 339.252 -1.4620000000000002 335.886 -1.4620000000000002C332.588 -1.4620000000000002 330.31000000000006 -4.590000000000001 330.31000000000006 -9.180000000000001C330.31000000000006 -13.770000000000001 332.588 -16.898 335.886 -16.898Z M363.29 -6.12V-18.360000000000003H361.25V-7.82C361.25 -4.08 359.176 -1.4280000000000002 356.252 -1.4280000000000002C353.80400000000003 -1.4280000000000002 352.24 -3.2640000000000002 352.24 -6.12V-18.360000000000003H350.2V-5.95C350.2 -2.176 352.478 0.34 355.91200000000003 0.34C358.29200000000003 0.34 360.16200000000003 -0.8500000000000001 361.216 -2.89H361.35200000000003C361.386 -1.9380000000000002 361.488 -0.9860000000000001 361.59000000000003 0.0H363.528C363.392 -2.1420000000000003 363.29 -4.386 363.29 -6.12Z M381.78600000000006 -13.294C381.78600000000006 -11.9 381.14000000000004 -11.186 379.78000000000003 -11.05L377.706 -10.846C372.67400000000004 -10.336 370.19200000000006 -8.534 370.19200000000006 -5.202C370.19200000000006 -1.9380000000000002 372.57200000000006 0.34 375.97200000000004 0.34C378.624 0.34 380.732 -1.02 381.82000000000005 -3.2640000000000002H381.956C382.05800000000005 -1.87 382.29600000000005 -0.8160000000000001 382.60200000000003 0.0H384.50600000000003C384.03000000000003 -1.3940000000000001 383.826 -3.4680000000000004 383.826 -6.562V-13.260000000000002C383.826 -16.524 381.27600000000007 -18.700000000000003 377.50200000000007 -18.700000000000003C373.898 -18.700000000000003 371.14400000000006 -16.694000000000003 370.94000000000005 -13.940000000000001H372.946C373.184 -15.708000000000002 375.05400000000003 -16.932000000000002 377.53600000000006 -16.932000000000002C380.15400000000005 -16.932000000000002 381.78600000000006 -15.538 381.78600000000006 -13.294ZM381.78600000000006 -10.268V-7.276000000000001C381.78600000000006 -3.9440000000000004 379.338 -1.3940000000000001 376.244 -1.3940000000000001C373.86400000000003 -1.3940000000000001 372.266 -2.9240000000000004 372.266 -5.236000000000001C372.266 -7.65 374.03400000000005 -8.874 377.97800000000007 -9.350000000000001L379.95000000000005 -9.588000000000001C380.732 -9.690000000000001 381.34400000000005 -9.894 381.78600000000006 -10.268Z M394.57000000000005 0.0V-10.540000000000001C394.57000000000005 -14.212000000000002 396.576 -16.796000000000003 399.466 -16.796000000000003C401.336 -16.796000000000003 402.696 -15.708000000000002 403.07000000000005 -13.940000000000001H405.11C404.77000000000004 -16.762 402.73 -18.598000000000003 399.874 -18.598000000000003C397.42600000000004 -18.598000000000003 395.52200000000005 -17.272000000000002 394.536 -15.096000000000002H394.40000000000003V-18.360000000000003H392.53000000000003V0.0Z M418.0300000000001 -5.882000000000001V-16.592000000000002H424.6600000000001V-18.360000000000003H418.0300000000001V-24.14L415.99000000000007 -23.8V-18.360000000000003H410.55000000000007V-16.592000000000002H415.99000000000007V-5.882000000000001C415.99000000000007 -1.802 417.92800000000005 0.34 421.6000000000001 0.34C422.92600000000004 0.34 424.08200000000005 0.068 425.00000000000006 -0.47600000000000003V-2.176C423.9800000000001 -1.6320000000000001 422.92600000000004 -1.36 421.8380000000001 -1.36C419.28800000000007 -1.36 418.0300000000001 -2.822 418.0300000000001 -5.882000000000001Z M431.46000000000004 0.0H445.74V-1.7680000000000002H433.908L445.16200000000003 -16.694000000000003V-18.360000000000003H431.8V-16.592000000000002H442.71400000000006L431.46000000000004 -1.6660000000000001Z M454.104 5.304H456.144L461.244 -3.672H458.014Z M502.86 0.918V-18.360000000000003H494.02000000000004V-16.592000000000002H500.82000000000005V0.918C500.82000000000005 3.978 499.562 5.44 497.012 5.44C495.92400000000004 5.44 494.87 5.168 493.85 4.6240000000000006V6.324000000000001C494.76800000000003 6.868 495.92400000000004 7.140000000000001 497.25 7.140000000000001C500.922 7.140000000000001 502.86 4.998 502.86 0.918ZM499.39200000000005 -24.548000000000002C499.39200000000005 -23.392000000000003 500.34400000000005 -22.44 501.5 -22.44C502.69 -22.44 503.608 -23.392000000000003 503.608 -24.548000000000002C503.608 -25.738000000000003 502.69 -26.656000000000002 501.5 -26.656000000000002C500.34400000000005 -26.656000000000002 499.39200000000005 -25.738000000000003 499.39200000000005 -24.548000000000002Z M526.49 -6.12V-18.360000000000003H524.45V-7.82C524.45 -4.08 522.3760000000001 -1.4280000000000002 519.4520000000001 -1.4280000000000002C517.004 -1.4280000000000002 515.44 -3.2640000000000002 515.44 -6.12V-18.360000000000003H513.4000000000001V-5.95C513.4000000000001 -2.176 515.6780000000001 0.34 519.1120000000001 0.34C521.4920000000001 0.34 523.3620000000001 -0.8500000000000001 524.416 -2.89H524.552C524.586 -1.9380000000000002 524.6880000000001 -0.9860000000000001 524.7900000000001 0.0H526.7280000000001C526.5920000000001 -2.1420000000000003 526.49 -4.386 526.49 -6.12Z M545.8700000000001 0.0H547.8080000000001C547.6720000000001 -2.1420000000000003 547.57 -4.386 547.57 -6.12V-25.16H545.5300000000001V-15.062000000000001H545.3600000000001C544.2040000000001 -17.374000000000002 542.2320000000001 -18.700000000000003 539.7160000000001 -18.700000000000003C535.3980000000001 -18.700000000000003 532.2360000000001 -14.688 532.2360000000001 -9.180000000000001C532.2360000000001 -3.672 535.3980000000001 0.34 539.7160000000001 0.34C542.2660000000001 0.34 544.272 -1.054 545.4620000000001 -3.4680000000000004H545.5980000000001C545.666 -2.3120000000000003 545.734 -1.1900000000000002 545.8700000000001 0.0ZM540.0900000000001 -1.4620000000000002C536.724 -1.4620000000000002 534.3100000000001 -4.692 534.3100000000001 -9.180000000000001C534.3100000000001 -13.668000000000001 536.758 -16.898 540.1240000000001 -16.898C543.4220000000001 -16.898 545.5980000000001 -13.838000000000001 545.5980000000001 -9.180000000000001C545.5980000000001 -4.556 543.3880000000001 -1.4620000000000002 540.0900000000001 -1.4620000000000002Z M565.59 -4.0120000000000005V0.544C565.59 3.298 563.4820000000001 5.304 560.5920000000001 5.304C558.076 5.304 556.104 3.7740000000000005 555.8320000000001 1.598H553.792C554.0300000000001 4.760000000000001 556.9540000000001 7.140000000000001 560.6260000000001 7.140000000000001C564.638 7.140000000000001 567.6300000000001 4.3180000000000005 567.6300000000001 0.544V-18.360000000000003H565.7600000000001V-15.028H565.624C564.5020000000001 -17.34 562.5980000000001 -18.700000000000003 560.2180000000001 -18.700000000000003C556.206 -18.700000000000003 553.214 -14.824000000000002 553.214 -9.690000000000001C553.214 -4.590000000000001 556.3080000000001 -0.68 560.32 -0.68C562.5640000000001 -0.68 564.3660000000001 -1.9040000000000001 565.488 -4.0120000000000005ZM560.4900000000001 -2.482C557.498 -2.482 555.2880000000001 -5.542000000000001 555.2880000000001 -9.690000000000001C555.2880000000001 -13.838000000000001 557.498 -16.898 560.4900000000001 -16.898C563.4820000000001 -16.898 565.6920000000001 -13.838000000000001 565.6920000000001 -9.690000000000001C565.6920000000001 -5.542000000000001 563.4820000000001 -2.482 560.4900000000001 -2.482Z M575.994 -9.01H588.88V-9.826C588.88 -15.062000000000001 585.854 -18.700000000000003 581.57 -18.700000000000003C577.1160000000001 -18.700000000000003 573.9540000000001 -14.790000000000001 573.9540000000001 -9.316C573.9540000000001 -3.672 577.2860000000001 0.34 581.9440000000001 0.34C585.1740000000001 0.34 587.826 -1.564 588.5400000000001 -4.42H586.6020000000001C585.956 -2.6180000000000003 584.2220000000001 -1.496 582.046 -1.496C578.476 -1.496 576.096 -4.522 575.994 -9.01ZM581.604 -16.864C584.562 -16.864 586.772 -14.382000000000001 586.908 -10.642000000000001H576.062C576.47 -14.416 578.6460000000001 -16.864 581.604 -16.864Z M613.598 0.0H615.638V-12.818000000000001C615.638 -15.266000000000002 616.93 -17.0 618.732 -17.0C620.296 -17.0 621.248 -15.708000000000002 621.248 -13.498000000000001V0.0H623.288V-12.818000000000001C623.288 -15.266000000000002 624.58 -17.0 626.382 -17.0C627.946 -17.0 628.898 -15.674000000000001 628.898 -13.498000000000001V0.0H630.938V-13.668000000000001C630.938 -16.762 629.272 -18.700000000000003 626.62 -18.700000000000003C624.682 -18.700000000000003 623.322 -17.68 622.71 -15.742H622.574C622.2 -17.544 620.84 -18.700000000000003 619.004 -18.700000000000003C617.44 -18.700000000000003 616.114 -17.85 615.638 -16.456H615.502V-18.360000000000003H613.598Z M634.8480000000001 4.862V6.596C635.7320000000001 6.868 636.4460000000001 6.970000000000001 637.1260000000001 6.970000000000001C639.8800000000001 6.970000000000001 641.7160000000001 5.338 643.008 1.836L650.4540000000001 -18.360000000000003H648.3800000000001L642.7360000000001 -2.652H642.6000000000001L636.9220000000001 -18.360000000000003H634.7800000000001L641.6140000000001 0.068L641.2060000000001 1.1900000000000002C640.118 4.08 638.9280000000001 5.202 636.854 5.202C636.2080000000001 5.202 635.5620000000001 5.1000000000000005 634.8480000000001 4.862Z M682.21 0.0H684.7940000000001L690.846 -18.360000000000003H688.806L683.604 -2.176H683.4680000000001L678.062 -18.360000000000003H675.9540000000001Z M703.8000000000001 0.34C708.356 0.34 711.654 -3.6380000000000003 711.654 -9.180000000000001C711.654 -14.722000000000001 708.356 -18.700000000000003 703.8000000000001 -18.700000000000003C699.244 -18.700000000000003 695.946 -14.722000000000001 695.946 -9.180000000000001C695.946 -3.6380000000000003 699.244 0.34 703.8000000000001 0.34ZM703.8000000000001 -1.496C700.4 -1.496 698.02 -4.658 698.02 -9.180000000000001C698.02 -13.702000000000002 700.4 -16.864 703.8000000000001 -16.864C707.2 -16.864 709.58 -13.702000000000002 709.58 -9.180000000000001C709.58 -4.658 707.2 -1.496 703.8000000000001 -1.496Z M717.502 0.0H720.052L724.132 -13.668000000000001H724.268L728.348 0.0H730.898L733.72 -18.360000000000003H731.816L729.47 -2.346H729.334L725.152 -16.32H723.248L719.1 -2.414H718.964L716.618 -18.360000000000003H714.68Z M742.3900000000001 -1.9720000000000002C742.3900000000001 -0.748 743.3760000000001 0.23800000000000002 744.6000000000001 0.23800000000000002C745.8240000000001 0.23800000000000002 746.8100000000001 -0.748 746.8100000000001 -1.9720000000000002C746.8100000000001 -3.196 745.8240000000001 -4.182 744.6000000000001 -4.182C743.3760000000001 -4.182 742.3900000000001 -3.196 742.3900000000001 -1.9720000000000002Z"/>
  </g>
</svg>
