<svg xmlns="http://www.w3.org/2000/svg" width="793" height="74" viewBox="0 0 793 74" role="img" aria-labelledby="title desc" style="background: transparent;">
  <title id="title">CommitMono 200 Regular Sonic preview</title>
  <desc id="desc">Sphinx of black quartz, judge my vow.</desc>
  <style>
    svg { background: transparent; }
    .preview-text { fill: #24292f; }
    @media (prefers-color-scheme: dark) {
      .preview-text { fill: #f0f6fc; }
    }
  </style>
  <g class="preview-text" transform="translate(22.10 46.93)">
    <path d="M1.9040000000000001 -6.460000000000001H5.848000000000001Q6.018000000000001 -5.066000000000001 7.259 -4.165000000000001Q8.5 -3.2640000000000002 10.268 -3.2640000000000002Q12.07 -3.2640000000000002 13.192 -4.216Q14.314000000000002 -5.168 14.314000000000002 -6.698Q14.314000000000002 -9.316 10.642000000000001 -9.962000000000002L9.282 -10.200000000000001Q2.346 -11.424000000000001 2.346 -16.932000000000002Q2.346 -20.162000000000003 4.488 -22.151000000000003Q6.630000000000001 -24.14 10.132000000000001 -24.14Q13.532000000000002 -24.14 15.827000000000002 -22.304000000000002Q18.122 -20.468 18.258000000000003 -17.68H14.314000000000002Q14.178 -18.87 13.039000000000001 -19.635Q11.9 -20.400000000000002 10.302000000000001 -20.400000000000002Q8.602 -20.400000000000002 7.548 -19.516000000000002Q6.494000000000001 -18.632 6.494000000000001 -17.204Q6.494000000000001 -14.790000000000001 9.826 -14.178L11.186 -13.940000000000001Q18.462 -12.682 18.462 -6.936000000000001Q18.462 -3.604 16.252000000000002 -1.564Q14.042000000000002 0.47600000000000003 10.404 0.47600000000000003Q6.800000000000001 0.47600000000000003 4.4030000000000005 -1.479Q2.0060000000000002 -3.434 1.9040000000000001 -6.460000000000001Z M22.950000000000003 -18.360000000000003H26.860000000000003V-15.368H27.03Q28.594 -18.700000000000003 32.096000000000004 -18.700000000000003Q35.32600000000001 -18.700000000000003 37.400000000000006 -16.014000000000003Q39.474000000000004 -13.328000000000001 39.474000000000004 -9.18Q39.474000000000004 -5.032 37.400000000000006 -2.346Q35.32600000000001 0.34 32.096000000000004 0.34Q28.798000000000002 0.34 27.200000000000003 -2.652H27.03V6.800000000000001H22.950000000000003ZM34.221000000000004 -13.345Q33.048 -14.96 31.178000000000004 -14.96Q29.308000000000003 -14.96 28.135000000000005 -13.345Q26.962000000000003 -11.73 26.962000000000003 -9.18Q26.962000000000003 -6.630000000000001 28.135000000000005 -5.015000000000001Q29.308000000000003 -3.4000000000000004 31.178000000000004 -3.4000000000000004Q33.048 -3.4000000000000004 34.221000000000004 -5.015000000000001Q35.394000000000005 -6.630000000000001 35.394000000000005 -9.18Q35.394000000000005 -11.73 34.221000000000004 -13.345Z M44.71000000000001 0.0V-25.16H46.75000000000001V-15.47H46.886Q48.586000000000006 -18.700000000000003 52.12200000000001 -18.700000000000003Q54.638000000000005 -18.700000000000003 56.21900000000001 -16.949Q57.800000000000004 -15.198 57.800000000000004 -12.41V0.0H55.760000000000005V-12.24Q55.760000000000005 -14.348 54.655 -15.64Q53.550000000000004 -16.932000000000002 51.748000000000005 -16.932000000000002Q49.572 -16.932000000000002 48.161 -15.130000000000003Q46.75000000000001 -13.328000000000001 46.75000000000001 -10.540000000000001V0.0Z M65.00800000000001 0.0V-1.7680000000000002H70.78800000000001V-16.592000000000002H65.178V-18.360000000000003H72.828V-1.7680000000000002H78.608V0.0ZM69.904 -23.052Q69.292 -23.664 69.292 -24.548000000000002Q69.292 -25.432000000000002 69.904 -26.044000000000004Q70.516 -26.656000000000002 71.4 -26.656000000000002Q72.284 -26.656000000000002 72.89600000000002 -26.044000000000004Q73.50800000000001 -25.432000000000002 73.50800000000001 -24.548000000000002Q73.50800000000001 -23.664 72.89600000000002 -23.052Q72.284 -22.44 71.4 -22.44Q70.516 -22.44 69.904 -23.052Z M85.51 0.0V-18.360000000000003H87.38000000000001V-15.3H87.48200000000001Q89.14800000000001 -18.700000000000003 92.888 -18.700000000000003Q95.47200000000001 -18.700000000000003 97.036 -16.966Q98.60000000000001 -15.232000000000001 98.60000000000001 -12.41V0.0H96.56V-12.24Q96.56 -14.382000000000001 95.47200000000001 -15.657000000000002Q94.38400000000001 -16.932000000000002 92.548 -16.932000000000002Q90.33800000000001 -16.932000000000002 88.94400000000002 -15.130000000000003Q87.55000000000001 -13.328000000000001 87.55000000000001 -10.540000000000001V0.0Z M104.48200000000001 0.0 110.84000000000002 -9.486 105.02600000000001 -18.360000000000003H107.44000000000001L112.20000000000002 -10.948L116.99400000000001 -18.360000000000003H119.30600000000001L113.52600000000001 -9.554L119.91800000000002 0.0H117.50400000000002L112.16600000000001 -8.092L106.82800000000002 0.0Z M158.916 -2.3630000000000004Q156.57000000000002 0.34 153.0 0.34Q149.43 0.34 147.084 -2.3630000000000004Q144.738 -5.066000000000001 144.738 -9.18Q144.738 -13.294 147.084 -15.997000000000002Q149.43 -18.700000000000003 153.0 -18.700000000000003Q156.57000000000002 -18.700000000000003 158.916 -15.997000000000002Q161.262 -13.294 161.262 -9.18Q161.262 -5.066000000000001 158.916 -2.3630000000000004ZM149.97400000000002 -4.998Q151.13000000000002 -3.4000000000000004 153.0 -3.4000000000000004Q154.87 -3.4000000000000004 156.026 -4.998Q157.18200000000002 -6.596 157.18200000000002 -9.18Q157.18200000000002 -11.764000000000001 156.026 -13.362000000000002Q154.87 -14.96 153.0 -14.96Q151.13000000000002 -14.96 149.97400000000002 -13.362000000000002Q148.818 -11.764000000000001 148.818 -9.18Q148.818 -6.596 149.97400000000002 -4.998Z M171.53000000000003 0.0V-16.592000000000002H166.09V-18.360000000000003H171.53000000000003V-19.278000000000002Q171.53000000000003 -22.338 172.95800000000003 -23.919000000000004Q174.38600000000002 -25.500000000000004 177.14000000000001 -25.500000000000004Q179.18 -25.500000000000004 180.54000000000002 -24.684V-22.984Q179.01000000000002 -23.8 177.37800000000001 -23.8Q173.57000000000002 -23.8 173.57000000000002 -19.278000000000002V-18.360000000000003H180.20000000000002V-16.592000000000002H173.57000000000002V0.0Z M206.55000000000004 0.0V-25.16H210.63000000000002V-15.64H210.76600000000002Q212.36400000000003 -18.700000000000003 215.69600000000003 -18.700000000000003Q218.92600000000004 -18.700000000000003 221.00000000000006 -16.014000000000003Q223.07400000000004 -13.328000000000001 223.07400000000004 -9.18Q223.07400000000004 -5.032 221.00000000000006 -2.346Q218.92600000000004 0.34 215.69600000000003 0.34Q212.16000000000003 0.34 210.59600000000003 -3.06H210.46000000000004V0.0ZM211.735 -5.015000000000001Q212.90800000000002 -3.4000000000000004 214.77800000000002 -3.4000000000000004Q216.64800000000002 -3.4000000000000004 217.82100000000003 -5.015000000000001Q218.99400000000003 -6.630000000000001 218.99400000000003 -9.18Q218.99400000000003 -11.73 217.82100000000003 -13.345Q216.64800000000002 -14.96 214.77800000000002 -14.96Q212.90800000000002 -14.96 211.735 -13.345Q210.56200000000004 -11.73 210.56200000000004 -9.18Q210.56200000000004 -6.630000000000001 211.735 -5.015000000000001Z M227.868 0.0V-3.74H232.96800000000002V-21.42H228.038V-25.16H237.048V-3.74H242.148V0.0Z M259.386 -13.294Q259.386 -14.96 258.247 -15.946000000000002Q257.108 -16.932000000000002 255.13600000000002 -16.932000000000002Q253.26600000000002 -16.932000000000002 251.991 -16.099000000000004Q250.716 -15.266000000000002 250.54600000000002 -13.940000000000001H248.54000000000002Q248.71 -16.014000000000003 250.56300000000002 -17.357000000000003Q252.41600000000003 -18.700000000000003 255.102 -18.700000000000003Q257.92400000000004 -18.700000000000003 259.675 -17.204Q261.426 -15.708000000000002 261.426 -13.260000000000002V-6.562Q261.426 -2.0060000000000002 262.106 0.0H260.202Q259.692 -1.36 259.55600000000004 -3.2640000000000002H259.42Q258.604 -1.564 257.074 -0.612Q255.544 0.34 253.572 0.34Q251.02200000000002 0.34 249.407 -1.207Q247.792 -2.754 247.792 -5.202Q247.792 -10.098 255.306 -10.846L257.38 -11.05Q259.386 -11.254000000000001 259.386 -13.294ZM259.386 -10.268Q258.774 -9.758000000000001 257.55 -9.588000000000001L255.578 -9.350000000000001Q252.62 -8.976 251.243 -8.007000000000001Q249.866 -7.038 249.866 -5.236000000000001Q249.866 -3.5020000000000002 250.954 -2.4480000000000004Q252.042 -1.3940000000000001 253.84400000000002 -1.3940000000000001Q256.156 -1.3940000000000001 257.771 -3.0940000000000003Q259.386 -4.7940000000000005 259.386 -7.276000000000001Z M280.94200000000006 -4.42H282.88000000000005Q282.47200000000004 -2.3120000000000003 280.619 -0.9860000000000001Q278.766 0.34 276.28400000000005 0.34Q272.74800000000005 0.34 270.43600000000004 -2.3630000000000004Q268.124 -5.066000000000001 268.124 -9.180000000000001Q268.124 -13.328000000000001 270.41900000000004 -16.014000000000003Q272.71400000000006 -18.700000000000003 276.21600000000007 -18.700000000000003Q278.66400000000004 -18.700000000000003 280.466 -17.374000000000002Q282.26800000000003 -16.048000000000002 282.64200000000005 -13.940000000000001H280.70400000000006Q280.29600000000005 -15.3 279.07200000000006 -16.116Q277.84800000000007 -16.932000000000002 276.21600000000007 -16.932000000000002Q273.49600000000004 -16.932000000000002 271.83000000000004 -14.773000000000001Q270.16400000000004 -12.614 270.16400000000004 -9.180000000000001Q270.16400000000004 -5.712000000000001 271.84700000000004 -3.5700000000000003Q273.53000000000003 -1.4280000000000002 276.28400000000005 -1.4280000000000002Q277.98400000000004 -1.4280000000000002 279.2420000000001 -2.244Q280.50000000000006 -3.06 280.94200000000006 -4.42Z M289.17 0.0V-25.16H291.21000000000004V-8.228L300.764 -18.360000000000003H303.48400000000004L296.31 -10.88L304.13 0.0H301.61400000000003L294.916 -9.384L291.21000000000004 -5.542000000000001V0.0Z M340.34000000000003 -18.360000000000003H344.25000000000006V6.800000000000001H340.17V-2.652H340.00000000000006Q338.40200000000004 0.34 335.10400000000004 0.34Q331.874 0.34 329.80000000000007 -2.346Q327.72600000000006 -5.032 327.72600000000006 -9.18Q327.72600000000006 -13.328000000000001 329.80000000000007 -16.014000000000003Q331.874 -18.700000000000003 335.10400000000004 -18.700000000000003Q338.60600000000005 -18.700000000000003 340.17 -15.368H340.34000000000003ZM339.06500000000005 -13.345Q337.89200000000005 -14.96 336.02200000000005 -14.96Q334.15200000000004 -14.96 332.97900000000004 -13.345Q331.80600000000004 -11.73 331.80600000000004 -9.18Q331.80600000000004 -6.630000000000001 332.97900000000004 -5.015000000000001Q334.15200000000004 -3.4000000000000004 336.02200000000005 -3.4000000000000004Q337.89200000000005 -3.4000000000000004 339.06500000000005 -5.015000000000001Q340.23800000000006 -6.630000000000001 340.23800000000006 -9.18Q340.23800000000006 -11.73 339.06500000000005 -13.345Z M364.038 -6.12Q364.038 -3.74 364.276 0.0H360.366Q360.264 -0.8500000000000001 360.128 -2.414H359.992Q358.49600000000004 0.34 355.3 0.34Q352.784 0.34 351.271 -1.3770000000000002Q349.75800000000004 -3.0940000000000003 349.75800000000004 -5.95V-18.360000000000003H353.838V-6.29Q353.838 -4.7940000000000005 354.535 -3.9270000000000005Q355.232 -3.06 356.456 -3.06Q357.986 -3.06 358.972 -4.352Q359.958 -5.644 359.958 -7.65V-18.360000000000003H364.038Z M381.78600000000006 -13.294Q381.78600000000006 -14.96 380.64700000000005 -15.946000000000002Q379.50800000000004 -16.932000000000002 377.53600000000006 -16.932000000000002Q375.66600000000005 -16.932000000000002 374.3910000000001 -16.099000000000004Q373.11600000000004 -15.266000000000002 372.946 -13.940000000000001H370.94000000000005Q371.11000000000007 -16.014000000000003 372.9630000000001 -17.357000000000003Q374.81600000000003 -18.700000000000003 377.50200000000007 -18.700000000000003Q380.32400000000007 -18.700000000000003 382.07500000000005 -17.204Q383.826 -15.708000000000002 383.826 -13.260000000000002V-6.562Q383.826 -2.0060000000000002 384.50600000000003 0.0H382.60200000000003Q382.09200000000004 -1.36 381.956 -3.2640000000000002H381.82000000000005Q381.004 -1.564 379.47400000000005 -0.612Q377.9440000000001 0.34 375.97200000000004 0.34Q373.422 0.34 371.807 -1.207Q370.19200000000006 -2.754 370.19200000000006 -5.202Q370.19200000000006 -10.098 377.706 -10.846L379.78000000000003 -11.05Q381.78600000000006 -11.254000000000001 381.78600000000006 -13.294ZM381.78600000000006 -10.268Q381.17400000000004 -9.758000000000001 379.95000000000005 -9.588000000000001L377.97800000000007 -9.350000000000001Q375.02000000000004 -8.976 373.64300000000003 -8.007000000000001Q372.266 -7.038 372.266 -5.236000000000001Q372.266 -3.5020000000000002 373.35400000000004 -2.4480000000000004Q374.44200000000006 -1.3940000000000001 376.244 -1.3940000000000001Q378.55600000000004 -1.3940000000000001 380.17100000000005 -3.0940000000000003Q381.78600000000006 -4.7940000000000005 381.78600000000006 -7.276000000000001Z M394.57000000000005 0.0H392.53000000000003V-18.360000000000003H394.40000000000003V-15.096000000000002H394.536Q395.28400000000005 -16.762 396.678 -17.68Q398.072 -18.598000000000003 399.874 -18.598000000000003Q402.016 -18.598000000000003 403.427 -17.323Q404.838 -16.048000000000002 405.11 -13.940000000000001H403.07000000000005Q402.798 -15.266000000000002 401.829 -16.031000000000002Q400.86 -16.796000000000003 399.466 -16.796000000000003Q397.29 -16.796000000000003 395.93000000000006 -15.045000000000002Q394.57000000000005 -13.294 394.57000000000005 -10.540000000000001Z M418.0300000000001 -5.882000000000001Q418.0300000000001 -1.36 421.8380000000001 -1.36Q423.4700000000001 -1.36 425.00000000000006 -2.176V-0.47600000000000003Q423.64000000000004 0.34 421.6000000000001 0.34Q418.84600000000006 0.34 417.41800000000006 -1.241Q415.99000000000007 -2.822 415.99000000000007 -5.882000000000001V-16.592000000000002H410.55000000000007V-18.360000000000003H415.99000000000007V-23.8L418.0300000000001 -24.14V-18.360000000000003H424.6600000000001V-16.592000000000002H418.0300000000001Z M431.46000000000004 0.0V-1.6660000000000001L442.71400000000006 -16.592000000000002H431.8V-18.360000000000003H445.16200000000003V-16.694000000000003L433.908 -1.7680000000000002H445.74V0.0Z M454.104 5.304 458.014 -3.672H461.244L456.144 5.304Z M504.22 0.23800000000000002Q504.22 3.6380000000000003 502.53700000000003 5.389Q500.85400000000004 7.140000000000001 497.59000000000003 7.140000000000001Q495.38 7.140000000000001 493.85 6.426V3.0260000000000002Q495.278 3.672 496.80800000000005 3.672Q500.14000000000004 3.672 500.14000000000004 0.23800000000000002V-14.620000000000001H494.02000000000004V-18.360000000000003H504.22ZM498.74600000000004 -23.834000000000003Q498.74600000000004 -25.126 499.64700000000005 -26.027Q500.548 -26.928 501.84000000000003 -26.928Q503.132 -26.928 504.033 -26.027Q504.934 -25.126 504.934 -23.834000000000003Q504.934 -22.542 504.033 -21.641000000000002Q503.132 -20.740000000000002 501.84000000000003 -20.740000000000002Q500.548 -20.740000000000002 499.64700000000005 -21.658Q498.74600000000004 -22.576 498.74600000000004 -23.834000000000003Z M527.238 -6.12Q527.238 -3.74 527.4760000000001 0.0H523.566Q523.464 -0.8500000000000001 523.3280000000001 -2.414H523.192Q521.696 0.34 518.5 0.34Q515.984 0.34 514.471 -1.3770000000000002Q512.9580000000001 -3.0940000000000003 512.9580000000001 -5.95V-18.360000000000003H517.038V-6.29Q517.038 -4.7940000000000005 517.735 -3.9270000000000005Q518.432 -3.06 519.6560000000001 -3.06Q521.186 -3.06 522.172 -4.352Q523.158 -5.644 523.158 -7.65V-18.360000000000003H527.238Z M545.8700000000001 0.0Q545.734 -1.2240000000000002 545.5980000000001 -3.4680000000000004H545.4620000000001Q543.5920000000001 0.34 539.7160000000001 0.34Q536.4860000000001 0.34 534.3610000000001 -2.3630000000000004Q532.2360000000001 -5.066000000000001 532.2360000000001 -9.18Q532.2360000000001 -13.294 534.3610000000001 -15.997000000000002Q536.4860000000001 -18.700000000000003 539.7160000000001 -18.700000000000003Q543.5240000000001 -18.700000000000003 545.3600000000001 -15.062000000000001H545.5300000000001V-25.16H547.57V-6.12Q547.57 -3.74 547.8080000000001 0.0ZM540.0900000000001 -1.4620000000000002Q542.5720000000001 -1.4620000000000002 544.085 -3.5870000000000006Q545.5980000000001 -5.712000000000001 545.5980000000001 -9.180000000000001Q545.5980000000001 -12.682 544.1020000000001 -14.79Q542.6060000000001 -16.898 540.1240000000001 -16.898Q537.6080000000001 -16.898 535.9590000000001 -14.722000000000001Q534.3100000000001 -12.546000000000001 534.3100000000001 -9.18Q534.3100000000001 -5.814 535.942 -3.638Q537.5740000000001 -1.4620000000000002 540.0900000000001 -1.4620000000000002Z M565.59 -4.0120000000000005H565.488Q563.72 -0.68 560.32 -0.68Q557.2940000000001 -0.68 555.2540000000001 -3.281Q553.214 -5.882000000000001 553.214 -9.690000000000001Q553.214 -13.532000000000002 555.22 -16.116000000000003Q557.2260000000001 -18.700000000000003 560.2180000000001 -18.700000000000003Q563.8560000000001 -18.700000000000003 565.624 -15.028H565.7600000000001V-18.360000000000003H567.6300000000001V0.544Q567.6300000000001 3.366 565.624 5.253Q563.618 7.140000000000001 560.6260000000001 7.140000000000001Q557.8720000000001 7.140000000000001 555.9170000000001 5.559Q553.9620000000001 3.978 553.792 1.598H555.8320000000001Q556.0360000000001 3.2300000000000004 557.3620000000001 4.267Q558.6880000000001 5.304 560.5920000000001 5.304Q562.768 5.304 564.1790000000001 3.9610000000000003Q565.59 2.6180000000000003 565.59 0.544ZM556.767 -4.539Q558.2460000000001 -2.482 560.49 -2.482Q562.734 -2.482 564.2130000000001 -4.539Q565.6920000000001 -6.596 565.6920000000001 -9.690000000000001Q565.6920000000001 -12.784 564.2130000000001 -14.841000000000001Q562.734 -16.898 560.49 -16.898Q558.2460000000001 -16.898 556.767 -14.841000000000001Q555.2880000000001 -12.784 555.2880000000001 -9.690000000000001Q555.2880000000001 -6.596 556.767 -4.539Z M575.994 -9.01Q576.062 -5.644 577.7280000000001 -3.5700000000000003Q579.394 -1.496 582.046 -1.496Q583.678 -1.496 584.902 -2.278Q586.1260000000001 -3.06 586.6020000000001 -4.42H588.5400000000001Q587.9960000000001 -2.278 586.1770000000001 -0.969Q584.3580000000001 0.34 581.9440000000001 0.34Q578.442 0.34 576.1980000000001 -2.3800000000000003Q573.9540000000001 -5.1000000000000005 573.9540000000001 -9.316Q573.9540000000001 -13.430000000000001 576.096 -16.065Q578.238 -18.700000000000003 581.57 -18.700000000000003Q584.8000000000001 -18.700000000000003 586.84 -16.218000000000004Q588.88 -13.736 588.88 -9.826V-9.01ZM581.604 -16.864Q579.394 -16.864 577.8810000000001 -15.164000000000001Q576.368 -13.464 576.062 -10.642000000000001H586.908Q586.806 -13.430000000000001 585.327 -15.147000000000002Q583.8480000000001 -16.864 581.604 -16.864Z M613.122 0.0V-18.360000000000003H616.692V-16.252000000000002H616.828Q617.202 -17.408 618.1030000000001 -18.054000000000002Q619.004 -18.700000000000003 620.16 -18.700000000000003Q622.438 -18.700000000000003 623.39 -16.388H623.526Q624.648 -18.700000000000003 627.232 -18.700000000000003Q629.17 -18.700000000000003 630.309 -17.408Q631.448 -16.116 631.448 -13.940000000000001V0.0H627.538V-13.260000000000002Q627.538 -14.212000000000002 627.13 -14.756Q626.722 -15.3 626.042 -15.3Q625.26 -15.3 624.75 -14.586000000000002Q624.24 -13.872000000000002 624.24 -12.716000000000001V0.0H620.33V-13.260000000000002Q620.33 -14.212000000000002 619.9390000000001 -14.756Q619.548 -15.3 618.868 -15.3Q618.052 -15.3 617.542 -14.535Q617.032 -13.770000000000001 617.032 -12.58V0.0Z M634.8480000000001 4.862Q635.868 5.202 636.854 5.202Q638.4180000000001 5.202 639.4040000000001 4.284Q640.3900000000001 3.366 641.2060000000001 1.1900000000000002L641.6140000000001 0.068L634.7800000000001 -18.360000000000003H636.9220000000001L642.6000000000001 -2.652H642.7360000000001L648.3800000000001 -18.360000000000003H650.4540000000001L643.008 1.836Q642.022 4.454000000000001 640.6110000000001 5.712000000000001Q639.2 6.970000000000001 637.1260000000001 6.970000000000001Q636.0720000000001 6.970000000000001 634.8480000000001 6.596Z M680.6800000000001 0.0 675.24 -18.360000000000003H679.32L683.3660000000001 -4.25H683.5020000000001L687.548 -18.360000000000003H691.5600000000001L686.12 0.0Z M709.444 -2.346Q707.234 0.34 703.8 0.34Q700.366 0.34 698.156 -2.346Q695.946 -5.032 695.946 -9.18Q695.946 -13.328000000000001 698.156 -16.014000000000003Q700.366 -18.700000000000003 703.8 -18.700000000000003Q707.234 -18.700000000000003 709.444 -16.014000000000003Q711.654 -13.328000000000001 711.654 -9.18Q711.654 -5.032 709.444 -2.346ZM699.635 -3.638Q701.25 -1.496 703.8 -1.496Q706.35 -1.496 707.965 -3.638Q709.58 -5.78 709.58 -9.18Q709.58 -12.58 707.965 -14.722000000000001Q706.35 -16.864 703.8 -16.864Q701.25 -16.864 699.635 -14.722000000000001Q698.02 -12.58 698.02 -9.18Q698.02 -5.78 699.635 -3.638Z M717.502 0.0 714.68 -18.360000000000003H716.618L718.964 -2.414H719.1L723.248 -16.32H725.152L729.334 -2.346H729.47L731.816 -18.360000000000003H733.72L730.898 0.0H728.348L724.268 -13.668000000000001H724.132L720.052 0.0Z M743.0360000000001 -0.40800000000000003Q742.3900000000001 -1.054 742.3900000000001 -1.972Q742.3900000000001 -2.89 743.0360000000001 -3.5360000000000005Q743.6820000000001 -4.182 744.6000000000001 -4.182Q745.5180000000001 -4.182 746.1640000000001 -3.5360000000000005Q746.8100000000001 -2.89 746.8100000000001 -1.972Q746.8100000000001 -1.054 746.1640000000001 -0.40800000000000003Q745.5180000000001 0.23800000000000002 744.6000000000001 0.23800000000000002Q743.6820000000001 0.23800000000000002 743.0360000000001 -0.40800000000000003Z"/>
  </g>
</svg>
