<svg xmlns="http://www.w3.org/2000/svg" width="792" height="98" viewBox="0 0 792 98" role="img" aria-labelledby="title desc">
  <title id="title">CommitMono 275 Italic preview</title>
  <desc id="desc">Sphinx of black quartz, judge my vow.</desc>
  <rect width="100%" height="100%" rx="10" fill="#0d1117"/>
  <text x="24" y="34" fill="#8b949e" font-family="ui-monospace, SFMono-Regular, Menlo, Consolas, monospace" font-size="16">CommitMono 275 Italic</text>
  <g transform="translate(22.45 72.69)" fill="#f0f6fc">
    <path d="M1.598 -5.882000000000001C1.122 -2.21 4.046 0.47600000000000003 8.5 0.47600000000000003C13.090000000000002 0.47600000000000003 16.728 -2.3800000000000003 17.408 -6.426C18.02 -9.928 16.048000000000002 -12.206000000000001 11.628 -13.158000000000001L10.268 -13.464C7.514 -14.076 6.324000000000001 -15.47 6.698 -17.68C7.106000000000001 -20.264000000000003 9.316 -21.998 12.206000000000001 -21.998C14.926000000000002 -21.998 16.830000000000002 -20.434 16.796000000000003 -18.258000000000003H19.074C19.414 -21.624000000000002 16.626 -24.14 12.546000000000001 -24.14C8.296000000000001 -24.14 4.964 -21.454 4.3180000000000005 -17.578000000000003C3.74 -14.212000000000002 5.542000000000001 -12.036000000000001 9.588000000000001 -11.152000000000001L10.914000000000001 -10.846C14.008000000000001 -10.166 15.436000000000002 -8.704 15.028 -6.3580000000000005C14.586 -3.604 12.002 -1.7000000000000002 8.806000000000001 -1.7000000000000002C5.746 -1.7000000000000002 3.74 -3.434 3.91 -5.882000000000001Z M24.888 -18.360000000000003 20.706000000000003 6.800000000000001H23.052000000000003L24.718000000000004 -3.196H24.854000000000003C25.67 -0.9520000000000001 27.370000000000005 0.34 29.818000000000005 0.34C34.136 0.34 37.944 -3.672 38.862 -9.180000000000001C39.78 -14.688 37.366 -18.700000000000003 33.048 -18.700000000000003C30.430000000000003 -18.700000000000003 28.186000000000003 -17.238 26.622000000000003 -14.756H26.452L27.064000000000004 -18.360000000000003ZM32.334 -16.592000000000002C35.496 -16.592000000000002 37.230000000000004 -13.600000000000001 36.482 -9.180000000000001C35.768 -4.760000000000001 33.048 -1.7680000000000002 29.852000000000004 -1.7680000000000002C26.656000000000002 -1.7680000000000002 24.922000000000004 -4.828 25.636000000000003 -9.180000000000001C26.35 -13.532000000000002 29.104000000000003 -16.592000000000002 32.334 -16.592000000000002Z M42.908 0.0H45.254000000000005L47.022000000000006 -10.574000000000002C47.60000000000001 -14.110000000000001 50.048 -16.694000000000003 52.836000000000006 -16.694000000000003C55.114000000000004 -16.694000000000003 56.33800000000001 -14.926000000000002 55.86200000000001 -12.206000000000001L53.822 0.0H56.168000000000006L58.242000000000004 -12.41C58.854000000000006 -16.150000000000002 57.018 -18.700000000000003 53.652 -18.700000000000003C51.37400000000001 -18.700000000000003 49.36800000000001 -17.544 48.008 -15.572000000000001H47.83800000000001L49.43600000000001 -25.16H47.09Z M63.274 0.0H76.976L77.316 -2.0740000000000003H71.638L74.358 -18.360000000000003H66.504L66.13000000000001 -16.286H71.638L69.292 -2.0740000000000003H63.614000000000004ZM71.434 -24.446C71.23 -23.188000000000002 72.08 -22.202 73.33800000000001 -22.202C74.596 -22.202 75.75200000000001 -23.188000000000002 75.956 -24.446C76.16 -25.704 75.378 -26.69 74.086 -26.69C72.86200000000001 -26.69 71.672 -25.704 71.434 -24.446Z M83.70800000000001 0.0H86.054L87.822 -10.574000000000002C88.4 -14.144000000000002 90.81400000000001 -16.694000000000003 93.63600000000001 -16.694000000000003C95.94800000000001 -16.694000000000003 97.138 -14.96 96.662 -12.206000000000001L94.62200000000001 0.0H96.968L99.042 -12.41C99.68800000000002 -16.184 97.852 -18.700000000000003 94.418 -18.700000000000003C92.03800000000001 -18.700000000000003 89.96400000000001 -17.476000000000003 88.57000000000001 -15.402000000000001H88.43400000000001L88.944 -18.360000000000003H86.76800000000001Z M102.64600000000002 0.0H105.33200000000001L111.79200000000002 -7.854000000000001L115.60000000000002 0.0H118.35400000000001L113.62800000000001 -9.554L120.80200000000002 -18.360000000000003H118.15000000000002L112.37000000000002 -11.152000000000001L109.00400000000002 -18.360000000000003H106.25000000000001L110.53400000000002 -9.486Z M151.232 0.34C155.822 0.34 159.834 -3.6380000000000003 160.752 -9.180000000000001C161.67000000000002 -14.722000000000001 159.018 -18.700000000000003 154.428 -18.700000000000003C149.83800000000002 -18.700000000000003 145.82600000000002 -14.722000000000001 144.90800000000002 -9.180000000000001C143.99 -3.6380000000000003 146.64200000000002 0.34 151.232 0.34ZM151.60600000000002 -1.7680000000000002C148.342 -1.7680000000000002 146.574 -4.828 147.288 -9.180000000000001C148.002 -13.532000000000002 150.824 -16.592000000000002 154.08800000000002 -16.592000000000002C157.318 -16.592000000000002 159.086 -13.532000000000002 158.372 -9.180000000000001C157.65800000000002 -4.828 154.836 -1.7680000000000002 151.60600000000002 -1.7680000000000002Z M169.69400000000002 0.0H172.04000000000002L174.72600000000003 -16.286H181.25400000000002L181.62800000000001 -18.360000000000003H175.10000000000002L175.23600000000002 -19.176000000000002C175.71200000000002 -22.134 177.174 -23.528000000000002 179.69000000000003 -23.528000000000002C180.74400000000003 -23.528000000000002 181.764 -23.290000000000003 182.68200000000002 -22.746000000000002L183.02200000000002 -24.684C182.17200000000003 -25.228 181.01600000000002 -25.500000000000004 179.69000000000003 -25.500000000000004C175.91600000000003 -25.500000000000004 173.57000000000002 -23.324 172.89000000000001 -19.176000000000002L172.75400000000002 -18.360000000000003H167.41600000000003L167.04200000000003 -16.286H172.38000000000002Z M205.42800000000003 0.0H207.60400000000004L208.21600000000004 -3.604H208.35200000000003C209.06600000000003 -1.122 210.86800000000002 0.34 213.45200000000003 0.34C217.77000000000004 0.34 221.54400000000004 -3.672 222.46200000000002 -9.180000000000001C223.38000000000002 -14.688 220.89800000000002 -18.700000000000003 216.58000000000004 -18.700000000000003C214.09800000000004 -18.700000000000003 211.95600000000002 -17.408 210.42600000000002 -15.13H210.29000000000002L211.95600000000002 -25.16H209.61000000000004ZM213.45200000000003 -1.7680000000000002C210.25600000000003 -1.7680000000000002 208.52200000000002 -4.828 209.23600000000002 -9.180000000000001C209.95000000000002 -13.532000000000002 212.70400000000004 -16.592000000000002 215.93400000000003 -16.592000000000002C219.09600000000003 -16.592000000000002 220.83000000000004 -13.600000000000001 220.08200000000002 -9.180000000000001C219.36800000000002 -4.760000000000001 216.64800000000002 -1.7680000000000002 213.45200000000003 -1.7680000000000002Z M226.47400000000002 0.0H240.17600000000002L240.51600000000002 -2.0740000000000003H234.838L238.714 -25.16H230.86L230.48600000000002 -23.086000000000002H235.994L232.49200000000002 -2.0740000000000003H226.814Z M259.692 -13.226C259.454 -11.866000000000001 258.706 -11.186 257.38 -11.05L255.40800000000002 -10.88C250.24 -10.370000000000001 247.418 -8.568000000000001 246.87400000000002 -5.202C246.33 -1.9380000000000002 248.336 0.34 251.77 0.34C254.32000000000002 0.34 256.598 -0.9520000000000001 258.06 -3.128H258.196C258.094 -1.802 258.128 -0.782 258.298 0.0H260.50800000000004C260.27000000000004 -1.4620000000000002 260.406 -3.5700000000000003 260.916 -6.562L262.038 -13.192C262.582 -16.490000000000002 260.338 -18.700000000000003 256.53000000000003 -18.700000000000003C252.824 -18.700000000000003 249.69600000000003 -16.66 249.05 -13.838000000000001H251.36200000000002C251.872 -15.538 253.87800000000001 -16.694000000000003 256.224 -16.694000000000003C258.74 -16.694000000000003 260.06600000000003 -15.368 259.692 -13.226ZM259.182 -10.064 258.672 -7.242000000000001C258.128 -4.046 255.37400000000002 -1.6320000000000001 252.41600000000003 -1.6320000000000001C250.138 -1.6320000000000001 248.88000000000002 -3.06 249.25400000000002 -5.236000000000001C249.662 -7.548000000000001 251.532 -8.738000000000001 255.442 -9.180000000000001L257.312 -9.418000000000001C258.06 -9.486 258.672 -9.690000000000001 259.182 -10.064Z M279.75200000000007 -4.522C278.90200000000004 -2.7880000000000003 276.99800000000005 -1.7340000000000002 274.89000000000004 -1.7340000000000002C271.32000000000005 -1.7340000000000002 269.48400000000004 -4.760000000000001 270.232 -9.180000000000001C270.946 -13.600000000000001 273.76800000000003 -16.626 277.27000000000004 -16.626C279.31000000000006 -16.626 280.80600000000004 -15.572000000000001 281.04400000000004 -13.838000000000001H283.32200000000006C283.28800000000007 -16.728 280.94200000000006 -18.700000000000003 277.61000000000007 -18.700000000000003C272.88400000000007 -18.700000000000003 268.80400000000003 -14.688 267.886 -9.214C266.968 -3.7060000000000004 269.75600000000003 0.34 274.516 0.34C277.84800000000007 0.34 280.97600000000006 -1.6320000000000001 281.99600000000004 -4.522Z M287.334 0.0H289.68L290.598 -5.44L294.74600000000004 -9.180000000000001L299.67600000000004 0.0H302.53200000000004L296.61600000000004 -10.88L304.98 -18.360000000000003H301.92L291.108 -8.568000000000001L293.862 -25.16H291.516Z M342.85600000000005 -18.360000000000003 342.244 -14.756H342.10800000000006C341.36 -17.238 339.59200000000004 -18.700000000000003 337.00800000000004 -18.700000000000003C332.69000000000005 -18.700000000000003 328.91600000000005 -14.688 327.99800000000005 -9.180000000000001C327.08000000000004 -3.672 329.562 0.34 333.88000000000005 0.34C336.32800000000003 0.34 338.47 -0.9520000000000001 340.00000000000006 -3.196H340.17L338.504 6.800000000000001H340.85L345.03200000000004 -18.360000000000003ZM337.00800000000004 -16.592000000000002C340.204 -16.592000000000002 341.93800000000005 -13.532000000000002 341.22400000000005 -9.180000000000001C340.51000000000005 -4.828 337.75600000000003 -1.7680000000000002 334.526 -1.7680000000000002C331.36400000000003 -1.7680000000000002 329.63000000000005 -4.760000000000001 330.37800000000004 -9.180000000000001C331.12600000000003 -13.600000000000001 333.812 -16.592000000000002 337.00800000000004 -16.592000000000002Z M362.712 -6.12 364.752 -18.360000000000003H362.406L360.63800000000003 -7.7860000000000005C360.06 -4.216 357.646 -1.6660000000000001 354.858 -1.6660000000000001C352.546 -1.6660000000000001 351.356 -3.434 351.798 -6.154000000000001L353.838 -18.360000000000003H351.492L349.418 -5.95C348.80600000000004 -2.176 350.642 0.34 354.076 0.34C356.38800000000003 0.34 358.428 -0.8160000000000001 359.788 -2.822H359.92400000000004C359.822 -1.9040000000000001 359.754 -0.9520000000000001 359.72 0.0H361.93C362.168 -2.1420000000000003 362.44 -4.386 362.712 -6.12Z M382.09200000000004 -13.226C381.85400000000004 -11.866000000000001 381.10600000000005 -11.186 379.78000000000003 -11.05L377.80800000000005 -10.88C372.64000000000004 -10.370000000000001 369.81800000000004 -8.568000000000001 369.27400000000006 -5.202C368.73 -1.9380000000000002 370.73600000000005 0.34 374.1700000000001 0.34C376.72 0.34 378.99800000000005 -0.9520000000000001 380.46000000000004 -3.128H380.59600000000006C380.494 -1.802 380.528 -0.782 380.69800000000004 0.0H382.9080000000001C382.6700000000001 -1.4620000000000002 382.80600000000004 -3.5700000000000003 383.31600000000003 -6.562L384.43800000000005 -13.192C384.982 -16.490000000000002 382.73800000000006 -18.700000000000003 378.93000000000006 -18.700000000000003C375.22400000000005 -18.700000000000003 372.09600000000006 -16.66 371.45000000000005 -13.838000000000001H373.76200000000006C374.27200000000005 -15.538 376.278 -16.694000000000003 378.624 -16.694000000000003C381.14000000000004 -16.694000000000003 382.46600000000007 -15.368 382.09200000000004 -13.226ZM381.58200000000005 -10.064 381.07200000000006 -7.242000000000001C380.528 -4.046 377.77400000000006 -1.6320000000000001 374.81600000000003 -1.6320000000000001C372.53800000000007 -1.6320000000000001 371.28000000000003 -3.06 371.65400000000005 -5.236000000000001C372.06200000000007 -7.548000000000001 373.9320000000001 -8.738000000000001 377.84200000000004 -9.180000000000001L379.71200000000005 -9.418000000000001C380.46000000000004 -9.486 381.07200000000006 -9.690000000000001 381.58200000000005 -10.064Z M393.04 0.0 394.774 -10.506C395.386 -14.042000000000002 397.732 -16.524 400.452 -16.524C402.22 -16.524 403.37600000000003 -15.504000000000001 403.444 -13.838000000000001H405.824C405.96000000000004 -16.728 404.226 -18.598000000000003 401.336 -18.598000000000003C398.956 -18.598000000000003 396.882 -17.306 395.52200000000005 -15.198H395.386L395.93 -18.360000000000003H393.754L390.694 0.0Z M417.48600000000005 -5.984 419.18600000000004 -16.286H425.71400000000006L426.0880000000001 -18.360000000000003H419.56000000000006L420.51200000000006 -24.14L418.09800000000007 -23.732000000000003L417.21400000000006 -18.360000000000003H411.87600000000003L411.50200000000007 -16.286H416.84000000000003L415.14000000000004 -5.984C414.46000000000004 -1.836 416.09200000000004 0.34 419.86600000000004 0.34C421.19200000000006 0.34 422.38200000000006 0.068 423.43600000000004 -0.47600000000000003L423.77600000000007 -2.414C422.65400000000005 -1.9040000000000001 421.53200000000004 -1.6320000000000001 420.4440000000001 -1.6320000000000001C417.96200000000005 -1.6320000000000001 417.01000000000005 -3.0260000000000002 417.48600000000005 -5.984Z M429.79400000000004 0.0H444.074L444.41400000000004 -2.04H432.99L446.25000000000006 -16.456L446.55600000000004 -18.360000000000003H433.194L432.85400000000004 -16.32H443.36L430.1 -1.9040000000000001Z M451.28200000000004 5.338H453.56L460.326 -3.842H456.75600000000003Z M501.228 0.8160000000000001 504.42400000000004 -18.360000000000003H495.38L495.04 -16.286H501.738L498.882 0.8160000000000001C498.406 3.7740000000000005 496.944 5.168 494.428 5.168C493.374 5.168 492.32000000000005 4.930000000000001 491.40200000000004 4.386L491.096 6.324000000000001C491.946 6.868 493.06800000000004 7.140000000000001 494.394 7.140000000000001C498.202 7.140000000000001 500.548 4.964 501.228 0.8160000000000001ZM501.67 -24.446C501.466 -23.188000000000002 502.31600000000003 -22.202 503.574 -22.202C504.83200000000005 -22.202 505.988 -23.188000000000002 506.192 -24.446C506.396 -25.704 505.61400000000003 -26.69 504.322 -26.69C503.098 -26.69 501.908 -25.704 501.67 -24.446Z M525.912 -6.12 527.9520000000001 -18.360000000000003H525.6060000000001L523.8380000000001 -7.7860000000000005C523.2600000000001 -4.216 520.846 -1.6660000000000001 518.0580000000001 -1.6660000000000001C515.7460000000001 -1.6660000000000001 514.556 -3.434 514.998 -6.154000000000001L517.038 -18.360000000000003H514.692L512.618 -5.95C512.0060000000001 -2.176 513.8420000000001 0.34 517.2760000000001 0.34C519.5880000000001 0.34 521.628 -0.8160000000000001 522.988 -2.822H523.124C523.022 -1.9040000000000001 522.9540000000001 -0.9520000000000001 522.9200000000001 0.0H525.1300000000001C525.368 -2.1420000000000003 525.6400000000001 -4.386 525.912 -6.12Z M543.9660000000001 0.0H546.21C546.4480000000001 -2.1420000000000003 546.7200000000001 -4.386 546.9920000000001 -6.12L550.1540000000001 -25.16H547.8080000000001L546.142 -15.164000000000001H546.0060000000001C545.19 -17.408 543.4900000000001 -18.700000000000003 541.0420000000001 -18.700000000000003C536.758 -18.700000000000003 532.916 -14.688 531.998 -9.180000000000001C531.08 -3.672 533.5960000000001 0.34 537.8800000000001 0.34C540.3960000000001 0.34 542.6060000000001 -1.02 544.1360000000001 -3.4000000000000004H544.272C544.1360000000001 -2.278 544.0680000000001 -1.1560000000000001 543.9660000000001 0.0ZM538.662 -1.7680000000000002C535.4320000000001 -1.7680000000000002 533.6640000000001 -4.862 534.378 -9.180000000000001C535.0920000000001 -13.498000000000001 537.9480000000001 -16.592000000000002 541.1780000000001 -16.592000000000002C544.3400000000001 -16.592000000000002 545.9720000000001 -13.634 545.224 -9.180000000000001C544.4760000000001 -4.760000000000001 541.8240000000001 -1.7680000000000002 538.662 -1.7680000000000002Z M564.3660000000001 -3.8760000000000003 563.5840000000001 0.544C563.176 3.128 560.864 5.032 558.11 5.032C555.696 5.032 554.0300000000001 3.5700000000000003 554.0980000000001 1.53H551.7520000000001C551.48 4.726 554.0300000000001 7.140000000000001 557.7700000000001 7.140000000000001C561.816 7.140000000000001 565.3180000000001 4.3180000000000005 565.9300000000001 0.544L569.0920000000001 -18.360000000000003H566.916L566.4060000000001 -15.164000000000001H566.2360000000001C565.522 -17.408 563.8900000000001 -18.700000000000003 561.5780000000001 -18.700000000000003C557.6 -18.700000000000003 553.9280000000001 -14.824000000000002 553.0780000000001 -9.690000000000001C552.2280000000001 -4.590000000000001 554.642 -0.68 558.6540000000001 -0.68C560.83 -0.68 562.768 -1.836 564.23 -3.8760000000000003ZM559.3000000000001 -2.7880000000000003C556.4100000000001 -2.7880000000000003 554.778 -5.712000000000001 555.4580000000001 -9.690000000000001C556.104 -13.668000000000001 558.7220000000001 -16.592000000000002 561.6120000000001 -16.592000000000002C564.4680000000001 -16.592000000000002 566.066 -13.668000000000001 565.4200000000001 -9.690000000000001C564.7740000000001 -5.712000000000001 562.1560000000001 -2.7880000000000003 559.3000000000001 -2.7880000000000003Z M575.994 -8.874H588.71L588.88 -9.792000000000002C589.764 -15.062000000000001 587.316 -18.700000000000003 582.964 -18.700000000000003C578.476 -18.700000000000003 574.668 -14.790000000000001 573.75 -9.316C572.798 -3.672 575.518 0.34 580.21 0.34C583.508 0.34 586.5 -1.598 587.6560000000001 -4.522H585.446C584.528 -2.822 582.692 -1.7680000000000002 580.618 -1.7680000000000002C577.2180000000001 -1.7680000000000002 575.416 -4.590000000000001 575.994 -8.874ZM582.658 -16.626C585.48 -16.626 587.1800000000001 -14.280000000000001 586.738 -10.744000000000002H576.368C577.422 -14.314000000000002 579.836 -16.626 582.658 -16.626Z M612.034 0.0H614.346L616.488 -12.784C616.862 -15.096000000000002 618.29 -16.762 619.922 -16.762C621.316 -16.762 621.996 -15.538 621.656 -13.464L619.412 0.0H621.724L623.866 -12.818000000000001C624.24 -15.13 625.702 -16.762 627.334 -16.762C628.762 -16.762 629.374 -15.504000000000001 629.034 -13.464L626.79 0.0H629.136L631.414 -13.702000000000002C631.924 -16.762 630.666 -18.700000000000003 628.082 -18.700000000000003C626.212 -18.700000000000003 624.716 -17.714000000000002 623.764 -15.844000000000001H623.628C623.526 -17.612000000000002 622.404 -18.700000000000003 620.67 -18.700000000000003C619.14 -18.700000000000003 617.78 -17.85 617.066 -16.422H616.93L617.236 -18.360000000000003H615.094Z M632.2980000000001 4.590000000000001 631.9920000000001 6.596C632.8420000000001 6.868 633.556 6.970000000000001 634.2700000000001 6.970000000000001C637.1600000000001 6.970000000000001 639.3360000000001 5.338 641.2400000000001 1.7340000000000002L651.916 -18.360000000000003H649.5360000000001L641.58 -3.0940000000000003H641.4440000000001L638.5200000000001 -18.360000000000003H636.0720000000001L639.7780000000001 0.068L639.2680000000001 1.02C637.738 3.842 636.344 4.930000000000001 634.2360000000001 4.930000000000001C633.5900000000001 4.930000000000001 632.9780000000001 4.828 632.2980000000001 4.590000000000001Z M680.272 0.0H683.298L692.308 -18.360000000000003H689.962L682.312 -2.482H682.176L679.6260000000001 -18.360000000000003H677.212Z M702.032 0.34C706.6220000000001 0.34 710.634 -3.6380000000000003 711.552 -9.180000000000001C712.47 -14.722000000000001 709.818 -18.700000000000003 705.2280000000001 -18.700000000000003C700.638 -18.700000000000003 696.626 -14.722000000000001 695.708 -9.180000000000001C694.7900000000001 -3.6380000000000003 697.442 0.34 702.032 0.34ZM702.4060000000001 -1.7680000000000002C699.142 -1.7680000000000002 697.374 -4.828 698.0880000000001 -9.180000000000001C698.802 -13.532000000000002 701.624 -16.592000000000002 704.888 -16.592000000000002C708.118 -16.592000000000002 709.886 -13.532000000000002 709.172 -9.180000000000001C708.458 -4.828 705.636 -1.7680000000000002 702.4060000000001 -1.7680000000000002Z M715.632 0.0H718.59L724.676 -13.430000000000001H724.812L726.41 0.0H729.368L735.148 -18.360000000000003H732.938L728.144 -2.6180000000000003H728.008L726.342 -16.32H724.098L717.91 -2.6860000000000004H717.774L718.182 -18.360000000000003H716.006Z M740.8940000000001 -2.108C740.69 -0.8160000000000001 741.5400000000001 0.23800000000000002 742.8660000000001 0.23800000000000002C744.1580000000001 0.23800000000000002 745.416 -0.8160000000000001 745.6200000000001 -2.108C745.8580000000001 -3.434 744.974 -4.488 743.6480000000001 -4.488C742.3560000000001 -4.488 741.1320000000001 -3.434 740.8940000000001 -2.108Z"/>
  </g>
</svg>
