<svg xmlns="http://www.w3.org/2000/svg" width="792" height="98" viewBox="0 0 792 98" role="img" aria-labelledby="title desc">
  <title id="title">CommitMono 200 Sonic Italic preview</title>
  <desc id="desc">Sphinx of black quartz, judge my vow.</desc>
  <rect width="100%" height="100%" rx="10" fill="#0d1117"/>
  <text x="24" y="34" fill="#8b949e" font-family="ui-monospace, SFMono-Regular, Menlo, Consolas, monospace" font-size="16">CommitMono 200 Sonic Italic</text>
  <g transform="translate(22.39 72.66)" fill="#f0f6fc">
    <path d="M1.6660000000000001 -5.78C1.1900000000000002 -2.176 4.08 0.47600000000000003 8.466000000000001 0.47600000000000003C13.022 0.47600000000000003 16.66 -2.346 17.34 -6.3580000000000005C17.918000000000003 -9.792000000000002 15.946000000000002 -12.036000000000001 11.594000000000001 -13.022L10.234 -13.328000000000001C7.378 -13.974 6.154000000000001 -15.436000000000002 6.5280000000000005 -17.748C6.970000000000001 -20.468 9.248000000000001 -22.270000000000003 12.24 -22.270000000000003C15.062000000000001 -22.270000000000003 17.034000000000002 -20.638 17.0 -18.360000000000003H19.006C19.312 -21.658 16.558 -24.14 12.546000000000001 -24.14C8.398000000000001 -24.14 5.1000000000000005 -21.488000000000003 4.454000000000001 -17.68C3.91 -14.382000000000001 5.678000000000001 -12.206000000000001 9.622 -11.322000000000001L10.948 -11.016C14.178 -10.268 15.674000000000001 -8.738000000000001 15.266000000000002 -6.29C14.790000000000001 -3.434 12.104000000000001 -1.4280000000000002 8.738000000000001 -1.4280000000000002C5.5760000000000005 -1.4280000000000002 3.5020000000000002 -3.2300000000000004 3.672 -5.78Z M24.990000000000002 -18.360000000000003 20.808000000000003 6.800000000000001H22.848000000000003L24.514000000000003 -3.298H24.684000000000005C25.466 -0.9860000000000001 27.200000000000003 0.34 29.716 0.34C34.034000000000006 0.34 37.876000000000005 -3.672 38.794000000000004 -9.180000000000001C39.712 -14.688 37.264 -18.700000000000003 32.946000000000005 -18.700000000000003C30.328000000000003 -18.700000000000003 27.982000000000003 -17.204 26.384 -14.654000000000002H26.248000000000005L26.860000000000003 -18.360000000000003ZM32.402 -16.898C35.7 -16.898 37.468 -13.770000000000001 36.72 -9.180000000000001C35.972 -4.590000000000001 33.150000000000006 -1.4620000000000002 29.852000000000004 -1.4620000000000002C26.486000000000004 -1.4620000000000002 24.684000000000005 -4.658 25.432000000000002 -9.180000000000001C26.180000000000003 -13.702000000000002 29.036 -16.898 32.402 -16.898Z M43.010000000000005 0.0H45.050000000000004L46.818000000000005 -10.540000000000001C47.43000000000001 -14.246 49.980000000000004 -16.932000000000002 52.870000000000005 -16.932000000000002C55.284000000000006 -16.932000000000002 56.57600000000001 -15.062000000000001 56.10000000000001 -12.24L54.06 0.0H56.10000000000001L58.17400000000001 -12.41C58.786 -16.150000000000002 56.916000000000004 -18.700000000000003 53.550000000000004 -18.700000000000003C51.23800000000001 -18.700000000000003 49.164 -17.476000000000003 47.77 -15.47H47.63400000000001L49.232000000000006 -25.16H47.19200000000001Z M63.308 0.0H76.908L77.214 -1.7680000000000002H71.434L74.188 -18.360000000000003H66.538L66.232 -16.592000000000002H71.842L69.394 -1.7680000000000002H63.614000000000004ZM71.57000000000001 -24.548000000000002C71.366 -23.392000000000003 72.182 -22.44 73.33800000000001 -22.44C74.528 -22.44 75.58200000000001 -23.392000000000003 75.786 -24.548000000000002C75.99000000000001 -25.738000000000003 75.242 -26.656000000000002 74.052 -26.656000000000002C72.896 -26.656000000000002 71.774 -25.738000000000003 71.57000000000001 -24.548000000000002Z M83.81 0.0H85.85000000000001L87.61800000000001 -10.540000000000001C88.23 -14.280000000000001 90.74600000000001 -16.932000000000002 93.67000000000002 -16.932000000000002C96.11800000000001 -16.932000000000002 97.376 -15.096000000000002 96.9 -12.24L94.86000000000001 0.0H96.9L98.97400000000002 -12.41C99.62 -16.184 97.75000000000001 -18.700000000000003 94.316 -18.700000000000003C91.86800000000001 -18.700000000000003 89.76 -17.442 88.33200000000001 -15.3H88.23L88.74000000000001 -18.360000000000003H86.87Z M102.78200000000001 0.0H105.12800000000001L111.82600000000002 -8.092L115.80400000000002 0.0H118.21800000000002L113.42400000000002 -9.554L120.66600000000001 -18.360000000000003H118.35400000000001L112.33600000000001 -10.948L108.80000000000001 -18.360000000000003H106.38600000000001L110.73800000000001 -9.486Z M151.232 0.34C155.788 0.34 159.76600000000002 -3.6380000000000003 160.68400000000003 -9.180000000000001C161.602 -14.722000000000001 158.984 -18.700000000000003 154.428 -18.700000000000003C149.872 -18.700000000000003 145.894 -14.722000000000001 144.976 -9.180000000000001C144.05800000000002 -3.6380000000000003 146.67600000000002 0.34 151.232 0.34ZM151.538 -1.496C148.138 -1.496 146.30200000000002 -4.658 147.05 -9.180000000000001C147.798 -13.702000000000002 150.722 -16.864 154.122 -16.864C157.52200000000002 -16.864 159.358 -13.702000000000002 158.61 -9.180000000000001C157.86200000000002 -4.658 154.93800000000002 -1.496 151.538 -1.496Z M169.83 0.0H171.87L174.62400000000002 -16.592000000000002H181.25400000000002L181.56000000000003 -18.360000000000003H174.93L175.10000000000002 -19.278000000000002C175.61 -22.338 177.07200000000003 -23.8 179.622 -23.8C180.71 -23.8 181.764 -23.528000000000002 182.68200000000002 -22.984L182.954 -24.684C182.13800000000003 -25.228 181.01600000000002 -25.500000000000004 179.69000000000003 -25.500000000000004C176.01800000000003 -25.500000000000004 173.74 -23.358 173.06000000000003 -19.278000000000002L172.89000000000001 -18.360000000000003H167.45000000000002L167.144 -16.592000000000002H172.584Z M205.53000000000003 0.0H207.40000000000003L208.01200000000003 -3.7060000000000004H208.14800000000002C208.89600000000002 -1.1560000000000001 210.73200000000003 0.34 213.35000000000002 0.34C217.66800000000003 0.34 221.47600000000003 -3.672 222.39400000000003 -9.180000000000001C223.31200000000004 -14.688 220.79600000000002 -18.700000000000003 216.47800000000004 -18.700000000000003C213.96200000000002 -18.700000000000003 211.75200000000004 -17.34 210.18800000000002 -15.028H210.08600000000004L211.75200000000004 -25.16H209.71200000000002ZM213.45200000000003 -1.4620000000000002C210.08600000000004 -1.4620000000000002 208.28400000000002 -4.658 209.03200000000004 -9.180000000000001C209.78000000000003 -13.702000000000002 212.63600000000002 -16.898 216.00200000000004 -16.898C219.30000000000004 -16.898 221.06800000000004 -13.770000000000001 220.32000000000002 -9.180000000000001C219.57200000000003 -4.590000000000001 216.75000000000003 -1.4620000000000002 213.45200000000003 -1.4620000000000002Z M226.508 0.0H240.108L240.41400000000002 -1.7680000000000002H234.63400000000001L238.544 -25.16H230.894L230.588 -23.392000000000003H236.198L232.594 -1.7680000000000002H226.814Z M259.896 -13.294C259.692 -11.9 258.91 -11.186 257.516 -11.05L255.40800000000002 -10.846C250.30800000000002 -10.336 247.52 -8.534 246.976 -5.202C246.43200000000002 -1.9380000000000002 248.40400000000002 0.34 251.83800000000002 0.34C254.45600000000002 0.34 256.802 -1.02 258.264 -3.2640000000000002H258.40000000000003C258.264 -1.87 258.332 -0.8160000000000001 258.502 0.0H260.406C260.168 -1.3940000000000001 260.30400000000003 -3.4680000000000004 260.814 -6.562L261.93600000000004 -13.260000000000002C262.48 -16.524 260.30400000000003 -18.700000000000003 256.53000000000003 -18.700000000000003C252.92600000000002 -18.700000000000003 249.83200000000002 -16.694000000000003 249.186 -13.940000000000001H251.192C251.702 -15.708000000000002 253.776 -16.932000000000002 256.25800000000004 -16.932000000000002C258.87600000000003 -16.932000000000002 260.27000000000004 -15.538 259.896 -13.294ZM259.42 -10.268 258.91 -7.276000000000001C258.332 -3.9440000000000004 255.476 -1.3940000000000001 252.382 -1.3940000000000001C250.002 -1.3940000000000001 248.64200000000002 -2.9240000000000004 249.05 -5.236000000000001C249.458 -7.65 251.43 -8.874 255.442 -9.350000000000001L257.44800000000004 -9.588000000000001C258.264 -9.690000000000001 258.91 -9.894 259.42 -10.268Z M279.99000000000007 -4.42C279.10600000000005 -2.584 277.06600000000003 -1.4280000000000002 274.82200000000006 -1.4280000000000002C271.15000000000003 -1.4280000000000002 269.24600000000004 -4.590000000000001 269.994 -9.180000000000001C270.742 -13.736 273.70000000000005 -16.932000000000002 277.338 -16.932000000000002C279.51400000000007 -16.932000000000002 281.07800000000003 -15.776000000000002 281.31600000000003 -13.940000000000001H283.254C283.22 -16.762 280.9080000000001 -18.700000000000003 277.64400000000006 -18.700000000000003C272.95200000000006 -18.700000000000003 268.87200000000007 -14.688 267.95400000000006 -9.180000000000001C267.03600000000006 -3.7060000000000004 269.82400000000007 0.34 274.55000000000007 0.34C277.84800000000007 0.34 280.9080000000001 -1.598 281.92800000000005 -4.42Z M287.47 0.0H289.51000000000005L290.428 -5.542000000000001L294.78000000000003 -9.384L299.91400000000004 0.0H302.43L296.41200000000003 -10.88L304.84400000000005 -18.360000000000003H302.124L290.87 -8.228L293.692 -25.16H291.65200000000004Z M343.06000000000006 -18.360000000000003 342.44800000000004 -14.654000000000002H342.312C341.564 -17.204 339.728 -18.700000000000003 337.11 -18.700000000000003C332.79200000000003 -18.700000000000003 328.98400000000004 -14.688 328.06600000000003 -9.180000000000001C327.148 -3.672 329.66400000000004 0.34 333.982 0.34C336.49800000000005 0.34 338.67400000000004 -0.9860000000000001 340.23800000000006 -3.298H340.374L338.708 6.800000000000001H340.74800000000005L344.93000000000006 -18.360000000000003ZM337.00800000000004 -16.898C340.374 -16.898 342.17600000000004 -13.702000000000002 341.42800000000005 -9.180000000000001C340.68000000000006 -4.658 337.824 -1.4620000000000002 334.458 -1.4620000000000002C331.16 -1.4620000000000002 329.39200000000005 -4.590000000000001 330.14000000000004 -9.180000000000001C330.922 -13.770000000000001 333.71000000000004 -16.898 337.00800000000004 -16.898Z M362.61 -6.12 364.65000000000003 -18.360000000000003H362.61L360.842 -7.82C360.23 -4.08 357.714 -1.4280000000000002 354.79 -1.4280000000000002C352.342 -1.4280000000000002 351.084 -3.2640000000000002 351.56 -6.12L353.6 -18.360000000000003H351.56L349.486 -5.95C348.874 -2.176 350.71000000000004 0.34 354.144 0.34C356.524 0.34 358.598 -0.8500000000000001 359.992 -2.89H360.128C360.026 -1.9380000000000002 359.958 -0.9860000000000001 359.89 0.0H361.82800000000003C362.06600000000003 -2.1420000000000003 362.338 -4.386 362.61 -6.12Z M382.29600000000005 -13.294C382.09200000000004 -11.9 381.31000000000006 -11.186 379.91600000000005 -11.05L377.80800000000005 -10.846C372.708 -10.336 369.9200000000001 -8.534 369.37600000000003 -5.202C368.83200000000005 -1.9380000000000002 370.80400000000003 0.34 374.23800000000006 0.34C376.85600000000005 0.34 379.20200000000006 -1.02 380.66400000000004 -3.2640000000000002H380.80000000000007C380.66400000000004 -1.87 380.732 -0.8160000000000001 380.90200000000004 0.0H382.80600000000004C382.56800000000004 -1.3940000000000001 382.70400000000006 -3.4680000000000004 383.21400000000006 -6.562L384.33600000000007 -13.260000000000002C384.88000000000005 -16.524 382.70400000000006 -18.700000000000003 378.93000000000006 -18.700000000000003C375.326 -18.700000000000003 372.232 -16.694000000000003 371.58600000000007 -13.940000000000001H373.59200000000004C374.10200000000003 -15.708000000000002 376.17600000000004 -16.932000000000002 378.6580000000001 -16.932000000000002C381.27600000000007 -16.932000000000002 382.6700000000001 -15.538 382.29600000000005 -13.294ZM381.82000000000005 -10.268 381.31000000000006 -7.276000000000001C380.732 -3.9440000000000004 377.87600000000003 -1.3940000000000001 374.78200000000004 -1.3940000000000001C372.40200000000004 -1.3940000000000001 371.04200000000003 -2.9240000000000004 371.45000000000005 -5.236000000000001C371.85800000000006 -7.65 373.83000000000004 -8.874 377.84200000000004 -9.350000000000001L379.84800000000007 -9.588000000000001C380.66400000000004 -9.690000000000001 381.31000000000006 -9.894 381.82000000000005 -10.268Z M392.87 0.0 394.63800000000003 -10.540000000000001C395.25 -14.212000000000002 397.69800000000004 -16.796000000000003 400.55400000000003 -16.796000000000003C402.42400000000004 -16.796000000000003 403.61400000000003 -15.708000000000002 403.682 -13.940000000000001H405.72200000000004C405.858 -16.762 404.124 -18.598000000000003 401.26800000000003 -18.598000000000003C398.82000000000005 -18.598000000000003 396.71200000000005 -17.272000000000002 395.35200000000003 -15.096000000000002H395.216L395.76000000000005 -18.360000000000003H393.89000000000004L390.83000000000004 0.0Z M417.31600000000003 -5.882000000000001 419.08400000000006 -16.592000000000002H425.71400000000006L426.02000000000004 -18.360000000000003H419.39000000000004L420.34200000000004 -24.14L418.26800000000003 -23.8L417.3500000000001 -18.360000000000003H411.9100000000001L411.60400000000004 -16.592000000000002H417.04400000000004L415.27600000000007 -5.882000000000001C414.59600000000006 -1.802 416.1940000000001 0.34 419.86600000000004 0.34C421.19200000000006 0.34 422.34800000000007 0.068 423.36800000000005 -0.47600000000000003L423.67400000000004 -2.176C422.5520000000001 -1.6320000000000001 421.43000000000006 -1.36 420.34200000000004 -1.36C417.79200000000003 -1.36 416.80600000000004 -2.822 417.31600000000003 -5.882000000000001Z M429.76000000000005 0.0H444.04L444.34600000000006 -1.7680000000000002H432.514L446.25000000000006 -16.694000000000003L446.52200000000005 -18.360000000000003H433.16L432.85400000000004 -16.592000000000002H443.76800000000003L430.03200000000004 -1.6660000000000001Z M451.52000000000004 5.304H453.56L460.156 -3.672H456.926Z M501.024 0.918 504.22 -18.360000000000003H495.38L495.074 -16.592000000000002H501.874L498.98400000000004 0.918C498.47400000000005 3.978 496.978 5.44 494.428 5.44C493.34000000000003 5.44 492.286 5.168 491.368 4.6240000000000006L491.096 6.324000000000001C491.91200000000003 6.868 493.03400000000005 7.140000000000001 494.36 7.140000000000001C498.03200000000004 7.140000000000001 500.34400000000005 4.998 501.024 0.918ZM501.77200000000005 -24.548000000000002C501.56800000000004 -23.392000000000003 502.384 -22.44 503.54 -22.44C504.73 -22.44 505.78400000000005 -23.392000000000003 505.988 -24.548000000000002C506.192 -25.738000000000003 505.444 -26.656000000000002 504.254 -26.656000000000002C503.098 -26.656000000000002 501.976 -25.738000000000003 501.77200000000005 -24.548000000000002Z M525.8100000000001 -6.12 527.85 -18.360000000000003H525.8100000000001L524.042 -7.82C523.4300000000001 -4.08 520.9140000000001 -1.4280000000000002 517.99 -1.4280000000000002C515.542 -1.4280000000000002 514.2840000000001 -3.2640000000000002 514.7600000000001 -6.12L516.8000000000001 -18.360000000000003H514.7600000000001L512.686 -5.95C512.0740000000001 -2.176 513.9100000000001 0.34 517.344 0.34C519.724 0.34 521.798 -0.8500000000000001 523.192 -2.89H523.3280000000001C523.2260000000001 -1.9380000000000002 523.158 -0.9860000000000001 523.09 0.0H525.028C525.2660000000001 -2.1420000000000003 525.538 -4.386 525.8100000000001 -6.12Z M544.1700000000001 0.0H546.1080000000001C546.3460000000001 -2.1420000000000003 546.618 -4.386 546.8900000000001 -6.12L550.0520000000001 -25.16H548.0120000000001L546.3460000000001 -15.062000000000001H546.176C545.3940000000001 -17.374000000000002 543.6600000000001 -18.700000000000003 541.1440000000001 -18.700000000000003C536.8260000000001 -18.700000000000003 532.984 -14.688 532.0660000000001 -9.180000000000001C531.1480000000001 -3.672 533.6640000000001 0.34 537.9820000000001 0.34C540.532 0.34 542.7760000000001 -1.054 544.3400000000001 -3.4680000000000004H544.5100000000001C544.3400000000001 -2.3120000000000003 544.238 -1.1900000000000002 544.1700000000001 0.0ZM538.628 -1.4620000000000002C535.2620000000001 -1.4620000000000002 533.392 -4.692 534.1400000000001 -9.180000000000001C534.8880000000001 -13.668000000000001 537.8800000000001 -16.898 541.2460000000001 -16.898C544.5440000000001 -16.898 546.21 -13.838000000000001 545.4280000000001 -9.180000000000001C544.6460000000001 -4.556 541.926 -1.4620000000000002 538.628 -1.4620000000000002Z M564.57 -4.0120000000000005 563.7880000000001 0.544C563.3460000000001 3.298 560.898 5.304 558.008 5.304C555.4920000000001 5.304 553.758 3.7740000000000005 553.86 1.598H551.82C551.5480000000001 4.760000000000001 554.0640000000001 7.140000000000001 557.7360000000001 7.140000000000001C561.748 7.140000000000001 565.2160000000001 4.3180000000000005 565.8280000000001 0.544L568.9900000000001 -18.360000000000003H567.1200000000001L566.576 -15.028H566.4060000000001C565.6920000000001 -17.34 564.0260000000001 -18.700000000000003 561.6460000000001 -18.700000000000003C557.634 -18.700000000000003 553.9620000000001 -14.824000000000002 553.1120000000001 -9.690000000000001C552.2620000000001 -4.590000000000001 554.71 -0.68 558.7220000000001 -0.68C560.9660000000001 -0.68 562.9720000000001 -1.9040000000000001 564.4340000000001 -4.0120000000000005ZM559.1980000000001 -2.482C556.206 -2.482 554.5060000000001 -5.542000000000001 555.186 -9.690000000000001C555.8660000000001 -13.838000000000001 558.6200000000001 -16.898 561.6120000000001 -16.898C564.604 -16.898 566.2700000000001 -13.838000000000001 565.59 -9.690000000000001C564.9100000000001 -5.542000000000001 562.19 -2.482 559.1980000000001 -2.482Z M575.7900000000001 -9.01H588.676L588.812 -9.826C589.696 -15.062000000000001 587.248 -18.700000000000003 582.964 -18.700000000000003C578.51 -18.700000000000003 574.736 -14.790000000000001 573.8180000000001 -9.350000000000001C572.8660000000001 -3.672 575.552 0.34 580.21 0.34C583.44 0.34 586.398 -1.564 587.5880000000001 -4.42H585.6500000000001C584.6980000000001 -2.6180000000000003 582.76 -1.496 580.5840000000001 -1.496C577.014 -1.496 575.11 -4.522 575.7900000000001 -9.01ZM582.692 -16.864C585.6500000000001 -16.864 587.452 -14.382000000000001 586.976 -10.642000000000001H576.13C577.1500000000001 -14.416 579.734 -16.864 582.692 -16.864Z M612.102 0.0H614.142L616.284 -12.818000000000001C616.692 -15.266000000000002 618.222 -17.0 619.956 -17.0C621.452 -17.0 622.166 -15.708000000000002 621.792 -13.498000000000001L619.548 0.0H621.588L623.73 -12.818000000000001C624.138 -15.266000000000002 625.668 -17.0 627.402 -17.0C628.932 -17.0 629.612 -15.674000000000001 629.238 -13.498000000000001L626.994 0.0H629.034L631.312 -13.668000000000001C631.822 -16.762 630.564 -18.700000000000003 627.946 -18.700000000000003C626.076 -18.700000000000003 624.58 -17.68 623.628 -15.742H623.492C623.424 -17.544 622.268 -18.700000000000003 620.5 -18.700000000000003C618.97 -18.700000000000003 617.61 -17.85 616.896 -16.456H616.76L617.066 -18.360000000000003H615.162Z M632.3320000000001 4.862 632.0600000000001 6.596C632.9100000000001 6.868 633.5900000000001 6.970000000000001 634.2700000000001 6.970000000000001C637.0240000000001 6.970000000000001 639.1320000000001 5.338 641.0020000000001 1.836L651.8140000000001 -18.360000000000003H649.7400000000001L641.4780000000001 -2.652H641.3420000000001L638.282 -18.360000000000003H636.1400000000001L639.9140000000001 0.10200000000000001L639.3020000000001 1.1900000000000002C637.738 4.08 636.344 5.202 634.2700000000001 5.202C633.6240000000001 5.202 633.0120000000001 5.1000000000000005 632.3320000000001 4.862Z M680.51 0.0H683.094L692.206 -18.360000000000003H690.166L682.278 -2.176H682.142L679.422 -18.360000000000003H677.3140000000001Z M702.032 0.34C706.5880000000001 0.34 710.566 -3.6380000000000003 711.484 -9.180000000000001C712.402 -14.722000000000001 709.784 -18.700000000000003 705.2280000000001 -18.700000000000003C700.672 -18.700000000000003 696.6940000000001 -14.722000000000001 695.7760000000001 -9.180000000000001C694.8580000000001 -3.6380000000000003 697.476 0.34 702.032 0.34ZM702.3380000000001 -1.496C698.938 -1.496 697.102 -4.658 697.85 -9.180000000000001C698.5980000000001 -13.702000000000002 701.522 -16.864 704.922 -16.864C708.322 -16.864 710.158 -13.702000000000002 709.41 -9.180000000000001C708.662 -4.658 705.738 -1.496 702.3380000000001 -1.496Z M715.802 0.0H718.352L724.71 -13.668000000000001H724.846L726.648 0.0H729.198L735.08 -18.360000000000003H733.176L728.178 -2.346H728.042L726.172 -16.32H724.268L717.808 -2.414H717.672L717.978 -18.360000000000003H716.04Z M741.0300000000001 -1.9720000000000002C740.8260000000001 -0.748 741.642 0.23800000000000002 742.8660000000001 0.23800000000000002C744.0900000000001 0.23800000000000002 745.2460000000001 -0.748 745.45 -1.9720000000000002C745.6540000000001 -3.196 744.8380000000001 -4.182 743.6140000000001 -4.182C742.3900000000001 -4.182 741.234 -3.196 741.0300000000001 -1.9720000000000002Z"/>
  </g>
</svg>
