<svg xmlns="http://www.w3.org/2000/svg" width="793" height="74" viewBox="0 0 793 74" role="img" aria-labelledby="title desc" style="background: transparent;">
  <title id="title">CommitMono 275 Italic preview</title>
  <desc id="desc">Sphinx of black quartz, judge my vow.</desc>
  <style>
    svg { background: transparent; }
    .preview-text { fill: #24292f; }
    @media (prefers-color-scheme: dark) {
      .preview-text { fill: #f0f6fc; }
    }
  </style>
  <g class="preview-text" transform="translate(22.86 46.69)">
    <path d="M1.1900000000000002 -5.882000000000001H3.5020000000000002Q3.366 -4.046 4.743 -2.873Q6.12 -1.7000000000000002 8.398000000000001 -1.7000000000000002Q10.812000000000001 -1.7000000000000002 12.546000000000001 -2.9920000000000004Q14.280000000000001 -4.284000000000001 14.620000000000001 -6.3580000000000005Q15.232000000000001 -9.826 10.506 -10.846L9.180000000000001 -11.152000000000001Q3.0260000000000002 -12.478000000000002 3.91 -17.578000000000003Q4.386 -20.502000000000002 6.664 -22.321Q8.942 -24.14 12.138000000000002 -24.14Q15.198 -24.14 17.068 -22.457Q18.938000000000002 -20.774 18.666 -18.258000000000003H16.388Q16.422 -19.89 15.13 -20.944000000000003Q13.838000000000001 -21.998 11.798 -21.998Q9.622 -21.998 8.109 -20.808Q6.596 -19.618000000000002 6.29 -17.68Q5.746 -14.382000000000001 9.860000000000001 -13.464L11.22 -13.158000000000001Q17.918000000000003 -11.73 17.0 -6.426Q16.490000000000002 -3.4000000000000004 14.008000000000003 -1.4620000000000002Q11.526000000000002 0.47600000000000003 8.092 0.47600000000000003Q4.760000000000001 0.47600000000000003 2.8050000000000006 -1.326Q0.8500000000000001 -3.128 1.1900000000000002 -5.882000000000001Z M25.296000000000003 -18.360000000000003H27.472L26.860000000000003 -14.756H27.03Q29.512 -18.700000000000003 33.456 -18.700000000000003Q36.68600000000001 -18.700000000000003 38.318000000000005 -16.014000000000003Q39.95 -13.328000000000001 39.27 -9.18Q38.59 -5.032 36.023 -2.346Q33.456 0.34 30.226000000000003 0.34Q26.554000000000002 0.34 25.262 -3.196H25.126L23.46 6.800000000000001H21.114ZM32.742000000000004 -16.592000000000002Q30.328000000000003 -16.592000000000002 28.458000000000002 -14.518Q26.588 -12.444 26.044000000000004 -9.18Q25.500000000000004 -5.916 26.690000000000005 -3.8420000000000005Q27.880000000000003 -1.7680000000000002 30.260000000000005 -1.7680000000000002Q32.67400000000001 -1.7680000000000002 34.510000000000005 -3.825Q36.346000000000004 -5.882000000000001 36.89 -9.180000000000001Q37.434000000000005 -12.478000000000002 36.278000000000006 -14.535000000000002Q35.122 -16.592000000000002 32.742000000000004 -16.592000000000002Z M43.316 0.0 47.498000000000005 -25.16H49.84400000000001L48.246 -15.572000000000001H48.416000000000004Q50.55800000000001 -18.700000000000003 54.06 -18.700000000000003Q56.57600000000001 -18.700000000000003 57.851000000000006 -16.966Q59.126000000000005 -15.232000000000001 58.650000000000006 -12.41L56.57600000000001 0.0H54.230000000000004L56.27 -12.206000000000001Q56.61000000000001 -14.246 55.777 -15.470000000000002Q54.944 -16.694000000000003 53.24400000000001 -16.694000000000003Q51.17 -16.694000000000003 49.521 -14.96Q47.87200000000001 -13.226 47.43000000000001 -10.574000000000002L45.662000000000006 0.0Z M63.274 0.0 63.614000000000004 -2.0740000000000003H69.292L71.638 -16.286H66.13000000000001L66.504 -18.360000000000003H74.358L71.638 -2.0740000000000003H77.316L76.976 0.0ZM71.434 -24.446Q71.604 -25.398000000000003 72.386 -26.044000000000004Q73.168 -26.69 74.086 -26.69Q75.03800000000001 -26.69 75.58200000000001 -26.044000000000004Q76.126 -25.398000000000003 75.956 -24.446Q75.82000000000001 -23.494000000000003 75.055 -22.848000000000003Q74.29 -22.202 73.338 -22.202Q72.386 -22.202 71.842 -22.848000000000003Q71.298 -23.494000000000003 71.434 -24.446Z M83.30000000000001 0.0 86.36000000000001 -18.360000000000003H88.53600000000002L88.02600000000001 -15.402000000000001H88.162Q90.37200000000001 -18.700000000000003 94.01 -18.700000000000003Q96.59400000000001 -18.700000000000003 97.852 -16.966Q99.11000000000001 -15.232000000000001 98.63400000000001 -12.41L96.56 0.0H94.21400000000001L96.254 -12.206000000000001Q96.59400000000001 -14.280000000000001 95.778 -15.487000000000002Q94.962 -16.694000000000003 93.22800000000001 -16.694000000000003Q91.12 -16.694000000000003 89.488 -14.977000000000002Q87.85600000000001 -13.260000000000002 87.41400000000002 -10.574000000000002L85.64600000000002 0.0Z M103.25800000000001 0.0 111.14600000000002 -9.486 106.86200000000001 -18.360000000000003H109.61600000000001L112.98200000000001 -11.152000000000001L118.76200000000001 -18.360000000000003H121.41400000000002L114.24000000000001 -9.554L118.96600000000001 0.0H116.21200000000002L112.40400000000001 -7.854000000000001L105.94400000000002 0.0Z M157.36900000000003 -2.346Q154.66600000000003 0.34 151.23200000000003 0.34Q147.798 0.34 146.013 -2.346Q144.228 -5.032 144.90800000000002 -9.18Q145.58800000000002 -13.328000000000001 148.291 -16.014000000000003Q150.994 -18.700000000000003 154.428 -18.700000000000003Q157.86200000000002 -18.700000000000003 159.64700000000002 -16.014000000000003Q161.43200000000002 -13.328000000000001 160.752 -9.18Q160.072 -5.032 157.36900000000003 -2.346ZM151.60600000000002 -1.7680000000000002Q154.02 -1.7680000000000002 155.924 -3.8420000000000005Q157.828 -5.916 158.372 -9.18Q158.916 -12.444 157.709 -14.518Q156.502 -16.592000000000002 154.08800000000002 -16.592000000000002Q151.64000000000001 -16.592000000000002 149.73600000000002 -14.518Q147.83200000000002 -12.444 147.288 -9.18Q146.744 -5.916 147.95100000000002 -3.8420000000000005Q149.15800000000002 -1.7680000000000002 151.60600000000002 -1.7680000000000002Z M170.306 0.0 172.99200000000002 -16.286H167.65400000000002L168.02800000000002 -18.360000000000003H173.366L173.502 -19.176000000000002Q174.01200000000003 -22.270000000000003 175.74600000000004 -23.885000000000005Q177.48000000000002 -25.500000000000004 180.30200000000002 -25.500000000000004Q182.37600000000003 -25.500000000000004 183.63400000000001 -24.684L183.294 -22.746000000000002Q181.96800000000002 -23.528000000000002 180.30200000000002 -23.528000000000002Q176.562 -23.528000000000002 175.848 -19.176000000000002L175.71200000000002 -18.360000000000003H182.24L181.866 -16.286H175.33800000000002L172.65200000000002 0.0Z M205.42800000000003 0.0 209.61000000000004 -25.16H211.95600000000002L210.29000000000002 -15.13H210.42600000000002Q212.84000000000003 -18.700000000000003 216.58000000000004 -18.700000000000003Q219.81000000000003 -18.700000000000003 221.47600000000003 -15.997000000000002Q223.14200000000002 -13.294 222.46200000000002 -9.180000000000001Q221.78200000000004 -5.032 219.23200000000003 -2.346Q216.68200000000002 0.34 213.45200000000003 0.34Q211.51400000000004 0.34 210.20500000000004 -0.6970000000000001Q208.89600000000002 -1.7340000000000002 208.35200000000003 -3.604H208.21600000000004L207.60400000000004 0.0ZM213.45200000000003 -1.7680000000000002Q215.86600000000004 -1.7680000000000002 217.70200000000006 -3.825Q219.53800000000004 -5.882000000000001 220.08200000000005 -9.180000000000001Q220.62600000000003 -12.478000000000002 219.47000000000003 -14.535000000000002Q218.31400000000002 -16.592000000000002 215.93400000000003 -16.592000000000002Q213.52000000000004 -16.592000000000002 211.65000000000003 -14.518Q209.78000000000003 -12.444 209.23600000000005 -9.18Q208.69200000000004 -5.916 209.88200000000003 -3.8420000000000005Q211.07200000000003 -1.7680000000000002 213.45200000000003 -1.7680000000000002Z M226.47400000000002 0.0 226.814 -2.0740000000000003H232.49200000000002L235.994 -23.086000000000002H230.48600000000002L230.86 -25.16H238.714L234.838 -2.0740000000000003H240.51600000000002L240.17600000000002 0.0Z M259.284 -13.226Q259.55600000000004 -14.824000000000002 258.63800000000003 -15.759000000000002Q257.72 -16.694000000000003 255.816 -16.694000000000003Q254.048 -16.694000000000003 252.688 -15.895000000000003Q251.328 -15.096000000000002 250.954 -13.838000000000001H248.64200000000002Q249.11800000000002 -15.946000000000002 251.226 -17.323Q253.334 -18.700000000000003 256.122 -18.700000000000003Q258.978 -18.700000000000003 260.50800000000004 -17.187Q262.038 -15.674000000000001 261.63 -13.192L260.50800000000004 -6.562Q259.76 -2.1420000000000003 260.1 0.0H257.89Q257.652 -1.1560000000000001 257.788 -3.128H257.652Q255.306 0.34 251.36200000000002 0.34Q248.77800000000002 0.34 247.418 -1.207Q246.05800000000002 -2.754 246.466 -5.202Q247.24800000000002 -10.132000000000001 255.0 -10.88L256.97200000000004 -11.05Q258.944 -11.254000000000001 259.284 -13.226ZM258.774 -10.064Q258.026 -9.520000000000001 256.904 -9.418000000000001L255.03400000000002 -9.180000000000001Q252.11 -8.84 250.63100000000003 -7.905Q249.15200000000002 -6.970000000000001 248.846 -5.236000000000001Q248.574 -3.604 249.44100000000003 -2.6180000000000003Q250.30800000000002 -1.6320000000000001 252.008 -1.6320000000000001Q254.252 -1.6320000000000001 256.054 -3.247Q257.856 -4.862 258.264 -7.242000000000001Z M279.75200000000007 -4.522H281.99600000000004Q281.24800000000005 -2.3800000000000003 279.14000000000004 -1.0200000000000002Q277.03200000000004 0.34 274.516 0.34Q270.946 0.34 269.076 -2.3630000000000004Q267.206 -5.066000000000001 267.886 -9.214Q268.56600000000003 -13.328000000000001 271.32000000000005 -16.014000000000003Q274.07400000000007 -18.700000000000003 277.61000000000007 -18.700000000000003Q280.12600000000003 -18.700000000000003 281.70700000000005 -17.357000000000003Q283.28800000000007 -16.014000000000003 283.32200000000006 -13.838000000000001H281.04400000000004Q280.874 -15.13 279.83700000000005 -15.878Q278.80000000000007 -16.626 277.27000000000004 -16.626Q274.65200000000004 -16.626 272.71400000000006 -14.569Q270.77600000000007 -12.512 270.232 -9.180000000000001Q269.65400000000005 -5.848000000000001 270.946 -3.7910000000000004Q272.23800000000006 -1.7340000000000002 274.89000000000004 -1.7340000000000002Q276.48800000000006 -1.7340000000000002 277.797 -2.482Q279.10600000000005 -3.2300000000000004 279.75200000000007 -4.522Z M287.742 0.0 291.92400000000004 -25.16H294.27000000000004L291.516 -8.568000000000001L302.32800000000003 -18.360000000000003H305.38800000000003L297.024 -10.88L302.94 0.0H300.084L295.154 -9.180000000000001L291.00600000000003 -5.44L290.088 0.0Z M342.244 -18.360000000000003H344.42L340.23800000000006 6.800000000000001H337.89200000000005L339.55800000000005 -3.196H339.38800000000003Q336.97400000000005 0.34 333.26800000000003 0.34Q330.038 0.34 328.372 -2.3630000000000004Q326.706 -5.066000000000001 327.386 -9.180000000000001Q328.06600000000003 -13.328000000000001 330.61600000000004 -16.014000000000003Q333.16600000000005 -18.700000000000003 336.396 -18.700000000000003Q340.30600000000004 -18.700000000000003 341.49600000000004 -14.756H341.63200000000006ZM336.396 -16.592000000000002Q333.982 -16.592000000000002 332.1460000000001 -14.535000000000002Q330.31000000000006 -12.478000000000002 329.7660000000001 -9.180000000000001Q329.22200000000004 -5.882000000000001 330.37800000000004 -3.825Q331.53400000000005 -1.7680000000000002 333.91400000000004 -1.7680000000000002Q336.32800000000003 -1.7680000000000002 338.19800000000004 -3.8420000000000005Q340.06800000000004 -5.916 340.6120000000001 -9.18Q341.15600000000006 -12.444 339.966 -14.518Q338.776 -16.592000000000002 336.396 -16.592000000000002Z M362.712 -6.12Q362.372 -3.8760000000000003 361.93 0.0H359.72Q359.788 -1.4620000000000002 359.92400000000004 -2.822H359.788Q357.646 0.34 354.076 0.34Q351.492 0.34 350.217 -1.3940000000000001Q348.942 -3.128 349.418 -5.95L351.492 -18.360000000000003H353.838L351.798 -6.154000000000001Q351.458 -4.114 352.29100000000005 -2.89Q353.124 -1.6660000000000001 354.858 -1.6660000000000001Q356.966 -1.6660000000000001 358.581 -3.3830000000000005Q360.196 -5.1000000000000005 360.63800000000003 -7.7860000000000005L362.406 -18.360000000000003H364.752Z M382.50000000000006 -13.226Q382.77200000000005 -14.824000000000002 381.85400000000004 -15.759000000000002Q380.93600000000004 -16.694000000000003 379.03200000000004 -16.694000000000003Q377.26400000000007 -16.694000000000003 375.90400000000005 -15.895000000000003Q374.54400000000004 -15.096000000000002 374.1700000000001 -13.838000000000001H371.85800000000006Q372.33400000000006 -15.946000000000002 374.44200000000006 -17.323Q376.55000000000007 -18.700000000000003 379.338 -18.700000000000003Q382.1940000000001 -18.700000000000003 383.72400000000005 -17.187Q385.254 -15.674000000000001 384.84600000000006 -13.192L383.72400000000005 -6.562Q382.97600000000006 -2.1420000000000003 383.31600000000003 0.0H381.10600000000005Q380.86800000000005 -1.1560000000000001 381.004 -3.128H380.86800000000005Q378.52200000000005 0.34 374.57800000000003 0.34Q371.994 0.34 370.634 -1.207Q369.27400000000006 -2.754 369.6820000000001 -5.202Q370.46400000000006 -10.132000000000001 378.21600000000007 -10.88L380.18800000000005 -11.05Q382.16 -11.254000000000001 382.50000000000006 -13.226ZM381.99000000000007 -10.064Q381.2420000000001 -9.520000000000001 380.12000000000006 -9.418000000000001L378.25000000000006 -9.180000000000001Q375.326 -8.84 373.84700000000004 -7.905Q372.36800000000005 -6.970000000000001 372.06200000000007 -5.236000000000001Q371.79 -3.604 372.65700000000004 -2.6180000000000003Q373.52400000000006 -1.6320000000000001 375.22400000000005 -1.6320000000000001Q377.4680000000001 -1.6320000000000001 379.2700000000001 -3.247Q381.07200000000006 -4.862 381.48 -7.242000000000001Z M393.44800000000004 0.0H391.10200000000003L394.16200000000003 -18.360000000000003H396.338L395.79400000000004 -15.198H395.93Q398.14000000000004 -18.598000000000003 401.744 -18.598000000000003Q403.92 -18.598000000000003 405.127 -17.306000000000004Q406.334 -16.014000000000003 406.232 -13.838000000000001H403.85200000000003Q403.81800000000004 -15.096000000000002 403.00200000000007 -15.810000000000002Q402.18600000000004 -16.524 400.86 -16.524Q398.82000000000005 -16.524 397.22200000000004 -14.841000000000001Q395.624 -13.158000000000001 395.182 -10.506Z M417.07800000000003 -5.984Q416.36400000000003 -1.6320000000000001 420.03600000000006 -1.6320000000000001Q421.63400000000007 -1.6320000000000001 423.36800000000005 -2.414L423.0280000000001 -0.47600000000000003Q421.46400000000006 0.34 419.4580000000001 0.34Q413.71200000000005 0.34 414.7320000000001 -5.984L416.4320000000001 -16.286H411.09400000000005L411.4680000000001 -18.360000000000003H416.80600000000004L417.69000000000005 -23.732000000000003L420.10400000000004 -24.14L419.15200000000004 -18.360000000000003H425.68000000000006L425.30600000000004 -16.286H418.7780000000001Z M429.79400000000004 0.0 430.1 -1.9040000000000001 443.36 -16.32H432.85400000000004L433.194 -18.360000000000003H446.55600000000004L446.25000000000006 -16.456L432.99 -2.04H444.41400000000004L444.074 0.0Z M451.28200000000004 5.338 456.75600000000003 -3.842H460.326L453.56 5.338Z M500.61600000000004 0.8160000000000001Q500.106 3.9440000000000004 498.372 5.542000000000001Q496.63800000000003 7.140000000000001 493.78200000000004 7.140000000000001Q491.776 7.140000000000001 490.48400000000004 6.324000000000001L490.79 4.386Q492.11600000000004 5.168 493.81600000000003 5.168Q497.55600000000004 5.168 498.27000000000004 0.8160000000000001L501.12600000000003 -16.286H494.428L494.76800000000003 -18.360000000000003H503.812ZM501.05800000000005 -24.446Q501.228 -25.398000000000003 502.01 -26.044000000000004Q502.79200000000003 -26.69 503.71000000000004 -26.69Q504.66200000000003 -26.69 505.206 -26.044000000000004Q505.75 -25.398000000000003 505.58000000000004 -24.446Q505.444 -23.494000000000003 504.67900000000003 -22.848000000000003Q503.91400000000004 -22.202 502.96200000000005 -22.202Q502.01000000000005 -22.202 501.466 -22.848000000000003Q500.922 -23.494000000000003 501.05800000000005 -24.446Z M525.504 -6.12Q525.1640000000001 -3.8760000000000003 524.7220000000001 0.0H522.5120000000001Q522.58 -1.4620000000000002 522.716 -2.822H522.58Q520.4380000000001 0.34 516.868 0.34Q514.2840000000001 0.34 513.009 -1.3940000000000001Q511.73400000000004 -3.128 512.21 -5.95L514.2840000000001 -18.360000000000003H516.6300000000001L514.59 -6.154000000000001Q514.25 -4.114 515.0830000000001 -2.89Q515.916 -1.6660000000000001 517.6500000000001 -1.6660000000000001Q519.758 -1.6660000000000001 521.373 -3.3830000000000005Q522.988 -5.1000000000000005 523.4300000000001 -7.7860000000000005L525.1980000000001 -18.360000000000003H527.5440000000001Z M543.9660000000001 0.0Q544.238 -3.2300000000000004 544.272 -3.4000000000000004H544.1360000000001Q541.7220000000001 0.34 537.8800000000001 0.34Q534.6500000000001 0.34 532.9840000000002 -2.3630000000000004Q531.3180000000001 -5.066000000000001 531.998 -9.18Q532.6780000000001 -13.294 535.2450000000001 -15.997000000000002Q537.8120000000001 -18.700000000000003 541.0420000000001 -18.700000000000003Q544.714 -18.700000000000003 546.0060000000001 -15.164000000000001H546.142L547.8080000000001 -25.16H550.1540000000001L546.9920000000001 -6.12Q546.652 -3.8760000000000003 546.21 0.0ZM538.662 -1.7680000000000002Q541.0420000000001 -1.7680000000000002 542.8610000000001 -3.825Q544.6800000000001 -5.882000000000001 545.224 -9.180000000000001Q545.7680000000001 -12.512 544.6630000000001 -14.552000000000001Q543.5580000000001 -16.592000000000002 541.1780000000001 -16.592000000000002Q538.7640000000001 -16.592000000000002 536.8430000000001 -14.501000000000001Q534.9220000000001 -12.41 534.3780000000002 -9.18Q533.8340000000001 -5.95 535.041 -3.859Q536.248 -1.7680000000000002 538.662 -1.7680000000000002Z M564.3660000000001 -3.8760000000000003H564.23Q561.9520000000001 -0.68 558.6540000000001 -0.68Q555.662 -0.68 554.047 -3.2640000000000002Q552.432 -5.848000000000001 553.078 -9.690000000000001Q553.724 -13.532000000000002 556.155 -16.116000000000003Q558.586 -18.700000000000003 561.5780000000001 -18.700000000000003Q565.114 -18.700000000000003 566.2360000000001 -15.164000000000001H566.4060000000001L566.916 -18.360000000000003H569.0920000000001L565.9300000000001 0.544Q565.488 3.366 563.142 5.253Q560.796 7.140000000000001 557.7700000000001 7.140000000000001Q554.9820000000001 7.140000000000001 553.2650000000001 5.542000000000001Q551.5480000000001 3.9440000000000004 551.7520000000001 1.53H554.0980000000001Q554.0300000000001 3.06 555.1690000000001 4.046Q556.3080000000001 5.032 558.11 5.032Q560.1840000000001 5.032 561.731 3.757Q563.278 2.482 563.5840000000001 0.544ZM559.3000000000001 -2.7880000000000003Q561.4420000000001 -2.7880000000000003 563.1930000000001 -4.743Q564.9440000000001 -6.698 565.4200000000001 -9.690000000000001Q565.8960000000001 -12.682 564.825 -14.637Q563.754 -16.592000000000002 561.6120000000001 -16.592000000000002Q559.436 -16.592000000000002 557.6850000000001 -14.637Q555.9340000000001 -12.682 555.4580000000001 -9.690000000000001Q554.9480000000001 -6.698 556.0360000000001 -4.743Q557.124 -2.7880000000000003 559.3000000000001 -2.7880000000000003Z M576.402 -8.874Q575.96 -5.644 577.2180000000001 -3.7060000000000004Q578.476 -1.7680000000000002 581.0260000000001 -1.7680000000000002Q582.59 -1.7680000000000002 583.8820000000001 -2.4990000000000006Q585.1740000000001 -3.2300000000000004 585.854 -4.522H588.0640000000001Q587.214 -2.346 585.157 -1.0030000000000001Q583.1 0.34 580.618 0.34Q577.082 0.34 575.263 -2.3800000000000003Q573.4440000000001 -5.1000000000000005 574.158 -9.316Q574.8380000000001 -13.430000000000001 577.422 -16.065Q580.0060000000001 -18.700000000000003 583.3720000000001 -18.700000000000003Q586.6360000000001 -18.700000000000003 588.2850000000001 -16.218000000000004Q589.9340000000001 -13.736 589.288 -9.792000000000002L589.118 -8.874ZM583.066 -16.626Q580.9580000000001 -16.626 579.258 -15.028000000000002Q577.558 -13.430000000000001 576.7760000000001 -10.744000000000002H587.1460000000001Q587.4860000000001 -13.396 586.3470000000001 -15.011000000000001Q585.2080000000001 -16.626 583.066 -16.626Z M611.626 0.0 614.686 -18.360000000000003H616.828L616.522 -16.422H616.658Q617.202 -17.476000000000003 618.154 -18.088Q619.106 -18.700000000000003 620.262 -18.700000000000003Q621.554 -18.700000000000003 622.3530000000001 -17.935000000000002Q623.152 -17.17 623.22 -15.844000000000001H623.356Q624.818 -18.700000000000003 627.674 -18.700000000000003Q629.612 -18.700000000000003 630.496 -17.357000000000003Q631.38 -16.014000000000003 631.006 -13.702000000000002L628.728 0.0H626.382L628.626 -13.464Q628.898 -14.994000000000002 628.4390000000001 -15.878Q627.98 -16.762 626.926 -16.762Q625.702 -16.762 624.716 -15.657Q623.73 -14.552000000000001 623.458 -12.818000000000001L621.316 0.0H619.004L621.248 -13.464Q621.486 -14.994000000000002 621.027 -15.878Q620.568 -16.762 619.514 -16.762Q618.29 -16.762 617.3209999999999 -15.64Q616.352 -14.518 616.08 -12.784L613.938 0.0Z M633.7940000000001 4.590000000000001Q634.7800000000001 4.930000000000001 635.7320000000001 4.930000000000001Q637.296 4.930000000000001 638.452 4.029Q639.6080000000001 3.128 640.7640000000001 1.02L641.2740000000001 0.068L637.5680000000001 -18.360000000000003H640.0160000000001L642.94 -3.0940000000000003H643.0760000000001L651.032 -18.360000000000003H653.412L642.7360000000001 1.7340000000000002Q639.9820000000001 6.970000000000001 635.7660000000001 6.970000000000001Q634.6440000000001 6.970000000000001 633.488 6.596Z M679.6600000000001 0.0 676.6 -18.360000000000003H679.014L681.5640000000001 -2.482H681.7L689.35 -18.360000000000003H691.696L682.686 0.0Z M707.251 -2.346Q704.548 0.34 701.114 0.34Q697.6800000000001 0.34 695.895 -2.346Q694.11 -5.032 694.79 -9.18Q695.47 -13.328000000000001 698.173 -16.014000000000003Q700.876 -18.700000000000003 704.31 -18.700000000000003Q707.744 -18.700000000000003 709.529 -16.014000000000003Q711.3140000000001 -13.328000000000001 710.634 -9.18Q709.9540000000001 -5.032 707.251 -2.346ZM701.488 -1.7680000000000002Q703.902 -1.7680000000000002 705.806 -3.8420000000000005Q707.71 -5.916 708.254 -9.18Q708.798 -12.444 707.591 -14.518Q706.384 -16.592000000000002 703.97 -16.592000000000002Q701.522 -16.592000000000002 699.618 -14.518Q697.714 -12.444 697.1700000000001 -9.18Q696.626 -5.916 697.8330000000001 -3.8420000000000005Q699.0400000000001 -1.7680000000000002 701.488 -1.7680000000000002Z M716.244 0.0 716.618 -18.360000000000003H718.794L718.386 -2.6860000000000004H718.522L724.71 -16.32H726.954L728.62 -2.6180000000000003H728.756L733.55 -18.360000000000003H735.76L729.98 0.0H727.022L725.424 -13.430000000000001H725.288L719.202 0.0Z M745.6200000000001 -2.108Q745.484 -1.1560000000000001 744.6680000000001 -0.4590000000000001Q743.8520000000001 0.23800000000000002 742.8660000000001 0.23800000000000002Q741.8800000000001 0.23800000000000002 741.3020000000001 -0.44200000000000006Q740.724 -1.122 740.894 -2.108Q741.0640000000001 -3.0940000000000003 741.863 -3.7910000000000004Q742.662 -4.488 743.6480000000001 -4.488Q744.6340000000001 -4.488 745.2120000000001 -3.7910000000000004Q745.7900000000001 -3.0940000000000003 745.6200000000001 -2.108Z"/>
  </g>
</svg>
