<svg xmlns="http://www.w3.org/2000/svg" width="667" height="71" viewBox="0 0 667 71" role="img" aria-labelledby="title desc" style="background: transparent;">
  <title id="title">Departure Mono Condensed Regular preview</title>
  <desc id="desc">Sphinx of black quartz, judge my vow.</desc>
  <style>
    svg { background: transparent; }
    .preview-text { fill: #24292f; }
    @media (prefers-color-scheme: dark) {
      .preview-text { fill: #f0f6fc; }
    }
  </style>
  <g class="preview-text" transform="translate(21.34 44.73)">
    <path d="M2.658181818181818 -21.636363636363637H5.007272727272728V-15.454545454545455H2.658181818181818ZM5.007272727272728 -15.454545454545455H12.054545454545455V-12.363636363636363H5.007272727272728ZM12.054545454545455 -3.090909090909091V0.0H5.007272727272728V-3.090909090909091ZM5.007272727272728 -3.090909090909091H2.658181818181818V-6.181818181818182H5.007272727272728ZM12.054545454545455 -12.363636363636363H14.403636363636364V-3.090909090909091H12.054545454545455ZM5.007272727272728 -24.727272727272727H12.054545454545455V-21.636363636363637H5.007272727272728ZM12.054545454545455 -21.636363636363637H14.403636363636364V-18.545454545454547H12.054545454545455Z M19.658181818181816 -18.545454545454547H22.007272727272728V-15.454545454545455H24.356363636363636V-12.363636363636363H22.007272727272728V-6.181818181818182H24.356363636363636V-3.090909090909091H22.007272727272728V6.181818181818182H19.658181818181816ZM24.356363636363636 -18.545454545454547H29.054545454545455V-15.454545454545455H24.356363636363636ZM29.054545454545455 -15.454545454545455H31.403636363636366V-3.090909090909091H29.054545454545455ZM24.356363636363636 -3.090909090909091H29.054545454545455V0.0H24.356363636363636Z M36.658181818181816 -24.727272727272727H39.00727272727273V-15.454545454545455H41.35636363636364V-12.363636363636363H39.00727272727273V0.0H36.658181818181816ZM46.054545454545455 -15.454545454545455H48.403636363636366V0.0H46.054545454545455ZM41.35636363636364 -18.545454545454547H46.054545454545455V-15.454545454545455H41.35636363636364Z M58.35636363636364 -15.454545454545455H53.658181818181816V-18.545454545454547H60.70545454545454V-3.090909090909091H65.40363636363637V0.0H53.658181818181816V-3.090909090909091H58.35636363636364ZM58.35636363636364 -24.727272727272727H60.70545454545454V-21.636363636363637H58.35636363636364Z M70.65818181818182 -18.545454545454547H73.00727272727272V-15.454545454545455H75.35636363636364V-12.363636363636363H73.00727272727272V0.0H70.65818181818182ZM75.35636363636364 -18.545454545454547H80.05454545454546V-15.454545454545455H75.35636363636364ZM80.05454545454546 -15.454545454545455H82.40363636363637V0.0H80.05454545454546Z M87.65818181818182 -18.545454545454547H90.00727272727272V-15.454545454545455H87.65818181818182ZM97.05454545454546 -18.545454545454547H99.40363636363637V-15.454545454545455H97.05454545454546ZM87.65818181818182 -6.181818181818182H90.00727272727272V0.0H87.65818181818182ZM94.70545454545454 -15.454545454545455H97.05454545454546V-12.363636363636363H94.70545454545454ZM90.00727272727272 -15.454545454545455H92.35636363636364V-12.363636363636363H90.00727272727272ZM92.35636363636364 -12.363636363636363H94.70545454545454V-9.272727272727273H92.35636363636364ZM90.00727272727272 -9.272727272727273H92.35636363636364V-6.181818181818182H90.00727272727272ZM94.70545454545454 -9.272727272727273H97.05454545454546V-6.181818181818182H94.70545454545454ZM97.05454545454546 -6.181818181818182H99.40363636363637V0.0H97.05454545454546Z M124.00727272727272 -18.545454545454547H131.05454545454546V-15.454545454545455H124.00727272727272ZM131.05454545454546 -15.454545454545455H133.40363636363637V-3.090909090909091H131.05454545454546ZM121.65818181818182 -15.454545454545455H124.00727272727272V-3.090909090909091H121.65818181818182ZM124.00727272727272 -3.090909090909091H131.05454545454546V0.0H124.00727272727272Z M141.00727272727272 -15.454545454545455H138.65818181818182V-18.545454545454547H141.00727272727272V-21.636363636363637H143.35636363636362V-18.545454545454547H150.40363636363637V-15.454545454545455H143.35636363636362V-3.090909090909091H148.05454545454546V0.0H138.65818181818182V-3.090909090909091H141.00727272727272ZM143.35636363636362 -24.727272727272727H150.40363636363637V-21.636363636363637H143.35636363636362Z M172.65818181818182 -24.727272727272727H175.00727272727272V-15.454545454545455H177.35636363636362V-12.363636363636363H175.00727272727272V-6.181818181818182H177.35636363636362V-3.090909090909091H175.00727272727272V0.0H172.65818181818182ZM177.35636363636362 -3.090909090909091H182.05454545454546V0.0H177.35636363636362ZM182.05454545454546 -15.454545454545455H184.40363636363637V-3.090909090909091H182.05454545454546ZM177.35636363636362 -18.545454545454547H182.05454545454546V-15.454545454545455H177.35636363636362Z M194.35636363636362 -21.636363636363637H189.65818181818182V-24.727272727272727H196.70545454545456V-3.090909090909091H201.40363636363637V0.0H189.65818181818182V-3.090909090909091H194.35636363636362Z M206.65818181818182 -9.272727272727273H209.00727272727272V-3.090909090909091H206.65818181818182ZM209.00727272727272 -3.090909090909091H213.70545454545456V0.0H209.00727272727272ZM213.70545454545456 -6.181818181818182H216.05454545454546V-9.272727272727273H209.00727272727272V-12.363636363636363H216.05454545454546V-15.454545454545455H218.40363636363637V0.0H216.05454545454546V-3.090909090909091H213.70545454545456ZM209.00727272727272 -18.545454545454547H216.05454545454546V-15.454545454545455H209.00727272727272Z M226.00727272727272 -18.545454545454547H233.05454545454546V-15.454545454545455H226.00727272727272ZM223.65818181818182 -15.454545454545455H226.00727272727272V-3.090909090909091H223.65818181818182ZM226.00727272727272 -3.090909090909091H233.05454545454546V0.0H226.00727272727272ZM233.05454545454546 -15.454545454545455H235.40363636363637V-12.363636363636363H233.05454545454546ZM233.05454545454546 -6.181818181818182H235.40363636363637V-3.090909090909091H233.05454545454546Z M240.65818181818182 -24.727272727272727H243.00727272727272V-9.272727272727273H245.35636363636362V-12.363636363636363H247.70545454545456V-6.181818181818182H243.00727272727272V0.0H240.65818181818182ZM250.05454545454546 -18.545454545454547H252.40363636363637V-15.454545454545455H250.05454545454546ZM247.70545454545456 -15.454545454545455H250.05454545454546V-12.363636363636363H247.70545454545456ZM247.70545454545456 -6.181818181818182H250.05454545454546V-3.090909090909091H247.70545454545456ZM250.05454545454546 -3.090909090909091H252.40363636363637V0.0H250.05454545454546Z M277.0072727272727 -18.545454545454547H281.70545454545453V-15.454545454545455H277.0072727272727ZM281.70545454545453 -15.454545454545455H284.05454545454546V-18.545454545454547H286.40363636363634V6.181818181818182H284.05454545454546V-3.090909090909091H281.70545454545453V-6.181818181818182H284.05454545454546V-12.363636363636363H281.70545454545453ZM274.65818181818184 -15.454545454545455H277.0072727272727V-3.090909090909091H274.65818181818184ZM277.0072727272727 -3.090909090909091H281.70545454545453V0.0H277.0072727272727Z M291.65818181818184 -18.545454545454547H294.0072727272727V-3.090909090909091H291.65818181818184ZM294.0072727272727 -3.090909090909091H298.70545454545453V0.0H294.0072727272727ZM301.05454545454546 -18.545454545454547H303.40363636363634V0.0H301.05454545454546V-3.090909090909091H298.70545454545453V-6.181818181818182H301.05454545454546Z M308.65818181818184 -9.272727272727273H311.0072727272727V-3.090909090909091H308.65818181818184ZM311.0072727272727 -3.090909090909091H315.70545454545453V0.0H311.0072727272727ZM315.70545454545453 -6.181818181818182H318.05454545454546V-9.272727272727273H311.0072727272727V-12.363636363636363H318.05454545454546V-15.454545454545455H320.40363636363634V0.0H318.05454545454546V-3.090909090909091H315.70545454545453ZM311.0072727272727 -18.545454545454547H318.05454545454546V-15.454545454545455H311.0072727272727Z M330.35636363636365 -18.545454545454547V-15.454545454545455H332.70545454545453V-12.363636363636363H330.35636363636365V-3.090909090909091H335.05454545454546V0.0H325.65818181818184V-3.090909090909091H328.0072727272727V-15.454545454545455H325.65818181818184V-18.545454545454547ZM337.40363636363634 -18.545454545454547V-15.454545454545455H332.70545454545453V-18.545454545454547Z M345.0072727272727 -24.727272727272727H347.35636363636365V-18.545454545454547H354.40363636363634V-15.454545454545455H347.35636363636365V-3.090909090909091H345.0072727272727V-15.454545454545455H342.65818181818184V-18.545454545454547H345.0072727272727ZM347.35636363636365 -3.090909090909091H352.05454545454546V0.0H347.35636363636365ZM352.05454545454546 -6.181818181818182H354.40363636363634V-3.090909090909091H352.05454545454546Z M359.65818181818184 -18.545454545454547H371.40363636363634V-15.454545454545455H369.05454545454546V-12.363636363636363H366.70545454545453V-15.454545454545455H359.65818181818184ZM364.35636363636365 -12.363636363636363H366.70545454545453V-9.272727272727273H364.35636363636365ZM362.0072727272727 -9.272727272727273H364.35636363636365V-6.181818181818182H362.0072727272727ZM359.65818181818184 -6.181818181818182H362.0072727272727V-3.090909090909091H371.40363636363634V0.0H359.65818181818184Z M381.35636363636365 -6.181818181818182H383.70545454545453V0.0H381.35636363636365ZM379.0072727272727 0.0H381.35636363636365V3.090909090909091H379.0072727272727Z M417.70545454545453 -24.727272727272727H420.05454545454546V-21.636363636363637H417.70545454545453ZM417.70545454545453 -15.454545454545455H413.0072727272727V-18.545454545454547H420.05454545454546V3.090909090909091H417.70545454545453ZM417.70545454545453 3.090909090909091V6.181818181818182H413.0072727272727V3.090909090909091ZM413.0072727272727 3.090909090909091H410.65818181818184V0.0H413.0072727272727Z M427.65818181818184 -18.545454545454547H430.0072727272727V-3.090909090909091H427.65818181818184ZM430.0072727272727 -3.090909090909091H434.70545454545453V0.0H430.0072727272727ZM437.05454545454546 -18.545454545454547H439.40363636363634V0.0H437.05454545454546V-3.090909090909091H434.70545454545453V-6.181818181818182H437.05454545454546Z M454.05454545454546 -24.727272727272727H456.40363636363634V0.0H454.05454545454546V-3.090909090909091H451.70545454545453V-6.181818181818182H454.05454545454546V-12.363636363636363H451.70545454545453V-15.454545454545455H454.05454545454546ZM451.70545454545453 -3.090909090909091V0.0H447.0072727272727V-3.090909090909091ZM447.0072727272727 -3.090909090909091H444.65818181818184V-15.454545454545455H447.0072727272727ZM451.70545454545453 -15.454545454545455H447.0072727272727V-18.545454545454547H451.70545454545453Z M464.0072727272727 -18.545454545454547H468.70545454545453V-15.454545454545455H464.0072727272727ZM461.65818181818184 -15.454545454545455H464.0072727272727V-3.090909090909091H461.65818181818184ZM464.0072727272727 -3.090909090909091H468.70545454545453V0.0H464.0072727272727ZM464.0072727272727 3.090909090909091H471.05454545454546V6.181818181818182H464.0072727272727ZM468.70545454545453 -6.181818181818182H471.05454545454546V-12.363636363636363H468.70545454545453V-15.454545454545455H471.05454545454546V-18.545454545454547H473.40363636363634V3.090909090909091H471.05454545454546V-3.090909090909091H468.70545454545453Z M481.0072727272727 -18.545454545454547H488.05454545454546V-15.454545454545455H481.0072727272727ZM478.65818181818184 -15.454545454545455H481.0072727272727V-12.363636363636363H488.05454545454546V-15.454545454545455H490.40363636363634V-9.272727272727273H481.0072727272727V-3.090909090909091H478.65818181818184ZM481.0072727272727 -3.090909090909091H488.05454545454546V0.0H481.0072727272727ZM488.05454545454546 -6.181818181818182H490.40363636363634V-3.090909090909091H488.05454545454546Z M512.6581818181818 -18.545454545454547H517.3563636363637V-15.454545454545455H515.0072727272727V0.0H512.6581818181818ZM517.3563636363637 -15.454545454545455H519.7054545454546V0.0H517.3563636363637ZM522.0545454545454 -15.454545454545455H519.7054545454546V-18.545454545454547H522.0545454545454ZM522.0545454545454 -15.454545454545455H524.4036363636363V0.0H522.0545454545454Z M529.6581818181818 -18.545454545454547H532.0072727272727V-9.272727272727273H529.6581818181818ZM539.0545454545454 -18.545454545454547H541.4036363636363V-9.272727272727273H539.0545454545454ZM534.3563636363637 -3.090909090909091H536.7054545454546V3.090909090909091H534.3563636363637ZM534.3563636363637 3.090909090909091V6.181818181818182H529.6581818181818V3.090909090909091ZM536.7054545454546 -9.272727272727273H539.0545454545454V-3.090909090909091H536.7054545454546ZM532.0072727272727 -9.272727272727273H534.3563636363637V-3.090909090909091H532.0072727272727Z M563.6581818181818 -18.545454545454547H566.0072727272727V-9.272727272727273H563.6581818181818ZM573.0545454545454 -18.545454545454547H575.4036363636363V-9.272727272727273H573.0545454545454ZM568.3563636363637 -3.090909090909091H566.0072727272727V-9.272727272727273H568.3563636363637ZM568.3563636363637 -3.090909090909091H570.7054545454546V0.0H568.3563636363637ZM570.7054545454546 -9.272727272727273H573.0545454545454V-3.090909090909091H570.7054545454546Z M583.0072727272727 -18.545454545454547H590.0545454545454V-15.454545454545455H583.0072727272727ZM590.0545454545454 -15.454545454545455H592.4036363636363V-3.090909090909091H590.0545454545454ZM580.6581818181818 -15.454545454545455H583.0072727272727V-3.090909090909091H580.6581818181818ZM583.0072727272727 -3.090909090909091H590.0545454545454V0.0H583.0072727272727Z M597.6581818181818 -18.545454545454547H600.0072727272727V-3.090909090909091H597.6581818181818ZM607.0545454545454 -18.545454545454547H609.4036363636363V0.0H604.7054545454546V-3.090909090909091H607.0545454545454ZM604.7054545454546 -3.090909090909091H602.3563636363637V-18.545454545454547H604.7054545454546ZM600.0072727272727 -3.090909090909091H602.3563636363637V0.0H600.0072727272727Z M619.3563636363637 -6.181818181818182H621.7054545454546V0.0H619.3563636363637Z"/>
  </g>
</svg>
