<svg xmlns="http://www.w3.org/2000/svg" width="756" height="71" viewBox="0 0 756 71" role="img" aria-labelledby="title desc" style="background: transparent;">
  <title id="title">Departure Mono Compact Regular preview</title>
  <desc id="desc">Sphinx of black quartz, judge my vow.</desc>
  <style>
    svg { background: transparent; }
    .preview-text { fill: #24292f; }
    @media (prefers-color-scheme: dark) {
      .preview-text { fill: #f0f6fc; }
    }
  </style>
  <g class="preview-text" transform="translate(22.02 44.73)">
    <path d="M1.9781818181818183 -21.636363636363637H5.069090909090909V-15.454545454545455H1.9781818181818183ZM5.069090909090909 -15.454545454545455H14.341818181818182V-12.363636363636363H5.069090909090909ZM14.341818181818182 -3.090909090909091V0.0H5.069090909090909V-3.090909090909091ZM5.069090909090909 -3.090909090909091H1.9781818181818183V-6.181818181818182H5.069090909090909ZM14.341818181818182 -12.363636363636363H17.432727272727274V-3.090909090909091H14.341818181818182ZM5.069090909090909 -24.727272727272727H14.341818181818182V-21.636363636363637H5.069090909090909ZM14.341818181818182 -21.636363636363637H17.432727272727274V-18.545454545454547H14.341818181818182Z M21.389090909090907 -18.545454545454547H24.48V-15.454545454545455H27.57090909090909V-12.363636363636363H24.48V-6.181818181818182H27.57090909090909V-3.090909090909091H24.48V6.181818181818182H21.389090909090907ZM27.57090909090909 -18.545454545454547H33.75272727272727V-15.454545454545455H27.57090909090909ZM33.75272727272727 -15.454545454545455H36.843636363636364V-3.090909090909091H33.75272727272727ZM27.57090909090909 -3.090909090909091H33.75272727272727V0.0H27.57090909090909Z M40.8 -24.727272727272727H43.89090909090909V-15.454545454545455H46.981818181818184V-12.363636363636363H43.89090909090909V0.0H40.8ZM53.163636363636364 -15.454545454545455H56.25454545454545V0.0H53.163636363636364ZM46.981818181818184 -18.545454545454547H53.163636363636364V-15.454545454545455H46.981818181818184Z M66.39272727272727 -15.454545454545455H60.21090909090909V-18.545454545454547H69.48363636363636V-3.090909090909091H75.66545454545455V0.0H60.21090909090909V-3.090909090909091H66.39272727272727ZM66.39272727272727 -24.727272727272727H69.48363636363636V-21.636363636363637H66.39272727272727Z M79.62181818181818 -18.545454545454547H82.71272727272726V-15.454545454545455H85.80363636363636V-12.363636363636363H82.71272727272726V0.0H79.62181818181818ZM85.80363636363636 -18.545454545454547H91.98545454545454V-15.454545454545455H85.80363636363636ZM91.98545454545454 -15.454545454545455H95.07636363636364V0.0H91.98545454545454Z M99.03272727272729 -18.545454545454547H102.12363636363636V-15.454545454545455H99.03272727272729ZM111.39636363636365 -18.545454545454547H114.48727272727274V-15.454545454545455H111.39636363636365ZM99.03272727272729 -6.181818181818182H102.12363636363636V0.0H99.03272727272729ZM108.30545454545455 -15.454545454545455H111.39636363636365V-12.363636363636363H108.30545454545455ZM102.12363636363636 -15.454545454545455H105.21454545454546V-12.363636363636363H102.12363636363636ZM105.21454545454546 -12.363636363636363H108.30545454545455V-9.272727272727273H105.21454545454546ZM102.12363636363636 -9.272727272727273H105.21454545454546V-6.181818181818182H102.12363636363636ZM108.30545454545455 -9.272727272727273H111.39636363636365V-6.181818181818182H108.30545454545455ZM111.39636363636365 -6.181818181818182H114.48727272727274V0.0H111.39636363636365Z M140.94545454545454 -18.545454545454547H150.21818181818182V-15.454545454545455H140.94545454545454ZM150.21818181818182 -15.454545454545455H153.3090909090909V-3.090909090909091H150.21818181818182ZM137.85454545454544 -15.454545454545455H140.94545454545454V-3.090909090909091H137.85454545454544ZM140.94545454545454 -3.090909090909091H150.21818181818182V0.0H140.94545454545454Z M160.35636363636362 -15.454545454545455H157.26545454545453V-18.545454545454547H160.35636363636362V-21.636363636363637H163.44727272727272V-18.545454545454547H172.72V-15.454545454545455H163.44727272727272V-3.090909090909091H169.6290909090909V0.0H157.26545454545453V-3.090909090909091H160.35636363636362ZM163.44727272727272 -24.727272727272727H172.72V-21.636363636363637H163.44727272727272Z M196.08727272727273 -24.727272727272727H199.17818181818183V-15.454545454545455H202.26909090909092V-12.363636363636363H199.17818181818183V-6.181818181818182H202.26909090909092V-3.090909090909091H199.17818181818183V0.0H196.08727272727273ZM202.26909090909092 -3.090909090909091H208.4509090909091V0.0H202.26909090909092ZM208.4509090909091 -15.454545454545455H211.5418181818182V-3.090909090909091H208.4509090909091ZM202.26909090909092 -18.545454545454547H208.4509090909091V-15.454545454545455H202.26909090909092Z M221.68 -21.636363636363637H215.49818181818182V-24.727272727272727H224.7709090909091V-3.090909090909091H230.9527272727273V0.0H215.49818181818182V-3.090909090909091H221.68Z M234.9090909090909 -9.272727272727273H238.0V-3.090909090909091H234.9090909090909ZM238.0 -3.090909090909091H244.1818181818182V0.0H238.0ZM244.1818181818182 -6.181818181818182H247.27272727272728V-9.272727272727273H238.0V-12.363636363636363H247.27272727272728V-15.454545454545455H250.36363636363637V0.0H247.27272727272728V-3.090909090909091H244.1818181818182ZM238.0 -18.545454545454547H247.27272727272728V-15.454545454545455H238.0Z M257.4109090909091 -18.545454545454547H266.68363636363637V-15.454545454545455H257.4109090909091ZM254.32 -15.454545454545455H257.4109090909091V-3.090909090909091H254.32ZM257.4109090909091 -3.090909090909091H266.68363636363637V0.0H257.4109090909091ZM266.68363636363637 -15.454545454545455H269.77454545454543V-12.363636363636363H266.68363636363637ZM266.68363636363637 -6.181818181818182H269.77454545454543V-3.090909090909091H266.68363636363637Z M273.7309090909091 -24.727272727272727H276.8218181818182V-9.272727272727273H279.9127272727273V-12.363636363636363H283.00363636363636V-6.181818181818182H276.8218181818182V0.0H273.7309090909091ZM286.0945454545454 -18.545454545454547H289.18545454545455V-15.454545454545455H286.0945454545454ZM283.00363636363636 -15.454545454545455H286.0945454545454V-12.363636363636363H283.00363636363636ZM283.00363636363636 -6.181818181818182H286.0945454545454V-3.090909090909091H283.00363636363636ZM286.0945454545454 -3.090909090909091H289.18545454545455V0.0H286.0945454545454Z M315.64363636363635 -18.545454545454547H321.82545454545453V-15.454545454545455H315.64363636363635ZM321.82545454545453 -15.454545454545455H324.9163636363636V-18.545454545454547H328.0072727272727V6.181818181818182H324.9163636363636V-3.090909090909091H321.82545454545453V-6.181818181818182H324.9163636363636V-12.363636363636363H321.82545454545453ZM312.5527272727273 -15.454545454545455H315.64363636363635V-3.090909090909091H312.5527272727273ZM315.64363636363635 -3.090909090909091H321.82545454545453V0.0H315.64363636363635Z M331.9636363636364 -18.545454545454547H335.05454545454546V-3.090909090909091H331.9636363636364ZM335.05454545454546 -3.090909090909091H341.23636363636365V0.0H335.05454545454546ZM344.3272727272727 -18.545454545454547H347.41818181818184V0.0H344.3272727272727V-3.090909090909091H341.23636363636365V-6.181818181818182H344.3272727272727Z M351.3745454545455 -9.272727272727273H354.4654545454546V-3.090909090909091H351.3745454545455ZM354.4654545454546 -3.090909090909091H360.64727272727276V0.0H354.4654545454546ZM360.64727272727276 -6.181818181818182H363.73818181818183V-9.272727272727273H354.4654545454546V-12.363636363636363H363.73818181818183V-15.454545454545455H366.82909090909095V0.0H363.73818181818183V-3.090909090909091H360.64727272727276ZM354.4654545454546 -18.545454545454547H363.73818181818183V-15.454545454545455H354.4654545454546Z M376.96727272727276 -18.545454545454547V-15.454545454545455H380.0581818181818V-12.363636363636363H376.96727272727276V-3.090909090909091H383.1490909090909V0.0H370.78545454545457V-3.090909090909091H373.87636363636364V-15.454545454545455H370.78545454545457V-18.545454545454547ZM386.24 -18.545454545454547V-15.454545454545455H380.0581818181818V-18.545454545454547Z M393.28727272727275 -24.727272727272727H396.3781818181819V-18.545454545454547H405.6509090909091V-15.454545454545455H396.3781818181819V-3.090909090909091H393.28727272727275V-15.454545454545455H390.1963636363637V-18.545454545454547H393.28727272727275ZM396.3781818181819 -3.090909090909091H402.56V0.0H396.3781818181819ZM402.56 -6.181818181818182H405.6509090909091V-3.090909090909091H402.56Z M409.60727272727274 -18.545454545454547H425.0618181818182V-15.454545454545455H421.97090909090906V-12.363636363636363H418.88V-15.454545454545455H409.60727272727274ZM415.78909090909093 -12.363636363636363H418.88V-9.272727272727273H415.78909090909093ZM412.6981818181818 -9.272727272727273H415.78909090909093V-6.181818181818182H412.6981818181818ZM409.60727272727274 -6.181818181818182H412.6981818181818V-3.090909090909091H425.0618181818182V0.0H409.60727272727274Z M436.74545454545455 -6.181818181818182H439.83636363636367V0.0H436.74545454545455ZM433.6545454545455 0.0H436.74545454545455V3.090909090909091H433.6545454545455Z M478.65818181818184 -24.727272727272727H481.7490909090909V-21.636363636363637H478.65818181818184ZM478.65818181818184 -15.454545454545455H472.47636363636366V-18.545454545454547H481.7490909090909V3.090909090909091H478.65818181818184ZM478.65818181818184 3.090909090909091V6.181818181818182H472.47636363636366V3.090909090909091ZM472.47636363636366 3.090909090909091H469.38545454545454V0.0H472.47636363636366Z M487.25090909090915 -18.545454545454547H490.3418181818182V-3.090909090909091H487.25090909090915ZM490.3418181818182 -3.090909090909091H496.5236363636364V0.0H490.3418181818182ZM499.61454545454546 -18.545454545454547H502.7054545454546V0.0H499.61454545454546V-3.090909090909091H496.5236363636364V-6.181818181818182H499.61454545454546Z M519.0254545454545 -24.727272727272727H522.1163636363636V0.0H519.0254545454545V-3.090909090909091H515.9345454545455V-6.181818181818182H519.0254545454545V-12.363636363636363H515.9345454545455V-15.454545454545455H519.0254545454545ZM515.9345454545455 -3.090909090909091V0.0H509.75272727272727V-3.090909090909091ZM509.75272727272727 -3.090909090909091H506.6618181818182V-15.454545454545455H509.75272727272727ZM515.9345454545455 -15.454545454545455H509.75272727272727V-18.545454545454547H515.9345454545455Z M529.1636363636364 -18.545454545454547H535.3454545454546V-15.454545454545455H529.1636363636364ZM526.0727272727273 -15.454545454545455H529.1636363636364V-3.090909090909091H526.0727272727273ZM529.1636363636364 -3.090909090909091H535.3454545454546V0.0H529.1636363636364ZM529.1636363636364 3.090909090909091H538.4363636363637V6.181818181818182H529.1636363636364ZM535.3454545454546 -6.181818181818182H538.4363636363637V-12.363636363636363H535.3454545454546V-15.454545454545455H538.4363636363637V-18.545454545454547H541.5272727272727V3.090909090909091H538.4363636363637V-3.090909090909091H535.3454545454546Z M548.5745454545455 -18.545454545454547H557.8472727272728V-15.454545454545455H548.5745454545455ZM545.4836363636364 -15.454545454545455H548.5745454545455V-12.363636363636363H557.8472727272728V-15.454545454545455H560.9381818181818V-9.272727272727273H548.5745454545455V-3.090909090909091H545.4836363636364ZM548.5745454545455 -3.090909090909091H557.8472727272728V0.0H548.5745454545455ZM557.8472727272728 -6.181818181818182H560.9381818181818V-3.090909090909091H557.8472727272728Z M584.3054545454546 -18.545454545454547H590.4872727272727V-15.454545454545455H587.3963636363637V0.0H584.3054545454546ZM590.4872727272727 -15.454545454545455H593.5781818181819V0.0H590.4872727272727ZM596.669090909091 -15.454545454545455H593.5781818181819V-18.545454545454547H596.669090909091ZM596.669090909091 -15.454545454545455H599.76V0.0H596.669090909091Z M603.7163636363637 -18.545454545454547H606.8072727272728V-9.272727272727273H603.7163636363637ZM616.08 -18.545454545454547H619.170909090909V-9.272727272727273H616.08ZM609.8981818181818 -3.090909090909091H612.9890909090909V3.090909090909091H609.8981818181818ZM609.8981818181818 3.090909090909091V6.181818181818182H603.7163636363637V3.090909090909091ZM612.9890909090909 -9.272727272727273H616.08V-3.090909090909091H612.9890909090909ZM606.8072727272728 -9.272727272727273H609.8981818181818V-3.090909090909091H606.8072727272728Z M642.5381818181819 -18.545454545454547H645.629090909091V-9.272727272727273H642.5381818181819ZM654.9018181818183 -18.545454545454547H657.9927272727273V-9.272727272727273H654.9018181818183ZM648.72 -3.090909090909091H645.629090909091V-9.272727272727273H648.72ZM648.72 -3.090909090909091H651.8109090909091V0.0H648.72ZM651.8109090909091 -9.272727272727273H654.9018181818183V-3.090909090909091H651.8109090909091Z M665.0400000000001 -18.545454545454547H674.3127272727273V-15.454545454545455H665.0400000000001ZM674.3127272727273 -15.454545454545455H677.4036363636363V-3.090909090909091H674.3127272727273ZM661.949090909091 -15.454545454545455H665.0400000000001V-3.090909090909091H661.949090909091ZM665.0400000000001 -3.090909090909091H674.3127272727273V0.0H665.0400000000001Z M681.36 -18.545454545454547H684.4509090909091V-3.090909090909091H681.36ZM693.7236363636364 -18.545454545454547H696.8145454545454V0.0H690.6327272727273V-3.090909090909091H693.7236363636364ZM690.6327272727273 -3.090909090909091H687.5418181818181V-18.545454545454547H690.6327272727273ZM684.4509090909091 -3.090909090909091H687.5418181818181V0.0H684.4509090909091Z M706.9527272727273 -6.181818181818182H710.0436363636364V0.0H706.9527272727273Z"/>
  </g>
</svg>
