<svg xmlns="http://www.w3.org/2000/svg" width="836" height="95" viewBox="0 0 836 95" role="img" aria-labelledby="title desc">
  <title id="title">Departure Mono Regular Sonic preview</title>
  <desc id="desc">Sphinx of black quartz, judge my vow.</desc>
  <rect width="100%" height="100%" rx="10" fill="#0d1117"/>
  <text x="24" y="34" fill="#8b949e" font-family="ui-monospace, SFMono-Regular, Menlo, Consolas, monospace" font-size="16">Departure Mono Regular Sonic</text>
  <g transform="translate(20.91 70.73)" fill="#f0f6fc">
    <path d="M3.090909090909091 -21.636363636363637V-15.454545454545455H6.181818181818182V-21.636363636363637ZM6.181818181818182 -15.454545454545455V-12.363636363636363H15.454545454545455V-15.454545454545455ZM15.454545454545455 -3.090909090909091H6.181818181818182V0.0H15.454545454545455ZM6.181818181818182 -3.090909090909091V-6.181818181818182H3.090909090909091V-3.090909090909091ZM15.454545454545455 -12.363636363636363V-3.090909090909091H18.545454545454547V-12.363636363636363ZM6.181818181818182 -24.727272727272727V-21.636363636363637H15.454545454545455V-24.727272727272727ZM15.454545454545455 -21.636363636363637V-18.545454545454547H18.545454545454547V-21.636363636363637Z M24.727272727272727 -18.545454545454547V6.181818181818182H27.81818181818182V-3.090909090909091H30.90909090909091V-6.181818181818182H27.81818181818182V-12.363636363636363H30.90909090909091V-15.454545454545455H27.81818181818182V-18.545454545454547ZM30.90909090909091 -18.545454545454547V-15.454545454545455H37.09090909090909V-18.545454545454547ZM37.09090909090909 -15.454545454545455V-3.090909090909091H40.18181818181819V-15.454545454545455ZM30.90909090909091 -3.090909090909091V0.0H37.09090909090909V-3.090909090909091Z M46.36363636363637 -24.727272727272727V0.0H49.45454545454545V-12.363636363636363H52.54545454545455V-15.454545454545455H49.45454545454545V-24.727272727272727ZM58.72727272727273 -15.454545454545455V0.0H61.81818181818182V-15.454545454545455ZM52.54545454545455 -18.545454545454547V-15.454545454545455H58.72727272727273V-18.545454545454547Z M74.18181818181819 -15.454545454545455V-3.090909090909091H68.0V0.0H83.45454545454545V-3.090909090909091H77.27272727272727V-18.545454545454547H68.0V-15.454545454545455ZM74.18181818181819 -24.727272727272727V-21.636363636363637H77.27272727272727V-24.727272727272727Z M89.63636363636364 -18.545454545454547V0.0H92.72727272727273V-12.363636363636363H95.81818181818181V-15.454545454545455H92.72727272727273V-18.545454545454547ZM95.81818181818181 -18.545454545454547V-15.454545454545455H102.0V-18.545454545454547ZM102.0 -15.454545454545455V0.0H105.0909090909091V-15.454545454545455Z M111.27272727272728 -18.545454545454547V-15.454545454545455H114.36363636363637V-18.545454545454547ZM123.63636363636364 -18.545454545454547V-15.454545454545455H126.72727272727273V-18.545454545454547ZM111.27272727272728 -6.181818181818182V0.0H114.36363636363637V-6.181818181818182ZM120.54545454545455 -15.454545454545455V-12.363636363636363H123.63636363636364V-15.454545454545455ZM114.36363636363637 -15.454545454545455V-12.363636363636363H117.45454545454547V-15.454545454545455ZM117.45454545454547 -12.363636363636363V-9.272727272727273H120.54545454545455V-12.363636363636363ZM114.36363636363637 -9.272727272727273V-6.181818181818182H117.45454545454547V-9.272727272727273ZM120.54545454545455 -9.272727272727273V-6.181818181818182H123.63636363636364V-9.272727272727273ZM123.63636363636364 -6.181818181818182V0.0H126.72727272727273V-6.181818181818182Z M157.63636363636365 -18.545454545454547V-15.454545454545455H166.90909090909093V-18.545454545454547ZM166.90909090909093 -15.454545454545455V-3.090909090909091H170.0V-15.454545454545455ZM154.54545454545456 -15.454545454545455V-3.090909090909091H157.63636363636365V-15.454545454545455ZM157.63636363636365 -3.090909090909091V0.0H166.90909090909093V-3.090909090909091Z M179.27272727272728 -15.454545454545455V-3.090909090909091H176.1818181818182V0.0H188.54545454545456V-3.090909090909091H182.36363636363637V-15.454545454545455H191.63636363636363V-18.545454545454547H182.36363636363637V-21.636363636363637H179.27272727272728V-18.545454545454547H176.1818181818182V-15.454545454545455ZM182.36363636363637 -24.727272727272727V-21.636363636363637H191.63636363636363V-24.727272727272727Z M219.45454545454547 -24.727272727272727V0.0H222.54545454545456V-3.090909090909091H225.63636363636365V-6.181818181818182H222.54545454545456V-12.363636363636363H225.63636363636365V-15.454545454545455H222.54545454545456V-24.727272727272727ZM225.63636363636365 -3.090909090909091V0.0H231.81818181818184V-3.090909090909091ZM231.81818181818184 -15.454545454545455V-3.090909090909091H234.90909090909093V-15.454545454545455ZM225.63636363636365 -18.545454545454547V-15.454545454545455H231.81818181818184V-18.545454545454547Z M247.27272727272728 -21.636363636363637V-3.090909090909091H241.0909090909091V0.0H256.54545454545456V-3.090909090909091H250.36363636363637V-24.727272727272727H241.0909090909091V-21.636363636363637Z M262.7272727272727 -9.272727272727273V-3.090909090909091H265.8181818181818V-9.272727272727273ZM265.8181818181818 -3.090909090909091V0.0H272.0V-3.090909090909091ZM272.0 -6.181818181818182V-3.090909090909091H275.09090909090907V0.0H278.1818181818182V-15.454545454545455H275.09090909090907V-12.363636363636363H265.8181818181818V-9.272727272727273H275.09090909090907V-6.181818181818182ZM265.8181818181818 -18.545454545454547V-15.454545454545455H275.09090909090907V-18.545454545454547Z M287.4545454545455 -18.545454545454547V-15.454545454545455H296.72727272727275V-18.545454545454547ZM284.3636363636364 -15.454545454545455V-3.090909090909091H287.4545454545455V-15.454545454545455ZM287.4545454545455 -3.090909090909091V0.0H296.72727272727275V-3.090909090909091ZM296.72727272727275 -15.454545454545455V-12.363636363636363H299.81818181818187V-15.454545454545455ZM296.72727272727275 -6.181818181818182V-3.090909090909091H299.81818181818187V-6.181818181818182Z M306.0 -24.727272727272727V0.0H309.0909090909091V-6.181818181818182H315.2727272727273V-12.363636363636363H312.1818181818182V-9.272727272727273H309.0909090909091V-24.727272727272727ZM318.3636363636364 -18.545454545454547V-15.454545454545455H321.4545454545455V-18.545454545454547ZM315.2727272727273 -15.454545454545455V-12.363636363636363H318.3636363636364V-15.454545454545455ZM315.2727272727273 -6.181818181818182V-3.090909090909091H318.3636363636364V-6.181818181818182ZM318.3636363636364 -3.090909090909091V0.0H321.4545454545455V-3.090909090909091Z M352.3636363636364 -18.545454545454547V-15.454545454545455H358.54545454545456V-18.545454545454547ZM358.54545454545456 -15.454545454545455V-12.363636363636363H361.6363636363636V-6.181818181818182H358.54545454545456V-3.090909090909091H361.6363636363636V6.181818181818182H364.72727272727275V-18.545454545454547H361.6363636363636V-15.454545454545455ZM349.27272727272725 -15.454545454545455V-3.090909090909091H352.3636363636364V-15.454545454545455ZM352.3636363636364 -3.090909090909091V0.0H358.54545454545456V-3.090909090909091Z M370.9090909090909 -18.545454545454547V-3.090909090909091H374.0V-18.545454545454547ZM374.0 -3.090909090909091V0.0H380.1818181818182V-3.090909090909091ZM383.27272727272725 -18.545454545454547V-6.181818181818182H380.1818181818182V-3.090909090909091H383.27272727272725V0.0H386.3636363636364V-18.545454545454547Z M392.54545454545456 -9.272727272727273V-3.090909090909091H395.6363636363637V-9.272727272727273ZM395.6363636363637 -3.090909090909091V0.0H401.81818181818187V-3.090909090909091ZM401.81818181818187 -6.181818181818182V-3.090909090909091H404.90909090909093V0.0H408.00000000000006V-15.454545454545455H404.90909090909093V-12.363636363636363H395.6363636363637V-9.272727272727273H404.90909090909093V-6.181818181818182ZM395.6363636363637 -18.545454545454547V-15.454545454545455H404.90909090909093V-18.545454545454547Z M420.3636363636364 -18.545454545454547H414.1818181818182V-15.454545454545455H417.2727272727273V-3.090909090909091H414.1818181818182V0.0H426.54545454545456V-3.090909090909091H420.3636363636364V-12.363636363636363H423.4545454545455V-15.454545454545455H420.3636363636364ZM429.6363636363637 -18.545454545454547H423.4545454545455V-15.454545454545455H429.6363636363637Z M438.90909090909093 -24.727272727272727V-18.545454545454547H435.8181818181818V-15.454545454545455H438.90909090909093V-3.090909090909091H442.0V-15.454545454545455H451.2727272727273V-18.545454545454547H442.0V-24.727272727272727ZM442.0 -3.090909090909091V0.0H448.1818181818182V-3.090909090909091ZM448.1818181818182 -6.181818181818182V-3.090909090909091H451.2727272727273V-6.181818181818182Z M457.45454545454544 -18.545454545454547V-15.454545454545455H466.72727272727275V-12.363636363636363H469.8181818181818V-15.454545454545455H472.90909090909093V-18.545454545454547ZM463.6363636363636 -12.363636363636363V-9.272727272727273H466.72727272727275V-12.363636363636363ZM460.54545454545456 -9.272727272727273V-6.181818181818182H463.6363636363636V-9.272727272727273ZM457.45454545454544 -6.181818181818182V0.0H472.90909090909093V-3.090909090909091H460.54545454545456V-6.181818181818182Z M485.27272727272725 -6.181818181818182V0.0H488.3636363636364V-6.181818181818182ZM482.1818181818182 0.0V3.090909090909091H485.27272727272725V0.0Z M531.6363636363636 -24.727272727272727V-21.636363636363637H534.7272727272727V-24.727272727272727ZM531.6363636363636 -15.454545454545455V3.090909090909091H534.7272727272727V-18.545454545454547H525.4545454545454V-15.454545454545455ZM531.6363636363636 3.090909090909091H525.4545454545454V6.181818181818182H531.6363636363636ZM525.4545454545454 3.090909090909091V0.0H522.3636363636364V3.090909090909091Z M544.0 -18.545454545454547V-3.090909090909091H547.090909090909V-18.545454545454547ZM547.090909090909 -3.090909090909091V0.0H553.2727272727273V-3.090909090909091ZM556.3636363636364 -18.545454545454547V-6.181818181818182H553.2727272727273V-3.090909090909091H556.3636363636364V0.0H559.4545454545454V-18.545454545454547Z M578.0000000000001 -24.727272727272727V-15.454545454545455H574.909090909091V-12.363636363636363H578.0000000000001V-6.181818181818182H574.909090909091V-3.090909090909091H578.0000000000001V0.0H581.0909090909091V-24.727272727272727ZM574.909090909091 -3.090909090909091H568.7272727272727V0.0H574.909090909091ZM568.7272727272727 -3.090909090909091V-15.454545454545455H565.6363636363637V-3.090909090909091ZM574.909090909091 -15.454545454545455V-18.545454545454547H568.7272727272727V-15.454545454545455Z M590.3636363636364 -18.545454545454547V-15.454545454545455H596.5454545454546V-18.545454545454547ZM587.2727272727274 -15.454545454545455V-3.090909090909091H590.3636363636364V-15.454545454545455ZM590.3636363636364 -3.090909090909091V0.0H596.5454545454546V-3.090909090909091ZM590.3636363636364 3.090909090909091V6.181818181818182H599.6363636363637V3.090909090909091ZM596.5454545454546 -6.181818181818182V-3.090909090909091H599.6363636363637V3.090909090909091H602.7272727272727V-18.545454545454547H599.6363636363637V-15.454545454545455H596.5454545454546V-12.363636363636363H599.6363636363637V-6.181818181818182Z M612.0 -18.545454545454547V-15.454545454545455H621.2727272727274V-18.545454545454547ZM608.909090909091 -15.454545454545455V-3.090909090909091H612.0V-9.272727272727273H624.3636363636364V-15.454545454545455H621.2727272727274V-12.363636363636363H612.0V-15.454545454545455ZM612.0 -3.090909090909091V0.0H621.2727272727274V-3.090909090909091ZM621.2727272727274 -6.181818181818182V-3.090909090909091H624.3636363636364V-6.181818181818182Z M652.1818181818182 -18.545454545454547V0.0H655.2727272727273V-15.454545454545455H658.3636363636364V-18.545454545454547ZM658.3636363636364 -15.454545454545455V0.0H661.4545454545455V-15.454545454545455ZM664.5454545454546 -15.454545454545455V-18.545454545454547H661.4545454545455V-15.454545454545455ZM664.5454545454546 -15.454545454545455V0.0H667.6363636363636V-15.454545454545455Z M673.8181818181819 -18.545454545454547V-9.272727272727273H676.9090909090909V-18.545454545454547ZM686.1818181818182 -18.545454545454547V-9.272727272727273H689.2727272727273V-18.545454545454547ZM680.0 -3.090909090909091V3.090909090909091H683.0909090909091V-3.090909090909091ZM680.0 3.090909090909091H673.8181818181819V6.181818181818182H680.0ZM683.0909090909091 -9.272727272727273V-3.090909090909091H686.1818181818182V-9.272727272727273ZM676.9090909090909 -9.272727272727273V-3.090909090909091H680.0V-9.272727272727273Z M717.0909090909091 -18.545454545454547V-9.272727272727273H720.1818181818181V-18.545454545454547ZM729.4545454545455 -18.545454545454547V-9.272727272727273H732.5454545454545V-18.545454545454547ZM723.2727272727273 -3.090909090909091V-9.272727272727273H720.1818181818181V-3.090909090909091ZM723.2727272727273 -3.090909090909091V0.0H726.3636363636364V-3.090909090909091ZM726.3636363636364 -9.272727272727273V-3.090909090909091H729.4545454545455V-9.272727272727273Z M741.8181818181818 -18.545454545454547V-15.454545454545455H751.0909090909091V-18.545454545454547ZM751.0909090909091 -15.454545454545455V-3.090909090909091H754.1818181818181V-15.454545454545455ZM738.7272727272727 -15.454545454545455V-3.090909090909091H741.8181818181818V-15.454545454545455ZM741.8181818181818 -3.090909090909091V0.0H751.0909090909091V-3.090909090909091Z M760.3636363636364 -18.545454545454547V-3.090909090909091H763.4545454545454V-18.545454545454547ZM772.7272727272727 -18.545454545454547V-3.090909090909091H769.6363636363636V0.0H775.8181818181818V-18.545454545454547ZM769.6363636363636 -3.090909090909091V-18.545454545454547H766.5454545454545V-3.090909090909091ZM763.4545454545454 -3.090909090909091V0.0H766.5454545454545V-3.090909090909091Z M788.1818181818182 -6.181818181818182V0.0H791.2727272727274V-6.181818181818182Z"/>
  </g>
</svg>
