<svg xmlns="http://www.w3.org/2000/svg" width="841" height="71" viewBox="0 0 841 71" role="img" aria-labelledby="title desc">
  <title id="title">Departure Mono Heavy preview</title>
  <desc id="desc">Sphinx of black quartz, judge my vow.</desc>
  <rect width="100%" height="100%" rx="10" fill="#0d1117"/>
  <g transform="translate(23.51 44.73)" fill="#f0f6fc">
    <path d="M0.49454545454545457 -21.636363636363637V-15.454545454545455H3.5854545454545454V-21.636363636363637ZM3.5854545454545454 -15.454545454545455V-12.363636363636363H12.85818181818182V-15.454545454545455ZM12.85818181818182 -3.090909090909091H3.5854545454545454V0.0H12.85818181818182ZM3.5854545454545454 -3.090909090909091V-6.181818181818182H0.49454545454545457V-3.090909090909091ZM12.85818181818182 -12.363636363636363V-3.090909090909091H15.94909090909091V-12.363636363636363ZM3.5854545454545454 -24.727272727272727V-21.636363636363637H12.85818181818182V-24.727272727272727ZM12.85818181818182 -21.636363636363637V-18.545454545454547H15.94909090909091V-21.636363636363637ZM1.7927272727272727 -21.636363636363637V-15.454545454545455H4.883636363636364V-21.636363636363637ZM4.883636363636364 -15.454545454545455V-12.363636363636363H14.156363636363636V-15.454545454545455ZM14.156363636363636 -3.090909090909091H4.883636363636364V0.0H14.156363636363636ZM4.883636363636364 -3.090909090909091V-6.181818181818182H1.7927272727272727V-3.090909090909091ZM14.156363636363636 -12.363636363636363V-3.090909090909091H17.24727272727273V-12.363636363636363ZM4.883636363636364 -24.727272727272727V-21.636363636363637H14.156363636363636V-24.727272727272727ZM14.156363636363636 -21.636363636363637V-18.545454545454547H17.24727272727273V-21.636363636363637ZM3.090909090909091 -21.636363636363637V-15.454545454545455H6.181818181818182V-21.636363636363637ZM6.181818181818182 -15.454545454545455V-12.363636363636363H15.454545454545455V-15.454545454545455ZM15.454545454545455 -3.090909090909091H6.181818181818182V0.0H15.454545454545455ZM6.181818181818182 -3.090909090909091V-6.181818181818182H3.090909090909091V-3.090909090909091ZM15.454545454545455 -12.363636363636363V-3.090909090909091H18.545454545454547V-12.363636363636363ZM6.181818181818182 -24.727272727272727V-21.636363636363637H15.454545454545455V-24.727272727272727ZM15.454545454545455 -21.636363636363637V-18.545454545454547H18.545454545454547V-21.636363636363637ZM4.38909090909091 -21.636363636363637V-15.454545454545455H7.48V-21.636363636363637ZM7.48 -15.454545454545455V-12.363636363636363H16.752727272727274V-15.454545454545455ZM16.752727272727274 -3.090909090909091H7.48V0.0H16.752727272727274ZM7.48 -3.090909090909091V-6.181818181818182H4.38909090909091V-3.090909090909091ZM16.752727272727274 -12.363636363636363V-3.090909090909091H19.843636363636364V-12.363636363636363ZM7.48 -24.727272727272727V-21.636363636363637H16.752727272727274V-24.727272727272727ZM16.752727272727274 -21.636363636363637V-18.545454545454547H19.843636363636364V-21.636363636363637ZM5.6872727272727275 -21.636363636363637V-15.454545454545455H8.77818181818182V-21.636363636363637ZM8.77818181818182 -15.454545454545455V-12.363636363636363H18.05090909090909V-15.454545454545455ZM18.05090909090909 -3.090909090909091H8.77818181818182V0.0H18.05090909090909ZM8.77818181818182 -3.090909090909091V-6.181818181818182H5.6872727272727275V-3.090909090909091ZM18.05090909090909 -12.363636363636363V-3.090909090909091H21.141818181818184V-12.363636363636363ZM8.77818181818182 -24.727272727272727V-21.636363636363637H18.05090909090909V-24.727272727272727ZM18.05090909090909 -21.636363636363637V-18.545454545454547H21.141818181818184V-21.636363636363637Z M22.130909090909093 -18.545454545454547V6.181818181818182H25.221818181818183V-3.090909090909091H28.312727272727273V-6.181818181818182H25.221818181818183V-12.363636363636363H28.312727272727273V-15.454545454545455H25.221818181818183V-18.545454545454547ZM28.312727272727273 -18.545454545454547V-15.454545454545455H34.49454545454546V-18.545454545454547ZM34.49454545454546 -15.454545454545455V-3.090909090909091H37.585454545454546V-15.454545454545455ZM28.312727272727273 -3.090909090909091V0.0H34.49454545454546V-3.090909090909091ZM23.42909090909091 -18.545454545454547V6.181818181818182H26.52V-3.090909090909091H29.61090909090909V-6.181818181818182H26.52V-12.363636363636363H29.61090909090909V-15.454545454545455H26.52V-18.545454545454547ZM29.61090909090909 -18.545454545454547V-15.454545454545455H35.79272727272728V-18.545454545454547ZM35.79272727272728 -15.454545454545455V-3.090909090909091H38.88363636363637V-15.454545454545455ZM29.61090909090909 -3.090909090909091V0.0H35.79272727272728V-3.090909090909091ZM24.727272727272727 -18.545454545454547V6.181818181818182H27.81818181818182V-3.090909090909091H30.90909090909091V-6.181818181818182H27.81818181818182V-12.363636363636363H30.90909090909091V-15.454545454545455H27.81818181818182V-18.545454545454547ZM30.90909090909091 -18.545454545454547V-15.454545454545455H37.09090909090909V-18.545454545454547ZM37.09090909090909 -15.454545454545455V-3.090909090909091H40.18181818181819V-15.454545454545455ZM30.90909090909091 -3.090909090909091V0.0H37.09090909090909V-3.090909090909091ZM26.025454545454547 -18.545454545454547V6.181818181818182H29.116363636363637V-3.090909090909091H32.20727272727273V-6.181818181818182H29.116363636363637V-12.363636363636363H32.20727272727273V-15.454545454545455H29.116363636363637V-18.545454545454547ZM32.20727272727273 -18.545454545454547V-15.454545454545455H38.38909090909091V-18.545454545454547ZM38.38909090909091 -15.454545454545455V-3.090909090909091H41.480000000000004V-15.454545454545455ZM32.20727272727273 -3.090909090909091V0.0H38.38909090909091V-3.090909090909091ZM27.323636363636364 -18.545454545454547V6.181818181818182H30.414545454545454V-3.090909090909091H33.50545454545455V-6.181818181818182H30.414545454545454V-12.363636363636363H33.50545454545455V-15.454545454545455H30.414545454545454V-18.545454545454547ZM33.50545454545455 -18.545454545454547V-15.454545454545455H39.68727272727273V-18.545454545454547ZM39.68727272727273 -15.454545454545455V-3.090909090909091H42.77818181818182V-15.454545454545455ZM33.50545454545455 -3.090909090909091V0.0H39.68727272727273V-3.090909090909091Z M43.767272727272726 -24.727272727272727V0.0H46.85818181818182V-12.363636363636363H49.94909090909091V-15.454545454545455H46.85818181818182V-24.727272727272727ZM56.13090909090909 -15.454545454545455V0.0H59.22181818181818V-15.454545454545455ZM49.94909090909091 -18.545454545454547V-15.454545454545455H56.13090909090909V-18.545454545454547ZM45.06545454545454 -24.727272727272727V0.0H48.156363636363636V-12.363636363636363H51.24727272727273V-15.454545454545455H48.156363636363636V-24.727272727272727ZM57.42909090909091 -15.454545454545455V0.0H60.52V-15.454545454545455ZM51.24727272727273 -18.545454545454547V-15.454545454545455H57.42909090909091V-18.545454545454547ZM46.36363636363637 -24.727272727272727V0.0H49.45454545454545V-12.363636363636363H52.54545454545455V-15.454545454545455H49.45454545454545V-24.727272727272727ZM58.72727272727273 -15.454545454545455V0.0H61.81818181818182V-15.454545454545455ZM52.54545454545455 -18.545454545454547V-15.454545454545455H58.72727272727273V-18.545454545454547ZM47.661818181818184 -24.727272727272727V0.0H50.75272727272727V-12.363636363636363H53.843636363636364V-15.454545454545455H50.75272727272727V-24.727272727272727ZM60.02545454545455 -15.454545454545455V0.0H63.11636363636364V-15.454545454545455ZM53.843636363636364 -18.545454545454547V-15.454545454545455H60.02545454545455V-18.545454545454547ZM48.96 -24.727272727272727V0.0H52.050909090909094V-12.363636363636363H55.14181818181818V-15.454545454545455H52.050909090909094V-24.727272727272727ZM61.32363636363637 -15.454545454545455V0.0H64.41454545454546V-15.454545454545455ZM55.14181818181818 -18.545454545454547V-15.454545454545455H61.32363636363637V-18.545454545454547Z M71.58545454545454 -15.454545454545455V-3.090909090909091H65.40363636363637V0.0H80.85818181818182V-3.090909090909091H74.67636363636363V-18.545454545454547H65.40363636363637V-15.454545454545455ZM71.58545454545454 -24.727272727272727V-21.636363636363637H74.67636363636363V-24.727272727272727ZM72.88363636363636 -15.454545454545455V-3.090909090909091H66.70181818181818V0.0H82.15636363636364V-3.090909090909091H75.97454545454545V-18.545454545454547H66.70181818181818V-15.454545454545455ZM72.88363636363636 -24.727272727272727V-21.636363636363637H75.97454545454545V-24.727272727272727ZM74.18181818181819 -15.454545454545455V-3.090909090909091H68.0V0.0H83.45454545454545V-3.090909090909091H77.27272727272727V-18.545454545454547H68.0V-15.454545454545455ZM74.18181818181819 -24.727272727272727V-21.636363636363637H77.27272727272727V-24.727272727272727ZM75.48 -15.454545454545455V-3.090909090909091H69.29818181818182V0.0H84.75272727272727V-3.090909090909091H78.57090909090908V-18.545454545454547H69.29818181818182V-15.454545454545455ZM75.48 -24.727272727272727V-21.636363636363637H78.57090909090908V-24.727272727272727ZM76.77818181818182 -15.454545454545455V-3.090909090909091H70.59636363636363V0.0H86.05090909090909V-3.090909090909091H79.86909090909091V-18.545454545454547H70.59636363636363V-15.454545454545455ZM76.77818181818182 -24.727272727272727V-21.636363636363637H79.86909090909091V-24.727272727272727Z M87.04 -18.545454545454547V0.0H90.13090909090909V-12.363636363636363H93.22181818181818V-15.454545454545455H90.13090909090909V-18.545454545454547ZM93.22181818181818 -18.545454545454547V-15.454545454545455H99.40363636363637V-18.545454545454547ZM99.40363636363637 -15.454545454545455V0.0H102.49454545454546V-15.454545454545455ZM88.33818181818182 -18.545454545454547V0.0H91.42909090909092V-12.363636363636363H94.52V-15.454545454545455H91.42909090909092V-18.545454545454547ZM94.52 -18.545454545454547V-15.454545454545455H100.70181818181818V-18.545454545454547ZM100.70181818181818 -15.454545454545455V0.0H103.79272727272728V-15.454545454545455ZM89.63636363636364 -18.545454545454547V0.0H92.72727272727273V-12.363636363636363H95.81818181818181V-15.454545454545455H92.72727272727273V-18.545454545454547ZM95.81818181818181 -18.545454545454547V-15.454545454545455H102.0V-18.545454545454547ZM102.0 -15.454545454545455V0.0H105.0909090909091V-15.454545454545455ZM90.93454545454546 -18.545454545454547V0.0H94.02545454545455V-12.363636363636363H97.11636363636364V-15.454545454545455H94.02545454545455V-18.545454545454547ZM97.11636363636364 -18.545454545454547V-15.454545454545455H103.29818181818182V-18.545454545454547ZM103.29818181818182 -15.454545454545455V0.0H106.38909090909091V-15.454545454545455ZM92.23272727272727 -18.545454545454547V0.0H95.32363636363637V-12.363636363636363H98.41454545454546V-15.454545454545455H95.32363636363637V-18.545454545454547ZM98.41454545454546 -18.545454545454547V-15.454545454545455H104.59636363636363V-18.545454545454547ZM104.59636363636363 -15.454545454545455V0.0H107.68727272727273V-15.454545454545455Z M108.67636363636365 -18.545454545454547V-15.454545454545455H111.76727272727273V-18.545454545454547ZM121.04 -18.545454545454547V-15.454545454545455H124.1309090909091V-18.545454545454547ZM108.67636363636365 -6.181818181818182V0.0H111.76727272727273V-6.181818181818182ZM117.94909090909091 -15.454545454545455V-12.363636363636363H121.04V-15.454545454545455ZM111.76727272727273 -15.454545454545455V-12.363636363636363H114.85818181818182V-15.454545454545455ZM114.85818181818182 -12.363636363636363V-9.272727272727273H117.94909090909091V-12.363636363636363ZM111.76727272727273 -9.272727272727273V-6.181818181818182H114.85818181818182V-9.272727272727273ZM117.94909090909091 -9.272727272727273V-6.181818181818182H121.04V-9.272727272727273ZM121.04 -6.181818181818182V0.0H124.1309090909091V-6.181818181818182ZM109.97454545454546 -18.545454545454547V-15.454545454545455H113.06545454545456V-18.545454545454547ZM122.33818181818182 -18.545454545454547V-15.454545454545455H125.42909090909092V-18.545454545454547ZM109.97454545454546 -6.181818181818182V0.0H113.06545454545456V-6.181818181818182ZM119.24727272727273 -15.454545454545455V-12.363636363636363H122.33818181818182V-15.454545454545455ZM113.06545454545456 -15.454545454545455V-12.363636363636363H116.15636363636364V-15.454545454545455ZM116.15636363636364 -12.363636363636363V-9.272727272727273H119.24727272727273V-12.363636363636363ZM113.06545454545456 -9.272727272727273V-6.181818181818182H116.15636363636364V-9.272727272727273ZM119.24727272727273 -9.272727272727273V-6.181818181818182H122.33818181818182V-9.272727272727273ZM122.33818181818182 -6.181818181818182V0.0H125.42909090909092V-6.181818181818182ZM111.27272727272728 -18.545454545454547V-15.454545454545455H114.36363636363637V-18.545454545454547ZM123.63636363636364 -18.545454545454547V-15.454545454545455H126.72727272727273V-18.545454545454547ZM111.27272727272728 -6.181818181818182V0.0H114.36363636363637V-6.181818181818182ZM120.54545454545455 -15.454545454545455V-12.363636363636363H123.63636363636364V-15.454545454545455ZM114.36363636363637 -15.454545454545455V-12.363636363636363H117.45454545454547V-15.454545454545455ZM117.45454545454547 -12.363636363636363V-9.272727272727273H120.54545454545455V-12.363636363636363ZM114.36363636363637 -9.272727272727273V-6.181818181818182H117.45454545454547V-9.272727272727273ZM120.54545454545455 -9.272727272727273V-6.181818181818182H123.63636363636364V-9.272727272727273ZM123.63636363636364 -6.181818181818182V0.0H126.72727272727273V-6.181818181818182ZM112.5709090909091 -18.545454545454547V-15.454545454545455H115.66181818181819V-18.545454545454547ZM124.93454545454546 -18.545454545454547V-15.454545454545455H128.02545454545455V-18.545454545454547ZM112.5709090909091 -6.181818181818182V0.0H115.66181818181819V-6.181818181818182ZM121.84363636363636 -15.454545454545455V-12.363636363636363H124.93454545454546V-15.454545454545455ZM115.66181818181819 -15.454545454545455V-12.363636363636363H118.75272727272728V-15.454545454545455ZM118.75272727272728 -12.363636363636363V-9.272727272727273H121.84363636363636V-12.363636363636363ZM115.66181818181819 -9.272727272727273V-6.181818181818182H118.75272727272728V-9.272727272727273ZM121.84363636363636 -9.272727272727273V-6.181818181818182H124.93454545454546V-9.272727272727273ZM124.93454545454546 -6.181818181818182V0.0H128.02545454545455V-6.181818181818182ZM113.86909090909091 -18.545454545454547V-15.454545454545455H116.96000000000001V-18.545454545454547ZM126.23272727272727 -18.545454545454547V-15.454545454545455H129.32363636363638V-18.545454545454547ZM113.86909090909091 -6.181818181818182V0.0H116.96000000000001V-6.181818181818182ZM123.1418181818182 -15.454545454545455V-12.363636363636363H126.23272727272727V-15.454545454545455ZM116.96000000000001 -15.454545454545455V-12.363636363636363H120.0509090909091V-15.454545454545455ZM120.0509090909091 -12.363636363636363V-9.272727272727273H123.1418181818182V-12.363636363636363ZM116.96000000000001 -9.272727272727273V-6.181818181818182H120.0509090909091V-9.272727272727273ZM123.1418181818182 -9.272727272727273V-6.181818181818182H126.23272727272727V-9.272727272727273ZM126.23272727272727 -6.181818181818182V0.0H129.32363636363638V-6.181818181818182Z M155.04000000000002 -18.545454545454547V-15.454545454545455H164.31272727272727V-18.545454545454547ZM164.31272727272727 -15.454545454545455V-3.090909090909091H167.40363636363637V-15.454545454545455ZM151.94909090909093 -15.454545454545455V-3.090909090909091H155.04000000000002V-15.454545454545455ZM155.04000000000002 -3.090909090909091V0.0H164.31272727272727V-3.090909090909091ZM156.33818181818182 -18.545454545454547V-15.454545454545455H165.6109090909091V-18.545454545454547ZM165.6109090909091 -15.454545454545455V-3.090909090909091H168.7018181818182V-15.454545454545455ZM153.24727272727273 -15.454545454545455V-3.090909090909091H156.33818181818182V-15.454545454545455ZM156.33818181818182 -3.090909090909091V0.0H165.6109090909091V-3.090909090909091ZM157.63636363636365 -18.545454545454547V-15.454545454545455H166.90909090909093V-18.545454545454547ZM166.90909090909093 -15.454545454545455V-3.090909090909091H170.0V-15.454545454545455ZM154.54545454545456 -15.454545454545455V-3.090909090909091H157.63636363636365V-15.454545454545455ZM157.63636363636365 -3.090909090909091V0.0H166.90909090909093V-3.090909090909091ZM158.93454545454546 -18.545454545454547V-15.454545454545455H168.20727272727274V-18.545454545454547ZM168.20727272727274 -15.454545454545455V-3.090909090909091H171.29818181818183V-15.454545454545455ZM155.84363636363636 -15.454545454545455V-3.090909090909091H158.93454545454546V-15.454545454545455ZM158.93454545454546 -3.090909090909091V0.0H168.20727272727274V-3.090909090909091ZM160.2327272727273 -18.545454545454547V-15.454545454545455H169.50545454545457V-18.545454545454547ZM169.50545454545457 -15.454545454545455V-3.090909090909091H172.59636363636366V-15.454545454545455ZM157.1418181818182 -15.454545454545455V-3.090909090909091H160.2327272727273V-15.454545454545455ZM160.2327272727273 -3.090909090909091V0.0H169.50545454545457V-3.090909090909091Z M176.67636363636365 -15.454545454545455V-3.090909090909091H173.58545454545455V0.0H185.9490909090909V-3.090909090909091H179.76727272727274V-15.454545454545455H189.04V-18.545454545454547H179.76727272727274V-21.636363636363637H176.67636363636365V-18.545454545454547H173.58545454545455V-15.454545454545455ZM179.76727272727274 -24.727272727272727V-21.636363636363637H189.04V-24.727272727272727ZM177.97454545454545 -15.454545454545455V-3.090909090909091H174.88363636363636V0.0H187.24727272727273V-3.090909090909091H181.06545454545454V-15.454545454545455H190.33818181818182V-18.545454545454547H181.06545454545454V-21.636363636363637H177.97454545454545V-18.545454545454547H174.88363636363636V-15.454545454545455ZM181.06545454545454 -24.727272727272727V-21.636363636363637H190.33818181818182V-24.727272727272727ZM179.27272727272728 -15.454545454545455V-3.090909090909091H176.1818181818182V0.0H188.54545454545456V-3.090909090909091H182.36363636363637V-15.454545454545455H191.63636363636363V-18.545454545454547H182.36363636363637V-21.636363636363637H179.27272727272728V-18.545454545454547H176.1818181818182V-15.454545454545455ZM182.36363636363637 -24.727272727272727V-21.636363636363637H191.63636363636363V-24.727272727272727ZM180.57090909090908 -15.454545454545455V-3.090909090909091H177.48V0.0H189.84363636363636V-3.090909090909091H183.66181818181818V-15.454545454545455H192.93454545454546V-18.545454545454547H183.66181818181818V-21.636363636363637H180.57090909090908V-18.545454545454547H177.48V-15.454545454545455ZM183.66181818181818 -24.727272727272727V-21.636363636363637H192.93454545454546V-24.727272727272727ZM181.86909090909091 -15.454545454545455V-3.090909090909091H178.77818181818182V0.0H191.1418181818182V-3.090909090909091H184.96V-15.454545454545455H194.2327272727273V-18.545454545454547H184.96V-21.636363636363637H181.86909090909091V-18.545454545454547H178.77818181818182V-15.454545454545455ZM184.96 -24.727272727272727V-21.636363636363637H194.2327272727273V-24.727272727272727Z M216.85818181818183 -24.727272727272727V0.0H219.94909090909093V-3.090909090909091H223.04000000000002V-6.181818181818182H219.94909090909093V-12.363636363636363H223.04000000000002V-15.454545454545455H219.94909090909093V-24.727272727272727ZM223.04000000000002 -3.090909090909091V0.0H229.2218181818182V-3.090909090909091ZM229.2218181818182 -15.454545454545455V-3.090909090909091H232.31272727272727V-15.454545454545455ZM223.04000000000002 -18.545454545454547V-15.454545454545455H229.2218181818182V-18.545454545454547ZM218.15636363636364 -24.727272727272727V0.0H221.24727272727273V-3.090909090909091H224.33818181818182V-6.181818181818182H221.24727272727273V-12.363636363636363H224.33818181818182V-15.454545454545455H221.24727272727273V-24.727272727272727ZM224.33818181818182 -3.090909090909091V0.0H230.52V-3.090909090909091ZM230.52 -15.454545454545455V-3.090909090909091H233.6109090909091V-15.454545454545455ZM224.33818181818182 -18.545454545454547V-15.454545454545455H230.52V-18.545454545454547ZM219.45454545454547 -24.727272727272727V0.0H222.54545454545456V-3.090909090909091H225.63636363636365V-6.181818181818182H222.54545454545456V-12.363636363636363H225.63636363636365V-15.454545454545455H222.54545454545456V-24.727272727272727ZM225.63636363636365 -3.090909090909091V0.0H231.81818181818184V-3.090909090909091ZM231.81818181818184 -15.454545454545455V-3.090909090909091H234.90909090909093V-15.454545454545455ZM225.63636363636365 -18.545454545454547V-15.454545454545455H231.81818181818184V-18.545454545454547ZM220.75272727272727 -24.727272727272727V0.0H223.84363636363636V-3.090909090909091H226.93454545454546V-6.181818181818182H223.84363636363636V-12.363636363636363H226.93454545454546V-15.454545454545455H223.84363636363636V-24.727272727272727ZM226.93454545454546 -3.090909090909091V0.0H233.11636363636364V-3.090909090909091ZM233.11636363636364 -15.454545454545455V-3.090909090909091H236.20727272727274V-15.454545454545455ZM226.93454545454546 -18.545454545454547V-15.454545454545455H233.11636363636364V-18.545454545454547ZM222.0509090909091 -24.727272727272727V0.0H225.1418181818182V-3.090909090909091H228.2327272727273V-6.181818181818182H225.1418181818182V-12.363636363636363H228.2327272727273V-15.454545454545455H225.1418181818182V-24.727272727272727ZM228.2327272727273 -3.090909090909091V0.0H234.41454545454548V-3.090909090909091ZM234.41454545454548 -15.454545454545455V-3.090909090909091H237.50545454545457V-15.454545454545455ZM228.2327272727273 -18.545454545454547V-15.454545454545455H234.41454545454548V-18.545454545454547Z M244.67636363636365 -21.636363636363637V-3.090909090909091H238.49454545454546V0.0H253.9490909090909V-3.090909090909091H247.76727272727274V-24.727272727272727H238.49454545454546V-21.636363636363637ZM245.97454545454545 -21.636363636363637V-3.090909090909091H239.79272727272726V0.0H255.24727272727273V-3.090909090909091H249.06545454545454V-24.727272727272727H239.79272727272726V-21.636363636363637ZM247.27272727272728 -21.636363636363637V-3.090909090909091H241.0909090909091V0.0H256.54545454545456V-3.090909090909091H250.36363636363637V-24.727272727272727H241.0909090909091V-21.636363636363637ZM248.57090909090908 -21.636363636363637V-3.090909090909091H242.3890909090909V0.0H257.8436363636364V-3.090909090909091H251.66181818181818V-24.727272727272727H242.3890909090909V-21.636363636363637ZM249.86909090909091 -21.636363636363637V-3.090909090909091H243.68727272727273V0.0H259.14181818181817V-3.090909090909091H252.96V-24.727272727272727H243.68727272727273V-21.636363636363637Z M260.1309090909091 -9.272727272727273V-3.090909090909091H263.22181818181815V-9.272727272727273ZM263.22181818181815 -3.090909090909091V0.0H269.40363636363634V-3.090909090909091ZM269.40363636363634 -6.181818181818182V-3.090909090909091H272.49454545454546V0.0H275.5854545454545V-15.454545454545455H272.49454545454546V-12.363636363636363H263.22181818181815V-9.272727272727273H272.49454545454546V-6.181818181818182ZM263.22181818181815 -18.545454545454547V-15.454545454545455H272.49454545454546V-18.545454545454547ZM261.4290909090909 -9.272727272727273V-3.090909090909091H264.52V-9.272727272727273ZM264.52 -3.090909090909091V0.0H270.70181818181817V-3.090909090909091ZM270.70181818181817 -6.181818181818182V-3.090909090909091H273.79272727272723V0.0H276.88363636363636V-15.454545454545455H273.79272727272723V-12.363636363636363H264.52V-9.272727272727273H273.79272727272723V-6.181818181818182ZM264.52 -18.545454545454547V-15.454545454545455H273.79272727272723V-18.545454545454547ZM262.7272727272727 -9.272727272727273V-3.090909090909091H265.8181818181818V-9.272727272727273ZM265.8181818181818 -3.090909090909091V0.0H272.0V-3.090909090909091ZM272.0 -6.181818181818182V-3.090909090909091H275.09090909090907V0.0H278.1818181818182V-15.454545454545455H275.09090909090907V-12.363636363636363H265.8181818181818V-9.272727272727273H275.09090909090907V-6.181818181818182ZM265.8181818181818 -18.545454545454547V-15.454545454545455H275.09090909090907V-18.545454545454547ZM264.0254545454545 -9.272727272727273V-3.090909090909091H267.11636363636364V-9.272727272727273ZM267.11636363636364 -3.090909090909091V0.0H273.29818181818183V-3.090909090909091ZM273.29818181818183 -6.181818181818182V-3.090909090909091H276.3890909090909V0.0H279.48V-15.454545454545455H276.3890909090909V-12.363636363636363H267.11636363636364V-9.272727272727273H276.3890909090909V-6.181818181818182ZM267.11636363636364 -18.545454545454547V-15.454545454545455H276.3890909090909V-18.545454545454547ZM265.32363636363635 -9.272727272727273V-3.090909090909091H268.4145454545454V-9.272727272727273ZM268.4145454545454 -3.090909090909091V0.0H274.5963636363636V-3.090909090909091ZM274.5963636363636 -6.181818181818182V-3.090909090909091H277.6872727272727V0.0H280.7781818181818V-15.454545454545455H277.6872727272727V-12.363636363636363H268.4145454545454V-9.272727272727273H277.6872727272727V-6.181818181818182ZM268.4145454545454 -18.545454545454547V-15.454545454545455H277.6872727272727V-18.545454545454547Z M284.85818181818183 -18.545454545454547V-15.454545454545455H294.13090909090914V-18.545454545454547ZM281.76727272727277 -15.454545454545455V-3.090909090909091H284.85818181818183V-15.454545454545455ZM284.85818181818183 -3.090909090909091V0.0H294.13090909090914V-3.090909090909091ZM294.13090909090914 -15.454545454545455V-12.363636363636363H297.2218181818182V-15.454545454545455ZM294.13090909090914 -6.181818181818182V-3.090909090909091H297.2218181818182V-6.181818181818182ZM286.15636363636366 -18.545454545454547V-15.454545454545455H295.429090909091V-18.545454545454547ZM283.0654545454546 -15.454545454545455V-3.090909090909091H286.15636363636366V-15.454545454545455ZM286.15636363636366 -3.090909090909091V0.0H295.429090909091V-3.090909090909091ZM295.429090909091 -15.454545454545455V-12.363636363636363H298.52000000000004V-15.454545454545455ZM295.429090909091 -6.181818181818182V-3.090909090909091H298.52000000000004V-6.181818181818182ZM287.4545454545455 -18.545454545454547V-15.454545454545455H296.72727272727275V-18.545454545454547ZM284.3636363636364 -15.454545454545455V-3.090909090909091H287.4545454545455V-15.454545454545455ZM287.4545454545455 -3.090909090909091V0.0H296.72727272727275V-3.090909090909091ZM296.72727272727275 -15.454545454545455V-12.363636363636363H299.81818181818187V-15.454545454545455ZM296.72727272727275 -6.181818181818182V-3.090909090909091H299.81818181818187V-6.181818181818182ZM288.7527272727273 -18.545454545454547V-15.454545454545455H298.0254545454546V-18.545454545454547ZM285.6618181818182 -15.454545454545455V-3.090909090909091H288.7527272727273V-15.454545454545455ZM288.7527272727273 -3.090909090909091V0.0H298.0254545454546V-3.090909090909091ZM298.0254545454546 -15.454545454545455V-12.363636363636363H301.11636363636364V-15.454545454545455ZM298.0254545454546 -6.181818181818182V-3.090909090909091H301.11636363636364V-6.181818181818182ZM290.0509090909091 -18.545454545454547V-15.454545454545455H299.3236363636364V-18.545454545454547ZM286.96000000000004 -15.454545454545455V-3.090909090909091H290.0509090909091V-15.454545454545455ZM290.0509090909091 -3.090909090909091V0.0H299.3236363636364V-3.090909090909091ZM299.3236363636364 -15.454545454545455V-12.363636363636363H302.4145454545455V-15.454545454545455ZM299.3236363636364 -6.181818181818182V-3.090909090909091H302.4145454545455V-6.181818181818182Z M303.4036363636364 -24.727272727272727V0.0H306.49454545454546V-6.181818181818182H312.67636363636365V-12.363636363636363H309.5854545454546V-9.272727272727273H306.49454545454546V-24.727272727272727ZM315.76727272727277 -18.545454545454547V-15.454545454545455H318.85818181818183V-18.545454545454547ZM312.67636363636365 -15.454545454545455V-12.363636363636363H315.76727272727277V-15.454545454545455ZM312.67636363636365 -6.181818181818182V-3.090909090909091H315.76727272727277V-6.181818181818182ZM315.76727272727277 -3.090909090909091V0.0H318.85818181818183V-3.090909090909091ZM304.7018181818182 -24.727272727272727V0.0H307.7927272727273V-6.181818181818182H313.9745454545455V-12.363636363636363H310.8836363636364V-9.272727272727273H307.7927272727273V-24.727272727272727ZM317.0654545454546 -18.545454545454547V-15.454545454545455H320.15636363636366V-18.545454545454547ZM313.9745454545455 -15.454545454545455V-12.363636363636363H317.0654545454546V-15.454545454545455ZM313.9745454545455 -6.181818181818182V-3.090909090909091H317.0654545454546V-6.181818181818182ZM317.0654545454546 -3.090909090909091V0.0H320.15636363636366V-3.090909090909091ZM306.0 -24.727272727272727V0.0H309.0909090909091V-6.181818181818182H315.2727272727273V-12.363636363636363H312.1818181818182V-9.272727272727273H309.0909090909091V-24.727272727272727ZM318.3636363636364 -18.545454545454547V-15.454545454545455H321.4545454545455V-18.545454545454547ZM315.2727272727273 -15.454545454545455V-12.363636363636363H318.3636363636364V-15.454545454545455ZM315.2727272727273 -6.181818181818182V-3.090909090909091H318.3636363636364V-6.181818181818182ZM318.3636363636364 -3.090909090909091V0.0H321.4545454545455V-3.090909090909091ZM307.29818181818183 -24.727272727272727V0.0H310.38909090909095V-6.181818181818182H316.57090909090914V-12.363636363636363H313.48V-9.272727272727273H310.38909090909095V-24.727272727272727ZM319.6618181818182 -18.545454545454547V-15.454545454545455H322.75272727272727V-18.545454545454547ZM316.57090909090914 -15.454545454545455V-12.363636363636363H319.6618181818182V-15.454545454545455ZM316.57090909090914 -6.181818181818182V-3.090909090909091H319.6618181818182V-6.181818181818182ZM319.6618181818182 -3.090909090909091V0.0H322.75272727272727V-3.090909090909091ZM308.59636363636366 -24.727272727272727V0.0H311.6872727272727V-6.181818181818182H317.8690909090909V-12.363636363636363H314.77818181818185V-9.272727272727273H311.6872727272727V-24.727272727272727ZM320.96000000000004 -18.545454545454547V-15.454545454545455H324.0509090909091V-18.545454545454547ZM317.8690909090909 -15.454545454545455V-12.363636363636363H320.96000000000004V-15.454545454545455ZM317.8690909090909 -6.181818181818182V-3.090909090909091H320.96000000000004V-6.181818181818182ZM320.96000000000004 -3.090909090909091V0.0H324.0509090909091V-3.090909090909091Z M349.7672727272727 -18.545454545454547V-15.454545454545455H355.9490909090909V-18.545454545454547ZM355.9490909090909 -15.454545454545455V-12.363636363636363H359.04V-6.181818181818182H355.9490909090909V-3.090909090909091H359.04V6.181818181818182H362.1309090909091V-18.545454545454547H359.04V-15.454545454545455ZM346.67636363636365 -15.454545454545455V-3.090909090909091H349.7672727272727V-15.454545454545455ZM349.7672727272727 -3.090909090909091V0.0H355.9490909090909V-3.090909090909091ZM351.06545454545454 -18.545454545454547V-15.454545454545455H357.24727272727273V-18.545454545454547ZM357.24727272727273 -15.454545454545455V-12.363636363636363H360.33818181818185V-6.181818181818182H357.24727272727273V-3.090909090909091H360.33818181818185V6.181818181818182H363.4290909090909V-18.545454545454547H360.33818181818185V-15.454545454545455ZM347.9745454545455 -15.454545454545455V-3.090909090909091H351.06545454545454V-15.454545454545455ZM351.06545454545454 -3.090909090909091V0.0H357.24727272727273V-3.090909090909091ZM352.3636363636364 -18.545454545454547V-15.454545454545455H358.54545454545456V-18.545454545454547ZM358.54545454545456 -15.454545454545455V-12.363636363636363H361.6363636363636V-6.181818181818182H358.54545454545456V-3.090909090909091H361.6363636363636V6.181818181818182H364.72727272727275V-18.545454545454547H361.6363636363636V-15.454545454545455ZM349.27272727272725 -15.454545454545455V-3.090909090909091H352.3636363636364V-15.454545454545455ZM352.3636363636364 -3.090909090909091V0.0H358.54545454545456V-3.090909090909091ZM353.6618181818182 -18.545454545454547V-15.454545454545455H359.8436363636364V-18.545454545454547ZM359.8436363636364 -15.454545454545455V-12.363636363636363H362.93454545454546V-6.181818181818182H359.8436363636364V-3.090909090909091H362.93454545454546V6.181818181818182H366.0254545454545V-18.545454545454547H362.93454545454546V-15.454545454545455ZM350.5709090909091 -15.454545454545455V-3.090909090909091H353.6618181818182V-15.454545454545455ZM353.6618181818182 -3.090909090909091V0.0H359.8436363636364V-3.090909090909091ZM354.96 -18.545454545454547V-15.454545454545455H361.14181818181817V-18.545454545454547ZM361.14181818181817 -15.454545454545455V-12.363636363636363H364.2327272727273V-6.181818181818182H361.14181818181817V-3.090909090909091H364.2327272727273V6.181818181818182H367.32363636363635V-18.545454545454547H364.2327272727273V-15.454545454545455ZM351.8690909090909 -15.454545454545455V-3.090909090909091H354.96V-15.454545454545455ZM354.96 -3.090909090909091V0.0H361.14181818181817V-3.090909090909091Z M368.3127272727273 -18.545454545454547V-3.090909090909091H371.40363636363634V-18.545454545454547ZM371.40363636363634 -3.090909090909091V0.0H377.5854545454545V-3.090909090909091ZM380.67636363636365 -18.545454545454547V-6.181818181818182H377.5854545454545V-3.090909090909091H380.67636363636365V0.0H383.7672727272727V-18.545454545454547ZM369.6109090909091 -18.545454545454547V-3.090909090909091H372.70181818181817V-18.545454545454547ZM372.70181818181817 -3.090909090909091V0.0H378.88363636363636V-3.090909090909091ZM381.9745454545455 -18.545454545454547V-6.181818181818182H378.88363636363636V-3.090909090909091H381.9745454545455V0.0H385.06545454545454V-18.545454545454547ZM370.9090909090909 -18.545454545454547V-3.090909090909091H374.0V-18.545454545454547ZM374.0 -3.090909090909091V0.0H380.1818181818182V-3.090909090909091ZM383.27272727272725 -18.545454545454547V-6.181818181818182H380.1818181818182V-3.090909090909091H383.27272727272725V0.0H386.3636363636364V-18.545454545454547ZM372.2072727272727 -18.545454545454547V-3.090909090909091H375.29818181818183V-18.545454545454547ZM375.29818181818183 -3.090909090909091V0.0H381.48V-3.090909090909091ZM384.5709090909091 -18.545454545454547V-6.181818181818182H381.48V-3.090909090909091H384.5709090909091V0.0H387.66181818181815V-18.545454545454547ZM373.50545454545454 -18.545454545454547V-3.090909090909091H376.5963636363636V-18.545454545454547ZM376.5963636363636 -3.090909090909091V0.0H382.7781818181818V-3.090909090909091ZM385.8690909090909 -18.545454545454547V-6.181818181818182H382.7781818181818V-3.090909090909091H385.8690909090909V0.0H388.96V-18.545454545454547Z M389.94909090909096 -9.272727272727273V-3.090909090909091H393.04V-9.272727272727273ZM393.04 -3.090909090909091V0.0H399.2218181818182V-3.090909090909091ZM399.2218181818182 -6.181818181818182V-3.090909090909091H402.31272727272733V0.0H405.4036363636364V-15.454545454545455H402.31272727272733V-12.363636363636363H393.04V-9.272727272727273H402.31272727272733V-6.181818181818182ZM393.04 -18.545454545454547V-15.454545454545455H402.31272727272733V-18.545454545454547ZM391.2472727272728 -9.272727272727273V-3.090909090909091H394.33818181818185V-9.272727272727273ZM394.33818181818185 -3.090909090909091V0.0H400.52000000000004V-3.090909090909091ZM400.52000000000004 -6.181818181818182V-3.090909090909091H403.6109090909091V0.0H406.7018181818182V-15.454545454545455H403.6109090909091V-12.363636363636363H394.33818181818185V-9.272727272727273H403.6109090909091V-6.181818181818182ZM394.33818181818185 -18.545454545454547V-15.454545454545455H403.6109090909091V-18.545454545454547ZM392.54545454545456 -9.272727272727273V-3.090909090909091H395.6363636363637V-9.272727272727273ZM395.6363636363637 -3.090909090909091V0.0H401.81818181818187V-3.090909090909091ZM401.81818181818187 -6.181818181818182V-3.090909090909091H404.90909090909093V0.0H408.00000000000006V-15.454545454545455H404.90909090909093V-12.363636363636363H395.6363636363637V-9.272727272727273H404.90909090909093V-6.181818181818182ZM395.6363636363637 -18.545454545454547V-15.454545454545455H404.90909090909093V-18.545454545454547ZM393.8436363636364 -9.272727272727273V-3.090909090909091H396.9345454545455V-9.272727272727273ZM396.9345454545455 -3.090909090909091V0.0H403.1163636363637V-3.090909090909091ZM403.1163636363637 -6.181818181818182V-3.090909090909091H406.20727272727277V0.0H409.2981818181819V-15.454545454545455H406.20727272727277V-12.363636363636363H396.9345454545455V-9.272727272727273H406.20727272727277V-6.181818181818182ZM396.9345454545455 -18.545454545454547V-15.454545454545455H406.20727272727277V-18.545454545454547ZM395.1418181818182 -9.272727272727273V-3.090909090909091H398.2327272727273V-9.272727272727273ZM398.2327272727273 -3.090909090909091V0.0H404.4145454545455V-3.090909090909091ZM404.4145454545455 -6.181818181818182V-3.090909090909091H407.5054545454546V0.0H410.59636363636366V-15.454545454545455H407.5054545454546V-12.363636363636363H398.2327272727273V-9.272727272727273H407.5054545454546V-6.181818181818182ZM398.2327272727273 -18.545454545454547V-15.454545454545455H407.5054545454546V-18.545454545454547Z M417.76727272727277 -18.545454545454547H411.5854545454546V-15.454545454545455H414.67636363636365V-3.090909090909091H411.5854545454546V0.0H423.94909090909096V-3.090909090909091H417.76727272727277V-12.363636363636363H420.85818181818183V-15.454545454545455H417.76727272727277ZM427.04 -18.545454545454547H420.85818181818183V-15.454545454545455H427.04ZM419.0654545454546 -18.545454545454547H412.8836363636364V-15.454545454545455H415.9745454545455V-3.090909090909091H412.8836363636364V0.0H425.24727272727273V-3.090909090909091H419.0654545454546V-12.363636363636363H422.15636363636366V-15.454545454545455H419.0654545454546ZM428.33818181818185 -18.545454545454547H422.15636363636366V-15.454545454545455H428.33818181818185ZM420.3636363636364 -18.545454545454547H414.1818181818182V-15.454545454545455H417.2727272727273V-3.090909090909091H414.1818181818182V0.0H426.54545454545456V-3.090909090909091H420.3636363636364V-12.363636363636363H423.4545454545455V-15.454545454545455H420.3636363636364ZM429.6363636363637 -18.545454545454547H423.4545454545455V-15.454545454545455H429.6363636363637ZM421.6618181818182 -18.545454545454547H415.48V-15.454545454545455H418.57090909090914V-3.090909090909091H415.48V0.0H427.8436363636364V-3.090909090909091H421.6618181818182V-12.363636363636363H424.7527272727273V-15.454545454545455H421.6618181818182ZM430.9345454545455 -18.545454545454547H424.7527272727273V-15.454545454545455H430.9345454545455ZM422.96000000000004 -18.545454545454547H416.77818181818185V-15.454545454545455H419.8690909090909V-3.090909090909091H416.77818181818185V0.0H429.1418181818182V-3.090909090909091H422.96000000000004V-12.363636363636363H426.0509090909091V-15.454545454545455H422.96000000000004ZM432.2327272727273 -18.545454545454547H426.0509090909091V-15.454545454545455H432.2327272727273Z M436.3127272727273 -24.727272727272727V-18.545454545454547H433.2218181818182V-15.454545454545455H436.3127272727273V-3.090909090909091H439.4036363636364V-15.454545454545455H448.67636363636365V-18.545454545454547H439.4036363636364V-24.727272727272727ZM439.4036363636364 -3.090909090909091V0.0H445.5854545454546V-3.090909090909091ZM445.5854545454546 -6.181818181818182V-3.090909090909091H448.67636363636365V-6.181818181818182ZM437.6109090909091 -24.727272727272727V-18.545454545454547H434.52000000000004V-15.454545454545455H437.6109090909091V-3.090909090909091H440.7018181818182V-15.454545454545455H449.9745454545455V-18.545454545454547H440.7018181818182V-24.727272727272727ZM440.7018181818182 -3.090909090909091V0.0H446.88363636363636V-3.090909090909091ZM446.88363636363636 -6.181818181818182V-3.090909090909091H449.9745454545455V-6.181818181818182ZM438.90909090909093 -24.727272727272727V-18.545454545454547H435.8181818181818V-15.454545454545455H438.90909090909093V-3.090909090909091H442.0V-15.454545454545455H451.2727272727273V-18.545454545454547H442.0V-24.727272727272727ZM442.0 -3.090909090909091V0.0H448.1818181818182V-3.090909090909091ZM448.1818181818182 -6.181818181818182V-3.090909090909091H451.2727272727273V-6.181818181818182ZM440.20727272727277 -24.727272727272727V-18.545454545454547H437.11636363636364V-15.454545454545455H440.20727272727277V-3.090909090909091H443.29818181818183V-15.454545454545455H452.57090909090914V-18.545454545454547H443.29818181818183V-24.727272727272727ZM443.29818181818183 -3.090909090909091V0.0H449.48V-3.090909090909091ZM449.48 -6.181818181818182V-3.090909090909091H452.57090909090914V-6.181818181818182ZM441.50545454545454 -24.727272727272727V-18.545454545454547H438.4145454545455V-15.454545454545455H441.50545454545454V-3.090909090909091H444.59636363636366V-15.454545454545455H453.8690909090909V-18.545454545454547H444.59636363636366V-24.727272727272727ZM444.59636363636366 -3.090909090909091V0.0H450.77818181818185V-3.090909090909091ZM450.77818181818185 -6.181818181818182V-3.090909090909091H453.8690909090909V-6.181818181818182Z M454.85818181818183 -18.545454545454547V-15.454545454545455H464.1309090909091V-12.363636363636363H467.2218181818182V-15.454545454545455H470.3127272727273V-18.545454545454547ZM461.04 -12.363636363636363V-9.272727272727273H464.1309090909091V-12.363636363636363ZM457.9490909090909 -9.272727272727273V-6.181818181818182H461.04V-9.272727272727273ZM454.85818181818183 -6.181818181818182V0.0H470.3127272727273V-3.090909090909091H457.9490909090909V-6.181818181818182ZM456.15636363636366 -18.545454545454547V-15.454545454545455H465.4290909090909V-12.363636363636363H468.52V-15.454545454545455H471.6109090909091V-18.545454545454547ZM462.33818181818185 -12.363636363636363V-9.272727272727273H465.4290909090909V-12.363636363636363ZM459.24727272727273 -9.272727272727273V-6.181818181818182H462.33818181818185V-9.272727272727273ZM456.15636363636366 -6.181818181818182V0.0H471.6109090909091V-3.090909090909091H459.24727272727273V-6.181818181818182ZM457.45454545454544 -18.545454545454547V-15.454545454545455H466.72727272727275V-12.363636363636363H469.8181818181818V-15.454545454545455H472.90909090909093V-18.545454545454547ZM463.6363636363636 -12.363636363636363V-9.272727272727273H466.72727272727275V-12.363636363636363ZM460.54545454545456 -9.272727272727273V-6.181818181818182H463.6363636363636V-9.272727272727273ZM457.45454545454544 -6.181818181818182V0.0H472.90909090909093V-3.090909090909091H460.54545454545456V-6.181818181818182ZM458.75272727272727 -18.545454545454547V-15.454545454545455H468.0254545454546V-12.363636363636363H471.11636363636364V-15.454545454545455H474.20727272727277V-18.545454545454547ZM464.93454545454546 -12.363636363636363V-9.272727272727273H468.0254545454546V-12.363636363636363ZM461.8436363636364 -9.272727272727273V-6.181818181818182H464.93454545454546V-9.272727272727273ZM458.75272727272727 -6.181818181818182V0.0H474.20727272727277V-3.090909090909091H461.8436363636364V-6.181818181818182ZM460.0509090909091 -18.545454545454547V-15.454545454545455H469.32363636363635V-12.363636363636363H472.4145454545455V-15.454545454545455H475.50545454545454V-18.545454545454547ZM466.2327272727273 -12.363636363636363V-9.272727272727273H469.32363636363635V-12.363636363636363ZM463.14181818181817 -9.272727272727273V-6.181818181818182H466.2327272727273V-9.272727272727273ZM460.0509090909091 -6.181818181818182V0.0H475.50545454545454V-3.090909090909091H463.14181818181817V-6.181818181818182Z M482.67636363636365 -6.181818181818182V0.0H485.7672727272727V-6.181818181818182ZM479.5854545454545 0.0V3.090909090909091H482.67636363636365V0.0ZM483.9745454545455 -6.181818181818182V0.0H487.06545454545454V-6.181818181818182ZM480.88363636363636 0.0V3.090909090909091H483.9745454545455V0.0ZM485.27272727272725 -6.181818181818182V0.0H488.3636363636364V-6.181818181818182ZM482.1818181818182 0.0V3.090909090909091H485.27272727272725V0.0ZM486.5709090909091 -6.181818181818182V0.0H489.6618181818182V-6.181818181818182ZM483.48 0.0V3.090909090909091H486.5709090909091V0.0ZM487.8690909090909 -6.181818181818182V0.0H490.96V-6.181818181818182ZM484.7781818181818 0.0V3.090909090909091H487.8690909090909V0.0Z M529.04 -24.727272727272727V-21.636363636363637H532.1309090909091V-24.727272727272727ZM529.04 -15.454545454545455V3.090909090909091H532.1309090909091V-18.545454545454547H522.8581818181818V-15.454545454545455ZM529.04 3.090909090909091H522.8581818181818V6.181818181818182H529.04ZM522.8581818181818 3.090909090909091V0.0H519.7672727272727V3.090909090909091ZM530.3381818181819 -24.727272727272727V-21.636363636363637H533.4290909090909V-24.727272727272727ZM530.3381818181819 -15.454545454545455V3.090909090909091H533.4290909090909V-18.545454545454547H524.1563636363636V-15.454545454545455ZM530.3381818181819 3.090909090909091H524.1563636363636V6.181818181818182H530.3381818181819ZM524.1563636363636 3.090909090909091V0.0H521.0654545454545V3.090909090909091ZM531.6363636363636 -24.727272727272727V-21.636363636363637H534.7272727272727V-24.727272727272727ZM531.6363636363636 -15.454545454545455V3.090909090909091H534.7272727272727V-18.545454545454547H525.4545454545454V-15.454545454545455ZM531.6363636363636 3.090909090909091H525.4545454545454V6.181818181818182H531.6363636363636ZM525.4545454545454 3.090909090909091V0.0H522.3636363636364V3.090909090909091ZM532.9345454545454 -24.727272727272727V-21.636363636363637H536.0254545454545V-24.727272727272727ZM532.9345454545454 -15.454545454545455V3.090909090909091H536.0254545454545V-18.545454545454547H526.7527272727273V-15.454545454545455ZM532.9345454545454 3.090909090909091H526.7527272727273V6.181818181818182H532.9345454545454ZM526.7527272727273 3.090909090909091V0.0H523.6618181818181V3.090909090909091ZM534.2327272727273 -24.727272727272727V-21.636363636363637H537.3236363636363V-24.727272727272727ZM534.2327272727273 -15.454545454545455V3.090909090909091H537.3236363636363V-18.545454545454547H528.050909090909V-15.454545454545455ZM534.2327272727273 3.090909090909091H528.050909090909V6.181818181818182H534.2327272727273ZM528.050909090909 3.090909090909091V0.0H524.96V3.090909090909091Z M541.4036363636363 -18.545454545454547V-3.090909090909091H544.4945454545455V-18.545454545454547ZM544.4945454545455 -3.090909090909091V0.0H550.6763636363636V-3.090909090909091ZM553.7672727272727 -18.545454545454547V-6.181818181818182H550.6763636363636V-3.090909090909091H553.7672727272727V0.0H556.8581818181818V-18.545454545454547ZM542.7018181818181 -18.545454545454547V-3.090909090909091H545.7927272727272V-18.545454545454547ZM545.7927272727272 -3.090909090909091V0.0H551.9745454545455V-3.090909090909091ZM555.0654545454545 -18.545454545454547V-6.181818181818182H551.9745454545455V-3.090909090909091H555.0654545454545V0.0H558.1563636363636V-18.545454545454547ZM544.0 -18.545454545454547V-3.090909090909091H547.090909090909V-18.545454545454547ZM547.090909090909 -3.090909090909091V0.0H553.2727272727273V-3.090909090909091ZM556.3636363636364 -18.545454545454547V-6.181818181818182H553.2727272727273V-3.090909090909091H556.3636363636364V0.0H559.4545454545454V-18.545454545454547ZM545.2981818181818 -18.545454545454547V-3.090909090909091H548.3890909090909V-18.545454545454547ZM548.3890909090909 -3.090909090909091V0.0H554.570909090909V-3.090909090909091ZM557.6618181818181 -18.545454545454547V-6.181818181818182H554.570909090909V-3.090909090909091H557.6618181818181V0.0H560.7527272727273V-18.545454545454547ZM546.5963636363635 -18.545454545454547V-3.090909090909091H549.6872727272727V-18.545454545454547ZM549.6872727272727 -3.090909090909091V0.0H555.8690909090909V-3.090909090909091ZM558.9599999999999 -18.545454545454547V-6.181818181818182H555.8690909090909V-3.090909090909091H558.9599999999999V0.0H562.050909090909V-18.545454545454547Z M575.4036363636365 -24.727272727272727V-15.454545454545455H572.3127272727273V-12.363636363636363H575.4036363636365V-6.181818181818182H572.3127272727273V-3.090909090909091H575.4036363636365V0.0H578.4945454545456V-24.727272727272727ZM572.3127272727273 -3.090909090909091H566.1309090909092V0.0H572.3127272727273ZM566.1309090909092 -3.090909090909091V-15.454545454545455H563.0400000000001V-3.090909090909091ZM572.3127272727273 -15.454545454545455V-18.545454545454547H566.1309090909092V-15.454545454545455ZM576.7018181818182 -24.727272727272727V-15.454545454545455H573.6109090909092V-12.363636363636363H576.7018181818182V-6.181818181818182H573.6109090909092V-3.090909090909091H576.7018181818182V0.0H579.7927272727273V-24.727272727272727ZM573.6109090909092 -3.090909090909091H567.429090909091V0.0H573.6109090909092ZM567.429090909091 -3.090909090909091V-15.454545454545455H564.3381818181819V-3.090909090909091ZM573.6109090909092 -15.454545454545455V-18.545454545454547H567.429090909091V-15.454545454545455ZM578.0000000000001 -24.727272727272727V-15.454545454545455H574.909090909091V-12.363636363636363H578.0000000000001V-6.181818181818182H574.909090909091V-3.090909090909091H578.0000000000001V0.0H581.0909090909091V-24.727272727272727ZM574.909090909091 -3.090909090909091H568.7272727272727V0.0H574.909090909091ZM568.7272727272727 -3.090909090909091V-15.454545454545455H565.6363636363637V-3.090909090909091ZM574.909090909091 -15.454545454545455V-18.545454545454547H568.7272727272727V-15.454545454545455ZM579.2981818181819 -24.727272727272727V-15.454545454545455H576.2072727272728V-12.363636363636363H579.2981818181819V-6.181818181818182H576.2072727272728V-3.090909090909091H579.2981818181819V0.0H582.389090909091V-24.727272727272727ZM576.2072727272728 -3.090909090909091H570.0254545454546V0.0H576.2072727272728ZM570.0254545454546 -3.090909090909091V-15.454545454545455H566.9345454545455V-3.090909090909091ZM576.2072727272728 -15.454545454545455V-18.545454545454547H570.0254545454546V-15.454545454545455ZM580.5963636363637 -24.727272727272727V-15.454545454545455H577.5054545454547V-12.363636363636363H580.5963636363637V-6.181818181818182H577.5054545454547V-3.090909090909091H580.5963636363637V0.0H583.6872727272728V-24.727272727272727ZM577.5054545454547 -3.090909090909091H571.3236363636364V0.0H577.5054545454547ZM571.3236363636364 -3.090909090909091V-15.454545454545455H568.2327272727273V-3.090909090909091ZM577.5054545454547 -15.454545454545455V-18.545454545454547H571.3236363636364V-15.454545454545455Z M587.7672727272728 -18.545454545454547V-15.454545454545455H593.949090909091V-18.545454545454547ZM584.6763636363637 -15.454545454545455V-3.090909090909091H587.7672727272728V-15.454545454545455ZM587.7672727272728 -3.090909090909091V0.0H593.949090909091V-3.090909090909091ZM587.7672727272728 3.090909090909091V6.181818181818182H597.0400000000001V3.090909090909091ZM593.949090909091 -6.181818181818182V-3.090909090909091H597.0400000000001V3.090909090909091H600.1309090909092V-18.545454545454547H597.0400000000001V-15.454545454545455H593.949090909091V-12.363636363636363H597.0400000000001V-6.181818181818182ZM589.0654545454546 -18.545454545454547V-15.454545454545455H595.2472727272728V-18.545454545454547ZM585.9745454545455 -15.454545454545455V-3.090909090909091H589.0654545454546V-15.454545454545455ZM589.0654545454546 -3.090909090909091V0.0H595.2472727272728V-3.090909090909091ZM589.0654545454546 3.090909090909091V6.181818181818182H598.3381818181819V3.090909090909091ZM595.2472727272728 -6.181818181818182V-3.090909090909091H598.3381818181819V3.090909090909091H601.429090909091V-18.545454545454547H598.3381818181819V-15.454545454545455H595.2472727272728V-12.363636363636363H598.3381818181819V-6.181818181818182ZM590.3636363636364 -18.545454545454547V-15.454545454545455H596.5454545454546V-18.545454545454547ZM587.2727272727274 -15.454545454545455V-3.090909090909091H590.3636363636364V-15.454545454545455ZM590.3636363636364 -3.090909090909091V0.0H596.5454545454546V-3.090909090909091ZM590.3636363636364 3.090909090909091V6.181818181818182H599.6363636363637V3.090909090909091ZM596.5454545454546 -6.181818181818182V-3.090909090909091H599.6363636363637V3.090909090909091H602.7272727272727V-18.545454545454547H599.6363636363637V-15.454545454545455H596.5454545454546V-12.363636363636363H599.6363636363637V-6.181818181818182ZM591.6618181818183 -18.545454545454547V-15.454545454545455H597.8436363636364V-18.545454545454547ZM588.5709090909091 -15.454545454545455V-3.090909090909091H591.6618181818183V-15.454545454545455ZM591.6618181818183 -3.090909090909091V0.0H597.8436363636364V-3.090909090909091ZM591.6618181818183 3.090909090909091V6.181818181818182H600.9345454545455V3.090909090909091ZM597.8436363636364 -6.181818181818182V-3.090909090909091H600.9345454545455V3.090909090909091H604.0254545454546V-18.545454545454547H600.9345454545455V-15.454545454545455H597.8436363636364V-12.363636363636363H600.9345454545455V-6.181818181818182ZM592.96 -18.545454545454547V-15.454545454545455H599.1418181818183V-18.545454545454547ZM589.869090909091 -15.454545454545455V-3.090909090909091H592.96V-15.454545454545455ZM592.96 -3.090909090909091V0.0H599.1418181818183V-3.090909090909091ZM592.96 3.090909090909091V6.181818181818182H602.2327272727273V3.090909090909091ZM599.1418181818183 -6.181818181818182V-3.090909090909091H602.2327272727273V3.090909090909091H605.3236363636364V-18.545454545454547H602.2327272727273V-15.454545454545455H599.1418181818183V-12.363636363636363H602.2327272727273V-6.181818181818182Z M609.4036363636365 -18.545454545454547V-15.454545454545455H618.6763636363637V-18.545454545454547ZM606.3127272727273 -15.454545454545455V-3.090909090909091H609.4036363636365V-9.272727272727273H621.7672727272728V-15.454545454545455H618.6763636363637V-12.363636363636363H609.4036363636365V-15.454545454545455ZM609.4036363636365 -3.090909090909091V0.0H618.6763636363637V-3.090909090909091ZM618.6763636363637 -6.181818181818182V-3.090909090909091H621.7672727272728V-6.181818181818182ZM610.7018181818182 -18.545454545454547V-15.454545454545455H619.9745454545455V-18.545454545454547ZM607.6109090909091 -15.454545454545455V-3.090909090909091H610.7018181818182V-9.272727272727273H623.0654545454546V-15.454545454545455H619.9745454545455V-12.363636363636363H610.7018181818182V-15.454545454545455ZM610.7018181818182 -3.090909090909091V0.0H619.9745454545455V-3.090909090909091ZM619.9745454545455 -6.181818181818182V-3.090909090909091H623.0654545454546V-6.181818181818182ZM612.0 -18.545454545454547V-15.454545454545455H621.2727272727274V-18.545454545454547ZM608.909090909091 -15.454545454545455V-3.090909090909091H612.0V-9.272727272727273H624.3636363636364V-15.454545454545455H621.2727272727274V-12.363636363636363H612.0V-15.454545454545455ZM612.0 -3.090909090909091V0.0H621.2727272727274V-3.090909090909091ZM621.2727272727274 -6.181818181818182V-3.090909090909091H624.3636363636364V-6.181818181818182ZM613.2981818181819 -18.545454545454547V-15.454545454545455H622.5709090909091V-18.545454545454547ZM610.2072727272728 -15.454545454545455V-3.090909090909091H613.2981818181819V-9.272727272727273H625.6618181818183V-15.454545454545455H622.5709090909091V-12.363636363636363H613.2981818181819V-15.454545454545455ZM613.2981818181819 -3.090909090909091V0.0H622.5709090909091V-3.090909090909091ZM622.5709090909091 -6.181818181818182V-3.090909090909091H625.6618181818183V-6.181818181818182ZM614.5963636363637 -18.545454545454547V-15.454545454545455H623.8690909090909V-18.545454545454547ZM611.5054545454545 -15.454545454545455V-3.090909090909091H614.5963636363637V-9.272727272727273H626.96V-15.454545454545455H623.8690909090909V-12.363636363636363H614.5963636363637V-15.454545454545455ZM614.5963636363637 -3.090909090909091V0.0H623.8690909090909V-3.090909090909091ZM623.8690909090909 -6.181818181818182V-3.090909090909091H626.96V-6.181818181818182Z M649.5854545454546 -18.545454545454547V0.0H652.6763636363637V-15.454545454545455H655.7672727272727V-18.545454545454547ZM655.7672727272727 -15.454545454545455V0.0H658.8581818181818V-15.454545454545455ZM661.949090909091 -15.454545454545455V-18.545454545454547H658.8581818181818V-15.454545454545455ZM661.949090909091 -15.454545454545455V0.0H665.0400000000001V-15.454545454545455ZM650.8836363636364 -18.545454545454547V0.0H653.9745454545455V-15.454545454545455H657.0654545454546V-18.545454545454547ZM657.0654545454546 -15.454545454545455V0.0H660.1563636363637V-15.454545454545455ZM663.2472727272727 -15.454545454545455V-18.545454545454547H660.1563636363637V-15.454545454545455ZM663.2472727272727 -15.454545454545455V0.0H666.3381818181819V-15.454545454545455ZM652.1818181818182 -18.545454545454547V0.0H655.2727272727273V-15.454545454545455H658.3636363636364V-18.545454545454547ZM658.3636363636364 -15.454545454545455V0.0H661.4545454545455V-15.454545454545455ZM664.5454545454546 -15.454545454545455V-18.545454545454547H661.4545454545455V-15.454545454545455ZM664.5454545454546 -15.454545454545455V0.0H667.6363636363636V-15.454545454545455ZM653.48 -18.545454545454547V0.0H656.5709090909091V-15.454545454545455H659.6618181818183V-18.545454545454547ZM659.6618181818183 -15.454545454545455V0.0H662.7527272727273V-15.454545454545455ZM665.8436363636364 -15.454545454545455V-18.545454545454547H662.7527272727273V-15.454545454545455ZM665.8436363636364 -15.454545454545455V0.0H668.9345454545455V-15.454545454545455ZM654.7781818181818 -18.545454545454547V0.0H657.8690909090909V-15.454545454545455H660.96V-18.545454545454547ZM660.96 -15.454545454545455V0.0H664.0509090909092V-15.454545454545455ZM667.1418181818182 -15.454545454545455V-18.545454545454547H664.0509090909092V-15.454545454545455ZM667.1418181818182 -15.454545454545455V0.0H670.2327272727273V-15.454545454545455Z M671.2218181818182 -18.545454545454547V-9.272727272727273H674.3127272727273V-18.545454545454547ZM683.5854545454546 -18.545454545454547V-9.272727272727273H686.6763636363637V-18.545454545454547ZM677.4036363636363 -3.090909090909091V3.090909090909091H680.4945454545455V-3.090909090909091ZM677.4036363636363 3.090909090909091H671.2218181818182V6.181818181818182H677.4036363636363ZM680.4945454545455 -9.272727272727273V-3.090909090909091H683.5854545454546V-9.272727272727273ZM674.3127272727273 -9.272727272727273V-3.090909090909091H677.4036363636363V-9.272727272727273ZM672.52 -18.545454545454547V-9.272727272727273H675.6109090909091V-18.545454545454547ZM684.8836363636364 -18.545454545454547V-9.272727272727273H687.9745454545455V-18.545454545454547ZM678.7018181818182 -3.090909090909091V3.090909090909091H681.7927272727273V-3.090909090909091ZM678.7018181818182 3.090909090909091H672.52V6.181818181818182H678.7018181818182ZM681.7927272727273 -9.272727272727273V-3.090909090909091H684.8836363636364V-9.272727272727273ZM675.6109090909091 -9.272727272727273V-3.090909090909091H678.7018181818182V-9.272727272727273ZM673.8181818181819 -18.545454545454547V-9.272727272727273H676.9090909090909V-18.545454545454547ZM686.1818181818182 -18.545454545454547V-9.272727272727273H689.2727272727273V-18.545454545454547ZM680.0 -3.090909090909091V3.090909090909091H683.0909090909091V-3.090909090909091ZM680.0 3.090909090909091H673.8181818181819V6.181818181818182H680.0ZM683.0909090909091 -9.272727272727273V-3.090909090909091H686.1818181818182V-9.272727272727273ZM676.9090909090909 -9.272727272727273V-3.090909090909091H680.0V-9.272727272727273ZM675.1163636363636 -18.545454545454547V-9.272727272727273H678.2072727272728V-18.545454545454547ZM687.48 -18.545454545454547V-9.272727272727273H690.5709090909091V-18.545454545454547ZM681.2981818181819 -3.090909090909091V3.090909090909091H684.3890909090909V-3.090909090909091ZM681.2981818181819 3.090909090909091H675.1163636363636V6.181818181818182H681.2981818181819ZM684.3890909090909 -9.272727272727273V-3.090909090909091H687.48V-9.272727272727273ZM678.2072727272728 -9.272727272727273V-3.090909090909091H681.2981818181819V-9.272727272727273ZM676.4145454545455 -18.545454545454547V-9.272727272727273H679.5054545454545V-18.545454545454547ZM688.7781818181818 -18.545454545454547V-9.272727272727273H691.8690909090909V-18.545454545454547ZM682.5963636363637 -3.090909090909091V3.090909090909091H685.6872727272728V-3.090909090909091ZM682.5963636363637 3.090909090909091H676.4145454545455V6.181818181818182H682.5963636363637ZM685.6872727272728 -9.272727272727273V-3.090909090909091H688.7781818181818V-9.272727272727273ZM679.5054545454545 -9.272727272727273V-3.090909090909091H682.5963636363637V-9.272727272727273Z M714.4945454545455 -18.545454545454547V-9.272727272727273H717.5854545454546V-18.545454545454547ZM726.8581818181818 -18.545454545454547V-9.272727272727273H729.949090909091V-18.545454545454547ZM720.6763636363636 -3.090909090909091V-9.272727272727273H717.5854545454546V-3.090909090909091ZM720.6763636363636 -3.090909090909091V0.0H723.7672727272727V-3.090909090909091ZM723.7672727272727 -9.272727272727273V-3.090909090909091H726.8581818181818V-9.272727272727273ZM715.7927272727272 -18.545454545454547V-9.272727272727273H718.8836363636364V-18.545454545454547ZM728.1563636363636 -18.545454545454547V-9.272727272727273H731.2472727272727V-18.545454545454547ZM721.9745454545455 -3.090909090909091V-9.272727272727273H718.8836363636364V-3.090909090909091ZM721.9745454545455 -3.090909090909091V0.0H725.0654545454546V-3.090909090909091ZM725.0654545454546 -9.272727272727273V-3.090909090909091H728.1563636363636V-9.272727272727273ZM717.0909090909091 -18.545454545454547V-9.272727272727273H720.1818181818181V-18.545454545454547ZM729.4545454545455 -18.545454545454547V-9.272727272727273H732.5454545454545V-18.545454545454547ZM723.2727272727273 -3.090909090909091V-9.272727272727273H720.1818181818181V-3.090909090909091ZM723.2727272727273 -3.090909090909091V0.0H726.3636363636364V-3.090909090909091ZM726.3636363636364 -9.272727272727273V-3.090909090909091H729.4545454545455V-9.272727272727273ZM718.3890909090909 -18.545454545454547V-9.272727272727273H721.48V-18.545454545454547ZM730.7527272727273 -18.545454545454547V-9.272727272727273H733.8436363636364V-18.545454545454547ZM724.5709090909091 -3.090909090909091V-9.272727272727273H721.48V-3.090909090909091ZM724.5709090909091 -3.090909090909091V0.0H727.6618181818181V-3.090909090909091ZM727.6618181818181 -9.272727272727273V-3.090909090909091H730.7527272727273V-9.272727272727273ZM719.6872727272728 -18.545454545454547V-9.272727272727273H722.7781818181818V-18.545454545454547ZM732.050909090909 -18.545454545454547V-9.272727272727273H735.1418181818182V-18.545454545454547ZM725.8690909090909 -3.090909090909091V-9.272727272727273H722.7781818181818V-3.090909090909091ZM725.8690909090909 -3.090909090909091V0.0H728.96V-3.090909090909091ZM728.96 -9.272727272727273V-3.090909090909091H732.050909090909V-9.272727272727273Z M739.2218181818182 -18.545454545454547V-15.454545454545455H748.4945454545455V-18.545454545454547ZM748.4945454545455 -15.454545454545455V-3.090909090909091H751.5854545454546V-15.454545454545455ZM736.1309090909091 -15.454545454545455V-3.090909090909091H739.2218181818182V-15.454545454545455ZM739.2218181818182 -3.090909090909091V0.0H748.4945454545455V-3.090909090909091ZM740.52 -18.545454545454547V-15.454545454545455H749.7927272727272V-18.545454545454547ZM749.7927272727272 -15.454545454545455V-3.090909090909091H752.8836363636364V-15.454545454545455ZM737.4290909090909 -15.454545454545455V-3.090909090909091H740.52V-15.454545454545455ZM740.52 -3.090909090909091V0.0H749.7927272727272V-3.090909090909091ZM741.8181818181818 -18.545454545454547V-15.454545454545455H751.0909090909091V-18.545454545454547ZM751.0909090909091 -15.454545454545455V-3.090909090909091H754.1818181818181V-15.454545454545455ZM738.7272727272727 -15.454545454545455V-3.090909090909091H741.8181818181818V-15.454545454545455ZM741.8181818181818 -3.090909090909091V0.0H751.0909090909091V-3.090909090909091ZM743.1163636363636 -18.545454545454547V-15.454545454545455H752.3890909090909V-18.545454545454547ZM752.3890909090909 -15.454545454545455V-3.090909090909091H755.48V-15.454545454545455ZM740.0254545454545 -15.454545454545455V-3.090909090909091H743.1163636363636V-15.454545454545455ZM743.1163636363636 -3.090909090909091V0.0H752.3890909090909V-3.090909090909091ZM744.4145454545454 -18.545454545454547V-15.454545454545455H753.6872727272727V-18.545454545454547ZM753.6872727272727 -15.454545454545455V-3.090909090909091H756.7781818181818V-15.454545454545455ZM741.3236363636363 -15.454545454545455V-3.090909090909091H744.4145454545454V-15.454545454545455ZM744.4145454545454 -3.090909090909091V0.0H753.6872727272727V-3.090909090909091Z M757.7672727272727 -18.545454545454547V-3.090909090909091H760.8581818181818V-18.545454545454547ZM770.1309090909091 -18.545454545454547V-3.090909090909091H767.04V0.0H773.2218181818182V-18.545454545454547ZM767.04 -3.090909090909091V-18.545454545454547H763.9490909090908V-3.090909090909091ZM760.8581818181818 -3.090909090909091V0.0H763.9490909090908V-3.090909090909091ZM759.0654545454545 -18.545454545454547V-3.090909090909091H762.1563636363636V-18.545454545454547ZM771.4290909090909 -18.545454545454547V-3.090909090909091H768.3381818181819V0.0H774.52V-18.545454545454547ZM768.3381818181819 -3.090909090909091V-18.545454545454547H765.2472727272727V-3.090909090909091ZM762.1563636363636 -3.090909090909091V0.0H765.2472727272727V-3.090909090909091ZM760.3636363636364 -18.545454545454547V-3.090909090909091H763.4545454545454V-18.545454545454547ZM772.7272727272727 -18.545454545454547V-3.090909090909091H769.6363636363636V0.0H775.8181818181818V-18.545454545454547ZM769.6363636363636 -3.090909090909091V-18.545454545454547H766.5454545454545V-3.090909090909091ZM763.4545454545454 -3.090909090909091V0.0H766.5454545454545V-3.090909090909091ZM761.6618181818181 -18.545454545454547V-3.090909090909091H764.7527272727273V-18.545454545454547ZM774.0254545454545 -18.545454545454547V-3.090909090909091H770.9345454545454V0.0H777.1163636363636V-18.545454545454547ZM770.9345454545454 -3.090909090909091V-18.545454545454547H767.8436363636364V-3.090909090909091ZM764.7527272727273 -3.090909090909091V0.0H767.8436363636364V-3.090909090909091ZM762.96 -18.545454545454547V-3.090909090909091H766.050909090909V-18.545454545454547ZM775.3236363636363 -18.545454545454547V-3.090909090909091H772.2327272727273V0.0H778.4145454545454V-18.545454545454547ZM772.2327272727273 -3.090909090909091V-18.545454545454547H769.1418181818182V-3.090909090909091ZM766.050909090909 -3.090909090909091V0.0H769.1418181818182V-3.090909090909091Z M785.5854545454546 -6.181818181818182V0.0H788.6763636363637V-6.181818181818182ZM786.8836363636365 -6.181818181818182V0.0H789.9745454545456V-6.181818181818182ZM788.1818181818182 -6.181818181818182V0.0H791.2727272727274V-6.181818181818182ZM789.4800000000001 -6.181818181818182V0.0H792.5709090909091V-6.181818181818182ZM790.7781818181819 -6.181818181818182V0.0H793.869090909091V-6.181818181818182Z"/>
  </g>
</svg>
