<svg xmlns="http://www.w3.org/2000/svg" width="620" height="71" viewBox="0 0 620 71" role="img" aria-labelledby="title desc" style="background: transparent;">
  <title id="title">Departure Mono Condensed Compact Regular preview</title>
  <desc id="desc">Sphinx of black quartz, judge my vow.</desc>
  <style>
    svg { background: transparent; }
    .preview-text { fill: #24292f; }
    @media (prefers-color-scheme: dark) {
      .preview-text { fill: #f0f6fc; }
    }
  </style>
  <g class="preview-text" transform="translate(22.02 44.73)">
    <path d="M1.9781818181818183 -21.636363636363637H4.327272727272727V-15.454545454545455H1.9781818181818183ZM4.327272727272727 -15.454545454545455H11.374545454545455V-12.363636363636363H4.327272727272727ZM11.374545454545455 -3.090909090909091V0.0H4.327272727272727V-3.090909090909091ZM4.327272727272727 -3.090909090909091H1.9781818181818183V-6.181818181818182H4.327272727272727ZM11.374545454545455 -12.363636363636363H13.723636363636365V-3.090909090909091H11.374545454545455ZM4.327272727272727 -24.727272727272727H11.374545454545455V-21.636363636363637H4.327272727272727ZM11.374545454545455 -21.636363636363637H13.723636363636365V-18.545454545454547H11.374545454545455Z M17.68 -18.545454545454547H20.02909090909091V-15.454545454545455H22.37818181818182V-12.363636363636363H20.02909090909091V-6.181818181818182H22.37818181818182V-3.090909090909091H20.02909090909091V6.181818181818182H17.68ZM22.37818181818182 -18.545454545454547H27.076363636363638V-15.454545454545455H22.37818181818182ZM27.076363636363638 -15.454545454545455H29.42545454545455V-3.090909090909091H27.076363636363638ZM22.37818181818182 -3.090909090909091H27.076363636363638V0.0H22.37818181818182Z M33.38181818181818 -24.727272727272727H35.730909090909094V-15.454545454545455H38.080000000000005V-12.363636363636363H35.730909090909094V0.0H33.38181818181818ZM42.77818181818182 -15.454545454545455H45.12727272727273V0.0H42.77818181818182ZM38.080000000000005 -18.545454545454547H42.77818181818182V-15.454545454545455H38.080000000000005Z M53.78181818181819 -15.454545454545455H49.083636363636366V-18.545454545454547H56.13090909090909V-3.090909090909091H60.829090909090915V0.0H49.083636363636366V-3.090909090909091H53.78181818181819ZM53.78181818181819 -24.727272727272727H56.13090909090909V-21.636363636363637H53.78181818181819Z M64.78545454545456 -18.545454545454547H67.13454545454546V-15.454545454545455H69.48363636363636V-12.363636363636363H67.13454545454546V0.0H64.78545454545456ZM69.48363636363636 -18.545454545454547H74.18181818181819V-15.454545454545455H69.48363636363636ZM74.18181818181819 -15.454545454545455H76.53090909090909V0.0H74.18181818181819Z M80.48727272727274 -18.545454545454547H82.83636363636364V-15.454545454545455H80.48727272727274ZM89.88363636363637 -18.545454545454547H92.23272727272727V-15.454545454545455H89.88363636363637ZM80.48727272727274 -6.181818181818182H82.83636363636364V0.0H80.48727272727274ZM87.53454545454547 -15.454545454545455H89.88363636363637V-12.363636363636363H87.53454545454547ZM82.83636363636364 -15.454545454545455H85.18545454545455V-12.363636363636363H82.83636363636364ZM85.18545454545455 -12.363636363636363H87.53454545454547V-9.272727272727273H85.18545454545455ZM82.83636363636364 -9.272727272727273H85.18545454545455V-6.181818181818182H82.83636363636364ZM87.53454545454547 -9.272727272727273H89.88363636363637V-6.181818181818182H87.53454545454547ZM89.88363636363637 -6.181818181818182H92.23272727272727V0.0H89.88363636363637Z M114.24000000000001 -18.545454545454547H121.28727272727274V-15.454545454545455H114.24000000000001ZM121.28727272727274 -15.454545454545455H123.63636363636364V-3.090909090909091H121.28727272727274ZM111.8909090909091 -15.454545454545455H114.24000000000001V-3.090909090909091H111.8909090909091ZM114.24000000000001 -3.090909090909091H121.28727272727274V0.0H114.24000000000001Z M129.94181818181818 -15.454545454545455H127.59272727272729V-18.545454545454547H129.94181818181818V-21.636363636363637H132.2909090909091V-18.545454545454547H139.33818181818182V-15.454545454545455H132.2909090909091V-3.090909090909091H136.98909090909092V0.0H127.59272727272729V-3.090909090909091H129.94181818181818ZM132.2909090909091 -24.727272727272727H139.33818181818182V-21.636363636363637H132.2909090909091Z M158.99636363636364 -24.727272727272727H161.34545454545454V-15.454545454545455H163.69454545454548V-12.363636363636363H161.34545454545454V-6.181818181818182H163.69454545454548V-3.090909090909091H161.34545454545454V0.0H158.99636363636364ZM163.69454545454548 -3.090909090909091H168.39272727272729V0.0H163.69454545454548ZM168.39272727272729 -15.454545454545455H170.7418181818182V-3.090909090909091H168.39272727272729ZM163.69454545454548 -18.545454545454547H168.39272727272729V-15.454545454545455H163.69454545454548Z M179.39636363636365 -21.636363636363637H174.6981818181818V-24.727272727272727H181.74545454545455V-3.090909090909091H186.44363636363636V0.0H174.6981818181818V-3.090909090909091H179.39636363636365Z M190.4 -9.272727272727273H192.7490909090909V-3.090909090909091H190.4ZM192.7490909090909 -3.090909090909091H197.44727272727275V0.0H192.7490909090909ZM197.44727272727275 -6.181818181818182H199.79636363636365V-9.272727272727273H192.7490909090909V-12.363636363636363H199.79636363636365V-15.454545454545455H202.14545454545456V0.0H199.79636363636365V-3.090909090909091H197.44727272727275ZM192.7490909090909 -18.545454545454547H199.79636363636365V-15.454545454545455H192.7490909090909Z M208.45090909090908 -18.545454545454547H215.49818181818182V-15.454545454545455H208.45090909090908ZM206.10181818181817 -15.454545454545455H208.45090909090908V-3.090909090909091H206.10181818181817ZM208.45090909090908 -3.090909090909091H215.49818181818182V0.0H208.45090909090908ZM215.49818181818182 -15.454545454545455H217.84727272727272V-12.363636363636363H215.49818181818182ZM215.49818181818182 -6.181818181818182H217.84727272727272V-3.090909090909091H215.49818181818182Z M221.80363636363637 -24.727272727272727H224.15272727272728V-9.272727272727273H226.5018181818182V-12.363636363636363H228.8509090909091V-6.181818181818182H224.15272727272728V0.0H221.80363636363637ZM231.20000000000002 -18.545454545454547H233.54909090909092V-15.454545454545455H231.20000000000002ZM228.8509090909091 -15.454545454545455H231.20000000000002V-12.363636363636363H228.8509090909091ZM228.8509090909091 -6.181818181818182H231.20000000000002V-3.090909090909091H228.8509090909091ZM231.20000000000002 -3.090909090909091H233.54909090909092V0.0H231.20000000000002Z M255.55636363636364 -18.545454545454547H260.25454545454545V-15.454545454545455H255.55636363636364ZM260.25454545454545 -15.454545454545455H262.6036363636364V-18.545454545454547H264.9527272727273V6.181818181818182H262.6036363636364V-3.090909090909091H260.25454545454545V-6.181818181818182H262.6036363636364V-12.363636363636363H260.25454545454545ZM253.20727272727274 -15.454545454545455H255.55636363636364V-3.090909090909091H253.20727272727274ZM255.55636363636364 -3.090909090909091H260.25454545454545V0.0H255.55636363636364Z M268.90909090909093 -18.545454545454547H271.2581818181818V-3.090909090909091H268.90909090909093ZM271.2581818181818 -3.090909090909091H275.9563636363636V0.0H271.2581818181818ZM278.30545454545455 -18.545454545454547H280.6545454545455V0.0H278.30545454545455V-3.090909090909091H275.9563636363636V-6.181818181818182H278.30545454545455Z M284.6109090909091 -9.272727272727273H286.96V-3.090909090909091H284.6109090909091ZM286.96 -3.090909090909091H291.6581818181818V0.0H286.96ZM291.6581818181818 -6.181818181818182H294.0072727272727V-9.272727272727273H286.96V-12.363636363636363H294.0072727272727V-15.454545454545455H296.35636363636365V0.0H294.0072727272727V-3.090909090909091H291.6581818181818ZM286.96 -18.545454545454547H294.0072727272727V-15.454545454545455H286.96Z M305.01090909090914 -18.545454545454547V-15.454545454545455H307.36V-12.363636363636363H305.01090909090914V-3.090909090909091H309.70909090909095V0.0H300.31272727272733V-3.090909090909091H302.6618181818182V-15.454545454545455H300.31272727272733V-18.545454545454547ZM312.0581818181819 -18.545454545454547V-15.454545454545455H307.36V-18.545454545454547Z M318.3636363636364 -24.727272727272727H320.7127272727273V-18.545454545454547H327.76000000000005V-15.454545454545455H320.7127272727273V-3.090909090909091H318.3636363636364V-15.454545454545455H316.0145454545455V-18.545454545454547H318.3636363636364ZM320.7127272727273 -3.090909090909091H325.4109090909091V0.0H320.7127272727273ZM325.4109090909091 -6.181818181818182H327.76000000000005V-3.090909090909091H325.4109090909091Z M331.71636363636367 -18.545454545454547H343.4618181818182V-15.454545454545455H341.1127272727273V-12.363636363636363H338.76363636363635V-15.454545454545455H331.71636363636367ZM336.4145454545455 -12.363636363636363H338.76363636363635V-9.272727272727273H336.4145454545455ZM334.06545454545454 -9.272727272727273H336.4145454545455V-6.181818181818182H334.06545454545454ZM331.71636363636367 -6.181818181818182H334.06545454545454V-3.090909090909091H343.4618181818182V0.0H331.71636363636367Z M353.2909090909091 -6.181818181818182H355.64V0.0H353.2909090909091ZM350.9418181818182 0.0H353.2909090909091V3.090909090909091H350.9418181818182Z M387.0436363636364 -24.727272727272727H389.3927272727273V-21.636363636363637H387.0436363636364ZM387.0436363636364 -15.454545454545455H382.3454545454546V-18.545454545454547H389.3927272727273V3.090909090909091H387.0436363636364ZM387.0436363636364 3.090909090909091V6.181818181818182H382.3454545454546V3.090909090909091ZM382.3454545454546 3.090909090909091H379.99636363636364V0.0H382.3454545454546Z M394.5236363636364 -18.545454545454547H396.8727272727273V-3.090909090909091H394.5236363636364ZM396.8727272727273 -3.090909090909091H401.5709090909091V0.0H396.8727272727273ZM403.92 -18.545454545454547H406.26909090909095V0.0H403.92V-3.090909090909091H401.5709090909091V-6.181818181818182H403.92Z M419.6218181818182 -24.727272727272727H421.9709090909091V0.0H419.6218181818182V-3.090909090909091H417.27272727272725V-6.181818181818182H419.6218181818182V-12.363636363636363H417.27272727272725V-15.454545454545455H419.6218181818182ZM417.27272727272725 -3.090909090909091V0.0H412.57454545454544V-3.090909090909091ZM412.57454545454544 -3.090909090909091H410.22545454545457V-15.454545454545455H412.57454545454544ZM417.27272727272725 -15.454545454545455H412.57454545454544V-18.545454545454547H417.27272727272725Z M428.2763636363636 -18.545454545454547H432.9745454545454V-15.454545454545455H428.2763636363636ZM425.92727272727274 -15.454545454545455H428.2763636363636V-3.090909090909091H425.92727272727274ZM428.2763636363636 -3.090909090909091H432.9745454545454V0.0H428.2763636363636ZM428.2763636363636 3.090909090909091H435.32363636363635V6.181818181818182H428.2763636363636ZM432.9745454545454 -6.181818181818182H435.32363636363635V-12.363636363636363H432.9745454545454V-15.454545454545455H435.32363636363635V-18.545454545454547H437.6727272727273V3.090909090909091H435.32363636363635V-3.090909090909091H432.9745454545454Z M443.97818181818184 -18.545454545454547H451.0254545454546V-15.454545454545455H443.97818181818184ZM441.62909090909096 -15.454545454545455H443.97818181818184V-12.363636363636363H451.0254545454546V-15.454545454545455H453.3745454545455V-9.272727272727273H443.97818181818184V-3.090909090909091H441.62909090909096ZM443.97818181818184 -3.090909090909091H451.0254545454546V0.0H443.97818181818184ZM451.0254545454546 -6.181818181818182H453.3745454545455V-3.090909090909091H451.0254545454546Z M473.0327272727273 -18.545454545454547H477.7309090909091V-15.454545454545455H475.3818181818182V0.0H473.0327272727273ZM477.7309090909091 -15.454545454545455H480.08V0.0H477.7309090909091ZM482.4290909090909 -15.454545454545455H480.08V-18.545454545454547H482.4290909090909ZM482.4290909090909 -15.454545454545455H484.77818181818185V0.0H482.4290909090909Z M488.73454545454547 -18.545454545454547H491.08363636363634V-9.272727272727273H488.73454545454547ZM498.1309090909091 -18.545454545454547H500.48V-9.272727272727273H498.1309090909091ZM493.4327272727273 -3.090909090909091H495.78181818181815V3.090909090909091H493.4327272727273ZM493.4327272727273 3.090909090909091V6.181818181818182H488.73454545454547V3.090909090909091ZM495.78181818181815 -9.272727272727273H498.1309090909091V-3.090909090909091H495.78181818181815ZM491.08363636363634 -9.272727272727273H493.4327272727273V-3.090909090909091H491.08363636363634Z M520.1381818181818 -18.545454545454547H522.4872727272727V-9.272727272727273H520.1381818181818ZM529.5345454545454 -18.545454545454547H531.8836363636364V-9.272727272727273H529.5345454545454ZM524.8363636363636 -3.090909090909091H522.4872727272727V-9.272727272727273H524.8363636363636ZM524.8363636363636 -3.090909090909091H527.1854545454545V0.0H524.8363636363636ZM527.1854545454545 -9.272727272727273H529.5345454545454V-3.090909090909091H527.1854545454545Z M538.189090909091 -18.545454545454547H545.2363636363636V-15.454545454545455H538.189090909091ZM545.2363636363636 -15.454545454545455H547.5854545454546V-3.090909090909091H545.2363636363636ZM535.84 -15.454545454545455H538.189090909091V-3.090909090909091H535.84ZM538.189090909091 -3.090909090909091H545.2363636363636V0.0H538.189090909091Z M551.5418181818183 -18.545454545454547H553.8909090909092V-3.090909090909091H551.5418181818183ZM560.9381818181819 -18.545454545454547H563.2872727272728V0.0H558.5890909090909V-3.090909090909091H560.9381818181819ZM558.5890909090909 -3.090909090909091H556.24V-18.545454545454547H558.5890909090909ZM553.8909090909092 -3.090909090909091H556.24V0.0H553.8909090909092Z M571.9418181818181 -6.181818181818182H574.290909090909V0.0H571.9418181818181Z"/>
  </g>
</svg>
