<svg xmlns="http://www.w3.org/2000/svg" width="705" height="71" viewBox="0 0 705 71" role="img" aria-labelledby="title desc" style="background: transparent;">
  <title id="title">Departure Mono Compact Regular preview</title>
  <desc id="desc">Sphinx of black quartz, judge my vow.</desc>
  <style>
    svg { background: transparent; }
    .preview-text { fill: #24292f; }
    @media (prefers-color-scheme: dark) {
      .preview-text { fill: #f0f6fc; }
    }
  </style>
  <g class="preview-text" transform="translate(22.76 44.73)">
    <path d="M1.2363636363636363 -21.636363636363637H4.327272727272727V-15.454545454545455H1.2363636363636363ZM4.327272727272727 -15.454545454545455H13.600000000000001V-12.363636363636363H4.327272727272727ZM13.600000000000001 -3.090909090909091V0.0H4.327272727272727V-3.090909090909091ZM4.327272727272727 -3.090909090909091H1.2363636363636363V-6.181818181818182H4.327272727272727ZM13.600000000000001 -12.363636363636363H16.69090909090909V-3.090909090909091H13.600000000000001ZM4.327272727272727 -24.727272727272727H13.600000000000001V-21.636363636363637H4.327272727272727ZM13.600000000000001 -21.636363636363637H16.69090909090909V-18.545454545454547H13.600000000000001Z M19.225454545454546 -18.545454545454547H22.316363636363636V-15.454545454545455H25.407272727272726V-12.363636363636363H22.316363636363636V-6.181818181818182H25.407272727272726V-3.090909090909091H22.316363636363636V6.181818181818182H19.225454545454546ZM25.407272727272726 -18.545454545454547H31.58909090909091V-15.454545454545455H25.407272727272726ZM31.58909090909091 -15.454545454545455H34.68V-3.090909090909091H31.58909090909091ZM25.407272727272726 -3.090909090909091H31.58909090909091V0.0H25.407272727272726Z M37.21454545454545 -24.727272727272727H40.305454545454545V-15.454545454545455H43.39636363636364V-12.363636363636363H40.305454545454545V0.0H37.21454545454545ZM49.57818181818182 -15.454545454545455H52.66909090909091V0.0H49.57818181818182ZM43.39636363636364 -18.545454545454547H49.57818181818182V-15.454545454545455H43.39636363636364Z M61.38545454545455 -15.454545454545455H55.20363636363636V-18.545454545454547H64.47636363636364V-3.090909090909091H70.65818181818182V0.0H55.20363636363636V-3.090909090909091H61.38545454545455ZM61.38545454545455 -24.727272727272727H64.47636363636364V-21.636363636363637H61.38545454545455Z M73.19272727272727 -18.545454545454547H76.28363636363636V-15.454545454545455H79.37454545454545V-12.363636363636363H76.28363636363636V0.0H73.19272727272727ZM79.37454545454545 -18.545454545454547H85.55636363636364V-15.454545454545455H79.37454545454545ZM85.55636363636364 -15.454545454545455H88.64727272727272V0.0H85.55636363636364Z M91.18181818181819 -18.545454545454547H94.27272727272728V-15.454545454545455H91.18181818181819ZM103.54545454545456 -18.545454545454547H106.63636363636364V-15.454545454545455H103.54545454545456ZM91.18181818181819 -6.181818181818182H94.27272727272728V0.0H91.18181818181819ZM100.45454545454547 -15.454545454545455H103.54545454545456V-12.363636363636363H100.45454545454547ZM94.27272727272728 -15.454545454545455H97.36363636363637V-12.363636363636363H94.27272727272728ZM97.36363636363637 -12.363636363636363H100.45454545454547V-9.272727272727273H97.36363636363637ZM94.27272727272728 -9.272727272727273H97.36363636363637V-6.181818181818182H94.27272727272728ZM100.45454545454547 -9.272727272727273H103.54545454545456V-6.181818181818182H100.45454545454547ZM103.54545454545456 -6.181818181818182H106.63636363636364V0.0H103.54545454545456Z M130.2509090909091 -18.545454545454547H139.52363636363637V-15.454545454545455H130.2509090909091ZM139.52363636363637 -15.454545454545455H142.61454545454546V-3.090909090909091H139.52363636363637ZM127.16 -15.454545454545455H130.2509090909091V-3.090909090909091H127.16ZM130.2509090909091 -3.090909090909091H139.52363636363637V0.0H130.2509090909091Z M148.23999999999998 -15.454545454545455H145.14909090909092V-18.545454545454547H148.23999999999998V-21.636363636363637H151.33090909090907V-18.545454545454547H160.60363636363635V-15.454545454545455H151.33090909090907V-3.090909090909091H157.51272727272726V0.0H145.14909090909092V-3.090909090909091H148.23999999999998ZM151.33090909090907 -24.727272727272727H160.60363636363635V-21.636363636363637H151.33090909090907Z M181.12727272727275 -24.727272727272727H184.21818181818182V-15.454545454545455H187.3090909090909V-12.363636363636363H184.21818181818182V-6.181818181818182H187.3090909090909V-3.090909090909091H184.21818181818182V0.0H181.12727272727275ZM187.3090909090909 -3.090909090909091H193.4909090909091V0.0H187.3090909090909ZM193.4909090909091 -15.454545454545455H196.5818181818182V-3.090909090909091H193.4909090909091ZM187.3090909090909 -18.545454545454547H193.4909090909091V-15.454545454545455H187.3090909090909Z M205.2981818181818 -21.636363636363637H199.11636363636364V-24.727272727272727H208.3890909090909V-3.090909090909091H214.57090909090908V0.0H199.11636363636364V-3.090909090909091H205.2981818181818Z M217.10545454545456 -9.272727272727273H220.19636363636363V-3.090909090909091H217.10545454545456ZM220.19636363636363 -3.090909090909091H226.37818181818182V0.0H220.19636363636363ZM226.37818181818182 -6.181818181818182H229.4690909090909V-9.272727272727273H220.19636363636363V-12.363636363636363H229.4690909090909V-15.454545454545455H232.56V0.0H229.4690909090909V-3.090909090909091H226.37818181818182ZM220.19636363636363 -18.545454545454547H229.4690909090909V-15.454545454545455H220.19636363636363Z M238.18545454545455 -18.545454545454547H247.45818181818183V-15.454545454545455H238.18545454545455ZM235.09454545454548 -15.454545454545455H238.18545454545455V-3.090909090909091H235.09454545454548ZM238.18545454545455 -3.090909090909091H247.45818181818183V0.0H238.18545454545455ZM247.45818181818183 -15.454545454545455H250.54909090909092V-12.363636363636363H247.45818181818183ZM247.45818181818183 -6.181818181818182H250.54909090909092V-3.090909090909091H247.45818181818183Z M253.08363636363637 -24.727272727272727H256.17454545454547V-9.272727272727273H259.26545454545453V-12.363636363636363H262.35636363636365V-6.181818181818182H256.17454545454547V0.0H253.08363636363637ZM265.4472727272727 -18.545454545454547H268.53818181818184V-15.454545454545455H265.4472727272727ZM262.35636363636365 -15.454545454545455H265.4472727272727V-12.363636363636363H262.35636363636365ZM262.35636363636365 -6.181818181818182H265.4472727272727V-3.090909090909091H262.35636363636365ZM265.4472727272727 -3.090909090909091H268.53818181818184V0.0H265.4472727272727Z M292.15272727272725 -18.545454545454547H298.33454545454543V-15.454545454545455H292.15272727272725ZM298.33454545454543 -15.454545454545455H301.42545454545456V-18.545454545454547H304.5163636363636V6.181818181818182H301.42545454545456V-3.090909090909091H298.33454545454543V-6.181818181818182H301.42545454545456V-12.363636363636363H298.33454545454543ZM289.0618181818182 -15.454545454545455H292.15272727272725V-3.090909090909091H289.0618181818182ZM292.15272727272725 -3.090909090909091H298.33454545454543V0.0H292.15272727272725Z M307.0509090909091 -18.545454545454547H310.14181818181817V-3.090909090909091H307.0509090909091ZM310.14181818181817 -3.090909090909091H316.32363636363635V0.0H310.14181818181817ZM319.4145454545455 -18.545454545454547H322.50545454545454V0.0H319.4145454545455V-3.090909090909091H316.32363636363635V-6.181818181818182H319.4145454545455Z M325.04 -9.272727272727273H328.1309090909091V-3.090909090909091H325.04ZM328.1309090909091 -3.090909090909091H334.3127272727273V0.0H328.1309090909091ZM334.3127272727273 -6.181818181818182H337.4036363636364V-9.272727272727273H328.1309090909091V-12.363636363636363H337.4036363636364V-15.454545454545455H340.49454545454546V0.0H337.4036363636364V-3.090909090909091H334.3127272727273ZM328.1309090909091 -18.545454545454547H337.4036363636364V-15.454545454545455H328.1309090909091Z M349.2109090909091 -18.545454545454547V-15.454545454545455H352.3018181818182V-12.363636363636363H349.2109090909091V-3.090909090909091H355.3927272727273V0.0H343.02909090909094V-3.090909090909091H346.12V-15.454545454545455H343.02909090909094V-18.545454545454547ZM358.4836363636364 -18.545454545454547V-15.454545454545455H352.3018181818182V-18.545454545454547Z M364.1090909090909 -24.727272727272727H367.20000000000005V-18.545454545454547H376.4727272727273V-15.454545454545455H367.20000000000005V-3.090909090909091H364.1090909090909V-15.454545454545455H361.01818181818186V-18.545454545454547H364.1090909090909ZM367.20000000000005 -3.090909090909091H373.38181818181823V0.0H367.20000000000005ZM373.38181818181823 -6.181818181818182H376.4727272727273V-3.090909090909091H373.38181818181823Z M379.0072727272728 -18.545454545454547H394.4618181818182V-15.454545454545455H391.37090909090915V-12.363636363636363H388.28000000000003V-15.454545454545455H379.0072727272728ZM385.18909090909096 -12.363636363636363H388.28000000000003V-9.272727272727273H385.18909090909096ZM382.09818181818184 -9.272727272727273H385.18909090909096V-6.181818181818182H382.09818181818184ZM379.0072727272728 -6.181818181818182H382.09818181818184V-3.090909090909091H394.4618181818182V0.0H379.0072727272728Z M404.7854545454545 -6.181818181818182H407.87636363636364V0.0H404.7854545454545ZM401.69454545454545 0.0H404.7854545454545V3.090909090909091H401.69454545454545Z M443.8545454545455 -24.727272727272727H446.94545454545454V-21.636363636363637H443.8545454545455ZM443.8545454545455 -15.454545454545455H437.6727272727273V-18.545454545454547H446.94545454545454V3.090909090909091H443.8545454545455ZM443.8545454545455 3.090909090909091V6.181818181818182H437.6727272727273V3.090909090909091ZM437.6727272727273 3.090909090909091H434.5818181818182V0.0H437.6727272727273Z M450.9636363636364 -18.545454545454547H454.05454545454546V-3.090909090909091H450.9636363636364ZM454.05454545454546 -3.090909090909091H460.23636363636365V0.0H454.05454545454546ZM463.32727272727277 -18.545454545454547H466.41818181818184V0.0H463.32727272727277V-3.090909090909091H460.23636363636365V-6.181818181818182H463.32727272727277Z M481.3163636363637 -24.727272727272727H484.40727272727275V0.0H481.3163636363637V-3.090909090909091H478.22545454545457V-6.181818181818182H481.3163636363637V-12.363636363636363H478.22545454545457V-15.454545454545455H481.3163636363637ZM478.22545454545457 -3.090909090909091V0.0H472.0436363636364V-3.090909090909091ZM472.0436363636364 -3.090909090909091H468.9527272727273V-15.454545454545455H472.0436363636364ZM478.22545454545457 -15.454545454545455H472.0436363636364V-18.545454545454547H478.22545454545457Z M490.0327272727273 -18.545454545454547H496.2145454545455V-15.454545454545455H490.0327272727273ZM486.94181818181823 -15.454545454545455H490.0327272727273V-3.090909090909091H486.94181818181823ZM490.0327272727273 -3.090909090909091H496.2145454545455V0.0H490.0327272727273ZM490.0327272727273 3.090909090909091H499.3054545454546V6.181818181818182H490.0327272727273ZM496.2145454545455 -6.181818181818182H499.3054545454546V-12.363636363636363H496.2145454545455V-15.454545454545455H499.3054545454546V-18.545454545454547H502.3963636363637V3.090909090909091H499.3054545454546V-3.090909090909091H496.2145454545455Z M508.02181818181816 -18.545454545454547H517.2945454545454V-15.454545454545455H508.02181818181816ZM504.9309090909091 -15.454545454545455H508.02181818181816V-12.363636363636363H517.2945454545454V-15.454545454545455H520.3854545454545V-9.272727272727273H508.02181818181816V-3.090909090909091H504.9309090909091ZM508.02181818181816 -3.090909090909091H517.2945454545454V0.0H508.02181818181816ZM517.2945454545454 -6.181818181818182H520.3854545454545V-3.090909090909091H517.2945454545454Z M540.909090909091 -18.545454545454547H547.0909090909091V-15.454545454545455H544.0000000000001V0.0H540.909090909091ZM547.0909090909091 -15.454545454545455H550.1818181818182V0.0H547.0909090909091ZM553.2727272727274 -15.454545454545455H550.1818181818182V-18.545454545454547H553.2727272727274ZM553.2727272727274 -15.454545454545455H556.3636363636365V0.0H553.2727272727274Z M558.8981818181818 -18.545454545454547H561.9890909090909V-9.272727272727273H558.8981818181818ZM571.2618181818182 -18.545454545454547H574.3527272727273V-9.272727272727273H571.2618181818182ZM565.0799999999999 -3.090909090909091H568.170909090909V3.090909090909091H565.0799999999999ZM565.0799999999999 3.090909090909091V6.181818181818182H558.8981818181818V3.090909090909091ZM568.170909090909 -9.272727272727273H571.2618181818182V-3.090909090909091H568.170909090909ZM561.9890909090909 -9.272727272727273H565.0799999999999V-3.090909090909091H561.9890909090909Z M594.8763636363636 -18.545454545454547H597.9672727272728V-9.272727272727273H594.8763636363636ZM607.24 -18.545454545454547H610.3309090909091V-9.272727272727273H607.24ZM601.0581818181818 -3.090909090909091H597.9672727272728V-9.272727272727273H601.0581818181818ZM601.0581818181818 -3.090909090909091H604.1490909090909V0.0H601.0581818181818ZM604.1490909090909 -9.272727272727273H607.24V-3.090909090909091H604.1490909090909Z M615.9563636363637 -18.545454545454547H625.2290909090909V-15.454545454545455H615.9563636363637ZM625.2290909090909 -15.454545454545455H628.32V-3.090909090909091H625.2290909090909ZM612.8654545454546 -15.454545454545455H615.9563636363637V-3.090909090909091H612.8654545454546ZM615.9563636363637 -3.090909090909091H625.2290909090909V0.0H615.9563636363637Z M630.8545454545455 -18.545454545454547H633.9454545454546V-3.090909090909091H630.8545454545455ZM643.2181818181818 -18.545454545454547H646.309090909091V0.0H640.1272727272727V-3.090909090909091H643.2181818181818ZM640.1272727272727 -3.090909090909091H637.0363636363636V-18.545454545454547H640.1272727272727ZM633.9454545454546 -3.090909090909091H637.0363636363636V0.0H633.9454545454546Z M655.0254545454545 -6.181818181818182H658.1163636363636V0.0H655.0254545454545Z"/>
  </g>
</svg>
