<svg xmlns="http://www.w3.org/2000/svg" width="836" height="71" viewBox="0 0 836 71" role="img" aria-labelledby="title desc" style="background: transparent;">
  <title id="title">Departure Mono Regular preview</title>
  <desc id="desc">Sphinx of black quartz, judge my vow.</desc>
  <style>
    svg { background: transparent; }
    .preview-text { fill: #24292f; }
    @media (prefers-color-scheme: dark) {
      .preview-text { fill: #f0f6fc; }
    }
  </style>
  <g class="preview-text" transform="translate(20.91 44.73)">
    <path d="M3.090909090909091 -21.636363636363637H6.181818181818182V-15.454545454545455H3.090909090909091ZM6.181818181818182 -15.454545454545455H15.454545454545455V-12.363636363636363H6.181818181818182ZM15.454545454545455 -3.090909090909091V0.0H6.181818181818182V-3.090909090909091ZM6.181818181818182 -3.090909090909091H3.090909090909091V-6.181818181818182H6.181818181818182ZM15.454545454545455 -12.363636363636363H18.545454545454547V-3.090909090909091H15.454545454545455ZM6.181818181818182 -24.727272727272727H15.454545454545455V-21.636363636363637H6.181818181818182ZM15.454545454545455 -21.636363636363637H18.545454545454547V-18.545454545454547H15.454545454545455Z M24.727272727272727 -18.545454545454547H27.81818181818182V-15.454545454545455H30.90909090909091V-12.363636363636363H27.81818181818182V-6.181818181818182H30.90909090909091V-3.090909090909091H27.81818181818182V6.181818181818182H24.727272727272727ZM30.90909090909091 -18.545454545454547H37.09090909090909V-15.454545454545455H30.90909090909091ZM37.09090909090909 -15.454545454545455H40.18181818181819V-3.090909090909091H37.09090909090909ZM30.90909090909091 -3.090909090909091H37.09090909090909V0.0H30.90909090909091Z M46.36363636363637 -24.727272727272727H49.45454545454545V-15.454545454545455H52.54545454545455V-12.363636363636363H49.45454545454545V0.0H46.36363636363637ZM58.72727272727273 -15.454545454545455H61.81818181818182V0.0H58.72727272727273ZM52.54545454545455 -18.545454545454547H58.72727272727273V-15.454545454545455H52.54545454545455Z M74.18181818181819 -15.454545454545455H68.0V-18.545454545454547H77.27272727272727V-3.090909090909091H83.45454545454545V0.0H68.0V-3.090909090909091H74.18181818181819ZM74.18181818181819 -24.727272727272727H77.27272727272727V-21.636363636363637H74.18181818181819Z M89.63636363636364 -18.545454545454547H92.72727272727273V-15.454545454545455H95.81818181818181V-12.363636363636363H92.72727272727273V0.0H89.63636363636364ZM95.81818181818181 -18.545454545454547H102.0V-15.454545454545455H95.81818181818181ZM102.0 -15.454545454545455H105.0909090909091V0.0H102.0Z M111.27272727272728 -18.545454545454547H114.36363636363637V-15.454545454545455H111.27272727272728ZM123.63636363636364 -18.545454545454547H126.72727272727273V-15.454545454545455H123.63636363636364ZM111.27272727272728 -6.181818181818182H114.36363636363637V0.0H111.27272727272728ZM120.54545454545455 -15.454545454545455H123.63636363636364V-12.363636363636363H120.54545454545455ZM114.36363636363637 -15.454545454545455H117.45454545454547V-12.363636363636363H114.36363636363637ZM117.45454545454547 -12.363636363636363H120.54545454545455V-9.272727272727273H117.45454545454547ZM114.36363636363637 -9.272727272727273H117.45454545454547V-6.181818181818182H114.36363636363637ZM120.54545454545455 -9.272727272727273H123.63636363636364V-6.181818181818182H120.54545454545455ZM123.63636363636364 -6.181818181818182H126.72727272727273V0.0H123.63636363636364Z M157.63636363636365 -18.545454545454547H166.90909090909093V-15.454545454545455H157.63636363636365ZM166.90909090909093 -15.454545454545455H170.0V-3.090909090909091H166.90909090909093ZM154.54545454545456 -15.454545454545455H157.63636363636365V-3.090909090909091H154.54545454545456ZM157.63636363636365 -3.090909090909091H166.90909090909093V0.0H157.63636363636365Z M179.27272727272728 -15.454545454545455H176.1818181818182V-18.545454545454547H179.27272727272728V-21.636363636363637H182.36363636363637V-18.545454545454547H191.63636363636363V-15.454545454545455H182.36363636363637V-3.090909090909091H188.54545454545456V0.0H176.1818181818182V-3.090909090909091H179.27272727272728ZM182.36363636363637 -24.727272727272727H191.63636363636363V-21.636363636363637H182.36363636363637Z M219.45454545454547 -24.727272727272727H222.54545454545456V-15.454545454545455H225.63636363636365V-12.363636363636363H222.54545454545456V-6.181818181818182H225.63636363636365V-3.090909090909091H222.54545454545456V0.0H219.45454545454547ZM225.63636363636365 -3.090909090909091H231.81818181818184V0.0H225.63636363636365ZM231.81818181818184 -15.454545454545455H234.90909090909093V-3.090909090909091H231.81818181818184ZM225.63636363636365 -18.545454545454547H231.81818181818184V-15.454545454545455H225.63636363636365Z M247.27272727272728 -21.636363636363637H241.0909090909091V-24.727272727272727H250.36363636363637V-3.090909090909091H256.54545454545456V0.0H241.0909090909091V-3.090909090909091H247.27272727272728Z M262.7272727272727 -9.272727272727273H265.8181818181818V-3.090909090909091H262.7272727272727ZM265.8181818181818 -3.090909090909091H272.0V0.0H265.8181818181818ZM272.0 -6.181818181818182H275.09090909090907V-9.272727272727273H265.8181818181818V-12.363636363636363H275.09090909090907V-15.454545454545455H278.1818181818182V0.0H275.09090909090907V-3.090909090909091H272.0ZM265.8181818181818 -18.545454545454547H275.09090909090907V-15.454545454545455H265.8181818181818Z M287.4545454545455 -18.545454545454547H296.72727272727275V-15.454545454545455H287.4545454545455ZM284.3636363636364 -15.454545454545455H287.4545454545455V-3.090909090909091H284.3636363636364ZM287.4545454545455 -3.090909090909091H296.72727272727275V0.0H287.4545454545455ZM296.72727272727275 -15.454545454545455H299.81818181818187V-12.363636363636363H296.72727272727275ZM296.72727272727275 -6.181818181818182H299.81818181818187V-3.090909090909091H296.72727272727275Z M306.0 -24.727272727272727H309.0909090909091V-9.272727272727273H312.1818181818182V-12.363636363636363H315.2727272727273V-6.181818181818182H309.0909090909091V0.0H306.0ZM318.3636363636364 -18.545454545454547H321.4545454545455V-15.454545454545455H318.3636363636364ZM315.2727272727273 -15.454545454545455H318.3636363636364V-12.363636363636363H315.2727272727273ZM315.2727272727273 -6.181818181818182H318.3636363636364V-3.090909090909091H315.2727272727273ZM318.3636363636364 -3.090909090909091H321.4545454545455V0.0H318.3636363636364Z M352.3636363636364 -18.545454545454547H358.54545454545456V-15.454545454545455H352.3636363636364ZM358.54545454545456 -15.454545454545455H361.6363636363636V-18.545454545454547H364.72727272727275V6.181818181818182H361.6363636363636V-3.090909090909091H358.54545454545456V-6.181818181818182H361.6363636363636V-12.363636363636363H358.54545454545456ZM349.27272727272725 -15.454545454545455H352.3636363636364V-3.090909090909091H349.27272727272725ZM352.3636363636364 -3.090909090909091H358.54545454545456V0.0H352.3636363636364Z M370.9090909090909 -18.545454545454547H374.0V-3.090909090909091H370.9090909090909ZM374.0 -3.090909090909091H380.1818181818182V0.0H374.0ZM383.27272727272725 -18.545454545454547H386.3636363636364V0.0H383.27272727272725V-3.090909090909091H380.1818181818182V-6.181818181818182H383.27272727272725Z M392.54545454545456 -9.272727272727273H395.6363636363637V-3.090909090909091H392.54545454545456ZM395.6363636363637 -3.090909090909091H401.81818181818187V0.0H395.6363636363637ZM401.81818181818187 -6.181818181818182H404.90909090909093V-9.272727272727273H395.6363636363637V-12.363636363636363H404.90909090909093V-15.454545454545455H408.00000000000006V0.0H404.90909090909093V-3.090909090909091H401.81818181818187ZM395.6363636363637 -18.545454545454547H404.90909090909093V-15.454545454545455H395.6363636363637Z M420.3636363636364 -18.545454545454547V-15.454545454545455H423.4545454545455V-12.363636363636363H420.3636363636364V-3.090909090909091H426.54545454545456V0.0H414.1818181818182V-3.090909090909091H417.2727272727273V-15.454545454545455H414.1818181818182V-18.545454545454547ZM429.6363636363637 -18.545454545454547V-15.454545454545455H423.4545454545455V-18.545454545454547Z M438.90909090909093 -24.727272727272727H442.0V-18.545454545454547H451.2727272727273V-15.454545454545455H442.0V-3.090909090909091H438.90909090909093V-15.454545454545455H435.8181818181818V-18.545454545454547H438.90909090909093ZM442.0 -3.090909090909091H448.1818181818182V0.0H442.0ZM448.1818181818182 -6.181818181818182H451.2727272727273V-3.090909090909091H448.1818181818182Z M457.45454545454544 -18.545454545454547H472.90909090909093V-15.454545454545455H469.8181818181818V-12.363636363636363H466.72727272727275V-15.454545454545455H457.45454545454544ZM463.6363636363636 -12.363636363636363H466.72727272727275V-9.272727272727273H463.6363636363636ZM460.54545454545456 -9.272727272727273H463.6363636363636V-6.181818181818182H460.54545454545456ZM457.45454545454544 -6.181818181818182H460.54545454545456V-3.090909090909091H472.90909090909093V0.0H457.45454545454544Z M485.27272727272725 -6.181818181818182H488.3636363636364V0.0H485.27272727272725ZM482.1818181818182 0.0H485.27272727272725V3.090909090909091H482.1818181818182Z M531.6363636363636 -24.727272727272727H534.7272727272727V-21.636363636363637H531.6363636363636ZM531.6363636363636 -15.454545454545455H525.4545454545454V-18.545454545454547H534.7272727272727V3.090909090909091H531.6363636363636ZM531.6363636363636 3.090909090909091V6.181818181818182H525.4545454545454V3.090909090909091ZM525.4545454545454 3.090909090909091H522.3636363636364V0.0H525.4545454545454Z M544.0 -18.545454545454547H547.090909090909V-3.090909090909091H544.0ZM547.090909090909 -3.090909090909091H553.2727272727273V0.0H547.090909090909ZM556.3636363636364 -18.545454545454547H559.4545454545454V0.0H556.3636363636364V-3.090909090909091H553.2727272727273V-6.181818181818182H556.3636363636364Z M578.0000000000001 -24.727272727272727H581.0909090909091V0.0H578.0000000000001V-3.090909090909091H574.909090909091V-6.181818181818182H578.0000000000001V-12.363636363636363H574.909090909091V-15.454545454545455H578.0000000000001ZM574.909090909091 -3.090909090909091V0.0H568.7272727272727V-3.090909090909091ZM568.7272727272727 -3.090909090909091H565.6363636363637V-15.454545454545455H568.7272727272727ZM574.909090909091 -15.454545454545455H568.7272727272727V-18.545454545454547H574.909090909091Z M590.3636363636364 -18.545454545454547H596.5454545454546V-15.454545454545455H590.3636363636364ZM587.2727272727274 -15.454545454545455H590.3636363636364V-3.090909090909091H587.2727272727274ZM590.3636363636364 -3.090909090909091H596.5454545454546V0.0H590.3636363636364ZM590.3636363636364 3.090909090909091H599.6363636363637V6.181818181818182H590.3636363636364ZM596.5454545454546 -6.181818181818182H599.6363636363637V-12.363636363636363H596.5454545454546V-15.454545454545455H599.6363636363637V-18.545454545454547H602.7272727272727V3.090909090909091H599.6363636363637V-3.090909090909091H596.5454545454546Z M612.0 -18.545454545454547H621.2727272727274V-15.454545454545455H612.0ZM608.909090909091 -15.454545454545455H612.0V-12.363636363636363H621.2727272727274V-15.454545454545455H624.3636363636364V-9.272727272727273H612.0V-3.090909090909091H608.909090909091ZM612.0 -3.090909090909091H621.2727272727274V0.0H612.0ZM621.2727272727274 -6.181818181818182H624.3636363636364V-3.090909090909091H621.2727272727274Z M652.1818181818182 -18.545454545454547H658.3636363636364V-15.454545454545455H655.2727272727273V0.0H652.1818181818182ZM658.3636363636364 -15.454545454545455H661.4545454545455V0.0H658.3636363636364ZM664.5454545454546 -15.454545454545455H661.4545454545455V-18.545454545454547H664.5454545454546ZM664.5454545454546 -15.454545454545455H667.6363636363636V0.0H664.5454545454546Z M673.8181818181819 -18.545454545454547H676.9090909090909V-9.272727272727273H673.8181818181819ZM686.1818181818182 -18.545454545454547H689.2727272727273V-9.272727272727273H686.1818181818182ZM680.0 -3.090909090909091H683.0909090909091V3.090909090909091H680.0ZM680.0 3.090909090909091V6.181818181818182H673.8181818181819V3.090909090909091ZM683.0909090909091 -9.272727272727273H686.1818181818182V-3.090909090909091H683.0909090909091ZM676.9090909090909 -9.272727272727273H680.0V-3.090909090909091H676.9090909090909Z M717.0909090909091 -18.545454545454547H720.1818181818181V-9.272727272727273H717.0909090909091ZM729.4545454545455 -18.545454545454547H732.5454545454545V-9.272727272727273H729.4545454545455ZM723.2727272727273 -3.090909090909091H720.1818181818181V-9.272727272727273H723.2727272727273ZM723.2727272727273 -3.090909090909091H726.3636363636364V0.0H723.2727272727273ZM726.3636363636364 -9.272727272727273H729.4545454545455V-3.090909090909091H726.3636363636364Z M741.8181818181818 -18.545454545454547H751.0909090909091V-15.454545454545455H741.8181818181818ZM751.0909090909091 -15.454545454545455H754.1818181818181V-3.090909090909091H751.0909090909091ZM738.7272727272727 -15.454545454545455H741.8181818181818V-3.090909090909091H738.7272727272727ZM741.8181818181818 -3.090909090909091H751.0909090909091V0.0H741.8181818181818Z M760.3636363636364 -18.545454545454547H763.4545454545454V-3.090909090909091H760.3636363636364ZM772.7272727272727 -18.545454545454547H775.8181818181818V0.0H769.6363636363636V-3.090909090909091H772.7272727272727ZM769.6363636363636 -3.090909090909091H766.5454545454545V-18.545454545454547H769.6363636363636ZM763.4545454545454 -3.090909090909091H766.5454545454545V0.0H763.4545454545454Z M788.1818181818182 -6.181818181818182H791.2727272727274V0.0H788.1818181818182Z"/>
  </g>
</svg>
