<svg xmlns="http://www.w3.org/2000/svg" width="839" height="71" viewBox="0 0 839 71" role="img" aria-labelledby="title desc">
  <title id="title">Departure Mono Regular Sonic preview</title>
  <desc id="desc">Sphinx of black quartz, judge my vow.</desc>
  <rect width="100%" height="100%" rx="10" fill="#0d1117"/>
  <g transform="translate(23.51 44.73)" fill="#f0f6fc">
    <path d="M0.49454545454545457 -21.636363636363637V-15.454545454545455H3.5854545454545454V-21.636363636363637ZM3.5854545454545454 -15.454545454545455V-12.363636363636363H12.85818181818182V-15.454545454545455ZM12.85818181818182 -3.090909090909091H3.5854545454545454V0.0H12.85818181818182ZM3.5854545454545454 -3.090909090909091V-6.181818181818182H0.49454545454545457V-3.090909090909091ZM12.85818181818182 -12.363636363636363V-3.090909090909091H15.94909090909091V-12.363636363636363ZM3.5854545454545454 -24.727272727272727V-21.636363636363637H12.85818181818182V-24.727272727272727ZM12.85818181818182 -21.636363636363637V-18.545454545454547H15.94909090909091V-21.636363636363637ZM1.7927272727272727 -21.636363636363637V-15.454545454545455H4.883636363636364V-21.636363636363637ZM4.883636363636364 -15.454545454545455V-12.363636363636363H14.156363636363636V-15.454545454545455ZM14.156363636363636 -3.090909090909091H4.883636363636364V0.0H14.156363636363636ZM4.883636363636364 -3.090909090909091V-6.181818181818182H1.7927272727272727V-3.090909090909091ZM14.156363636363636 -12.363636363636363V-3.090909090909091H17.24727272727273V-12.363636363636363ZM4.883636363636364 -24.727272727272727V-21.636363636363637H14.156363636363636V-24.727272727272727ZM14.156363636363636 -21.636363636363637V-18.545454545454547H17.24727272727273V-21.636363636363637ZM3.090909090909091 -21.636363636363637V-15.454545454545455H6.181818181818182V-21.636363636363637ZM6.181818181818182 -15.454545454545455V-12.363636363636363H15.454545454545455V-15.454545454545455ZM15.454545454545455 -3.090909090909091H6.181818181818182V0.0H15.454545454545455ZM6.181818181818182 -3.090909090909091V-6.181818181818182H3.090909090909091V-3.090909090909091ZM15.454545454545455 -12.363636363636363V-3.090909090909091H18.545454545454547V-12.363636363636363ZM6.181818181818182 -24.727272727272727V-21.636363636363637H15.454545454545455V-24.727272727272727ZM15.454545454545455 -21.636363636363637V-18.545454545454547H18.545454545454547V-21.636363636363637ZM4.38909090909091 -21.636363636363637V-15.454545454545455H7.48V-21.636363636363637ZM7.48 -15.454545454545455V-12.363636363636363H16.752727272727274V-15.454545454545455ZM16.752727272727274 -3.090909090909091H7.48V0.0H16.752727272727274ZM7.48 -3.090909090909091V-6.181818181818182H4.38909090909091V-3.090909090909091ZM16.752727272727274 -12.363636363636363V-3.090909090909091H19.843636363636364V-12.363636363636363ZM7.48 -24.727272727272727V-21.636363636363637H16.752727272727274V-24.727272727272727ZM16.752727272727274 -21.636363636363637V-18.545454545454547H19.843636363636364V-21.636363636363637ZM5.6872727272727275 -21.636363636363637V-15.454545454545455H8.77818181818182V-21.636363636363637ZM8.77818181818182 -15.454545454545455V-12.363636363636363H18.05090909090909V-15.454545454545455ZM18.05090909090909 -3.090909090909091H8.77818181818182V0.0H18.05090909090909ZM8.77818181818182 -3.090909090909091V-6.181818181818182H5.6872727272727275V-3.090909090909091ZM18.05090909090909 -12.363636363636363V-3.090909090909091H21.141818181818184V-12.363636363636363ZM8.77818181818182 -24.727272727272727V-21.636363636363637H18.05090909090909V-24.727272727272727ZM18.05090909090909 -21.636363636363637V-18.545454545454547H21.141818181818184V-21.636363636363637Z M22.130909090909093 -18.545454545454547V6.181818181818182H25.221818181818183V-3.090909090909091H28.312727272727273V-6.181818181818182H25.221818181818183V-12.363636363636363H28.312727272727273V-15.454545454545455H25.221818181818183V-18.545454545454547ZM28.312727272727273 -18.545454545454547V-15.454545454545455H34.49454545454546V-18.545454545454547ZM34.49454545454546 -15.454545454545455V-3.090909090909091H37.585454545454546V-15.454545454545455ZM28.312727272727273 -3.090909090909091V0.0H34.49454545454546V-3.090909090909091ZM23.42909090909091 -18.545454545454547V6.181818181818182H26.52V-3.090909090909091H29.61090909090909V-6.181818181818182H26.52V-12.363636363636363H29.61090909090909V-15.454545454545455H26.52V-18.545454545454547ZM29.61090909090909 -18.545454545454547V-15.454545454545455H35.79272727272728V-18.545454545454547ZM35.79272727272728 -15.454545454545455V-3.090909090909091H38.88363636363637V-15.454545454545455ZM29.61090909090909 -3.090909090909091V0.0H35.79272727272728V-3.090909090909091ZM24.727272727272727 -18.545454545454547V6.181818181818182H27.81818181818182V-3.090909090909091H30.90909090909091V-6.181818181818182H27.81818181818182V-12.363636363636363H30.90909090909091V-15.454545454545455H27.81818181818182V-18.545454545454547ZM30.90909090909091 -18.545454545454547V-15.454545454545455H37.09090909090909V-18.545454545454547ZM37.09090909090909 -15.454545454545455V-3.090909090909091H40.18181818181819V-15.454545454545455ZM30.90909090909091 -3.090909090909091V0.0H37.09090909090909V-3.090909090909091ZM26.025454545454547 -18.545454545454547V6.181818181818182H29.116363636363637V-3.090909090909091H32.20727272727273V-6.181818181818182H29.116363636363637V-12.363636363636363H32.20727272727273V-15.454545454545455H29.116363636363637V-18.545454545454547ZM32.20727272727273 -18.545454545454547V-15.454545454545455H38.38909090909091V-18.545454545454547ZM38.38909090909091 -15.454545454545455V-3.090909090909091H41.480000000000004V-15.454545454545455ZM32.20727272727273 -3.090909090909091V0.0H38.38909090909091V-3.090909090909091ZM27.323636363636364 -18.545454545454547V6.181818181818182H30.414545454545454V-3.090909090909091H33.50545454545455V-6.181818181818182H30.414545454545454V-12.363636363636363H33.50545454545455V-15.454545454545455H30.414545454545454V-18.545454545454547ZM33.50545454545455 -18.545454545454547V-15.454545454545455H39.68727272727273V-18.545454545454547ZM39.68727272727273 -15.454545454545455V-3.090909090909091H42.77818181818182V-15.454545454545455ZM33.50545454545455 -3.090909090909091V0.0H39.68727272727273V-3.090909090909091Z M46.36363636363637 -24.727272727272727V0.0H49.45454545454545V-12.363636363636363H52.54545454545455V-15.454545454545455H49.45454545454545V-24.727272727272727ZM58.72727272727273 -15.454545454545455V0.0H61.81818181818182V-15.454545454545455ZM52.54545454545455 -18.545454545454547V-15.454545454545455H58.72727272727273V-18.545454545454547Z M74.18181818181819 -15.454545454545455V-3.090909090909091H68.0V0.0H83.45454545454545V-3.090909090909091H77.27272727272727V-18.545454545454547H68.0V-15.454545454545455ZM74.18181818181819 -24.727272727272727V-21.636363636363637H77.27272727272727V-24.727272727272727Z M89.63636363636364 -18.545454545454547V0.0H92.72727272727273V-12.363636363636363H95.81818181818181V-15.454545454545455H92.72727272727273V-18.545454545454547ZM95.81818181818181 -18.545454545454547V-15.454545454545455H102.0V-18.545454545454547ZM102.0 -15.454545454545455V0.0H105.0909090909091V-15.454545454545455Z M111.27272727272728 -18.545454545454547V-15.454545454545455H114.36363636363637V-18.545454545454547ZM123.63636363636364 -18.545454545454547V-15.454545454545455H126.72727272727273V-18.545454545454547ZM111.27272727272728 -6.181818181818182V0.0H114.36363636363637V-6.181818181818182ZM120.54545454545455 -15.454545454545455V-12.363636363636363H123.63636363636364V-15.454545454545455ZM114.36363636363637 -15.454545454545455V-12.363636363636363H117.45454545454547V-15.454545454545455ZM117.45454545454547 -12.363636363636363V-9.272727272727273H120.54545454545455V-12.363636363636363ZM114.36363636363637 -9.272727272727273V-6.181818181818182H117.45454545454547V-9.272727272727273ZM120.54545454545455 -9.272727272727273V-6.181818181818182H123.63636363636364V-9.272727272727273ZM123.63636363636364 -6.181818181818182V0.0H126.72727272727273V-6.181818181818182Z M155.04000000000002 -18.545454545454547V-15.454545454545455H164.31272727272727V-18.545454545454547ZM164.31272727272727 -15.454545454545455V-3.090909090909091H167.40363636363637V-15.454545454545455ZM151.94909090909093 -15.454545454545455V-3.090909090909091H155.04000000000002V-15.454545454545455ZM155.04000000000002 -3.090909090909091V0.0H164.31272727272727V-3.090909090909091ZM156.33818181818182 -18.545454545454547V-15.454545454545455H165.6109090909091V-18.545454545454547ZM165.6109090909091 -15.454545454545455V-3.090909090909091H168.7018181818182V-15.454545454545455ZM153.24727272727273 -15.454545454545455V-3.090909090909091H156.33818181818182V-15.454545454545455ZM156.33818181818182 -3.090909090909091V0.0H165.6109090909091V-3.090909090909091ZM157.63636363636365 -18.545454545454547V-15.454545454545455H166.90909090909093V-18.545454545454547ZM166.90909090909093 -15.454545454545455V-3.090909090909091H170.0V-15.454545454545455ZM154.54545454545456 -15.454545454545455V-3.090909090909091H157.63636363636365V-15.454545454545455ZM157.63636363636365 -3.090909090909091V0.0H166.90909090909093V-3.090909090909091ZM158.93454545454546 -18.545454545454547V-15.454545454545455H168.20727272727274V-18.545454545454547ZM168.20727272727274 -15.454545454545455V-3.090909090909091H171.29818181818183V-15.454545454545455ZM155.84363636363636 -15.454545454545455V-3.090909090909091H158.93454545454546V-15.454545454545455ZM158.93454545454546 -3.090909090909091V0.0H168.20727272727274V-3.090909090909091ZM160.2327272727273 -18.545454545454547V-15.454545454545455H169.50545454545457V-18.545454545454547ZM169.50545454545457 -15.454545454545455V-3.090909090909091H172.59636363636366V-15.454545454545455ZM157.1418181818182 -15.454545454545455V-3.090909090909091H160.2327272727273V-15.454545454545455ZM160.2327272727273 -3.090909090909091V0.0H169.50545454545457V-3.090909090909091Z M179.27272727272728 -15.454545454545455V-3.090909090909091H176.1818181818182V0.0H188.54545454545456V-3.090909090909091H182.36363636363637V-15.454545454545455H191.63636363636363V-18.545454545454547H182.36363636363637V-21.636363636363637H179.27272727272728V-18.545454545454547H176.1818181818182V-15.454545454545455ZM182.36363636363637 -24.727272727272727V-21.636363636363637H191.63636363636363V-24.727272727272727Z M216.85818181818183 -24.727272727272727V0.0H219.94909090909093V-3.090909090909091H223.04000000000002V-6.181818181818182H219.94909090909093V-12.363636363636363H223.04000000000002V-15.454545454545455H219.94909090909093V-24.727272727272727ZM223.04000000000002 -3.090909090909091V0.0H229.2218181818182V-3.090909090909091ZM229.2218181818182 -15.454545454545455V-3.090909090909091H232.31272727272727V-15.454545454545455ZM223.04000000000002 -18.545454545454547V-15.454545454545455H229.2218181818182V-18.545454545454547ZM218.15636363636364 -24.727272727272727V0.0H221.24727272727273V-3.090909090909091H224.33818181818182V-6.181818181818182H221.24727272727273V-12.363636363636363H224.33818181818182V-15.454545454545455H221.24727272727273V-24.727272727272727ZM224.33818181818182 -3.090909090909091V0.0H230.52V-3.090909090909091ZM230.52 -15.454545454545455V-3.090909090909091H233.6109090909091V-15.454545454545455ZM224.33818181818182 -18.545454545454547V-15.454545454545455H230.52V-18.545454545454547ZM219.45454545454547 -24.727272727272727V0.0H222.54545454545456V-3.090909090909091H225.63636363636365V-6.181818181818182H222.54545454545456V-12.363636363636363H225.63636363636365V-15.454545454545455H222.54545454545456V-24.727272727272727ZM225.63636363636365 -3.090909090909091V0.0H231.81818181818184V-3.090909090909091ZM231.81818181818184 -15.454545454545455V-3.090909090909091H234.90909090909093V-15.454545454545455ZM225.63636363636365 -18.545454545454547V-15.454545454545455H231.81818181818184V-18.545454545454547ZM220.75272727272727 -24.727272727272727V0.0H223.84363636363636V-3.090909090909091H226.93454545454546V-6.181818181818182H223.84363636363636V-12.363636363636363H226.93454545454546V-15.454545454545455H223.84363636363636V-24.727272727272727ZM226.93454545454546 -3.090909090909091V0.0H233.11636363636364V-3.090909090909091ZM233.11636363636364 -15.454545454545455V-3.090909090909091H236.20727272727274V-15.454545454545455ZM226.93454545454546 -18.545454545454547V-15.454545454545455H233.11636363636364V-18.545454545454547ZM222.0509090909091 -24.727272727272727V0.0H225.1418181818182V-3.090909090909091H228.2327272727273V-6.181818181818182H225.1418181818182V-12.363636363636363H228.2327272727273V-15.454545454545455H225.1418181818182V-24.727272727272727ZM228.2327272727273 -3.090909090909091V0.0H234.41454545454548V-3.090909090909091ZM234.41454545454548 -15.454545454545455V-3.090909090909091H237.50545454545457V-15.454545454545455ZM228.2327272727273 -18.545454545454547V-15.454545454545455H234.41454545454548V-18.545454545454547Z M244.67636363636365 -21.636363636363637V-3.090909090909091H238.49454545454546V0.0H253.9490909090909V-3.090909090909091H247.76727272727274V-24.727272727272727H238.49454545454546V-21.636363636363637ZM245.97454545454545 -21.636363636363637V-3.090909090909091H239.79272727272726V0.0H255.24727272727273V-3.090909090909091H249.06545454545454V-24.727272727272727H239.79272727272726V-21.636363636363637ZM247.27272727272728 -21.636363636363637V-3.090909090909091H241.0909090909091V0.0H256.54545454545456V-3.090909090909091H250.36363636363637V-24.727272727272727H241.0909090909091V-21.636363636363637ZM248.57090909090908 -21.636363636363637V-3.090909090909091H242.3890909090909V0.0H257.8436363636364V-3.090909090909091H251.66181818181818V-24.727272727272727H242.3890909090909V-21.636363636363637ZM249.86909090909091 -21.636363636363637V-3.090909090909091H243.68727272727273V0.0H259.14181818181817V-3.090909090909091H252.96V-24.727272727272727H243.68727272727273V-21.636363636363637Z M262.7272727272727 -9.272727272727273V-3.090909090909091H265.8181818181818V-9.272727272727273ZM265.8181818181818 -3.090909090909091V0.0H272.0V-3.090909090909091ZM272.0 -6.181818181818182V-3.090909090909091H275.09090909090907V0.0H278.1818181818182V-15.454545454545455H275.09090909090907V-12.363636363636363H265.8181818181818V-9.272727272727273H275.09090909090907V-6.181818181818182ZM265.8181818181818 -18.545454545454547V-15.454545454545455H275.09090909090907V-18.545454545454547Z M287.4545454545455 -18.545454545454547V-15.454545454545455H296.72727272727275V-18.545454545454547ZM284.3636363636364 -15.454545454545455V-3.090909090909091H287.4545454545455V-15.454545454545455ZM287.4545454545455 -3.090909090909091V0.0H296.72727272727275V-3.090909090909091ZM296.72727272727275 -15.454545454545455V-12.363636363636363H299.81818181818187V-15.454545454545455ZM296.72727272727275 -6.181818181818182V-3.090909090909091H299.81818181818187V-6.181818181818182Z M306.0 -24.727272727272727V0.0H309.0909090909091V-6.181818181818182H315.2727272727273V-12.363636363636363H312.1818181818182V-9.272727272727273H309.0909090909091V-24.727272727272727ZM318.3636363636364 -18.545454545454547V-15.454545454545455H321.4545454545455V-18.545454545454547ZM315.2727272727273 -15.454545454545455V-12.363636363636363H318.3636363636364V-15.454545454545455ZM315.2727272727273 -6.181818181818182V-3.090909090909091H318.3636363636364V-6.181818181818182ZM318.3636363636364 -3.090909090909091V0.0H321.4545454545455V-3.090909090909091Z M349.7672727272727 -18.545454545454547V-15.454545454545455H355.9490909090909V-18.545454545454547ZM355.9490909090909 -15.454545454545455V-12.363636363636363H359.04V-6.181818181818182H355.9490909090909V-3.090909090909091H359.04V6.181818181818182H362.1309090909091V-18.545454545454547H359.04V-15.454545454545455ZM346.67636363636365 -15.454545454545455V-3.090909090909091H349.7672727272727V-15.454545454545455ZM349.7672727272727 -3.090909090909091V0.0H355.9490909090909V-3.090909090909091ZM351.06545454545454 -18.545454545454547V-15.454545454545455H357.24727272727273V-18.545454545454547ZM357.24727272727273 -15.454545454545455V-12.363636363636363H360.33818181818185V-6.181818181818182H357.24727272727273V-3.090909090909091H360.33818181818185V6.181818181818182H363.4290909090909V-18.545454545454547H360.33818181818185V-15.454545454545455ZM347.9745454545455 -15.454545454545455V-3.090909090909091H351.06545454545454V-15.454545454545455ZM351.06545454545454 -3.090909090909091V0.0H357.24727272727273V-3.090909090909091ZM352.3636363636364 -18.545454545454547V-15.454545454545455H358.54545454545456V-18.545454545454547ZM358.54545454545456 -15.454545454545455V-12.363636363636363H361.6363636363636V-6.181818181818182H358.54545454545456V-3.090909090909091H361.6363636363636V6.181818181818182H364.72727272727275V-18.545454545454547H361.6363636363636V-15.454545454545455ZM349.27272727272725 -15.454545454545455V-3.090909090909091H352.3636363636364V-15.454545454545455ZM352.3636363636364 -3.090909090909091V0.0H358.54545454545456V-3.090909090909091ZM353.6618181818182 -18.545454545454547V-15.454545454545455H359.8436363636364V-18.545454545454547ZM359.8436363636364 -15.454545454545455V-12.363636363636363H362.93454545454546V-6.181818181818182H359.8436363636364V-3.090909090909091H362.93454545454546V6.181818181818182H366.0254545454545V-18.545454545454547H362.93454545454546V-15.454545454545455ZM350.5709090909091 -15.454545454545455V-3.090909090909091H353.6618181818182V-15.454545454545455ZM353.6618181818182 -3.090909090909091V0.0H359.8436363636364V-3.090909090909091ZM354.96 -18.545454545454547V-15.454545454545455H361.14181818181817V-18.545454545454547ZM361.14181818181817 -15.454545454545455V-12.363636363636363H364.2327272727273V-6.181818181818182H361.14181818181817V-3.090909090909091H364.2327272727273V6.181818181818182H367.32363636363635V-18.545454545454547H364.2327272727273V-15.454545454545455ZM351.8690909090909 -15.454545454545455V-3.090909090909091H354.96V-15.454545454545455ZM354.96 -3.090909090909091V0.0H361.14181818181817V-3.090909090909091Z M368.3127272727273 -18.545454545454547V-3.090909090909091H371.40363636363634V-18.545454545454547ZM371.40363636363634 -3.090909090909091V0.0H377.5854545454545V-3.090909090909091ZM380.67636363636365 -18.545454545454547V-6.181818181818182H377.5854545454545V-3.090909090909091H380.67636363636365V0.0H383.7672727272727V-18.545454545454547ZM369.6109090909091 -18.545454545454547V-3.090909090909091H372.70181818181817V-18.545454545454547ZM372.70181818181817 -3.090909090909091V0.0H378.88363636363636V-3.090909090909091ZM381.9745454545455 -18.545454545454547V-6.181818181818182H378.88363636363636V-3.090909090909091H381.9745454545455V0.0H385.06545454545454V-18.545454545454547ZM370.9090909090909 -18.545454545454547V-3.090909090909091H374.0V-18.545454545454547ZM374.0 -3.090909090909091V0.0H380.1818181818182V-3.090909090909091ZM383.27272727272725 -18.545454545454547V-6.181818181818182H380.1818181818182V-3.090909090909091H383.27272727272725V0.0H386.3636363636364V-18.545454545454547ZM372.2072727272727 -18.545454545454547V-3.090909090909091H375.29818181818183V-18.545454545454547ZM375.29818181818183 -3.090909090909091V0.0H381.48V-3.090909090909091ZM384.5709090909091 -18.545454545454547V-6.181818181818182H381.48V-3.090909090909091H384.5709090909091V0.0H387.66181818181815V-18.545454545454547ZM373.50545454545454 -18.545454545454547V-3.090909090909091H376.5963636363636V-18.545454545454547ZM376.5963636363636 -3.090909090909091V0.0H382.7781818181818V-3.090909090909091ZM385.8690909090909 -18.545454545454547V-6.181818181818182H382.7781818181818V-3.090909090909091H385.8690909090909V0.0H388.96V-18.545454545454547Z M392.54545454545456 -9.272727272727273V-3.090909090909091H395.6363636363637V-9.272727272727273ZM395.6363636363637 -3.090909090909091V0.0H401.81818181818187V-3.090909090909091ZM401.81818181818187 -6.181818181818182V-3.090909090909091H404.90909090909093V0.0H408.00000000000006V-15.454545454545455H404.90909090909093V-12.363636363636363H395.6363636363637V-9.272727272727273H404.90909090909093V-6.181818181818182ZM395.6363636363637 -18.545454545454547V-15.454545454545455H404.90909090909093V-18.545454545454547Z M420.3636363636364 -18.545454545454547H414.1818181818182V-15.454545454545455H417.2727272727273V-3.090909090909091H414.1818181818182V0.0H426.54545454545456V-3.090909090909091H420.3636363636364V-12.363636363636363H423.4545454545455V-15.454545454545455H420.3636363636364ZM429.6363636363637 -18.545454545454547H423.4545454545455V-15.454545454545455H429.6363636363637Z M438.90909090909093 -24.727272727272727V-18.545454545454547H435.8181818181818V-15.454545454545455H438.90909090909093V-3.090909090909091H442.0V-15.454545454545455H451.2727272727273V-18.545454545454547H442.0V-24.727272727272727ZM442.0 -3.090909090909091V0.0H448.1818181818182V-3.090909090909091ZM448.1818181818182 -6.181818181818182V-3.090909090909091H451.2727272727273V-6.181818181818182Z M457.45454545454544 -18.545454545454547V-15.454545454545455H466.72727272727275V-12.363636363636363H469.8181818181818V-15.454545454545455H472.90909090909093V-18.545454545454547ZM463.6363636363636 -12.363636363636363V-9.272727272727273H466.72727272727275V-12.363636363636363ZM460.54545454545456 -9.272727272727273V-6.181818181818182H463.6363636363636V-9.272727272727273ZM457.45454545454544 -6.181818181818182V0.0H472.90909090909093V-3.090909090909091H460.54545454545456V-6.181818181818182Z M485.27272727272725 -6.181818181818182V0.0H488.3636363636364V-6.181818181818182ZM482.1818181818182 0.0V3.090909090909091H485.27272727272725V0.0Z M529.04 -24.727272727272727V-21.636363636363637H532.1309090909091V-24.727272727272727ZM529.04 -15.454545454545455V3.090909090909091H532.1309090909091V-18.545454545454547H522.8581818181818V-15.454545454545455ZM529.04 3.090909090909091H522.8581818181818V6.181818181818182H529.04ZM522.8581818181818 3.090909090909091V0.0H519.7672727272727V3.090909090909091ZM530.3381818181819 -24.727272727272727V-21.636363636363637H533.4290909090909V-24.727272727272727ZM530.3381818181819 -15.454545454545455V3.090909090909091H533.4290909090909V-18.545454545454547H524.1563636363636V-15.454545454545455ZM530.3381818181819 3.090909090909091H524.1563636363636V6.181818181818182H530.3381818181819ZM524.1563636363636 3.090909090909091V0.0H521.0654545454545V3.090909090909091ZM531.6363636363636 -24.727272727272727V-21.636363636363637H534.7272727272727V-24.727272727272727ZM531.6363636363636 -15.454545454545455V3.090909090909091H534.7272727272727V-18.545454545454547H525.4545454545454V-15.454545454545455ZM531.6363636363636 3.090909090909091H525.4545454545454V6.181818181818182H531.6363636363636ZM525.4545454545454 3.090909090909091V0.0H522.3636363636364V3.090909090909091ZM532.9345454545454 -24.727272727272727V-21.636363636363637H536.0254545454545V-24.727272727272727ZM532.9345454545454 -15.454545454545455V3.090909090909091H536.0254545454545V-18.545454545454547H526.7527272727273V-15.454545454545455ZM532.9345454545454 3.090909090909091H526.7527272727273V6.181818181818182H532.9345454545454ZM526.7527272727273 3.090909090909091V0.0H523.6618181818181V3.090909090909091ZM534.2327272727273 -24.727272727272727V-21.636363636363637H537.3236363636363V-24.727272727272727ZM534.2327272727273 -15.454545454545455V3.090909090909091H537.3236363636363V-18.545454545454547H528.050909090909V-15.454545454545455ZM534.2327272727273 3.090909090909091H528.050909090909V6.181818181818182H534.2327272727273ZM528.050909090909 3.090909090909091V0.0H524.96V3.090909090909091Z M541.4036363636363 -18.545454545454547V-3.090909090909091H544.4945454545455V-18.545454545454547ZM544.4945454545455 -3.090909090909091V0.0H550.6763636363636V-3.090909090909091ZM553.7672727272727 -18.545454545454547V-6.181818181818182H550.6763636363636V-3.090909090909091H553.7672727272727V0.0H556.8581818181818V-18.545454545454547ZM542.7018181818181 -18.545454545454547V-3.090909090909091H545.7927272727272V-18.545454545454547ZM545.7927272727272 -3.090909090909091V0.0H551.9745454545455V-3.090909090909091ZM555.0654545454545 -18.545454545454547V-6.181818181818182H551.9745454545455V-3.090909090909091H555.0654545454545V0.0H558.1563636363636V-18.545454545454547ZM544.0 -18.545454545454547V-3.090909090909091H547.090909090909V-18.545454545454547ZM547.090909090909 -3.090909090909091V0.0H553.2727272727273V-3.090909090909091ZM556.3636363636364 -18.545454545454547V-6.181818181818182H553.2727272727273V-3.090909090909091H556.3636363636364V0.0H559.4545454545454V-18.545454545454547ZM545.2981818181818 -18.545454545454547V-3.090909090909091H548.3890909090909V-18.545454545454547ZM548.3890909090909 -3.090909090909091V0.0H554.570909090909V-3.090909090909091ZM557.6618181818181 -18.545454545454547V-6.181818181818182H554.570909090909V-3.090909090909091H557.6618181818181V0.0H560.7527272727273V-18.545454545454547ZM546.5963636363635 -18.545454545454547V-3.090909090909091H549.6872727272727V-18.545454545454547ZM549.6872727272727 -3.090909090909091V0.0H555.8690909090909V-3.090909090909091ZM558.9599999999999 -18.545454545454547V-6.181818181818182H555.8690909090909V-3.090909090909091H558.9599999999999V0.0H562.050909090909V-18.545454545454547Z M578.0000000000001 -24.727272727272727V-15.454545454545455H574.909090909091V-12.363636363636363H578.0000000000001V-6.181818181818182H574.909090909091V-3.090909090909091H578.0000000000001V0.0H581.0909090909091V-24.727272727272727ZM574.909090909091 -3.090909090909091H568.7272727272727V0.0H574.909090909091ZM568.7272727272727 -3.090909090909091V-15.454545454545455H565.6363636363637V-3.090909090909091ZM574.909090909091 -15.454545454545455V-18.545454545454547H568.7272727272727V-15.454545454545455Z M590.3636363636364 -18.545454545454547V-15.454545454545455H596.5454545454546V-18.545454545454547ZM587.2727272727274 -15.454545454545455V-3.090909090909091H590.3636363636364V-15.454545454545455ZM590.3636363636364 -3.090909090909091V0.0H596.5454545454546V-3.090909090909091ZM590.3636363636364 3.090909090909091V6.181818181818182H599.6363636363637V3.090909090909091ZM596.5454545454546 -6.181818181818182V-3.090909090909091H599.6363636363637V3.090909090909091H602.7272727272727V-18.545454545454547H599.6363636363637V-15.454545454545455H596.5454545454546V-12.363636363636363H599.6363636363637V-6.181818181818182Z M612.0 -18.545454545454547V-15.454545454545455H621.2727272727274V-18.545454545454547ZM608.909090909091 -15.454545454545455V-3.090909090909091H612.0V-9.272727272727273H624.3636363636364V-15.454545454545455H621.2727272727274V-12.363636363636363H612.0V-15.454545454545455ZM612.0 -3.090909090909091V0.0H621.2727272727274V-3.090909090909091ZM621.2727272727274 -6.181818181818182V-3.090909090909091H624.3636363636364V-6.181818181818182Z M649.5854545454546 -18.545454545454547V0.0H652.6763636363637V-15.454545454545455H655.7672727272727V-18.545454545454547ZM655.7672727272727 -15.454545454545455V0.0H658.8581818181818V-15.454545454545455ZM661.949090909091 -15.454545454545455V-18.545454545454547H658.8581818181818V-15.454545454545455ZM661.949090909091 -15.454545454545455V0.0H665.0400000000001V-15.454545454545455ZM650.8836363636364 -18.545454545454547V0.0H653.9745454545455V-15.454545454545455H657.0654545454546V-18.545454545454547ZM657.0654545454546 -15.454545454545455V0.0H660.1563636363637V-15.454545454545455ZM663.2472727272727 -15.454545454545455V-18.545454545454547H660.1563636363637V-15.454545454545455ZM663.2472727272727 -15.454545454545455V0.0H666.3381818181819V-15.454545454545455ZM652.1818181818182 -18.545454545454547V0.0H655.2727272727273V-15.454545454545455H658.3636363636364V-18.545454545454547ZM658.3636363636364 -15.454545454545455V0.0H661.4545454545455V-15.454545454545455ZM664.5454545454546 -15.454545454545455V-18.545454545454547H661.4545454545455V-15.454545454545455ZM664.5454545454546 -15.454545454545455V0.0H667.6363636363636V-15.454545454545455ZM653.48 -18.545454545454547V0.0H656.5709090909091V-15.454545454545455H659.6618181818183V-18.545454545454547ZM659.6618181818183 -15.454545454545455V0.0H662.7527272727273V-15.454545454545455ZM665.8436363636364 -15.454545454545455V-18.545454545454547H662.7527272727273V-15.454545454545455ZM665.8436363636364 -15.454545454545455V0.0H668.9345454545455V-15.454545454545455ZM654.7781818181818 -18.545454545454547V0.0H657.8690909090909V-15.454545454545455H660.96V-18.545454545454547ZM660.96 -15.454545454545455V0.0H664.0509090909092V-15.454545454545455ZM667.1418181818182 -15.454545454545455V-18.545454545454547H664.0509090909092V-15.454545454545455ZM667.1418181818182 -15.454545454545455V0.0H670.2327272727273V-15.454545454545455Z M673.8181818181819 -18.545454545454547V-9.272727272727273H676.9090909090909V-18.545454545454547ZM686.1818181818182 -18.545454545454547V-9.272727272727273H689.2727272727273V-18.545454545454547ZM680.0 -3.090909090909091V3.090909090909091H683.0909090909091V-3.090909090909091ZM680.0 3.090909090909091H673.8181818181819V6.181818181818182H680.0ZM683.0909090909091 -9.272727272727273V-3.090909090909091H686.1818181818182V-9.272727272727273ZM676.9090909090909 -9.272727272727273V-3.090909090909091H680.0V-9.272727272727273Z M714.4945454545455 -18.545454545454547V-9.272727272727273H717.5854545454546V-18.545454545454547ZM726.8581818181818 -18.545454545454547V-9.272727272727273H729.949090909091V-18.545454545454547ZM720.6763636363636 -3.090909090909091V-9.272727272727273H717.5854545454546V-3.090909090909091ZM720.6763636363636 -3.090909090909091V0.0H723.7672727272727V-3.090909090909091ZM723.7672727272727 -9.272727272727273V-3.090909090909091H726.8581818181818V-9.272727272727273ZM715.7927272727272 -18.545454545454547V-9.272727272727273H718.8836363636364V-18.545454545454547ZM728.1563636363636 -18.545454545454547V-9.272727272727273H731.2472727272727V-18.545454545454547ZM721.9745454545455 -3.090909090909091V-9.272727272727273H718.8836363636364V-3.090909090909091ZM721.9745454545455 -3.090909090909091V0.0H725.0654545454546V-3.090909090909091ZM725.0654545454546 -9.272727272727273V-3.090909090909091H728.1563636363636V-9.272727272727273ZM717.0909090909091 -18.545454545454547V-9.272727272727273H720.1818181818181V-18.545454545454547ZM729.4545454545455 -18.545454545454547V-9.272727272727273H732.5454545454545V-18.545454545454547ZM723.2727272727273 -3.090909090909091V-9.272727272727273H720.1818181818181V-3.090909090909091ZM723.2727272727273 -3.090909090909091V0.0H726.3636363636364V-3.090909090909091ZM726.3636363636364 -9.272727272727273V-3.090909090909091H729.4545454545455V-9.272727272727273ZM718.3890909090909 -18.545454545454547V-9.272727272727273H721.48V-18.545454545454547ZM730.7527272727273 -18.545454545454547V-9.272727272727273H733.8436363636364V-18.545454545454547ZM724.5709090909091 -3.090909090909091V-9.272727272727273H721.48V-3.090909090909091ZM724.5709090909091 -3.090909090909091V0.0H727.6618181818181V-3.090909090909091ZM727.6618181818181 -9.272727272727273V-3.090909090909091H730.7527272727273V-9.272727272727273ZM719.6872727272728 -18.545454545454547V-9.272727272727273H722.7781818181818V-18.545454545454547ZM732.050909090909 -18.545454545454547V-9.272727272727273H735.1418181818182V-18.545454545454547ZM725.8690909090909 -3.090909090909091V-9.272727272727273H722.7781818181818V-3.090909090909091ZM725.8690909090909 -3.090909090909091V0.0H728.96V-3.090909090909091ZM728.96 -9.272727272727273V-3.090909090909091H732.050909090909V-9.272727272727273Z M741.8181818181818 -18.545454545454547V-15.454545454545455H751.0909090909091V-18.545454545454547ZM751.0909090909091 -15.454545454545455V-3.090909090909091H754.1818181818181V-15.454545454545455ZM738.7272727272727 -15.454545454545455V-3.090909090909091H741.8181818181818V-15.454545454545455ZM741.8181818181818 -3.090909090909091V0.0H751.0909090909091V-3.090909090909091Z M760.3636363636364 -18.545454545454547V-3.090909090909091H763.4545454545454V-18.545454545454547ZM772.7272727272727 -18.545454545454547V-3.090909090909091H769.6363636363636V0.0H775.8181818181818V-18.545454545454547ZM769.6363636363636 -3.090909090909091V-18.545454545454547H766.5454545454545V-3.090909090909091ZM763.4545454545454 -3.090909090909091V0.0H766.5454545454545V-3.090909090909091Z M788.1818181818182 -6.181818181818182V0.0H791.2727272727274V-6.181818181818182Z"/>
  </g>
</svg>
