<svg xmlns="http://www.w3.org/2000/svg" width="569" height="71" viewBox="0 0 569 71" role="img" aria-labelledby="title desc" style="background: transparent;">
  <title id="title">Departure Mono Condensed Compact Regular preview</title>
  <desc id="desc">Sphinx of black quartz, judge my vow.</desc>
  <style>
    svg { background: transparent; }
    .preview-text { fill: #24292f; }
    @media (prefers-color-scheme: dark) {
      .preview-text { fill: #f0f6fc; }
    }
  </style>
  <g class="preview-text" transform="translate(22.76 44.73)">
    <path d="M1.2363636363636363 -21.636363636363637H3.5854545454545454V-15.454545454545455H1.2363636363636363ZM3.5854545454545454 -15.454545454545455H10.632727272727273V-12.363636363636363H3.5854545454545454ZM10.632727272727273 -3.090909090909091V0.0H3.5854545454545454V-3.090909090909091ZM3.5854545454545454 -3.090909090909091H1.2363636363636363V-6.181818181818182H3.5854545454545454ZM10.632727272727273 -12.363636363636363H12.981818181818182V-3.090909090909091H10.632727272727273ZM3.5854545454545454 -24.727272727272727H10.632727272727273V-21.636363636363637H3.5854545454545454ZM10.632727272727273 -21.636363636363637H12.981818181818182V-18.545454545454547H10.632727272727273Z M15.516363636363637 -18.545454545454547H17.865454545454547V-15.454545454545455H20.214545454545455V-12.363636363636363H17.865454545454547V-6.181818181818182H20.214545454545455V-3.090909090909091H17.865454545454547V6.181818181818182H15.516363636363637ZM20.214545454545455 -18.545454545454547H24.912727272727274V-15.454545454545455H20.214545454545455ZM24.912727272727274 -15.454545454545455H27.261818181818185V-3.090909090909091H24.912727272727274ZM20.214545454545455 -3.090909090909091H24.912727272727274V0.0H20.214545454545455Z M29.796363636363637 -24.727272727272727H32.14545454545455V-15.454545454545455H34.49454545454546V-12.363636363636363H32.14545454545455V0.0H29.796363636363637ZM39.192727272727275 -15.454545454545455H41.541818181818186V0.0H39.192727272727275ZM34.49454545454546 -18.545454545454547H39.192727272727275V-15.454545454545455H34.49454545454546Z M48.77454545454546 -15.454545454545455H44.07636363636364V-18.545454545454547H51.123636363636365V-3.090909090909091H55.82181818181819V0.0H44.07636363636364V-3.090909090909091H48.77454545454546ZM48.77454545454546 -24.727272727272727H51.123636363636365V-21.636363636363637H48.77454545454546Z M58.35636363636364 -18.545454545454547H60.70545454545455V-15.454545454545455H63.05454545454546V-12.363636363636363H60.70545454545455V0.0H58.35636363636364ZM63.05454545454546 -18.545454545454547H67.75272727272727V-15.454545454545455H63.05454545454546ZM67.75272727272727 -15.454545454545455H70.10181818181819V0.0H67.75272727272727Z M72.63636363636364 -18.545454545454547H74.98545454545454V-15.454545454545455H72.63636363636364ZM82.03272727272727 -18.545454545454547H84.38181818181819V-15.454545454545455H82.03272727272727ZM72.63636363636364 -6.181818181818182H74.98545454545454V0.0H72.63636363636364ZM79.68363636363637 -15.454545454545455H82.03272727272727V-12.363636363636363H79.68363636363637ZM74.98545454545454 -15.454545454545455H77.33454545454546V-12.363636363636363H74.98545454545454ZM77.33454545454546 -12.363636363636363H79.68363636363637V-9.272727272727273H77.33454545454546ZM74.98545454545454 -9.272727272727273H77.33454545454546V-6.181818181818182H74.98545454545454ZM79.68363636363637 -9.272727272727273H82.03272727272727V-6.181818181818182H79.68363636363637ZM82.03272727272727 -6.181818181818182H84.38181818181819V0.0H82.03272727272727Z M103.54545454545455 -18.545454545454547H110.59272727272727V-15.454545454545455H103.54545454545455ZM110.59272727272727 -15.454545454545455H112.94181818181819V-3.090909090909091H110.59272727272727ZM101.19636363636364 -15.454545454545455H103.54545454545455V-3.090909090909091H101.19636363636364ZM103.54545454545455 -3.090909090909091H110.59272727272727V0.0H103.54545454545455Z M117.82545454545455 -15.454545454545455H115.47636363636364V-18.545454545454547H117.82545454545455V-21.636363636363637H120.17454545454547V-18.545454545454547H127.2218181818182V-15.454545454545455H120.17454545454547V-3.090909090909091H124.87272727272727V0.0H115.47636363636364V-3.090909090909091H117.82545454545455ZM120.17454545454547 -24.727272727272727H127.2218181818182V-21.636363636363637H120.17454545454547Z M144.03636363636366 -24.727272727272727H146.38545454545456V-15.454545454545455H148.73454545454547V-12.363636363636363H146.38545454545456V-6.181818181818182H148.73454545454547V-3.090909090909091H146.38545454545456V0.0H144.03636363636366ZM148.73454545454547 -3.090909090909091H153.43272727272728V0.0H148.73454545454547ZM153.43272727272728 -15.454545454545455H155.78181818181818V-3.090909090909091H153.43272727272728ZM148.73454545454547 -18.545454545454547H153.43272727272728V-15.454545454545455H148.73454545454547Z M163.01454545454547 -21.636363636363637H158.31636363636366V-24.727272727272727H165.36363636363637V-3.090909090909091H170.06181818181818V0.0H158.31636363636366V-3.090909090909091H163.01454545454547Z M172.59636363636366 -9.272727272727273H174.94545454545457V-3.090909090909091H172.59636363636366ZM174.94545454545457 -3.090909090909091H179.64363636363638V0.0H174.94545454545457ZM179.64363636363638 -6.181818181818182H181.99272727272728V-9.272727272727273H174.94545454545457V-12.363636363636363H181.99272727272728V-15.454545454545455H184.34181818181818V0.0H181.99272727272728V-3.090909090909091H179.64363636363638ZM174.94545454545457 -18.545454545454547H181.99272727272728V-15.454545454545455H174.94545454545457Z M189.22545454545457 -18.545454545454547H196.27272727272728V-15.454545454545455H189.22545454545457ZM186.87636363636366 -15.454545454545455H189.22545454545457V-3.090909090909091H186.87636363636366ZM189.22545454545457 -3.090909090909091H196.27272727272728V0.0H189.22545454545457ZM196.27272727272728 -15.454545454545455H198.62181818181818V-12.363636363636363H196.27272727272728ZM196.27272727272728 -6.181818181818182H198.62181818181818V-3.090909090909091H196.27272727272728Z M201.15636363636366 -24.727272727272727H203.50545454545457V-9.272727272727273H205.85454545454547V-12.363636363636363H208.20363636363638V-6.181818181818182H203.50545454545457V0.0H201.15636363636366ZM210.55272727272728 -18.545454545454547H212.9018181818182V-15.454545454545455H210.55272727272728ZM208.20363636363638 -15.454545454545455H210.55272727272728V-12.363636363636363H208.20363636363638ZM208.20363636363638 -6.181818181818182H210.55272727272728V-3.090909090909091H208.20363636363638ZM210.55272727272728 -3.090909090909091H212.9018181818182V0.0H210.55272727272728Z M232.06545454545457 -18.545454545454547H236.76363636363638V-15.454545454545455H232.06545454545457ZM236.76363636363638 -15.454545454545455H239.11272727272728V-18.545454545454547H241.4618181818182V6.181818181818182H239.11272727272728V-3.090909090909091H236.76363636363638V-6.181818181818182H239.11272727272728V-12.363636363636363H236.76363636363638ZM229.71636363636367 -15.454545454545455H232.06545454545457V-3.090909090909091H229.71636363636367ZM232.06545454545457 -3.090909090909091H236.76363636363638V0.0H232.06545454545457Z M243.99636363636367 -18.545454545454547H246.34545454545457V-3.090909090909091H243.99636363636367ZM246.34545454545457 -3.090909090909091H251.04363636363638V0.0H246.34545454545457ZM253.39272727272729 -18.545454545454547H255.7418181818182V0.0H253.39272727272729V-3.090909090909091H251.04363636363638V-6.181818181818182H253.39272727272729Z M258.27636363636367 -9.272727272727273H260.62545454545455V-3.090909090909091H258.27636363636367ZM260.62545454545455 -3.090909090909091H265.3236363636364V0.0H260.62545454545455ZM265.3236363636364 -6.181818181818182H267.6727272727273V-9.272727272727273H260.62545454545455V-12.363636363636363H267.6727272727273V-15.454545454545455H270.0218181818182V0.0H267.6727272727273V-3.090909090909091H265.3236363636364ZM260.62545454545455 -18.545454545454547H267.6727272727273V-15.454545454545455H260.62545454545455Z M277.25454545454545 -18.545454545454547V-15.454545454545455H279.6036363636364V-12.363636363636363H277.25454545454545V-3.090909090909091H281.95272727272726V0.0H272.55636363636364V-3.090909090909091H274.9054545454545V-15.454545454545455H272.55636363636364V-18.545454545454547ZM284.3018181818182 -18.545454545454547V-15.454545454545455H279.6036363636364V-18.545454545454547Z M289.18545454545455 -24.727272727272727H291.5345454545455V-18.545454545454547H298.5818181818182V-15.454545454545455H291.5345454545455V-3.090909090909091H289.18545454545455V-15.454545454545455H286.83636363636367V-18.545454545454547H289.18545454545455ZM291.5345454545455 -3.090909090909091H296.2327272727273V0.0H291.5345454545455ZM296.2327272727273 -6.181818181818182H298.5818181818182V-3.090909090909091H296.2327272727273Z M301.11636363636364 -18.545454545454547H312.8618181818182V-15.454545454545455H310.51272727272726V-12.363636363636363H308.1636363636364V-15.454545454545455H301.11636363636364ZM305.81454545454545 -12.363636363636363H308.1636363636364V-9.272727272727273H305.81454545454545ZM303.4654545454545 -9.272727272727273H305.81454545454545V-6.181818181818182H303.4654545454545ZM301.11636363636364 -6.181818181818182H303.4654545454545V-3.090909090909091H312.8618181818182V0.0H301.11636363636364Z M321.33090909090913 -6.181818181818182H323.68V0.0H321.33090909090913ZM318.9818181818182 0.0H321.33090909090913V3.090909090909091H318.9818181818182Z M352.24 -24.727272727272727H354.58909090909094V-21.636363636363637H352.24ZM352.24 -15.454545454545455H347.5418181818182V-18.545454545454547H354.58909090909094V3.090909090909091H352.24ZM352.24 3.090909090909091V6.181818181818182H347.5418181818182V3.090909090909091ZM347.5418181818182 3.090909090909091H345.1927272727273V0.0H347.5418181818182Z M358.23636363636365 -18.545454545454547H360.5854545454545V-3.090909090909091H358.23636363636365ZM360.5854545454545 -3.090909090909091H365.2836363636364V0.0H360.5854545454545ZM367.63272727272727 -18.545454545454547H369.9818181818182V0.0H367.63272727272727V-3.090909090909091H365.2836363636364V-6.181818181818182H367.63272727272727Z M381.9127272727273 -24.727272727272727H384.2618181818182V0.0H381.9127272727273V-3.090909090909091H379.5636363636364V-6.181818181818182H381.9127272727273V-12.363636363636363H379.5636363636364V-15.454545454545455H381.9127272727273ZM379.5636363636364 -3.090909090909091V0.0H374.86545454545455V-3.090909090909091ZM374.86545454545455 -3.090909090909091H372.5163636363637V-15.454545454545455H374.86545454545455ZM379.5636363636364 -15.454545454545455H374.86545454545455V-18.545454545454547H379.5636363636364Z M389.1454545454545 -18.545454545454547H393.8436363636364V-15.454545454545455H389.1454545454545ZM386.79636363636365 -15.454545454545455H389.1454545454545V-3.090909090909091H386.79636363636365ZM389.1454545454545 -3.090909090909091H393.8436363636364V0.0H389.1454545454545ZM389.1454545454545 3.090909090909091H396.19272727272727V6.181818181818182H389.1454545454545ZM393.8436363636364 -6.181818181818182H396.19272727272727V-12.363636363636363H393.8436363636364V-15.454545454545455H396.19272727272727V-18.545454545454547H398.5418181818182V3.090909090909091H396.19272727272727V-3.090909090909091H393.8436363636364Z M403.42545454545456 -18.545454545454547H410.4727272727273V-15.454545454545455H403.42545454545456ZM401.0763636363637 -15.454545454545455H403.42545454545456V-12.363636363636363H410.4727272727273V-15.454545454545455H412.82181818181823V-9.272727272727273H403.42545454545456V-3.090909090909091H401.0763636363637ZM403.42545454545456 -3.090909090909091H410.4727272727273V0.0H403.42545454545456ZM410.4727272727273 -6.181818181818182H412.82181818181823V-3.090909090909091H410.4727272727273Z M429.6363636363637 -18.545454545454547H434.3345454545455V-15.454545454545455H431.98545454545456V0.0H429.6363636363637ZM434.3345454545455 -15.454545454545455H436.6836363636364V0.0H434.3345454545455ZM439.0327272727273 -15.454545454545455H436.6836363636364V-18.545454545454547H439.0327272727273ZM439.0327272727273 -15.454545454545455H441.38181818181823V0.0H439.0327272727273Z M443.91636363636366 -18.545454545454547H446.26545454545453V-9.272727272727273H443.91636363636366ZM453.3127272727273 -18.545454545454547H455.6618181818182V-9.272727272727273H453.3127272727273ZM448.61454545454546 -3.090909090909091H450.9636363636364V3.090909090909091H448.61454545454546ZM448.61454545454546 3.090909090909091V6.181818181818182H443.91636363636366V3.090909090909091ZM450.9636363636364 -9.272727272727273H453.3127272727273V-3.090909090909091H450.9636363636364ZM446.26545454545453 -9.272727272727273H448.61454545454546V-3.090909090909091H446.26545454545453Z M472.47636363636366 -18.545454545454547H474.82545454545453V-9.272727272727273H472.47636363636366ZM481.8727272727273 -18.545454545454547H484.2218181818182V-9.272727272727273H481.8727272727273ZM477.17454545454547 -3.090909090909091H474.82545454545453V-9.272727272727273H477.17454545454547ZM477.17454545454547 -3.090909090909091H479.5236363636364V0.0H477.17454545454547ZM479.5236363636364 -9.272727272727273H481.8727272727273V-3.090909090909091H479.5236363636364Z M489.10545454545456 -18.545454545454547H496.1527272727273V-15.454545454545455H489.10545454545456ZM496.1527272727273 -15.454545454545455H498.50181818181824V-3.090909090909091H496.1527272727273ZM486.7563636363637 -15.454545454545455H489.10545454545456V-3.090909090909091H486.7563636363637ZM489.10545454545456 -3.090909090909091H496.1527272727273V0.0H489.10545454545456Z M501.03636363636366 -18.545454545454547H503.38545454545454V-3.090909090909091H501.03636363636366ZM510.4327272727273 -18.545454545454547H512.7818181818182V0.0H508.0836363636364V-3.090909090909091H510.4327272727273ZM508.0836363636364 -3.090909090909091H505.73454545454547V-18.545454545454547H508.0836363636364ZM503.38545454545454 -3.090909090909091H505.73454545454547V0.0H503.38545454545454Z M520.0145454545454 -6.181818181818182H522.3636363636364V0.0H520.0145454545454Z"/>
  </g>
</svg>
