<svg xmlns="http://www.w3.org/2000/svg" width="713" height="74" viewBox="0 0 713 74" role="img" aria-labelledby="title desc" style="background: transparent;">
  <title id="title">Envy Code B 10pt preview</title>
  <desc id="desc">Sphinx of black quartz, judge my vow.</desc>
  <style>
    svg { background: transparent; }
    .preview-text { fill: #24292f; }
    @media (prefers-color-scheme: dark) {
      .preview-text { fill: #f0f6fc; }
    }
  </style>
  <g class="preview-text" transform="translate(21.38 46.16)">
    <path d="M2.623046875 -2.623046875H13.08203125V0.0H2.623046875ZM13.08203125 -7.8525390625H15.705078125V-2.623046875H13.08203125ZM10.458984375 -10.458984375H13.08203125V-7.8525390625H10.458984375ZM7.8525390625 -13.08203125H10.458984375V-10.458984375H7.8525390625ZM5.2294921875 -15.705078125H7.8525390625V-13.08203125H5.2294921875ZM2.623046875 -20.9345703125H5.2294921875V-15.705078125H2.623046875ZM5.2294921875 -23.541015625H15.705078125V-20.9345703125H5.2294921875Z M20.884765625 -18.3115234375H31.34375V-15.705078125H23.4912109375V-2.623046875H31.34375V0.0H23.4912109375V7.8525390625H20.884765625V0.0ZM31.34375 -15.705078125H33.966796875V-2.623046875H31.34375Z M39.146484375 -23.541015625H41.7529296875V-15.705078125H44.3759765625V-13.08203125H41.7529296875V0.0H39.146484375ZM49.60546875 -15.705078125H52.228515625V0.0H49.60546875ZM44.3759765625 -18.3115234375H49.60546875V-15.705078125H44.3759765625Z M62.6376953125 -15.705078125H60.0146484375V-18.3115234375H65.244140625V0.0H62.6376953125ZM62.6376953125 -23.541015625H65.244140625V-20.9345703125H62.6376953125Z M75.669921875 -18.3115234375H78.2763671875V-15.705078125H80.8994140625V-13.08203125H78.2763671875V0.0H75.669921875ZM86.12890625 -15.705078125H88.751953125V0.0H86.12890625ZM80.8994140625 -18.3115234375H86.12890625V-15.705078125H80.8994140625Z M93.931640625 -5.2294921875H96.5380859375V0.0H93.931640625ZM104.390625 -5.2294921875H107.013671875V0.0H104.390625ZM96.5380859375 -7.8525390625H99.1611328125V-5.2294921875H96.5380859375ZM101.767578125 -7.8525390625H104.390625V-5.2294921875H101.767578125ZM99.1611328125 -10.458984375H101.767578125V-7.8525390625H99.1611328125ZM96.5380859375 -13.08203125H99.1611328125V-10.458984375H96.5380859375ZM101.767578125 -13.08203125H104.390625V-10.458984375H101.767578125ZM93.931640625 -18.3115234375H96.5380859375V-13.08203125H93.931640625ZM104.390625 -18.3115234375H107.013671875V-13.08203125H104.390625Z M133.0615234375 -2.623046875H140.9140625V0.0H133.0615234375ZM130.455078125 -15.705078125H133.0615234375V-2.623046875H130.455078125ZM140.9140625 -15.705078125H143.537109375V-2.623046875H140.9140625ZM133.0615234375 -18.3115234375H140.9140625V-15.705078125H133.0615234375Z M151.3232421875 -13.08203125H148.716796875V-15.705078125H151.3232421875V-20.9345703125H153.9462890625V-15.705078125H159.17578125V-13.08203125H153.9462890625V0.0H151.3232421875ZM153.9462890625 -23.541015625H161.798828125V-20.9345703125H153.9462890625Z M185.240234375 -26.1640625H187.8466796875V-18.3115234375H195.69921875V-15.705078125H187.8466796875V-2.623046875H195.69921875V0.0H185.240234375ZM195.69921875 -15.705078125H198.322265625V-2.623046875H195.69921875Z M208.7314453125 -20.9345703125H206.1083984375V-23.541015625H211.337890625V0.0H208.7314453125Z M224.3701171875 -2.623046875H232.22265625V-7.8525390625H224.3701171875V-10.458984375H232.22265625V-15.705078125H234.845703125V0.0H224.3701171875ZM221.763671875 -7.8525390625H224.3701171875V-2.623046875H221.763671875ZM224.3701171875 -18.3115234375H232.22265625V-15.705078125H224.3701171875Z M245.2548828125 -2.623046875H253.107421875V0.0H245.2548828125ZM242.6318359375 -5.2294921875H245.2548828125V-2.623046875H242.6318359375ZM240.025390625 -13.08203125H242.6318359375V-5.2294921875H240.025390625ZM242.6318359375 -15.705078125H245.2548828125V-13.08203125H242.6318359375ZM245.2548828125 -18.3115234375H253.107421875V-15.705078125H245.2548828125Z M258.287109375 -23.541015625H260.8935546875V-10.458984375H263.5166015625V-7.8525390625H260.8935546875V0.0H258.287109375ZM268.74609375 -2.623046875H271.369140625V0.0H268.74609375ZM266.123046875 -5.2294921875H268.74609375V-2.623046875H266.123046875ZM263.5166015625 -7.8525390625H266.123046875V-5.2294921875H263.5166015625ZM263.5166015625 -13.08203125H266.123046875V-10.458984375H263.5166015625ZM266.123046875 -15.705078125H268.74609375V-13.08203125H266.123046875ZM268.74609375 -18.3115234375H271.369140625V-15.705078125H268.74609375Z M305.26953125 0.0H297.4169921875V-2.623046875H305.26953125V-15.705078125H297.4169921875V-18.3115234375H307.892578125V7.8525390625H305.26953125ZM294.810546875 -15.705078125H297.4169921875V-2.623046875H294.810546875Z M315.6787109375 -2.623046875H320.908203125V0.0H315.6787109375ZM323.53125 -2.623046875H320.908203125V-5.2294921875H323.53125V-18.3115234375H326.154296875V0.0H323.53125ZM313.072265625 -18.3115234375H315.6787109375V-2.623046875H313.072265625Z M333.9404296875 -2.623046875H341.79296875V-7.8525390625H333.9404296875V-10.458984375H341.79296875V-15.705078125H344.416015625V0.0H333.9404296875ZM331.333984375 -7.8525390625H333.9404296875V-2.623046875H331.333984375ZM333.9404296875 -18.3115234375H341.79296875V-15.705078125H333.9404296875Z M349.595703125 -18.3115234375H352.2021484375V-15.705078125H354.8251953125V-13.08203125H352.2021484375V0.0H349.595703125ZM354.8251953125 -18.3115234375H360.0546875V-15.705078125H354.8251953125ZM360.0546875 -15.705078125H362.677734375V-13.08203125H360.0546875Z M373.0869140625 -2.623046875H380.939453125V0.0H373.0869140625ZM370.4638671875 -15.705078125H367.857421875V-18.3115234375H370.4638671875V-23.541015625H373.0869140625V-18.3115234375H378.31640625V-15.705078125H373.0869140625V-2.623046875H370.4638671875Z M386.119140625 -5.2294921875H388.7255859375V-2.623046875H399.201171875V0.0H386.119140625ZM388.7255859375 -7.8525390625H391.3486328125V-5.2294921875H388.7255859375ZM391.3486328125 -10.458984375H393.955078125V-7.8525390625H391.3486328125ZM393.955078125 -13.08203125H396.578125V-10.458984375H393.955078125ZM386.119140625 -18.3115234375H399.201171875V-13.08203125H396.578125V-15.705078125H386.119140625Z M406.9873046875 0.0H409.6103515625V-5.2294921875H414.83984375V0.0H412.216796875V2.623046875H406.9873046875Z M443.5107421875 2.623046875H448.740234375V5.2294921875H443.5107421875ZM448.740234375 -15.705078125H446.1337890625V-18.3115234375H451.36328125V2.623046875H448.740234375ZM448.740234375 -23.541015625H451.36328125V-20.9345703125H448.740234375Z M461.7724609375 -2.623046875H467.001953125V0.0H461.7724609375ZM469.625 -2.623046875H467.001953125V-5.2294921875H469.625V-18.3115234375H472.248046875V0.0H469.625ZM459.166015625 -18.3115234375H461.7724609375V-2.623046875H459.166015625Z M480.0341796875 -2.623046875H487.88671875V-15.705078125H480.0341796875V-18.3115234375H487.88671875V-26.1640625H490.509765625V0.0H480.0341796875ZM477.427734375 -15.705078125H480.0341796875V-2.623046875H477.427734375Z M495.689453125 2.623046875H498.2958984375V5.2294921875H495.689453125ZM498.2958984375 5.2294921875H506.1484375V7.8525390625H498.2958984375ZM506.1484375 0.0H498.2958984375V-2.623046875H506.1484375V-15.705078125H498.2958984375V-18.3115234375H508.771484375V5.2294921875H506.1484375ZM495.689453125 -15.705078125H498.2958984375V-2.623046875H495.689453125Z M516.5576171875 -2.623046875H527.033203125V0.0H516.5576171875ZM513.951171875 -15.705078125H516.5576171875V-10.458984375H524.41015625V-15.705078125H527.033203125V-7.8525390625H516.5576171875V-2.623046875H513.951171875ZM516.5576171875 -18.3115234375H524.41015625V-15.705078125H516.5576171875Z M550.474609375 -18.3115234375H555.7041015625V-15.705078125H553.0810546875V0.0H550.474609375ZM555.7041015625 -15.705078125H558.310546875V0.0H555.7041015625ZM560.93359375 -15.705078125H563.556640625V0.0H560.93359375ZM558.310546875 -18.3115234375H560.93359375V-15.705078125H558.310546875Z M568.736328125 5.2294921875H571.3427734375V7.8525390625H568.736328125ZM571.3427734375 2.623046875H573.9658203125V5.2294921875H571.3427734375ZM573.9658203125 -2.623046875H576.572265625V2.623046875H573.9658203125ZM571.3427734375 -10.458984375H573.9658203125V-2.623046875H571.3427734375ZM576.572265625 -10.458984375H579.1953125V-2.623046875H576.572265625ZM568.736328125 -18.3115234375H571.3427734375V-10.458984375H568.736328125ZM579.1953125 -18.3115234375H581.818359375V-10.458984375H579.1953125Z M610.4892578125 -5.2294921875H613.095703125V0.0H610.4892578125ZM607.8662109375 -10.458984375H610.4892578125V-5.2294921875H607.8662109375ZM613.095703125 -10.458984375H615.71875V-5.2294921875H613.095703125ZM605.259765625 -18.3115234375H607.8662109375V-10.458984375H605.259765625ZM615.71875 -18.3115234375H618.341796875V-10.458984375H615.71875Z M626.1279296875 -2.623046875H633.98046875V0.0H626.1279296875ZM623.521484375 -15.705078125H626.1279296875V-2.623046875H623.521484375ZM633.98046875 -15.705078125H636.603515625V-2.623046875H633.98046875ZM626.1279296875 -18.3115234375H633.98046875V-15.705078125H626.1279296875Z M644.3896484375 -2.623046875H647.0126953125V0.0H644.3896484375ZM649.619140625 -2.623046875H652.2421875V0.0H649.619140625ZM647.0126953125 -10.458984375H649.619140625V-2.623046875H647.0126953125ZM641.783203125 -18.3115234375H644.3896484375V-2.623046875H641.783203125ZM652.2421875 -18.3115234375H654.865234375V-2.623046875H652.2421875Z M662.6513671875 -5.2294921875H667.880859375V0.0H662.6513671875Z"/>
  </g>
</svg>
