<svg xmlns="http://www.w3.org/2000/svg" width="620" height="74" viewBox="0 0 620 74" role="img" aria-labelledby="title desc" style="background: transparent;">
  <title id="title">Envy Code B 10pt Compact Regular preview</title>
  <desc id="desc">Sphinx of black quartz, judge my vow.</desc>
  <style>
    svg { background: transparent; }
    .preview-text { fill: #24292f; }
    @media (prefers-color-scheme: dark) {
      .preview-text { fill: #f0f6fc; }
    }
  </style>
  <g class="preview-text" transform="translate(22.72 46.16)">
    <path d="M1.2783203125 -2.623046875H11.7373046875V0.0H1.2783203125ZM11.7373046875 -7.8525390625H14.3603515625V-2.623046875H11.7373046875ZM9.1142578125 -10.458984375H11.7373046875V-7.8525390625H9.1142578125ZM6.5078125 -13.08203125H9.1142578125V-10.458984375H6.5078125ZM3.884765625 -15.705078125H6.5078125V-13.08203125H3.884765625ZM1.2783203125 -20.9345703125H3.884765625V-15.705078125H1.2783203125ZM3.884765625 -23.541015625H14.3603515625V-20.9345703125H3.884765625Z M16.9169921875 -18.3115234375H27.3759765625V-15.705078125H19.5234375V-2.623046875H27.3759765625V0.0H19.5234375V7.8525390625H16.9169921875V0.0ZM27.3759765625 -15.705078125H29.9990234375V-2.623046875H27.3759765625Z M32.5556640625 -23.541015625H35.162109375V-15.705078125H37.78515625V-13.08203125H35.162109375V0.0H32.5556640625ZM43.0146484375 -15.705078125H45.6376953125V0.0H43.0146484375ZM37.78515625 -18.3115234375H43.0146484375V-15.705078125H37.78515625Z M54.751953125 -15.705078125H52.12890625V-18.3115234375H57.3583984375V0.0H54.751953125ZM54.751953125 -23.541015625H57.3583984375V-20.9345703125H54.751953125Z M63.8330078125 -18.3115234375H66.439453125V-15.705078125H69.0625V-13.08203125H66.439453125V0.0H63.8330078125ZM74.2919921875 -15.705078125H76.9150390625V0.0H74.2919921875ZM69.0625 -18.3115234375H74.2919921875V-15.705078125H69.0625Z M79.4716796875 -5.2294921875H82.078125V0.0H79.4716796875ZM89.9306640625 -5.2294921875H92.5537109375V0.0H89.9306640625ZM82.078125 -7.8525390625H84.701171875V-5.2294921875H82.078125ZM87.3076171875 -7.8525390625H89.9306640625V-5.2294921875H87.3076171875ZM84.701171875 -10.458984375H87.3076171875V-7.8525390625H84.701171875ZM82.078125 -13.08203125H84.701171875V-10.458984375H82.078125ZM87.3076171875 -13.08203125H89.9306640625V-10.458984375H87.3076171875ZM79.4716796875 -18.3115234375H82.078125V-13.08203125H79.4716796875ZM89.9306640625 -18.3115234375H92.5537109375V-13.08203125H89.9306640625Z M113.35546875 -2.623046875H121.2080078125V0.0H113.35546875ZM110.7490234375 -15.705078125H113.35546875V-2.623046875H110.7490234375ZM121.2080078125 -15.705078125H123.8310546875V-2.623046875H121.2080078125ZM113.35546875 -18.3115234375H121.2080078125V-15.705078125H113.35546875Z M128.994140625 -13.08203125H126.3876953125V-15.705078125H128.994140625V-20.9345703125H131.6171875V-15.705078125H136.8466796875V-13.08203125H131.6171875V0.0H128.994140625ZM131.6171875 -23.541015625H139.4697265625V-20.9345703125H131.6171875Z M157.6650390625 -26.1640625H160.271484375V-18.3115234375H168.1240234375V-15.705078125H160.271484375V-2.623046875H168.1240234375V0.0H157.6650390625ZM168.1240234375 -15.705078125H170.7470703125V-2.623046875H168.1240234375Z M179.861328125 -20.9345703125H177.23828125V-23.541015625H182.4677734375V0.0H179.861328125Z M191.548828125 -2.623046875H199.4013671875V-7.8525390625H191.548828125V-10.458984375H199.4013671875V-15.705078125H202.0244140625V0.0H191.548828125ZM188.9423828125 -7.8525390625H191.548828125V-2.623046875H188.9423828125ZM191.548828125 -18.3115234375H199.4013671875V-15.705078125H191.548828125Z M209.810546875 -2.623046875H217.6630859375V0.0H209.810546875ZM207.1875 -5.2294921875H209.810546875V-2.623046875H207.1875ZM204.5810546875 -13.08203125H207.1875V-5.2294921875H204.5810546875ZM207.1875 -15.705078125H209.810546875V-13.08203125H207.1875ZM209.810546875 -18.3115234375H217.6630859375V-15.705078125H209.810546875Z M220.2197265625 -23.541015625H222.826171875V-10.458984375H225.44921875V-7.8525390625H222.826171875V0.0H220.2197265625ZM230.6787109375 -2.623046875H233.3017578125V0.0H230.6787109375ZM228.0556640625 -5.2294921875H230.6787109375V-2.623046875H228.0556640625ZM225.44921875 -7.8525390625H228.0556640625V-5.2294921875H225.44921875ZM225.44921875 -13.08203125H228.0556640625V-10.458984375H225.44921875ZM228.0556640625 -15.705078125H230.6787109375V-13.08203125H228.0556640625ZM230.6787109375 -18.3115234375H233.3017578125V-15.705078125H230.6787109375Z M261.9560546875 0.0H254.103515625V-2.623046875H261.9560546875V-15.705078125H254.103515625V-18.3115234375H264.5791015625V7.8525390625H261.9560546875ZM251.4970703125 -15.705078125H254.103515625V-2.623046875H251.4970703125Z M269.7421875 -2.623046875H274.9716796875V0.0H269.7421875ZM277.5947265625 -2.623046875H274.9716796875V-5.2294921875H277.5947265625V-18.3115234375H280.2177734375V0.0H277.5947265625ZM267.1357421875 -18.3115234375H269.7421875V-2.623046875H267.1357421875Z M285.380859375 -2.623046875H293.2333984375V-7.8525390625H285.380859375V-10.458984375H293.2333984375V-15.705078125H295.8564453125V0.0H285.380859375ZM282.7744140625 -7.8525390625H285.380859375V-2.623046875H282.7744140625ZM285.380859375 -18.3115234375H293.2333984375V-15.705078125H285.380859375Z M298.4130859375 -18.3115234375H301.01953125V-15.705078125H303.642578125V-13.08203125H301.01953125V0.0H298.4130859375ZM303.642578125 -18.3115234375H308.8720703125V-15.705078125H303.642578125ZM308.8720703125 -15.705078125H311.4951171875V-13.08203125H308.8720703125Z M319.28125 -2.623046875H327.1337890625V0.0H319.28125ZM316.658203125 -15.705078125H314.0517578125V-18.3115234375H316.658203125V-23.541015625H319.28125V-18.3115234375H324.5107421875V-15.705078125H319.28125V-2.623046875H316.658203125Z M329.6904296875 -5.2294921875H332.296875V-2.623046875H342.7724609375V0.0H329.6904296875ZM332.296875 -7.8525390625H334.919921875V-5.2294921875H332.296875ZM334.919921875 -10.458984375H337.5263671875V-7.8525390625H334.919921875ZM337.5263671875 -13.08203125H340.1494140625V-10.458984375H337.5263671875ZM329.6904296875 -18.3115234375H342.7724609375V-13.08203125H340.1494140625V-15.705078125H329.6904296875Z M347.935546875 0.0H350.55859375V-5.2294921875H355.7880859375V0.0H353.1650390625V2.623046875H347.935546875Z M379.212890625 2.623046875H384.4423828125V5.2294921875H379.212890625ZM384.4423828125 -15.705078125H381.8359375V-18.3115234375H387.0654296875V2.623046875H384.4423828125ZM384.4423828125 -23.541015625H387.0654296875V-20.9345703125H384.4423828125Z M394.8515625 -2.623046875H400.0810546875V0.0H394.8515625ZM402.7041015625 -2.623046875H400.0810546875V-5.2294921875H402.7041015625V-18.3115234375H405.3271484375V0.0H402.7041015625ZM392.2451171875 -18.3115234375H394.8515625V-2.623046875H392.2451171875Z M410.490234375 -2.623046875H418.3427734375V-15.705078125H410.490234375V-18.3115234375H418.3427734375V-26.1640625H420.9658203125V0.0H410.490234375ZM407.8837890625 -15.705078125H410.490234375V-2.623046875H407.8837890625Z M423.5224609375 2.623046875H426.12890625V5.2294921875H423.5224609375ZM426.12890625 5.2294921875H433.9814453125V7.8525390625H426.12890625ZM433.9814453125 0.0H426.12890625V-2.623046875H433.9814453125V-15.705078125H426.12890625V-18.3115234375H436.6044921875V5.2294921875H433.9814453125ZM423.5224609375 -15.705078125H426.12890625V-2.623046875H423.5224609375Z M441.767578125 -2.623046875H452.2431640625V0.0H441.767578125ZM439.1611328125 -15.705078125H441.767578125V-10.458984375H449.6201171875V-15.705078125H452.2431640625V-7.8525390625H441.767578125V-2.623046875H439.1611328125ZM441.767578125 -18.3115234375H449.6201171875V-15.705078125H441.767578125Z M470.4384765625 -18.3115234375H475.66796875V-15.705078125H473.044921875V0.0H470.4384765625ZM475.66796875 -15.705078125H478.2744140625V0.0H475.66796875ZM480.8974609375 -15.705078125H483.5205078125V0.0H480.8974609375ZM478.2744140625 -18.3115234375H480.8974609375V-15.705078125H478.2744140625Z M486.0771484375 5.2294921875H488.68359375V7.8525390625H486.0771484375ZM488.68359375 2.623046875H491.306640625V5.2294921875H488.68359375ZM491.306640625 -2.623046875H493.9130859375V2.623046875H491.306640625ZM488.68359375 -10.458984375H491.306640625V-2.623046875H488.68359375ZM493.9130859375 -10.458984375H496.5361328125V-2.623046875H493.9130859375ZM486.0771484375 -18.3115234375H488.68359375V-10.458984375H486.0771484375ZM496.5361328125 -18.3115234375H499.1591796875V-10.458984375H496.5361328125Z M522.583984375 -5.2294921875H525.1904296875V0.0H522.583984375ZM519.9609375 -10.458984375H522.583984375V-5.2294921875H519.9609375ZM525.1904296875 -10.458984375H527.8134765625V-5.2294921875H525.1904296875ZM517.3544921875 -18.3115234375H519.9609375V-10.458984375H517.3544921875ZM527.8134765625 -18.3115234375H530.4365234375V-10.458984375H527.8134765625Z M535.599609375 -2.623046875H543.4521484375V0.0H535.599609375ZM532.9931640625 -15.705078125H535.599609375V-2.623046875H532.9931640625ZM543.4521484375 -15.705078125H546.0751953125V-2.623046875H543.4521484375ZM535.599609375 -18.3115234375H543.4521484375V-15.705078125H535.599609375Z M551.23828125 -2.623046875H553.861328125V0.0H551.23828125ZM556.4677734375 -2.623046875H559.0908203125V0.0H556.4677734375ZM553.861328125 -10.458984375H556.4677734375V-2.623046875H553.861328125ZM548.6318359375 -18.3115234375H551.23828125V-2.623046875H548.6318359375ZM559.0908203125 -18.3115234375H561.7138671875V-2.623046875H559.0908203125Z M568.205078125 -5.2294921875H573.4345703125V0.0H568.205078125Z"/>
  </g>
</svg>
