<svg xmlns="http://www.w3.org/2000/svg" width="671" height="74" viewBox="0 0 671 74" role="img" aria-labelledby="title desc" style="background: transparent;">
  <title id="title">Envy Code B 10pt Compact Regular preview</title>
  <desc id="desc">Sphinx of black quartz, judge my vow.</desc>
  <style>
    svg { background: transparent; }
    .preview-text { fill: #24292f; }
    @media (prefers-color-scheme: dark) {
      .preview-text { fill: #f0f6fc; }
    }
  </style>
  <g class="preview-text" transform="translate(22.01 46.16)">
    <path d="M1.9921875 -2.623046875H12.451171875V0.0H1.9921875ZM12.451171875 -7.8525390625H15.07421875V-2.623046875H12.451171875ZM9.828125 -10.458984375H12.451171875V-7.8525390625H9.828125ZM7.2216796875 -13.08203125H9.828125V-10.458984375H7.2216796875ZM4.5986328125 -15.705078125H7.2216796875V-13.08203125H4.5986328125ZM1.9921875 -20.9345703125H4.5986328125V-15.705078125H1.9921875ZM4.5986328125 -23.541015625H15.07421875V-20.9345703125H4.5986328125Z M19.0419921875 -18.3115234375H29.5009765625V-15.705078125H21.6484375V-2.623046875H29.5009765625V0.0H21.6484375V7.8525390625H19.0419921875V0.0ZM29.5009765625 -15.705078125H32.1240234375V-2.623046875H29.5009765625Z M36.091796875 -23.541015625H38.6982421875V-15.705078125H41.3212890625V-13.08203125H38.6982421875V0.0H36.091796875ZM46.55078125 -15.705078125H49.173828125V0.0H46.55078125ZM41.3212890625 -18.3115234375H46.55078125V-15.705078125H41.3212890625Z M59.6826171875 -15.705078125H57.0595703125V-18.3115234375H62.2890625V0.0H59.6826171875ZM59.6826171875 -23.541015625H62.2890625V-20.9345703125H59.6826171875Z M70.19140625 -18.3115234375H72.7978515625V-15.705078125H75.4208984375V-13.08203125H72.7978515625V0.0H70.19140625ZM80.650390625 -15.705078125H83.2734375V0.0H80.650390625ZM75.4208984375 -18.3115234375H80.650390625V-15.705078125H75.4208984375Z M87.2412109375 -5.2294921875H89.84765625V0.0H87.2412109375ZM97.7001953125 -5.2294921875H100.3232421875V0.0H97.7001953125ZM89.84765625 -7.8525390625H92.470703125V-5.2294921875H89.84765625ZM95.0771484375 -7.8525390625H97.7001953125V-5.2294921875H95.0771484375ZM92.470703125 -10.458984375H95.0771484375V-7.8525390625H92.470703125ZM89.84765625 -13.08203125H92.470703125V-10.458984375H89.84765625ZM95.0771484375 -13.08203125H97.7001953125V-10.458984375H95.0771484375ZM87.2412109375 -18.3115234375H89.84765625V-13.08203125H87.2412109375ZM97.7001953125 -18.3115234375H100.3232421875V-13.08203125H97.7001953125Z M123.947265625 -2.623046875H131.7998046875V0.0H123.947265625ZM121.3408203125 -15.705078125H123.947265625V-2.623046875H121.3408203125ZM131.7998046875 -15.705078125H134.4228515625V-2.623046875H131.7998046875ZM123.947265625 -18.3115234375H131.7998046875V-15.705078125H123.947265625Z M140.9970703125 -13.08203125H138.390625V-15.705078125H140.9970703125V-20.9345703125H143.6201171875V-15.705078125H148.849609375V-13.08203125H143.6201171875V0.0H140.9970703125ZM143.6201171875 -23.541015625H151.47265625V-20.9345703125H143.6201171875Z M172.490234375 -26.1640625H175.0966796875V-18.3115234375H182.94921875V-15.705078125H175.0966796875V-2.623046875H182.94921875V0.0H172.490234375ZM182.94921875 -15.705078125H185.572265625V-2.623046875H182.94921875Z M196.0810546875 -20.9345703125H193.4580078125V-23.541015625H198.6875V0.0H196.0810546875Z M209.1962890625 -2.623046875H217.048828125V-7.8525390625H209.1962890625V-10.458984375H217.048828125V-15.705078125H219.671875V0.0H209.1962890625ZM206.58984375 -7.8525390625H209.1962890625V-2.623046875H206.58984375ZM209.1962890625 -18.3115234375H217.048828125V-15.705078125H209.1962890625Z M228.869140625 -2.623046875H236.7216796875V0.0H228.869140625ZM226.24609375 -5.2294921875H228.869140625V-2.623046875H226.24609375ZM223.6396484375 -13.08203125H226.24609375V-5.2294921875H223.6396484375ZM226.24609375 -15.705078125H228.869140625V-13.08203125H226.24609375ZM228.869140625 -18.3115234375H236.7216796875V-15.705078125H228.869140625Z M240.689453125 -23.541015625H243.2958984375V-10.458984375H245.9189453125V-7.8525390625H243.2958984375V0.0H240.689453125ZM251.1484375 -2.623046875H253.771484375V0.0H251.1484375ZM248.525390625 -5.2294921875H251.1484375V-2.623046875H248.525390625ZM245.9189453125 -7.8525390625H248.525390625V-5.2294921875H245.9189453125ZM245.9189453125 -13.08203125H248.525390625V-10.458984375H245.9189453125ZM248.525390625 -15.705078125H251.1484375V-13.08203125H248.525390625ZM251.1484375 -18.3115234375H253.771484375V-15.705078125H251.1484375Z M285.248046875 0.0H277.3955078125V-2.623046875H285.248046875V-15.705078125H277.3955078125V-18.3115234375H287.87109375V7.8525390625H285.248046875ZM274.7890625 -15.705078125H277.3955078125V-2.623046875H274.7890625Z M294.4453125 -2.623046875H299.6748046875V0.0H294.4453125ZM302.2978515625 -2.623046875H299.6748046875V-5.2294921875H302.2978515625V-18.3115234375H304.9208984375V0.0H302.2978515625ZM291.8388671875 -18.3115234375H294.4453125V-2.623046875H291.8388671875Z M311.4951171875 -2.623046875H319.34765625V-7.8525390625H311.4951171875V-10.458984375H319.34765625V-15.705078125H321.970703125V0.0H311.4951171875ZM308.888671875 -7.8525390625H311.4951171875V-2.623046875H308.888671875ZM311.4951171875 -18.3115234375H319.34765625V-15.705078125H311.4951171875Z M325.9384765625 -18.3115234375H328.544921875V-15.705078125H331.16796875V-13.08203125H328.544921875V0.0H325.9384765625ZM331.16796875 -18.3115234375H336.3974609375V-15.705078125H331.16796875ZM336.3974609375 -15.705078125H339.0205078125V-13.08203125H336.3974609375Z M348.2177734375 -2.623046875H356.0703125V0.0H348.2177734375ZM345.5947265625 -15.705078125H342.98828125V-18.3115234375H345.5947265625V-23.541015625H348.2177734375V-18.3115234375H353.447265625V-15.705078125H348.2177734375V-2.623046875H345.5947265625Z M360.0380859375 -5.2294921875H362.64453125V-2.623046875H373.1201171875V0.0H360.0380859375ZM362.64453125 -7.8525390625H365.267578125V-5.2294921875H362.64453125ZM365.267578125 -10.458984375H367.8740234375V-7.8525390625H365.267578125ZM367.8740234375 -13.08203125H370.4970703125V-10.458984375H367.8740234375ZM360.0380859375 -18.3115234375H373.1201171875V-13.08203125H370.4970703125V-15.705078125H360.0380859375Z M379.6943359375 0.0H382.3173828125V-5.2294921875H387.546875V0.0H384.923828125V2.623046875H379.6943359375Z M413.7939453125 2.623046875H419.0234375V5.2294921875H413.7939453125ZM419.0234375 -15.705078125H416.4169921875V-18.3115234375H421.646484375V2.623046875H419.0234375ZM419.0234375 -23.541015625H421.646484375V-20.9345703125H419.0234375Z M430.84375 -2.623046875H436.0732421875V0.0H430.84375ZM438.6962890625 -2.623046875H436.0732421875V-5.2294921875H438.6962890625V-18.3115234375H441.3193359375V0.0H438.6962890625ZM428.2373046875 -18.3115234375H430.84375V-2.623046875H428.2373046875Z M447.8935546875 -2.623046875H455.74609375V-15.705078125H447.8935546875V-18.3115234375H455.74609375V-26.1640625H458.369140625V0.0H447.8935546875ZM445.287109375 -15.705078125H447.8935546875V-2.623046875H445.287109375Z M462.3369140625 2.623046875H464.943359375V5.2294921875H462.3369140625ZM464.943359375 5.2294921875H472.7958984375V7.8525390625H464.943359375ZM472.7958984375 0.0H464.943359375V-2.623046875H472.7958984375V-15.705078125H464.943359375V-18.3115234375H475.4189453125V5.2294921875H472.7958984375ZM462.3369140625 -15.705078125H464.943359375V-2.623046875H462.3369140625Z M481.9931640625 -2.623046875H492.46875V0.0H481.9931640625ZM479.38671875 -15.705078125H481.9931640625V-10.458984375H489.845703125V-15.705078125H492.46875V-7.8525390625H481.9931640625V-2.623046875H479.38671875ZM481.9931640625 -18.3115234375H489.845703125V-15.705078125H481.9931640625Z M513.486328125 -18.3115234375H518.7158203125V-15.705078125H516.0927734375V0.0H513.486328125ZM518.7158203125 -15.705078125H521.322265625V0.0H518.7158203125ZM523.9453125 -15.705078125H526.568359375V0.0H523.9453125ZM521.322265625 -18.3115234375H523.9453125V-15.705078125H521.322265625Z M530.5361328125 5.2294921875H533.142578125V7.8525390625H530.5361328125ZM533.142578125 2.623046875H535.765625V5.2294921875H533.142578125ZM535.765625 -2.623046875H538.3720703125V2.623046875H535.765625ZM533.142578125 -10.458984375H535.765625V-2.623046875H533.142578125ZM538.3720703125 -10.458984375H540.9951171875V-2.623046875H538.3720703125ZM530.5361328125 -18.3115234375H533.142578125V-10.458984375H530.5361328125ZM540.9951171875 -18.3115234375H543.6181640625V-10.458984375H540.9951171875Z M569.865234375 -5.2294921875H572.4716796875V0.0H569.865234375ZM567.2421875 -10.458984375H569.865234375V-5.2294921875H567.2421875ZM572.4716796875 -10.458984375H575.0947265625V-5.2294921875H572.4716796875ZM564.6357421875 -18.3115234375H567.2421875V-10.458984375H564.6357421875ZM575.0947265625 -18.3115234375H577.7177734375V-10.458984375H575.0947265625Z M584.2919921875 -2.623046875H592.14453125V0.0H584.2919921875ZM581.685546875 -15.705078125H584.2919921875V-2.623046875H581.685546875ZM592.14453125 -15.705078125H594.767578125V-2.623046875H592.14453125ZM584.2919921875 -18.3115234375H592.14453125V-15.705078125H584.2919921875Z M601.341796875 -2.623046875H603.96484375V0.0H601.341796875ZM606.5712890625 -2.623046875H609.1943359375V0.0H606.5712890625ZM603.96484375 -10.458984375H606.5712890625V-2.623046875H603.96484375ZM598.7353515625 -18.3115234375H601.341796875V-2.623046875H598.7353515625ZM609.1943359375 -18.3115234375H611.8173828125V-2.623046875H609.1943359375Z M619.703125 -5.2294921875H624.9326171875V0.0H619.703125Z"/>
  </g>
</svg>
