<svg xmlns="http://www.w3.org/2000/svg" width="794" height="74" viewBox="0 0 794 74" role="img" aria-labelledby="title desc">
  <title id="title">Go Mono Regular Sonic preview</title>
  <desc id="desc">Sphinx of black quartz, judge my vow.</desc>
  <style>
    .preview-text { fill: #24292f; }
    @media (prefers-color-scheme: dark) {
      .preview-text { fill: #f0f6fc; }
    }
  </style>
  <g class="preview-text" transform="translate(22.14 46.63)">
    <path d="M1.859375 -0.9296875V-7.3046875H4.71484375L5.1298828125 -3.8017578125Q7.869140625 -2.2578125 9.861328125 -2.2578125Q11.9365234375 -2.2578125 12.8994140625 -3.3203125Q13.646484375 -4.1337890625 13.646484375 -5.478515625Q13.646484375 -7.3544921875 11.2724609375 -8.7822265625Q10.95703125 -8.96484375 10.658203125 -9.1474609375L10.359375 -9.3134765625L10.16015625 -9.4462890625L7.90234375 -10.8408203125Q4.6650390625 -12.849609375 3.486328125 -14.3935546875Q2.3076171875 -15.9208984375 2.3076171875 -18.1953125Q2.3076171875 -21.44921875 4.482421875 -23.3251953125Q6.6572265625 -25.201171875 10.392578125 -25.201171875Q13.28125 -25.201171875 17.2158203125 -23.9892578125V-17.7470703125H14.34375L13.9453125 -21.349609375Q12.0859375 -22.3291015625 10.42578125 -22.3291015625Q9.03125 -22.3291015625 8.1845703125 -21.4658203125Q7.337890625 -20.5859375 7.337890625 -19.2412109375Q7.337890625 -17.962890625 8.3173828125 -17.0830078125Q9.1474609375 -16.3525390625 10.9404296875 -15.2568359375L13.3310546875 -13.7958984375Q16.66796875 -11.75390625 17.59765625 -10.55859375Q18.560546875 -9.330078125 18.560546875 -7.138671875Q18.560546875 -3.486328125 16.0537109375 -1.4443359375Q13.5302734375 0.6142578125 9.263671875 0.6142578125Q6.4912109375 0.6142578125 1.859375 -0.9296875Z M21.150390625 -15.1572265625V-18.029296875H27.458984375V-15.3564453125Q30.0322265625 -18.427734375 33.2197265625 -18.427734375Q36.2080078125 -18.427734375 37.984375 -16.0537109375Q39.7607421875 -13.6796875 39.7607421875 -9.6123046875Q39.7607421875 -4.8310546875 37.4697265625 -2.2080078125Q35.1787109375 0.4150390625 30.9619140625 0.4150390625Q29.451171875 0.4150390625 27.458984375 0.0V3.685546875H29.6171875V6.5576171875H21.150390625V3.685546875H22.810546875V-15.1572265625ZM27.458984375 -3.2705078125 28.0234375 -3.12109375Q29.384765625 -2.8056640625 30.5302734375 -2.8056640625Q34.86328125 -2.8056640625 34.86328125 -9.064453125Q34.86328125 -14.775390625 31.576171875 -14.775390625Q29.5009765625 -14.775390625 27.458984375 -11.8203125Z M42.16796875 0.0V-2.0419921875H43.994140625V-24.171875H41.9521484375V-26.2138671875H47.28125V-14.54296875Q48.4267578125 -16.2861328125 49.5556640625 -17.166015625Q51.1494140625 -18.427734375 53.125 -18.427734375Q58.1220703125 -18.427734375 58.1220703125 -11.986328125V-2.0419921875H60.1806640625V0.0H54.8515625V-11.7041015625Q54.8515625 -15.970703125 52.1455078125 -15.970703125Q49.6552734375 -15.970703125 47.28125 -11.6875V-2.0419921875H49.1240234375V0.0Z M63.6669921875 0.0V-2.0419921875H70.1416015625V-15.970703125H63.6669921875V-18.029296875H73.412109375V-2.0419921875H79.5546875V0.0ZM69.6435546875 -22.11328125V-26.2138671875H73.6611328125V-22.11328125Z M82.974609375 0.0V-2.0419921875H84.80078125V-15.970703125H82.80859375V-18.029296875H88.087890625V-14.54296875Q89.2333984375 -16.2861328125 90.3623046875 -17.166015625Q91.9560546875 -18.427734375 93.931640625 -18.427734375Q98.9287109375 -18.427734375 98.9287109375 -11.986328125V-2.0419921875H100.9208984375V0.0H95.658203125V-11.7041015625Q95.658203125 -15.970703125 92.9521484375 -15.970703125Q90.4619140625 -15.970703125 88.087890625 -11.6875V-2.0419921875H89.748046875V0.0Z M103.2119140625 0.0V-2.0419921875H105.0380859375L110.533203125 -9.0146484375L105.0380859375 -15.970703125H102.99609375V-18.029296875H110.267578125V-15.970703125H108.8232421875L113.15625 -10.4755859375L117.47265625 -15.970703125H115.7626953125V-18.029296875H121.755859375V-15.970703125H119.8134765625L114.318359375 -8.998046875L119.796875 -2.0419921875H121.755859375V0.0H114.3681640625V-2.0419921875H116.01171875L111.8115234375 -7.37109375L107.6279296875 -2.0419921875H109.2880859375V0.0Z M153.033203125 -18.427734375Q157.0673828125 -18.427734375 159.640625 -15.8046875Q162.2138671875 -13.181640625 162.2138671875 -9.0146484375Q162.2138671875 -4.814453125 159.640625 -2.2080078125Q157.05078125 0.4150390625 152.9169921875 0.4150390625Q149.3310546875 0.4150390625 146.9072265625 -1.7431640625Q143.8525390625 -4.4658203125 143.8525390625 -9.0146484375Q143.8525390625 -13.181640625 146.4091796875 -15.8046875Q148.982421875 -18.427734375 153.033203125 -18.427734375ZM153.033203125 -15.572265625Q151.20703125 -15.572265625 150.111328125 -13.7958984375Q148.9990234375 -12.0029296875 148.9990234375 -9.0146484375Q148.9990234375 -6.04296875 150.10302734375 -4.25Q151.20703125 -2.45703125 153.033203125 -2.45703125Q154.859375 -2.5400390625 155.96337890625 -4.29150390625Q157.0673828125 -6.04296875 157.0673828125 -9.0146484375Q157.0673828125 -12.0029296875 155.955078125 -13.7958984375Q154.859375 -15.572265625 153.033203125 -15.572265625Z M165.8662109375 0.0V-2.0419921875H170.1826171875V-15.0244140625H165.68359375V-17.2822265625H170.1826171875V-19.5732421875Q170.1826171875 -23.30859375 171.693359375 -24.96875Q173.2041015625 -26.62890625 176.5576171875 -26.62890625Q179.396484375 -26.62890625 182.6005859375 -25.30078125V-21.2001953125H180.55859375L180.0439453125 -23.7900390625Q178.3671875 -24.5703125 176.9892578125 -24.5703125Q175.013671875 -24.5703125 174.25 -23.57421875Q173.4697265625 -22.578125 173.4697265625 -19.9384765625V-17.2822265625H180.8408203125V-15.0244140625H173.4697265625V-2.0419921875H178.7822265625V0.0Z M206.4404296875 0.0V-23.341796875H204.7802734375V-26.2138671875H211.0888671875V-15.3564453125Q213.662109375 -18.427734375 216.849609375 -18.427734375Q219.837890625 -18.427734375 221.6142578125 -16.0537109375Q223.390625 -13.6796875 223.390625 -9.6123046875Q223.390625 -4.8310546875 221.099609375 -2.2080078125Q218.80859375 0.4150390625 214.591796875 0.4150390625Q213.0810546875 0.4150390625 211.0888671875 0.0ZM211.0888671875 -3.2705078125 211.6533203125 -3.12109375Q213.0146484375 -2.8056640625 214.16015625 -2.8056640625Q218.4931640625 -2.8056640625 218.4931640625 -9.064453125Q218.4931640625 -14.775390625 215.2060546875 -14.775390625Q213.130859375 -14.775390625 211.0888671875 -11.8203125Z M225.5986328125 -23.341796875V-26.2138671875H235.8251953125V-8.0185546875Q235.8251953125 -6.9228515625 235.88330078125 -6.009765625Q235.94140625 -5.0966796875 236.21533203125 -4.44091796875Q236.4892578125 -3.78515625 237.0703125 -3.419921875Q237.6513671875 -3.0546875 238.6806640625 -3.0546875Q239.1455078125 -3.0546875 239.6435546875 -3.09619140625Q240.1416015625 -3.1376953125 240.689453125 -3.25390625Q241.2373046875 -3.3701171875 241.85986328125 -3.5693359375Q242.482421875 -3.7685546875 242.880859375 -3.984375V-0.630859375Q242.3330078125 -0.3486328125 241.5029296875 -0.1162109375Q240.6728515625 0.1162109375 239.892578125 0.232421875Q239.1123046875 0.3486328125 238.3818359375 0.3818359375Q237.6513671875 0.4150390625 236.970703125 0.4150390625Q235.2939453125 0.4150390625 234.14013671875 -0.0498046875Q232.986328125 -0.5146484375 232.26416015625 -1.494140625Q231.5419921875 -2.4736328125 231.2265625 -4.00927734375Q230.9111328125 -5.544921875 230.9111328125 -7.669921875V-23.341796875Z M258.685546875 -1.9755859375Q255.8134765625 0.4150390625 252.8583984375 0.4150390625Q250.318359375 0.4150390625 248.8076171875 -1.0126953125Q247.296875 -2.423828125 247.296875 -4.8642578125Q247.296875 -8.0185546875 249.654296875 -9.4462890625Q252.01171875 -10.857421875 257.2744140625 -10.857421875H258.685546875V-13.646484375Q258.685546875 -16.3857421875 255.298828125 -16.3857421875Q253.5888671875 -16.3857421875 251.0322265625 -15.4228515625L250.6171875 -13.314453125H248.5751953125V-16.900390625Q252.376953125 -18.4443359375 256.328125 -18.4443359375Q259.4658203125 -18.4443359375 260.7109375 -17.365234375Q261.9560546875 -16.26953125 261.9560546875 -13.5966796875V-2.0419921875H264.2138671875V0.0H259.017578125ZM258.685546875 -4.4658203125V-8.8154296875H257.8056640625Q253.9873046875 -8.8154296875 252.376953125 -7.9521484375Q250.783203125 -7.0888671875 250.783203125 -4.6982421875Q250.783203125 -1.759765625 253.87109375 -1.759765625Q256.3115234375 -1.759765625 258.685546875 -4.4658203125Z M283.6708984375 -0.763671875Q280.9814453125 0.4150390625 277.1298828125 0.4150390625Q272.431640625 0.4150390625 269.7421875 -2.2080078125Q267.0693359375 -4.8310546875 267.0693359375 -9.2138671875Q267.0693359375 -13.5302734375 269.6923828125 -15.970703125Q272.298828125 -18.427734375 277.0634765625 -18.427734375Q280.599609375 -18.427734375 283.455078125 -17.53125V-12.384765625H281.396484375L280.8154296875 -15.6552734375Q278.806640625 -16.3857421875 276.880859375 -16.3857421875Q273.958984375 -16.3857421875 272.232421875 -14.4267578125Q270.638671875 -12.4677734375 270.638671875 -9.1640625Q270.638671875 -5.51171875 272.431640625 -3.6357421875Q274.357421875 -1.759765625 277.77734375 -1.759765625Q280.56640625 -1.759765625 283.6708984375 -3.1044921875Z M299.2763671875 0.0V-2.0419921875L292.6025390625 -8.69921875H292.2041015625V-2.0419921875H293.84765625V0.0H286.875V-2.0419921875H288.9169921875V-24.171875H286.875V-26.2138671875H292.2041015625V-9.828125H292.6025390625L298.5458984375 -15.970703125H296.6201171875V-18.029296875H303.7919921875V-15.970703125H301.451171875L295.4248046875 -9.9609375L303.5263671875 -2.0419921875H305.169921875V0.0Z M344.44921875 -18.029296875V3.685546875H346.4912109375V6.5576171875H338.0576171875V3.685546875H339.80078125V-2.65625Q337.2275390625 0.4150390625 334.0400390625 0.4150390625Q331.068359375 0.4150390625 329.2919921875 -1.958984375Q327.515625 -4.3330078125 327.515625 -8.4169921875Q327.515625 -13.1982421875 329.8232421875 -15.8212890625Q332.130859375 -18.4443359375 336.28125 -18.4443359375Q337.7919921875 -18.4443359375 339.80078125 -18.029296875ZM339.80078125 -14.708984375 339.236328125 -14.8251953125Q337.875 -15.173828125 336.7294921875 -15.173828125Q332.4130859375 -15.173828125 332.4130859375 -8.96484375Q332.4130859375 -3.2373046875 335.68359375 -3.2373046875Q337.775390625 -3.2373046875 339.80078125 -6.076171875Z M347.37109375 -15.1572265625V-18.029296875H353.845703125V-7.3046875Q353.845703125 -4.9970703125 354.310546875 -4.1669921875Q354.775390625 -3.353515625 356.0537109375 -3.353515625Q357.962890625 -3.353515625 360.1708984375 -6.208984375V-15.1572265625H358.1787109375V-18.029296875H364.90234375V-2.8720703125H366.6455078125V0.0H360.1708984375V-2.65625Q358.693359375 -0.99609375 357.5478515625 -0.33203125Q356.203125 0.4150390625 353.9619140625 0.4150390625Q351.3388671875 0.4150390625 350.2265625 -0.99609375Q349.1142578125 -2.4072265625 349.1142578125 -5.6611328125V-15.1572265625Z M381.10546875 -1.9755859375Q378.2333984375 0.4150390625 375.2783203125 0.4150390625Q372.73828125 0.4150390625 371.2275390625 -1.0126953125Q369.716796875 -2.423828125 369.716796875 -4.8642578125Q369.716796875 -8.0185546875 372.07421875 -9.4462890625Q374.431640625 -10.857421875 379.6943359375 -10.857421875H381.10546875V-13.646484375Q381.10546875 -16.3857421875 377.71875 -16.3857421875Q376.0087890625 -16.3857421875 373.4521484375 -15.4228515625L373.037109375 -13.314453125H370.9951171875V-16.900390625Q374.796875 -18.4443359375 378.748046875 -18.4443359375Q381.8857421875 -18.4443359375 383.130859375 -17.365234375Q384.3759765625 -16.26953125 384.3759765625 -13.5966796875V-2.0419921875H386.6337890625V0.0H381.4375ZM381.10546875 -4.4658203125V-8.8154296875H380.2255859375Q376.4072265625 -8.8154296875 374.796875 -7.9521484375Q373.203125 -7.0888671875 373.203125 -4.6982421875Q373.203125 -1.759765625 376.291015625 -1.759765625Q378.7314453125 -1.759765625 381.10546875 -4.4658203125Z M396.4619140625 -11.654296875V-2.0419921875H402.4384765625V0.0H389.041015625V-2.0419921875H393.19140625V-15.970703125H388.8916015625V-18.029296875H396.4619140625V-14.5263671875Q397.6904296875 -16.2861328125 398.802734375 -17.166015625Q400.396484375 -18.427734375 402.2392578125 -18.427734375Q404.1982421875 -18.427734375 406.0244140625 -17.298828125V-12.384765625H403.9658203125L403.6337890625 -14.974609375Q402.7041015625 -15.572265625 401.6748046875 -15.572265625Q398.6201171875 -15.572265625 396.4619140625 -11.654296875Z M425.19921875 -1.0126953125Q422.4599609375 0.4150390625 419.62109375 0.4150390625Q416.9482421875 0.4150390625 415.802734375 -0.830078125Q414.6572265625 -2.05859375 414.6572265625 -4.9638671875V-15.3564453125H410.0419921875V-17.6142578125H414.6572265625V-22.279296875H417.927734375V-17.6142578125H425.0V-15.3564453125H417.927734375V-6.44140625Q417.927734375 -3.78515625 418.458984375 -2.921875Q418.990234375 -2.0419921875 420.5673828125 -2.0419921875Q422.3271484375 -2.0419921875 425.19921875 -3.3203125Z M430.51171875 0.0V-2.0419921875L442.1328125 -15.970703125H433.16796875V-12.7001953125H431.1259765625V-18.029296875H446.0009765625V-15.970703125L434.529296875 -2.1748046875H444.556640625V-5.412109375H446.615234375V0.0Z M456.2939453125 0.0V-5.578125H461.8720703125V-1.92578125Q461.8720703125 6.5576171875 456.2939453125 6.5576171875V4.9140625Q458.1533203125 4.71484375 458.5185546875 3.8017578125Q458.8505859375 3.0048828125 458.9501953125 0.0Z M490.9912109375 5.91015625V-0.8134765625H493.86328125L494.26171875 3.0380859375Q496.0546875 4.1669921875 497.5654296875 4.1669921875Q499.6572265625 4.1669921875 500.205078125 2.5068359375Q500.6201171875 1.228515625 500.6201171875 -1.4609375V-15.1572265625H493.4482421875V-18.029296875H505.5341796875V-1.7431640625Q505.5341796875 2.7890625 503.525390625 4.880859375Q501.5166015625 6.97265625 497.2666015625 6.97265625Q494.79296875 6.97265625 490.9912109375 5.91015625ZM500.6201171875 -21.2998046875V-26.2138671875H505.5341796875V-21.2998046875Z M510.59765625 -15.1572265625V-18.029296875H517.072265625V-7.3046875Q517.072265625 -4.9970703125 517.537109375 -4.1669921875Q518.001953125 -3.353515625 519.2802734375 -3.353515625Q521.189453125 -3.353515625 523.3974609375 -6.208984375V-15.1572265625H521.4052734375V-18.029296875H528.12890625V-2.8720703125H529.8720703125V0.0H523.3974609375V-2.65625Q521.919921875 -0.99609375 520.7744140625 -0.33203125Q519.4296875 0.4150390625 517.1884765625 0.4150390625Q514.5654296875 0.4150390625 513.453125 -0.99609375Q512.3408203125 -2.4072265625 512.3408203125 -5.6611328125V-15.1572265625Z M544.53125 -24.171875H540.447265625V-26.2138671875H547.818359375V-2.0419921875H549.8603515625V0.0H544.53125V-3.685546875Q543.2861328125 -1.8427734375 542.1240234375 -0.9130859375Q540.4306640625 0.4150390625 538.455078125 0.4150390625Q535.7158203125 0.4150390625 534.0224609375 -1.9755859375Q532.3291015625 -4.349609375 532.3291015625 -8.267578125Q532.3291015625 -12.9990234375 534.5703125 -15.705078125Q536.794921875 -18.427734375 540.74609375 -18.427734375Q542.1904296875 -18.427734375 544.53125 -18.029296875ZM544.53125 -15.8876953125Q542.2734375 -16.2529296875 540.9951171875 -16.2529296875Q538.255859375 -16.2529296875 537.02734375 -14.4765625Q535.8154296875 -12.716796875 535.8154296875 -8.3671875Q535.8154296875 -2.0419921875 539.3681640625 -2.0419921875Q542.0908203125 -2.0419921875 544.53125 -5.9267578125Z M568.2216796875 -15.9873046875V-2.5732421875Q568.2216796875 -1.4111328125 568.18017578125 -0.25732421875Q568.138671875 0.896484375 567.90625 1.958984375Q567.673828125 3.021484375 567.1923828125 3.9345703125Q566.7109375 4.84765625 565.83935546875 5.52001953125Q564.9677734375 6.1923828125 563.6396484375 6.58251953125Q562.3115234375 6.97265625 560.3857421875 6.97265625Q558.9580078125 6.97265625 557.27294921875 6.74853515625Q555.587890625 6.5244140625 553.89453125 5.8603515625V1.759765625H555.9365234375L556.3681640625 4.017578125Q556.716796875 4.18359375 557.18994140625 4.349609375Q557.6630859375 4.515625 558.1943359375 4.64013671875Q558.7255859375 4.7646484375 559.2900390625 4.83935546875Q559.8544921875 4.9140625 560.4189453125 4.9140625Q561.53125 4.9140625 562.30322265625 4.65673828125Q563.0751953125 4.3994140625 563.5732421875 3.94287109375Q564.0712890625 3.486328125 564.34521484375 2.85546875Q564.619140625 2.224609375 564.751953125 1.46923828125Q564.884765625 0.7138671875 564.90966796875 -0.1328125Q564.9345703125 -0.9794921875 564.9345703125 -1.8759765625V-5.1796875Q563.6728515625 -3.3037109375 562.52734375 -2.4072265625Q560.8173828125 -1.0791015625 558.8583984375 -1.0791015625Q556.119140625 -1.0791015625 554.42578125 -3.4697265625Q552.732421875 -5.8271484375 552.732421875 -9.09765625Q552.732421875 -11.1396484375 553.28857421875 -12.74169921875Q553.8447265625 -14.34375 554.9736328125 -15.705078125Q557.1982421875 -18.427734375 561.166015625 -18.427734375Q562.2783203125 -18.427734375 563.158203125 -18.3115234375Q564.0380859375 -18.1953125 564.9345703125 -18.029296875H570.197265625V-15.9873046875ZM564.9345703125 -15.5888671875Q563.7890625 -15.771484375 562.9091796875 -15.87109375Q562.029296875 -15.970703125 561.3984375 -15.970703125Q558.6591796875 -15.970703125 557.4306640625 -14.1943359375Q556.81640625 -13.2978515625 556.517578125 -12.119140625Q556.21875 -10.9404296875 556.21875 -9.2802734375Q556.21875 -3.751953125 559.771484375 -3.751953125Q562.494140625 -3.751953125 564.9345703125 -7.63671875Z M589.6376953125 -8.400390625H576.837890625Q577.0703125 -6.1591796875 577.5185546875 -5.1630859375Q579.029296875 -1.759765625 583.3623046875 -1.759765625Q586.03515625 -1.759765625 589.15625 -3.5029296875V-1.029296875Q586.2509765625 0.4150390625 582.9306640625 0.4150390625Q578.630859375 0.4150390625 575.974609375 -2.224609375Q573.3349609375 -4.8642578125 573.3349609375 -9.1474609375Q573.3349609375 -13.314453125 575.7919921875 -15.87109375Q578.232421875 -18.427734375 582.25 -18.427734375Q589.6376953125 -18.427734375 589.6376953125 -9.4130859375ZM576.87109375 -10.4423828125H586.1513671875V-11.2060546875Q586.1513671875 -16.3857421875 582.017578125 -16.3857421875Q579.4609375 -16.3857421875 578.06640625 -14.34375Q577.0869140625 -12.916015625 576.87109375 -10.4423828125Z M613.8427734375 0.0V-15.1572265625H612.5146484375V-18.029296875H617.5283203125V-14.9580078125Q619.5205078125 -18.427734375 621.6123046875 -18.427734375Q623.654296875 -18.427734375 624.15234375 -14.9580078125Q625.9287109375 -18.427734375 628.1201171875 -18.427734375Q629.7470703125 -18.427734375 630.294921875 -17.0166015625Q630.759765625 -15.837890625 630.759765625 -13.28125V-2.8720703125H632.2041015625V0.0H627.07421875V-10.55859375L627.041015625 -12.4677734375Q627.0078125 -14.8251953125 626.3603515625 -14.8251953125Q625.48046875 -14.8251953125 624.15234375 -11.2392578125V0.0H620.466796875V-10.55859375L620.43359375 -12.4677734375Q620.400390625 -14.80859375 619.7529296875 -14.80859375Q618.8564453125 -14.80859375 617.5283203125 -11.2392578125V0.0Z M641.0361328125 0.0 634.64453125 -15.970703125H633.416015625V-18.029296875H640.8369140625V-15.970703125H638.1806640625L643.34375 -3.0546875H643.376953125L648.5400390625 -15.970703125H645.8837890625V-18.029296875H651.9765625V-15.970703125H650.748046875L644.3564453125 0.0L642.5634765625 4.4990234375H645.0205078125V6.5576171875H637.068359375V4.4990234375H640.35546875L642.1484375 0.0Z M680.7470703125 0.0 675.2021484375 -15.1572265625H673.5087890625V-18.029296875H682.7392578125V-15.1572265625H680.365234375L684.31640625 -4.31640625L688.7158203125 -15.1572265625H686.541015625V-18.029296875H693.513671875V-15.1572265625H691.787109375L685.6611328125 0.0Z M703.90625 -18.427734375Q707.8076171875 -18.427734375 710.0322265625 -15.9208984375Q712.2734375 -13.4140625 712.2734375 -9.03125Q712.2734375 -4.58203125 710.0322265625 -2.091796875Q707.791015625 0.4150390625 703.7734375 0.4150390625Q700.3701171875 0.4150390625 698.228515625 -1.66015625Q695.5556640625 -4.2333984375 695.5556640625 -9.0146484375Q695.5556640625 -13.4140625 697.796875 -15.9208984375Q700.0380859375 -18.427734375 703.90625 -18.427734375ZM703.90625 -16.3857421875Q699.091796875 -16.3857421875 699.091796875 -9.0478515625Q699.091796875 -1.626953125 703.90625 -1.626953125Q708.7373046875 -1.626953125 708.7373046875 -9.0478515625Q708.7373046875 -16.3857421875 703.90625 -16.3857421875Z M718.1337890625 0.0 715.3115234375 -15.970703125H714.498046875V-18.029296875H719.6611328125V-15.970703125H718.2333984375L720.375 -3.951171875H720.408203125L723.3466796875 -15.3232421875H726.119140625L729.07421875 -3.9013671875H729.107421875L731.265625 -15.970703125H729.638671875V-18.029296875H734.154296875V-15.970703125H733.3408203125L730.5185546875 0.0H727.314453125L724.3427734375 -11.6708984375H724.3095703125L721.2880859375 0.0Z M741.923828125 0.0V-5.578125H747.501953125V0.0Z"/>
  </g>
</svg>
