<svg xmlns="http://www.w3.org/2000/svg" width="793" height="98" viewBox="0 0 793 98" role="img" aria-labelledby="title desc">
  <title id="title">Go Mono Regular Sonic preview</title>
  <desc id="desc">Sphinx of black quartz, judge my vow.</desc>
  <rect width="100%" height="100%" rx="10" fill="#0d1117"/>
  <text x="24" y="34" fill="#8b949e" font-family="ui-monospace, SFMono-Regular, Menlo, Consolas, monospace" font-size="16">Go Mono Regular Sonic</text>
  <g transform="translate(21.49 72.63)" fill="#f0f6fc">
    <path d="M2.5068359375 -1.0126953125V-6.9560546875H4.5654296875L4.9638671875 -3.0712890625Q8.068359375 -1.560546875 10.126953125 -1.560546875Q12.2353515625 -1.560546875 13.546875 -2.8720703125Q14.8583984375 -4.1669921875 14.8583984375 -6.0595703125Q14.8583984375 -8.666015625 11.5380859375 -10.392578125L8.3837890625 -12.0361328125Q5.24609375 -13.6630859375 4.1337890625 -15.041015625Q3.0380859375 -16.369140625 3.0380859375 -18.6435546875Q3.0380859375 -25.1845703125 10.4755859375 -25.1845703125Q13.513671875 -25.1845703125 16.701171875 -23.97265625V-18.6767578125H14.6591796875L14.244140625 -21.9140625Q12.1689453125 -23.142578125 10.2265625 -23.142578125Q6.2255859375 -23.142578125 6.2255859375 -19.05859375Q6.2255859375 -17.3818359375 7.1552734375 -16.5849609375Q7.96875 -15.8876953125 10.060546875 -14.7587890625L12.8662109375 -13.248046875Q16.103515625 -11.5048828125 17.099609375 -10.29296875Q18.1123046875 -9.064453125 18.1123046875 -6.8564453125Q18.1123046875 -3.4697265625 15.8876953125 -1.427734375Q13.646484375 0.6142578125 9.927734375 0.6142578125Q6.5244140625 0.6142578125 2.5068359375 -1.0126953125Z M26.76171875 4.515625H30.8623046875V6.5576171875H21.4326171875V4.515625H23.474609375V-15.970703125H21.4326171875V-18.029296875H26.76171875V-14.34375Q28.0068359375 -16.1865234375 29.185546875 -17.099609375Q30.87890625 -18.427734375 32.837890625 -18.427734375Q35.5771484375 -18.427734375 37.2705078125 -16.0537109375Q38.9638671875 -13.6630859375 38.9638671875 -9.76171875Q38.9638671875 -5.013671875 36.72265625 -2.3076171875Q34.498046875 0.4150390625 30.5966796875 0.4150390625Q29.1357421875 0.4150390625 26.76171875 0.0ZM26.76171875 -2.423828125Q29.01953125 -2.0419921875 30.28125 -2.0419921875Q33.0537109375 -2.0419921875 34.265625 -3.818359375Q35.4775390625 -5.5947265625 35.4775390625 -9.7783203125Q35.4775390625 -15.970703125 31.9248046875 -15.970703125Q29.2021484375 -15.970703125 26.76171875 -11.88671875Z M42.16796875 0.0V-2.0419921875H43.994140625V-24.171875H41.9521484375V-26.2138671875H47.28125V-14.54296875Q48.4267578125 -16.2861328125 49.5556640625 -17.166015625Q51.1494140625 -18.427734375 53.125 -18.427734375Q58.1220703125 -18.427734375 58.1220703125 -11.986328125V-2.0419921875H60.1806640625V0.0H54.8515625V-11.7041015625Q54.8515625 -15.970703125 52.1455078125 -15.970703125Q49.6552734375 -15.970703125 47.28125 -11.6875V-2.0419921875H49.1240234375V0.0Z M63.6669921875 0.0V-2.0419921875H70.1416015625V-15.970703125H63.6669921875V-18.029296875H73.412109375V-2.0419921875H79.5546875V0.0ZM69.6435546875 -22.11328125V-26.2138671875H73.6611328125V-22.11328125Z M82.974609375 0.0V-2.0419921875H84.80078125V-15.970703125H82.80859375V-18.029296875H88.087890625V-14.54296875Q89.2333984375 -16.2861328125 90.3623046875 -17.166015625Q91.9560546875 -18.427734375 93.931640625 -18.427734375Q98.9287109375 -18.427734375 98.9287109375 -11.986328125V-2.0419921875H100.9208984375V0.0H95.658203125V-11.7041015625Q95.658203125 -15.970703125 92.9521484375 -15.970703125Q90.4619140625 -15.970703125 88.087890625 -11.6875V-2.0419921875H89.748046875V0.0Z M103.2119140625 0.0V-2.0419921875H105.0380859375L110.533203125 -9.0146484375L105.0380859375 -15.970703125H102.99609375V-18.029296875H110.267578125V-15.970703125H108.8232421875L113.15625 -10.4755859375L117.47265625 -15.970703125H115.7626953125V-18.029296875H121.755859375V-15.970703125H119.8134765625L114.318359375 -8.998046875L119.796875 -2.0419921875H121.755859375V0.0H114.3681640625V-2.0419921875H116.01171875L111.8115234375 -7.37109375L107.6279296875 -2.0419921875H109.2880859375V0.0Z M153.0166015625 -18.427734375Q156.91796875 -18.427734375 159.142578125 -15.9208984375Q161.3837890625 -13.4140625 161.3837890625 -9.03125Q161.3837890625 -4.58203125 159.142578125 -2.091796875Q156.9013671875 0.4150390625 152.8837890625 0.4150390625Q149.48046875 0.4150390625 147.3388671875 -1.66015625Q144.666015625 -4.2333984375 144.666015625 -9.0146484375Q144.666015625 -13.4140625 146.9072265625 -15.9208984375Q149.1484375 -18.427734375 153.0166015625 -18.427734375ZM153.0166015625 -16.3857421875Q148.2021484375 -16.3857421875 148.2021484375 -9.0478515625Q148.2021484375 -1.626953125 153.0166015625 -1.626953125Q157.84765625 -1.626953125 157.84765625 -9.0478515625Q157.84765625 -16.3857421875 153.0166015625 -16.3857421875Z M165.8662109375 0.0V-2.0419921875H170.1826171875V-15.0244140625H165.68359375V-17.2822265625H170.1826171875V-19.5732421875Q170.1826171875 -23.30859375 171.693359375 -24.96875Q173.2041015625 -26.62890625 176.5576171875 -26.62890625Q179.396484375 -26.62890625 182.6005859375 -25.30078125V-21.2001953125H180.55859375L180.0439453125 -23.7900390625Q178.3671875 -24.5703125 176.9892578125 -24.5703125Q175.013671875 -24.5703125 174.25 -23.57421875Q173.4697265625 -22.578125 173.4697265625 -19.9384765625V-17.2822265625H180.8408203125V-15.0244140625H173.4697265625V-2.0419921875H178.7822265625V0.0Z M210.3916015625 0.0H207.1044921875V-24.171875H205.0625V-26.2138671875H210.3916015625V-14.34375Q211.63671875 -16.1865234375 212.8154296875 -17.099609375Q214.5087890625 -18.427734375 216.4677734375 -18.427734375Q219.20703125 -18.427734375 220.900390625 -16.0537109375Q222.59375 -13.6630859375 222.59375 -9.76171875Q222.59375 -5.013671875 220.3525390625 -2.3076171875Q218.1279296875 0.4150390625 214.2265625 0.4150390625Q212.765625 0.4150390625 210.3916015625 0.0ZM210.3916015625 -2.1416015625Q212.6494140625 -1.759765625 213.9111328125 -1.759765625Q216.68359375 -1.759765625 217.8955078125 -3.5361328125Q219.107421875 -5.3125 219.107421875 -9.595703125Q219.107421875 -15.771484375 215.5546875 -15.771484375Q212.83203125 -15.771484375 210.3916015625 -11.88671875Z M242.947265625 -1.0126953125Q240.19140625 0.4150390625 237.369140625 0.4150390625Q235.841796875 0.4150390625 234.82080078125 0.05810546875Q233.7998046875 -0.298828125 233.19384765625 -1.07080078125Q232.587890625 -1.8427734375 232.33056640625 -3.0546875Q232.0732421875 -4.2666015625 232.0732421875 -5.9599609375V-24.171875H225.9306640625V-26.2138671875H235.34375V-7.0556640625Q235.34375 -5.51171875 235.4599609375 -4.5322265625Q235.576171875 -3.552734375 235.91650390625 -3.0048828125Q236.2568359375 -2.45703125 236.8876953125 -2.2578125Q237.5185546875 -2.05859375 238.564453125 -2.05859375Q240.623046875 -2.05859375 242.947265625 -3.3369140625Z M258.685546875 -1.9755859375Q255.8134765625 0.4150390625 252.8583984375 0.4150390625Q250.318359375 0.4150390625 248.8076171875 -1.0126953125Q247.296875 -2.423828125 247.296875 -4.8642578125Q247.296875 -8.0185546875 249.654296875 -9.4462890625Q252.01171875 -10.857421875 257.2744140625 -10.857421875H258.685546875V-13.646484375Q258.685546875 -16.3857421875 255.298828125 -16.3857421875Q253.5888671875 -16.3857421875 251.0322265625 -15.4228515625L250.6171875 -13.314453125H248.5751953125V-16.900390625Q252.376953125 -18.4443359375 256.328125 -18.4443359375Q259.4658203125 -18.4443359375 260.7109375 -17.365234375Q261.9560546875 -16.26953125 261.9560546875 -13.5966796875V-2.0419921875H264.2138671875V0.0H259.017578125ZM258.685546875 -4.4658203125V-8.8154296875H257.8056640625Q253.9873046875 -8.8154296875 252.376953125 -7.9521484375Q250.783203125 -7.0888671875 250.783203125 -4.6982421875Q250.783203125 -1.759765625 253.87109375 -1.759765625Q256.3115234375 -1.759765625 258.685546875 -4.4658203125Z M283.6708984375 -0.763671875Q280.9814453125 0.4150390625 277.1298828125 0.4150390625Q272.431640625 0.4150390625 269.7421875 -2.2080078125Q267.0693359375 -4.8310546875 267.0693359375 -9.2138671875Q267.0693359375 -13.5302734375 269.6923828125 -15.970703125Q272.298828125 -18.427734375 277.0634765625 -18.427734375Q280.599609375 -18.427734375 283.455078125 -17.53125V-12.384765625H281.396484375L280.8154296875 -15.6552734375Q278.806640625 -16.3857421875 276.880859375 -16.3857421875Q273.958984375 -16.3857421875 272.232421875 -14.4267578125Q270.638671875 -12.4677734375 270.638671875 -9.1640625Q270.638671875 -5.51171875 272.431640625 -3.6357421875Q274.357421875 -1.759765625 277.77734375 -1.759765625Q280.56640625 -1.759765625 283.6708984375 -3.1044921875Z M299.2763671875 0.0V-2.0419921875L292.6025390625 -8.69921875H292.2041015625V-2.0419921875H293.84765625V0.0H286.875V-2.0419921875H288.9169921875V-24.171875H286.875V-26.2138671875H292.2041015625V-9.828125H292.6025390625L298.5458984375 -15.970703125H296.6201171875V-18.029296875H303.7919921875V-15.970703125H301.451171875L295.4248046875 -9.9609375L303.5263671875 -2.0419921875H305.169921875V0.0Z M340.498046875 -3.685546875Q339.2529296875 -1.8427734375 338.0908203125 -0.9130859375Q336.3974609375 0.4150390625 334.421875 0.4150390625Q331.6826171875 0.4150390625 329.9892578125 -1.9755859375Q328.2958984375 -4.349609375 328.2958984375 -8.267578125Q328.2958984375 -12.9990234375 330.537109375 -15.705078125Q332.76171875 -18.427734375 336.7294921875 -18.427734375L340.498046875 -18.029296875H343.78515625V4.515625H345.8271484375V6.5576171875H336.4140625V4.4990234375H340.498046875ZM340.498046875 -15.5888671875Q338.240234375 -15.970703125 336.9619140625 -15.970703125Q334.22265625 -15.970703125 332.994140625 -14.1943359375Q331.7822265625 -12.41796875 331.7822265625 -8.4501953125Q331.7822265625 -2.2578125 335.3349609375 -2.2578125Q338.0576171875 -2.2578125 340.498046875 -6.142578125Z M359.0419921875 -18.029296875H364.171875V-2.0419921875H366.2138671875V0.0H360.884765625V-3.4697265625Q359.7392578125 -1.7265625 358.6103515625 -0.8466796875Q357.0166015625 0.4150390625 355.041015625 0.4150390625Q350.02734375 0.4150390625 350.02734375 -6.0263671875V-15.970703125H347.9853515625V-18.029296875H353.314453125V-6.30859375Q353.314453125 -2.0751953125 356.0205078125 -2.0751953125Q358.494140625 -2.0751953125 360.884765625 -6.341796875V-15.970703125H359.0419921875Z M381.10546875 -1.9755859375Q378.2333984375 0.4150390625 375.2783203125 0.4150390625Q372.73828125 0.4150390625 371.2275390625 -1.0126953125Q369.716796875 -2.423828125 369.716796875 -4.8642578125Q369.716796875 -8.0185546875 372.07421875 -9.4462890625Q374.431640625 -10.857421875 379.6943359375 -10.857421875H381.10546875V-13.646484375Q381.10546875 -16.3857421875 377.71875 -16.3857421875Q376.0087890625 -16.3857421875 373.4521484375 -15.4228515625L373.037109375 -13.314453125H370.9951171875V-16.900390625Q374.796875 -18.4443359375 378.748046875 -18.4443359375Q381.8857421875 -18.4443359375 383.130859375 -17.365234375Q384.3759765625 -16.26953125 384.3759765625 -13.5966796875V-2.0419921875H386.6337890625V0.0H381.4375ZM381.10546875 -4.4658203125V-8.8154296875H380.2255859375Q376.4072265625 -8.8154296875 374.796875 -7.9521484375Q373.203125 -7.0888671875 373.203125 -4.6982421875Q373.203125 -1.759765625 376.291015625 -1.759765625Q378.7314453125 -1.759765625 381.10546875 -4.4658203125Z M396.4619140625 -11.654296875V-2.0419921875H402.4384765625V0.0H389.041015625V-2.0419921875H393.19140625V-15.970703125H388.8916015625V-18.029296875H396.4619140625V-14.5263671875Q397.6904296875 -16.2861328125 398.802734375 -17.166015625Q400.396484375 -18.427734375 402.2392578125 -18.427734375Q404.1982421875 -18.427734375 406.0244140625 -17.298828125V-12.384765625H403.9658203125L403.6337890625 -14.974609375Q402.7041015625 -15.572265625 401.6748046875 -15.572265625Q398.6201171875 -15.572265625 396.4619140625 -11.654296875Z M425.19921875 -1.0126953125Q422.4599609375 0.4150390625 419.62109375 0.4150390625Q416.9482421875 0.4150390625 415.802734375 -0.830078125Q414.6572265625 -2.05859375 414.6572265625 -4.9638671875V-15.3564453125H410.0419921875V-17.6142578125H414.6572265625V-22.279296875H417.927734375V-17.6142578125H425.0V-15.3564453125H417.927734375V-6.44140625Q417.927734375 -3.78515625 418.458984375 -2.921875Q418.990234375 -2.0419921875 420.5673828125 -2.0419921875Q422.3271484375 -2.0419921875 425.19921875 -3.3203125Z M430.51171875 0.0V-2.0419921875L442.1328125 -15.970703125H433.16796875V-12.7001953125H431.1259765625V-18.029296875H446.0009765625V-15.970703125L434.529296875 -2.1748046875H444.556640625V-5.412109375H446.615234375V0.0Z M456.2939453125 0.0V-5.578125H461.8720703125V-1.92578125Q461.8720703125 6.5576171875 456.2939453125 6.5576171875V4.9140625Q458.1533203125 4.71484375 458.5185546875 3.8017578125Q458.8505859375 3.0048828125 458.9501953125 0.0Z M492.3193359375 5.7109375V0.4150390625H494.361328125L494.8759765625 4.0341796875Q496.0048828125 4.9140625 497.31640625 4.9140625Q499.5078125 4.9140625 500.4375 3.3203125Q501.3837890625 1.7265625 501.3837890625 -2.1083984375V-15.970703125H494.0126953125V-18.029296875H504.6708984375V-1.095703125Q504.6708984375 2.72265625 502.794921875 4.84765625Q500.9189453125 6.97265625 497.58203125 6.97265625Q495.2744140625 6.97265625 492.3193359375 5.7109375ZM500.8525390625 -22.11328125V-26.2138671875H504.8701171875V-22.11328125Z M522.2685546875 -18.029296875H527.3984375V-2.0419921875H529.4404296875V0.0H524.111328125V-3.4697265625Q522.9658203125 -1.7265625 521.8369140625 -0.8466796875Q520.2431640625 0.4150390625 518.267578125 0.4150390625Q513.25390625 0.4150390625 513.25390625 -6.0263671875V-15.970703125H511.2119140625V-18.029296875H516.541015625V-6.30859375Q516.541015625 -2.0751953125 519.2470703125 -2.0751953125Q521.720703125 -2.0751953125 524.111328125 -6.341796875V-15.970703125H522.2685546875Z M544.53125 -24.171875H540.447265625V-26.2138671875H547.818359375V-2.0419921875H549.8603515625V0.0H544.53125V-3.685546875Q543.2861328125 -1.8427734375 542.1240234375 -0.9130859375Q540.4306640625 0.4150390625 538.455078125 0.4150390625Q535.7158203125 0.4150390625 534.0224609375 -1.9755859375Q532.3291015625 -4.349609375 532.3291015625 -8.267578125Q532.3291015625 -12.9990234375 534.5703125 -15.705078125Q536.794921875 -18.427734375 540.74609375 -18.427734375Q542.1904296875 -18.427734375 544.53125 -18.029296875ZM544.53125 -15.8876953125Q542.2734375 -16.2529296875 540.9951171875 -16.2529296875Q538.255859375 -16.2529296875 537.02734375 -14.4765625Q535.8154296875 -12.716796875 535.8154296875 -8.3671875Q535.8154296875 -2.0419921875 539.3681640625 -2.0419921875Q542.0908203125 -2.0419921875 544.53125 -5.9267578125Z M568.2216796875 -15.9873046875V-2.5732421875Q568.2216796875 -1.4111328125 568.18017578125 -0.25732421875Q568.138671875 0.896484375 567.90625 1.958984375Q567.673828125 3.021484375 567.1923828125 3.9345703125Q566.7109375 4.84765625 565.83935546875 5.52001953125Q564.9677734375 6.1923828125 563.6396484375 6.58251953125Q562.3115234375 6.97265625 560.3857421875 6.97265625Q558.9580078125 6.97265625 557.27294921875 6.74853515625Q555.587890625 6.5244140625 553.89453125 5.8603515625V1.759765625H555.9365234375L556.3681640625 4.017578125Q556.716796875 4.18359375 557.18994140625 4.349609375Q557.6630859375 4.515625 558.1943359375 4.64013671875Q558.7255859375 4.7646484375 559.2900390625 4.83935546875Q559.8544921875 4.9140625 560.4189453125 4.9140625Q561.53125 4.9140625 562.30322265625 4.65673828125Q563.0751953125 4.3994140625 563.5732421875 3.94287109375Q564.0712890625 3.486328125 564.34521484375 2.85546875Q564.619140625 2.224609375 564.751953125 1.46923828125Q564.884765625 0.7138671875 564.90966796875 -0.1328125Q564.9345703125 -0.9794921875 564.9345703125 -1.8759765625V-5.1796875Q563.6728515625 -3.3037109375 562.52734375 -2.4072265625Q560.8173828125 -1.0791015625 558.8583984375 -1.0791015625Q556.119140625 -1.0791015625 554.42578125 -3.4697265625Q552.732421875 -5.8271484375 552.732421875 -9.09765625Q552.732421875 -11.1396484375 553.28857421875 -12.74169921875Q553.8447265625 -14.34375 554.9736328125 -15.705078125Q557.1982421875 -18.427734375 561.166015625 -18.427734375Q562.2783203125 -18.427734375 563.158203125 -18.3115234375Q564.0380859375 -18.1953125 564.9345703125 -18.029296875H570.197265625V-15.9873046875ZM564.9345703125 -15.5888671875Q563.7890625 -15.771484375 562.9091796875 -15.87109375Q562.029296875 -15.970703125 561.3984375 -15.970703125Q558.6591796875 -15.970703125 557.4306640625 -14.1943359375Q556.81640625 -13.2978515625 556.517578125 -12.119140625Q556.21875 -10.9404296875 556.21875 -9.2802734375Q556.21875 -3.751953125 559.771484375 -3.751953125Q562.494140625 -3.751953125 564.9345703125 -7.63671875Z M589.6376953125 -8.400390625H576.837890625Q577.0703125 -6.1591796875 577.5185546875 -5.1630859375Q579.029296875 -1.759765625 583.3623046875 -1.759765625Q586.03515625 -1.759765625 589.15625 -3.5029296875V-1.029296875Q586.2509765625 0.4150390625 582.9306640625 0.4150390625Q578.630859375 0.4150390625 575.974609375 -2.224609375Q573.3349609375 -4.8642578125 573.3349609375 -9.1474609375Q573.3349609375 -13.314453125 575.7919921875 -15.87109375Q578.232421875 -18.427734375 582.25 -18.427734375Q589.6376953125 -18.427734375 589.6376953125 -9.4130859375ZM576.87109375 -10.4423828125H586.1513671875V-11.2060546875Q586.1513671875 -16.3857421875 582.017578125 -16.3857421875Q579.4609375 -16.3857421875 578.06640625 -14.34375Q577.0869140625 -12.916015625 576.87109375 -10.4423828125Z M613.759765625 0.0V-15.970703125H612.53125V-18.029296875H616.7314453125V-14.4267578125Q617.84375 -16.7509765625 618.5576171875 -17.5146484375Q619.4208984375 -18.427734375 620.6826171875 -18.427734375Q622.3427734375 -18.427734375 623.1064453125 -16.8837890625Q623.5048828125 -16.0537109375 623.6875 -14.4267578125Q624.384765625 -16.3193359375 625.1650390625 -17.1826171875Q626.2607421875 -18.427734375 627.7548828125 -18.427734375Q630.859375 -18.427734375 630.859375 -13.8955078125V-2.0419921875H632.021484375V0.0H627.8876953125V-12.484375Q627.8876953125 -15.970703125 626.80859375 -15.970703125Q626.01171875 -15.970703125 625.0322265625 -14.509765625Q624.517578125 -13.6962890625 624.2353515625 -12.9990234375Q623.8037109375 -11.919921875 623.8037109375 -11.4716796875V-2.0419921875H624.9658203125V0.0H620.83203125V-13.248046875Q620.83203125 -15.970703125 619.736328125 -15.970703125Q618.2919921875 -15.970703125 616.7314453125 -11.4716796875V-2.0419921875H617.8935546875V0.0Z M641.0361328125 0.0 634.64453125 -15.970703125H633.416015625V-18.029296875H640.8369140625V-15.970703125H638.1806640625L643.34375 -3.0546875H643.376953125L648.5400390625 -15.970703125H645.8837890625V-18.029296875H651.9765625V-15.970703125H650.748046875L644.3564453125 0.0L642.5634765625 4.4990234375H645.0205078125V6.5576171875H637.068359375V4.4990234375H640.35546875L642.1484375 0.0Z M681.8427734375 0.0 675.451171875 -15.970703125H674.22265625V-18.029296875H681.6435546875V-15.970703125H678.9873046875L684.150390625 -3.0546875H684.18359375L689.3466796875 -15.970703125H686.6904296875V-18.029296875H692.783203125V-15.970703125H691.5546875L685.1630859375 0.0Z M703.90625 -18.427734375Q707.8076171875 -18.427734375 710.0322265625 -15.9208984375Q712.2734375 -13.4140625 712.2734375 -9.03125Q712.2734375 -4.58203125 710.0322265625 -2.091796875Q707.791015625 0.4150390625 703.7734375 0.4150390625Q700.3701171875 0.4150390625 698.228515625 -1.66015625Q695.5556640625 -4.2333984375 695.5556640625 -9.0146484375Q695.5556640625 -13.4140625 697.796875 -15.9208984375Q700.0380859375 -18.427734375 703.90625 -18.427734375ZM703.90625 -16.3857421875Q699.091796875 -16.3857421875 699.091796875 -9.0478515625Q699.091796875 -1.626953125 703.90625 -1.626953125Q708.7373046875 -1.626953125 708.7373046875 -9.0478515625Q708.7373046875 -16.3857421875 703.90625 -16.3857421875Z M718.1337890625 0.0 715.3115234375 -15.970703125H714.498046875V-18.029296875H719.6611328125V-15.970703125H718.2333984375L720.375 -3.951171875H720.408203125L723.3466796875 -15.3232421875H726.119140625L729.07421875 -3.9013671875H729.107421875L731.265625 -15.970703125H729.638671875V-18.029296875H734.154296875V-15.970703125H733.3408203125L730.5185546875 0.0H727.314453125L724.3427734375 -11.6708984375H724.3095703125L721.2880859375 0.0Z M741.923828125 0.0V-5.578125H747.501953125V0.0Z"/>
  </g>
</svg>
