<svg xmlns="http://www.w3.org/2000/svg" width="669" height="73" viewBox="0 0 669 73" role="img" aria-labelledby="title desc" style="background: transparent;">
  <title id="title">Iosevka Term Slab Regular Sonic preview</title>
  <desc id="desc">Sphinx of black quartz, judge my vow.</desc>
  <style>
    svg { background: transparent; }
    .preview-text { fill: #24292f; }
    @media (prefers-color-scheme: dark) {
      .preview-text { fill: #f0f6fc; }
    }
  </style>
  <g class="preview-text" transform="translate(21.96 45.26)">
    <path d="M10.030000000000001 0.272Q9.486 0.272 8.908000000000001 0.17Q8.33 0.068 7.82 -0.18700000000000003Q7.3100000000000005 -0.44200000000000006 6.868 -0.8330000000000002Q6.426 -1.2240000000000002 6.12 -1.7000000000000002V0.0H2.04V-6.630000000000001H6.12Q6.12 -6.086 6.205 -5.559Q6.29 -5.032 6.562 -4.573Q6.8340000000000005 -4.114 7.327 -3.859Q7.82 -3.604 8.33 -3.604Q8.84 -3.604 9.299 -3.8080000000000003Q9.758000000000001 -4.0120000000000005 10.047 -4.42Q10.336 -4.828 10.455000000000002 -5.321Q10.574000000000002 -5.814 10.574000000000002 -6.29Q10.574000000000002 -7.106000000000001 10.285 -7.871Q9.996 -8.636000000000001 9.452000000000002 -9.231000000000002Q8.908000000000001 -9.826 8.228000000000002 -10.234000000000002Q7.548000000000001 -10.642000000000001 6.851000000000001 -11.05Q6.154000000000001 -11.458 5.525 -11.951Q4.896000000000001 -12.444 4.335000000000001 -13.022000000000002Q3.7740000000000005 -13.600000000000001 3.349 -14.280000000000001Q2.9240000000000004 -14.96 2.6180000000000003 -15.708Q2.3120000000000003 -16.456 2.176 -17.238Q2.04 -18.02 2.04 -18.836000000000002Q2.04 -19.618000000000002 2.159 -20.366Q2.278 -21.114 2.5330000000000004 -21.845Q2.7880000000000003 -22.576 3.213 -23.222Q3.6380000000000003 -23.868000000000002 4.2330000000000005 -24.344Q4.828 -24.82 5.5760000000000005 -25.041Q6.324000000000001 -25.262 7.106000000000001 -25.262Q7.65 -25.262 8.194 -25.160000000000004Q8.738000000000001 -25.058000000000003 9.248000000000001 -24.803000000000004Q9.758000000000001 -24.548000000000002 10.166 -24.174Q10.574000000000002 -23.8 10.88 -23.358V-24.990000000000002H14.96V-18.360000000000003H10.88Q10.88 -18.87 10.795000000000002 -19.397000000000002Q10.71 -19.924000000000003 10.472000000000001 -20.383000000000003Q10.234 -20.842000000000002 9.775 -21.114000000000004Q9.316 -21.386000000000003 8.806000000000001 -21.386000000000003Q8.296000000000001 -21.386000000000003 7.854000000000001 -21.165000000000003Q7.412000000000001 -20.944000000000003 7.157 -20.536Q6.902 -20.128 6.800000000000001 -19.652Q6.698 -19.176000000000002 6.698 -18.700000000000003Q6.698 -17.884 6.987 -17.136000000000003Q7.276000000000001 -16.388 7.803000000000001 -15.776000000000002Q8.33 -15.164000000000001 9.027000000000001 -14.756Q9.724 -14.348 10.404 -13.940000000000001Q11.084000000000001 -13.532000000000002 11.73 -13.039000000000001Q12.376000000000001 -12.546000000000001 12.920000000000002 -11.968Q13.464 -11.39 13.906 -10.71Q14.348 -10.030000000000001 14.637 -9.282Q14.926000000000002 -8.534 15.079 -7.752000000000001Q15.232000000000001 -6.970000000000001 15.232000000000001 -6.154000000000001Q15.232000000000001 -5.372000000000001 15.096 -4.607Q14.96 -3.842 14.705000000000002 -3.111Q14.450000000000001 -2.3800000000000003 14.008000000000001 -1.7340000000000002Q13.566 -1.088 12.954 -0.6120000000000001Q12.342 -0.136 11.577000000000002 0.068Q10.812000000000001 0.272 10.030000000000001 0.272Z M25.5 7.3100000000000005H18.122V3.434H19.04V-13.804H18.122V-17.68H23.698V-14.722000000000001Q23.902 -15.368 24.259 -15.98Q24.616 -16.592000000000002 25.143 -17.051000000000002Q25.67 -17.51 26.333000000000002 -17.731Q26.996000000000002 -17.952 27.676000000000002 -17.952Q28.492 -17.952 29.240000000000002 -17.646Q29.988 -17.34 30.515 -16.779Q31.042 -16.218 31.382 -15.487Q31.722 -14.756 31.909000000000002 -13.991Q32.096000000000004 -13.226 32.164 -12.444Q32.232 -11.662 32.232 -10.88V-6.800000000000001Q32.232 -6.018000000000001 32.164 -5.236000000000001Q32.096000000000004 -4.454000000000001 31.909000000000002 -3.6890000000000005Q31.722 -2.9240000000000004 31.382 -2.1930000000000005Q31.042 -1.4620000000000002 30.515 -0.9010000000000001Q29.988 -0.34 29.240000000000002 -0.034Q28.492 0.272 27.676000000000002 0.272Q26.996000000000002 0.272 26.333000000000002 0.051000000000000004Q25.67 -0.17 25.143 -0.629Q24.616 -1.088 24.259 -1.7000000000000002Q23.902 -2.3120000000000003 23.698 -2.958V3.434H25.5ZM25.636000000000003 -3.604Q26.146 -3.604 26.588 -3.9440000000000004Q27.03 -4.284000000000001 27.234 -4.760000000000001Q27.438000000000002 -5.236000000000001 27.506 -5.763Q27.574 -6.29 27.574 -6.800000000000001V-10.88Q27.574 -11.39 27.506 -11.917000000000002Q27.438000000000002 -12.444 27.234 -12.920000000000002Q27.03 -13.396 26.588 -13.736Q26.146 -14.076 25.636000000000003 -14.076Q25.126 -14.076 24.684 -13.736Q24.242 -13.396 24.038 -12.920000000000002Q23.834 -12.444 23.766 -11.917000000000002Q23.698 -11.39 23.698 -10.88V-6.800000000000001Q23.698 -6.29 23.766 -5.763Q23.834 -5.236000000000001 24.038 -4.760000000000001Q24.242 -4.284000000000001 24.684 -3.9440000000000004Q25.126 -3.604 25.636000000000003 -3.604Z M34.782 0.0V-2.3800000000000003H36.346000000000004V-22.610000000000003H34.782V-24.990000000000002H38.998V-14.484000000000002Q39.236000000000004 -15.198 39.661 -15.861Q40.086 -16.524 40.681 -17.017000000000003Q41.276 -17.51 42.041 -17.731Q42.806 -17.952 43.554 -17.952Q44.370000000000005 -17.952 45.169000000000004 -17.697000000000003Q45.968 -17.442 46.58 -16.898000000000003Q47.192 -16.354000000000003 47.6 -15.623000000000001Q48.008 -14.892000000000001 48.246 -14.110000000000001Q48.484 -13.328000000000001 48.569 -12.512Q48.654 -11.696000000000002 48.654 -10.88V-2.3800000000000003H50.218V0.0H44.438V-2.3800000000000003H46.002V-10.88Q46.002 -11.424000000000001 45.951 -11.985000000000001Q45.9 -12.546000000000001 45.730000000000004 -13.073Q45.56 -13.600000000000001 45.271 -14.076Q44.982 -14.552000000000001 44.557 -14.909000000000002Q44.132000000000005 -15.266000000000002 43.588 -15.419Q43.044 -15.572000000000001 42.5 -15.572000000000001Q41.956 -15.572000000000001 41.412000000000006 -15.419Q40.868 -15.266000000000002 40.443 -14.909000000000002Q40.018 -14.552000000000001 39.729 -14.076Q39.44 -13.600000000000001 39.269999999999996 -13.073Q39.1 -12.546000000000001 39.049 -11.985000000000001Q38.998 -11.424000000000001 38.998 -10.88V-2.3800000000000003H40.562V0.0Z M53.550000000000004 0.0V-2.3800000000000003H58.412000000000006V-15.3H54.02600000000001V-17.68H61.06400000000001V-2.3800000000000003H65.45V0.0ZM59.67000000000001 -20.672Q59.22800000000001 -20.672 58.82000000000001 -20.791Q58.412000000000006 -20.91 58.10600000000001 -21.216Q57.80000000000001 -21.522000000000002 57.68100000000001 -21.93Q57.56200000000001 -22.338 57.56200000000001 -22.78Q57.56200000000001 -23.222 57.68100000000001 -23.630000000000003Q57.80000000000001 -24.038 58.10600000000001 -24.344Q58.412000000000006 -24.650000000000002 58.82000000000001 -24.786Q59.22800000000001 -24.922 59.67000000000001 -24.922Q60.11200000000001 -24.922 60.52000000000001 -24.786Q60.92800000000001 -24.650000000000002 61.23400000000001 -24.344Q61.540000000000006 -24.038 61.67600000000001 -23.630000000000003Q61.81200000000001 -23.222 61.81200000000001 -22.78Q61.81200000000001 -22.338 61.67600000000001 -21.93Q61.540000000000006 -21.522000000000002 61.23400000000001 -21.216Q60.92800000000001 -20.91 60.52000000000001 -20.791Q60.11200000000001 -20.672 59.67000000000001 -20.672Z M68.782 0.0V-2.3800000000000003H70.346V-15.3H68.782V-17.68H72.998V-14.484000000000002Q73.236 -15.198 73.661 -15.861Q74.086 -16.524 74.681 -17.017000000000003Q75.276 -17.51 76.041 -17.731Q76.806 -17.952 77.554 -17.952Q78.37 -17.952 79.16900000000001 -17.697000000000003Q79.968 -17.442 80.58000000000001 -16.898000000000003Q81.19200000000001 -16.354000000000003 81.6 -15.623000000000001Q82.008 -14.892000000000001 82.24600000000001 -14.110000000000001Q82.48400000000001 -13.328000000000001 82.569 -12.512Q82.654 -11.696000000000002 82.654 -10.88V-2.3800000000000003H84.218V0.0H78.438V-2.3800000000000003H80.002V-10.88Q80.002 -11.424000000000001 79.951 -11.985000000000001Q79.9 -12.546000000000001 79.73 -13.073Q79.56 -13.600000000000001 79.271 -14.076Q78.982 -14.552000000000001 78.557 -14.909000000000002Q78.132 -15.266000000000002 77.588 -15.419Q77.044 -15.572000000000001 76.5 -15.572000000000001Q75.956 -15.572000000000001 75.412 -15.419Q74.868 -15.266000000000002 74.443 -14.909000000000002Q74.018 -14.552000000000001 73.729 -14.076Q73.44 -13.600000000000001 73.27 -13.073Q73.1 -12.546000000000001 73.049 -11.985000000000001Q72.998 -11.424000000000001 72.998 -10.88V-2.3800000000000003H74.562V0.0Z M85.782 0.0V-2.3800000000000003H88.366L92.106 -8.84L88.366 -15.3H85.782V-17.68H91.562V-15.3H91.324L93.5 -11.322000000000001L95.676 -15.3H95.438V-17.68H101.218V-15.3H98.634L94.894 -8.84L98.634 -2.3800000000000003H101.218V0.0H95.438V-2.3800000000000003H95.676L93.5 -6.3580000000000005L91.324 -2.3800000000000003H91.562V0.0Z M127.50000000000001 0.272Q126.58200000000002 0.272 125.66400000000002 0.10200000000000001Q124.74600000000001 -0.068 123.93 -0.51Q123.11400000000002 -0.9520000000000001 122.48500000000001 -1.649Q121.85600000000001 -2.346 121.465 -3.196Q121.07400000000001 -4.046 120.92100000000002 -4.964Q120.76800000000001 -5.882000000000001 120.76800000000001 -6.800000000000001V-10.88Q120.76800000000001 -11.798 120.92100000000002 -12.716000000000001Q121.07400000000001 -13.634 121.465 -14.484000000000002Q121.85600000000001 -15.334000000000001 122.48500000000001 -16.031000000000002Q123.11400000000002 -16.728 123.93 -17.17Q124.74600000000001 -17.612000000000002 125.66400000000002 -17.782000000000004Q126.58200000000002 -17.952 127.50000000000001 -17.952Q128.418 -17.952 129.336 -17.782000000000004Q130.25400000000002 -17.612000000000002 131.07000000000002 -17.17Q131.88600000000002 -16.728 132.51500000000001 -16.031000000000002Q133.144 -15.334000000000001 133.53500000000003 -14.484000000000002Q133.92600000000002 -13.634 134.079 -12.716000000000001Q134.23200000000003 -11.798 134.23200000000003 -10.88V-6.800000000000001Q134.23200000000003 -5.882000000000001 134.079 -4.964Q133.92600000000002 -4.046 133.53500000000003 -3.196Q133.144 -2.346 132.51500000000001 -1.649Q131.88600000000002 -0.9520000000000001 131.07000000000002 -0.51Q130.25400000000002 -0.068 129.336 0.10200000000000001Q128.418 0.272 127.50000000000001 0.272ZM127.50000000000001 -3.604Q128.044 -3.604 128.50300000000001 -3.91Q128.96200000000002 -4.216 129.20000000000002 -4.709Q129.43800000000002 -5.202 129.50600000000003 -5.729Q129.574 -6.256 129.574 -6.800000000000001V-10.88Q129.574 -11.424000000000001 129.50600000000003 -11.951Q129.43800000000002 -12.478000000000002 129.20000000000002 -12.971Q128.96200000000002 -13.464 128.50300000000001 -13.77Q128.044 -14.076 127.50000000000001 -14.076Q126.95600000000002 -14.076 126.49700000000001 -13.77Q126.03800000000001 -13.464 125.80000000000001 -12.971Q125.56200000000001 -12.478000000000002 125.49400000000001 -11.951Q125.42600000000002 -11.424000000000001 125.42600000000002 -10.88V-6.800000000000001Q125.42600000000002 -6.256 125.49400000000001 -5.729Q125.56200000000001 -5.202 125.80000000000001 -4.709Q126.03800000000001 -4.216 126.49700000000001 -3.91Q126.95600000000002 -3.604 127.50000000000001 -3.604Z M138.584 0.0V-2.3800000000000003H141.984V-13.668000000000001H138.346V-16.082H141.984V-19.686Q141.984 -20.366000000000003 142.06900000000002 -21.046000000000003Q142.154 -21.726000000000003 142.392 -22.372Q142.63 -23.018 143.038 -23.579Q143.446 -24.14 144.007 -24.531Q144.568 -24.922 145.248 -25.092Q145.928 -25.262 146.608 -25.262Q147.56 -25.262 148.461 -24.956000000000003Q149.362 -24.650000000000002 150.00799999999998 -23.953000000000003Q150.654 -23.256 150.94299999999998 -22.338Q151.232 -21.42 151.232 -20.502000000000002V-20.400000000000002H148.58V-20.434Q148.58 -20.876 148.478 -21.318Q148.376 -21.76 148.121 -22.117Q147.866 -22.474 147.45800000000003 -22.678Q147.05 -22.882 146.608 -22.882Q146.098 -22.882 145.656 -22.559Q145.214 -22.236 144.993 -21.743000000000002Q144.772 -21.25 144.704 -20.740000000000002Q144.636 -20.23 144.636 -19.686V-16.082H150.042V-13.702000000000002H144.636V-2.3800000000000003H149.124V0.0Z M180.676 0.272Q179.996 0.272 179.333 0.051000000000000004Q178.67 -0.17 178.143 -0.629Q177.616 -1.088 177.25900000000001 -1.7000000000000002Q176.902 -2.3120000000000003 176.698 -2.958V0.0H171.122V-3.8760000000000003H172.04V-21.114H171.122V-24.990000000000002H176.698V-14.722000000000001Q176.902 -15.368 177.25900000000001 -15.98Q177.616 -16.592000000000002 178.143 -17.051000000000002Q178.67 -17.51 179.333 -17.731Q179.996 -17.952 180.676 -17.952Q181.492 -17.952 182.24 -17.646Q182.988 -17.34 183.515 -16.779Q184.042 -16.218 184.382 -15.487Q184.722 -14.756 184.909 -13.991Q185.096 -13.226 185.164 -12.444Q185.232 -11.662 185.232 -10.88V-6.800000000000001Q185.232 -6.018000000000001 185.164 -5.236000000000001Q185.096 -4.454000000000001 184.909 -3.6890000000000005Q184.722 -2.9240000000000004 184.382 -2.1930000000000005Q184.042 -1.4620000000000002 183.515 -0.9010000000000001Q182.988 -0.34 182.24 -0.034Q181.492 0.272 180.676 0.272ZM178.636 -3.604Q179.14600000000002 -3.604 179.58800000000002 -3.9440000000000004Q180.03 -4.284000000000001 180.23399999999998 -4.760000000000001Q180.438 -5.236000000000001 180.506 -5.763Q180.574 -6.29 180.574 -6.800000000000001V-10.88Q180.574 -11.39 180.506 -11.917000000000002Q180.438 -12.444 180.23399999999998 -12.920000000000002Q180.03 -13.396 179.58800000000002 -13.736Q179.14600000000002 -14.076 178.636 -14.076Q178.126 -14.076 177.684 -13.736Q177.242 -13.396 177.038 -12.920000000000002Q176.834 -12.444 176.76600000000002 -11.917000000000002Q176.698 -11.39 176.698 -10.88V-6.800000000000001Q176.698 -6.29 176.76600000000002 -5.763Q176.834 -5.236000000000001 177.038 -4.760000000000001Q177.242 -4.284000000000001 177.684 -3.9440000000000004Q178.126 -3.604 178.636 -3.604Z M189.55 0.0V-3.8760000000000003H193.426V-21.114H190.026V-24.990000000000002H198.05V-3.8760000000000003H201.45V0.0Z M211.27600000000004 0.272Q210.25600000000003 0.272 209.25300000000004 -0.017000000000000015Q208.25000000000003 -0.30600000000000005 207.502 -1.0030000000000001Q206.75400000000002 -1.7000000000000002 206.41400000000004 -2.686Q206.07400000000004 -3.672 206.07400000000004 -4.692Q206.07400000000004 -5.5760000000000005 206.27800000000002 -6.409000000000001Q206.48200000000003 -7.242000000000001 206.99200000000002 -7.939000000000001Q207.50200000000004 -8.636000000000001 208.21600000000004 -9.129000000000001Q208.93000000000004 -9.622 209.74600000000004 -9.894Q210.56200000000004 -10.166 211.41200000000003 -10.285Q212.26200000000003 -10.404 213.11200000000002 -10.404H216.00200000000004V-12.07Q216.00200000000004 -12.784 215.79800000000003 -13.464000000000002Q215.59400000000002 -14.144000000000002 215.08400000000003 -14.654000000000002Q214.57400000000004 -15.164000000000001 213.87700000000004 -15.368000000000002Q213.18000000000004 -15.572000000000001 212.46600000000004 -15.572000000000001Q211.82000000000002 -15.572000000000001 211.19100000000003 -15.436Q210.56200000000004 -15.3 210.05200000000002 -14.943000000000001Q209.54200000000003 -14.586 209.23600000000005 -14.008000000000001Q208.93000000000004 -13.430000000000001 208.93000000000004 -12.818000000000001V-12.750000000000002H206.27800000000002V-12.852Q206.27800000000002 -13.634 206.49900000000002 -14.365000000000002Q206.72000000000003 -15.096000000000002 207.14500000000004 -15.708000000000002Q207.57000000000002 -16.32 208.18200000000002 -16.762Q208.79400000000004 -17.204 209.50800000000004 -17.476Q210.22200000000004 -17.748 210.97000000000003 -17.85Q211.71800000000002 -17.952 212.46600000000004 -17.952Q213.28200000000004 -17.952 214.08100000000002 -17.816000000000003Q214.88000000000002 -17.68 215.61100000000005 -17.34Q216.34200000000004 -17.0 216.95400000000004 -16.456Q217.56600000000003 -15.912 217.95700000000005 -15.198Q218.34800000000004 -14.484000000000002 218.50100000000003 -13.668000000000001Q218.65400000000002 -12.852 218.65400000000002 -12.07V-2.3800000000000003H220.21800000000002V0.0H216.00200000000004V-2.9240000000000004Q215.73000000000002 -2.21 215.27100000000002 -1.581Q214.81200000000004 -0.9520000000000001 214.18300000000005 -0.527Q213.55400000000003 -0.10200000000000001 212.80600000000004 0.085Q212.05800000000002 0.272 211.27600000000004 0.272ZM212.33000000000004 -2.108Q213.11200000000002 -2.108 213.86 -2.38Q214.60800000000003 -2.652 215.11800000000005 -3.2300000000000004Q215.62800000000004 -3.8080000000000003 215.81500000000005 -4.573Q216.00200000000004 -5.338 216.00200000000004 -6.12V-8.024000000000001H213.11200000000002Q212.60200000000003 -8.024000000000001 212.10900000000004 -7.973000000000001Q211.61600000000004 -7.922000000000001 211.12300000000005 -7.7860000000000005Q210.63000000000002 -7.65 210.18800000000005 -7.412000000000001Q209.74600000000004 -7.174 209.38900000000004 -6.800000000000001Q209.03200000000004 -6.426 208.87900000000002 -5.95Q208.72600000000003 -5.474 208.72600000000003 -4.964Q208.72600000000003 -4.3180000000000005 209.01500000000004 -3.7060000000000004Q209.30400000000003 -3.0940000000000003 209.848 -2.737Q210.39200000000002 -2.3800000000000003 211.038 -2.244Q211.68400000000003 -2.108 212.33000000000004 -2.108Z M229.39800000000002 0.272Q228.51400000000004 0.272 227.61300000000003 0.085Q226.71200000000002 -0.10200000000000001 225.947 -0.5780000000000001Q225.18200000000002 -1.054 224.60400000000004 -1.7510000000000003Q224.02600000000004 -2.4480000000000004 223.68600000000004 -3.281Q223.34600000000003 -4.114 223.21000000000004 -5.015000000000001Q223.07400000000004 -5.916 223.07400000000004 -6.800000000000001V-10.88Q223.07400000000004 -11.73 223.17600000000004 -12.580000000000002Q223.27800000000002 -13.430000000000001 223.55 -14.229000000000001Q223.82200000000003 -15.028 224.28100000000003 -15.742Q224.74000000000004 -16.456 225.42000000000002 -16.983Q226.10000000000002 -17.51 226.93300000000002 -17.731Q227.76600000000002 -17.952 228.61600000000004 -17.952Q229.33000000000004 -17.952 230.02700000000004 -17.816000000000003Q230.72400000000002 -17.68 231.353 -17.34Q231.98200000000003 -17.0 232.47500000000002 -16.490000000000002Q232.96800000000002 -15.98 233.30800000000002 -15.334000000000001V-17.68H235.65400000000002V-11.56H233.30800000000002Q233.30800000000002 -12.342 233.10400000000004 -13.124Q232.90000000000003 -13.906 232.35600000000005 -14.484000000000002Q231.81200000000004 -15.062000000000001 231.06400000000002 -15.317Q230.31600000000003 -15.572000000000001 229.53400000000002 -15.572000000000001Q228.95600000000002 -15.572000000000001 228.39500000000004 -15.436Q227.83400000000003 -15.3 227.35800000000003 -14.96Q226.88200000000003 -14.620000000000001 226.55900000000003 -14.144000000000002Q226.23600000000002 -13.668000000000001 226.04900000000004 -13.124Q225.86200000000002 -12.58 225.79400000000004 -12.019Q225.72600000000003 -11.458 225.72600000000003 -10.88V-6.800000000000001Q225.72600000000003 -6.222 225.79400000000004 -5.6610000000000005Q225.86200000000002 -5.1000000000000005 226.03200000000004 -4.573Q226.20200000000003 -4.046 226.52500000000003 -3.5700000000000003Q226.84800000000004 -3.0940000000000003 227.29000000000002 -2.7540000000000004Q227.73200000000003 -2.414 228.29300000000003 -2.261Q228.85400000000004 -2.108 229.39800000000002 -2.108Q230.14600000000002 -2.108 230.877 -2.38Q231.60800000000003 -2.652 232.11800000000005 -3.213Q232.62800000000004 -3.7740000000000005 232.84900000000005 -4.522Q233.07000000000002 -5.2700000000000005 233.07000000000002 -6.018000000000001V-6.12H235.72200000000004V-5.95Q235.72200000000004 -5.1000000000000005 235.53500000000003 -4.284000000000001Q235.34800000000004 -3.4680000000000004 234.95700000000005 -2.72Q234.56600000000003 -1.9720000000000002 233.97100000000003 -1.3770000000000002Q233.37600000000003 -0.782 232.62800000000004 -0.40800000000000003Q231.88000000000002 -0.034 231.06400000000002 0.11900000000000001Q230.24800000000002 0.272 229.39800000000002 0.272Z M239.29200000000003 0.0V-2.3800000000000003H240.89000000000001V-22.610000000000003H239.29200000000003V-24.990000000000002H243.50800000000004V-9.044L250.24000000000004 -17.68H254.21800000000002V-15.3H251.53200000000004L246.94200000000004 -9.622L251.83800000000002 -2.3800000000000003H254.21800000000002V0.0H250.37600000000003L245.37800000000004 -7.684L243.50800000000004 -5.372000000000001V-2.3800000000000003H245.07200000000003V0.0Z M280.5 7.3100000000000005V3.434H282.302V-2.958Q282.098 -2.3120000000000003 281.741 -1.7000000000000002Q281.384 -1.088 280.85699999999997 -0.629Q280.33 -0.17 279.66700000000003 0.051000000000000004Q279.004 0.272 278.324 0.272Q277.508 0.272 276.76 -0.034Q276.012 -0.34 275.485 -0.9010000000000001Q274.958 -1.4620000000000002 274.61800000000005 -2.1930000000000005Q274.278 -2.9240000000000004 274.091 -3.6890000000000005Q273.904 -4.454000000000001 273.836 -5.236000000000001Q273.768 -6.018000000000001 273.768 -6.800000000000001V-10.88Q273.768 -11.662 273.836 -12.444Q273.904 -13.226 274.091 -13.991Q274.278 -14.756 274.61800000000005 -15.487Q274.958 -16.218 275.485 -16.779Q276.012 -17.34 276.76 -17.646Q277.508 -17.952 278.324 -17.952Q279.004 -17.952 279.66700000000003 -17.731Q280.33 -17.51 280.85699999999997 -17.051000000000002Q281.384 -16.592000000000002 281.741 -15.98Q282.098 -15.368 282.302 -14.722000000000001V-17.68H287.878V-13.804H286.96V3.434H287.878V7.3100000000000005ZM280.364 -3.604Q280.874 -3.604 281.31600000000003 -3.9440000000000004Q281.758 -4.284000000000001 281.962 -4.760000000000001Q282.166 -5.236000000000001 282.23400000000004 -5.763Q282.302 -6.29 282.302 -6.800000000000001V-10.88Q282.302 -11.39 282.23400000000004 -11.917000000000002Q282.166 -12.444 281.962 -12.920000000000002Q281.758 -13.396 281.31600000000003 -13.736Q280.874 -14.076 280.364 -14.076Q279.854 -14.076 279.41200000000003 -13.736Q278.97 -13.396 278.766 -12.920000000000002Q278.562 -12.444 278.494 -11.917000000000002Q278.426 -11.39 278.426 -10.88V-6.800000000000001Q278.426 -6.29 278.494 -5.763Q278.562 -5.236000000000001 278.766 -4.760000000000001Q278.97 -4.284000000000001 279.41200000000003 -3.9440000000000004Q279.854 -3.604 280.364 -3.604Z M295.46 0.272Q294.678 0.272 293.93 -0.034Q293.182 -0.34 292.672 -0.935Q292.162 -1.53 291.839 -2.244Q291.516 -2.958 291.346 -3.7060000000000004Q291.176 -4.454000000000001 291.108 -5.236000000000001Q291.04 -6.018000000000001 291.04 -6.800000000000001V-13.804H290.122V-17.68H295.698V-6.800000000000001Q295.698 -6.29 295.749 -5.78Q295.8 -5.2700000000000005 295.98699999999997 -4.7940000000000005Q296.174 -4.3180000000000005 296.582 -3.9610000000000003Q296.99 -3.604 297.5 -3.604Q298.01 -3.604 298.418 -3.9610000000000003Q298.826 -4.3180000000000005 299.01300000000003 -4.7940000000000005Q299.2 -5.2700000000000005 299.251 -5.78Q299.302 -6.29 299.302 -6.800000000000001V-13.804H298.418V-17.68H303.96V-3.8760000000000003H304.878V0.0H299.302V-2.9240000000000004Q299.098 -2.278 298.75800000000004 -1.683Q298.418 -1.088 297.925 -0.629Q297.432 -0.17 296.769 0.051000000000000004Q296.106 0.272 295.46 0.272Z M313.276 0.272Q312.256 0.272 311.253 -0.017000000000000015Q310.25 -0.30600000000000005 309.502 -1.0030000000000001Q308.754 -1.7000000000000002 308.414 -2.686Q308.074 -3.672 308.074 -4.692Q308.074 -5.5760000000000005 308.278 -6.409000000000001Q308.482 -7.242000000000001 308.992 -7.939000000000001Q309.502 -8.636000000000001 310.216 -9.129000000000001Q310.93 -9.622 311.746 -9.894Q312.562 -10.166 313.41200000000003 -10.285Q314.262 -10.404 315.112 -10.404H318.002V-12.07Q318.002 -12.784 317.798 -13.464000000000002Q317.594 -14.144000000000002 317.084 -14.654000000000002Q316.574 -15.164000000000001 315.877 -15.368000000000002Q315.18 -15.572000000000001 314.466 -15.572000000000001Q313.82 -15.572000000000001 313.19100000000003 -15.436Q312.562 -15.3 312.052 -14.943000000000001Q311.542 -14.586 311.236 -14.008000000000001Q310.93 -13.430000000000001 310.93 -12.818000000000001V-12.750000000000002H308.278V-12.852Q308.278 -13.634 308.499 -14.365000000000002Q308.72 -15.096000000000002 309.145 -15.708000000000002Q309.57 -16.32 310.182 -16.762Q310.794 -17.204 311.508 -17.476Q312.222 -17.748 312.97 -17.85Q313.718 -17.952 314.466 -17.952Q315.282 -17.952 316.081 -17.816000000000003Q316.88 -17.68 317.611 -17.34Q318.342 -17.0 318.95399999999995 -16.456Q319.566 -15.912 319.957 -15.198Q320.348 -14.484000000000002 320.501 -13.668000000000001Q320.654 -12.852 320.654 -12.07V-2.3800000000000003H322.218V0.0H318.002V-2.9240000000000004Q317.73 -2.21 317.271 -1.581Q316.812 -0.9520000000000001 316.183 -0.527Q315.554 -0.10200000000000001 314.806 0.085Q314.058 0.272 313.276 0.272ZM314.33 -2.108Q315.112 -2.108 315.86 -2.38Q316.608 -2.652 317.118 -3.2300000000000004Q317.628 -3.8080000000000003 317.815 -4.573Q318.002 -5.338 318.002 -6.12V-8.024000000000001H315.112Q314.602 -8.024000000000001 314.109 -7.973000000000001Q313.616 -7.922000000000001 313.123 -7.7860000000000005Q312.63 -7.65 312.188 -7.412000000000001Q311.746 -7.174 311.389 -6.800000000000001Q311.032 -6.426 310.879 -5.95Q310.726 -5.474 310.726 -4.964Q310.726 -4.3180000000000005 311.015 -3.7060000000000004Q311.304 -3.0940000000000003 311.84799999999996 -2.737Q312.392 -2.3800000000000003 313.038 -2.244Q313.684 -2.108 314.33 -2.108Z M325.21 0.0V-2.3800000000000003H328.066V-15.3H325.21V-17.68H330.718V-13.838000000000001Q330.922 -14.620000000000001 331.279 -15.351Q331.636 -16.082 332.163 -16.694000000000003Q332.69 -17.306 333.45500000000004 -17.629Q334.22 -17.952 335.002 -17.952Q335.546 -17.952 336.073 -17.799Q336.6 -17.646 337.00800000000004 -17.306Q337.416 -16.966 337.671 -16.490000000000002Q337.926 -16.014000000000003 338.079 -15.504000000000001Q338.232 -14.994000000000002 338.283 -14.467000000000002Q338.334 -13.940000000000001 338.334 -13.396H335.682Q335.682 -13.804 335.61400000000003 -14.195Q335.546 -14.586 335.342 -14.909Q335.138 -15.232000000000001 334.78099999999995 -15.402000000000001Q334.424 -15.572000000000001 334.016 -15.572000000000001Q333.37 -15.572000000000001 332.79200000000003 -15.249000000000002Q332.214 -14.926000000000002 331.84000000000003 -14.382000000000001Q331.466 -13.838000000000001 331.245 -13.226Q331.024 -12.614 330.905 -11.968Q330.786 -11.322000000000001 330.752 -10.676000000000002Q330.718 -10.030000000000001 330.718 -9.384V-2.3800000000000003H334.152V0.0Z M350.642 0.272Q349.86 0.272 349.129 0.085Q348.398 -0.10200000000000001 347.786 -0.544Q347.174 -0.9860000000000001 346.749 -1.6320000000000001Q346.324 -2.278 346.069 -2.975Q345.814 -3.672 345.72900000000004 -4.42Q345.644 -5.168 345.644 -5.95V-15.3H342.38V-17.68H345.644V-24.990000000000002H348.296V-17.68H354.28V-15.3H348.296V-5.95Q348.296 -5.508 348.33 -5.1Q348.364 -4.692 348.44899999999996 -4.284000000000001Q348.534 -3.8760000000000003 348.704 -3.4850000000000003Q348.874 -3.0940000000000003 349.146 -2.7710000000000004Q349.418 -2.4480000000000004 349.80899999999997 -2.2780000000000005Q350.2 -2.108 350.642 -2.108Q351.05 -2.108 351.44100000000003 -2.2780000000000005Q351.832 -2.4480000000000004 352.087 -2.7710000000000004Q352.342 -3.0940000000000003 352.512 -3.4850000000000003Q352.682 -3.8760000000000003 352.784 -4.284000000000001Q352.886 -4.692 352.92 -5.1Q352.954 -5.508 352.954 -5.916V-6.12H355.606V-5.814Q355.606 -5.066000000000001 355.48699999999997 -4.335000000000001Q355.368 -3.604 355.113 -2.907Q354.858 -2.21 354.433 -1.598Q354.008 -0.9860000000000001 353.413 -0.544Q352.818 -0.10200000000000001 352.087 0.085Q351.356 0.272 350.642 0.272Z M359.346 0.0V-2.3800000000000003L368.798 -15.3H361.692V-12.750000000000002H359.346V-17.68H371.654V-15.3L362.202 -2.3800000000000003H369.308V-4.930000000000001H371.654V0.0Z M381.31 7.3100000000000005 379.304 5.78Q380.392 4.556 381.293 3.196Q382.194 1.836 382.636 0.272H382.466Q381.956 0.272 381.429 0.10200000000000001Q380.902 -0.068 380.528 -0.44200000000000006Q380.154 -0.8160000000000001 380.001 -1.326Q379.848 -1.836 379.848 -2.3800000000000003Q379.848 -2.9240000000000004 380.001 -3.434Q380.154 -3.9440000000000004 380.54499999999996 -4.335Q380.936 -4.726 381.446 -4.879Q381.956 -5.032 382.5 -5.032Q383.044 -5.032 383.58799999999997 -4.862Q384.132 -4.692 384.506 -4.301Q384.88 -3.91 385.01599999999996 -3.366Q385.152 -2.822 385.152 -2.278Q385.152 -0.9520000000000001 384.846 0.34Q384.54 1.6320000000000001 384.03 2.8390000000000004Q383.52 4.046 382.823 5.168Q382.126 6.29 381.31 7.3100000000000005Z M414.2900000000001 7.582000000000001Q413.5760000000001 7.582000000000001 412.845 7.463000000000001Q412.11400000000003 7.344 411.4680000000001 7.021000000000001Q410.82200000000006 6.698 410.278 6.171Q409.73400000000004 5.644 409.37700000000007 5.015000000000001Q409.02000000000004 4.386 408.85 3.6550000000000002Q408.68000000000006 2.9240000000000004 408.68000000000006 2.21H411.33200000000005Q411.33200000000005 2.822 411.53600000000006 3.383Q411.74000000000007 3.9440000000000004 412.148 4.386Q412.55600000000004 4.828 413.134 5.015000000000001Q413.71200000000005 5.202 414.2900000000001 5.202Q414.80000000000007 5.202 415.29300000000006 5.015000000000001Q415.78600000000006 4.828 416.14300000000003 4.471Q416.50000000000006 4.114 416.73800000000006 3.6550000000000002Q416.97600000000006 3.196 417.1120000000001 2.7030000000000003Q417.24800000000005 2.21 417.28200000000004 1.7000000000000002Q417.31600000000003 1.1900000000000002 417.31600000000003 0.68V-15.3H412.69200000000006V-17.68H419.9680000000001V0.68Q419.9680000000001 1.53 419.8660000000001 2.363Q419.76400000000007 3.196 419.475 3.995Q419.18600000000004 4.7940000000000005 418.69300000000004 5.4910000000000005Q418.20000000000005 6.188000000000001 417.50300000000004 6.681000000000001Q416.80600000000004 7.174 415.97300000000007 7.378Q415.14000000000004 7.582000000000001 414.2900000000001 7.582000000000001ZM418.37000000000006 -20.672Q417.92800000000005 -20.672 417.5200000000001 -20.791Q417.1120000000001 -20.91 416.80600000000004 -21.216Q416.50000000000006 -21.522000000000002 416.3810000000001 -21.93Q416.26200000000006 -22.338 416.26200000000006 -22.78Q416.26200000000006 -23.222 416.3810000000001 -23.630000000000003Q416.50000000000006 -24.038 416.80600000000004 -24.344Q417.1120000000001 -24.650000000000002 417.5200000000001 -24.786Q417.92800000000005 -24.922 418.37000000000006 -24.922Q418.81200000000007 -24.922 419.22 -24.786Q419.62800000000004 -24.650000000000002 419.9340000000001 -24.344Q420.24000000000007 -24.038 420.3760000000001 -23.630000000000003Q420.51200000000006 -23.222 420.51200000000006 -22.78Q420.51200000000006 -22.338 420.3760000000001 -21.93Q420.24000000000007 -21.522000000000002 419.9340000000001 -21.216Q419.62800000000004 -20.91 419.22 -20.791Q418.81200000000007 -20.672 418.37000000000006 -20.672Z M431.46000000000004 0.272Q430.67800000000005 0.272 429.93000000000006 -0.034Q429.1820000000001 -0.34 428.672 -0.935Q428.16200000000003 -1.53 427.83900000000006 -2.244Q427.5160000000001 -2.958 427.34600000000006 -3.7060000000000004Q427.17600000000004 -4.454000000000001 427.10800000000006 -5.236000000000001Q427.0400000000001 -6.018000000000001 427.0400000000001 -6.800000000000001V-13.804H426.12200000000007V-17.68H431.69800000000004V-6.800000000000001Q431.69800000000004 -6.29 431.749 -5.78Q431.80000000000007 -5.2700000000000005 431.9870000000001 -4.7940000000000005Q432.17400000000004 -4.3180000000000005 432.58200000000005 -3.9610000000000003Q432.99000000000007 -3.604 433.50000000000006 -3.604Q434.01000000000005 -3.604 434.41800000000006 -3.9610000000000003Q434.8260000000001 -4.3180000000000005 435.01300000000003 -4.7940000000000005Q435.20000000000005 -5.2700000000000005 435.2510000000001 -5.78Q435.3020000000001 -6.29 435.3020000000001 -6.800000000000001V-13.804H434.41800000000006V-17.68H439.96000000000004V-3.8760000000000003H440.87800000000004V0.0H435.3020000000001V-2.9240000000000004Q435.09800000000007 -2.278 434.75800000000004 -1.683Q434.41800000000006 -1.088 433.92500000000007 -0.629Q433.4320000000001 -0.17 432.76900000000006 0.051000000000000004Q432.10600000000005 0.272 431.46000000000004 0.272Z M449.31000000000006 0.272Q448.46000000000004 0.272 447.66100000000006 0.034Q446.8620000000001 -0.20400000000000001 446.23300000000006 -0.748Q445.60400000000004 -1.292 445.1790000000001 -2.0060000000000002Q444.7540000000001 -2.72 444.4990000000001 -3.519Q444.2440000000001 -4.3180000000000005 444.1590000000001 -5.151Q444.07400000000007 -5.984 444.07400000000007 -6.800000000000001V-10.88Q444.07400000000007 -11.696000000000002 444.1590000000001 -12.529Q444.2440000000001 -13.362 444.4990000000001 -14.161000000000001Q444.7540000000001 -14.96 445.1790000000001 -15.674000000000001Q445.60400000000004 -16.388 446.23300000000006 -16.932000000000002Q446.8620000000001 -17.476000000000003 447.66100000000006 -17.714000000000002Q448.46000000000004 -17.952 449.31000000000006 -17.952Q450.09200000000004 -17.952 450.874 -17.731Q451.65600000000006 -17.51 452.26800000000003 -17.017000000000003Q452.88000000000005 -16.524 453.32200000000006 -15.844000000000001Q453.76400000000007 -15.164000000000001 454.00200000000007 -14.416V-22.610000000000003H452.43800000000005V-24.990000000000002H456.65400000000005V-2.3800000000000003H458.2180000000001V0.0H454.00200000000007V-3.2640000000000002Q453.76400000000007 -2.516 453.32200000000006 -1.836Q452.88000000000005 -1.1560000000000001 452.26800000000003 -0.663Q451.65600000000006 -0.17 450.874 0.051000000000000004Q450.09200000000004 0.272 449.31000000000006 0.272ZM450.36400000000003 -2.108Q450.9080000000001 -2.108 451.46900000000005 -2.261Q452.0300000000001 -2.414 452.4720000000001 -2.7540000000000004Q452.91400000000004 -3.0940000000000003 453.22 -3.5700000000000003Q453.52600000000007 -4.046 453.7130000000001 -4.59Q453.90000000000003 -5.134 453.951 -5.678000000000001Q454.00200000000007 -6.222 454.00200000000007 -6.800000000000001V-10.88Q454.00200000000007 -11.458 453.951 -12.002Q453.90000000000003 -12.546000000000001 453.7130000000001 -13.09Q453.52600000000007 -13.634 453.22 -14.11Q452.91400000000004 -14.586 452.4720000000001 -14.926000000000002Q452.0300000000001 -15.266000000000002 451.4860000000001 -15.419Q450.94200000000006 -15.572000000000001 450.36400000000003 -15.572000000000001Q449.78600000000006 -15.572000000000001 449.2420000000001 -15.419Q448.69800000000004 -15.266000000000002 448.2560000000001 -14.926000000000002Q447.8140000000001 -14.586 447.50800000000004 -14.11Q447.20200000000006 -13.634 447.01500000000004 -13.09Q446.82800000000003 -12.546000000000001 446.77700000000004 -12.002Q446.72600000000006 -11.458 446.72600000000006 -10.88V-6.800000000000001Q446.72600000000006 -6.222 446.77700000000004 -5.678000000000001Q446.82800000000003 -5.134 447.01500000000004 -4.59Q447.20200000000006 -4.046 447.50800000000004 -3.5700000000000003Q447.8140000000001 -3.0940000000000003 448.2560000000001 -2.7540000000000004Q448.69800000000004 -2.414 449.2420000000001 -2.261Q449.78600000000006 -2.108 450.36400000000003 -2.108Z M467.4320000000001 7.582000000000001Q466.6840000000001 7.582000000000001 465.9530000000001 7.48Q465.22200000000004 7.378 464.54200000000003 7.140000000000001Q463.8620000000001 6.902 463.25000000000006 6.460000000000001Q462.63800000000003 6.018000000000001 462.2130000000001 5.44Q461.78800000000007 4.862 461.55000000000007 4.165Q461.31200000000007 3.4680000000000004 461.2780000000001 2.72H463.93000000000006Q463.93000000000006 3.3320000000000003 464.2700000000001 3.8420000000000005Q464.61000000000007 4.352 465.12000000000006 4.675000000000001Q465.63000000000005 4.998 466.225 5.1Q466.82000000000005 5.202 467.4320000000001 5.202Q467.97600000000006 5.202 468.5200000000001 5.049Q469.0640000000001 4.896000000000001 469.5060000000001 4.556000000000001Q469.94800000000004 4.216 470.2370000000001 3.7230000000000003Q470.52600000000007 3.2300000000000004 470.7130000000001 2.7030000000000003Q470.90000000000003 2.176 470.951 1.6150000000000002Q471.00200000000007 1.054 471.00200000000007 0.51V-3.2640000000000002Q470.76400000000007 -2.516 470.32200000000006 -1.836Q469.88000000000005 -1.1560000000000001 469.26800000000003 -0.663Q468.65600000000006 -0.17 467.874 0.051000000000000004Q467.09200000000004 0.272 466.31000000000006 0.272Q465.46000000000004 0.272 464.66100000000006 0.034Q463.8620000000001 -0.20400000000000001 463.23300000000006 -0.748Q462.60400000000004 -1.292 462.1790000000001 -2.0060000000000002Q461.7540000000001 -2.72 461.4990000000001 -3.519Q461.2440000000001 -4.3180000000000005 461.1590000000001 -5.151Q461.07400000000007 -5.984 461.07400000000007 -6.800000000000001V-10.88Q461.07400000000007 -11.696000000000002 461.1590000000001 -12.529Q461.2440000000001 -13.362 461.4990000000001 -14.161000000000001Q461.7540000000001 -14.96 462.1790000000001 -15.674000000000001Q462.60400000000004 -16.388 463.23300000000006 -16.932000000000002Q463.8620000000001 -17.476000000000003 464.66100000000006 -17.714000000000002Q465.46000000000004 -17.952 466.31000000000006 -17.952Q467.09200000000004 -17.952 467.874 -17.731Q468.65600000000006 -17.51 469.26800000000003 -17.017000000000003Q469.88000000000005 -16.524 470.32200000000006 -15.844000000000001Q470.76400000000007 -15.164000000000001 471.00200000000007 -14.416V-17.68H475.2180000000001V-15.3H473.65400000000005V0.51Q473.65400000000005 1.3940000000000001 473.5350000000001 2.295Q473.41600000000005 3.196 473.076 4.0120000000000005Q472.73600000000005 4.828 472.158 5.542Q471.58000000000004 6.256 470.83200000000005 6.732Q470.08400000000006 7.208 469.20000000000005 7.3950000000000005Q468.31600000000003 7.582000000000001 467.4320000000001 7.582000000000001ZM467.36400000000003 -2.108Q467.94200000000006 -2.108 468.4860000000001 -2.261Q469.0300000000001 -2.414 469.4720000000001 -2.7540000000000004Q469.91400000000004 -3.0940000000000003 470.22 -3.5700000000000003Q470.52600000000007 -4.046 470.7130000000001 -4.59Q470.90000000000003 -5.134 470.951 -5.678000000000001Q471.00200000000007 -6.222 471.00200000000007 -6.800000000000001V-10.88Q471.00200000000007 -11.458 470.951 -12.002Q470.90000000000003 -12.546000000000001 470.7130000000001 -13.09Q470.52600000000007 -13.634 470.22 -14.11Q469.91400000000004 -14.586 469.4720000000001 -14.926000000000002Q469.0300000000001 -15.266000000000002 468.4860000000001 -15.419Q467.94200000000006 -15.572000000000001 467.36400000000003 -15.572000000000001Q466.78600000000006 -15.572000000000001 466.2420000000001 -15.419Q465.69800000000004 -15.266000000000002 465.2560000000001 -14.926000000000002Q464.8140000000001 -14.586 464.50800000000004 -14.11Q464.20200000000006 -13.634 464.01500000000004 -13.09Q463.82800000000003 -12.546000000000001 463.77700000000004 -12.002Q463.72600000000006 -11.458 463.72600000000006 -10.88V-6.800000000000001Q463.72600000000006 -6.222 463.77700000000004 -5.678000000000001Q463.82800000000003 -5.134 464.01500000000004 -4.59Q464.20200000000006 -4.046 464.50800000000004 -3.5700000000000003Q464.8140000000001 -3.0940000000000003 465.2560000000001 -2.7540000000000004Q465.69800000000004 -2.414 466.2420000000001 -2.261Q466.78600000000006 -2.108 467.36400000000003 -2.108Z M484.50000000000006 0.272Q483.58200000000005 0.272 482.6980000000001 0.085Q481.8140000000001 -0.10200000000000001 481.03200000000004 -0.561Q480.25000000000006 -1.02 479.6550000000001 -1.717Q479.06000000000006 -2.414 478.7030000000001 -3.247Q478.34600000000006 -4.08 478.21000000000004 -4.981Q478.07400000000007 -5.882000000000001 478.07400000000007 -6.800000000000001V-10.88Q478.07400000000007 -11.798 478.21000000000004 -12.699000000000002Q478.34600000000006 -13.600000000000001 478.7030000000001 -14.433000000000002Q479.06000000000006 -15.266000000000002 479.6550000000001 -15.963000000000001Q480.25000000000006 -16.66 481.03200000000004 -17.119Q481.8140000000001 -17.578000000000003 482.6980000000001 -17.765Q483.58200000000005 -17.952 484.50000000000006 -17.952Q485.41800000000006 -17.952 486.302 -17.765Q487.18600000000004 -17.578000000000003 487.9680000000001 -17.119Q488.75000000000006 -16.66 489.345 -15.963000000000001Q489.94000000000005 -15.266000000000002 490.297 -14.433000000000002Q490.65400000000005 -13.600000000000001 490.7900000000001 -12.699000000000002Q490.92600000000004 -11.798 490.92600000000004 -10.88V-7.65H480.72600000000006V-6.800000000000001Q480.72600000000006 -6.222 480.7940000000001 -5.6610000000000005Q480.8620000000001 -5.1000000000000005 481.0490000000001 -4.556000000000001Q481.23600000000005 -4.0120000000000005 481.5590000000001 -3.5360000000000005Q481.88200000000006 -3.06 482.34100000000007 -2.72Q482.80000000000007 -2.3800000000000003 483.3610000000001 -2.244Q483.9220000000001 -2.108 484.50000000000006 -2.108Q485.1460000000001 -2.108 485.79200000000003 -2.244Q486.43800000000005 -2.3800000000000003 486.999 -2.737Q487.56000000000006 -3.0940000000000003 487.88300000000004 -3.6890000000000005Q488.2060000000001 -4.284000000000001 488.2060000000001 -4.930000000000001H490.85800000000006Q490.85800000000006 -4.148000000000001 490.62000000000006 -3.4170000000000007Q490.38200000000006 -2.6860000000000004 489.94000000000005 -2.04Q489.49800000000005 -1.3940000000000001 488.869 -0.935Q488.24000000000007 -0.47600000000000003 487.52600000000007 -0.20400000000000001Q486.81200000000007 0.068 486.047 0.17Q485.28200000000004 0.272 484.50000000000006 0.272ZM488.27400000000006 -10.030000000000001V-10.88Q488.27400000000006 -11.458 488.206 -12.019Q488.13800000000003 -12.58 487.951 -13.124Q487.76400000000007 -13.668000000000001 487.44100000000003 -14.144000000000002Q487.11800000000005 -14.620000000000001 486.65900000000005 -14.96Q486.20000000000005 -15.3 485.639 -15.436Q485.07800000000003 -15.572000000000001 484.50000000000006 -15.572000000000001Q483.9220000000001 -15.572000000000001 483.3610000000001 -15.436Q482.80000000000007 -15.3 482.34100000000007 -14.96Q481.88200000000006 -14.620000000000001 481.5590000000001 -14.144000000000002Q481.23600000000005 -13.668000000000001 481.0490000000001 -13.124Q480.8620000000001 -12.58 480.7940000000001 -12.019Q480.72600000000006 -11.458 480.72600000000006 -10.88V-10.030000000000001Z M510.23800000000006 0.0V-3.1620000000000004H511.25800000000004V-14.518H510.23800000000006V-17.68H515.032V-15.708000000000002Q515.168 -16.150000000000002 515.3720000000001 -16.541000000000004Q515.576 -16.932000000000002 515.8820000000001 -17.272000000000002Q516.1880000000001 -17.612000000000002 516.613 -17.782000000000004Q517.038 -17.952 517.48 -17.952H517.514Q518.0580000000001 -17.952 518.5510000000002 -17.697000000000003Q519.0440000000001 -17.442 519.3670000000001 -17.0Q519.69 -16.558 519.894 -16.031Q520.0980000000001 -15.504000000000001 520.2 -14.994000000000002Q520.302 -15.504000000000001 520.489 -16.031Q520.676 -16.558 520.999 -16.983Q521.322 -17.408 521.815 -17.68Q522.3080000000001 -17.952 522.8520000000001 -17.952Q523.3960000000001 -17.952 523.8890000000001 -17.697000000000003Q524.3820000000001 -17.442 524.722 -17.0Q525.062 -16.558 525.249 -16.048000000000002Q525.436 -15.538 525.5550000000001 -14.994Q525.6740000000001 -14.450000000000001 525.7080000000001 -13.906Q525.7420000000001 -13.362 525.7420000000001 -12.818000000000001V-3.1620000000000004H526.7620000000001V0.0H521.9680000000001V-12.818000000000001Q521.9680000000001 -13.124 521.951 -13.413Q521.9340000000001 -13.702000000000002 521.866 -13.974Q521.798 -14.246 521.628 -14.518Q521.4580000000001 -14.790000000000001 521.186 -14.790000000000001Q520.8800000000001 -14.790000000000001 520.7270000000001 -14.518Q520.5740000000001 -14.246 520.5060000000001 -13.974Q520.4380000000001 -13.702000000000002 520.421 -13.413Q520.4040000000001 -13.124 520.4040000000001 -12.818000000000001V0.0H516.596V-12.818000000000001Q516.596 -13.124 516.579 -13.413Q516.562 -13.702000000000002 516.494 -13.974Q516.426 -14.246 516.273 -14.518Q516.12 -14.790000000000001 515.8140000000001 -14.790000000000001Q515.542 -14.790000000000001 515.3720000000001 -14.518Q515.2020000000001 -14.246 515.134 -13.974Q515.066 -13.702000000000002 515.049 -13.413Q515.032 -13.124 515.032 -12.818000000000001V0.0Z M529.584 7.3100000000000005V4.930000000000001H531.386Q531.726 4.930000000000001 532.1 4.845000000000001Q532.474 4.760000000000001 532.729 4.505000000000001Q532.984 4.25 533.12 3.91Q533.256 3.5700000000000003 533.358 3.196L534.14 0.40800000000000003L529.584 -15.3H527.782V-17.68H533.562V-15.3H532.236L535.534 -3.196L538.764 -15.3H537.438V-17.68H543.218V-15.3H541.45L535.874 3.842Q535.67 4.6240000000000006 535.3299999999999 5.338000000000001Q534.99 6.0520000000000005 534.361 6.545Q533.732 7.038 532.95 7.174Q532.168 7.3100000000000005 531.386 7.3100000000000005Z M566.814 0.0 563.38 -13.804H562.054V-17.68H568.514V-13.804H567.902L569.262 -5.882000000000001Q569.33 -5.542000000000001 569.3810000000001 -5.219000000000001Q569.432 -4.896000000000001 569.5 -4.556Q569.568 -4.896000000000001 569.6189999999999 -5.219000000000001Q569.67 -5.542000000000001 569.738 -5.882000000000001L571.098 -13.804H570.486V-17.68H576.946V-13.804H575.62L572.186 0.0Z M586.5 0.272Q585.582 0.272 584.698 0.085Q583.814 -0.10200000000000001 583.0319999999999 -0.561Q582.25 -1.02 581.655 -1.717Q581.06 -2.414 580.703 -3.247Q580.346 -4.08 580.21 -4.981Q580.074 -5.882000000000001 580.074 -6.800000000000001V-10.88Q580.074 -11.798 580.21 -12.699000000000002Q580.346 -13.600000000000001 580.703 -14.433000000000002Q581.06 -15.266000000000002 581.655 -15.963000000000001Q582.25 -16.66 583.0319999999999 -17.119Q583.814 -17.578000000000003 584.698 -17.765Q585.582 -17.952 586.5 -17.952Q587.418 -17.952 588.302 -17.765Q589.186 -17.578000000000003 589.9680000000001 -17.119Q590.75 -16.66 591.345 -15.963000000000001Q591.94 -15.266000000000002 592.297 -14.433000000000002Q592.654 -13.600000000000001 592.79 -12.699000000000002Q592.926 -11.798 592.926 -10.88V-6.800000000000001Q592.926 -5.882000000000001 592.79 -4.981Q592.654 -4.08 592.297 -3.247Q591.94 -2.414 591.345 -1.717Q590.75 -1.02 589.9680000000001 -0.561Q589.186 -0.10200000000000001 588.302 0.085Q587.418 0.272 586.5 0.272ZM586.5 -2.108Q587.078 -2.108 587.639 -2.244Q588.2 -2.3800000000000003 588.6590000000001 -2.72Q589.118 -3.06 589.441 -3.5360000000000005Q589.764 -4.0120000000000005 589.951 -4.556000000000001Q590.138 -5.1000000000000005 590.206 -5.6610000000000005Q590.274 -6.222 590.274 -6.800000000000001V-10.88Q590.274 -11.458 590.206 -12.019Q590.138 -12.58 589.951 -13.124Q589.764 -13.668000000000001 589.441 -14.144000000000002Q589.118 -14.620000000000001 588.6590000000001 -14.96Q588.2 -15.3 587.639 -15.436Q587.078 -15.572000000000001 586.5 -15.572000000000001Q585.922 -15.572000000000001 585.361 -15.436Q584.8 -15.3 584.3409999999999 -14.96Q583.882 -14.620000000000001 583.559 -14.144000000000002Q583.236 -13.668000000000001 583.049 -13.124Q582.862 -12.58 582.794 -12.019Q582.726 -11.458 582.726 -10.88V-6.800000000000001Q582.726 -6.222 582.794 -5.6610000000000005Q582.862 -5.1000000000000005 583.049 -4.556000000000001Q583.236 -4.0120000000000005 583.559 -3.5360000000000005Q583.882 -3.06 584.3409999999999 -2.72Q584.8 -2.3800000000000003 585.361 -2.244Q585.922 -2.108 586.5 -2.108Z M601.426 0.0H599.08L596.564 -15.3H595.544V-17.68H600.44V-15.3H599.046L600.406 -3.604L602.31 -12.716000000000001H604.69L606.594 -3.604L607.954 -15.3H606.56V-17.68H611.456V-15.3H610.436L607.92 0.0H605.574L603.5 -9.894Z M620.5 0.272Q619.956 0.272 619.446 0.11900000000000001Q618.936 -0.034 618.5450000000001 -0.42500000000000004Q618.154 -0.8160000000000001 618.001 -1.326Q617.848 -1.836 617.848 -2.3800000000000003Q617.848 -2.9240000000000004 618.001 -3.434Q618.154 -3.9440000000000004 618.5450000000001 -4.335Q618.936 -4.726 619.446 -4.879Q619.956 -5.032 620.5 -5.032Q621.044 -5.032 621.554 -4.879Q622.064 -4.726 622.4549999999999 -4.335Q622.846 -3.9440000000000004 622.999 -3.434Q623.152 -2.9240000000000004 623.152 -2.3800000000000003Q623.152 -1.836 622.999 -1.326Q622.846 -0.8160000000000001 622.4549999999999 -0.42500000000000004Q622.064 -0.034 621.554 0.11900000000000001Q621.044 0.272 620.5 0.272Z"/>
  </g>
</svg>
