<svg xmlns="http://www.w3.org/2000/svg" width="590" height="73" viewBox="0 0 590 73" role="img" aria-labelledby="title desc">
  <title id="title">Iosevka Term Slab Compact Sonic Italic preview</title>
  <desc id="desc">Sphinx of black quartz, judge my vow.</desc>
  <rect width="100%" height="100%" rx="10" fill="#0d1117"/>
  <g transform="translate(26.21 45.26)" fill="#f0f6fc">
    <path d="M7.038 0.272Q6.256 0.272 5.508000000000001 0.15300000000000002Q4.760000000000001 0.034 4.097 -0.272Q3.434 -0.5780000000000001 2.958 -1.037Q2.482 -1.496 2.176 -2.04L1.7680000000000002 0.0H-2.21L-0.918 -6.426H3.06Q2.958 -5.814 2.958 -5.202Q2.958 -4.590000000000001 3.196 -4.063000000000001Q3.434 -3.5360000000000005 4.046 -3.1960000000000006Q4.658 -2.8560000000000003 5.406000000000001 -2.8560000000000003Q6.12 -2.8560000000000003 6.8340000000000005 -3.111Q7.548000000000001 -3.366 8.075000000000001 -3.825Q8.602 -4.284000000000001 8.891000000000002 -4.845000000000001Q9.180000000000001 -5.406000000000001 9.316 -5.984Q9.486 -6.8340000000000005 9.316 -7.633000000000001Q9.146 -8.432 8.687000000000001 -9.112000000000002Q8.228 -9.792000000000002 7.497 -10.302000000000001Q6.766000000000001 -10.812000000000001 6.001000000000001 -11.288Q5.236000000000001 -11.764000000000001 4.556000000000001 -12.308Q3.8760000000000003 -12.852 3.3320000000000003 -13.464Q2.7880000000000003 -14.076 2.3800000000000003 -14.807Q1.9720000000000002 -15.538 1.7850000000000001 -16.32Q1.598 -17.102 1.598 -17.935000000000002Q1.598 -18.768 1.7680000000000002 -19.584000000000003Q1.9040000000000001 -20.264000000000003 2.176 -20.927Q2.4480000000000004 -21.59 2.822 -22.219Q3.196 -22.848000000000003 3.7570000000000006 -23.426000000000002Q4.3180000000000005 -24.004 5.032 -24.446Q5.746 -24.888 6.579000000000001 -25.075000000000003Q7.412000000000001 -25.262 8.262 -25.262Q9.044 -25.262 9.775 -25.143Q10.506 -25.024 11.135000000000002 -24.718000000000004Q11.764000000000001 -24.412000000000003 12.223 -23.970000000000002Q12.682 -23.528000000000002 12.988000000000001 -22.984L13.362 -24.990000000000002H17.34L16.048000000000002 -18.564H12.07Q12.138000000000002 -18.938000000000002 12.189 -19.346000000000004Q12.24 -19.754 12.189 -20.145000000000003Q12.138000000000002 -20.536 12.002000000000002 -20.893Q11.866000000000001 -21.25 11.560000000000002 -21.539Q11.254000000000001 -21.828000000000003 10.795000000000002 -21.981Q10.336 -22.134 9.894 -22.134Q9.180000000000001 -22.134 8.483 -21.879Q7.7860000000000005 -21.624000000000002 7.3100000000000005 -21.148000000000003Q6.8340000000000005 -20.672 6.562 -20.128Q6.29 -19.584000000000003 6.154000000000001 -19.006Q5.984 -18.19 6.154 -17.374000000000002Q6.324000000000001 -16.558 6.783000000000001 -15.878Q7.242000000000001 -15.198 7.973000000000001 -14.688Q8.704 -14.178 9.435 -13.702000000000002Q10.166 -13.226 10.863 -12.699000000000002Q11.56 -12.172 12.121 -11.543000000000001Q12.682 -10.914000000000001 13.056000000000001 -10.183Q13.430000000000001 -9.452 13.651000000000002 -8.67Q13.872000000000002 -7.888000000000001 13.872000000000002 -7.072000000000001Q13.872000000000002 -6.256 13.702000000000002 -5.406000000000001Q13.566 -4.726 13.294 -4.046Q13.022 -3.366 12.631 -2.737Q12.24 -2.108 11.645 -1.53Q11.05 -0.9520000000000001 10.319 -0.527Q9.588000000000001 -0.10200000000000001 8.738000000000001 0.085Q7.888000000000001 0.272 7.038 0.272Z M11.05 7.3100000000000005 15.538 -14.552000000000001H14.45V-17.68H20.672L20.162 -15.232000000000001Q20.536 -15.81 21.046 -16.32Q21.556 -16.830000000000002 22.151000000000003 -17.204Q22.746000000000002 -17.578000000000003 23.511000000000003 -17.765Q24.276000000000003 -17.952 24.990000000000002 -17.952Q26.01 -17.952 26.945 -17.629Q27.880000000000003 -17.306 28.458000000000002 -16.694000000000003Q29.036 -16.082 29.325000000000003 -15.317Q29.614 -14.552000000000001 29.716 -13.736Q29.818 -12.920000000000002 29.716 -12.07Q29.614 -11.22 29.444000000000003 -10.404L28.526000000000003 -5.78Q28.424 -5.134 28.203 -4.454000000000001Q27.982 -3.7740000000000005 27.659 -3.1110000000000007Q27.336 -2.4480000000000004 26.826 -1.8360000000000003Q26.316000000000003 -1.2240000000000002 25.653000000000002 -0.7310000000000001Q24.990000000000002 -0.23800000000000002 24.123 0.017Q23.256 0.272 22.44 0.272Q21.454 0.272 20.604 0.0Q19.754 -0.272 19.142000000000003 -0.799Q18.53 -1.326 18.224 -2.023Q17.918 -2.72 17.782 -3.4680000000000004L15.572000000000001 7.3100000000000005ZM20.502000000000002 -2.8560000000000003Q21.216 -2.8560000000000003 21.913 -3.1790000000000003Q22.61 -3.5020000000000002 23.069 -4.029Q23.528 -4.556 23.766 -5.134Q24.004 -5.712000000000001 24.14 -6.324000000000001L25.058 -10.914000000000001Q25.16 -11.322000000000001 25.194000000000003 -11.747Q25.228 -12.172 25.194000000000003 -12.580000000000002Q25.16 -12.988000000000001 25.041 -13.379000000000001Q24.922 -13.770000000000001 24.684 -14.110000000000001Q24.446 -14.450000000000001 24.004 -14.637Q23.562 -14.824000000000002 23.018 -14.824000000000002Q22.338 -14.824000000000002 21.692 -14.586000000000002Q21.046 -14.348 20.57 -13.889000000000001Q20.094 -13.430000000000001 19.839 -12.886000000000001Q19.584 -12.342 19.448 -11.832L18.53 -7.208Q18.462 -6.766000000000001 18.394 -6.307Q18.326 -5.848000000000001 18.343 -5.406000000000001Q18.36 -4.964 18.462 -4.539Q18.564 -4.114 18.802 -3.723Q19.04 -3.3320000000000003 19.482 -3.0940000000000003Q19.924 -2.8560000000000003 20.502000000000002 -2.8560000000000003Z M29.206 0.0 32.946 -22.712000000000003H31.654V-24.990000000000002H35.904L34.272 -15.028Q34.578 -15.64 35.02 -16.201Q35.462 -16.762 36.023 -17.17Q36.584 -17.578000000000003 37.247 -17.765Q37.910000000000004 -17.952 38.556 -17.952Q39.406 -17.952 40.171 -17.663000000000004Q40.936 -17.374000000000002 41.463 -16.779000000000003Q41.99 -16.184 42.245000000000005 -15.419Q42.5 -14.654000000000002 42.585 -13.838000000000001Q42.67 -13.022 42.619 -12.172Q42.568 -11.322000000000001 42.432 -10.472000000000001L41.072 -2.278H42.364000000000004V0.0H38.114000000000004L39.916 -10.846Q39.984 -11.39 40.035 -11.934000000000001Q40.086 -12.478000000000002 40.035 -13.005000000000003Q39.984 -13.532000000000002 39.81400000000001 -14.025000000000002Q39.644000000000005 -14.518 39.33800000000001 -14.892000000000001Q39.032000000000004 -15.266000000000002 38.556 -15.470000000000002Q38.08 -15.674000000000001 37.536 -15.674000000000001Q36.822 -15.674000000000001 36.091 -15.351Q35.36 -15.028 34.85 -14.450000000000001Q34.34 -13.872000000000002 34.085 -13.158000000000001Q33.83 -12.444 33.728 -11.73L31.79 0.0Z M52.7 0.272Q51.986000000000004 0.272 51.289 0.085Q50.592 -0.10200000000000001 50.048 -0.51Q49.504000000000005 -0.918 49.164 -1.5300000000000002Q48.824 -2.1420000000000003 48.688 -2.8390000000000004Q48.552 -3.5360000000000005 48.586 -4.267Q48.620000000000005 -4.998 48.756 -5.746L50.354 -15.402000000000001H46.172000000000004V-17.68H53.278L51.238 -5.372000000000001Q51.136 -4.7940000000000005 51.136 -4.216Q51.136 -3.6380000000000003 51.34 -3.1450000000000005Q51.544000000000004 -2.652 51.986000000000004 -2.329Q52.428 -2.0060000000000002 52.972 -2.0060000000000002Q53.38 -2.0060000000000002 53.754000000000005 -2.1590000000000003Q54.128 -2.3120000000000003 54.434 -2.601Q54.74 -2.89 54.961 -3.2300000000000004Q55.182 -3.5700000000000003 55.335 -3.9440000000000004Q55.488 -4.3180000000000005 55.59 -4.692Q55.692 -5.066000000000001 55.760000000000005 -5.44L58.072 -5.202Q57.936 -4.556 57.715 -3.8930000000000002Q57.494 -3.2300000000000004 57.153999999999996 -2.6180000000000003Q56.814 -2.0060000000000002 56.355000000000004 -1.4450000000000003Q55.896 -0.8840000000000001 55.318 -0.49300000000000005Q54.74 -0.10200000000000001 54.06 0.085Q53.38 0.272 52.7 0.272ZM52.972 -20.672Q52.496 -20.672 52.02 -20.842Q51.544000000000004 -21.012 51.272000000000006 -21.386000000000003Q51.0 -21.76 50.915000000000006 -22.270000000000003Q50.830000000000005 -22.78 50.898 -23.290000000000003Q50.966 -23.630000000000003 51.153000000000006 -23.970000000000002Q51.34 -24.310000000000002 51.629000000000005 -24.531000000000002Q51.918000000000006 -24.752000000000002 52.275000000000006 -24.837000000000003Q52.632000000000005 -24.922 53.006 -24.922Q53.482 -24.922 53.958 -24.735Q54.434000000000005 -24.548000000000002 54.723 -24.174Q55.012 -23.8 55.097 -23.29Q55.182 -22.78 55.080000000000005 -22.270000000000003Q55.012 -21.930000000000003 54.825 -21.590000000000003Q54.638000000000005 -21.25 54.349000000000004 -21.029Q54.06 -20.808 53.703 -20.740000000000002Q53.346000000000004 -20.672 52.972 -20.672Z M58.718 0.0 61.268 -15.402000000000001H59.976V-17.68H64.226L63.784 -15.028Q64.09 -15.64 64.53200000000001 -16.201Q64.974 -16.762 65.535 -17.17Q66.096 -17.578000000000003 66.759 -17.765Q67.422 -17.952 68.068 -17.952Q68.918 -17.952 69.683 -17.663000000000004Q70.44800000000001 -17.374000000000002 70.97500000000001 -16.779000000000003Q71.50200000000001 -16.184 71.757 -15.419Q72.012 -14.654000000000002 72.09700000000001 -13.838000000000001Q72.182 -13.022 72.131 -12.172Q72.08 -11.322000000000001 71.944 -10.472000000000001L70.584 -2.278H71.876V0.0H67.626L69.428 -10.846Q69.49600000000001 -11.39 69.547 -11.934000000000001Q69.598 -12.478000000000002 69.547 -13.005000000000003Q69.49600000000001 -13.532000000000002 69.32600000000001 -14.025000000000002Q69.156 -14.518 68.85 -14.892000000000001Q68.544 -15.266000000000002 68.068 -15.470000000000002Q67.592 -15.674000000000001 67.048 -15.674000000000001Q66.334 -15.674000000000001 65.60300000000001 -15.351Q64.872 -15.028 64.362 -14.450000000000001Q63.852000000000004 -13.872000000000002 63.597 -13.158000000000001Q63.342 -12.444 63.24 -11.73L61.302 0.0Z M76.568 0.272Q75.922 0.272 75.378 -0.017000000000000015Q74.834 -0.30600000000000005 74.52799999999999 -0.799Q74.222 -1.292 74.103 -1.887Q73.984 -2.482 73.94999999999999 -3.111Q73.916 -3.74 73.967 -4.369Q74.018 -4.998 74.12 -5.644L74.256 -6.392H76.636L76.5 -5.644Q76.46600000000001 -5.372000000000001 76.415 -5.1000000000000005Q76.364 -4.828 76.34700000000001 -4.573Q76.33 -4.3180000000000005 76.313 -4.046Q76.296 -3.7740000000000005 76.313 -3.519Q76.33 -3.2640000000000002 76.34700000000001 -2.992Q76.364 -2.72 76.432 -2.482Q76.5 -2.244 76.67 -2.04Q76.84 -1.836 77.078 -1.836Q77.384 -1.836 77.63900000000001 -2.0740000000000003Q77.894 -2.3120000000000003 78.06400000000001 -2.5840000000000005Q78.23400000000001 -2.8560000000000003 78.35300000000001 -3.1620000000000004Q78.47200000000001 -3.4680000000000004 78.557 -3.7570000000000006Q78.642 -4.046 78.693 -4.352Q78.744 -4.658 78.812 -4.964L80.376 -14.450000000000001Q80.41 -14.688 80.393 -14.96Q80.376 -15.232000000000001 80.24000000000001 -15.436Q80.104 -15.64 79.866 -15.742Q79.628 -15.844000000000001 79.356 -15.844000000000001Q79.118 -15.844000000000001 78.863 -15.759Q78.608 -15.674000000000001 78.438 -15.504000000000001L76.194 -13.226L74.528 -14.688L76.772 -16.966Q77.282 -17.51 77.979 -17.731Q78.676 -17.952 79.356 -17.952Q79.9 -17.952 80.41 -17.748Q80.92 -17.544 81.243 -17.136000000000003Q81.566 -16.728 81.685 -16.201Q81.804 -15.674000000000001 81.77 -15.13Q81.974 -15.64 82.24600000000001 -16.116Q82.518 -16.592000000000002 82.892 -17.017000000000003Q83.266 -17.442 83.75900000000001 -17.697000000000003Q84.25200000000001 -17.952 84.762 -17.952Q85.408 -17.952 85.952 -17.663000000000004Q86.49600000000001 -17.374000000000002 86.819 -16.881Q87.142 -16.388 87.261 -15.793000000000001Q87.38 -15.198 87.414 -14.569Q87.44800000000001 -13.940000000000001 87.38 -13.311Q87.312 -12.682 87.21000000000001 -12.036000000000001L87.108 -11.288H84.72800000000001L84.83 -12.036000000000001Q84.898 -12.308000000000002 84.932 -12.580000000000002Q84.96600000000001 -12.852 85.0 -13.107Q85.034 -13.362 85.034 -13.634Q85.034 -13.906 85.034 -14.161000000000001Q85.034 -14.416 85.017 -14.688Q85.0 -14.96 84.932 -15.198Q84.864 -15.436000000000002 84.694 -15.64Q84.524 -15.844000000000001 84.286 -15.844000000000001Q83.98 -15.844000000000001 83.725 -15.606000000000002Q83.47 -15.368 83.3 -15.096Q83.13 -14.824000000000002 83.011 -14.518Q82.892 -14.212000000000002 82.78999999999999 -13.923000000000002Q82.688 -13.634 82.637 -13.328Q82.586 -13.022 82.552 -12.716000000000001L80.95400000000001 -3.2300000000000004Q80.92 -2.992 80.95400000000001 -2.72Q80.988 -2.4480000000000004 81.124 -2.244Q81.26 -2.04 81.498 -1.9380000000000002Q81.736 -1.836 82.008 -1.836Q82.24600000000001 -1.836 82.48400000000001 -1.9210000000000003Q82.72200000000001 -2.0060000000000002 82.892 -2.176L85.136 -4.454000000000001L86.802 -2.992L84.558 -0.7140000000000001Q84.08200000000001 -0.17 83.368 0.051000000000000004Q82.654 0.272 81.974 0.272Q81.43 0.272 80.92 0.068Q80.41 -0.136 80.08699999999999 -0.544Q79.764 -0.9520000000000001 79.645 -1.479Q79.526 -2.0060000000000002 79.56 -2.5500000000000003Q79.39 -2.04 79.118 -1.564Q78.846 -1.088 78.47200000000001 -0.663Q78.098 -0.23800000000000002 77.588 0.017Q77.078 0.272 76.568 0.272Z M108.834 0.272Q107.644 0.272 106.539 0.068Q105.434 -0.136 104.55 -0.6460000000000001Q103.666 -1.1560000000000001 103.10499999999999 -1.9210000000000003Q102.544 -2.6860000000000004 102.27199999999999 -3.5700000000000003Q102.0 -4.454000000000001 102.051 -5.389000000000001Q102.102 -6.324000000000001 102.272 -7.276000000000001L103.224 -11.9Q103.36 -12.682 103.666 -13.464Q103.97200000000001 -14.246 104.516 -14.96Q105.06 -15.674000000000001 105.85900000000001 -16.269000000000002Q106.658 -16.864 107.576 -17.255000000000003Q108.494 -17.646 109.48 -17.799Q110.46600000000001 -17.952 111.452 -17.952Q112.642 -17.952 113.747 -17.748Q114.852 -17.544 115.719 -17.034Q116.586 -16.524 117.18100000000001 -15.759Q117.77600000000001 -14.994000000000002 118.031 -14.110000000000001Q118.286 -13.226 118.25200000000001 -12.291Q118.218 -11.356000000000002 118.01400000000001 -10.404L117.096 -5.78Q116.926 -4.998 116.62 -4.216Q116.31400000000001 -3.434 115.77000000000001 -2.72Q115.226 -2.0060000000000002 114.444 -1.411Q113.662 -0.8160000000000001 112.744 -0.42500000000000004Q111.82600000000001 -0.034 110.82300000000001 0.11900000000000001Q109.82000000000001 0.272 108.834 0.272ZM108.868 -2.8560000000000003Q109.616 -2.8560000000000003 110.34700000000001 -3.1620000000000004Q111.078 -3.4680000000000004 111.554 -3.9780000000000006Q112.03 -4.488 112.30199999999999 -5.1000000000000005Q112.574 -5.712000000000001 112.71000000000001 -6.324000000000001L113.628 -10.914000000000001Q113.73 -11.322000000000001 113.76400000000001 -11.747Q113.798 -12.172 113.76400000000001 -12.597000000000001Q113.73 -13.022 113.594 -13.413Q113.458 -13.804 113.169 -14.127Q112.88 -14.450000000000001 112.438 -14.637Q111.99600000000001 -14.824000000000002 111.452 -14.824000000000002Q110.70400000000001 -14.824000000000002 109.97300000000001 -14.518Q109.242 -14.212000000000002 108.766 -13.702000000000002Q108.29 -13.192 108.018 -12.58Q107.74600000000001 -11.968 107.61 -11.356000000000002L106.69200000000001 -6.766000000000001Q106.59 -6.3580000000000005 106.55600000000001 -5.933Q106.522 -5.508 106.539 -5.083Q106.556 -4.658 106.709 -4.267Q106.862 -3.8760000000000003 107.134 -3.5530000000000004Q107.406 -3.2300000000000004 107.86500000000001 -3.043Q108.324 -2.8560000000000003 108.868 -2.8560000000000003Z M116.144 7.3100000000000005V5.032H117.84400000000001Q118.558 5.032 119.272 4.828Q119.986 4.6240000000000006 120.581 4.131Q121.176 3.6380000000000003 121.516 2.958Q121.85600000000001 2.278 121.958 1.564L124.50800000000001 -13.736H119.85000000000001L119.816 -16.048000000000002H124.882L125.392 -19.244Q125.528 -20.026 125.80000000000001 -20.791Q126.072 -21.556 126.51400000000001 -22.253Q126.956 -22.950000000000003 127.619 -23.494Q128.282 -24.038 129.013 -24.378Q129.744 -24.718000000000004 130.526 -24.854000000000003Q131.308 -24.990000000000002 132.09 -24.990000000000002H133.79V-22.712000000000003H132.09Q131.342 -22.712000000000003 130.594 -22.457Q129.846 -22.202 129.251 -21.641000000000002Q128.656 -21.080000000000002 128.35000000000002 -20.349000000000004Q128.044 -19.618000000000002 127.94200000000001 -18.87L127.46600000000001 -16.048000000000002H132.124L132.15800000000002 -13.736H127.092L124.542 1.564Q124.406 2.346 124.15100000000001 3.111Q123.896 3.8760000000000003 123.43700000000001 4.573Q122.97800000000001 5.2700000000000005 122.33200000000001 5.814Q121.686 6.3580000000000005 120.938 6.698Q120.19 7.038 119.408 7.174Q118.626 7.3100000000000005 117.84400000000001 7.3100000000000005Z M155.244 0.272Q154.258 0.272 153.40800000000002 0.0Q152.558 -0.272 151.946 -0.799Q151.334 -1.326 151.02800000000002 -2.023Q150.722 -2.72 150.586 -3.4680000000000004L149.872 0.0H145.35L149.804 -21.862000000000002H148.716V-24.990000000000002H154.938L152.966 -15.232000000000001Q153.34 -15.81 153.85000000000002 -16.32Q154.36 -16.830000000000002 154.955 -17.204Q155.55 -17.578000000000003 156.315 -17.765Q157.08 -17.952 157.794 -17.952Q158.814 -17.952 159.749 -17.629Q160.684 -17.306 161.262 -16.694000000000003Q161.84 -16.082 162.12900000000002 -15.317Q162.418 -14.552000000000001 162.52 -13.736Q162.622 -12.920000000000002 162.52 -12.07Q162.418 -11.22 162.248 -10.404L161.33 -5.78Q161.228 -5.134 161.007 -4.454000000000001Q160.786 -3.7740000000000005 160.46300000000002 -3.1110000000000007Q160.14000000000001 -2.4480000000000004 159.63 -1.8360000000000003Q159.12 -1.2240000000000002 158.457 -0.7310000000000001Q157.794 -0.23800000000000002 156.92700000000002 0.017Q156.06 0.272 155.244 0.272ZM153.306 -2.8560000000000003Q154.02 -2.8560000000000003 154.717 -3.1790000000000003Q155.41400000000002 -3.5020000000000002 155.873 -4.029Q156.332 -4.556 156.57 -5.134Q156.808 -5.712000000000001 156.94400000000002 -6.324000000000001L157.862 -10.914000000000001Q157.964 -11.322000000000001 157.998 -11.747Q158.032 -12.172 157.998 -12.580000000000002Q157.964 -12.988000000000001 157.845 -13.379000000000001Q157.726 -13.770000000000001 157.488 -14.110000000000001Q157.25 -14.450000000000001 156.808 -14.637Q156.366 -14.824000000000002 155.822 -14.824000000000002Q155.142 -14.824000000000002 154.49599999999998 -14.586000000000002Q153.85 -14.348 153.374 -13.889000000000001Q152.898 -13.430000000000001 152.643 -12.886000000000001Q152.388 -12.342 152.252 -11.832L151.334 -7.208Q151.266 -6.766000000000001 151.19799999999998 -6.307Q151.13 -5.848000000000001 151.147 -5.406000000000001Q151.16400000000002 -4.964 151.26600000000002 -4.539Q151.368 -4.114 151.606 -3.723Q151.844 -3.3320000000000003 152.286 -3.0940000000000003Q152.728 -2.8560000000000003 153.306 -2.8560000000000003Z M170.952 0.272Q170.0 0.272 169.099 0.10200000000000001Q168.198 -0.068 167.484 -0.4760000000000001Q166.77 -0.8840000000000001 166.294 -1.496Q165.818 -2.108 165.597 -2.822Q165.376 -3.5360000000000005 165.41000000000003 -4.301Q165.44400000000002 -5.066000000000001 165.58 -5.848000000000001L168.844 -21.862000000000002H164.458V-24.990000000000002H174.012L170.034 -5.304Q169.93200000000002 -4.896000000000001 169.93200000000002 -4.488Q169.93200000000002 -4.08 170.085 -3.7060000000000004Q170.238 -3.3320000000000003 170.663 -3.0940000000000003Q171.088 -2.8560000000000003 171.564 -2.8560000000000003Q172.108 -2.8560000000000003 172.601 -3.1790000000000003Q173.094 -3.5020000000000002 173.38299999999998 -3.91Q173.672 -4.3180000000000005 173.84199999999998 -4.777000000000001Q174.012 -5.236000000000001 174.08 -5.678000000000001L174.114 -5.746L177.922 -5.61L177.888 -5.474Q177.752 -4.7940000000000005 177.46300000000002 -4.097Q177.174 -3.4000000000000004 176.76600000000002 -2.7540000000000004Q176.358 -2.108 175.72899999999998 -1.5130000000000001Q175.1 -0.918 174.31799999999998 -0.51Q173.536 -0.10200000000000001 172.66899999999998 0.085Q171.802 0.272 170.952 0.272Z M181.696 0.272Q180.812 0.272 180.04700000000003 0.0Q179.282 -0.272 178.755 -0.8670000000000001Q178.228 -1.4620000000000002 177.93900000000002 -2.2270000000000003Q177.65 -2.992 177.548 -3.8080000000000003Q177.446 -4.6240000000000006 177.514 -5.474Q177.582 -6.324000000000001 177.718 -7.208L178.466 -11.798Q178.602 -12.512 178.789 -13.226Q178.976 -13.940000000000001 179.28199999999998 -14.620000000000001Q179.588 -15.3 180.047 -15.929Q180.506 -16.558 181.135 -17.034Q181.764 -17.51 182.495 -17.731Q183.226 -17.952 183.94 -17.952Q184.756 -17.952 185.52100000000002 -17.697000000000003Q186.286 -17.442 186.813 -16.898000000000003Q187.34 -16.354000000000003 187.62900000000002 -15.640000000000002Q187.918 -14.926000000000002 188.054 -14.144000000000002L188.632 -17.68H191.216L188.734 -2.822Q188.734 -2.652 188.751 -2.499Q188.768 -2.346 188.853 -2.2270000000000003Q188.93800000000002 -2.108 189.091 -2.0570000000000004Q189.244 -2.0060000000000002 189.38 -2.0060000000000002H190.026V0.272H189.006Q188.394 0.272 187.799 0.11900000000000001Q187.204 -0.034 186.779 -0.44200000000000006Q186.354 -0.8500000000000001 186.21800000000002 -1.445Q186.082 -2.04 186.15 -2.6860000000000004Q185.844 -2.04 185.368 -1.479Q184.892 -0.918 184.297 -0.51Q183.702 -0.10200000000000001 183.022 0.085Q182.342 0.272 181.696 0.272ZM182.716 -2.0060000000000002Q183.464 -2.0060000000000002 184.195 -2.3120000000000003Q184.92600000000002 -2.6180000000000003 185.47000000000003 -3.1960000000000006Q186.014 -3.7740000000000005 186.286 -4.505000000000001Q186.558 -5.236000000000001 186.69400000000002 -5.95L187.442 -10.574000000000002Q187.544 -11.118 187.578 -11.696000000000002Q187.612 -12.274000000000001 187.578 -12.818000000000001Q187.544 -13.362 187.39100000000002 -13.889Q187.238 -14.416 186.91500000000002 -14.824000000000002Q186.592 -15.232000000000001 186.082 -15.453000000000001Q185.572 -15.674000000000001 184.994 -15.674000000000001Q184.484 -15.674000000000001 183.974 -15.538Q183.464 -15.402000000000001 183.005 -15.079Q182.546 -14.756 182.189 -14.331Q181.832 -13.906 181.594 -13.413Q181.356 -12.920000000000002 181.22 -12.427000000000001Q181.084 -11.934000000000001 180.982 -11.424000000000001L180.234 -6.8340000000000005Q180.132 -6.256 180.098 -5.712Q180.064 -5.168 180.115 -4.641Q180.166 -4.114 180.353 -3.621Q180.54 -3.128 180.863 -2.7540000000000004Q181.186 -2.3800000000000003 181.679 -2.1930000000000005Q182.172 -2.0060000000000002 182.716 -2.0060000000000002Z M197.71 0.272Q196.758 0.272 195.87400000000002 0.068Q194.99 -0.136 194.276 -0.6460000000000001Q193.562 -1.1560000000000001 193.12 -1.9040000000000001Q192.678 -2.652 192.457 -3.519Q192.236 -4.386 192.26999999999998 -5.321Q192.304 -6.256 192.474 -7.208L193.222 -11.798Q193.358 -12.58 193.613 -13.379000000000001Q193.868 -14.178 194.327 -14.909Q194.786 -15.64 195.41500000000002 -16.252000000000002Q196.044 -16.864 196.80900000000003 -17.255000000000003Q197.574 -17.646 198.39000000000001 -17.799Q199.20600000000002 -17.952 200.022 -17.952Q201.62 -17.952 203.082 -17.442Q204.544 -16.932000000000002 205.70000000000002 -16.014000000000003L204.952 -11.56H202.708L203.252 -14.824000000000002Q202.538 -15.232000000000001 201.722 -15.453000000000001Q200.906 -15.674000000000001 200.022 -15.674000000000001Q199.24 -15.674000000000001 198.441 -15.351Q197.642 -15.028 197.064 -14.399000000000001Q196.486 -13.770000000000001 196.18 -12.988000000000001Q195.874 -12.206000000000001 195.738 -11.424000000000001L194.99 -6.8340000000000005Q194.888 -6.256 194.85399999999998 -5.678000000000001Q194.82 -5.1000000000000005 194.905 -4.556000000000001Q194.99 -4.0120000000000005 195.228 -3.519Q195.466 -3.0260000000000002 195.857 -2.686Q196.248 -2.346 196.77499999999998 -2.176Q197.302 -2.0060000000000002 197.88 -2.0060000000000002Q198.662 -2.0060000000000002 199.42700000000002 -2.3630000000000004Q200.192 -2.72 200.736 -3.3320000000000003Q201.28 -3.9440000000000004 201.62 -4.675000000000001Q201.96 -5.406000000000001 202.16400000000002 -6.188000000000001L204.544 -5.61Q204.34 -4.862 204.0 -4.114Q203.66 -3.366 203.20100000000002 -2.686Q202.74200000000002 -2.0060000000000002 202.13 -1.411Q201.518 -0.8160000000000001 200.787 -0.44200000000000006Q200.056 -0.068 199.257 0.10200000000000001Q198.458 0.272 197.71 0.272Z M215.424 0.272Q214.948 0.272 214.506 0.17Q214.064 0.068 213.724 -0.18700000000000003Q213.38400000000001 -0.44200000000000006 213.214 -0.8500000000000001Q213.044 -1.258 212.942 -1.7000000000000002L211.854 -6.970000000000001Q211.48000000000002 -7.0040000000000004 211.157 -7.089Q210.834 -7.174 210.494 -7.344L209.304 0.0H206.754L210.494 -22.712000000000003H209.202V-24.990000000000002H213.418L211.48000000000002 -13.226Q211.82 -14.076 212.279 -14.892000000000001Q212.738 -15.708000000000002 213.38400000000001 -16.405Q214.03 -17.102 214.88 -17.527Q215.73000000000002 -17.952 216.614 -17.952Q217.15800000000002 -17.952 217.685 -17.799Q218.212 -17.646 218.586 -17.289Q218.96 -16.932000000000002 219.181 -16.456000000000003Q219.40200000000002 -15.98 219.47000000000003 -15.453000000000001Q219.538 -14.926000000000002 219.52100000000002 -14.382000000000001Q219.50400000000002 -13.838000000000001 219.40200000000002 -13.260000000000002Q219.232 -12.274000000000001 218.841 -11.322000000000001Q218.45000000000002 -10.370000000000001 217.75300000000001 -9.571000000000002Q217.056 -8.772 216.121 -8.228Q215.186 -7.684 214.234 -7.378L215.288 -2.1420000000000003Q215.322 -2.0740000000000003 215.305 -2.04Q215.288 -2.0060000000000002 215.322 -1.9380000000000002Q215.322 -1.9040000000000001 215.356 -1.87Q215.39000000000001 -1.836 215.424 -1.836Q215.458 -1.836 215.50900000000001 -1.836Q215.56 -1.836 215.56 -1.87L218.79 -5.1000000000000005L220.422 -3.604L217.226 -0.40800000000000003Q216.852 -0.034 216.359 0.11900000000000001Q215.866 0.272 215.424 0.272ZM212.16 -9.112Q212.704 -9.112 213.248 -9.265Q213.792 -9.418000000000001 214.30200000000002 -9.656Q214.812 -9.894 215.23700000000002 -10.251000000000001Q215.662 -10.608 216.002 -11.067Q216.342 -11.526000000000002 216.529 -12.053Q216.716 -12.58 216.784 -13.090000000000002Q216.886 -13.532000000000002 216.90300000000002 -13.957Q216.92000000000002 -14.382000000000001 216.784 -14.773000000000001Q216.648 -15.164000000000001 216.325 -15.419Q216.002 -15.674000000000001 215.56 -15.674000000000001Q214.91400000000002 -15.674000000000001 214.251 -15.351Q213.588 -15.028 213.112 -14.501000000000001Q212.636 -13.974 212.296 -13.345Q211.95600000000002 -12.716000000000001 211.68400000000003 -12.087Q211.412 -11.458 211.22500000000002 -10.795000000000002Q211.038 -10.132000000000001 210.90200000000002 -9.486Q211.174 -9.282 211.497 -9.197Q211.82 -9.112 212.16 -9.112Z M242.386 7.3100000000000005 244.392 -2.4480000000000004Q244.018 -1.87 243.50799999999998 -1.36Q242.998 -0.8500000000000001 242.369 -0.47600000000000003Q241.74 -0.10200000000000001 240.99200000000002 0.085Q240.244 0.272 239.53 0.272Q238.476 0.272 237.59199999999998 -0.05099999999999999Q236.708 -0.374 236.096 -0.986Q235.484 -1.598 235.212 -2.363Q234.94 -3.128 234.838 -3.9440000000000004Q234.736 -4.760000000000001 234.821 -5.610000000000001Q234.906 -6.460000000000001 235.076 -7.276000000000001L236.028 -11.9Q236.16400000000002 -12.546000000000001 236.351 -13.226Q236.538 -13.906 236.895 -14.569Q237.252 -15.232000000000001 237.745 -15.844000000000001Q238.238 -16.456 238.901 -16.948999999999998Q239.564 -17.442 240.414 -17.697000000000003Q241.264 -17.952 242.08 -17.952Q243.032 -17.952 243.899 -17.68Q244.766 -17.408 245.378 -16.881Q245.99 -16.354000000000003 246.313 -15.657000000000002Q246.636 -14.96 246.772 -14.212000000000002L247.486 -17.68H252.008L247.52 4.182H248.608V7.3100000000000005ZM241.536 -2.8560000000000003Q242.216 -2.8560000000000003 242.86200000000002 -3.0940000000000003Q243.508 -3.3320000000000003 243.967 -3.7910000000000004Q244.42600000000002 -4.25 244.698 -4.7940000000000005Q244.97 -5.338 245.072 -5.848000000000001L246.024 -10.472000000000001Q246.092 -10.914000000000001 246.14300000000003 -11.373000000000001Q246.19400000000002 -11.832 246.19400000000002 -12.274000000000001Q246.19400000000002 -12.716000000000001 246.092 -13.141000000000002Q245.99 -13.566 245.752 -13.957Q245.514 -14.348 245.072 -14.586000000000002Q244.63 -14.824000000000002 244.052 -14.824000000000002Q243.338 -14.824000000000002 242.64100000000002 -14.501000000000001Q241.94400000000002 -14.178 241.485 -13.651Q241.026 -13.124 240.788 -12.546Q240.55 -11.968 240.41400000000002 -11.356000000000002L239.496 -6.766000000000001Q239.394 -6.3580000000000005 239.36 -5.933Q239.326 -5.508 239.36 -5.1Q239.394 -4.692 239.513 -4.301Q239.632 -3.91 239.853 -3.5700000000000003Q240.074 -3.2300000000000004 240.53300000000002 -3.043Q240.99200000000002 -2.8560000000000003 241.536 -2.8560000000000003Z M254.45600000000002 0.272Q253.40200000000002 0.272 252.53500000000003 -0.05099999999999999Q251.668 -0.374 251.09 -1.0030000000000001Q250.512 -1.6320000000000001 250.24 -2.3970000000000002Q249.96800000000002 -3.1620000000000004 249.9 -3.9780000000000006Q249.832 -4.7940000000000005 249.9 -5.627000000000001Q249.96800000000002 -6.460000000000001 250.138 -7.276000000000001L251.668 -14.552000000000001H250.58V-17.68H256.802L254.592 -6.766000000000001Q254.49 -6.3580000000000005 254.45600000000002 -5.950000000000001Q254.422 -5.542000000000001 254.43900000000002 -5.134Q254.45600000000002 -4.726 254.541 -4.335Q254.626 -3.9440000000000004 254.864 -3.604Q255.102 -3.2640000000000002 255.51 -3.0600000000000005Q255.918 -2.8560000000000003 256.462 -2.8560000000000003Q257.108 -2.8560000000000003 257.754 -3.111Q258.4 -3.366 258.842 -3.825Q259.284 -4.284000000000001 259.505 -4.811Q259.726 -5.338 259.82800000000003 -5.848000000000001L262.242 -17.68H266.764L263.874 -3.5020000000000002Q263.772 -3.2300000000000004 263.993 -3.043Q264.214 -2.8560000000000003 264.486 -2.8560000000000003H265.302L265.234 0.272H263.84000000000003Q262.99 0.272 262.174 0.136Q261.358 0.0 260.695 -0.35700000000000004Q260.032 -0.7140000000000001 259.624 -1.3090000000000002Q259.216 -1.9040000000000001 259.216 -2.584Q258.842 -2.0060000000000002 258.383 -1.479Q257.924 -0.9520000000000001 257.29499999999996 -0.544Q256.666 -0.136 255.935 0.068Q255.204 0.272 254.45600000000002 0.272Z M270.232 0.272Q269.348 0.272 268.58299999999997 0.0Q267.818 -0.272 267.291 -0.8670000000000001Q266.764 -1.4620000000000002 266.475 -2.2270000000000003Q266.186 -2.992 266.084 -3.8080000000000003Q265.982 -4.6240000000000006 266.05 -5.474Q266.118 -6.324000000000001 266.254 -7.208L267.002 -11.798Q267.138 -12.512 267.325 -13.226Q267.512 -13.940000000000001 267.818 -14.620000000000001Q268.124 -15.3 268.583 -15.929Q269.04200000000003 -16.558 269.67100000000005 -17.034Q270.3 -17.51 271.031 -17.731Q271.762 -17.952 272.476 -17.952Q273.29200000000003 -17.952 274.057 -17.697000000000003Q274.822 -17.442 275.349 -16.898000000000003Q275.876 -16.354000000000003 276.16499999999996 -15.640000000000002Q276.454 -14.926000000000002 276.59000000000003 -14.144000000000002L277.168 -17.68H279.752L277.27 -2.822Q277.27 -2.652 277.28700000000003 -2.499Q277.30400000000003 -2.346 277.389 -2.2270000000000003Q277.474 -2.108 277.627 -2.0570000000000004Q277.78000000000003 -2.0060000000000002 277.916 -2.0060000000000002H278.562V0.272H277.54200000000003Q276.93 0.272 276.33500000000004 0.11900000000000001Q275.74 -0.034 275.315 -0.44200000000000006Q274.89 -0.8500000000000001 274.754 -1.445Q274.618 -2.04 274.686 -2.6860000000000004Q274.38 -2.04 273.904 -1.479Q273.428 -0.918 272.83299999999997 -0.51Q272.238 -0.10200000000000001 271.558 0.085Q270.878 0.272 270.232 0.272ZM271.252 -2.0060000000000002Q272.0 -2.0060000000000002 272.731 -2.3120000000000003Q273.462 -2.6180000000000003 274.006 -3.1960000000000006Q274.55 -3.7740000000000005 274.822 -4.505000000000001Q275.094 -5.236000000000001 275.23 -5.95L275.978 -10.574000000000002Q276.08 -11.118 276.11400000000003 -11.696000000000002Q276.148 -12.274000000000001 276.11400000000003 -12.818000000000001Q276.08 -13.362 275.927 -13.889Q275.774 -14.416 275.451 -14.824000000000002Q275.128 -15.232000000000001 274.618 -15.453000000000001Q274.108 -15.674000000000001 273.53000000000003 -15.674000000000001Q273.02 -15.674000000000001 272.51 -15.538Q272.0 -15.402000000000001 271.541 -15.079Q271.082 -14.756 270.725 -14.331Q270.368 -13.906 270.13 -13.413Q269.892 -12.920000000000002 269.756 -12.427000000000001Q269.62 -11.934000000000001 269.51800000000003 -11.424000000000001L268.77 -6.8340000000000005Q268.668 -6.256 268.634 -5.712Q268.6 -5.168 268.651 -4.641Q268.702 -4.114 268.889 -3.621Q269.076 -3.128 269.399 -2.7540000000000004Q269.722 -2.3800000000000003 270.21500000000003 -2.1930000000000005Q270.708 -2.0060000000000002 271.252 -2.0060000000000002Z M282.50600000000003 0.0 285.05600000000004 -15.402000000000001H282.60800000000006V-17.68H287.98L287.36800000000005 -14.076Q287.742 -14.824000000000002 288.201 -15.521Q288.66 -16.218 289.27200000000005 -16.779Q289.884 -17.34 290.649 -17.646Q291.41400000000004 -17.952 292.196 -17.952Q292.706 -17.952 293.165 -17.782000000000004Q293.624 -17.612000000000002 293.93000000000006 -17.255000000000003Q294.23600000000005 -16.898 294.389 -16.439Q294.54200000000003 -15.98 294.593 -15.487000000000002Q294.644 -14.994000000000002 294.593 -14.484000000000002Q294.54200000000003 -13.974 294.44000000000005 -13.464H291.85600000000005Q291.92400000000004 -13.838000000000001 291.958 -14.195Q291.992 -14.552000000000001 291.90700000000004 -14.875Q291.82200000000006 -15.198 291.55000000000007 -15.436Q291.278 -15.674000000000001 290.93800000000005 -15.674000000000001Q290.326 -15.674000000000001 289.71400000000006 -15.402000000000001Q289.10200000000003 -15.13 288.66 -14.654Q288.218 -14.178 287.89500000000004 -13.600000000000001Q287.57200000000006 -13.022 287.33400000000006 -12.427Q287.09600000000006 -11.832 286.96000000000004 -11.237000000000002Q286.824 -10.642000000000001 286.72200000000004 -10.030000000000001L285.05600000000004 0.0Z M302.974 0.272Q302.226 0.272 301.495 0.085Q300.764 -0.10200000000000001 300.22 -0.544Q299.676 -0.9860000000000001 299.31899999999996 -1.6150000000000002Q298.962 -2.244 298.80899999999997 -2.9750000000000005Q298.656 -3.7060000000000004 298.673 -4.471Q298.69 -5.236000000000001 298.826 -5.984L300.39 -15.402000000000001H297.534V-17.68H300.764L301.954 -24.990000000000002H304.538L303.348 -17.68H308.72L308.754 -15.402000000000001H302.974L301.342 -5.61Q301.274 -5.202 301.24 -4.7940000000000005Q301.206 -4.386 301.257 -3.995Q301.308 -3.604 301.427 -3.247Q301.546 -2.89 301.801 -2.601Q302.056 -2.3120000000000003 302.413 -2.1590000000000003Q302.77 -2.0060000000000002 303.178 -2.0060000000000002Q303.586 -2.0060000000000002 303.994 -2.1930000000000005Q304.402 -2.3800000000000003 304.70799999999997 -2.686Q305.014 -2.992 305.252 -3.383Q305.49 -3.7740000000000005 305.64300000000003 -4.165Q305.796 -4.556 305.91499999999996 -4.964Q306.034 -5.372000000000001 306.10200000000003 -5.78L308.618 -5.61Q308.516 -4.896000000000001 308.278 -4.199000000000001Q308.04 -3.5020000000000002 307.70000000000005 -2.8390000000000004Q307.36 -2.176 306.884 -1.5810000000000002Q306.408 -0.9860000000000001 305.762 -0.561Q305.116 -0.136 304.402 0.068Q303.688 0.272 302.974 0.272Z M317.968 0.272Q317.492 0.272 317.067 0.11900000000000001Q316.64200000000005 -0.034 316.25100000000003 -0.255Q315.86 -0.47600000000000003 315.46900000000005 -0.7140000000000001Q315.07800000000003 -0.9520000000000001 314.70400000000006 -1.173Q314.33000000000004 -1.3940000000000001 313.90500000000003 -1.564Q313.48 -1.7340000000000002 313.038 -1.9040000000000001L312.22200000000004 -2.244L311.848 0.0H309.57000000000005L310.25000000000006 -4.25L320.24600000000004 -13.532000000000002L319.90600000000006 -13.668000000000001Q319.32800000000003 -13.940000000000001 318.76700000000005 -14.246000000000002Q318.206 -14.552000000000001 317.64500000000004 -14.858Q317.08400000000006 -15.164000000000001 316.47200000000004 -15.419Q315.86 -15.674000000000001 315.18 -15.674000000000001Q314.874 -15.674000000000001 314.653 -15.419Q314.432 -15.164000000000001 314.29600000000005 -14.892000000000001Q314.16 -14.620000000000001 314.058 -14.348Q313.956 -14.076 313.87100000000004 -13.787Q313.78600000000006 -13.498000000000001 313.735 -13.209000000000001Q313.684 -12.920000000000002 313.61600000000004 -12.648000000000001L313.34400000000005 -10.982000000000001H311.1L311.372 -12.648000000000001Q311.47400000000005 -13.226 311.62700000000007 -13.804000000000002Q311.78000000000003 -14.382000000000001 312.00100000000003 -14.96Q312.22200000000004 -15.538 312.562 -16.065Q312.90200000000004 -16.592000000000002 313.34400000000005 -17.034000000000002Q313.78600000000006 -17.476000000000003 314.3810000000001 -17.714000000000002Q314.97600000000006 -17.952 315.55400000000003 -17.952Q316.336 -17.952 317.016 -17.68Q317.696 -17.408 318.34200000000004 -17.068Q318.98800000000006 -16.728 319.65100000000007 -16.405Q320.314 -16.082 320.994 -15.776000000000002L321.36800000000005 -15.606000000000002L321.708 -17.68H323.98600000000005L323.27200000000005 -13.430000000000001L313.41200000000003 -4.25L313.956 -4.046Q314.36400000000003 -3.91 314.721 -3.74Q315.07800000000003 -3.5700000000000003 315.43500000000006 -3.3660000000000005Q315.79200000000003 -3.1620000000000004 316.13200000000006 -2.9410000000000003Q316.47200000000004 -2.72 316.812 -2.516Q317.15200000000004 -2.3120000000000003 317.543 -2.1590000000000003Q317.934 -2.0060000000000002 318.34200000000004 -2.0060000000000002Q318.648 -2.0060000000000002 318.886 -2.261Q319.124 -2.516 319.26 -2.7880000000000003Q319.396 -3.06 319.481 -3.332Q319.56600000000003 -3.604 319.65100000000007 -3.8930000000000002Q319.73600000000005 -4.182 319.80400000000003 -4.471Q319.872 -4.760000000000001 319.90600000000006 -5.032L320.17800000000005 -6.698H322.422L322.15000000000003 -5.032Q322.04800000000006 -4.454000000000001 321.91200000000003 -3.8760000000000003Q321.776 -3.298 321.538 -2.72Q321.3 -2.1420000000000003 320.97700000000003 -1.6150000000000002Q320.65400000000005 -1.088 320.21200000000005 -0.646Q319.77000000000004 -0.20400000000000001 319.158 0.034Q318.54600000000005 0.272 317.968 0.272Z M327.624 7.3100000000000005 325.958 5.5760000000000005Q327.25 4.488 328.321 3.1450000000000005Q329.392 1.802 329.97 0.272Q329.426 0.272 328.916 0.085Q328.406 -0.10200000000000001 328.06600000000003 -0.459Q327.726 -0.8160000000000001 327.573 -1.326Q327.42 -1.836 327.386 -2.3800000000000003Q327.42 -2.5500000000000003 327.437 -2.7030000000000003Q327.454 -2.8560000000000003 327.454 -3.0260000000000002Q327.556 -3.4680000000000004 327.777 -3.8760000000000003Q327.998 -4.284000000000001 328.37199999999996 -4.556000000000001Q328.746 -4.828 329.171 -4.93Q329.596 -5.032 330.038 -5.032Q330.718 -5.032 331.347 -4.76Q331.976 -4.488 332.31600000000003 -3.9440000000000004Q332.656 -3.4000000000000004 332.69 -2.72Q332.724 -2.04 332.588 -1.36Q332.384 -0.136 331.959 1.037Q331.534 2.21 330.88800000000003 3.315Q330.242 4.42 329.409 5.423Q328.576 6.426 327.624 7.3100000000000005Z M355.99864355468753 7.582000000000001Q354.6604248046875 7.582000000000001 353.46857373046873 7.259Q352.27672265625 6.936000000000001 351.50306494140625 6.188000000000001Q350.7294072265625 5.44 350.4994008789063 4.42Q350.26939453125004 3.4000000000000004 350.47849121093753 2.346L350.520310546875 2.21H353.65676074218754V2.278Q353.531302734375 2.8560000000000003 353.61494140625 3.4000000000000004Q353.698580078125 3.9440000000000004 353.9913154296875 4.386Q354.28405078125 4.828 354.8904311523438 5.066000000000001Q355.49681152343754 5.304 356.207740234375 5.304Q356.75139160156255 5.304 357.29504296875007 5.1000000000000005Q357.83869433593753 4.896000000000001 358.2359780273438 4.556000000000001Q358.63326171875 4.216 358.9259970703125 3.8080000000000003Q359.218732421875 3.4000000000000004 359.40691943359377 2.958Q359.5951064453125 2.516 359.7414741210938 2.074Q359.887841796875 1.6320000000000001 359.97148046875003 1.1900000000000002L363.35884667968753 -15.402000000000001H358.2568876953125V-17.68H366.99712890625L363.06611132812503 1.564Q362.898833984375 2.3120000000000003 362.6688276367188 3.0260000000000002Q362.4388212890625 3.74 361.9997182617187 4.42Q361.560615234375 5.1000000000000005 360.9333251953125 5.712000000000001Q360.30603515625 6.324000000000001 359.5114677734375 6.766Q358.716900390625 7.208 357.796875 7.3950000000000005Q356.87684960937503 7.582000000000001 355.99864355468753 7.582000000000001ZM366.0890400390625 -20.672Q365.5035693359375 -20.672 364.91809863281253 -20.842Q364.33262792968753 -21.012 363.9980732421875 -21.386000000000003Q363.6635185546875 -21.76 363.5589702148438 -22.270000000000003Q363.45442187500004 -22.78 363.53806054687504 -23.290000000000003Q363.62169921875005 -23.630000000000003 363.8517055664063 -23.970000000000002Q364.0817119140625 -24.310000000000002 364.4371762695313 -24.531000000000002Q364.79264062500005 -24.752000000000002 365.23174365234377 -24.837000000000003Q365.67084667968754 -24.922 366.130859375 -24.922Q366.71633007812505 -24.922 367.30180078125005 -24.735Q367.88727148437505 -24.548000000000002 368.2427358398438 -24.174Q368.59820019531253 -23.8 368.7027485351563 -23.29Q368.807296875 -22.78 368.68183886718754 -22.270000000000003Q368.59820019531253 -21.930000000000003 368.36819384765624 -21.590000000000003Q368.1381875 -21.25 367.78272314453125 -21.029Q367.42725878906253 -20.808 366.98815576171876 -20.740000000000002Q366.54905273437504 -20.672 366.0890400390625 -20.672Z M372.504 0.272Q371.45000000000005 0.272 370.583 -0.05099999999999999Q369.716 -0.374 369.13800000000003 -1.0030000000000001Q368.56000000000006 -1.6320000000000001 368.288 -2.3970000000000002Q368.016 -3.1620000000000004 367.94800000000004 -3.9780000000000006Q367.88000000000005 -4.7940000000000005 367.94800000000004 -5.627000000000001Q368.016 -6.460000000000001 368.18600000000004 -7.276000000000001L369.716 -14.552000000000001H368.62800000000004V-17.68H374.85L372.64000000000004 -6.766000000000001Q372.538 -6.3580000000000005 372.504 -5.950000000000001Q372.47 -5.542000000000001 372.487 -5.134Q372.504 -4.726 372.58900000000006 -4.335Q372.67400000000004 -3.9440000000000004 372.91200000000003 -3.604Q373.15000000000003 -3.2640000000000002 373.558 -3.0600000000000005Q373.966 -2.8560000000000003 374.51000000000005 -2.8560000000000003Q375.15600000000006 -2.8560000000000003 375.802 -3.111Q376.44800000000004 -3.366 376.89000000000004 -3.825Q377.33200000000005 -4.284000000000001 377.55300000000005 -4.811Q377.77400000000006 -5.338 377.87600000000003 -5.848000000000001L380.29 -17.68H384.812L381.922 -3.5020000000000002Q381.82000000000005 -3.2300000000000004 382.04100000000005 -3.043Q382.26200000000006 -2.8560000000000003 382.53400000000005 -2.8560000000000003H383.35L383.28200000000004 0.272H381.88800000000003Q381.038 0.272 380.22200000000004 0.136Q379.40600000000006 0.0 378.74300000000005 -0.35700000000000004Q378.08000000000004 -0.7140000000000001 377.672 -1.3090000000000002Q377.264 -1.9040000000000001 377.264 -2.584Q376.89000000000004 -2.0060000000000002 376.43100000000004 -1.479Q375.97200000000004 -0.9520000000000001 375.3430000000001 -0.544Q374.71400000000006 -0.136 373.98300000000006 0.068Q373.252 0.272 372.504 0.272Z M388.28000000000003 0.272Q387.396 0.272 386.631 0.0Q385.866 -0.272 385.339 -0.8670000000000001Q384.812 -1.4620000000000002 384.523 -2.2270000000000003Q384.234 -2.992 384.132 -3.8080000000000003Q384.03000000000003 -4.6240000000000006 384.098 -5.474Q384.166 -6.324000000000001 384.302 -7.208L385.05 -11.798Q385.186 -12.512 385.373 -13.226Q385.56 -13.940000000000001 385.866 -14.620000000000001Q386.172 -15.3 386.63100000000003 -15.929Q387.09000000000003 -16.558 387.71900000000005 -17.034Q388.348 -17.51 389.079 -17.731Q389.81 -17.952 390.524 -17.952Q391.34000000000003 -17.952 392.105 -17.697000000000003Q392.87 -17.442 393.397 -16.898000000000003Q393.924 -16.354000000000003 394.21299999999997 -15.640000000000002Q394.502 -14.926000000000002 394.63800000000003 -14.144000000000002L396.032 -22.712000000000003H394.774L394.74 -24.990000000000002H398.99L395.318 -2.822Q395.318 -2.652 395.33500000000004 -2.499Q395.35200000000003 -2.346 395.437 -2.2270000000000003Q395.522 -2.108 395.675 -2.0570000000000004Q395.82800000000003 -2.0060000000000002 395.964 -2.0060000000000002H396.61V0.272H395.59000000000003Q394.978 0.272 394.38300000000004 0.11900000000000001Q393.788 -0.034 393.363 -0.44200000000000006Q392.938 -0.8500000000000001 392.802 -1.445Q392.666 -2.04 392.734 -2.6860000000000004Q392.428 -2.04 391.952 -1.479Q391.476 -0.918 390.881 -0.51Q390.286 -0.10200000000000001 389.606 0.085Q388.926 0.272 388.28000000000003 0.272ZM389.3 -2.0060000000000002Q390.048 -2.0060000000000002 390.779 -2.3120000000000003Q391.51 -2.6180000000000003 392.054 -3.1960000000000006Q392.598 -3.7740000000000005 392.87 -4.505000000000001Q393.142 -5.236000000000001 393.278 -5.95L394.026 -10.574000000000002Q394.128 -11.118 394.16200000000003 -11.696000000000002Q394.196 -12.274000000000001 394.16200000000003 -12.818000000000001Q394.128 -13.362 393.975 -13.889Q393.822 -14.416 393.499 -14.824000000000002Q393.176 -15.232000000000001 392.666 -15.453000000000001Q392.156 -15.674000000000001 391.57800000000003 -15.674000000000001Q391.068 -15.674000000000001 390.558 -15.538Q390.048 -15.402000000000001 389.589 -15.079Q389.13 -14.756 388.773 -14.331Q388.416 -13.906 388.178 -13.413Q387.94 -12.920000000000002 387.804 -12.427000000000001Q387.668 -11.934000000000001 387.56600000000003 -11.424000000000001L386.818 -6.8340000000000005Q386.716 -6.256 386.682 -5.712Q386.648 -5.168 386.699 -4.641Q386.75 -4.114 386.937 -3.621Q387.124 -3.128 387.447 -2.7540000000000004Q387.77 -2.3800000000000003 388.26300000000003 -2.1930000000000005Q388.75600000000003 -2.0060000000000002 389.3 -2.0060000000000002Z M402.83200000000005 7.582000000000001Q402.08400000000006 7.582000000000001 401.38700000000006 7.497000000000001Q400.69000000000005 7.412000000000001 400.02700000000004 7.157Q399.36400000000003 6.902 398.83700000000005 6.477Q398.31000000000006 6.0520000000000005 397.9870000000001 5.457000000000001Q397.66400000000004 4.862 397.562 4.148Q397.46000000000004 3.434 397.562 2.72H400.112Q400.04400000000004 3.298 400.231 3.842Q400.418 4.386 400.843 4.709Q401.26800000000003 5.032 401.846 5.168Q402.42400000000004 5.304 403.002 5.304Q403.51200000000006 5.304 404.00500000000005 5.151Q404.49800000000005 4.998 404.95700000000005 4.675000000000001Q405.41600000000005 4.352 405.73900000000003 3.91Q406.062 3.4680000000000004 406.266 2.992Q406.47 2.516 406.606 2.023Q406.742 1.53 406.84400000000005 1.054L407.456 -2.6860000000000004Q407.15000000000003 -2.04 406.67400000000004 -1.479Q406.19800000000004 -0.918 405.60300000000007 -0.51Q405.00800000000004 -0.10200000000000001 404.32800000000003 0.085Q403.648 0.272 403.002 0.272Q402.11800000000005 0.272 401.35300000000007 0.0Q400.588 -0.272 400.06100000000004 -0.8670000000000001Q399.53400000000005 -1.4620000000000002 399.245 -2.2270000000000003Q398.956 -2.992 398.85400000000004 -3.8080000000000003Q398.752 -4.6240000000000006 398.82000000000005 -5.474Q398.88800000000003 -6.324000000000001 399.02400000000006 -7.208L399.77200000000005 -11.798Q399.908 -12.512 400.095 -13.226Q400.28200000000004 -13.940000000000001 400.5880000000001 -14.620000000000001Q400.89400000000006 -15.3 401.35300000000007 -15.929Q401.812 -16.558 402.44100000000003 -17.034Q403.07000000000005 -17.51 403.80100000000004 -17.731Q404.53200000000004 -17.952 405.24600000000004 -17.952Q406.062 -17.952 406.827 -17.697000000000003Q407.59200000000004 -17.442 408.119 -16.898000000000003Q408.646 -16.354000000000003 408.93500000000006 -15.640000000000002Q409.22400000000005 -14.926000000000002 409.36 -14.144000000000002L409.93800000000005 -17.68H412.52200000000005L409.36 1.4280000000000002Q409.22400000000005 2.21 408.96900000000005 2.992Q408.71400000000006 3.7740000000000005 408.30600000000004 4.488Q407.898 5.202 407.28600000000006 5.814Q406.67400000000004 6.426 405.92600000000004 6.8340000000000005Q405.17800000000005 7.242000000000001 404.3960000000001 7.412000000000001Q403.61400000000003 7.582000000000001 402.83200000000005 7.582000000000001ZM404.02200000000005 -2.0060000000000002Q404.77000000000004 -2.0060000000000002 405.50100000000003 -2.3120000000000003Q406.232 -2.6180000000000003 406.77600000000007 -3.1960000000000006Q407.32000000000005 -3.7740000000000005 407.59200000000004 -4.505000000000001Q407.86400000000003 -5.236000000000001 408.00000000000006 -5.95L408.74800000000005 -10.574000000000002Q408.85 -11.118 408.884 -11.696000000000002Q408.918 -12.274000000000001 408.884 -12.818000000000001Q408.85 -13.362 408.697 -13.889Q408.54400000000004 -14.416 408.221 -14.824000000000002Q407.898 -15.232000000000001 407.38800000000003 -15.453000000000001Q406.87800000000004 -15.674000000000001 406.3 -15.674000000000001Q405.79 -15.674000000000001 405.28000000000003 -15.538Q404.77000000000004 -15.402000000000001 404.31100000000004 -15.079Q403.85200000000003 -14.756 403.495 -14.331Q403.13800000000003 -13.906 402.90000000000003 -13.413Q402.66200000000003 -12.920000000000002 402.52600000000007 -12.427000000000001Q402.39000000000004 -11.934000000000001 402.288 -11.424000000000001L401.54 -6.8340000000000005Q401.43800000000005 -6.256 401.40400000000005 -5.712Q401.37000000000006 -5.168 401.42100000000005 -4.641Q401.47200000000004 -4.114 401.65900000000005 -3.621Q401.84600000000006 -3.128 402.16900000000004 -2.7540000000000004Q402.492 -2.3800000000000003 402.985 -2.1930000000000005Q403.478 -2.0060000000000002 404.02200000000005 -2.0060000000000002Z M419.152 0.272Q418.2 0.272 417.299 0.068Q416.398 -0.136 415.684 -0.629Q414.97 -1.122 414.494 -1.87Q414.01800000000003 -2.6180000000000003 413.814 -3.5020000000000002Q413.61 -4.386 413.627 -5.321Q413.644 -6.256 413.814 -7.208L414.562 -11.798Q414.698 -12.546000000000001 414.919 -13.328000000000001Q415.14 -14.110000000000001 415.565 -14.824000000000002Q415.99 -15.538 416.58500000000004 -16.167Q417.18 -16.796000000000003 417.911 -17.204Q418.642 -17.612000000000002 419.44100000000003 -17.782000000000004Q420.24 -17.952 421.022 -17.952Q421.80400000000003 -17.952 422.586 -17.833000000000002Q423.368 -17.714000000000002 424.048 -17.374000000000002Q424.728 -17.034000000000002 425.221 -16.490000000000002Q425.714 -15.946000000000002 426.00300000000004 -15.249000000000002Q426.29200000000003 -14.552000000000001 426.326 -13.753Q426.36 -12.954 426.224 -12.172Q426.088 -11.322000000000001 425.68 -10.489Q425.272 -9.656 424.558 -9.078Q423.844 -8.5 422.977 -8.194Q422.11 -7.888000000000001 421.26 -7.684000000000001Q420.41 -7.48 419.543 -7.378Q418.676 -7.276000000000001 417.826 -7.276000000000001Q417.452 -7.276000000000001 417.095 -7.293000000000001Q416.738 -7.3100000000000005 416.398 -7.344L416.33 -6.8340000000000005Q416.228 -6.222 416.194 -5.644Q416.16 -5.066000000000001 416.26200000000006 -4.522Q416.36400000000003 -3.978 416.60200000000003 -3.4850000000000003Q416.84000000000003 -2.992 417.265 -2.652Q417.69 -2.3120000000000003 418.217 -2.1590000000000003Q418.744 -2.0060000000000002 419.322 -2.0060000000000002Q420.002 -2.0060000000000002 420.699 -2.244Q421.396 -2.482 421.957 -2.9750000000000005Q422.51800000000003 -3.4680000000000004 422.89200000000005 -4.08Q423.266 -4.692 423.504 -5.338L425.68 -4.42Q425.272 -3.434 424.64300000000003 -2.5330000000000004Q424.014 -1.6320000000000001 423.13 -0.9690000000000001Q422.246 -0.30600000000000005 421.209 -0.017000000000000015Q420.172 0.272 419.152 0.272ZM417.52 -9.690000000000001Q417.962 -9.690000000000001 418.421 -9.724Q418.88 -9.758000000000001 419.339 -9.809000000000001Q419.798 -9.860000000000001 420.257 -9.945Q420.716 -10.030000000000001 421.158 -10.149000000000001Q421.6 -10.268 422.04200000000003 -10.472000000000001Q422.484 -10.676 422.858 -10.982Q423.232 -11.288 423.453 -11.73Q423.674 -12.172 423.742 -12.614Q423.844 -13.226 423.725 -13.838000000000001Q423.606 -14.450000000000001 423.21500000000003 -14.875Q422.824 -15.3 422.22900000000004 -15.487000000000002Q421.634 -15.674000000000001 421.022 -15.674000000000001Q420.512 -15.674000000000001 420.002 -15.521Q419.492 -15.368 419.05 -15.062000000000001Q418.608 -14.756 418.251 -14.314Q417.894 -13.872000000000002 417.673 -13.396Q417.452 -12.920000000000002 417.31600000000003 -12.41Q417.18 -11.9 417.07800000000003 -11.424000000000001L416.806 -9.724Q416.976 -9.724 417.163 -9.707Q417.35 -9.690000000000001 417.52 -9.690000000000001Z M440.028 0.0 443.088 -14.994000000000002H442.034V-17.68H447.474L447.168 -16.32Q447.44 -16.66 447.746 -16.966Q448.052 -17.272000000000002 448.42600000000004 -17.493000000000002Q448.8 -17.714000000000002 449.242 -17.833000000000002Q449.684 -17.952 450.092 -17.952Q450.67 -17.952 451.163 -17.731Q451.656 -17.51 451.911 -17.136000000000003Q452.166 -16.762 452.28499999999997 -16.32Q452.404 -15.878000000000002 452.438 -15.436000000000002Q452.642 -15.878000000000002 452.93100000000004 -16.337000000000003Q453.22 -16.796000000000003 453.696 -17.153000000000002Q454.172 -17.51 454.733 -17.731Q455.294 -17.952 455.872 -17.952Q456.552 -17.952 457.045 -17.646Q457.538 -17.34 457.81 -16.881Q458.082 -16.422 458.16700000000003 -15.895Q458.252 -15.368 458.235 -14.841000000000001Q458.218 -14.314000000000002 458.15 -13.787000000000003Q458.082 -13.260000000000002 458.014 -12.716000000000001L455.94 -2.6860000000000004H456.994V0.0H451.55400000000003L454.24 -13.226Q454.274 -13.430000000000001 454.291 -13.617Q454.308 -13.804 454.342 -14.008000000000001Q454.37600000000003 -14.212000000000002 454.342 -14.399000000000001Q454.308 -14.586 454.274 -14.773Q454.24 -14.96 454.087 -15.113000000000001Q453.934 -15.266000000000002 453.696 -15.266000000000002Q453.458 -15.266000000000002 453.271 -15.113000000000001Q453.084 -14.96 452.948 -14.773Q452.812 -14.586 452.71000000000004 -14.399000000000001Q452.608 -14.212000000000002 452.53999999999996 -14.008000000000001Q452.472 -13.804 452.421 -13.600000000000001Q452.37 -13.396 452.302 -13.192L449.65000000000003 0.0H445.808L448.46 -13.226Q448.494 -13.430000000000001 448.528 -13.617Q448.562 -13.804 448.579 -14.008000000000001Q448.596 -14.212000000000002 448.579 -14.399000000000001Q448.562 -14.586 448.51099999999997 -14.773Q448.46 -14.96 448.32399999999996 -15.113000000000001Q448.188 -15.266000000000002 447.916 -15.266000000000002Q447.678 -15.266000000000002 447.491 -15.113000000000001Q447.30400000000003 -14.96 447.168 -14.773Q447.032 -14.586 446.93 -14.399000000000001Q446.82800000000003 -14.212000000000002 446.77700000000004 -14.008000000000001Q446.726 -13.804 446.658 -13.600000000000001Q446.59000000000003 -13.396 446.556 -13.192L443.87 0.0Z M461.85600000000005 7.582000000000001Q461.10800000000006 7.582000000000001 460.41100000000006 7.497000000000001Q459.71400000000006 7.412000000000001 459.05100000000004 7.157Q458.38800000000003 6.902 457.86100000000005 6.477Q457.33400000000006 6.0520000000000005 457.0110000000001 5.457000000000001Q456.68800000000005 4.862 456.586 4.148Q456.48400000000004 3.434 456.586 2.72H459.136Q459.06800000000004 3.298 459.255 3.842Q459.442 4.386 459.867 4.709Q460.29200000000003 5.032 460.87 5.168Q461.44800000000004 5.304 462.026 5.304Q462.53600000000006 5.304 463.02900000000005 5.151Q463.52200000000005 4.998 463.98100000000005 4.675000000000001Q464.44000000000005 4.352 464.76300000000003 3.91Q465.086 3.4680000000000004 465.29 2.992Q465.494 2.516 465.63 2.023Q465.766 1.53 465.86800000000005 1.054L466.48 -2.652Q466.17400000000004 -2.04 465.71500000000003 -1.479Q465.25600000000003 -0.918 464.69500000000005 -0.51Q464.134 -0.10200000000000001 463.471 0.085Q462.80800000000005 0.272 462.16200000000003 0.272Q461.312 0.272 460.547 -0.017000000000000015Q459.78200000000004 -0.30600000000000005 459.27200000000005 -0.901Q458.76200000000006 -1.496 458.49 -2.261Q458.218 -3.0260000000000002 458.13300000000004 -3.8420000000000005Q458.04800000000006 -4.658 458.11600000000004 -5.508000000000001Q458.184 -6.3580000000000005 458.32000000000005 -7.208L459.68000000000006 -15.402000000000001H458.38800000000003V-17.68H462.63800000000003L460.836 -6.8340000000000005Q460.73400000000004 -6.29 460.68300000000005 -5.746Q460.63200000000006 -5.202 460.70000000000005 -4.675000000000001Q460.76800000000003 -4.148000000000001 460.92100000000005 -3.6550000000000002Q461.074 -3.1620000000000004 461.38 -2.7880000000000003Q461.68600000000004 -2.414 462.16200000000003 -2.21Q462.63800000000003 -2.0060000000000002 463.182 -2.0060000000000002Q463.896 -2.0060000000000002 464.644 -2.329Q465.39200000000005 -2.652 465.88500000000005 -3.2300000000000004Q466.37800000000004 -3.8080000000000003 466.63300000000004 -4.522Q466.88800000000003 -5.236000000000001 467.02400000000006 -5.95L468.96200000000005 -17.68H471.54600000000005L468.384 1.4280000000000002Q468.24800000000005 2.21 467.99300000000005 2.992Q467.73800000000006 3.7740000000000005 467.33000000000004 4.488Q466.922 5.202 466.31000000000006 5.814Q465.69800000000004 6.426 464.95000000000005 6.8340000000000005Q464.20200000000006 7.242000000000001 463.4200000000001 7.412000000000001Q462.63800000000003 7.582000000000001 461.85600000000005 7.582000000000001Z M489.396 0.0 488.13800000000003 -14.552000000000001H486.744L486.71000000000004 -17.68H492.49L492.83000000000004 -5.882000000000001Q492.86400000000003 -5.542000000000001 492.86400000000003 -5.1850000000000005Q492.86400000000003 -4.828 492.86400000000003 -4.454000000000001Q493.03400000000005 -4.828 493.20400000000006 -5.1850000000000005Q493.374 -5.542000000000001 493.47600000000006 -5.882000000000001L498.67800000000005 -17.68H503.302L494.564 0.0Z M507.484 0.272Q506.532 0.272 505.648 0.068Q504.764 -0.136 504.084 -0.6460000000000001Q503.404 -1.1560000000000001 502.962 -1.9210000000000003Q502.52 -2.6860000000000004 502.31600000000003 -3.553Q502.112 -4.42 502.146 -5.338Q502.18 -6.256 502.35 -7.208L503.098 -11.798Q503.234 -12.58 503.48900000000003 -13.362000000000002Q503.744 -14.144000000000002 504.18600000000004 -14.875000000000002Q504.628 -15.606000000000002 505.24 -16.218000000000004Q505.85200000000003 -16.830000000000002 506.617 -17.238Q507.382 -17.646 508.18100000000004 -17.799Q508.98 -17.952 509.762 -17.952Q510.714 -17.952 511.59799999999996 -17.748Q512.482 -17.544 513.162 -17.034Q513.842 -16.524 514.3009999999999 -15.759Q514.76 -14.994000000000002 514.947 -14.127000000000002Q515.134 -13.260000000000002 515.1 -12.342000000000002Q515.066 -11.424000000000001 514.9300000000001 -10.472000000000001L514.148 -5.882000000000001Q514.046 -5.1000000000000005 513.791 -4.3180000000000005Q513.5360000000001 -3.5360000000000005 513.094 -2.8050000000000006Q512.652 -2.0740000000000003 512.04 -1.4620000000000002Q511.428 -0.8500000000000001 510.663 -0.44200000000000006Q509.898 -0.034 509.082 0.11900000000000001Q508.266 0.272 507.484 0.272ZM507.484 -2.0060000000000002Q508.266 -2.0060000000000002 509.048 -2.346Q509.83 -2.6860000000000004 510.39099999999996 -3.3150000000000004Q510.952 -3.9440000000000004 511.241 -4.726Q511.53000000000003 -5.508 511.632 -6.256L512.414 -10.846Q512.482 -11.424000000000001 512.533 -11.968Q512.5840000000001 -12.512 512.5160000000001 -13.056000000000001Q512.448 -13.600000000000001 512.261 -14.093Q512.074 -14.586 511.7 -14.943000000000001Q511.326 -15.3 510.833 -15.487000000000002Q510.34000000000003 -15.674000000000001 509.762 -15.674000000000001Q508.98 -15.674000000000001 508.21500000000003 -15.334000000000001Q507.45 -14.994000000000002 506.889 -14.365000000000002Q506.32800000000003 -13.736 506.039 -12.954Q505.75 -12.172 505.61400000000003 -11.424000000000001L504.866 -6.8340000000000005Q504.764 -6.256 504.73 -5.712Q504.696 -5.168 504.764 -4.6240000000000006Q504.832 -4.08 505.019 -3.587Q505.206 -3.0940000000000003 505.563 -2.737Q505.92 -2.3800000000000003 506.413 -2.1930000000000005Q506.906 -2.0060000000000002 507.484 -2.0060000000000002Z M517.922 0.0 518.2620000000001 -15.402000000000001H517.004V-17.68H520.778L519.894 -4.08L522.8860000000001 -12.716000000000001H525.13L525.2660000000001 -4.08L528.87 -17.68H531.3520000000001L525.878 0.0H523.6L523.464 -9.554L520.2 0.0Z M537.064 0.272Q536.452 0.272 535.874 0.051000000000000004Q535.296 -0.17 534.922 -0.646Q534.548 -1.122 534.446 -1.7510000000000003Q534.344 -2.3800000000000003 534.446 -3.0260000000000002Q534.548 -3.4680000000000004 534.7860000000001 -3.8760000000000003Q535.024 -4.284000000000001 535.3810000000001 -4.556000000000001Q535.738 -4.828 536.1800000000001 -4.93Q536.622 -5.032 537.064 -5.032Q537.676 -5.032 538.271 -4.811Q538.866 -4.590000000000001 539.223 -4.114000000000001Q539.58 -3.6380000000000003 539.682 -3.0090000000000003Q539.784 -2.3800000000000003 539.682 -1.7340000000000002Q539.614 -1.292 539.376 -0.884Q539.138 -0.47600000000000003 538.764 -0.20400000000000001Q538.39 0.068 537.948 0.17Q537.506 0.272 537.064 0.272Z"/>
  </g>
</svg>
