<svg xmlns="http://www.w3.org/2000/svg" width="588" height="97" viewBox="0 0 588 97" role="img" aria-labelledby="title desc">
  <title id="title">Iosevka Term Slab Compact preview</title>
  <desc id="desc">Sphinx of black quartz, judge my vow.</desc>
  <rect width="100%" height="100%" rx="10" fill="#0d1117"/>
  <text x="24" y="34" fill="#8b949e" font-family="ui-monospace, SFMono-Regular, Menlo, Consolas, monospace" font-size="16">Iosevka Term Slab Compact</text>
  <g transform="translate(22.37 71.26)" fill="#f0f6fc">
    <path d="M8.262 0.272Q7.582000000000001 0.272 6.9190000000000005 0.136Q6.256 0.0 5.678000000000001 -0.34Q5.1000000000000005 -0.68 4.641 -1.1900000000000002Q4.182 -1.7000000000000002 3.8760000000000003 -2.3120000000000003V0.0H1.6320000000000001V-6.12H3.8760000000000003Q3.8760000000000003 -5.372000000000001 4.046 -4.607Q4.216 -3.842 4.675000000000001 -3.2300000000000004Q5.134 -2.6180000000000003 5.865 -2.3120000000000003Q6.596 -2.0060000000000002 7.344 -2.0060000000000002Q8.092 -2.0060000000000002 8.806000000000001 -2.295Q9.520000000000001 -2.584 9.979000000000001 -3.1790000000000003Q10.438 -3.7740000000000005 10.642 -4.505000000000001Q10.846 -5.236000000000001 10.846 -5.984Q10.846 -6.800000000000001 10.574000000000002 -7.6160000000000005Q10.302000000000001 -8.432 9.775000000000002 -9.112000000000002Q9.248000000000001 -9.792000000000002 8.551000000000002 -10.285Q7.854000000000001 -10.778 7.123000000000001 -11.203Q6.392 -11.628 5.678000000000001 -12.087Q4.964 -12.546000000000001 4.335000000000001 -13.107000000000001Q3.7060000000000004 -13.668000000000001 3.1960000000000006 -14.348Q2.6860000000000004 -15.028 2.329 -15.793Q1.9720000000000002 -16.558 1.802 -17.408Q1.6320000000000001 -18.258000000000003 1.6320000000000001 -19.074Q1.6320000000000001 -19.822000000000003 1.7510000000000001 -20.57Q1.87 -21.318 2.125 -22.015Q2.3800000000000003 -22.712000000000003 2.8050000000000006 -23.341Q3.2300000000000004 -23.970000000000002 3.825 -24.412000000000003Q4.42 -24.854000000000003 5.151 -25.058Q5.882000000000001 -25.262 6.630000000000001 -25.262Q7.3100000000000005 -25.262 7.956 -25.126Q8.602 -24.990000000000002 9.163 -24.650000000000002Q9.724 -24.310000000000002 10.149000000000001 -23.800000000000004Q10.574000000000002 -23.290000000000003 10.88 -22.712000000000003V-24.990000000000002H13.124V-18.87H10.88Q10.88 -19.618000000000002 10.727 -20.366Q10.574000000000002 -21.114 10.132000000000001 -21.726Q9.690000000000001 -22.338 8.993000000000002 -22.661Q8.296000000000001 -22.984 7.548000000000001 -22.984Q6.800000000000001 -22.984 6.120000000000001 -22.678Q5.44 -22.372 4.998 -21.794Q4.556 -21.216 4.369 -20.485Q4.182 -19.754 4.182 -19.040000000000003Q4.182 -18.19 4.454000000000001 -17.374000000000002Q4.726 -16.558 5.253 -15.895Q5.78 -15.232000000000001 6.477 -14.739Q7.174 -14.246 7.905000000000001 -13.804Q8.636000000000001 -13.362 9.333000000000002 -12.903Q10.030000000000001 -12.444 10.659 -11.883000000000001Q11.288 -11.322000000000001 11.815000000000001 -10.642000000000001Q12.342 -9.962000000000002 12.699000000000002 -9.197000000000001Q13.056000000000001 -8.432 13.226 -7.599Q13.396 -6.766000000000001 13.396 -5.916Q13.396 -5.168 13.260000000000002 -4.42Q13.124 -3.672 12.869 -2.958Q12.614 -2.244 12.172 -1.6150000000000002Q11.73 -0.9860000000000001 11.118 -0.544Q10.506 -0.10200000000000001 9.758 0.085Q9.01 0.272 8.262 0.272Z M21.080000000000002 7.3100000000000005H14.926V5.032H16.388V-15.402000000000001H14.926V-17.68H18.938000000000002V-14.552000000000001Q19.176000000000002 -15.266000000000002 19.567 -15.912Q19.958 -16.558 20.536 -17.034Q21.114 -17.51 21.828000000000003 -17.731Q22.542 -17.952 23.29 -17.952Q24.106 -17.952 24.854 -17.697000000000003Q25.602 -17.442 26.197000000000003 -16.915Q26.792 -16.388 27.166 -15.691000000000003Q27.54 -14.994000000000002 27.761 -14.246000000000002Q27.982 -13.498000000000001 28.067 -12.716000000000001Q28.152 -11.934000000000001 28.152 -11.152000000000001V-6.5280000000000005Q28.152 -5.746 28.067 -4.964Q27.982 -4.182 27.761 -3.434Q27.54 -2.6860000000000004 27.166 -1.9890000000000003Q26.792 -1.292 26.197000000000003 -0.765Q25.602 -0.23800000000000002 24.854 0.017Q24.106 0.272 23.29 0.272Q22.542 0.272 21.828000000000003 0.051000000000000004Q21.114 -0.17 20.536 -0.646Q19.958 -1.122 19.567 -1.7680000000000002Q19.176000000000002 -2.414 18.938000000000002 -3.128V5.032H21.080000000000002ZM22.27 -2.0060000000000002Q22.814 -2.0060000000000002 23.324 -2.176Q23.834000000000003 -2.346 24.242 -2.686Q24.65 -3.0260000000000002 24.922 -3.4850000000000003Q25.194000000000003 -3.9440000000000004 25.347 -4.454000000000001Q25.5 -4.964 25.551000000000002 -5.4910000000000005Q25.602 -6.018000000000001 25.602 -6.5280000000000005V-11.152000000000001Q25.602 -11.662 25.551000000000002 -12.189Q25.5 -12.716000000000001 25.347 -13.226Q25.194000000000003 -13.736 24.922 -14.195Q24.65 -14.654000000000002 24.242 -14.994000000000002Q23.834000000000003 -15.334000000000001 23.324 -15.504000000000001Q22.814 -15.674000000000001 22.27 -15.674000000000001Q21.726 -15.674000000000001 21.216 -15.504000000000001Q20.706 -15.334000000000001 20.298000000000002 -14.994000000000002Q19.89 -14.654000000000002 19.618000000000002 -14.195Q19.346 -13.736 19.192999999999998 -13.226Q19.04 -12.716000000000001 18.989 -12.189Q18.938000000000002 -11.662 18.938000000000002 -11.152000000000001V-6.5280000000000005Q18.938000000000002 -6.018000000000001 18.989 -5.4910000000000005Q19.04 -4.964 19.192999999999998 -4.454000000000001Q19.346 -3.9440000000000004 19.618000000000002 -3.4850000000000003Q19.89 -3.0260000000000002 20.298000000000002 -2.686Q20.706 -2.346 21.216 -2.176Q21.726 -2.0060000000000002 22.27 -2.0060000000000002Z M29.682000000000002 0.0V-2.278H31.144000000000002V-22.712000000000003H29.682000000000002V-24.990000000000002H33.694V-14.620000000000001Q33.932 -15.3 34.306 -15.929Q34.68 -16.558 35.224000000000004 -17.034Q35.768 -17.51 36.482 -17.731Q37.196 -17.952 37.910000000000004 -17.952Q38.692 -17.952 39.44 -17.697000000000003Q40.188 -17.442 40.766000000000005 -16.898000000000003Q41.344 -16.354000000000003 41.701 -15.657000000000002Q42.058 -14.96 42.278999999999996 -14.212Q42.5 -13.464 42.568 -12.682Q42.636 -11.9 42.636 -11.152000000000001V-2.278H44.098V0.0H38.658V-2.278H40.086V-11.152000000000001Q40.086 -11.662 40.035 -12.172Q39.984 -12.682 39.848 -13.192Q39.712 -13.702000000000002 39.457 -14.161000000000001Q39.202 -14.620000000000001 38.811 -14.977Q38.42 -15.334000000000001 37.91 -15.504000000000001Q37.4 -15.674000000000001 36.89 -15.674000000000001Q36.38 -15.674000000000001 35.870000000000005 -15.504000000000001Q35.36 -15.334000000000001 34.969 -14.977Q34.578 -14.620000000000001 34.323 -14.161000000000001Q34.068 -13.702000000000002 33.932 -13.192Q33.796 -12.682 33.745000000000005 -12.172Q33.694 -11.662 33.694 -11.152000000000001V-2.278H35.122V0.0Z M46.036 0.0V-2.278H50.592V-15.402000000000001H46.478V-17.68H53.142V-2.278H57.256V0.0ZM51.816 -20.672Q51.374 -20.672 50.966 -20.791Q50.558 -20.91 50.252 -21.216Q49.946000000000005 -21.522000000000002 49.827000000000005 -21.93Q49.708000000000006 -22.338 49.708000000000006 -22.78Q49.708000000000006 -23.222 49.827000000000005 -23.630000000000003Q49.946000000000005 -24.038 50.252 -24.344Q50.558 -24.650000000000002 50.966 -24.786Q51.374 -24.922 51.816 -24.922Q52.258 -24.922 52.666000000000004 -24.786Q53.074000000000005 -24.650000000000002 53.38000000000001 -24.344Q53.68600000000001 -24.038 53.822 -23.630000000000003Q53.958000000000006 -23.222 53.958000000000006 -22.78Q53.958000000000006 -22.338 53.822 -21.93Q53.68600000000001 -21.522000000000002 53.38000000000001 -21.216Q53.074000000000005 -20.91 52.666000000000004 -20.791Q52.258 -20.672 51.816 -20.672Z M59.194 0.0V-2.278H60.656V-15.402000000000001H59.194V-17.68H63.206V-14.620000000000001Q63.444 -15.3 63.818000000000005 -15.929Q64.19200000000001 -16.558 64.736 -17.034Q65.28 -17.51 65.994 -17.731Q66.708 -17.952 67.422 -17.952Q68.20400000000001 -17.952 68.952 -17.697000000000003Q69.7 -17.442 70.27799999999999 -16.898000000000003Q70.856 -16.354000000000003 71.213 -15.657000000000002Q71.57000000000001 -14.96 71.791 -14.212Q72.012 -13.464 72.08 -12.682Q72.148 -11.9 72.148 -11.152000000000001V-2.278H73.61V0.0H68.17V-2.278H69.598V-11.152000000000001Q69.598 -11.662 69.547 -12.172Q69.49600000000001 -12.682 69.36000000000001 -13.192Q69.224 -13.702000000000002 68.969 -14.161000000000001Q68.714 -14.620000000000001 68.32300000000001 -14.977Q67.932 -15.334000000000001 67.422 -15.504000000000001Q66.912 -15.674000000000001 66.402 -15.674000000000001Q65.892 -15.674000000000001 65.382 -15.504000000000001Q64.872 -15.334000000000001 64.481 -14.977Q64.09 -14.620000000000001 63.835 -14.161000000000001Q63.58 -13.702000000000002 63.444 -13.192Q63.308 -12.682 63.257000000000005 -12.172Q63.206 -11.662 63.206 -11.152000000000001V-2.278H64.634V0.0Z M73.95 0.0V-2.278H76.296L79.866 -8.84L76.296 -15.402000000000001H73.95V-17.68H79.39V-15.402000000000001H79.118L81.158 -11.39L83.19800000000001 -15.402000000000001H82.926V-17.68H88.366V-15.402000000000001H86.02L82.45 -8.84L86.02 -2.278H88.366V0.0H82.926V-2.278H83.19800000000001L81.158 -6.29L79.118 -2.278H79.39V0.0Z M110.67 0.272Q109.82000000000001 0.272 108.97 0.085Q108.12 -0.10200000000000001 107.372 -0.561Q106.624 -1.02 106.08 -1.7000000000000002Q105.536 -2.3800000000000003 105.213 -3.1790000000000003Q104.89 -3.978 104.771 -4.828Q104.652 -5.678000000000001 104.652 -6.5280000000000005V-11.152000000000001Q104.652 -12.002 104.771 -12.852Q104.89 -13.702000000000002 105.213 -14.501000000000001Q105.536 -15.3 106.08 -15.98Q106.624 -16.66 107.372 -17.119Q108.12 -17.578000000000003 108.97 -17.765Q109.82000000000001 -17.952 110.67 -17.952Q111.52 -17.952 112.37 -17.765Q113.22 -17.578000000000003 113.968 -17.119Q114.71600000000001 -16.66 115.26 -15.98Q115.804 -15.3 116.12700000000001 -14.501000000000001Q116.45 -13.702000000000002 116.569 -12.852Q116.688 -12.002 116.688 -11.152000000000001V-6.5280000000000005Q116.688 -5.678000000000001 116.569 -4.828Q116.45 -3.978 116.12700000000001 -3.1790000000000003Q115.804 -2.3800000000000003 115.26 -1.7000000000000002Q114.71600000000001 -1.02 113.968 -0.561Q113.22 -0.10200000000000001 112.37 0.085Q111.52 0.272 110.67 0.272ZM110.67 -2.0060000000000002Q111.214 -2.0060000000000002 111.741 -2.1590000000000003Q112.268 -2.3120000000000003 112.693 -2.652Q113.118 -2.992 113.407 -3.451Q113.696 -3.91 113.866 -4.42Q114.036 -4.930000000000001 114.087 -5.474Q114.138 -6.018000000000001 114.138 -6.5280000000000005V-11.152000000000001Q114.138 -11.662 114.087 -12.206000000000001Q114.036 -12.750000000000002 113.866 -13.260000000000002Q113.696 -13.770000000000001 113.407 -14.229000000000001Q113.118 -14.688 112.693 -15.028Q112.268 -15.368 111.741 -15.521Q111.214 -15.674000000000001 110.67 -15.674000000000001Q110.126 -15.674000000000001 109.599 -15.521Q109.072 -15.368 108.647 -15.028Q108.22200000000001 -14.688 107.933 -14.229000000000001Q107.644 -13.770000000000001 107.474 -13.260000000000002Q107.304 -12.750000000000002 107.253 -12.206000000000001Q107.202 -11.662 107.202 -11.152000000000001V-6.5280000000000005Q107.202 -6.018000000000001 107.253 -5.474Q107.304 -4.930000000000001 107.474 -4.42Q107.644 -3.91 107.933 -3.451Q108.22200000000001 -2.992 108.647 -2.652Q109.072 -2.3120000000000003 109.599 -2.1590000000000003Q110.126 -2.0060000000000002 110.67 -2.0060000000000002Z M119.918 0.0V-2.278H123.08V-13.736H119.68V-16.048000000000002H123.08V-19.89Q123.08 -20.536 123.148 -21.182000000000002Q123.21600000000001 -21.828000000000003 123.43700000000001 -22.457Q123.658 -23.086000000000002 124.03200000000001 -23.630000000000003Q124.406 -24.174000000000003 124.933 -24.548000000000002Q125.46000000000001 -24.922 126.10600000000001 -25.092Q126.75200000000001 -25.262 127.398 -25.262Q128.316 -25.262 129.183 -24.939Q130.05 -24.616000000000003 130.645 -23.919000000000004Q131.24 -23.222 131.495 -22.321Q131.75 -21.42 131.75 -20.536V-20.400000000000002H129.2V-20.468Q129.2 -20.91 129.115 -21.335Q129.03 -21.76 128.82600000000002 -22.134Q128.622 -22.508000000000003 128.231 -22.746000000000002Q127.84 -22.984 127.398 -22.984Q126.922 -22.984 126.514 -22.644000000000002Q126.106 -22.304000000000002 125.919 -21.845000000000002Q125.732 -21.386000000000003 125.664 -20.893Q125.596 -20.400000000000002 125.596 -19.89V-16.048000000000002H130.594V-13.736H125.596V-2.278H129.744V0.0Z M156.094 0.272Q155.346 0.272 154.632 0.051000000000000004Q153.918 -0.17 153.34 -0.646Q152.762 -1.122 152.37099999999998 -1.7680000000000002Q151.98 -2.414 151.742 -3.128V0.0H147.73V-2.278H149.192V-22.712000000000003H147.73V-24.990000000000002H151.742V-14.552000000000001Q151.98 -15.266000000000002 152.37099999999998 -15.912Q152.762 -16.558 153.34 -17.034Q153.918 -17.51 154.632 -17.731Q155.346 -17.952 156.094 -17.952Q156.91 -17.952 157.65800000000002 -17.697000000000003Q158.406 -17.442 159.001 -16.915Q159.596 -16.388 159.97 -15.691000000000003Q160.344 -14.994000000000002 160.565 -14.246000000000002Q160.786 -13.498000000000001 160.871 -12.716000000000001Q160.95600000000002 -11.934000000000001 160.95600000000002 -11.152000000000001V-6.5280000000000005Q160.95600000000002 -5.746 160.871 -4.964Q160.786 -4.182 160.565 -3.434Q160.344 -2.6860000000000004 159.97 -1.9890000000000003Q159.596 -1.292 159.001 -0.765Q158.406 -0.23800000000000002 157.65800000000002 0.017Q156.91 0.272 156.094 0.272ZM155.074 -2.0060000000000002Q155.618 -2.0060000000000002 156.128 -2.176Q156.638 -2.346 157.046 -2.686Q157.454 -3.0260000000000002 157.726 -3.4850000000000003Q157.998 -3.9440000000000004 158.151 -4.454000000000001Q158.304 -4.964 158.35500000000002 -5.4910000000000005Q158.406 -6.018000000000001 158.406 -6.5280000000000005V-11.152000000000001Q158.406 -11.662 158.35500000000002 -12.189Q158.304 -12.716000000000001 158.151 -13.226Q157.998 -13.736 157.726 -14.195Q157.454 -14.654000000000002 157.046 -14.994000000000002Q156.638 -15.334000000000001 156.128 -15.504000000000001Q155.618 -15.674000000000001 155.074 -15.674000000000001Q154.53 -15.674000000000001 154.01999999999998 -15.504000000000001Q153.51 -15.334000000000001 153.102 -14.994000000000002Q152.69400000000002 -14.654000000000002 152.42200000000003 -14.195Q152.15 -13.736 151.997 -13.226Q151.844 -12.716000000000001 151.793 -12.189Q151.742 -11.662 151.742 -11.152000000000001V-6.5280000000000005Q151.742 -6.018000000000001 151.793 -5.4910000000000005Q151.844 -4.964 151.997 -4.454000000000001Q152.15 -3.9440000000000004 152.42200000000003 -3.4850000000000003Q152.69400000000002 -3.0260000000000002 153.102 -2.686Q153.51 -2.346 154.01999999999998 -2.176Q154.53 -2.0060000000000002 155.074 -2.0060000000000002Z M164.084 0.0V-2.278H168.64000000000001V-22.712000000000003H164.526V-24.990000000000002H171.19V-2.278H175.304V0.0Z M183.26 0.272Q182.274 0.272 181.322 -0.05099999999999999Q180.37 -0.374 179.69 -1.088Q179.01 -1.802 178.721 -2.771Q178.43200000000002 -3.74 178.43200000000002 -4.726Q178.43200000000002 -5.542000000000001 178.61900000000003 -6.3580000000000005Q178.806 -7.174 179.248 -7.871Q179.69 -8.568000000000001 180.37 -9.061Q181.05 -9.554 181.815 -9.843Q182.58 -10.132000000000001 183.39600000000002 -10.234000000000002Q184.212 -10.336 185.028 -10.336H187.64600000000002V-12.24Q187.64600000000002 -12.920000000000002 187.459 -13.583000000000002Q187.272 -14.246 186.82999999999998 -14.739Q186.388 -15.232000000000001 185.74200000000002 -15.453000000000001Q185.096 -15.674000000000001 184.416 -15.674000000000001Q183.804 -15.674000000000001 183.209 -15.521Q182.614 -15.368 182.138 -14.977Q181.662 -14.586 181.424 -14.008000000000001Q181.186 -13.430000000000001 181.186 -12.852V-12.750000000000002H178.636V-12.920000000000002Q178.636 -13.634 178.82299999999998 -14.331Q179.01 -15.028 179.401 -15.64Q179.792 -16.252000000000002 180.353 -16.711000000000002Q180.91400000000002 -17.17 181.577 -17.459000000000003Q182.24 -17.748 182.971 -17.85Q183.702 -17.952 184.416 -17.952Q185.198 -17.952 185.96300000000002 -17.816000000000003Q186.728 -17.68 187.40800000000002 -17.34Q188.088 -17.0 188.649 -16.456Q189.21 -15.912 189.567 -15.232000000000001Q189.924 -14.552000000000001 190.06 -13.787Q190.196 -13.022 190.196 -12.24V-2.278H191.65800000000002V0.0H187.64600000000002V-2.7880000000000003Q187.40800000000002 -2.108 186.983 -1.5130000000000001Q186.558 -0.918 185.98000000000002 -0.51Q185.40200000000002 -0.10200000000000001 184.688 0.085Q183.974 0.272 183.26 0.272ZM184.314 -2.0060000000000002Q185.028 -2.0060000000000002 185.725 -2.295Q186.422 -2.584 186.864 -3.1450000000000005Q187.306 -3.7060000000000004 187.476 -4.437Q187.64600000000002 -5.168 187.64600000000002 -5.882000000000001V-8.058H185.028Q184.552 -8.058 184.059 -8.007Q183.566 -7.956 183.12400000000002 -7.803000000000001Q182.68200000000002 -7.65 182.257 -7.3950000000000005Q181.832 -7.140000000000001 181.526 -6.766Q181.22 -6.392 181.101 -5.916Q180.982 -5.44 180.982 -4.964Q180.982 -4.3180000000000005 181.22 -3.7230000000000003Q181.458 -3.128 181.934 -2.72Q182.41 -2.3120000000000003 183.039 -2.1590000000000003Q183.668 -2.0060000000000002 184.314 -2.0060000000000002Z M199.104 0.272Q198.254 0.272 197.404 0.085Q196.554 -0.10200000000000001 195.84 -0.561Q195.126 -1.02 194.599 -1.717Q194.072 -2.414 193.74900000000002 -3.196Q193.42600000000002 -3.978 193.30700000000002 -4.828Q193.18800000000002 -5.678000000000001 193.18800000000002 -6.5280000000000005V-11.152000000000001Q193.18800000000002 -11.934000000000001 193.27300000000002 -12.733Q193.358 -13.532000000000002 193.613 -14.314000000000002Q193.868 -15.096000000000002 194.293 -15.793000000000003Q194.718 -16.490000000000002 195.32999999999998 -17.0Q195.942 -17.51 196.74099999999999 -17.731Q197.54 -17.952 198.322 -17.952Q199.002 -17.952 199.66500000000002 -17.816000000000003Q200.328 -17.68 200.906 -17.34Q201.484 -17.0 201.943 -16.490000000000002Q202.40200000000002 -15.98 202.708 -15.368V-17.68H204.952V-11.56H202.708Q202.708 -12.308000000000002 202.538 -13.073Q202.368 -13.838000000000001 201.909 -14.450000000000001Q201.45 -15.062000000000001 200.719 -15.368000000000002Q199.988 -15.674000000000001 199.24 -15.674000000000001Q198.696 -15.674000000000001 198.16899999999998 -15.521Q197.642 -15.368 197.21699999999998 -15.028Q196.792 -14.688 196.486 -14.229000000000001Q196.18 -13.770000000000001 196.01 -13.260000000000002Q195.84 -12.750000000000002 195.789 -12.206000000000001Q195.738 -11.662 195.738 -11.152000000000001V-6.5280000000000005Q195.738 -6.018000000000001 195.789 -5.4910000000000005Q195.84 -4.964 196.01 -4.454000000000001Q196.18 -3.9440000000000004 196.452 -3.468Q196.724 -2.992 197.132 -2.669Q197.54 -2.346 198.05 -2.176Q198.56 -2.0060000000000002 199.104 -2.0060000000000002Q199.852 -2.0060000000000002 200.53199999999998 -2.3120000000000003Q201.212 -2.6180000000000003 201.654 -3.213Q202.096 -3.8080000000000003 202.28300000000002 -4.522Q202.47 -5.236000000000001 202.47 -5.984V-6.12H205.02V-5.882000000000001Q205.02 -5.1000000000000005 204.85000000000002 -4.301Q204.68 -3.5020000000000002 204.34 -2.771Q204.0 -2.04 203.45600000000002 -1.428Q202.912 -0.8160000000000001 202.215 -0.42500000000000004Q201.518 -0.034 200.719 0.11900000000000001Q199.92000000000002 0.272 199.104 0.272Z M207.23 0.0V-2.278H208.692V-22.712000000000003H207.23V-24.990000000000002H211.208V-9.146L217.43 -17.68H221.17000000000002V-15.402000000000001H218.722L214.37 -9.622L219.028 -2.278H221.17000000000002V0.0H217.566L212.90800000000002 -7.684L211.208 -5.474V-2.278H212.67000000000002V0.0Z M244.528 7.3100000000000005V5.032H246.67000000000002V-3.128Q246.43200000000002 -2.414 246.041 -1.7680000000000002Q245.65 -1.122 245.072 -0.646Q244.494 -0.17 243.78 0.051000000000000004Q243.066 0.272 242.318 0.272Q241.502 0.272 240.75400000000002 0.017Q240.006 -0.23800000000000002 239.411 -0.765Q238.816 -1.292 238.442 -1.9890000000000003Q238.068 -2.6860000000000004 237.847 -3.434Q237.626 -4.182 237.541 -4.964Q237.45600000000002 -5.746 237.45600000000002 -6.5280000000000005V-11.152000000000001Q237.45600000000002 -11.934000000000001 237.541 -12.716000000000001Q237.626 -13.498000000000001 237.847 -14.246000000000002Q238.068 -14.994000000000002 238.442 -15.691000000000003Q238.816 -16.388 239.411 -16.915Q240.006 -17.442 240.75400000000002 -17.697000000000003Q241.502 -17.952 242.318 -17.952Q243.066 -17.952 243.78 -17.731Q244.494 -17.51 245.072 -17.034Q245.65 -16.558 246.041 -15.912Q246.43200000000002 -15.266000000000002 246.67000000000002 -14.552000000000001V-17.68H250.68200000000002V-15.402000000000001H249.22V5.032H250.68200000000002V7.3100000000000005ZM243.338 -2.0060000000000002Q243.882 -2.0060000000000002 244.392 -2.176Q244.90200000000002 -2.346 245.31 -2.686Q245.71800000000002 -3.0260000000000002 245.99 -3.4850000000000003Q246.262 -3.9440000000000004 246.41500000000002 -4.454000000000001Q246.568 -4.964 246.61900000000003 -5.4910000000000005Q246.67000000000002 -6.018000000000001 246.67000000000002 -6.5280000000000005V-11.152000000000001Q246.67000000000002 -11.662 246.61900000000003 -12.189Q246.568 -12.716000000000001 246.41500000000002 -13.226Q246.262 -13.736 245.99 -14.195Q245.71800000000002 -14.654000000000002 245.31 -14.994000000000002Q244.90200000000002 -15.334000000000001 244.392 -15.504000000000001Q243.882 -15.674000000000001 243.338 -15.674000000000001Q242.794 -15.674000000000001 242.284 -15.504000000000001Q241.774 -15.334000000000001 241.36599999999999 -14.994000000000002Q240.958 -14.654000000000002 240.686 -14.195Q240.41400000000002 -13.736 240.26100000000002 -13.226Q240.108 -12.716000000000001 240.05700000000002 -12.189Q240.006 -11.662 240.006 -11.152000000000001V-6.5280000000000005Q240.006 -6.018000000000001 240.05700000000002 -5.4910000000000005Q240.108 -4.964 240.26100000000002 -4.454000000000001Q240.41400000000002 -3.9440000000000004 240.686 -3.4850000000000003Q240.958 -3.0260000000000002 241.36599999999999 -2.686Q241.774 -2.346 242.284 -2.176Q242.794 -2.0060000000000002 243.338 -2.0060000000000002Z M257.21 0.272Q256.428 0.272 255.68 0.017Q254.93200000000002 -0.23800000000000002 254.354 -0.782Q253.776 -1.326 253.419 -2.023Q253.062 -2.72 252.841 -3.468Q252.62 -4.216 252.55200000000002 -4.998Q252.484 -5.78 252.484 -6.5280000000000005V-15.402000000000001H251.022V-17.68H255.034V-6.5280000000000005Q255.034 -6.018000000000001 255.08499999999998 -5.508000000000001Q255.136 -4.998 255.272 -4.488Q255.40800000000002 -3.978 255.663 -3.519Q255.918 -3.06 256.30899999999997 -2.7030000000000003Q256.7 -2.346 257.21000000000004 -2.176Q257.72 -2.0060000000000002 258.23 -2.0060000000000002Q258.74 -2.0060000000000002 259.25 -2.176Q259.76 -2.346 260.151 -2.7030000000000003Q260.54200000000003 -3.06 260.797 -3.519Q261.052 -3.978 261.188 -4.488Q261.324 -4.998 261.375 -5.508000000000001Q261.426 -6.018000000000001 261.426 -6.5280000000000005V-15.402000000000001H259.998V-17.68H263.976V-2.278H265.438V0.0H261.426V-3.06Q261.188 -2.3800000000000003 260.81399999999996 -1.7510000000000003Q260.44 -1.122 259.89599999999996 -0.646Q259.352 -0.17 258.638 0.051000000000000004Q257.924 0.272 257.21 0.272Z M271.796 0.272Q270.81 0.272 269.858 -0.05099999999999999Q268.906 -0.374 268.226 -1.088Q267.546 -1.802 267.257 -2.771Q266.968 -3.74 266.968 -4.726Q266.968 -5.542000000000001 267.155 -6.3580000000000005Q267.342 -7.174 267.784 -7.871Q268.226 -8.568000000000001 268.906 -9.061Q269.586 -9.554 270.351 -9.843Q271.116 -10.132000000000001 271.932 -10.234000000000002Q272.748 -10.336 273.564 -10.336H276.182V-12.24Q276.182 -12.920000000000002 275.995 -13.583000000000002Q275.808 -14.246 275.366 -14.739Q274.924 -15.232000000000001 274.278 -15.453000000000001Q273.632 -15.674000000000001 272.952 -15.674000000000001Q272.34000000000003 -15.674000000000001 271.745 -15.521Q271.15 -15.368 270.674 -14.977Q270.198 -14.586 269.96 -14.008000000000001Q269.722 -13.430000000000001 269.722 -12.852V-12.750000000000002H267.172V-12.920000000000002Q267.172 -13.634 267.35900000000004 -14.331Q267.546 -15.028 267.937 -15.64Q268.32800000000003 -16.252000000000002 268.889 -16.711000000000002Q269.45 -17.17 270.113 -17.459000000000003Q270.776 -17.748 271.507 -17.85Q272.238 -17.952 272.952 -17.952Q273.734 -17.952 274.499 -17.816000000000003Q275.264 -17.68 275.944 -17.34Q276.624 -17.0 277.185 -16.456Q277.746 -15.912 278.10299999999995 -15.232000000000001Q278.46 -14.552000000000001 278.596 -13.787Q278.732 -13.022 278.732 -12.24V-2.278H280.194V0.0H276.182V-2.7880000000000003Q275.944 -2.108 275.519 -1.5130000000000001Q275.094 -0.918 274.51599999999996 -0.51Q273.938 -0.10200000000000001 273.224 0.085Q272.51 0.272 271.796 0.272ZM272.85 -2.0060000000000002Q273.564 -2.0060000000000002 274.261 -2.295Q274.958 -2.584 275.4 -3.1450000000000005Q275.842 -3.7060000000000004 276.012 -4.437Q276.182 -5.168 276.182 -5.882000000000001V-8.058H273.564Q273.088 -8.058 272.595 -8.007Q272.10200000000003 -7.956 271.66 -7.803000000000001Q271.218 -7.65 270.793 -7.3950000000000005Q270.368 -7.140000000000001 270.062 -6.766Q269.75600000000003 -6.392 269.63700000000006 -5.916Q269.51800000000003 -5.44 269.51800000000003 -4.964Q269.51800000000003 -4.3180000000000005 269.75600000000003 -3.7230000000000003Q269.994 -3.128 270.47 -2.72Q270.946 -2.3120000000000003 271.57500000000005 -2.1590000000000003Q272.204 -2.0060000000000002 272.85 -2.0060000000000002Z M281.826 0.0V-2.278H284.444V-15.402000000000001H281.826V-17.68H286.994V-13.804Q287.16400000000004 -14.586 287.4870000000001 -15.317Q287.81000000000006 -16.048000000000002 288.30300000000005 -16.643Q288.79600000000005 -17.238 289.52700000000004 -17.595Q290.25800000000004 -17.952 291.04 -17.952Q291.55 -17.952 292.06000000000006 -17.799Q292.57000000000005 -17.646 292.9440000000001 -17.289Q293.31800000000004 -16.932000000000002 293.57300000000004 -16.473000000000003Q293.82800000000003 -16.014000000000003 293.947 -15.521Q294.06600000000003 -15.028 294.117 -14.501000000000001Q294.168 -13.974 294.168 -13.464H291.61800000000005Q291.61800000000005 -13.838000000000001 291.567 -14.229000000000001Q291.516 -14.620000000000001 291.32900000000006 -14.943000000000001Q291.14200000000005 -15.266000000000002 290.802 -15.470000000000002Q290.46200000000005 -15.674000000000001 290.088 -15.674000000000001Q289.612 -15.674000000000001 289.153 -15.470000000000002Q288.694 -15.266000000000002 288.37100000000004 -14.892000000000001Q288.04800000000006 -14.518 287.82700000000006 -14.093Q287.60600000000005 -13.668000000000001 287.47 -13.209000000000001Q287.33400000000006 -12.750000000000002 287.2320000000001 -12.274000000000001Q287.13000000000005 -11.798 287.07900000000006 -11.305Q287.028 -10.812000000000001 287.011 -10.336000000000002Q286.994 -9.860000000000001 286.994 -9.384V-2.278H290.122V0.0Z M304.47 0.272Q303.75600000000003 0.272 303.059 0.085Q302.362 -0.10200000000000001 301.80100000000004 -0.51Q301.24 -0.918 300.832 -1.5130000000000001Q300.424 -2.108 300.203 -2.771Q299.982 -3.434 299.89700000000005 -4.148Q299.812 -4.862 299.812 -5.542000000000001V-15.402000000000001H296.752V-17.68H299.812V-24.990000000000002H302.362V-17.68H307.938V-15.402000000000001H302.362V-5.542000000000001Q302.362 -5.168 302.379 -4.777Q302.396 -4.386 302.481 -4.0120000000000005Q302.56600000000003 -3.6380000000000003 302.71900000000005 -3.2810000000000006Q302.872 -2.9240000000000004 303.127 -2.6350000000000002Q303.382 -2.346 303.73900000000003 -2.176Q304.096 -2.0060000000000002 304.47 -2.0060000000000002Q304.878 -2.0060000000000002 305.235 -2.2270000000000003Q305.592 -2.4480000000000004 305.83 -2.7880000000000003Q306.068 -3.128 306.204 -3.5020000000000002Q306.34000000000003 -3.8760000000000003 306.425 -4.284000000000001Q306.51 -4.692 306.544 -5.1Q306.57800000000003 -5.508 306.57800000000003 -5.916V-6.12H309.128V-5.814Q309.128 -5.1000000000000005 309.02599999999995 -4.386Q308.924 -3.672 308.703 -2.992Q308.482 -2.3120000000000003 308.091 -1.6830000000000003Q307.7 -1.054 307.139 -0.595Q306.57800000000003 -0.136 305.88100000000003 0.068Q305.184 0.272 304.47 0.272Z M311.50800000000004 0.0V-2.278L320.314 -15.402000000000001H313.752V-12.750000000000002H311.50800000000004V-17.68H323.00000000000006V-15.402000000000001L314.194 -2.278H320.75600000000003V-4.930000000000001H323.00000000000006V0.0Z M330.786 7.3100000000000005 328.848 5.814Q329.936 4.6240000000000006 330.82 3.2300000000000004Q331.704 1.836 332.18 0.272H331.976Q331.466 0.272 330.93899999999996 0.10200000000000001Q330.412 -0.068 330.038 -0.44200000000000006Q329.664 -0.8160000000000001 329.51099999999997 -1.326Q329.358 -1.836 329.358 -2.3800000000000003Q329.358 -2.9240000000000004 329.51099999999997 -3.434Q329.664 -3.9440000000000004 330.055 -4.335Q330.446 -4.726 330.956 -4.879Q331.466 -5.032 332.01 -5.032Q332.55400000000003 -5.032 333.098 -4.862Q333.642 -4.692 334.01599999999996 -4.301Q334.39 -3.91 334.526 -3.366Q334.66200000000003 -2.822 334.66200000000003 -2.278Q334.66200000000003 -0.9520000000000001 334.356 0.34Q334.05 1.6320000000000001 333.523 2.8390000000000004Q332.996 4.046 332.299 5.168Q331.60200000000003 6.29 330.786 7.3100000000000005Z M359.89 7.582000000000001Q358.87 7.582000000000001 357.867 7.208Q356.86400000000003 6.8340000000000005 356.184 6.0520000000000005Q355.504 5.2700000000000005 355.198 4.267Q354.892 3.2640000000000002 354.892 2.21H357.408Q357.408 2.754 357.544 3.3150000000000004Q357.68 3.8760000000000003 357.986 4.335000000000001Q358.29200000000003 4.7940000000000005 358.819 5.049Q359.346 5.304 359.89 5.304Q360.366 5.304 360.791 5.083Q361.216 4.862 361.505 4.4879999999999995Q361.794 4.114 361.964 3.672Q362.134 3.2300000000000004 362.236 2.7880000000000003Q362.338 2.346 362.372 1.87Q362.406 1.3940000000000001 362.406 0.918V-15.402000000000001H358.05400000000003V-17.68H364.922V0.918Q364.922 1.7340000000000002 364.837 2.516Q364.752 3.298 364.514 4.046Q364.276 4.7940000000000005 363.868 5.474Q363.46 6.154000000000001 362.831 6.647Q362.202 7.140000000000001 361.437 7.361000000000001Q360.672 7.582000000000001 359.89 7.582000000000001ZM363.392 -20.672Q362.95 -20.672 362.54200000000003 -20.791Q362.134 -20.91 361.828 -21.216Q361.522 -21.522000000000002 361.403 -21.93Q361.284 -22.338 361.284 -22.78Q361.284 -23.222 361.403 -23.630000000000003Q361.522 -24.038 361.828 -24.344Q362.134 -24.650000000000002 362.54200000000003 -24.786Q362.95 -24.922 363.392 -24.922Q363.834 -24.922 364.242 -24.786Q364.65000000000003 -24.650000000000002 364.956 -24.344Q365.262 -24.038 365.398 -23.630000000000003Q365.534 -23.222 365.534 -22.78Q365.534 -22.338 365.398 -21.93Q365.262 -21.522000000000002 364.956 -21.216Q364.65000000000003 -20.91 364.242 -20.791Q363.834 -20.672 363.392 -20.672Z M375.25800000000004 0.272Q374.47600000000006 0.272 373.72800000000007 0.017Q372.98 -0.23800000000000002 372.40200000000004 -0.782Q371.824 -1.326 371.467 -2.023Q371.11 -2.72 370.889 -3.468Q370.668 -4.216 370.6 -4.998Q370.53200000000004 -5.78 370.53200000000004 -6.5280000000000005V-15.402000000000001H369.07000000000005V-17.68H373.08200000000005V-6.5280000000000005Q373.08200000000005 -6.018000000000001 373.13300000000004 -5.508000000000001Q373.184 -4.998 373.32000000000005 -4.488Q373.456 -3.978 373.711 -3.519Q373.966 -3.06 374.357 -2.7030000000000003Q374.74800000000005 -2.346 375.25800000000004 -2.176Q375.76800000000003 -2.0060000000000002 376.278 -2.0060000000000002Q376.788 -2.0060000000000002 377.298 -2.176Q377.80800000000005 -2.346 378.19900000000007 -2.7030000000000003Q378.59000000000003 -3.06 378.845 -3.519Q379.1 -3.978 379.236 -4.488Q379.372 -4.998 379.423 -5.508000000000001Q379.47400000000005 -6.018000000000001 379.47400000000005 -6.5280000000000005V-15.402000000000001H378.04600000000005V-17.68H382.02400000000006V-2.278H383.48600000000005V0.0H379.47400000000005V-3.06Q379.23600000000005 -2.3800000000000003 378.8620000000001 -1.7510000000000003Q378.48800000000006 -1.122 377.9440000000001 -0.646Q377.40000000000003 -0.17 376.68600000000004 0.051000000000000004Q375.97200000000004 0.272 375.25800000000004 0.272Z M389.878 0.272Q389.062 0.272 388.314 0.017Q387.56600000000003 -0.23800000000000002 386.971 -0.765Q386.37600000000003 -1.292 386.002 -1.9890000000000003Q385.628 -2.6860000000000004 385.407 -3.434Q385.186 -4.182 385.101 -4.964Q385.016 -5.746 385.016 -6.5280000000000005V-11.152000000000001Q385.016 -11.934000000000001 385.101 -12.716000000000001Q385.186 -13.498000000000001 385.407 -14.246000000000002Q385.628 -14.994000000000002 386.002 -15.691000000000003Q386.37600000000003 -16.388 386.971 -16.915Q387.56600000000003 -17.442 388.314 -17.697000000000003Q389.062 -17.952 389.878 -17.952Q390.62600000000003 -17.952 391.34000000000003 -17.731Q392.05400000000003 -17.51 392.632 -17.034Q393.21 -16.558 393.601 -15.912Q393.992 -15.266000000000002 394.23 -14.552000000000001V-22.712000000000003H392.802V-24.990000000000002H396.78000000000003V-2.278H398.242V0.0H394.23V-3.128Q393.992 -2.414 393.601 -1.7680000000000002Q393.21 -1.122 392.632 -0.646Q392.05400000000003 -0.17 391.34000000000003 0.051000000000000004Q390.62600000000003 0.272 389.878 0.272ZM390.898 -2.0060000000000002Q391.442 -2.0060000000000002 391.952 -2.176Q392.462 -2.346 392.87 -2.686Q393.278 -3.0260000000000002 393.55 -3.4850000000000003Q393.822 -3.9440000000000004 393.975 -4.454000000000001Q394.128 -4.964 394.179 -5.4910000000000005Q394.23 -6.018000000000001 394.23 -6.5280000000000005V-11.152000000000001Q394.23 -11.662 394.179 -12.189Q394.128 -12.716000000000001 393.975 -13.226Q393.822 -13.736 393.55 -14.195Q393.278 -14.654000000000002 392.87 -14.994000000000002Q392.462 -15.334000000000001 391.952 -15.504000000000001Q391.442 -15.674000000000001 390.898 -15.674000000000001Q390.354 -15.674000000000001 389.844 -15.504000000000001Q389.334 -15.334000000000001 388.92600000000004 -14.994000000000002Q388.51800000000003 -14.654000000000002 388.246 -14.195Q387.974 -13.736 387.821 -13.226Q387.668 -12.716000000000001 387.617 -12.189Q387.56600000000003 -11.662 387.56600000000003 -11.152000000000001V-6.5280000000000005Q387.56600000000003 -6.018000000000001 387.617 -5.4910000000000005Q387.668 -4.964 387.821 -4.454000000000001Q387.974 -3.9440000000000004 388.246 -3.4850000000000003Q388.51800000000003 -3.0260000000000002 388.92600000000004 -2.686Q389.334 -2.346 389.844 -2.176Q390.354 -2.0060000000000002 390.898 -2.0060000000000002Z M405.72200000000004 7.582000000000001Q404.668 7.582000000000001 403.61400000000003 7.327000000000001Q402.56000000000006 7.072000000000001 401.744 6.409000000000001Q400.92800000000005 5.746 400.46900000000005 4.760000000000001Q400.01000000000005 3.7740000000000005 399.97600000000006 2.72H402.526Q402.526 3.298 402.798 3.825Q403.07000000000005 4.352 403.52900000000005 4.692Q403.98800000000006 5.032 404.56600000000003 5.168Q405.14400000000006 5.304 405.72200000000004 5.304Q406.232 5.304 406.742 5.134Q407.252 4.964 407.66 4.6240000000000006Q408.06800000000004 4.284000000000001 408.32300000000004 3.8080000000000007Q408.57800000000003 3.3320000000000003 408.731 2.8390000000000004Q408.884 2.346 408.93500000000006 1.819Q408.98600000000005 1.292 408.98600000000005 0.782V-3.128Q408.74800000000005 -2.414 408.357 -1.7680000000000002Q407.966 -1.122 407.38800000000003 -0.646Q406.81000000000006 -0.17 406.09600000000006 0.051000000000000004Q405.38200000000006 0.272 404.634 0.272Q403.81800000000004 0.272 403.07000000000005 0.017Q402.32200000000006 -0.23800000000000002 401.7270000000001 -0.765Q401.13200000000006 -1.292 400.75800000000004 -1.9890000000000003Q400.384 -2.6860000000000004 400.163 -3.434Q399.942 -4.182 399.857 -4.964Q399.77200000000005 -5.746 399.77200000000005 -6.5280000000000005V-11.152000000000001Q399.77200000000005 -11.934000000000001 399.857 -12.716000000000001Q399.942 -13.498000000000001 400.163 -14.246000000000002Q400.384 -14.994000000000002 400.75800000000004 -15.691000000000003Q401.13200000000006 -16.388 401.7270000000001 -16.915Q402.32200000000006 -17.442 403.07000000000005 -17.697000000000003Q403.81800000000004 -17.952 404.634 -17.952Q405.38200000000006 -17.952 406.09600000000006 -17.731Q406.81000000000006 -17.51 407.38800000000003 -17.034Q407.966 -16.558 408.357 -15.912Q408.74800000000005 -15.266000000000002 408.98600000000005 -14.552000000000001V-17.68H412.99800000000005V-15.402000000000001H411.53600000000006V0.782Q411.53600000000006 1.598 411.41700000000003 2.448Q411.29800000000006 3.298 410.9920000000001 4.097Q410.68600000000004 4.896000000000001 410.17600000000004 5.5760000000000005Q409.66600000000005 6.256 408.95200000000006 6.732Q408.23800000000006 7.208 407.4050000000001 7.3950000000000005Q406.57200000000006 7.582000000000001 405.72200000000004 7.582000000000001ZM405.65400000000005 -2.0060000000000002Q406.19800000000004 -2.0060000000000002 406.708 -2.176Q407.218 -2.346 407.62600000000003 -2.686Q408.03400000000005 -3.0260000000000002 408.30600000000004 -3.4850000000000003Q408.57800000000003 -3.9440000000000004 408.731 -4.454000000000001Q408.884 -4.964 408.93500000000006 -5.4910000000000005Q408.98600000000005 -6.018000000000001 408.98600000000005 -6.5280000000000005V-11.152000000000001Q408.98600000000005 -11.662 408.93500000000006 -12.189Q408.884 -12.716000000000001 408.731 -13.226Q408.57800000000003 -13.736 408.30600000000004 -14.195Q408.03400000000005 -14.654000000000002 407.62600000000003 -14.994000000000002Q407.218 -15.334000000000001 406.708 -15.504000000000001Q406.19800000000004 -15.674000000000001 405.65400000000005 -15.674000000000001Q405.11 -15.674000000000001 404.6 -15.504000000000001Q404.09000000000003 -15.334000000000001 403.682 -14.994000000000002Q403.27400000000006 -14.654000000000002 403.00200000000007 -14.195Q402.73 -13.736 402.577 -13.226Q402.42400000000004 -12.716000000000001 402.37300000000005 -12.189Q402.32200000000006 -11.662 402.32200000000006 -11.152000000000001V-6.5280000000000005Q402.32200000000006 -6.018000000000001 402.37300000000005 -5.4910000000000005Q402.42400000000004 -4.964 402.577 -4.454000000000001Q402.73 -3.9440000000000004 403.00200000000007 -3.4850000000000003Q403.27400000000006 -3.0260000000000002 403.682 -2.686Q404.09000000000003 -2.346 404.6 -2.176Q405.11 -2.0060000000000002 405.65400000000005 -2.0060000000000002Z M420.546 0.272Q419.66200000000003 0.272 418.812 0.085Q417.962 -0.10200000000000001 417.231 -0.561Q416.5 -1.02 415.956 -1.7000000000000002Q415.41200000000003 -2.3800000000000003 415.08900000000006 -3.1790000000000003Q414.766 -3.978 414.64700000000005 -4.828Q414.528 -5.678000000000001 414.528 -6.5280000000000005V-11.152000000000001Q414.528 -12.002 414.64700000000005 -12.852Q414.766 -13.702000000000002 415.08900000000006 -14.501000000000001Q415.41200000000003 -15.3 415.956 -15.98Q416.5 -16.66 417.248 -17.119Q417.996 -17.578000000000003 418.846 -17.765Q419.696 -17.952 420.546 -17.952Q421.396 -17.952 422.246 -17.765Q423.096 -17.578000000000003 423.844 -17.119Q424.592 -16.66 425.13599999999997 -15.98Q425.68 -15.3 426.00300000000004 -14.501000000000001Q426.326 -13.702000000000002 426.44500000000005 -12.852Q426.564 -12.002 426.564 -11.152000000000001V-7.684H417.07800000000003V-6.5280000000000005Q417.07800000000003 -6.018000000000001 417.129 -5.474Q417.18 -4.930000000000001 417.35 -4.42Q417.52 -3.91 417.80899999999997 -3.451Q418.098 -2.992 418.523 -2.652Q418.948 -2.3120000000000003 419.475 -2.1590000000000003Q420.002 -2.0060000000000002 420.546 -2.0060000000000002Q421.158 -2.0060000000000002 421.78700000000003 -2.1590000000000003Q422.416 -2.3120000000000003 422.909 -2.72Q423.402 -3.128 423.674 -3.7060000000000004Q423.946 -4.284000000000001 423.946 -4.930000000000001H426.496Q426.496 -4.182 426.29200000000003 -3.468Q426.088 -2.754 425.697 -2.125Q425.306 -1.496 424.711 -1.0030000000000001Q424.116 -0.51 423.43600000000004 -0.221Q422.75600000000003 0.068 422.025 0.17Q421.294 0.272 420.546 0.272ZM424.014 -9.996V-11.152000000000001Q424.014 -11.662 423.963 -12.206000000000001Q423.91200000000003 -12.750000000000002 423.742 -13.260000000000002Q423.572 -13.770000000000001 423.283 -14.229000000000001Q422.994 -14.688 422.569 -15.028Q422.144 -15.368 421.617 -15.521Q421.09000000000003 -15.674000000000001 420.546 -15.674000000000001Q420.002 -15.674000000000001 419.475 -15.521Q418.948 -15.368 418.523 -15.028Q418.098 -14.688 417.80899999999997 -14.229000000000001Q417.52 -13.770000000000001 417.35 -13.260000000000002Q417.18 -12.750000000000002 417.129 -12.206000000000001Q417.07800000000003 -11.662 417.07800000000003 -11.152000000000001V-9.996Z M442.918 0.0V-2.108H444.074V-15.572000000000001H442.918V-17.68H446.42V-16.184Q446.556 -16.558 446.76 -16.881Q446.964 -17.204 447.236 -17.459000000000003Q447.508 -17.714000000000002 447.865 -17.833000000000002Q448.222 -17.952 448.596 -17.952Q449.072 -17.952 449.514 -17.748Q449.956 -17.544 450.245 -17.17Q450.534 -16.796000000000003 450.721 -16.371000000000002Q450.908 -15.946000000000002 451.01 -15.47Q451.112 -15.946000000000002 451.299 -16.371000000000002Q451.486 -16.796000000000003 451.775 -17.17Q452.064 -17.544 452.506 -17.748Q452.948 -17.952 453.42400000000004 -17.952Q453.90000000000003 -17.952 454.35900000000004 -17.714000000000002Q454.818 -17.476000000000003 455.10699999999997 -17.085Q455.396 -16.694000000000003 455.58299999999997 -16.218000000000004Q455.77 -15.742 455.87199999999996 -15.249Q455.974 -14.756 456.00800000000004 -14.263000000000002Q456.04200000000003 -13.770000000000001 456.04200000000003 -13.260000000000002V-2.108H457.198V0.0H453.696V-13.260000000000002Q453.696 -13.668000000000001 453.66200000000003 -14.059000000000001Q453.628 -14.450000000000001 453.509 -14.824000000000002Q453.39 -15.198 453.118 -15.521Q452.846 -15.844000000000001 452.472 -15.844000000000001Q452.064 -15.844000000000001 451.809 -15.521Q451.55400000000003 -15.198 451.43500000000006 -14.824000000000002Q451.31600000000003 -14.450000000000001 451.28200000000004 -14.059000000000001Q451.248 -13.668000000000001 451.248 -13.260000000000002V0.0H448.868V-13.260000000000002Q448.868 -13.668000000000001 448.834 -14.059000000000001Q448.8 -14.450000000000001 448.68100000000004 -14.824000000000002Q448.562 -15.198 448.307 -15.521Q448.052 -15.844000000000001 447.644 -15.844000000000001Q447.27 -15.844000000000001 446.998 -15.521Q446.726 -15.198 446.60699999999997 -14.824000000000002Q446.488 -14.450000000000001 446.454 -14.059000000000001Q446.42 -13.668000000000001 446.42 -13.260000000000002V0.0Z M459.34000000000003 7.3100000000000005V5.032H461.278Q461.58400000000006 5.032 461.87300000000005 4.947Q462.16200000000003 4.862 462.36600000000004 4.641Q462.57000000000005 4.42 462.672 4.131Q462.77400000000006 3.842 462.84200000000004 3.5700000000000003L462.87600000000003 3.5360000000000005L463.52200000000005 0.918L459.34000000000003 -15.402000000000001H457.60600000000005V-17.68H463.04600000000005V-15.402000000000001H461.89000000000004L464.848 -3.0260000000000002L465.35800000000006 -5.168L467.73800000000006 -15.402000000000001H466.58200000000005V-17.68H472.02200000000005V-15.402000000000001H470.288L465.324 4.114Q465.25600000000003 4.352 465.20500000000004 4.573Q465.15400000000005 4.7940000000000005 465.052 5.032Q464.848 5.5760000000000005 464.491 6.069000000000001Q464.134 6.562 463.607 6.868Q463.08000000000004 7.174 462.4680000000001 7.242000000000001Q461.85600000000005 7.3100000000000005 461.278 7.3100000000000005Z M492.86400000000003 0.0 488.81800000000004 -15.402000000000001H487.18600000000004V-17.68H492.62600000000003V-15.402000000000001H491.40200000000004L493.71400000000006 -5.882000000000001Q493.884 -5.2700000000000005 494.03700000000003 -4.6240000000000006Q494.19000000000005 -3.978 494.326 -3.3320000000000003Q494.46200000000005 -3.978 494.615 -4.6240000000000006Q494.76800000000003 -5.2700000000000005 494.93800000000005 -5.882000000000001L497.25000000000006 -15.402000000000001H496.026V-17.68H501.466V-15.402000000000001H499.83400000000006L495.788 0.0Z M509.082 0.272Q508.232 0.272 507.382 0.085Q506.532 -0.10200000000000001 505.784 -0.561Q505.036 -1.02 504.492 -1.7000000000000002Q503.94800000000004 -2.3800000000000003 503.625 -3.1790000000000003Q503.302 -3.978 503.183 -4.828Q503.064 -5.678000000000001 503.064 -6.5280000000000005V-11.152000000000001Q503.064 -12.002 503.183 -12.852Q503.302 -13.702000000000002 503.625 -14.501000000000001Q503.94800000000004 -15.3 504.492 -15.98Q505.036 -16.66 505.784 -17.119Q506.532 -17.578000000000003 507.382 -17.765Q508.232 -17.952 509.082 -17.952Q509.932 -17.952 510.78200000000004 -17.765Q511.632 -17.578000000000003 512.38 -17.119Q513.128 -16.66 513.672 -15.98Q514.216 -15.3 514.539 -14.501000000000001Q514.862 -13.702000000000002 514.981 -12.852Q515.1 -12.002 515.1 -11.152000000000001V-6.5280000000000005Q515.1 -5.678000000000001 514.981 -4.828Q514.862 -3.978 514.539 -3.1790000000000003Q514.216 -2.3800000000000003 513.672 -1.7000000000000002Q513.128 -1.02 512.38 -0.561Q511.632 -0.10200000000000001 510.78200000000004 0.085Q509.932 0.272 509.082 0.272ZM509.082 -2.0060000000000002Q509.62600000000003 -2.0060000000000002 510.153 -2.1590000000000003Q510.68 -2.3120000000000003 511.105 -2.652Q511.53000000000003 -2.992 511.8190000000001 -3.451Q512.1080000000001 -3.91 512.278 -4.42Q512.448 -4.930000000000001 512.499 -5.474Q512.55 -6.018000000000001 512.55 -6.5280000000000005V-11.152000000000001Q512.55 -11.662 512.499 -12.206000000000001Q512.448 -12.750000000000002 512.278 -13.260000000000002Q512.1080000000001 -13.770000000000001 511.8190000000001 -14.229000000000001Q511.53000000000003 -14.688 511.105 -15.028Q510.68 -15.368 510.153 -15.521Q509.62600000000003 -15.674000000000001 509.082 -15.674000000000001Q508.538 -15.674000000000001 508.01099999999997 -15.521Q507.484 -15.368 507.05899999999997 -15.028Q506.634 -14.688 506.345 -14.229000000000001Q506.056 -13.770000000000001 505.88599999999997 -13.260000000000002Q505.716 -12.750000000000002 505.665 -12.206000000000001Q505.61400000000003 -11.662 505.61400000000003 -11.152000000000001V-6.5280000000000005Q505.61400000000003 -6.018000000000001 505.665 -5.474Q505.716 -4.930000000000001 505.88599999999997 -4.42Q506.056 -3.91 506.345 -3.451Q506.634 -2.992 507.05899999999997 -2.652Q507.484 -2.3120000000000003 508.01099999999997 -2.1590000000000003Q508.538 -2.0060000000000002 509.082 -2.0060000000000002Z M522.104 0.0H519.86L517.6500000000001 -15.402000000000001H516.7660000000001V-17.68H521.22V-15.402000000000001H519.996L521.152 -4.0120000000000005L522.716 -12.716000000000001H524.96L526.524 -4.0120000000000005L527.6800000000001 -15.402000000000001H526.456V-17.68H530.9100000000001V-15.402000000000001H530.0260000000001L527.816 0.0H525.572L523.8380000000001 -9.622Z M538.594 0.272Q538.05 0.272 537.54 0.11900000000000001Q537.03 -0.034 536.639 -0.42500000000000004Q536.248 -0.8160000000000001 536.095 -1.326Q535.942 -1.836 535.942 -2.3800000000000003Q535.942 -2.9240000000000004 536.095 -3.434Q536.248 -3.9440000000000004 536.639 -4.335Q537.03 -4.726 537.54 -4.879Q538.05 -5.032 538.594 -5.032Q539.138 -5.032 539.648 -4.879Q540.158 -4.726 540.549 -4.335Q540.94 -3.9440000000000004 541.0930000000001 -3.434Q541.246 -2.9240000000000004 541.246 -2.3800000000000003Q541.246 -1.836 541.0930000000001 -1.326Q540.94 -0.8160000000000001 540.549 -0.42500000000000004Q540.158 -0.034 539.648 0.11900000000000001Q539.138 0.272 538.594 0.272Z"/>
  </g>
</svg>
