<svg xmlns="http://www.w3.org/2000/svg" width="588" height="73" viewBox="0 0 588 73" role="img" aria-labelledby="title desc">
  <title id="title">Iosevka Term Slab Compact Bold preview</title>
  <desc id="desc">Sphinx of black quartz, judge my vow.</desc>
  <style>
    .preview-text { fill: #24292f; }
    @media (prefers-color-scheme: dark) {
      .preview-text { fill: #f0f6fc; }
    }
  </style>
  <g class="preview-text" transform="translate(22.50 45.50)">
    <path d="M8.602 0.272Q8.024000000000001 0.272 7.429 0.15300000000000002Q6.8340000000000005 0.034 6.324 -0.255Q5.814 -0.544 5.406000000000001 -0.9690000000000001Q4.998 -1.3940000000000001 4.692 -1.9040000000000001V0.0H1.496V-6.426H4.692Q4.692 -5.814 4.7940000000000005 -5.1850000000000005Q4.896000000000001 -4.556 5.219000000000001 -4.029Q5.542000000000001 -3.5020000000000002 6.103000000000001 -3.1790000000000003Q6.664000000000001 -2.8560000000000003 7.276000000000001 -2.8560000000000003Q7.888000000000001 -2.8560000000000003 8.415000000000001 -3.128Q8.942 -3.4000000000000004 9.282 -3.8930000000000002Q9.622 -4.386 9.758 -4.964Q9.894 -5.542000000000001 9.894 -6.12Q9.894 -6.936000000000001 9.622 -7.718Q9.350000000000001 -8.5 8.857000000000001 -9.129000000000001Q8.364 -9.758000000000001 7.7010000000000005 -10.217Q7.038 -10.676 6.3580000000000005 -11.118Q5.678000000000001 -11.56 5.032 -12.053Q4.386 -12.546000000000001 3.825 -13.124000000000002Q3.2640000000000002 -13.702000000000002 2.822 -14.382000000000001Q2.3800000000000003 -15.062000000000001 2.0740000000000003 -15.81Q1.7680000000000002 -16.558 1.6320000000000001 -17.357Q1.496 -18.156000000000002 1.496 -18.972Q1.496 -19.720000000000002 1.6150000000000002 -20.451Q1.7340000000000002 -21.182000000000002 1.955 -21.879Q2.176 -22.576 2.567 -23.222Q2.958 -23.868000000000002 3.536 -24.344Q4.114 -24.82 4.828 -25.041Q5.542000000000001 -25.262 6.29 -25.262Q6.868 -25.262 7.429 -25.143Q7.99 -25.024 8.483 -24.735Q8.976 -24.446 9.384 -24.038000000000004Q9.792000000000002 -23.630000000000003 10.064 -23.12V-24.990000000000002H13.260000000000002V-18.564H10.064Q10.064 -18.972 10.030000000000001 -19.363Q9.996 -19.754 9.877 -20.162Q9.758000000000001 -20.57 9.571000000000002 -20.927Q9.384 -21.284000000000002 9.095 -21.573Q8.806000000000001 -21.862000000000002 8.415000000000001 -21.998Q8.024000000000001 -22.134 7.6160000000000005 -22.134Q7.038 -22.134 6.511 -21.845Q5.984 -21.556 5.695 -21.080000000000002Q5.406000000000001 -20.604000000000003 5.2700000000000005 -20.026000000000003Q5.134 -19.448 5.134 -18.87Q5.134 -18.088 5.406000000000001 -17.306Q5.678000000000001 -16.524 6.171000000000001 -15.878Q6.664000000000001 -15.232000000000001 7.327 -14.773000000000001Q7.99 -14.314000000000002 8.670000000000002 -13.872000000000002Q9.350000000000001 -13.430000000000001 9.996000000000002 -12.954Q10.642000000000001 -12.478000000000002 11.203000000000001 -11.883000000000001Q11.764000000000001 -11.288 12.206000000000001 -10.608Q12.648000000000001 -9.928 12.954 -9.18Q13.260000000000002 -8.432 13.396 -7.633000000000001Q13.532000000000002 -6.8340000000000005 13.532000000000002 -6.018000000000001Q13.532000000000002 -5.2700000000000005 13.413 -4.522Q13.294 -3.7740000000000005 13.056000000000001 -3.0770000000000004Q12.818000000000001 -2.3800000000000003 12.41 -1.7340000000000002Q12.002 -1.088 11.407 -0.6120000000000001Q10.812000000000001 -0.136 10.081000000000001 0.068Q9.350000000000001 0.272 8.602 0.272Z M21.794 7.3100000000000005H15.164V4.182H16.252V-14.552000000000001H15.164V-17.68H19.89V-14.722000000000001Q20.128 -15.368 20.468 -15.98Q20.808 -16.592000000000002 21.318 -17.051000000000002Q21.828000000000003 -17.51 22.491000000000003 -17.731Q23.154000000000003 -17.952 23.834000000000003 -17.952Q24.616 -17.952 25.347 -17.663000000000004Q26.078000000000003 -17.374000000000002 26.605000000000004 -16.830000000000002Q27.132 -16.286 27.455 -15.589000000000002Q27.778 -14.892000000000001 27.965 -14.161000000000001Q28.152 -13.430000000000001 28.220000000000002 -12.665000000000001Q28.288000000000004 -11.9 28.288000000000004 -11.152000000000001V-6.5280000000000005Q28.288000000000004 -5.78 28.220000000000002 -5.015000000000001Q28.152 -4.25 27.965 -3.519Q27.778 -2.7880000000000003 27.455 -2.091Q27.132 -1.3940000000000001 26.605000000000004 -0.8500000000000001Q26.078000000000003 -0.30600000000000005 25.347 -0.017000000000000015Q24.616 0.272 23.834000000000003 0.272Q23.154000000000003 0.272 22.491000000000003 0.051000000000000004Q21.828000000000003 -0.17 21.318 -0.629Q20.808 -1.088 20.468 -1.7000000000000002Q20.128 -2.3120000000000003 19.89 -2.958V4.182H21.794ZM22.27 -2.8560000000000003Q22.678 -2.8560000000000003 23.069000000000003 -3.0260000000000002Q23.46 -3.196 23.732 -3.4850000000000003Q24.004 -3.7740000000000005 24.191000000000003 -4.148000000000001Q24.378 -4.522 24.48 -4.913Q24.582 -5.304 24.616 -5.712Q24.65 -6.12 24.65 -6.5280000000000005V-11.152000000000001Q24.65 -11.56 24.616 -11.968Q24.582 -12.376000000000001 24.48 -12.767000000000001Q24.378 -13.158000000000001 24.191000000000003 -13.532Q24.004 -13.906 23.732 -14.195Q23.46 -14.484000000000002 23.069000000000003 -14.654000000000002Q22.678 -14.824000000000002 22.27 -14.824000000000002Q21.862000000000002 -14.824000000000002 21.471000000000004 -14.654000000000002Q21.080000000000002 -14.484000000000002 20.808 -14.195Q20.536 -13.906 20.349 -13.532Q20.162 -13.158000000000001 20.06 -12.767000000000001Q19.958 -12.376000000000001 19.924 -11.968Q19.89 -11.56 19.89 -11.152000000000001V-6.5280000000000005Q19.89 -6.12 19.924 -5.712Q19.958 -5.304 20.06 -4.913Q20.162 -4.522 20.349 -4.148000000000001Q20.536 -3.7740000000000005 20.808 -3.4850000000000003Q21.080000000000002 -3.196 21.471000000000004 -3.0260000000000002Q21.862000000000002 -2.8560000000000003 22.27 -2.8560000000000003Z M35.768 0.0H29.92V-3.128H31.008V-21.862000000000002H29.92V-24.990000000000002H34.646V-14.790000000000001Q34.884 -15.402000000000001 35.207 -15.997000000000002Q35.53 -16.592000000000002 36.022999999999996 -17.051000000000002Q36.516 -17.51 37.162 -17.731Q37.808 -17.952 38.454 -17.952Q39.236000000000004 -17.952 39.95 -17.663000000000004Q40.664 -17.374000000000002 41.157000000000004 -16.813000000000002Q41.650000000000006 -16.252000000000002 41.973 -15.555000000000001Q42.296 -14.858 42.466 -14.127Q42.636 -13.396 42.70400000000001 -12.648Q42.772000000000006 -11.9 42.772000000000006 -11.152000000000001V-3.128H43.86V0.0H38.012V-3.128H39.134V-11.152000000000001Q39.134 -11.526000000000002 39.1 -11.934000000000001Q39.066 -12.342 38.964 -12.733Q38.862 -13.124 38.709 -13.498000000000001Q38.556 -13.872000000000002 38.301 -14.178Q38.046 -14.484000000000002 37.672 -14.654000000000002Q37.298 -14.824000000000002 36.89 -14.824000000000002Q36.482 -14.824000000000002 36.108000000000004 -14.654000000000002Q35.734 -14.484000000000002 35.479 -14.178Q35.224000000000004 -13.872000000000002 35.071 -13.498000000000001Q34.918 -13.124 34.816 -12.733Q34.714 -12.342 34.68 -11.934000000000001Q34.646 -11.526000000000002 34.646 -11.152000000000001V-3.128H35.768Z M46.036 0.0V-3.128H50.048V-14.552000000000001H46.478V-17.68H53.686V-3.128H57.256V0.0ZM51.816 -20.060000000000002Q51.272000000000006 -20.060000000000002 50.72800000000001 -20.230000000000004Q50.184000000000005 -20.400000000000002 49.81 -20.774Q49.436 -21.148000000000003 49.266000000000005 -21.692Q49.096000000000004 -22.236 49.096000000000004 -22.78Q49.096000000000004 -23.324 49.266000000000005 -23.868000000000002Q49.436 -24.412000000000003 49.81 -24.786Q50.184000000000005 -25.16 50.72800000000001 -25.330000000000002Q51.272000000000006 -25.500000000000004 51.816 -25.500000000000004Q52.36 -25.500000000000004 52.903999999999996 -25.330000000000002Q53.448 -25.16 53.822 -24.786Q54.196000000000005 -24.412000000000003 54.366 -23.868000000000002Q54.536 -23.324 54.536 -22.78Q54.536 -22.236 54.366 -21.692Q54.196000000000005 -21.148000000000003 53.822 -20.774Q53.448 -20.400000000000002 52.903999999999996 -20.230000000000004Q52.36 -20.060000000000002 51.816 -20.060000000000002Z M65.28 0.0H59.432V-3.128H60.52V-14.552000000000001H59.432V-17.68H64.158V-14.790000000000001Q64.396 -15.402000000000001 64.719 -15.997000000000002Q65.042 -16.592000000000002 65.535 -17.051000000000002Q66.028 -17.51 66.674 -17.731Q67.32000000000001 -17.952 67.96600000000001 -17.952Q68.748 -17.952 69.462 -17.663000000000004Q70.176 -17.374000000000002 70.66900000000001 -16.813000000000002Q71.162 -16.252000000000002 71.48500000000001 -15.555000000000001Q71.808 -14.858 71.97800000000001 -14.127Q72.148 -13.396 72.21600000000001 -12.648Q72.284 -11.9 72.284 -11.152000000000001V-3.128H73.372V0.0H67.524V-3.128H68.646V-11.152000000000001Q68.646 -11.526000000000002 68.612 -11.934000000000001Q68.578 -12.342 68.476 -12.733Q68.374 -13.124 68.221 -13.498000000000001Q68.068 -13.872000000000002 67.813 -14.178Q67.558 -14.484000000000002 67.184 -14.654000000000002Q66.81 -14.824000000000002 66.402 -14.824000000000002Q65.994 -14.824000000000002 65.62 -14.654000000000002Q65.246 -14.484000000000002 64.991 -14.178Q64.736 -13.872000000000002 64.583 -13.498000000000001Q64.43 -13.124 64.328 -12.733Q64.226 -12.342 64.19200000000001 -11.934000000000001Q64.158 -11.526000000000002 64.158 -11.152000000000001V-3.128H65.28Z M80.036 0.0H74.188V-3.128H76.432L79.458 -8.84L76.432 -14.552000000000001H74.188V-17.68H80.036V-15.13L81.158 -12.58L82.28 -15.13V-17.68H88.128V-14.552000000000001H85.884L82.858 -8.84L85.884 -3.128H88.128V0.0H82.28V-2.5500000000000003L81.158 -5.1000000000000005L80.036 -2.5500000000000003Z M110.67 0.272Q109.786 0.272 108.936 0.085Q108.086 -0.10200000000000001 107.338 -0.544Q106.59 -0.9860000000000001 106.012 -1.6660000000000001Q105.434 -2.346 105.11099999999999 -3.1450000000000005Q104.788 -3.9440000000000004 104.652 -4.811000000000001Q104.516 -5.678000000000001 104.516 -6.5280000000000005V-11.152000000000001Q104.516 -12.002 104.652 -12.869Q104.788 -13.736 105.11099999999999 -14.535Q105.434 -15.334000000000001 106.012 -16.014000000000003Q106.59 -16.694000000000003 107.338 -17.136000000000003Q108.086 -17.578000000000003 108.936 -17.765Q109.786 -17.952 110.67 -17.952Q111.554 -17.952 112.404 -17.765Q113.254 -17.578000000000003 114.00200000000001 -17.136000000000003Q114.75 -16.694000000000003 115.328 -16.014000000000003Q115.906 -15.334000000000001 116.22900000000001 -14.535Q116.552 -13.736 116.688 -12.869Q116.824 -12.002 116.824 -11.152000000000001V-6.5280000000000005Q116.824 -5.678000000000001 116.688 -4.811000000000001Q116.552 -3.9440000000000004 116.22900000000001 -3.1450000000000005Q115.906 -2.346 115.328 -1.6660000000000001Q114.75 -0.9860000000000001 114.00200000000001 -0.544Q113.254 -0.10200000000000001 112.404 0.085Q111.554 0.272 110.67 0.272ZM110.67 -2.8560000000000003Q111.078 -2.8560000000000003 111.486 -3.0090000000000003Q111.894 -3.1620000000000004 112.2 -3.4510000000000005Q112.506 -3.74 112.693 -4.114000000000001Q112.88 -4.488 112.982 -4.896000000000001Q113.084 -5.304 113.135 -5.712Q113.186 -6.12 113.186 -6.5280000000000005V-11.152000000000001Q113.186 -11.56 113.135 -11.968Q113.084 -12.376000000000001 112.982 -12.784Q112.88 -13.192 112.693 -13.566Q112.506 -13.940000000000001 112.2 -14.229000000000001Q111.894 -14.518 111.486 -14.671000000000001Q111.078 -14.824000000000002 110.67 -14.824000000000002Q110.262 -14.824000000000002 109.854 -14.671000000000001Q109.446 -14.518 109.14 -14.229000000000001Q108.834 -13.940000000000001 108.647 -13.566Q108.46000000000001 -13.192 108.358 -12.784Q108.256 -12.376000000000001 108.205 -11.968Q108.154 -11.56 108.154 -11.152000000000001V-6.5280000000000005Q108.154 -6.12 108.205 -5.712Q108.256 -5.304 108.358 -4.896000000000001Q108.46000000000001 -4.488 108.647 -4.114000000000001Q108.834 -3.74 109.14 -3.4510000000000005Q109.446 -3.1620000000000004 109.854 -3.0090000000000003Q110.262 -2.8560000000000003 110.67 -2.8560000000000003Z M119.782 0.0V-3.128H122.74000000000001V-13.124H119.544V-16.252000000000002H122.74000000000001V-19.618000000000002Q122.74000000000001 -20.298000000000002 122.825 -20.995Q122.91 -21.692 123.148 -22.338Q123.386 -22.984 123.794 -23.562Q124.202 -24.14 124.763 -24.531Q125.324 -24.922 126.00399999999999 -25.092Q126.684 -25.262 127.398 -25.262Q128.35 -25.262 129.268 -24.922Q130.186 -24.582 130.815 -23.851Q131.44400000000002 -23.12 131.733 -22.185000000000002Q132.022 -21.25 132.022 -20.298000000000002V-20.162000000000003H128.35V-20.196Q128.35 -20.502000000000002 128.316 -20.791000000000004Q128.282 -21.080000000000002 128.197 -21.369Q128.112 -21.658 127.89099999999999 -21.896Q127.67 -22.134 127.398 -22.134Q127.126 -22.134 126.956 -21.947000000000003Q126.786 -21.76 126.684 -21.539Q126.58200000000001 -21.318 126.531 -21.080000000000002Q126.48 -20.842000000000002 126.446 -20.604000000000003Q126.412 -20.366000000000003 126.412 -20.111000000000004Q126.412 -19.856 126.412 -19.618000000000002V-16.252000000000002H130.73V-13.124H126.412V-3.128H129.846V0.0Z M156.638 0.272Q155.958 0.272 155.29500000000002 0.051000000000000004Q154.632 -0.17 154.122 -0.629Q153.612 -1.088 153.272 -1.7000000000000002Q152.93200000000002 -2.3120000000000003 152.69400000000002 -2.958V0.0H147.968V-3.128H149.056V-21.862000000000002H147.968V-24.990000000000002H152.69400000000002V-14.722000000000001Q152.93200000000002 -15.368 153.272 -15.98Q153.612 -16.592000000000002 154.122 -17.051000000000002Q154.632 -17.51 155.29500000000002 -17.731Q155.958 -17.952 156.638 -17.952Q157.42000000000002 -17.952 158.151 -17.663000000000004Q158.882 -17.374000000000002 159.409 -16.830000000000002Q159.936 -16.286 160.25900000000001 -15.589000000000002Q160.582 -14.892000000000001 160.769 -14.161000000000001Q160.95600000000002 -13.430000000000001 161.024 -12.665000000000001Q161.092 -11.9 161.092 -11.152000000000001V-6.5280000000000005Q161.092 -5.78 161.024 -5.015000000000001Q160.95600000000002 -4.25 160.769 -3.519Q160.582 -2.7880000000000003 160.25900000000001 -2.091Q159.936 -1.3940000000000001 159.409 -0.8500000000000001Q158.882 -0.30600000000000005 158.151 -0.017000000000000015Q157.42000000000002 0.272 156.638 0.272ZM155.074 -2.8560000000000003Q155.482 -2.8560000000000003 155.873 -3.0260000000000002Q156.264 -3.196 156.536 -3.4850000000000003Q156.808 -3.7740000000000005 156.995 -4.148000000000001Q157.18200000000002 -4.522 157.284 -4.913Q157.386 -5.304 157.42000000000002 -5.712Q157.454 -6.12 157.454 -6.5280000000000005V-11.152000000000001Q157.454 -11.56 157.42000000000002 -11.968Q157.386 -12.376000000000001 157.284 -12.767000000000001Q157.18200000000002 -13.158000000000001 156.995 -13.532Q156.808 -13.906 156.536 -14.195Q156.264 -14.484000000000002 155.873 -14.654000000000002Q155.482 -14.824000000000002 155.074 -14.824000000000002Q154.666 -14.824000000000002 154.275 -14.654000000000002Q153.88400000000001 -14.484000000000002 153.61200000000002 -14.195Q153.34 -13.906 153.15300000000002 -13.532Q152.966 -13.158000000000001 152.864 -12.767000000000001Q152.762 -12.376000000000001 152.728 -11.968Q152.69400000000002 -11.56 152.69400000000002 -11.152000000000001V-6.5280000000000005Q152.69400000000002 -6.12 152.728 -5.712Q152.762 -5.304 152.864 -4.913Q152.966 -4.522 153.15300000000002 -4.148000000000001Q153.34 -3.7740000000000005 153.61200000000002 -3.4850000000000003Q153.88400000000001 -3.196 154.275 -3.0260000000000002Q154.666 -2.8560000000000003 155.074 -2.8560000000000003Z M164.084 0.0V-3.128H168.096V-21.862000000000002H164.526V-24.990000000000002H171.734V-3.128H175.304V0.0Z M182.716 0.272Q181.764 0.272 180.863 -0.10200000000000001Q179.962 -0.47600000000000003 179.367 -1.2240000000000002Q178.772 -1.9720000000000002 178.534 -2.907Q178.296 -3.842 178.296 -4.828Q178.296 -5.678000000000001 178.466 -6.511000000000001Q178.636 -7.344 179.095 -8.058Q179.554 -8.772 180.234 -9.316Q180.91400000000002 -9.860000000000001 181.71300000000002 -10.166Q182.512 -10.472000000000001 183.345 -10.591000000000001Q184.178 -10.71 185.028 -10.71H186.69400000000002V-12.138000000000002Q186.69400000000002 -12.648000000000001 186.57500000000002 -13.141000000000002Q186.45600000000002 -13.634 186.15 -14.025Q185.844 -14.416 185.385 -14.620000000000001Q184.92600000000002 -14.824000000000002 184.416 -14.824000000000002Q183.974 -14.824000000000002 183.53199999999998 -14.671000000000001Q183.09 -14.518 182.767 -14.195Q182.44400000000002 -13.872000000000002 182.291 -13.430000000000001Q182.138 -12.988000000000001 182.138 -12.512V-12.444H178.5V-12.648000000000001Q178.5 -13.396 178.687 -14.127Q178.874 -14.858 179.265 -15.504000000000001Q179.656 -16.150000000000002 180.234 -16.643Q180.812 -17.136000000000003 181.49200000000002 -17.425000000000004Q182.172 -17.714000000000002 182.92000000000002 -17.833000000000002Q183.668 -17.952 184.416 -17.952Q185.198 -17.952 185.98000000000002 -17.816000000000003Q186.762 -17.68 187.476 -17.34Q188.19 -17.0 188.751 -16.439Q189.312 -15.878000000000002 189.686 -15.181000000000001Q190.06 -14.484000000000002 190.196 -13.702000000000002Q190.332 -12.920000000000002 190.332 -12.138000000000002V-3.128H191.42000000000002V0.0H186.69400000000002V-2.652Q186.45600000000002 -2.04 186.082 -1.479Q185.708 -0.918 185.198 -0.51Q184.68800000000002 -0.10200000000000001 184.04200000000003 0.085Q183.39600000000002 0.272 182.716 0.272ZM184.314 -2.8560000000000003Q184.858 -2.8560000000000003 185.351 -3.111Q185.844 -3.366 186.15 -3.808Q186.45600000000002 -4.25 186.57500000000002 -4.7940000000000005Q186.69400000000002 -5.338 186.69400000000002 -5.882000000000001V-7.582000000000001H185.028Q184.484 -7.582000000000001 183.923 -7.463000000000001Q183.362 -7.344 182.90300000000002 -7.038Q182.44400000000002 -6.732 182.18900000000002 -6.222Q181.934 -5.712000000000001 181.934 -5.134Q181.934 -4.658 182.087 -4.216Q182.24 -3.7740000000000005 182.58 -3.4510000000000005Q182.92000000000002 -3.128 183.37900000000002 -2.992Q183.838 -2.8560000000000003 184.314 -2.8560000000000003Z M199.104 0.272Q198.254 0.272 197.387 0.085Q196.52 -0.10200000000000001 195.789 -0.544Q195.058 -0.9860000000000001 194.514 -1.6830000000000003Q193.97 -2.3800000000000003 193.63 -3.1790000000000003Q193.29 -3.978 193.171 -4.828Q193.052 -5.678000000000001 193.052 -6.5280000000000005V-11.152000000000001Q193.052 -11.934000000000001 193.137 -12.716000000000001Q193.222 -13.498000000000001 193.443 -14.263000000000002Q193.66400000000002 -15.028 194.055 -15.725000000000001Q194.446 -16.422 195.041 -16.949Q195.636 -17.476000000000003 196.418 -17.714000000000002Q197.20000000000002 -17.952 197.982 -17.952Q198.56 -17.952 199.155 -17.833000000000002Q199.75 -17.714000000000002 200.26 -17.425000000000004Q200.77 -17.136000000000003 201.178 -16.711000000000002Q201.586 -16.286 201.892 -15.776000000000002V-17.68H205.088V-11.254000000000001H201.892Q201.892 -11.866000000000001 201.79000000000002 -12.495000000000001Q201.68800000000002 -13.124 201.365 -13.651Q201.042 -14.178 200.481 -14.501000000000001Q199.92000000000002 -14.824000000000002 199.308 -14.824000000000002Q198.866 -14.824000000000002 198.45800000000003 -14.688000000000002Q198.05 -14.552000000000001 197.74400000000003 -14.263000000000002Q197.43800000000002 -13.974 197.234 -13.600000000000001Q197.03 -13.226 196.911 -12.818000000000001Q196.792 -12.41 196.74099999999999 -11.985Q196.69 -11.56 196.69 -11.152000000000001V-6.5280000000000005Q196.69 -6.12 196.724 -5.712Q196.758 -5.304 196.877 -4.913Q196.996 -4.522 197.166 -4.148000000000001Q197.336 -3.7740000000000005 197.625 -3.4680000000000004Q197.91400000000002 -3.1620000000000004 198.305 -3.0090000000000003Q198.696 -2.8560000000000003 199.104 -2.8560000000000003Q199.68200000000002 -2.8560000000000003 200.192 -3.1790000000000003Q200.702 -3.5020000000000002 200.99099999999999 -4.0120000000000005Q201.28 -4.522 201.399 -5.1000000000000005Q201.518 -5.678000000000001 201.518 -6.29V-6.426H205.156V-6.12Q205.156 -5.304 204.986 -4.488Q204.816 -3.672 204.476 -2.907Q204.136 -2.1420000000000003 203.575 -1.5130000000000003Q203.014 -0.8840000000000001 202.3 -0.4760000000000001Q201.586 -0.068 200.75300000000001 0.10200000000000001Q199.92000000000002 0.272 199.104 0.272Z M207.434 0.0V-3.128H208.556V-21.862000000000002H207.434V-24.990000000000002H212.19400000000002V-10.302000000000001L216.784 -17.68H220.93200000000002V-14.552000000000001H218.722L215.322 -9.588000000000001L219.062 -3.128H220.93200000000002V0.0H216.886L213.35 -6.732L212.19400000000002 -5.032V-3.128H213.282V0.0Z M243.814 7.3100000000000005V4.182H245.71800000000002V-2.958Q245.48000000000002 -2.3120000000000003 245.14000000000001 -1.7000000000000002Q244.8 -1.088 244.29000000000002 -0.629Q243.78 -0.17 243.11700000000002 0.051000000000000004Q242.454 0.272 241.774 0.272Q240.99200000000002 0.272 240.26100000000002 -0.017000000000000015Q239.53 -0.30600000000000005 239.003 -0.8500000000000001Q238.476 -1.3940000000000001 238.15300000000002 -2.091Q237.83 -2.7880000000000003 237.64300000000003 -3.519Q237.45600000000002 -4.25 237.388 -5.015000000000001Q237.32 -5.78 237.32 -6.5280000000000005V-11.152000000000001Q237.32 -11.9 237.388 -12.665000000000001Q237.45600000000002 -13.430000000000001 237.64300000000003 -14.161000000000001Q237.83 -14.892000000000001 238.15300000000002 -15.589000000000002Q238.476 -16.286 239.003 -16.830000000000002Q239.53 -17.374000000000002 240.26100000000002 -17.663000000000004Q240.99200000000002 -17.952 241.774 -17.952Q242.454 -17.952 243.11700000000002 -17.731Q243.78 -17.51 244.29000000000002 -17.051000000000002Q244.8 -16.592000000000002 245.14000000000001 -15.98Q245.48000000000002 -15.368 245.71800000000002 -14.722000000000001V-17.68H250.44400000000002V-14.552000000000001H249.356V4.182H250.44400000000002V7.3100000000000005ZM243.338 -2.8560000000000003Q243.746 -2.8560000000000003 244.137 -3.0260000000000002Q244.528 -3.196 244.8 -3.4850000000000003Q245.072 -3.7740000000000005 245.25900000000001 -4.148000000000001Q245.446 -4.522 245.548 -4.913Q245.65 -5.304 245.68400000000003 -5.712Q245.71800000000002 -6.12 245.71800000000002 -6.5280000000000005V-11.152000000000001Q245.71800000000002 -11.56 245.68400000000003 -11.968Q245.65 -12.376000000000001 245.548 -12.767000000000001Q245.446 -13.158000000000001 245.25900000000001 -13.532Q245.072 -13.906 244.8 -14.195Q244.528 -14.484000000000002 244.137 -14.654000000000002Q243.746 -14.824000000000002 243.338 -14.824000000000002Q242.93 -14.824000000000002 242.539 -14.654000000000002Q242.148 -14.484000000000002 241.876 -14.195Q241.604 -13.906 241.41700000000003 -13.532Q241.23000000000002 -13.158000000000001 241.12800000000001 -12.767000000000001Q241.026 -12.376000000000001 240.99200000000002 -11.968Q240.958 -11.56 240.958 -11.152000000000001V-6.5280000000000005Q240.958 -6.12 240.99200000000002 -5.712Q241.026 -5.304 241.12800000000001 -4.913Q241.23000000000002 -4.522 241.41700000000003 -4.148000000000001Q241.604 -3.7740000000000005 241.876 -3.4850000000000003Q242.148 -3.196 242.539 -3.0260000000000002Q242.93 -2.8560000000000003 243.338 -2.8560000000000003Z M256.666 0.272Q255.88400000000001 0.272 255.17000000000002 -0.017000000000000015Q254.45600000000002 -0.30600000000000005 253.96300000000002 -0.8670000000000001Q253.47 -1.4280000000000002 253.147 -2.125Q252.824 -2.822 252.654 -3.5530000000000004Q252.484 -4.284000000000001 252.416 -5.032Q252.348 -5.78 252.348 -6.5280000000000005V-14.552000000000001H251.26V-17.68H255.986V-6.5280000000000005Q255.986 -6.154000000000001 256.02 -5.746Q256.05400000000003 -5.338 256.156 -4.947Q256.258 -4.556 256.411 -4.182Q256.564 -3.8080000000000003 256.819 -3.5020000000000002Q257.074 -3.196 257.448 -3.0260000000000002Q257.822 -2.8560000000000003 258.23 -2.8560000000000003Q258.638 -2.8560000000000003 259.012 -3.0260000000000002Q259.386 -3.196 259.641 -3.5020000000000002Q259.896 -3.8080000000000003 260.049 -4.182Q260.202 -4.556 260.304 -4.947Q260.406 -5.338 260.44 -5.746Q260.474 -6.154000000000001 260.474 -6.5280000000000005V-14.552000000000001H259.352V-17.68H264.112V-3.128H265.2V0.0H260.474V-2.89Q260.236 -2.278 259.913 -1.683Q259.59000000000003 -1.088 259.097 -0.629Q258.604 -0.17 257.95799999999997 0.051000000000000004Q257.312 0.272 256.666 0.272Z M271.252 0.272Q270.3 0.272 269.399 -0.10200000000000001Q268.498 -0.47600000000000003 267.903 -1.2240000000000002Q267.308 -1.9720000000000002 267.07 -2.907Q266.832 -3.842 266.832 -4.828Q266.832 -5.678000000000001 267.002 -6.511000000000001Q267.172 -7.344 267.63100000000003 -8.058Q268.09000000000003 -8.772 268.77 -9.316Q269.45 -9.860000000000001 270.249 -10.166Q271.048 -10.472000000000001 271.881 -10.591000000000001Q272.714 -10.71 273.564 -10.71H275.23V-12.138000000000002Q275.23 -12.648000000000001 275.111 -13.141000000000002Q274.992 -13.634 274.68600000000004 -14.025Q274.38 -14.416 273.921 -14.620000000000001Q273.462 -14.824000000000002 272.952 -14.824000000000002Q272.51 -14.824000000000002 272.068 -14.671000000000001Q271.626 -14.518 271.303 -14.195Q270.98 -13.872000000000002 270.827 -13.430000000000001Q270.674 -12.988000000000001 270.674 -12.512V-12.444H267.036V-12.648000000000001Q267.036 -13.396 267.223 -14.127Q267.41 -14.858 267.80100000000004 -15.504000000000001Q268.192 -16.150000000000002 268.77 -16.643Q269.348 -17.136000000000003 270.028 -17.425000000000004Q270.708 -17.714000000000002 271.456 -17.833000000000002Q272.204 -17.952 272.952 -17.952Q273.734 -17.952 274.51599999999996 -17.816000000000003Q275.298 -17.68 276.012 -17.34Q276.726 -17.0 277.28700000000003 -16.439Q277.848 -15.878000000000002 278.222 -15.181000000000001Q278.596 -14.484000000000002 278.73199999999997 -13.702000000000002Q278.868 -12.920000000000002 278.868 -12.138000000000002V-3.128H279.956V0.0H275.23V-2.652Q274.992 -2.04 274.61800000000005 -1.479Q274.244 -0.918 273.73400000000004 -0.51Q273.224 -0.10200000000000001 272.578 0.085Q271.932 0.272 271.252 0.272ZM272.85 -2.8560000000000003Q273.394 -2.8560000000000003 273.887 -3.111Q274.38 -3.366 274.68600000000004 -3.808Q274.992 -4.25 275.111 -4.7940000000000005Q275.23 -5.338 275.23 -5.882000000000001V-7.582000000000001H273.564Q273.02 -7.582000000000001 272.459 -7.463000000000001Q271.898 -7.344 271.439 -7.038Q270.98 -6.732 270.725 -6.222Q270.47 -5.712000000000001 270.47 -5.134Q270.47 -4.658 270.62300000000005 -4.216Q270.776 -3.7740000000000005 271.116 -3.4510000000000005Q271.456 -3.128 271.915 -2.992Q272.374 -2.8560000000000003 272.85 -2.8560000000000003Z M281.96200000000005 0.0V-3.128H284.13800000000003V-14.552000000000001H281.96200000000005V-17.68H287.81000000000006V-13.974Q287.98 -14.688 288.269 -15.385000000000002Q288.55800000000005 -16.082 289.01700000000005 -16.66Q289.47600000000006 -17.238 290.15600000000006 -17.595Q290.836 -17.952 291.55 -17.952Q292.12800000000004 -17.952 292.63800000000003 -17.714000000000002Q293.148 -17.476000000000003 293.471 -17.034000000000002Q293.79400000000004 -16.592000000000002 293.99800000000005 -16.082Q294.20200000000006 -15.572000000000001 294.3040000000001 -15.028000000000002Q294.40600000000006 -14.484000000000002 294.44000000000005 -13.940000000000001Q294.47400000000005 -13.396 294.47400000000005 -12.818000000000001H290.836Q290.836 -13.124 290.802 -13.447000000000001Q290.76800000000003 -13.770000000000001 290.66600000000005 -14.059000000000001Q290.564 -14.348 290.343 -14.586000000000002Q290.122 -14.824000000000002 289.78200000000004 -14.824000000000002Q289.27200000000005 -14.824000000000002 288.9150000000001 -14.399000000000001Q288.55800000000005 -13.974 288.37100000000004 -13.481000000000002Q288.184 -12.988000000000001 288.06500000000005 -12.478000000000002Q287.946 -11.968 287.89500000000004 -11.458Q287.84400000000005 -10.948 287.82700000000006 -10.421Q287.81000000000006 -9.894 287.81000000000006 -9.384V-3.128H290.42800000000005V0.0Z M304.164 0.272Q303.416 0.272 302.685 0.085Q301.954 -0.10200000000000001 301.35900000000004 -0.544Q300.764 -0.9860000000000001 300.339 -1.6150000000000002Q299.914 -2.244 299.676 -2.9410000000000003Q299.438 -3.6380000000000003 299.353 -4.369000000000001Q299.26800000000003 -5.1000000000000005 299.26800000000003 -5.848000000000001V-14.552000000000001H296.752V-17.68H299.26800000000003V-24.990000000000002H302.906V-17.68H307.938V-14.552000000000001H302.906V-5.848000000000001Q302.906 -5.542000000000001 302.923 -5.253Q302.94 -4.964 302.974 -4.675000000000001Q303.008 -4.386 303.076 -4.097Q303.144 -3.8080000000000003 303.28 -3.5360000000000005Q303.416 -3.2640000000000002 303.637 -3.0600000000000005Q303.858 -2.8560000000000003 304.164 -2.8560000000000003Q304.47 -2.8560000000000003 304.69100000000003 -3.128Q304.91200000000003 -3.4000000000000004 305.031 -3.7060000000000004Q305.15 -4.0120000000000005 305.21799999999996 -4.335000000000001Q305.286 -4.658 305.32 -4.981Q305.354 -5.304 305.38800000000003 -5.627000000000001Q305.422 -5.95 305.422 -6.256V-6.426H309.06V-6.12Q309.06 -5.372000000000001 308.95799999999997 -4.607Q308.856 -3.842 308.601 -3.128Q308.346 -2.414 307.95500000000004 -1.7680000000000002Q307.564 -1.122 306.96900000000005 -0.646Q306.374 -0.17 305.64300000000003 0.051000000000000004Q304.91200000000003 0.272 304.164 0.272Z M311.372 0.0V-3.128L319.46400000000006 -14.552000000000001H314.228V-11.798H311.372V-17.68H323.136V-14.552000000000001L315.04400000000004 -3.128H320.28000000000003V-5.882000000000001H323.136V0.0Z M330.48 7.3100000000000005 328.032 5.134Q329.222 4.114 330.24199999999996 2.907Q331.262 1.7000000000000002 331.908 0.272Q331.262 0.272 330.63300000000004 0.051000000000000004Q330.004 -0.17 329.545 -0.629Q329.086 -1.088 328.899 -1.7340000000000002Q328.712 -2.3800000000000003 328.712 -3.0260000000000002Q328.712 -3.7060000000000004 328.899 -4.352Q329.086 -4.998 329.562 -5.474Q330.038 -5.95 330.68399999999997 -6.154Q331.33 -6.3580000000000005 332.01 -6.3580000000000005Q332.69 -6.3580000000000005 333.353 -6.1370000000000005Q334.016 -5.916 334.475 -5.44Q334.934 -4.964 335.121 -4.301Q335.308 -3.6380000000000003 335.308 -2.958Q335.308 -1.496 334.91700000000003 -0.08499999999999996Q334.526 1.326 333.88 2.6180000000000003Q333.234 3.91 332.36699999999996 5.083Q331.5 6.256 330.48 7.3100000000000005Z M359.89 7.582000000000001Q359.142 7.582000000000001 358.394 7.446000000000001Q357.646 7.3100000000000005 357.0 6.953Q356.354 6.596 355.827 6.035Q355.3 5.474 354.977 4.811Q354.654 4.148000000000001 354.48400000000004 3.4000000000000004Q354.314 2.652 354.314 1.9040000000000001H357.986Q357.986 2.346 358.071 2.7880000000000003Q358.156 3.2300000000000004 358.394 3.604Q358.632 3.978 359.03999999999996 4.216Q359.448 4.454000000000001 359.89 4.454000000000001Q360.298 4.454000000000001 360.63800000000003 4.2330000000000005Q360.978 4.0120000000000005 361.199 3.6720000000000006Q361.42 3.3320000000000003 361.539 2.958Q361.658 2.584 361.726 2.193Q361.794 1.802 361.81100000000004 1.3940000000000001Q361.82800000000003 0.9860000000000001 361.82800000000003 0.6120000000000001V-14.552000000000001H358.05400000000003V-17.68H365.5V0.6120000000000001Q365.5 1.4620000000000002 365.398 2.295Q365.296 3.128 365.007 3.927Q364.718 4.726 364.242 5.44Q363.766 6.154000000000001 363.086 6.647Q362.406 7.140000000000001 361.573 7.361000000000001Q360.74 7.582000000000001 359.89 7.582000000000001ZM363.392 -20.060000000000002Q362.848 -20.060000000000002 362.304 -20.230000000000004Q361.76 -20.400000000000002 361.38599999999997 -20.774Q361.012 -21.148000000000003 360.842 -21.692Q360.672 -22.236 360.672 -22.78Q360.672 -23.324 360.842 -23.868000000000002Q361.012 -24.412000000000003 361.38599999999997 -24.786Q361.76 -25.16 362.304 -25.330000000000002Q362.848 -25.500000000000004 363.392 -25.500000000000004Q363.93600000000004 -25.500000000000004 364.48 -25.330000000000002Q365.024 -25.16 365.398 -24.786Q365.772 -24.412000000000003 365.942 -23.868000000000002Q366.112 -23.324 366.112 -22.78Q366.112 -22.236 365.942 -21.692Q365.772 -21.148000000000003 365.398 -20.774Q365.024 -20.400000000000002 364.48 -20.230000000000004Q363.93600000000004 -20.060000000000002 363.392 -20.060000000000002Z M374.71400000000006 0.272Q373.932 0.272 373.218 -0.017000000000000015Q372.504 -0.30600000000000005 372.011 -0.8670000000000001Q371.51800000000003 -1.4280000000000002 371.19500000000005 -2.125Q370.872 -2.822 370.702 -3.5530000000000004Q370.53200000000004 -4.284000000000001 370.46400000000006 -5.032Q370.396 -5.78 370.396 -6.5280000000000005V-14.552000000000001H369.30800000000005V-17.68H374.03400000000005V-6.5280000000000005Q374.03400000000005 -6.154000000000001 374.06800000000004 -5.746Q374.10200000000003 -5.338 374.20400000000006 -4.947Q374.30600000000004 -4.556 374.45900000000006 -4.182Q374.612 -3.8080000000000003 374.867 -3.5020000000000002Q375.122 -3.196 375.49600000000004 -3.0260000000000002Q375.87000000000006 -2.8560000000000003 376.278 -2.8560000000000003Q376.68600000000004 -2.8560000000000003 377.06000000000006 -3.0260000000000002Q377.434 -3.196 377.689 -3.5020000000000002Q377.944 -3.8080000000000003 378.09700000000004 -4.182Q378.25000000000006 -4.556 378.35200000000003 -4.947Q378.454 -5.338 378.48800000000006 -5.746Q378.52200000000005 -6.154000000000001 378.52200000000005 -6.5280000000000005V-14.552000000000001H377.40000000000003V-17.68H382.16V-3.128H383.24800000000005V0.0H378.52200000000005V-2.89Q378.28400000000005 -2.278 377.961 -1.683Q377.63800000000003 -1.088 377.14500000000004 -0.629Q376.65200000000004 -0.17 376.00600000000003 0.051000000000000004Q375.36 0.272 374.71400000000006 0.272Z M389.334 0.272Q388.552 0.272 387.821 -0.017000000000000015Q387.09000000000003 -0.30600000000000005 386.563 -0.8500000000000001Q386.036 -1.3940000000000001 385.71299999999997 -2.091Q385.39 -2.7880000000000003 385.203 -3.519Q385.016 -4.25 384.948 -5.015000000000001Q384.88 -5.78 384.88 -6.5280000000000005V-11.152000000000001Q384.88 -11.9 384.948 -12.665000000000001Q385.016 -13.430000000000001 385.203 -14.161000000000001Q385.39 -14.892000000000001 385.71299999999997 -15.589000000000002Q386.036 -16.286 386.563 -16.830000000000002Q387.09000000000003 -17.374000000000002 387.821 -17.663000000000004Q388.552 -17.952 389.334 -17.952Q390.014 -17.952 390.677 -17.731Q391.34000000000003 -17.51 391.85 -17.051000000000002Q392.36 -16.592000000000002 392.70000000000005 -15.98Q393.04 -15.368 393.278 -14.722000000000001V-21.862000000000002H392.156V-24.990000000000002H396.916V-3.128H398.004V0.0H393.278V-2.958Q393.04 -2.3120000000000003 392.70000000000005 -1.7000000000000002Q392.36 -1.088 391.85 -0.629Q391.34000000000003 -0.17 390.677 0.051000000000000004Q390.014 0.272 389.334 0.272ZM390.898 -2.8560000000000003Q391.306 -2.8560000000000003 391.697 -3.0260000000000002Q392.088 -3.196 392.36 -3.4850000000000003Q392.632 -3.7740000000000005 392.819 -4.148000000000001Q393.00600000000003 -4.522 393.108 -4.913Q393.21 -5.304 393.244 -5.712Q393.278 -6.12 393.278 -6.5280000000000005V-11.152000000000001Q393.278 -11.56 393.244 -11.968Q393.21 -12.376000000000001 393.108 -12.767000000000001Q393.00600000000003 -13.158000000000001 392.819 -13.532Q392.632 -13.906 392.36 -14.195Q392.088 -14.484000000000002 391.697 -14.654000000000002Q391.306 -14.824000000000002 390.898 -14.824000000000002Q390.49 -14.824000000000002 390.09900000000005 -14.654000000000002Q389.708 -14.484000000000002 389.43600000000004 -14.195Q389.164 -13.906 388.977 -13.532Q388.79 -13.158000000000001 388.688 -12.767000000000001Q388.586 -12.376000000000001 388.552 -11.968Q388.51800000000003 -11.56 388.51800000000003 -11.152000000000001V-6.5280000000000005Q388.51800000000003 -6.12 388.552 -5.712Q388.586 -5.304 388.688 -4.913Q388.79 -4.522 388.977 -4.148000000000001Q389.164 -3.7740000000000005 389.43600000000004 -3.4850000000000003Q389.708 -3.196 390.09900000000005 -3.0260000000000002Q390.49 -2.8560000000000003 390.898 -2.8560000000000003Z M405.72200000000004 7.582000000000001Q405.00800000000004 7.582000000000001 404.26000000000005 7.48Q403.51200000000006 7.378 402.84900000000005 7.072000000000001Q402.18600000000004 6.766000000000001 401.60800000000006 6.290000000000001Q401.03000000000003 5.814 400.639 5.202Q400.24800000000005 4.590000000000001 400.04400000000004 3.8590000000000004Q399.84000000000003 3.128 399.84000000000003 2.414H403.478Q403.478 2.822 403.648 3.2300000000000004Q403.81800000000004 3.6380000000000003 404.1410000000001 3.9270000000000005Q404.46400000000006 4.216 404.889 4.335000000000001Q405.314 4.454000000000001 405.72200000000004 4.454000000000001Q406.13000000000005 4.454000000000001 406.5210000000001 4.284000000000001Q406.91200000000003 4.114 407.16700000000003 3.808Q407.422 3.5020000000000002 407.59200000000004 3.128Q407.76200000000006 2.754 407.86400000000003 2.363Q407.966 1.9720000000000002 408.0 1.564Q408.03400000000005 1.1560000000000001 408.03400000000005 0.782V-2.958Q407.79600000000005 -2.3120000000000003 407.456 -1.7000000000000002Q407.11600000000004 -1.088 406.60600000000005 -0.629Q406.09600000000006 -0.17 405.43300000000005 0.051000000000000004Q404.77000000000004 0.272 404.09000000000003 0.272Q403.30800000000005 0.272 402.57700000000006 -0.017000000000000015Q401.84600000000006 -0.30600000000000005 401.3190000000001 -0.8500000000000001Q400.79200000000003 -1.3940000000000001 400.46900000000005 -2.091Q400.146 -2.7880000000000003 399.95900000000006 -3.519Q399.77200000000005 -4.25 399.70400000000006 -5.015000000000001Q399.636 -5.78 399.636 -6.5280000000000005V-11.152000000000001Q399.636 -11.9 399.70400000000006 -12.665000000000001Q399.77200000000005 -13.430000000000001 399.95900000000006 -14.161000000000001Q400.146 -14.892000000000001 400.46900000000005 -15.589000000000002Q400.79200000000003 -16.286 401.3190000000001 -16.830000000000002Q401.84600000000006 -17.374000000000002 402.57700000000006 -17.663000000000004Q403.30800000000005 -17.952 404.09000000000003 -17.952Q404.77000000000004 -17.952 405.43300000000005 -17.731Q406.09600000000006 -17.51 406.60600000000005 -17.051000000000002Q407.11600000000004 -16.592000000000002 407.456 -15.98Q407.79600000000005 -15.368 408.03400000000005 -14.722000000000001V-17.68H412.76000000000005V-14.552000000000001H411.672V0.782Q411.672 1.6320000000000001 411.553 2.482Q411.434 3.3320000000000003 411.111 4.131Q410.788 4.930000000000001 410.261 5.61Q409.73400000000004 6.29 409.00300000000004 6.7490000000000006Q408.27200000000005 7.208 407.422 7.3950000000000005Q406.57200000000006 7.582000000000001 405.72200000000004 7.582000000000001ZM405.65400000000005 -2.8560000000000003Q406.062 -2.8560000000000003 406.45300000000003 -3.0260000000000002Q406.84400000000005 -3.196 407.11600000000004 -3.4850000000000003Q407.38800000000003 -3.7740000000000005 407.57500000000005 -4.148000000000001Q407.76200000000006 -4.522 407.86400000000003 -4.913Q407.966 -5.304 408.0 -5.712Q408.03400000000005 -6.12 408.03400000000005 -6.5280000000000005V-11.152000000000001Q408.03400000000005 -11.56 408.0 -11.968Q407.966 -12.376000000000001 407.86400000000003 -12.767000000000001Q407.76200000000006 -13.158000000000001 407.57500000000005 -13.532Q407.38800000000003 -13.906 407.11600000000004 -14.195Q406.84400000000005 -14.484000000000002 406.45300000000003 -14.654000000000002Q406.062 -14.824000000000002 405.65400000000005 -14.824000000000002Q405.24600000000004 -14.824000000000002 404.855 -14.654000000000002Q404.46400000000006 -14.484000000000002 404.192 -14.195Q403.92 -13.906 403.73300000000006 -13.532Q403.54600000000005 -13.158000000000001 403.4440000000001 -12.767000000000001Q403.34200000000004 -12.376000000000001 403.30800000000005 -11.968Q403.27400000000006 -11.56 403.27400000000006 -11.152000000000001V-6.5280000000000005Q403.27400000000006 -6.12 403.30800000000005 -5.712Q403.34200000000004 -5.304 403.4440000000001 -4.913Q403.54600000000005 -4.522 403.73300000000006 -4.148000000000001Q403.92 -3.7740000000000005 404.192 -3.4850000000000003Q404.46400000000006 -3.196 404.855 -3.0260000000000002Q405.24600000000004 -2.8560000000000003 405.65400000000005 -2.8560000000000003Z M420.512 0.272Q419.66200000000003 0.272 418.795 0.085Q417.928 -0.10200000000000001 417.18 -0.544Q416.432 -0.9860000000000001 415.871 -1.6660000000000001Q415.31 -2.346 414.97 -3.1450000000000005Q414.63 -3.9440000000000004 414.51099999999997 -4.811000000000001Q414.392 -5.678000000000001 414.392 -6.5280000000000005V-11.152000000000001Q414.392 -12.002 414.528 -12.869Q414.664 -13.736 414.98699999999997 -14.535Q415.31 -15.334000000000001 415.88800000000003 -16.014000000000003Q416.466 -16.694000000000003 417.214 -17.136000000000003Q417.962 -17.578000000000003 418.812 -17.765Q419.66200000000003 -17.952 420.546 -17.952Q421.43 -17.952 422.28 -17.765Q423.13 -17.578000000000003 423.87800000000004 -17.136000000000003Q424.62600000000003 -16.694000000000003 425.204 -16.014000000000003Q425.782 -15.334000000000001 426.105 -14.535Q426.428 -13.736 426.56399999999996 -12.869Q426.7 -12.002 426.7 -11.152000000000001V-7.276000000000001H418.03000000000003V-6.5280000000000005Q418.03000000000003 -6.12 418.081 -5.712Q418.132 -5.304 418.23400000000004 -4.896000000000001Q418.336 -4.488 418.523 -4.114000000000001Q418.71 -3.74 419.01599999999996 -3.4510000000000005Q419.322 -3.1620000000000004 419.71299999999997 -3.0090000000000003Q420.104 -2.8560000000000003 420.512 -2.8560000000000003Q421.022 -2.8560000000000003 421.481 -3.0090000000000003Q421.94 -3.1620000000000004 422.297 -3.5020000000000002Q422.654 -3.842 422.824 -4.301Q422.994 -4.760000000000001 422.994 -5.236000000000001H426.632Q426.632 -4.454000000000001 426.428 -3.7060000000000004Q426.224 -2.958 425.83299999999997 -2.295Q425.442 -1.6320000000000001 424.847 -1.105Q424.252 -0.5780000000000001 423.538 -0.272Q422.824 0.034 422.05899999999997 0.15300000000000002Q421.294 0.272 420.512 0.272ZM418.03000000000003 -10.404H423.062V-11.152000000000001Q423.062 -11.56 423.011 -11.968Q422.96000000000004 -12.376000000000001 422.85800000000006 -12.784Q422.75600000000003 -13.192 422.569 -13.566Q422.382 -13.940000000000001 422.076 -14.229000000000001Q421.77 -14.518 421.36199999999997 -14.671000000000001Q420.954 -14.824000000000002 420.546 -14.824000000000002Q420.13800000000003 -14.824000000000002 419.73 -14.671000000000001Q419.322 -14.518 419.01599999999996 -14.229000000000001Q418.71 -13.940000000000001 418.523 -13.566Q418.336 -13.192 418.23400000000004 -12.784Q418.132 -12.376000000000001 418.081 -11.968Q418.03000000000003 -11.56 418.03000000000003 -11.152000000000001Z M442.782 0.0V-2.6860000000000004H443.802V-14.994000000000002H442.782V-17.68H446.93V-16.150000000000002Q447.032 -16.490000000000002 447.236 -16.830000000000002Q447.44 -17.17 447.695 -17.425Q447.95 -17.68 448.32399999999996 -17.816000000000003Q448.698 -17.952 449.072 -17.952Q449.514 -17.952 449.956 -17.731Q450.398 -17.51 450.67 -17.136000000000003Q450.942 -16.762 451.129 -16.32Q451.31600000000003 -15.878000000000002 451.418 -15.436000000000002Q451.52 -15.878000000000002 451.69 -16.32Q451.86 -16.762 452.149 -17.136000000000003Q452.438 -17.51 452.863 -17.731Q453.288 -17.952 453.764 -17.952Q454.274 -17.952 454.716 -17.697000000000003Q455.158 -17.442 455.447 -17.034Q455.736 -16.626 455.906 -16.167Q456.076 -15.708000000000002 456.161 -15.215000000000002Q456.246 -14.722000000000001 456.28 -14.229000000000001Q456.314 -13.736 456.314 -13.226V-2.6860000000000004H457.334V0.0H453.18600000000004V-13.226Q453.18600000000004 -13.532000000000002 453.169 -13.821000000000002Q453.152 -14.110000000000001 453.084 -14.399000000000001Q453.016 -14.688 452.86300000000006 -14.977Q452.71000000000004 -15.266000000000002 452.404 -15.266000000000002Q452.098 -15.266000000000002 451.94500000000005 -14.977Q451.79200000000003 -14.688 451.72400000000005 -14.399000000000001Q451.656 -14.110000000000001 451.639 -13.821000000000002Q451.622 -13.532000000000002 451.622 -13.226V0.0H448.494V-13.226Q448.494 -13.532000000000002 448.477 -13.821000000000002Q448.46 -14.110000000000001 448.392 -14.399000000000001Q448.324 -14.688 448.17100000000005 -14.977Q448.01800000000003 -15.266000000000002 447.712 -15.266000000000002Q447.406 -15.266000000000002 447.25300000000004 -14.977Q447.1 -14.688 447.03200000000004 -14.399000000000001Q446.964 -14.110000000000001 446.947 -13.821000000000002Q446.93 -13.532000000000002 446.93 -13.226V0.0Z M458.966 7.3100000000000005V4.182H461.04Q461.312 4.182 461.58400000000006 4.097Q461.85600000000005 4.0120000000000005 462.043 3.8080000000000003Q462.23 3.604 462.31500000000005 3.349Q462.40000000000003 3.0940000000000003 462.468 2.822L463.01200000000006 0.5780000000000001L459.374 -14.552000000000001H457.84400000000005V-17.68H463.692V-14.552000000000001H462.978L464.91600000000005 -4.828L466.684 -14.552000000000001H465.93600000000004V-17.68H471.78400000000005V-14.552000000000001H470.254L466.038 3.5360000000000005Q465.90200000000004 4.08 465.71500000000003 4.641Q465.528 5.202 465.188 5.678000000000001Q464.848 6.154000000000001 464.372 6.511000000000001Q463.896 6.868 463.35200000000003 7.055000000000001Q462.80800000000005 7.242000000000001 462.2130000000001 7.276000000000001Q461.61800000000005 7.3100000000000005 461.04 7.3100000000000005Z M496.434 0.0H492.218L488.78400000000005 -14.552000000000001H487.42400000000004V-17.68H493.27200000000005V-14.552000000000001H492.38800000000003L494.05400000000003 -5.882000000000001Q494.122 -5.542000000000001 494.19000000000005 -5.168000000000001Q494.25800000000004 -4.7940000000000005 494.326 -4.42Q494.39400000000006 -4.7940000000000005 494.46200000000005 -5.168000000000001Q494.53000000000003 -5.542000000000001 494.598 -5.882000000000001L496.264 -14.552000000000001H495.38000000000005V-17.68H501.22800000000007V-14.552000000000001H499.86800000000005Z M509.082 0.272Q508.19800000000004 0.272 507.348 0.085Q506.498 -0.10200000000000001 505.75 -0.544Q505.002 -0.9860000000000001 504.424 -1.6660000000000001Q503.846 -2.346 503.523 -3.1450000000000005Q503.2 -3.9440000000000004 503.06399999999996 -4.811000000000001Q502.928 -5.678000000000001 502.928 -6.5280000000000005V-11.152000000000001Q502.928 -12.002 503.06399999999996 -12.869Q503.2 -13.736 503.523 -14.535Q503.846 -15.334000000000001 504.424 -16.014000000000003Q505.002 -16.694000000000003 505.75 -17.136000000000003Q506.498 -17.578000000000003 507.348 -17.765Q508.19800000000004 -17.952 509.082 -17.952Q509.966 -17.952 510.81600000000003 -17.765Q511.666 -17.578000000000003 512.414 -17.136000000000003Q513.162 -16.694000000000003 513.74 -16.014000000000003Q514.318 -15.334000000000001 514.6410000000001 -14.535Q514.964 -13.736 515.1 -12.869Q515.236 -12.002 515.236 -11.152000000000001V-6.5280000000000005Q515.236 -5.678000000000001 515.1 -4.811000000000001Q514.964 -3.9440000000000004 514.6410000000001 -3.1450000000000005Q514.318 -2.346 513.74 -1.6660000000000001Q513.162 -0.9860000000000001 512.414 -0.544Q511.666 -0.10200000000000001 510.81600000000003 0.085Q509.966 0.272 509.082 0.272ZM509.082 -2.8560000000000003Q509.49 -2.8560000000000003 509.898 -3.0090000000000003Q510.306 -3.1620000000000004 510.61199999999997 -3.4510000000000005Q510.918 -3.74 511.105 -4.114000000000001Q511.29200000000003 -4.488 511.394 -4.896000000000001Q511.496 -5.304 511.547 -5.712Q511.598 -6.12 511.598 -6.5280000000000005V-11.152000000000001Q511.598 -11.56 511.547 -11.968Q511.496 -12.376000000000001 511.394 -12.784Q511.29200000000003 -13.192 511.105 -13.566Q510.918 -13.940000000000001 510.61199999999997 -14.229000000000001Q510.306 -14.518 509.898 -14.671000000000001Q509.49 -14.824000000000002 509.082 -14.824000000000002Q508.67400000000004 -14.824000000000002 508.266 -14.671000000000001Q507.858 -14.518 507.552 -14.229000000000001Q507.246 -13.940000000000001 507.05899999999997 -13.566Q506.872 -13.192 506.77 -12.784Q506.668 -12.376000000000001 506.617 -11.968Q506.56600000000003 -11.56 506.56600000000003 -11.152000000000001V-6.5280000000000005Q506.56600000000003 -6.12 506.617 -5.712Q506.668 -5.304 506.77 -4.896000000000001Q506.872 -4.488 507.05899999999997 -4.114000000000001Q507.246 -3.74 507.552 -3.4510000000000005Q507.858 -3.1620000000000004 508.266 -3.0090000000000003Q508.67400000000004 -2.8560000000000003 509.082 -2.8560000000000003Z M519.5880000000001 0.0 517.48 -14.552000000000001H516.7320000000001V-17.68H521.5260000000001V-14.552000000000001H520.642L521.254 -5.5760000000000005L522.4100000000001 -12.716000000000001H525.2660000000001L526.422 -5.5760000000000005L527.034 -14.552000000000001H526.1500000000001V-17.68H530.9440000000001V-14.552000000000001H530.196L528.0880000000001 0.0H525.2320000000001L523.8380000000001 -8.398000000000001L522.4440000000001 0.0Z M538.594 0.272Q537.914 0.272 537.268 0.068Q536.622 -0.136 536.146 -0.595Q535.67 -1.054 535.483 -1.717Q535.296 -2.3800000000000003 535.296 -3.0260000000000002Q535.296 -3.7060000000000004 535.483 -4.352Q535.67 -4.998 536.146 -5.474Q536.622 -5.95 537.268 -6.154Q537.914 -6.3580000000000005 538.594 -6.3580000000000005Q539.274 -6.3580000000000005 539.9200000000001 -6.154Q540.566 -5.95 541.042 -5.474Q541.518 -4.998 541.705 -4.352Q541.892 -3.7060000000000004 541.892 -3.0260000000000002Q541.892 -2.3800000000000003 541.705 -1.717Q541.518 -1.054 541.042 -0.595Q540.566 -0.136 539.9200000000001 0.068Q539.274 0.272 538.594 0.272Z"/>
  </g>
</svg>
