<svg xmlns="http://www.w3.org/2000/svg" width="587" height="73" viewBox="0 0 587 73" role="img" aria-labelledby="title desc" style="background: transparent;">
  <title id="title">Iosevka Term Slab Compact Light preview</title>
  <desc id="desc">Sphinx of black quartz, judge my vow.</desc>
  <style>
    svg { background: transparent; }
    .preview-text { fill: #24292f; }
    @media (prefers-color-scheme: dark) {
      .preview-text { fill: #f0f6fc; }
    }
  </style>
  <g class="preview-text" transform="translate(22.30 45.26)">
    <path d="M8.058 0.272Q7.378 0.272 6.681 0.136Q5.984 0.0 5.389 -0.34Q4.7940000000000005 -0.68 4.3180000000000005 -1.207Q3.842 -1.7340000000000002 3.5360000000000005 -2.346V0.0H1.7000000000000002V-5.984H3.5360000000000005Q3.5360000000000005 -5.134 3.74 -4.301Q3.9440000000000004 -3.4680000000000004 4.471 -2.822Q4.998 -2.176 5.797000000000001 -1.8530000000000002Q6.596 -1.53 7.446000000000001 -1.53Q8.262 -1.53 9.044 -1.8530000000000002Q9.826 -2.176 10.353000000000002 -2.805Q10.88 -3.434 11.118000000000002 -4.25Q11.356000000000002 -5.066000000000001 11.356000000000002 -5.882000000000001Q11.356000000000002 -6.766000000000001 11.067 -7.599Q10.778 -8.432 10.251000000000001 -9.112000000000002Q9.724 -9.792000000000002 9.027000000000001 -10.319Q8.33 -10.846 7.582000000000001 -11.271Q6.8340000000000005 -11.696000000000002 6.086 -12.138000000000002Q5.338 -12.58 4.658 -13.141000000000002Q3.978 -13.702000000000002 3.4170000000000003 -14.365000000000002Q2.8560000000000003 -15.028 2.4650000000000003 -15.810000000000002Q2.0740000000000003 -16.592000000000002 1.8870000000000002 -17.442Q1.7000000000000002 -18.292 1.7000000000000002 -19.142000000000003Q1.7000000000000002 -19.89 1.8360000000000003 -20.638Q1.9720000000000002 -21.386000000000003 2.244 -22.083000000000002Q2.516 -22.78 2.958 -23.392000000000003Q3.4000000000000004 -24.004 4.0120000000000005 -24.446Q4.6240000000000006 -24.888 5.355 -25.075000000000003Q6.086 -25.262 6.8340000000000005 -25.262Q7.514 -25.262 8.177 -25.126Q8.84 -24.990000000000002 9.418 -24.650000000000002Q9.996 -24.310000000000002 10.455000000000002 -23.800000000000004Q10.914000000000001 -23.290000000000003 11.22 -22.712000000000003V-24.990000000000002H13.056000000000001V-19.006H11.22Q11.22 -19.856 11.033000000000001 -20.672000000000004Q10.846 -21.488000000000003 10.353000000000002 -22.151000000000003Q9.860000000000001 -22.814 9.078000000000001 -23.137Q8.296000000000001 -23.46 7.446000000000001 -23.46Q6.630000000000001 -23.46 5.865 -23.137Q5.1000000000000005 -22.814 4.607 -22.168Q4.114 -21.522000000000002 3.893 -20.723000000000003Q3.672 -19.924000000000003 3.672 -19.108Q3.672 -18.258000000000003 3.9610000000000003 -17.425000000000004Q4.25 -16.592000000000002 4.777 -15.895000000000001Q5.304 -15.198 6.001 -14.688Q6.698 -14.178 7.446000000000001 -13.736Q8.194 -13.294 8.942 -12.852Q9.690000000000001 -12.41 10.370000000000001 -11.849Q11.05 -11.288 11.611 -10.625Q12.172 -9.962000000000002 12.563 -9.197000000000001Q12.954 -8.432 13.141000000000002 -7.565Q13.328000000000001 -6.698 13.328000000000001 -5.848000000000001Q13.328000000000001 -5.1000000000000005 13.192 -4.335000000000001Q13.056000000000001 -3.5700000000000003 12.767000000000001 -2.873Q12.478000000000002 -2.176 12.019000000000002 -1.564Q11.56 -0.9520000000000001 10.931000000000001 -0.527Q10.302000000000001 -0.10200000000000001 9.554000000000002 0.085Q8.806000000000001 0.272 8.058 0.272Z M20.740000000000002 7.3100000000000005H14.858V5.508H16.456V-15.878000000000002H14.858V-17.68H18.428V-14.484000000000002Q18.7 -15.232000000000001 19.108 -15.895Q19.516000000000002 -16.558 20.128 -17.034Q20.740000000000002 -17.51 21.505000000000003 -17.731Q22.27 -17.952 23.018 -17.952Q23.834000000000003 -17.952 24.616000000000003 -17.714000000000002Q25.398000000000003 -17.476000000000003 26.01 -16.966Q26.622 -16.456 27.03 -15.759Q27.438000000000002 -15.062000000000001 27.676000000000002 -14.297Q27.914 -13.532000000000002 27.999000000000002 -12.733Q28.084000000000003 -11.934000000000001 28.084000000000003 -11.152000000000001V-6.5280000000000005Q28.084000000000003 -5.746 27.999000000000002 -4.947000000000001Q27.914 -4.148000000000001 27.676000000000002 -3.3830000000000005Q27.438000000000002 -2.6180000000000003 27.03 -1.9210000000000003Q26.622 -1.2240000000000002 26.01 -0.7140000000000001Q25.398000000000003 -0.20400000000000001 24.616000000000003 0.034Q23.834000000000003 0.272 23.018 0.272Q22.27 0.272 21.505000000000003 0.051000000000000004Q20.740000000000002 -0.17 20.128 -0.646Q19.516000000000002 -1.122 19.108 -1.7850000000000001Q18.7 -2.4480000000000004 18.428 -3.196V5.508H20.740000000000002ZM22.27 -1.53Q22.848 -1.53 23.442999999999998 -1.7000000000000002Q24.038 -1.87 24.497 -2.244Q24.956000000000003 -2.6180000000000003 25.279000000000003 -3.128Q25.602 -3.6380000000000003 25.789 -4.199000000000001Q25.976 -4.760000000000001 26.044 -5.355Q26.112000000000002 -5.95 26.112000000000002 -6.5280000000000005V-11.152000000000001Q26.112000000000002 -11.73 26.044 -12.325000000000001Q25.976 -12.920000000000002 25.789 -13.481000000000002Q25.602 -14.042000000000002 25.279000000000003 -14.552000000000001Q24.956000000000003 -15.062000000000001 24.497 -15.436Q24.038 -15.81 23.442999999999998 -15.98Q22.848 -16.150000000000002 22.27 -16.150000000000002Q21.692 -16.150000000000002 21.097 -15.98Q20.502000000000002 -15.81 20.043 -15.436Q19.584 -15.062000000000001 19.261000000000003 -14.552000000000001Q18.938000000000002 -14.042000000000002 18.751 -13.481000000000002Q18.564 -12.920000000000002 18.496000000000002 -12.325000000000001Q18.428 -11.73 18.428 -11.152000000000001V-6.5280000000000005Q18.428 -5.95 18.496000000000002 -5.355Q18.564 -4.760000000000001 18.751 -4.199000000000001Q18.938000000000002 -3.6380000000000003 19.261000000000003 -3.128Q19.584 -2.6180000000000003 20.043 -2.244Q20.502000000000002 -1.87 21.097 -1.7000000000000002Q21.692 -1.53 22.27 -1.53Z M29.614 0.0V-1.802H31.212V-23.188000000000002H29.614V-24.990000000000002H33.184V-14.518Q33.456 -15.232000000000001 33.847 -15.895Q34.238 -16.558 34.833 -17.034Q35.428 -17.51 36.159 -17.731Q36.89 -17.952 37.638000000000005 -17.952Q38.454 -17.952 39.219 -17.714000000000002Q39.984 -17.476000000000003 40.579 -16.949Q41.174 -16.422 41.565 -15.725000000000001Q41.956 -15.028 42.17700000000001 -14.263000000000002Q42.398 -13.498000000000001 42.483000000000004 -12.716000000000001Q42.568 -11.934000000000001 42.568 -11.152000000000001V-1.802H44.166000000000004V0.0H38.998000000000005V-1.802H40.596000000000004V-11.152000000000001Q40.596000000000004 -11.73 40.528000000000006 -12.308Q40.46 -12.886000000000001 40.290000000000006 -13.447000000000001Q40.120000000000005 -14.008000000000001 39.81400000000001 -14.518Q39.508 -15.028 39.066 -15.419Q38.624 -15.81 38.04600000000001 -15.98Q37.468 -16.150000000000002 36.89 -16.150000000000002Q36.312 -16.150000000000002 35.733999999999995 -15.98Q35.156 -15.81 34.714 -15.419Q34.272 -15.028 33.966 -14.518Q33.660000000000004 -14.008000000000001 33.49 -13.447000000000001Q33.32 -12.886000000000001 33.251999999999995 -12.308Q33.184 -11.73 33.184 -11.152000000000001V-1.802H34.782000000000004V0.0Z M57.256 0.0H46.036V-1.802H50.864000000000004V-15.878000000000002H46.478V-17.68H52.870000000000005V-1.802H57.256ZM51.816 -21.012Q51.442 -21.012 51.102000000000004 -21.114Q50.762 -21.216 50.507000000000005 -21.471000000000004Q50.252 -21.726000000000003 50.150000000000006 -22.066000000000003Q50.048 -22.406000000000002 50.048 -22.78Q50.048 -23.154 50.150000000000006 -23.494Q50.252 -23.834000000000003 50.507000000000005 -24.089000000000002Q50.762 -24.344 51.102000000000004 -24.446Q51.442 -24.548000000000002 51.816 -24.548000000000002Q52.190000000000005 -24.548000000000002 52.53 -24.446Q52.870000000000005 -24.344 53.125 -24.089000000000002Q53.38 -23.834000000000003 53.482 -23.494Q53.584 -23.154 53.584 -22.78Q53.584 -22.406000000000002 53.482 -22.066000000000003Q53.38 -21.726000000000003 53.125 -21.471000000000004Q52.870000000000005 -21.216 52.53 -21.114Q52.190000000000005 -21.012 51.816 -21.012Z M59.126 0.0V-1.802H60.724000000000004V-15.878000000000002H59.126V-17.68H62.696V-14.518Q62.968 -15.232000000000001 63.359 -15.895Q63.75 -16.558 64.345 -17.034Q64.94 -17.51 65.67099999999999 -17.731Q66.402 -17.952 67.15 -17.952Q67.96600000000001 -17.952 68.73100000000001 -17.714000000000002Q69.49600000000001 -17.476000000000003 70.09100000000001 -16.949Q70.686 -16.422 71.077 -15.725000000000001Q71.468 -15.028 71.689 -14.263000000000002Q71.91 -13.498000000000001 71.995 -12.716000000000001Q72.08 -11.934000000000001 72.08 -11.152000000000001V-1.802H73.678V0.0H68.51V-1.802H70.108V-11.152000000000001Q70.108 -11.73 70.04 -12.308Q69.97200000000001 -12.886000000000001 69.802 -13.447000000000001Q69.632 -14.008000000000001 69.326 -14.518Q69.02 -15.028 68.578 -15.419Q68.136 -15.81 67.55799999999999 -15.98Q66.98 -16.150000000000002 66.402 -16.150000000000002Q65.824 -16.150000000000002 65.24600000000001 -15.98Q64.668 -15.81 64.226 -15.419Q63.784 -15.028 63.478 -14.518Q63.172000000000004 -14.008000000000001 63.002 -13.447000000000001Q62.832 -12.886000000000001 62.763999999999996 -12.308Q62.696 -11.73 62.696 -11.152000000000001V-1.802H64.294V0.0Z M73.882 0.0V-1.802H76.194L80.104 -8.84L76.194 -15.878000000000002H73.882V-17.68H79.05V-15.878000000000002H78.438L81.158 -10.812000000000001L83.878 -15.878000000000002H83.266V-17.68H88.434V-15.878000000000002H86.122L82.212 -8.84L86.122 -1.802H88.434V0.0H83.266V-1.802H83.878L81.158 -6.868L78.438 -1.802H79.05V0.0Z M110.67 0.272Q109.82000000000001 0.272 108.97 0.085Q108.12 -0.10200000000000001 107.38900000000001 -0.561Q106.658 -1.02 106.131 -1.7000000000000002Q105.604 -2.3800000000000003 105.281 -3.1790000000000003Q104.958 -3.978 104.839 -4.828Q104.72 -5.678000000000001 104.72 -6.5280000000000005V-11.152000000000001Q104.72 -12.002 104.839 -12.852Q104.958 -13.702000000000002 105.281 -14.501000000000001Q105.604 -15.3 106.131 -15.98Q106.658 -16.66 107.38900000000001 -17.119Q108.12 -17.578000000000003 108.97 -17.765Q109.82000000000001 -17.952 110.67 -17.952Q111.52 -17.952 112.37 -17.765Q113.22 -17.578000000000003 113.951 -17.119Q114.682 -16.66 115.209 -15.98Q115.736 -15.3 116.059 -14.501000000000001Q116.382 -13.702000000000002 116.501 -12.852Q116.62 -12.002 116.62 -11.152000000000001V-6.5280000000000005Q116.62 -5.678000000000001 116.501 -4.828Q116.382 -3.978 116.059 -3.1790000000000003Q115.736 -2.3800000000000003 115.209 -1.7000000000000002Q114.682 -1.02 113.951 -0.561Q113.22 -0.10200000000000001 112.37 0.085Q111.52 0.272 110.67 0.272ZM110.67 -1.53Q111.282 -1.53 111.87700000000001 -1.683Q112.47200000000001 -1.836 112.94800000000001 -2.21Q113.424 -2.584 113.76400000000001 -3.0940000000000003Q114.104 -3.604 114.291 -4.165Q114.47800000000001 -4.726 114.563 -5.338Q114.648 -5.95 114.648 -6.5280000000000005V-11.152000000000001Q114.648 -11.73 114.563 -12.342Q114.47800000000001 -12.954 114.291 -13.515Q114.104 -14.076 113.76400000000001 -14.586000000000002Q113.424 -15.096000000000002 112.94800000000001 -15.470000000000002Q112.47200000000001 -15.844000000000001 111.87700000000001 -15.997000000000002Q111.282 -16.150000000000002 110.67 -16.150000000000002Q110.058 -16.150000000000002 109.463 -15.997000000000002Q108.868 -15.844000000000001 108.392 -15.470000000000002Q107.916 -15.096000000000002 107.576 -14.586000000000002Q107.236 -14.076 107.049 -13.515Q106.862 -12.954 106.777 -12.342Q106.69200000000001 -11.73 106.69200000000001 -11.152000000000001V-6.5280000000000005Q106.69200000000001 -5.95 106.777 -5.338Q106.862 -4.726 107.049 -4.165Q107.236 -3.604 107.576 -3.0940000000000003Q107.916 -2.584 108.392 -2.21Q108.868 -1.836 109.463 -1.683Q110.058 -1.53 110.67 -1.53Z M119.986 0.0V-1.802H123.21600000000001V-14.110000000000001H119.748V-15.912H123.21600000000001V-19.89Q123.21600000000001 -20.536 123.301 -21.182000000000002Q123.386 -21.828000000000003 123.59 -22.440000000000005Q123.794 -23.052000000000003 124.15100000000001 -23.596000000000004Q124.50800000000001 -24.14 125.018 -24.531Q125.528 -24.922 126.174 -25.092Q126.82000000000001 -25.262 127.46600000000001 -25.262Q128.35 -25.262 129.2 -24.939Q130.05 -24.616000000000003 130.611 -23.936Q131.172 -23.256 131.42700000000002 -22.372Q131.68200000000002 -21.488000000000003 131.68200000000002 -20.604000000000003V-20.502000000000002H129.71V-20.57Q129.71 -21.080000000000002 129.591 -21.590000000000003Q129.472 -22.1 129.183 -22.525000000000002Q128.894 -22.950000000000003 128.435 -23.205000000000002Q127.976 -23.46 127.46600000000001 -23.46Q127.058 -23.46 126.684 -23.307000000000002Q126.31 -23.154 126.055 -22.865000000000002Q125.8 -22.576 125.63 -22.202Q125.46000000000001 -21.828000000000003 125.375 -21.454Q125.29 -21.080000000000002 125.256 -20.672000000000004Q125.22200000000001 -20.264000000000003 125.22200000000001 -19.89V-15.912H130.526V-14.110000000000001H125.22200000000001V-1.802H129.676V0.0Z M155.822 0.272Q155.04 0.272 154.292 0.051000000000000004Q153.544 -0.17 152.93200000000002 -0.646Q152.32 -1.122 151.91199999999998 -1.7850000000000001Q151.504 -2.4480000000000004 151.232 -3.196V0.0H147.662V-1.802H149.26V-23.188000000000002H147.662V-24.990000000000002H151.232V-14.484000000000002Q151.504 -15.232000000000001 151.91199999999998 -15.895Q152.32 -16.558 152.93200000000002 -17.034Q153.544 -17.51 154.30900000000003 -17.731Q155.074 -17.952 155.822 -17.952Q156.638 -17.952 157.42000000000002 -17.714000000000002Q158.202 -17.476000000000003 158.81400000000002 -16.966Q159.42600000000002 -16.456 159.834 -15.759Q160.242 -15.062000000000001 160.48000000000002 -14.297Q160.71800000000002 -13.532000000000002 160.803 -12.733Q160.888 -11.934000000000001 160.888 -11.152000000000001V-6.5280000000000005Q160.888 -5.746 160.803 -4.947000000000001Q160.71800000000002 -4.148000000000001 160.48000000000002 -3.3830000000000005Q160.242 -2.6180000000000003 159.834 -1.9210000000000003Q159.42600000000002 -1.2240000000000002 158.81400000000002 -0.7140000000000001Q158.202 -0.20400000000000001 157.42000000000002 0.034Q156.638 0.272 155.822 0.272ZM155.074 -1.53Q155.65200000000002 -1.53 156.247 -1.7000000000000002Q156.842 -1.87 157.301 -2.244Q157.76 -2.6180000000000003 158.083 -3.128Q158.406 -3.6380000000000003 158.59300000000002 -4.199000000000001Q158.78 -4.760000000000001 158.848 -5.355Q158.916 -5.95 158.916 -6.5280000000000005V-11.152000000000001Q158.916 -11.73 158.848 -12.325000000000001Q158.78 -12.920000000000002 158.59300000000002 -13.481000000000002Q158.406 -14.042000000000002 158.083 -14.552000000000001Q157.76 -15.062000000000001 157.301 -15.436Q156.842 -15.81 156.247 -15.98Q155.65200000000002 -16.150000000000002 155.074 -16.150000000000002Q154.496 -16.150000000000002 153.901 -15.98Q153.306 -15.81 152.847 -15.436Q152.388 -15.062000000000001 152.065 -14.552000000000001Q151.742 -14.042000000000002 151.555 -13.481000000000002Q151.368 -12.920000000000002 151.3 -12.325000000000001Q151.232 -11.73 151.232 -11.152000000000001V-6.5280000000000005Q151.232 -5.95 151.3 -5.355Q151.368 -4.760000000000001 151.555 -4.199000000000001Q151.742 -3.6380000000000003 152.065 -3.128Q152.388 -2.6180000000000003 152.847 -2.244Q153.306 -1.87 153.901 -1.7000000000000002Q154.496 -1.53 155.074 -1.53Z M175.304 0.0H164.084V-1.802H168.912V-23.188000000000002H164.526V-24.990000000000002H170.918V-1.802H175.304Z M183.532 0.272Q182.546 0.272 181.56 -0.017000000000000015Q180.574 -0.30600000000000005 179.86 -1.02Q179.14600000000002 -1.7340000000000002 178.823 -2.7030000000000003Q178.5 -3.672 178.5 -4.692Q178.5 -5.474 178.687 -6.273000000000001Q178.874 -7.072000000000001 179.333 -7.735000000000001Q179.792 -8.398000000000001 180.438 -8.891000000000002Q181.084 -9.384 181.849 -9.656Q182.614 -9.928 183.413 -10.030000000000001Q184.212 -10.132000000000001 185.028 -10.132000000000001H188.156V-12.172Q188.156 -12.954 187.935 -13.719000000000001Q187.714 -14.484000000000002 187.204 -15.062000000000001Q186.69400000000002 -15.64 185.94600000000003 -15.895000000000001Q185.198 -16.150000000000002 184.416 -16.150000000000002Q183.736 -16.150000000000002 183.039 -15.98Q182.342 -15.81 181.815 -15.385000000000002Q181.288 -14.96 180.98200000000003 -14.314Q180.67600000000002 -13.668000000000001 180.67600000000002 -12.954V-12.886000000000001H178.704V-12.988000000000001Q178.704 -13.702000000000002 178.89100000000002 -14.399000000000001Q179.078 -15.096000000000002 179.469 -15.691000000000003Q179.86 -16.286 180.421 -16.745Q180.982 -17.204 181.628 -17.476Q182.274 -17.748 182.988 -17.85Q183.702 -17.952 184.416 -17.952Q185.198 -17.952 185.96300000000002 -17.816000000000003Q186.728 -17.68 187.40800000000002 -17.323Q188.088 -16.966 188.632 -16.405Q189.17600000000002 -15.844000000000001 189.51600000000002 -15.147000000000002Q189.856 -14.450000000000001 189.99200000000002 -13.685000000000002Q190.12800000000001 -12.920000000000002 190.12800000000001 -12.172V-1.802H191.726V0.0H188.156V-2.8560000000000003Q187.88400000000001 -2.176 187.442 -1.5470000000000002Q187.0 -0.918 186.388 -0.51Q185.776 -0.10200000000000001 185.02800000000002 0.085Q184.28 0.272 183.532 0.272ZM184.314 -1.53Q184.858 -1.53 185.402 -1.649Q185.946 -1.7680000000000002 186.405 -2.0570000000000004Q186.864 -2.346 187.221 -2.7880000000000003Q187.578 -3.2300000000000004 187.78199999999998 -3.74Q187.986 -4.25 188.071 -4.7940000000000005Q188.156 -5.338 188.156 -5.882000000000001V-8.33H185.028Q184.484 -8.33 183.94 -8.279Q183.39600000000002 -8.228 182.88600000000002 -8.058Q182.376 -7.888000000000001 181.917 -7.599Q181.458 -7.3100000000000005 181.118 -6.885000000000001Q180.778 -6.460000000000001 180.625 -5.933000000000001Q180.472 -5.406000000000001 180.472 -4.862Q180.472 -4.148000000000001 180.76100000000002 -3.4680000000000004Q181.05 -2.7880000000000003 181.611 -2.329Q182.172 -1.87 182.869 -1.7000000000000002Q183.566 -1.53 184.314 -1.53Z M199.104 0.272Q198.254 0.272 197.421 0.085Q196.588 -0.10200000000000001 195.874 -0.5780000000000001Q195.16 -1.054 194.63299999999998 -1.734Q194.106 -2.414 193.8 -3.213Q193.494 -4.0120000000000005 193.375 -4.845000000000001Q193.256 -5.678000000000001 193.256 -6.5280000000000005V-11.152000000000001Q193.256 -11.934000000000001 193.341 -12.75Q193.42600000000002 -13.566 193.698 -14.348Q193.97 -15.13 194.412 -15.827000000000002Q194.854 -16.524 195.483 -17.017000000000003Q196.112 -17.51 196.911 -17.731Q197.71 -17.952 198.526 -17.952Q199.20600000000002 -17.952 199.90300000000002 -17.816000000000003Q200.6 -17.68 201.195 -17.34Q201.79 -17.0 202.26600000000002 -16.473Q202.74200000000002 -15.946000000000002 203.048 -15.334000000000001V-17.68H204.88400000000001V-11.696000000000002H203.048Q203.048 -12.546000000000001 202.844 -13.379000000000001Q202.64000000000001 -14.212000000000002 202.113 -14.858Q201.586 -15.504000000000001 200.787 -15.827000000000002Q199.988 -16.150000000000002 199.138 -16.150000000000002Q198.56 -16.150000000000002 197.965 -15.98Q197.37 -15.81 196.894 -15.453000000000001Q196.418 -15.096000000000002 196.095 -14.586000000000002Q195.772 -14.076 195.58499999999998 -13.498000000000001Q195.398 -12.920000000000002 195.313 -12.325000000000001Q195.228 -11.73 195.228 -11.152000000000001V-6.5280000000000005Q195.228 -5.95 195.296 -5.355Q195.364 -4.760000000000001 195.551 -4.199000000000001Q195.738 -3.6380000000000003 196.061 -3.111Q196.38400000000001 -2.584 196.86 -2.2270000000000003Q197.336 -1.87 197.931 -1.7000000000000002Q198.526 -1.53 199.104 -1.53Q199.92000000000002 -1.53 200.702 -1.8360000000000003Q201.484 -2.1420000000000003 201.994 -2.7880000000000003Q202.504 -3.434 202.74200000000002 -4.2330000000000005Q202.98000000000002 -5.032 202.98000000000002 -5.848000000000001V-5.984H204.952V-5.78Q204.952 -4.998 204.78199999999998 -4.216Q204.612 -3.434 204.272 -2.72Q203.93200000000002 -2.0060000000000002 203.388 -1.411Q202.844 -0.8160000000000001 202.164 -0.42500000000000004Q201.484 -0.034 200.685 0.11900000000000001Q199.886 0.272 199.104 0.272Z M217.94 0.0 212.602 -8.16 210.732 -5.848000000000001V-1.802H212.33V0.0H207.162V-1.802H208.76V-23.188000000000002H207.162V-24.990000000000002H210.732V-8.704L217.804 -17.68H221.238V-15.878000000000002H218.79L213.792 -9.656L219.028 -1.802H221.238V0.0Z M244.868 7.3100000000000005V5.508H247.18V-3.196Q246.90800000000002 -2.4480000000000004 246.5 -1.7850000000000001Q246.092 -1.122 245.48000000000002 -0.646Q244.868 -0.17 244.103 0.051000000000000004Q243.338 0.272 242.59 0.272Q241.774 0.272 240.99200000000002 0.034Q240.21 -0.20400000000000001 239.598 -0.7140000000000001Q238.986 -1.2240000000000002 238.578 -1.9210000000000003Q238.17000000000002 -2.6180000000000003 237.93200000000002 -3.3830000000000005Q237.69400000000002 -4.148000000000001 237.609 -4.947000000000001Q237.524 -5.746 237.524 -6.5280000000000005V-11.152000000000001Q237.524 -11.934000000000001 237.609 -12.733Q237.69400000000002 -13.532000000000002 237.93200000000002 -14.297Q238.17000000000002 -15.062000000000001 238.578 -15.759Q238.986 -16.456 239.598 -16.966Q240.21 -17.476000000000003 240.99200000000002 -17.714000000000002Q241.774 -17.952 242.59 -17.952Q243.338 -17.952 244.103 -17.731Q244.868 -17.51 245.48000000000002 -17.034Q246.092 -16.558 246.5 -15.895Q246.90800000000002 -15.232000000000001 247.18 -14.484000000000002V-17.68H250.75V-15.878000000000002H249.15200000000002V5.508H250.75V7.3100000000000005ZM243.338 -1.53Q243.916 -1.53 244.511 -1.7000000000000002Q245.106 -1.87 245.565 -2.244Q246.024 -2.6180000000000003 246.347 -3.128Q246.67000000000002 -3.6380000000000003 246.85700000000003 -4.199000000000001Q247.044 -4.760000000000001 247.11200000000002 -5.355Q247.18 -5.95 247.18 -6.5280000000000005V-11.152000000000001Q247.18 -11.73 247.11200000000002 -12.325000000000001Q247.044 -12.920000000000002 246.85700000000003 -13.481000000000002Q246.67000000000002 -14.042000000000002 246.347 -14.552000000000001Q246.024 -15.062000000000001 245.565 -15.436Q245.106 -15.81 244.511 -15.98Q243.916 -16.150000000000002 243.338 -16.150000000000002Q242.76 -16.150000000000002 242.165 -15.98Q241.57 -15.81 241.111 -15.436Q240.65200000000002 -15.062000000000001 240.329 -14.552000000000001Q240.006 -14.042000000000002 239.81900000000002 -13.481000000000002Q239.632 -12.920000000000002 239.56400000000002 -12.325000000000001Q239.496 -11.73 239.496 -11.152000000000001V-6.5280000000000005Q239.496 -5.95 239.56400000000002 -5.355Q239.632 -4.760000000000001 239.81900000000002 -4.199000000000001Q240.006 -3.6380000000000003 240.329 -3.128Q240.65200000000002 -2.6180000000000003 241.111 -2.244Q241.57 -1.87 242.165 -1.7000000000000002Q242.76 -1.53 243.338 -1.53Z M257.482 0.272Q256.666 0.272 255.901 0.034Q255.136 -0.20400000000000001 254.541 -0.731Q253.946 -1.258 253.555 -1.955Q253.16400000000002 -2.652 252.943 -3.4170000000000003Q252.722 -4.182 252.637 -4.964Q252.552 -5.746 252.552 -6.5280000000000005V-15.878000000000002H250.954V-17.68H254.524V-6.5280000000000005Q254.524 -5.95 254.59199999999998 -5.372Q254.66 -4.7940000000000005 254.82999999999998 -4.2330000000000005Q255.0 -3.672 255.30599999999998 -3.162Q255.612 -2.652 256.054 -2.261Q256.496 -1.87 257.07399999999996 -1.7000000000000002Q257.652 -1.53 258.23 -1.53Q258.808 -1.53 259.38599999999997 -1.7000000000000002Q259.964 -1.87 260.406 -2.261Q260.848 -2.652 261.154 -3.162Q261.46 -3.672 261.63 -4.2330000000000005Q261.8 -4.7940000000000005 261.868 -5.372Q261.936 -5.95 261.936 -6.5280000000000005V-15.878000000000002H260.338V-17.68H263.908V-1.802H265.50600000000003V0.0H261.936V-3.1620000000000004Q261.664 -2.4480000000000004 261.273 -1.7850000000000001Q260.882 -1.122 260.28700000000003 -0.646Q259.692 -0.17 258.961 0.051000000000000004Q258.23 0.272 257.482 0.272Z M272.068 0.272Q271.082 0.272 270.096 -0.017000000000000015Q269.11 -0.30600000000000005 268.396 -1.02Q267.682 -1.7340000000000002 267.35900000000004 -2.7030000000000003Q267.036 -3.672 267.036 -4.692Q267.036 -5.474 267.223 -6.273000000000001Q267.41 -7.072000000000001 267.869 -7.735000000000001Q268.32800000000003 -8.398000000000001 268.97400000000005 -8.891000000000002Q269.62 -9.384 270.385 -9.656Q271.15 -9.928 271.94899999999996 -10.030000000000001Q272.748 -10.132000000000001 273.564 -10.132000000000001H276.692V-12.172Q276.692 -12.954 276.471 -13.719000000000001Q276.25 -14.484000000000002 275.74 -15.062000000000001Q275.23 -15.64 274.48199999999997 -15.895000000000001Q273.734 -16.150000000000002 272.952 -16.150000000000002Q272.272 -16.150000000000002 271.575 -15.98Q270.878 -15.81 270.351 -15.385000000000002Q269.824 -14.96 269.51800000000003 -14.314Q269.212 -13.668000000000001 269.212 -12.954V-12.886000000000001H267.24V-12.988000000000001Q267.24 -13.702000000000002 267.427 -14.399000000000001Q267.61400000000003 -15.096000000000002 268.005 -15.691000000000003Q268.396 -16.286 268.957 -16.745Q269.51800000000003 -17.204 270.164 -17.476Q270.81 -17.748 271.524 -17.85Q272.238 -17.952 272.952 -17.952Q273.734 -17.952 274.499 -17.816000000000003Q275.264 -17.68 275.944 -17.323Q276.624 -16.966 277.168 -16.405Q277.712 -15.844000000000001 278.052 -15.147000000000002Q278.392 -14.450000000000001 278.528 -13.685000000000002Q278.664 -12.920000000000002 278.664 -12.172V-1.802H280.262V0.0H276.692V-2.8560000000000003Q276.42 -2.176 275.978 -1.5470000000000002Q275.536 -0.918 274.924 -0.51Q274.312 -0.10200000000000001 273.564 0.085Q272.81600000000003 0.272 272.068 0.272ZM272.85 -1.53Q273.394 -1.53 273.938 -1.649Q274.482 -1.7680000000000002 274.94100000000003 -2.0570000000000004Q275.4 -2.346 275.757 -2.7880000000000003Q276.11400000000003 -3.2300000000000004 276.318 -3.74Q276.522 -4.25 276.60699999999997 -4.7940000000000005Q276.692 -5.338 276.692 -5.882000000000001V-8.33H273.564Q273.02 -8.33 272.476 -8.279Q271.932 -8.228 271.422 -8.058Q270.912 -7.888000000000001 270.453 -7.599Q269.994 -7.3100000000000005 269.654 -6.885000000000001Q269.314 -6.460000000000001 269.161 -5.933000000000001Q269.008 -5.406000000000001 269.008 -4.862Q269.008 -4.148000000000001 269.297 -3.4680000000000004Q269.586 -2.7880000000000003 270.14700000000005 -2.329Q270.708 -1.87 271.40500000000003 -1.7000000000000002Q272.10200000000003 -1.53 272.85 -1.53Z M281.75800000000004 0.0V-1.802H284.51200000000006V-15.878000000000002H281.75800000000004V-17.68H286.48400000000004V-13.702000000000002Q286.68800000000005 -14.484000000000002 287.028 -15.249000000000002Q287.36800000000005 -16.014000000000003 287.91200000000003 -16.626Q288.456 -17.238 289.221 -17.595Q289.98600000000005 -17.952 290.802 -17.952Q291.312 -17.952 291.80500000000006 -17.833000000000002Q292.29800000000006 -17.714000000000002 292.706 -17.425000000000004Q293.11400000000003 -17.136000000000003 293.403 -16.711000000000002Q293.692 -16.286 293.845 -15.810000000000002Q293.99800000000005 -15.334000000000001 294.04900000000004 -14.841000000000001Q294.1 -14.348 294.1 -13.838000000000001H292.12800000000004Q292.12800000000004 -14.246 292.043 -14.671000000000001Q291.958 -15.096000000000002 291.72 -15.453000000000001Q291.482 -15.81 291.07400000000007 -15.98Q290.66600000000005 -16.150000000000002 290.25800000000004 -16.150000000000002Q289.54400000000004 -16.150000000000002 288.88100000000003 -15.810000000000002Q288.218 -15.47 287.793 -14.875Q287.36800000000005 -14.280000000000001 287.11300000000006 -13.600000000000001Q286.85800000000006 -12.920000000000002 286.72200000000004 -12.223000000000003Q286.586 -11.526000000000002 286.535 -10.812000000000001Q286.48400000000004 -10.098 286.48400000000004 -9.384V-1.802H289.78200000000004V0.0Z M304.606 0.272Q303.926 0.272 303.26300000000003 0.10200000000000001Q302.6 -0.068 302.039 -0.4760000000000001Q301.478 -0.8840000000000001 301.087 -1.4620000000000002Q300.696 -2.04 300.475 -2.7030000000000003Q300.254 -3.366 300.169 -4.046Q300.084 -4.726 300.084 -5.406000000000001V-15.878000000000002H296.752V-17.68H300.084V-24.990000000000002H302.056V-17.68H307.938V-15.878000000000002H302.056V-5.406000000000001Q302.056 -4.964 302.10699999999997 -4.539Q302.158 -4.114 302.26 -3.689Q302.362 -3.2640000000000002 302.549 -2.873Q302.736 -2.482 303.04200000000003 -2.1590000000000003Q303.348 -1.836 303.773 -1.683Q304.198 -1.53 304.606 -1.53Q305.082 -1.53 305.507 -1.734Q305.932 -1.9380000000000002 306.221 -2.295Q306.51 -2.652 306.697 -3.077Q306.884 -3.5020000000000002 306.986 -3.944Q307.088 -4.386 307.139 -4.845000000000001Q307.19 -5.304 307.19 -5.746V-5.984H309.16200000000003V-5.678000000000001Q309.16200000000003 -4.964 309.06000000000006 -4.267Q308.958 -3.5700000000000003 308.737 -2.907Q308.516 -2.244 308.14200000000005 -1.6320000000000001Q307.76800000000003 -1.02 307.22400000000005 -0.5780000000000001Q306.68 -0.136 306.0 0.068Q305.32 0.272 304.606 0.272Z M311.576 0.0V-1.802L320.824 -15.878000000000002H313.41200000000003V-12.750000000000002H311.576V-17.68H322.932V-15.878000000000002L313.684 -1.802H321.09600000000006V-4.930000000000001H322.932V0.0Z M330.922 7.3100000000000005 329.324 6.222Q330.378 4.896000000000001 331.15999999999997 3.4000000000000004Q331.942 1.9040000000000001 332.282 0.272H331.976Q331.534 0.272 331.092 0.136Q330.65 0.0 330.344 -0.323Q330.038 -0.646 329.90200000000004 -1.088Q329.766 -1.53 329.766 -1.9720000000000002Q329.766 -2.4480000000000004 329.90200000000004 -2.8900000000000006Q330.038 -3.3320000000000003 330.361 -3.6550000000000002Q330.684 -3.978 331.126 -4.114Q331.568 -4.25 332.01 -4.25Q332.486 -4.25 332.945 -4.097Q333.404 -3.9440000000000004 333.727 -3.604Q334.05 -3.2640000000000002 334.15200000000004 -2.7880000000000003Q334.254 -2.3120000000000003 334.254 -1.87Q334.254 -0.6120000000000001 333.999 0.612Q333.744 1.836 333.302 2.9920000000000004Q332.86 4.148000000000001 332.265 5.219Q331.67 6.29 330.922 7.3100000000000005Z M359.89 7.582000000000001Q359.21 7.582000000000001 358.56399999999996 7.429Q357.918 7.276000000000001 357.35699999999997 6.936Q356.796 6.596 356.371 6.069000000000001Q355.946 5.542000000000001 355.674 4.930000000000001Q355.402 4.3180000000000005 355.283 3.6720000000000006Q355.164 3.0260000000000002 355.164 2.346H357.136Q357.136 2.992 357.289 3.587Q357.442 4.182 357.78200000000004 4.692Q358.122 5.202 358.70000000000005 5.491Q359.278 5.78 359.89 5.78Q360.4 5.78 360.876 5.542Q361.35200000000003 5.304 361.675 4.896000000000001Q361.998 4.488 362.185 3.995Q362.372 3.5020000000000002 362.491 2.992Q362.61 2.482 362.644 1.9720000000000002Q362.678 1.4620000000000002 362.678 0.918V-15.878000000000002H358.05400000000003V-17.68H364.65V0.918Q364.65 1.7000000000000002 364.582 2.4650000000000003Q364.514 3.2300000000000004 364.293 3.978Q364.072 4.726 363.68100000000004 5.406000000000001Q363.29 6.086 362.712 6.596Q362.134 7.106000000000001 361.403 7.344000000000001Q360.672 7.582000000000001 359.89 7.582000000000001ZM363.392 -21.012Q363.01800000000003 -21.012 362.678 -21.114Q362.338 -21.216 362.083 -21.471000000000004Q361.82800000000003 -21.726000000000003 361.726 -22.066000000000003Q361.624 -22.406000000000002 361.624 -22.78Q361.624 -23.154 361.726 -23.494Q361.82800000000003 -23.834000000000003 362.083 -24.089000000000002Q362.338 -24.344 362.678 -24.446Q363.01800000000003 -24.548000000000002 363.392 -24.548000000000002Q363.766 -24.548000000000002 364.106 -24.446Q364.446 -24.344 364.701 -24.089000000000002Q364.956 -23.834000000000003 365.058 -23.494Q365.16 -23.154 365.16 -22.78Q365.16 -22.406000000000002 365.058 -22.066000000000003Q364.956 -21.726000000000003 364.701 -21.471000000000004Q364.446 -21.216 364.106 -21.114Q363.766 -21.012 363.392 -21.012Z M375.53000000000003 0.272Q374.71400000000006 0.272 373.94900000000007 0.034Q373.184 -0.20400000000000001 372.58900000000006 -0.731Q371.994 -1.258 371.60300000000007 -1.955Q371.21200000000005 -2.652 370.99100000000004 -3.4170000000000003Q370.77000000000004 -4.182 370.68500000000006 -4.964Q370.6 -5.746 370.6 -6.5280000000000005V-15.878000000000002H369.002V-17.68H372.57200000000006V-6.5280000000000005Q372.57200000000006 -5.95 372.64000000000004 -5.372Q372.708 -4.7940000000000005 372.87800000000004 -4.2330000000000005Q373.04800000000006 -3.672 373.35400000000004 -3.162Q373.66 -2.652 374.10200000000003 -2.261Q374.54400000000004 -1.87 375.12200000000007 -1.7000000000000002Q375.70000000000005 -1.53 376.278 -1.53Q376.85600000000005 -1.53 377.4340000000001 -1.7000000000000002Q378.01200000000006 -1.87 378.45400000000006 -2.261Q378.896 -2.652 379.202 -3.162Q379.50800000000004 -3.672 379.678 -4.2330000000000005Q379.848 -4.7940000000000005 379.91600000000005 -5.372Q379.98400000000004 -5.95 379.98400000000004 -6.5280000000000005V-15.878000000000002H378.386V-17.68H381.956V-1.802H383.55400000000003V0.0H379.98400000000004V-3.1620000000000004Q379.71200000000005 -2.4480000000000004 379.321 -1.7850000000000001Q378.93000000000006 -1.122 378.33500000000004 -0.646Q377.74 -0.17 377.009 0.051000000000000004Q376.278 0.272 375.53000000000003 0.272Z M390.15000000000003 0.272Q389.334 0.272 388.552 0.034Q387.77 -0.20400000000000001 387.158 -0.7140000000000001Q386.546 -1.2240000000000002 386.13800000000003 -1.9210000000000003Q385.73 -2.6180000000000003 385.492 -3.3830000000000005Q385.254 -4.148000000000001 385.169 -4.947000000000001Q385.084 -5.746 385.084 -6.5280000000000005V-11.152000000000001Q385.084 -11.934000000000001 385.169 -12.733Q385.254 -13.532000000000002 385.492 -14.297Q385.73 -15.062000000000001 386.13800000000003 -15.759Q386.546 -16.456 387.158 -16.966Q387.77 -17.476000000000003 388.552 -17.714000000000002Q389.334 -17.952 390.15000000000003 -17.952Q390.932 -17.952 391.68 -17.731Q392.428 -17.51 393.03999999999996 -17.034Q393.652 -16.558 394.06 -15.895Q394.468 -15.232000000000001 394.74 -14.484000000000002V-23.188000000000002H393.142V-24.990000000000002H396.712V-1.802H398.31V0.0H394.74V-3.196Q394.468 -2.4480000000000004 394.06 -1.7850000000000001Q393.652 -1.122 393.03999999999996 -0.646Q392.428 -0.17 391.663 0.051000000000000004Q390.898 0.272 390.15000000000003 0.272ZM390.898 -1.53Q391.476 -1.53 392.071 -1.7000000000000002Q392.666 -1.87 393.125 -2.244Q393.584 -2.6180000000000003 393.90700000000004 -3.128Q394.23 -3.6380000000000003 394.41700000000003 -4.199000000000001Q394.604 -4.760000000000001 394.672 -5.355Q394.74 -5.95 394.74 -6.5280000000000005V-11.152000000000001Q394.74 -11.73 394.672 -12.325000000000001Q394.604 -12.920000000000002 394.41700000000003 -13.481000000000002Q394.23 -14.042000000000002 393.90700000000004 -14.552000000000001Q393.584 -15.062000000000001 393.125 -15.436Q392.666 -15.81 392.071 -15.98Q391.476 -16.150000000000002 390.898 -16.150000000000002Q390.32 -16.150000000000002 389.725 -15.98Q389.13 -15.81 388.671 -15.436Q388.212 -15.062000000000001 387.889 -14.552000000000001Q387.56600000000003 -14.042000000000002 387.379 -13.481000000000002Q387.192 -12.920000000000002 387.124 -12.325000000000001Q387.056 -11.73 387.056 -11.152000000000001V-6.5280000000000005Q387.056 -5.95 387.124 -5.355Q387.192 -4.760000000000001 387.379 -4.199000000000001Q387.56600000000003 -3.6380000000000003 387.889 -3.128Q388.212 -2.6180000000000003 388.671 -2.244Q389.13 -1.87 389.725 -1.7000000000000002Q390.32 -1.53 390.898 -1.53Z M405.72200000000004 7.582000000000001Q404.668 7.582000000000001 403.648 7.344000000000001Q402.62800000000004 7.106000000000001 401.812 6.460000000000001Q400.99600000000004 5.814 400.53700000000003 4.862Q400.07800000000003 3.91 400.04400000000004 2.8560000000000003H402.016Q402.05 3.5360000000000005 402.37300000000005 4.131Q402.696 4.726 403.22300000000007 5.1Q403.75000000000006 5.474 404.3960000000001 5.627000000000001Q405.04200000000003 5.78 405.72200000000004 5.78Q406.3 5.78 406.87800000000004 5.61Q407.456 5.44 407.915 5.066000000000001Q408.374 4.692 408.68000000000006 4.182Q408.98600000000005 3.672 409.173 3.111Q409.36 2.5500000000000003 409.428 1.955Q409.49600000000004 1.36 409.49600000000004 0.782V-3.196Q409.22400000000005 -2.4480000000000004 408.81600000000003 -1.7850000000000001Q408.408 -1.122 407.79600000000005 -0.646Q407.184 -0.17 406.41900000000004 0.051000000000000004Q405.65400000000005 0.272 404.90600000000006 0.272Q404.09000000000003 0.272 403.308 0.034Q402.526 -0.20400000000000001 401.914 -0.7140000000000001Q401.302 -1.2240000000000002 400.894 -1.9210000000000003Q400.48600000000005 -2.6180000000000003 400.24800000000005 -3.3830000000000005Q400.01000000000005 -4.148000000000001 399.92500000000007 -4.947000000000001Q399.84000000000003 -5.746 399.84000000000003 -6.5280000000000005V-11.152000000000001Q399.84000000000003 -11.934000000000001 399.92500000000007 -12.733Q400.01000000000005 -13.532000000000002 400.24800000000005 -14.297Q400.48600000000005 -15.062000000000001 400.894 -15.759Q401.302 -16.456 401.914 -16.966Q402.526 -17.476000000000003 403.308 -17.714000000000002Q404.09000000000003 -17.952 404.90600000000006 -17.952Q405.65400000000005 -17.952 406.41900000000004 -17.731Q407.184 -17.51 407.79600000000005 -17.034Q408.408 -16.558 408.81600000000003 -15.895Q409.22400000000005 -15.232000000000001 409.49600000000004 -14.484000000000002V-17.68H413.06600000000003V-15.878000000000002H411.468V0.782Q411.468 1.598 411.366 2.448Q411.264 3.298 410.958 4.08Q410.65200000000004 4.862 410.14200000000005 5.559Q409.63200000000006 6.256 408.91800000000006 6.715Q408.20400000000006 7.174 407.38800000000003 7.378Q406.57200000000006 7.582000000000001 405.72200000000004 7.582000000000001ZM405.65400000000005 -1.53Q406.232 -1.53 406.827 -1.7000000000000002Q407.422 -1.87 407.88100000000003 -2.244Q408.34000000000003 -2.6180000000000003 408.663 -3.128Q408.98600000000005 -3.6380000000000003 409.173 -4.199000000000001Q409.36 -4.760000000000001 409.428 -5.355Q409.49600000000004 -5.95 409.49600000000004 -6.5280000000000005V-11.152000000000001Q409.49600000000004 -11.73 409.428 -12.325000000000001Q409.36 -12.920000000000002 409.173 -13.481000000000002Q408.98600000000005 -14.042000000000002 408.663 -14.552000000000001Q408.34000000000003 -15.062000000000001 407.88100000000003 -15.436Q407.422 -15.81 406.827 -15.98Q406.232 -16.150000000000002 405.65400000000005 -16.150000000000002Q405.076 -16.150000000000002 404.481 -15.98Q403.886 -15.81 403.427 -15.436Q402.968 -15.062000000000001 402.64500000000004 -14.552000000000001Q402.32200000000006 -14.042000000000002 402.13500000000005 -13.481000000000002Q401.94800000000004 -12.920000000000002 401.88 -12.325000000000001Q401.812 -11.73 401.812 -11.152000000000001V-6.5280000000000005Q401.812 -5.95 401.88 -5.355Q401.94800000000004 -4.760000000000001 402.13500000000005 -4.199000000000001Q402.32200000000006 -3.6380000000000003 402.64500000000004 -3.128Q402.968 -2.6180000000000003 403.427 -2.244Q403.886 -1.87 404.481 -1.7000000000000002Q405.076 -1.53 405.65400000000005 -1.53Z M420.546 0.272Q419.696 0.272 418.846 0.085Q417.996 -0.10200000000000001 417.265 -0.561Q416.534 -1.02 416.007 -1.7000000000000002Q415.48 -2.3800000000000003 415.15700000000004 -3.1790000000000003Q414.834 -3.978 414.71500000000003 -4.828Q414.596 -5.678000000000001 414.596 -6.5280000000000005V-11.152000000000001Q414.596 -12.002 414.71500000000003 -12.852Q414.834 -13.702000000000002 415.15700000000004 -14.501000000000001Q415.48 -15.3 416.007 -15.98Q416.534 -16.66 417.265 -17.119Q417.996 -17.578000000000003 418.846 -17.765Q419.696 -17.952 420.546 -17.952Q421.396 -17.952 422.246 -17.765Q423.096 -17.578000000000003 423.827 -17.119Q424.558 -16.66 425.08500000000004 -15.98Q425.612 -15.3 425.935 -14.501000000000001Q426.258 -13.702000000000002 426.37699999999995 -12.852Q426.496 -12.002 426.496 -11.152000000000001V-7.922000000000001H416.568V-6.5280000000000005Q416.568 -5.95 416.653 -5.338Q416.738 -4.726 416.925 -4.165Q417.112 -3.604 417.452 -3.0940000000000003Q417.79200000000003 -2.584 418.26800000000003 -2.21Q418.744 -1.836 419.33900000000006 -1.683Q419.934 -1.53 420.546 -1.53Q421.26 -1.53 421.957 -1.7000000000000002Q422.654 -1.87 423.23199999999997 -2.295Q423.81 -2.72 424.116 -3.4000000000000004Q424.422 -4.08 424.456 -4.7940000000000005H426.428Q426.428 -4.046 426.224 -3.3320000000000003Q426.02 -2.6180000000000003 425.61199999999997 -2.023Q425.204 -1.4280000000000002 424.626 -0.9690000000000001Q424.048 -0.51 423.385 -0.221Q422.722 0.068 421.991 0.17Q421.26 0.272 420.546 0.272ZM416.568 -9.758000000000001H424.524V-11.152000000000001Q424.524 -11.73 424.43899999999996 -12.342Q424.354 -12.954 424.16700000000003 -13.515Q423.98 -14.076 423.64 -14.586000000000002Q423.3 -15.096000000000002 422.824 -15.470000000000002Q422.348 -15.844000000000001 421.75300000000004 -15.997000000000002Q421.158 -16.150000000000002 420.546 -16.150000000000002Q419.934 -16.150000000000002 419.33900000000006 -15.997000000000002Q418.744 -15.844000000000001 418.26800000000003 -15.470000000000002Q417.79200000000003 -15.096000000000002 417.452 -14.586000000000002Q417.112 -14.076 416.925 -13.515Q416.738 -12.954 416.653 -12.342Q416.568 -11.73 416.568 -11.152000000000001Z M443.05400000000003 0.0V-1.7340000000000002H444.278V-15.946000000000002H443.05400000000003V-17.68H446.182V-16.218Q446.318 -16.558 446.505 -16.881Q446.692 -17.204 446.981 -17.459000000000003Q447.27 -17.714000000000002 447.62699999999995 -17.833000000000002Q447.984 -17.952 448.358 -17.952Q448.834 -17.952 449.259 -17.748Q449.684 -17.544 449.99 -17.187Q450.296 -16.830000000000002 450.483 -16.388Q450.67 -15.946000000000002 450.772 -15.504000000000001Q450.874 -15.946000000000002 451.06100000000004 -16.388Q451.248 -16.830000000000002 451.554 -17.187Q451.86 -17.544 452.285 -17.748Q452.71000000000004 -17.952 453.18600000000004 -17.952Q453.696 -17.952 454.15500000000003 -17.714000000000002Q454.61400000000003 -17.476000000000003 454.903 -17.085Q455.192 -16.694000000000003 455.379 -16.218000000000004Q455.56600000000003 -15.742 455.668 -15.266000000000002Q455.77 -14.790000000000001 455.804 -14.280000000000001Q455.838 -13.770000000000001 455.838 -13.294V-1.7340000000000002H457.062V0.0H453.934V-13.294Q453.934 -13.736 453.9 -14.195Q453.866 -14.654000000000002 453.71299999999997 -15.079Q453.56 -15.504000000000001 453.23699999999997 -15.861Q452.914 -16.218 452.472 -16.218Q452.03000000000003 -16.218 451.707 -15.861Q451.384 -15.504000000000001 451.231 -15.079Q451.07800000000003 -14.654000000000002 451.044 -14.195Q451.01 -13.736 451.01 -13.294V0.0H449.106V-13.294Q449.106 -13.736 449.072 -14.195Q449.038 -14.654000000000002 448.885 -15.079Q448.732 -15.504000000000001 448.409 -15.861Q448.086 -16.218 447.644 -16.218Q447.202 -16.218 446.879 -15.861Q446.556 -15.504000000000001 446.403 -15.079Q446.25 -14.654000000000002 446.216 -14.195Q446.182 -13.736 446.182 -13.294V0.0Z M461.44800000000004 7.3100000000000005H459.612V5.508H461.44800000000004Q461.754 5.508 462.06000000000006 5.423Q462.36600000000004 5.338 462.57000000000005 5.1Q462.77400000000006 4.862 462.87600000000003 4.573Q462.978 4.284000000000001 463.04600000000005 3.978L463.79400000000004 1.1560000000000001L459.27200000000005 -15.878000000000002H457.538V-17.68H462.706V-15.878000000000002H461.312L464.814 -2.04L468.31600000000003 -15.878000000000002H466.922V-17.68H472.09000000000003V-15.878000000000002H470.35600000000005L465.01800000000003 4.284000000000001L464.98400000000004 4.454000000000001Q464.814 5.066000000000001 464.559 5.6610000000000005Q464.30400000000003 6.256 463.82800000000003 6.664000000000001Q463.35200000000003 7.072000000000001 462.72300000000007 7.191000000000001Q462.09400000000005 7.3100000000000005 461.44800000000004 7.3100000000000005Z M493.17 0.0 488.78400000000005 -15.878000000000002H487.08400000000006V-17.68H492.252V-15.878000000000002H490.85800000000006L493.47600000000006 -5.882000000000001Q493.71400000000006 -5.1000000000000005 493.918 -4.284000000000001Q494.122 -3.4680000000000004 494.326 -2.652Q494.53000000000003 -3.4680000000000004 494.73400000000004 -4.284000000000001Q494.93800000000005 -5.1000000000000005 495.17600000000004 -5.882000000000001L497.79400000000004 -15.878000000000002H496.40000000000003V-17.68H501.56800000000004V-15.878000000000002H499.86800000000005L495.482 0.0Z M509.082 0.272Q508.232 0.272 507.382 0.085Q506.532 -0.10200000000000001 505.801 -0.561Q505.07 -1.02 504.543 -1.7000000000000002Q504.016 -2.3800000000000003 503.693 -3.1790000000000003Q503.37 -3.978 503.251 -4.828Q503.132 -5.678000000000001 503.132 -6.5280000000000005V-11.152000000000001Q503.132 -12.002 503.251 -12.852Q503.37 -13.702000000000002 503.693 -14.501000000000001Q504.016 -15.3 504.543 -15.98Q505.07 -16.66 505.801 -17.119Q506.532 -17.578000000000003 507.382 -17.765Q508.232 -17.952 509.082 -17.952Q509.932 -17.952 510.78200000000004 -17.765Q511.632 -17.578000000000003 512.363 -17.119Q513.094 -16.66 513.6210000000001 -15.98Q514.148 -15.3 514.471 -14.501000000000001Q514.794 -13.702000000000002 514.913 -12.852Q515.032 -12.002 515.032 -11.152000000000001V-6.5280000000000005Q515.032 -5.678000000000001 514.913 -4.828Q514.794 -3.978 514.471 -3.1790000000000003Q514.148 -2.3800000000000003 513.6210000000001 -1.7000000000000002Q513.094 -1.02 512.363 -0.561Q511.632 -0.10200000000000001 510.78200000000004 0.085Q509.932 0.272 509.082 0.272ZM509.082 -1.53Q509.694 -1.53 510.289 -1.683Q510.884 -1.836 511.36 -2.21Q511.836 -2.584 512.1759999999999 -3.0940000000000003Q512.516 -3.604 512.703 -4.165Q512.89 -4.726 512.975 -5.338Q513.0600000000001 -5.95 513.0600000000001 -6.5280000000000005V-11.152000000000001Q513.0600000000001 -11.73 512.975 -12.342Q512.89 -12.954 512.703 -13.515Q512.516 -14.076 512.1759999999999 -14.586000000000002Q511.836 -15.096000000000002 511.36 -15.470000000000002Q510.884 -15.844000000000001 510.289 -15.997000000000002Q509.694 -16.150000000000002 509.082 -16.150000000000002Q508.47 -16.150000000000002 507.875 -15.997000000000002Q507.28000000000003 -15.844000000000001 506.80400000000003 -15.470000000000002Q506.32800000000003 -15.096000000000002 505.98800000000006 -14.586000000000002Q505.648 -14.076 505.461 -13.515Q505.274 -12.954 505.18899999999996 -12.342Q505.104 -11.73 505.104 -11.152000000000001V-6.5280000000000005Q505.104 -5.95 505.18899999999996 -5.338Q505.274 -4.726 505.461 -4.165Q505.648 -3.604 505.98800000000006 -3.0940000000000003Q506.32800000000003 -2.584 506.80400000000003 -2.21Q507.28000000000003 -1.836 507.875 -1.683Q508.47 -1.53 509.082 -1.53Z M520.0640000000001 0.0 517.7860000000001 -15.878000000000002H516.868V-17.68H521.0840000000001V-15.878000000000002H519.6560000000001L521.118 -3.3320000000000003L522.9200000000001 -12.716000000000001H524.7560000000001L526.558 -3.3320000000000003L528.02 -15.878000000000002H526.592V-17.68H530.808V-15.878000000000002H529.89L527.6120000000001 0.0H525.7760000000001L523.8380000000001 -10.064L521.9000000000001 0.0Z M538.594 0.272Q538.152 0.272 537.71 0.136Q537.268 0.0 536.9449999999999 -0.323Q536.622 -0.646 536.486 -1.088Q536.35 -1.53 536.35 -1.9720000000000002Q536.35 -2.4480000000000004 536.486 -2.8900000000000006Q536.622 -3.3320000000000003 536.9449999999999 -3.6550000000000002Q537.268 -3.978 537.71 -4.114Q538.152 -4.25 538.594 -4.25Q539.0360000000001 -4.25 539.4780000000001 -4.114Q539.92 -3.978 540.2429999999999 -3.6550000000000002Q540.566 -3.3320000000000003 540.702 -2.8900000000000006Q540.838 -2.4480000000000004 540.838 -1.9720000000000002Q540.838 -1.53 540.702 -1.088Q540.566 -0.646 540.2429999999999 -0.323Q539.92 0.0 539.4780000000001 0.136Q539.0360000000001 0.272 538.594 0.272Z"/>
  </g>
</svg>
