<svg xmlns="http://www.w3.org/2000/svg" width="669" height="97" viewBox="0 0 669 97" role="img" aria-labelledby="title desc">
  <title id="title">Iosevka Term Slab Regular Sonic preview</title>
  <desc id="desc">Sphinx of black quartz, judge my vow.</desc>
  <rect width="100%" height="100%" rx="10" fill="#0d1117"/>
  <text x="24" y="34" fill="#8b949e" font-family="ui-monospace, SFMono-Regular, Menlo, Consolas, monospace" font-size="16">Iosevka Term Slab Regular Sonic</text>
  <g transform="translate(21.65 71.26)" fill="#f0f6fc">
    <path d="M9.384 0.272Q8.704 0.272 7.99 0.136Q7.276000000000001 0.0 6.647 -0.34Q6.018000000000001 -0.68 5.525 -1.1900000000000002Q5.032 -1.7000000000000002 4.692 -2.346V0.0H2.346V-6.12H4.692Q4.692 -5.338 4.896000000000001 -4.556Q5.1000000000000005 -3.7740000000000005 5.644 -3.1960000000000006Q6.188000000000001 -2.6180000000000003 6.936 -2.3630000000000004Q7.684 -2.108 8.5 -2.108Q9.248000000000001 -2.108 9.996000000000002 -2.3630000000000004Q10.744000000000002 -2.6180000000000003 11.271 -3.1790000000000003Q11.798 -3.74 12.053 -4.505000000000001Q12.308000000000002 -5.2700000000000005 12.308000000000002 -6.018000000000001Q12.308000000000002 -6.902 11.968 -7.718Q11.628 -8.534 11.05 -9.18Q10.472000000000001 -9.826 9.741 -10.302Q9.01 -10.778 8.228 -11.169Q7.446000000000001 -11.56 6.698 -12.002Q5.95 -12.444 5.287000000000001 -13.005Q4.6240000000000006 -13.566 4.08 -14.246000000000002Q3.5360000000000005 -14.926000000000002 3.1450000000000005 -15.691Q2.754 -16.456 2.55 -17.306Q2.346 -18.156000000000002 2.346 -19.040000000000003Q2.346 -19.822000000000003 2.482 -20.587000000000003Q2.6180000000000003 -21.352 2.907 -22.066000000000003Q3.196 -22.78 3.6720000000000006 -23.409Q4.148000000000001 -24.038 4.7940000000000005 -24.463Q5.44 -24.888 6.205 -25.075000000000003Q6.970000000000001 -25.262 7.752000000000001 -25.262Q8.432 -25.262 9.112000000000002 -25.126Q9.792000000000002 -24.990000000000002 10.404 -24.650000000000002Q11.016 -24.310000000000002 11.492 -23.800000000000004Q11.968 -23.290000000000003 12.308000000000002 -22.678V-24.990000000000002H14.654000000000002V-18.87H12.308000000000002Q12.308000000000002 -19.652 12.121000000000002 -20.417Q11.934000000000001 -21.182000000000002 11.424000000000001 -21.76Q10.914000000000001 -22.338 10.166 -22.61Q9.418000000000001 -22.882 8.636000000000001 -22.882Q7.888000000000001 -22.882 7.157 -22.61Q6.426 -22.338 5.933 -21.777Q5.44 -21.216 5.202 -20.468000000000004Q4.964 -19.720000000000002 4.964 -18.972Q4.964 -18.122 5.287000000000001 -17.289Q5.61 -16.456 6.188000000000001 -15.81Q6.766000000000001 -15.164000000000001 7.514000000000001 -14.705000000000002Q8.262 -14.246 9.027000000000001 -13.838000000000001Q9.792000000000002 -13.430000000000001 10.540000000000001 -12.988000000000001Q11.288 -12.546000000000001 11.968 -11.985000000000001Q12.648000000000001 -11.424000000000001 13.192 -10.761000000000001Q13.736 -10.098 14.127 -9.316Q14.518 -8.534 14.722000000000001 -7.684000000000001Q14.926000000000002 -6.8340000000000005 14.926000000000002 -5.95Q14.926000000000002 -5.168 14.773000000000001 -4.4030000000000005Q14.620000000000001 -3.6380000000000003 14.331000000000001 -2.907Q14.042000000000002 -2.176 13.549000000000001 -1.5470000000000002Q13.056000000000001 -0.918 12.393 -0.493Q11.73 -0.068 10.965 0.10200000000000001Q10.200000000000001 0.272 9.384 0.272Z M17.782 7.3100000000000005V4.930000000000001H19.346V-15.3H17.782V-17.68H21.998V-14.416Q22.236 -15.164000000000001 22.678 -15.844000000000001Q23.12 -16.524 23.732 -17.017000000000003Q24.344 -17.51 25.126 -17.731Q25.908 -17.952 26.69 -17.952Q27.54 -17.952 28.339 -17.714000000000002Q29.138 -17.476000000000003 29.767000000000003 -16.932000000000002Q30.396 -16.388 30.821 -15.674000000000001Q31.246000000000002 -14.96 31.501 -14.161000000000001Q31.756 -13.362 31.841 -12.529Q31.926000000000002 -11.696000000000002 31.926000000000002 -10.88V-6.800000000000001Q31.926000000000002 -5.984 31.841 -5.151Q31.756 -4.3180000000000005 31.501 -3.519Q31.246000000000002 -2.72 30.821 -2.0060000000000002Q30.396 -1.292 29.767000000000003 -0.748Q29.138 -0.20400000000000001 28.339 0.034Q27.54 0.272 26.69 0.272Q25.908 0.272 25.126 0.051000000000000004Q24.344 -0.17 23.732 -0.663Q23.12 -1.1560000000000001 22.678 -1.836Q22.236 -2.516 21.998 -3.2640000000000002V4.930000000000001H24.310000000000002V7.3100000000000005ZM25.636000000000003 -2.108Q26.214 -2.108 26.758 -2.261Q27.302 -2.414 27.744 -2.7540000000000004Q28.186 -3.0940000000000003 28.492 -3.5700000000000003Q28.798000000000002 -4.046 28.985 -4.59Q29.172 -5.134 29.223 -5.678000000000001Q29.274 -6.222 29.274 -6.800000000000001V-10.88Q29.274 -11.458 29.223 -12.002Q29.172 -12.546000000000001 28.985 -13.09Q28.798000000000002 -13.634 28.492 -14.11Q28.186 -14.586 27.744 -14.926000000000002Q27.302 -15.266000000000002 26.758 -15.419Q26.214 -15.572000000000001 25.636000000000003 -15.572000000000001Q25.058 -15.572000000000001 24.514 -15.419Q23.97 -15.266000000000002 23.528 -14.926000000000002Q23.086 -14.586 22.78 -14.11Q22.474 -13.634 22.287 -13.09Q22.1 -12.546000000000001 22.049 -12.002Q21.998 -11.458 21.998 -10.88V-6.800000000000001Q21.998 -6.222 22.049 -5.678000000000001Q22.1 -5.134 22.287 -4.59Q22.474 -4.046 22.78 -3.5700000000000003Q23.086 -3.0940000000000003 23.528 -2.7540000000000004Q23.97 -2.414 24.514 -2.261Q25.058 -2.108 25.636000000000003 -2.108Z M34.782 0.0V-2.3800000000000003H36.346000000000004V-22.610000000000003H34.782V-24.990000000000002H38.998V-14.484000000000002Q39.236000000000004 -15.198 39.661 -15.861Q40.086 -16.524 40.681 -17.017000000000003Q41.276 -17.51 42.041 -17.731Q42.806 -17.952 43.554 -17.952Q44.370000000000005 -17.952 45.169000000000004 -17.697000000000003Q45.968 -17.442 46.58 -16.898000000000003Q47.192 -16.354000000000003 47.6 -15.623000000000001Q48.008 -14.892000000000001 48.246 -14.110000000000001Q48.484 -13.328000000000001 48.569 -12.512Q48.654 -11.696000000000002 48.654 -10.88V-2.3800000000000003H50.218V0.0H44.438V-2.3800000000000003H46.002V-10.88Q46.002 -11.424000000000001 45.951 -11.985000000000001Q45.9 -12.546000000000001 45.730000000000004 -13.073Q45.56 -13.600000000000001 45.271 -14.076Q44.982 -14.552000000000001 44.557 -14.909000000000002Q44.132000000000005 -15.266000000000002 43.588 -15.419Q43.044 -15.572000000000001 42.5 -15.572000000000001Q41.956 -15.572000000000001 41.412000000000006 -15.419Q40.868 -15.266000000000002 40.443 -14.909000000000002Q40.018 -14.552000000000001 39.729 -14.076Q39.44 -13.600000000000001 39.269999999999996 -13.073Q39.1 -12.546000000000001 39.049 -11.985000000000001Q38.998 -11.424000000000001 38.998 -10.88V-2.3800000000000003H40.562V0.0Z M53.550000000000004 0.0V-2.3800000000000003H58.412000000000006V-15.3H54.02600000000001V-17.68H61.06400000000001V-2.3800000000000003H65.45V0.0ZM59.67000000000001 -20.672Q59.22800000000001 -20.672 58.82000000000001 -20.791Q58.412000000000006 -20.91 58.10600000000001 -21.216Q57.80000000000001 -21.522000000000002 57.68100000000001 -21.93Q57.56200000000001 -22.338 57.56200000000001 -22.78Q57.56200000000001 -23.222 57.68100000000001 -23.630000000000003Q57.80000000000001 -24.038 58.10600000000001 -24.344Q58.412000000000006 -24.650000000000002 58.82000000000001 -24.786Q59.22800000000001 -24.922 59.67000000000001 -24.922Q60.11200000000001 -24.922 60.52000000000001 -24.786Q60.92800000000001 -24.650000000000002 61.23400000000001 -24.344Q61.540000000000006 -24.038 61.67600000000001 -23.630000000000003Q61.81200000000001 -23.222 61.81200000000001 -22.78Q61.81200000000001 -22.338 61.67600000000001 -21.93Q61.540000000000006 -21.522000000000002 61.23400000000001 -21.216Q60.92800000000001 -20.91 60.52000000000001 -20.791Q60.11200000000001 -20.672 59.67000000000001 -20.672Z M68.782 0.0V-2.3800000000000003H70.346V-15.3H68.782V-17.68H72.998V-14.484000000000002Q73.236 -15.198 73.661 -15.861Q74.086 -16.524 74.681 -17.017000000000003Q75.276 -17.51 76.041 -17.731Q76.806 -17.952 77.554 -17.952Q78.37 -17.952 79.16900000000001 -17.697000000000003Q79.968 -17.442 80.58000000000001 -16.898000000000003Q81.19200000000001 -16.354000000000003 81.6 -15.623000000000001Q82.008 -14.892000000000001 82.24600000000001 -14.110000000000001Q82.48400000000001 -13.328000000000001 82.569 -12.512Q82.654 -11.696000000000002 82.654 -10.88V-2.3800000000000003H84.218V0.0H78.438V-2.3800000000000003H80.002V-10.88Q80.002 -11.424000000000001 79.951 -11.985000000000001Q79.9 -12.546000000000001 79.73 -13.073Q79.56 -13.600000000000001 79.271 -14.076Q78.982 -14.552000000000001 78.557 -14.909000000000002Q78.132 -15.266000000000002 77.588 -15.419Q77.044 -15.572000000000001 76.5 -15.572000000000001Q75.956 -15.572000000000001 75.412 -15.419Q74.868 -15.266000000000002 74.443 -14.909000000000002Q74.018 -14.552000000000001 73.729 -14.076Q73.44 -13.600000000000001 73.27 -13.073Q73.1 -12.546000000000001 73.049 -11.985000000000001Q72.998 -11.424000000000001 72.998 -10.88V-2.3800000000000003H74.562V0.0Z M85.782 0.0V-2.3800000000000003H88.366L92.106 -8.84L88.366 -15.3H85.782V-17.68H91.562V-15.3H91.324L93.5 -11.322000000000001L95.676 -15.3H95.438V-17.68H101.218V-15.3H98.634L94.894 -8.84L98.634 -2.3800000000000003H101.218V0.0H95.438V-2.3800000000000003H95.676L93.5 -6.3580000000000005L91.324 -2.3800000000000003H91.562V0.0Z M127.50000000000001 0.272Q126.58200000000002 0.272 125.69800000000002 0.085Q124.81400000000002 -0.10200000000000001 124.03200000000001 -0.561Q123.25000000000001 -1.02 122.65500000000002 -1.717Q122.06000000000002 -2.414 121.70300000000002 -3.247Q121.34600000000002 -4.08 121.21000000000001 -4.981Q121.07400000000001 -5.882000000000001 121.07400000000001 -6.800000000000001V-10.88Q121.07400000000001 -11.798 121.21000000000001 -12.699000000000002Q121.34600000000002 -13.600000000000001 121.70300000000002 -14.433000000000002Q122.06000000000002 -15.266000000000002 122.65500000000002 -15.963000000000001Q123.25000000000001 -16.66 124.03200000000001 -17.119Q124.81400000000002 -17.578000000000003 125.69800000000002 -17.765Q126.58200000000002 -17.952 127.50000000000001 -17.952Q128.418 -17.952 129.30200000000002 -17.765Q130.186 -17.578000000000003 130.96800000000002 -17.119Q131.75000000000003 -16.66 132.34500000000003 -15.963000000000001Q132.94000000000003 -15.266000000000002 133.29700000000003 -14.433000000000002Q133.65400000000002 -13.600000000000001 133.79000000000002 -12.699000000000002Q133.92600000000002 -11.798 133.92600000000002 -10.88V-6.800000000000001Q133.92600000000002 -5.882000000000001 133.79000000000002 -4.981Q133.65400000000002 -4.08 133.29700000000003 -3.247Q132.94000000000003 -2.414 132.34500000000003 -1.717Q131.75000000000003 -1.02 130.96800000000002 -0.561Q130.186 -0.10200000000000001 129.30200000000002 0.085Q128.418 0.272 127.50000000000001 0.272ZM127.50000000000001 -2.108Q128.078 -2.108 128.639 -2.244Q129.20000000000002 -2.3800000000000003 129.65900000000002 -2.72Q130.11800000000002 -3.06 130.44100000000003 -3.5360000000000005Q130.764 -4.0120000000000005 130.95100000000002 -4.556000000000001Q131.138 -5.1000000000000005 131.20600000000002 -5.6610000000000005Q131.274 -6.222 131.274 -6.800000000000001V-10.88Q131.274 -11.458 131.20600000000002 -12.019Q131.138 -12.58 130.95100000000002 -13.124Q130.764 -13.668000000000001 130.44100000000003 -14.144000000000002Q130.11800000000002 -14.620000000000001 129.65900000000002 -14.96Q129.20000000000002 -15.3 128.639 -15.436Q128.078 -15.572000000000001 127.50000000000001 -15.572000000000001Q126.92200000000001 -15.572000000000001 126.36100000000002 -15.436Q125.80000000000001 -15.3 125.34100000000001 -14.96Q124.88200000000002 -14.620000000000001 124.55900000000003 -14.144000000000002Q124.23600000000002 -13.668000000000001 124.049 -13.124Q123.86200000000001 -12.58 123.79400000000001 -12.019Q123.72600000000001 -11.458 123.72600000000001 -10.88V-6.800000000000001Q123.72600000000001 -6.222 123.79400000000001 -5.6610000000000005Q123.86200000000001 -5.1000000000000005 124.049 -4.556000000000001Q124.23600000000002 -4.0120000000000005 124.55900000000003 -3.5360000000000005Q124.88200000000002 -3.06 125.34100000000001 -2.72Q125.80000000000001 -2.3800000000000003 126.36100000000002 -2.244Q126.92200000000001 -2.108 127.50000000000001 -2.108Z M138.584 0.0V-2.3800000000000003H141.984V-13.668000000000001H138.346V-16.082H141.984V-19.686Q141.984 -20.366000000000003 142.06900000000002 -21.046000000000003Q142.154 -21.726000000000003 142.392 -22.372Q142.63 -23.018 143.038 -23.579Q143.446 -24.14 144.007 -24.531Q144.568 -24.922 145.248 -25.092Q145.928 -25.262 146.608 -25.262Q147.56 -25.262 148.461 -24.956000000000003Q149.362 -24.650000000000002 150.00799999999998 -23.953000000000003Q150.654 -23.256 150.94299999999998 -22.338Q151.232 -21.42 151.232 -20.502000000000002V-20.400000000000002H148.58V-20.434Q148.58 -20.876 148.478 -21.318Q148.376 -21.76 148.121 -22.117Q147.866 -22.474 147.45800000000003 -22.678Q147.05 -22.882 146.608 -22.882Q146.098 -22.882 145.656 -22.559Q145.214 -22.236 144.993 -21.743000000000002Q144.772 -21.25 144.704 -20.740000000000002Q144.636 -20.23 144.636 -19.686V-16.082H150.042V-13.702000000000002H144.636V-2.3800000000000003H149.124V0.0Z M179.69 0.272Q178.90800000000002 0.272 178.126 0.051000000000000004Q177.344 -0.17 176.732 -0.663Q176.12 -1.1560000000000001 175.678 -1.836Q175.236 -2.516 174.998 -3.2640000000000002V0.0H170.782V-2.3800000000000003H172.346V-22.610000000000003H170.782V-24.990000000000002H174.998V-14.416Q175.236 -15.164000000000001 175.678 -15.844000000000001Q176.12 -16.524 176.732 -17.017000000000003Q177.344 -17.51 178.126 -17.731Q178.90800000000002 -17.952 179.69 -17.952Q180.54 -17.952 181.339 -17.714000000000002Q182.138 -17.476000000000003 182.767 -16.932000000000002Q183.39600000000002 -16.388 183.82100000000003 -15.674000000000001Q184.246 -14.96 184.501 -14.161000000000001Q184.756 -13.362 184.841 -12.529Q184.926 -11.696000000000002 184.926 -10.88V-6.800000000000001Q184.926 -5.984 184.841 -5.151Q184.756 -4.3180000000000005 184.501 -3.519Q184.246 -2.72 183.82100000000003 -2.0060000000000002Q183.39600000000002 -1.292 182.767 -0.748Q182.138 -0.20400000000000001 181.339 0.034Q180.54 0.272 179.69 0.272ZM178.636 -2.108Q179.18 -2.108 179.74099999999999 -2.261Q180.302 -2.414 180.744 -2.7540000000000004Q181.186 -3.0940000000000003 181.49200000000002 -3.5700000000000003Q181.798 -4.046 181.985 -4.59Q182.172 -5.134 182.223 -5.678000000000001Q182.274 -6.222 182.274 -6.800000000000001V-10.88Q182.274 -11.458 182.223 -12.002Q182.172 -12.546000000000001 181.985 -13.09Q181.798 -13.634 181.49200000000002 -14.11Q181.186 -14.586 180.744 -14.926000000000002Q180.302 -15.266000000000002 179.75799999999998 -15.419Q179.214 -15.572000000000001 178.636 -15.572000000000001Q178.058 -15.572000000000001 177.514 -15.419Q176.97 -15.266000000000002 176.52800000000002 -14.926000000000002Q176.086 -14.586 175.78 -14.11Q175.474 -13.634 175.28699999999998 -13.09Q175.1 -12.546000000000001 175.04899999999998 -12.002Q174.998 -11.458 174.998 -10.88V-6.800000000000001Q174.998 -6.222 175.04899999999998 -5.678000000000001Q175.1 -5.134 175.28699999999998 -4.59Q175.474 -4.046 175.78 -3.5700000000000003Q176.086 -3.0940000000000003 176.52800000000002 -2.7540000000000004Q176.97 -2.414 177.514 -2.261Q178.058 -2.108 178.636 -2.108Z M189.55 0.0V-2.3800000000000003H194.412V-22.610000000000003H190.026V-24.990000000000002H197.064V-2.3800000000000003H201.45V0.0Z M211.27600000000004 0.272Q210.25600000000003 0.272 209.25300000000004 -0.017000000000000015Q208.25000000000003 -0.30600000000000005 207.502 -1.0030000000000001Q206.75400000000002 -1.7000000000000002 206.41400000000004 -2.686Q206.07400000000004 -3.672 206.07400000000004 -4.692Q206.07400000000004 -5.5760000000000005 206.27800000000002 -6.409000000000001Q206.48200000000003 -7.242000000000001 206.99200000000002 -7.939000000000001Q207.50200000000004 -8.636000000000001 208.21600000000004 -9.129000000000001Q208.93000000000004 -9.622 209.74600000000004 -9.894Q210.56200000000004 -10.166 211.41200000000003 -10.285Q212.26200000000003 -10.404 213.11200000000002 -10.404H216.00200000000004V-12.07Q216.00200000000004 -12.784 215.79800000000003 -13.464000000000002Q215.59400000000002 -14.144000000000002 215.08400000000003 -14.654000000000002Q214.57400000000004 -15.164000000000001 213.87700000000004 -15.368000000000002Q213.18000000000004 -15.572000000000001 212.46600000000004 -15.572000000000001Q211.82000000000002 -15.572000000000001 211.19100000000003 -15.436Q210.56200000000004 -15.3 210.05200000000002 -14.943000000000001Q209.54200000000003 -14.586 209.23600000000005 -14.008000000000001Q208.93000000000004 -13.430000000000001 208.93000000000004 -12.818000000000001V-12.750000000000002H206.27800000000002V-12.852Q206.27800000000002 -13.634 206.49900000000002 -14.365000000000002Q206.72000000000003 -15.096000000000002 207.14500000000004 -15.708000000000002Q207.57000000000002 -16.32 208.18200000000002 -16.762Q208.79400000000004 -17.204 209.50800000000004 -17.476Q210.22200000000004 -17.748 210.97000000000003 -17.85Q211.71800000000002 -17.952 212.46600000000004 -17.952Q213.28200000000004 -17.952 214.08100000000002 -17.816000000000003Q214.88000000000002 -17.68 215.61100000000005 -17.34Q216.34200000000004 -17.0 216.95400000000004 -16.456Q217.56600000000003 -15.912 217.95700000000005 -15.198Q218.34800000000004 -14.484000000000002 218.50100000000003 -13.668000000000001Q218.65400000000002 -12.852 218.65400000000002 -12.07V-2.3800000000000003H220.21800000000002V0.0H216.00200000000004V-2.9240000000000004Q215.73000000000002 -2.21 215.27100000000002 -1.581Q214.81200000000004 -0.9520000000000001 214.18300000000005 -0.527Q213.55400000000003 -0.10200000000000001 212.80600000000004 0.085Q212.05800000000002 0.272 211.27600000000004 0.272ZM212.33000000000004 -2.108Q213.11200000000002 -2.108 213.86 -2.38Q214.60800000000003 -2.652 215.11800000000005 -3.2300000000000004Q215.62800000000004 -3.8080000000000003 215.81500000000005 -4.573Q216.00200000000004 -5.338 216.00200000000004 -6.12V-8.024000000000001H213.11200000000002Q212.60200000000003 -8.024000000000001 212.10900000000004 -7.973000000000001Q211.61600000000004 -7.922000000000001 211.12300000000005 -7.7860000000000005Q210.63000000000002 -7.65 210.18800000000005 -7.412000000000001Q209.74600000000004 -7.174 209.38900000000004 -6.800000000000001Q209.03200000000004 -6.426 208.87900000000002 -5.95Q208.72600000000003 -5.474 208.72600000000003 -4.964Q208.72600000000003 -4.3180000000000005 209.01500000000004 -3.7060000000000004Q209.30400000000003 -3.0940000000000003 209.848 -2.737Q210.39200000000002 -2.3800000000000003 211.038 -2.244Q211.68400000000003 -2.108 212.33000000000004 -2.108Z M229.39800000000002 0.272Q228.51400000000004 0.272 227.61300000000003 0.085Q226.71200000000002 -0.10200000000000001 225.947 -0.5780000000000001Q225.18200000000002 -1.054 224.60400000000004 -1.7510000000000003Q224.02600000000004 -2.4480000000000004 223.68600000000004 -3.281Q223.34600000000003 -4.114 223.21000000000004 -5.015000000000001Q223.07400000000004 -5.916 223.07400000000004 -6.800000000000001V-10.88Q223.07400000000004 -11.73 223.17600000000004 -12.580000000000002Q223.27800000000002 -13.430000000000001 223.55 -14.229000000000001Q223.82200000000003 -15.028 224.28100000000003 -15.742Q224.74000000000004 -16.456 225.42000000000002 -16.983Q226.10000000000002 -17.51 226.93300000000002 -17.731Q227.76600000000002 -17.952 228.61600000000004 -17.952Q229.33000000000004 -17.952 230.02700000000004 -17.816000000000003Q230.72400000000002 -17.68 231.353 -17.34Q231.98200000000003 -17.0 232.47500000000002 -16.490000000000002Q232.96800000000002 -15.98 233.30800000000002 -15.334000000000001V-17.68H235.65400000000002V-11.56H233.30800000000002Q233.30800000000002 -12.342 233.10400000000004 -13.124Q232.90000000000003 -13.906 232.35600000000005 -14.484000000000002Q231.81200000000004 -15.062000000000001 231.06400000000002 -15.317Q230.31600000000003 -15.572000000000001 229.53400000000002 -15.572000000000001Q228.95600000000002 -15.572000000000001 228.39500000000004 -15.436Q227.83400000000003 -15.3 227.35800000000003 -14.96Q226.88200000000003 -14.620000000000001 226.55900000000003 -14.144000000000002Q226.23600000000002 -13.668000000000001 226.04900000000004 -13.124Q225.86200000000002 -12.58 225.79400000000004 -12.019Q225.72600000000003 -11.458 225.72600000000003 -10.88V-6.800000000000001Q225.72600000000003 -6.222 225.79400000000004 -5.6610000000000005Q225.86200000000002 -5.1000000000000005 226.03200000000004 -4.573Q226.20200000000003 -4.046 226.52500000000003 -3.5700000000000003Q226.84800000000004 -3.0940000000000003 227.29000000000002 -2.7540000000000004Q227.73200000000003 -2.414 228.29300000000003 -2.261Q228.85400000000004 -2.108 229.39800000000002 -2.108Q230.14600000000002 -2.108 230.877 -2.38Q231.60800000000003 -2.652 232.11800000000005 -3.213Q232.62800000000004 -3.7740000000000005 232.84900000000005 -4.522Q233.07000000000002 -5.2700000000000005 233.07000000000002 -6.018000000000001V-6.12H235.72200000000004V-5.95Q235.72200000000004 -5.1000000000000005 235.53500000000003 -4.284000000000001Q235.34800000000004 -3.4680000000000004 234.95700000000005 -2.72Q234.56600000000003 -1.9720000000000002 233.97100000000003 -1.3770000000000002Q233.37600000000003 -0.782 232.62800000000004 -0.40800000000000003Q231.88000000000002 -0.034 231.06400000000002 0.11900000000000001Q230.24800000000002 0.272 229.39800000000002 0.272Z M239.29200000000003 0.0V-2.3800000000000003H240.89000000000001V-22.610000000000003H239.29200000000003V-24.990000000000002H243.50800000000004V-9.044L250.24000000000004 -17.68H254.21800000000002V-15.3H251.53200000000004L246.94200000000004 -9.622L251.83800000000002 -2.3800000000000003H254.21800000000002V0.0H250.37600000000003L245.37800000000004 -7.684L243.50800000000004 -5.372000000000001V-2.3800000000000003H245.07200000000003V0.0Z M281.69 7.3100000000000005V4.930000000000001H284.002V-3.2640000000000002Q283.764 -2.516 283.322 -1.836Q282.88 -1.1560000000000001 282.26800000000003 -0.663Q281.656 -0.17 280.874 0.051000000000000004Q280.092 0.272 279.31 0.272Q278.46 0.272 277.661 0.034Q276.862 -0.20400000000000001 276.233 -0.748Q275.604 -1.292 275.179 -2.0060000000000002Q274.754 -2.72 274.499 -3.519Q274.244 -4.3180000000000005 274.159 -5.151Q274.074 -5.984 274.074 -6.800000000000001V-10.88Q274.074 -11.696000000000002 274.159 -12.529Q274.244 -13.362 274.499 -14.161000000000001Q274.754 -14.96 275.179 -15.674000000000001Q275.604 -16.388 276.233 -16.932000000000002Q276.862 -17.476000000000003 277.661 -17.714000000000002Q278.46 -17.952 279.31 -17.952Q280.092 -17.952 280.874 -17.731Q281.656 -17.51 282.26800000000003 -17.017000000000003Q282.88 -16.524 283.322 -15.844000000000001Q283.764 -15.164000000000001 284.002 -14.416V-17.68H288.218V-15.3H286.654V4.930000000000001H288.218V7.3100000000000005ZM280.364 -2.108Q280.942 -2.108 281.486 -2.261Q282.03 -2.414 282.472 -2.7540000000000004Q282.914 -3.0940000000000003 283.22 -3.5700000000000003Q283.526 -4.046 283.71299999999997 -4.59Q283.9 -5.134 283.951 -5.678000000000001Q284.002 -6.222 284.002 -6.800000000000001V-10.88Q284.002 -11.458 283.951 -12.002Q283.9 -12.546000000000001 283.71299999999997 -13.09Q283.526 -13.634 283.22 -14.11Q282.914 -14.586 282.472 -14.926000000000002Q282.03 -15.266000000000002 281.486 -15.419Q280.942 -15.572000000000001 280.364 -15.572000000000001Q279.786 -15.572000000000001 279.24199999999996 -15.419Q278.698 -15.266000000000002 278.256 -14.926000000000002Q277.814 -14.586 277.50800000000004 -14.11Q277.202 -13.634 277.015 -13.09Q276.828 -12.546000000000001 276.777 -12.002Q276.726 -11.458 276.726 -10.88V-6.800000000000001Q276.726 -6.222 276.777 -5.678000000000001Q276.828 -5.134 277.015 -4.59Q277.202 -4.046 277.50800000000004 -3.5700000000000003Q277.814 -3.0940000000000003 278.256 -2.7540000000000004Q278.698 -2.414 279.24199999999996 -2.261Q279.786 -2.108 280.364 -2.108Z M296.446 0.272Q295.63 0.272 294.831 0.017Q294.032 -0.23800000000000002 293.41999999999996 -0.782Q292.808 -1.326 292.4 -2.0570000000000004Q291.992 -2.7880000000000003 291.754 -3.5700000000000003Q291.516 -4.352 291.43100000000004 -5.168Q291.346 -5.984 291.346 -6.800000000000001V-15.3H289.782V-17.68H293.998V-6.800000000000001Q293.998 -6.256 294.049 -5.695Q294.1 -5.134 294.27 -4.607Q294.44 -4.08 294.72900000000004 -3.604Q295.01800000000003 -3.128 295.443 -2.771Q295.868 -2.414 296.41200000000003 -2.261Q296.956 -2.108 297.5 -2.108Q298.044 -2.108 298.58799999999997 -2.261Q299.132 -2.414 299.557 -2.771Q299.982 -3.128 300.271 -3.604Q300.56 -4.08 300.73 -4.607Q300.9 -5.134 300.951 -5.695Q301.002 -6.256 301.002 -6.800000000000001V-15.3H299.438V-17.68H303.654V-2.3800000000000003H305.218V0.0H301.002V-3.196Q300.764 -2.482 300.339 -1.8190000000000002Q299.914 -1.1560000000000001 299.31899999999996 -0.663Q298.724 -0.17 297.959 0.051000000000000004Q297.194 0.272 296.446 0.272Z M313.276 0.272Q312.256 0.272 311.253 -0.017000000000000015Q310.25 -0.30600000000000005 309.502 -1.0030000000000001Q308.754 -1.7000000000000002 308.414 -2.686Q308.074 -3.672 308.074 -4.692Q308.074 -5.5760000000000005 308.278 -6.409000000000001Q308.482 -7.242000000000001 308.992 -7.939000000000001Q309.502 -8.636000000000001 310.216 -9.129000000000001Q310.93 -9.622 311.746 -9.894Q312.562 -10.166 313.41200000000003 -10.285Q314.262 -10.404 315.112 -10.404H318.002V-12.07Q318.002 -12.784 317.798 -13.464000000000002Q317.594 -14.144000000000002 317.084 -14.654000000000002Q316.574 -15.164000000000001 315.877 -15.368000000000002Q315.18 -15.572000000000001 314.466 -15.572000000000001Q313.82 -15.572000000000001 313.19100000000003 -15.436Q312.562 -15.3 312.052 -14.943000000000001Q311.542 -14.586 311.236 -14.008000000000001Q310.93 -13.430000000000001 310.93 -12.818000000000001V-12.750000000000002H308.278V-12.852Q308.278 -13.634 308.499 -14.365000000000002Q308.72 -15.096000000000002 309.145 -15.708000000000002Q309.57 -16.32 310.182 -16.762Q310.794 -17.204 311.508 -17.476Q312.222 -17.748 312.97 -17.85Q313.718 -17.952 314.466 -17.952Q315.282 -17.952 316.081 -17.816000000000003Q316.88 -17.68 317.611 -17.34Q318.342 -17.0 318.95399999999995 -16.456Q319.566 -15.912 319.957 -15.198Q320.348 -14.484000000000002 320.501 -13.668000000000001Q320.654 -12.852 320.654 -12.07V-2.3800000000000003H322.218V0.0H318.002V-2.9240000000000004Q317.73 -2.21 317.271 -1.581Q316.812 -0.9520000000000001 316.183 -0.527Q315.554 -0.10200000000000001 314.806 0.085Q314.058 0.272 313.276 0.272ZM314.33 -2.108Q315.112 -2.108 315.86 -2.38Q316.608 -2.652 317.118 -3.2300000000000004Q317.628 -3.8080000000000003 317.815 -4.573Q318.002 -5.338 318.002 -6.12V-8.024000000000001H315.112Q314.602 -8.024000000000001 314.109 -7.973000000000001Q313.616 -7.922000000000001 313.123 -7.7860000000000005Q312.63 -7.65 312.188 -7.412000000000001Q311.746 -7.174 311.389 -6.800000000000001Q311.032 -6.426 310.879 -5.95Q310.726 -5.474 310.726 -4.964Q310.726 -4.3180000000000005 311.015 -3.7060000000000004Q311.304 -3.0940000000000003 311.84799999999996 -2.737Q312.392 -2.3800000000000003 313.038 -2.244Q313.684 -2.108 314.33 -2.108Z M325.21 0.0V-2.3800000000000003H328.066V-15.3H325.21V-17.68H330.718V-13.838000000000001Q330.922 -14.620000000000001 331.279 -15.351Q331.636 -16.082 332.163 -16.694000000000003Q332.69 -17.306 333.45500000000004 -17.629Q334.22 -17.952 335.002 -17.952Q335.546 -17.952 336.073 -17.799Q336.6 -17.646 337.00800000000004 -17.306Q337.416 -16.966 337.671 -16.490000000000002Q337.926 -16.014000000000003 338.079 -15.504000000000001Q338.232 -14.994000000000002 338.283 -14.467000000000002Q338.334 -13.940000000000001 338.334 -13.396H335.682Q335.682 -13.804 335.61400000000003 -14.195Q335.546 -14.586 335.342 -14.909Q335.138 -15.232000000000001 334.78099999999995 -15.402000000000001Q334.424 -15.572000000000001 334.016 -15.572000000000001Q333.37 -15.572000000000001 332.79200000000003 -15.249000000000002Q332.214 -14.926000000000002 331.84000000000003 -14.382000000000001Q331.466 -13.838000000000001 331.245 -13.226Q331.024 -12.614 330.905 -11.968Q330.786 -11.322000000000001 330.752 -10.676000000000002Q330.718 -10.030000000000001 330.718 -9.384V-2.3800000000000003H334.152V0.0Z M350.642 0.272Q349.86 0.272 349.129 0.085Q348.398 -0.10200000000000001 347.786 -0.544Q347.174 -0.9860000000000001 346.749 -1.6320000000000001Q346.324 -2.278 346.069 -2.975Q345.814 -3.672 345.72900000000004 -4.42Q345.644 -5.168 345.644 -5.95V-15.3H342.38V-17.68H345.644V-24.990000000000002H348.296V-17.68H354.28V-15.3H348.296V-5.95Q348.296 -5.508 348.33 -5.1Q348.364 -4.692 348.44899999999996 -4.284000000000001Q348.534 -3.8760000000000003 348.704 -3.4850000000000003Q348.874 -3.0940000000000003 349.146 -2.7710000000000004Q349.418 -2.4480000000000004 349.80899999999997 -2.2780000000000005Q350.2 -2.108 350.642 -2.108Q351.05 -2.108 351.44100000000003 -2.2780000000000005Q351.832 -2.4480000000000004 352.087 -2.7710000000000004Q352.342 -3.0940000000000003 352.512 -3.4850000000000003Q352.682 -3.8760000000000003 352.784 -4.284000000000001Q352.886 -4.692 352.92 -5.1Q352.954 -5.508 352.954 -5.916V-6.12H355.606V-5.814Q355.606 -5.066000000000001 355.48699999999997 -4.335000000000001Q355.368 -3.604 355.113 -2.907Q354.858 -2.21 354.433 -1.598Q354.008 -0.9860000000000001 353.413 -0.544Q352.818 -0.10200000000000001 352.087 0.085Q351.356 0.272 350.642 0.272Z M359.346 0.0V-2.3800000000000003L368.798 -15.3H361.692V-12.750000000000002H359.346V-17.68H371.654V-15.3L362.202 -2.3800000000000003H369.308V-4.930000000000001H371.654V0.0Z M381.31 7.3100000000000005 379.304 5.78Q380.392 4.556 381.293 3.196Q382.194 1.836 382.636 0.272H382.466Q381.956 0.272 381.429 0.10200000000000001Q380.902 -0.068 380.528 -0.44200000000000006Q380.154 -0.8160000000000001 380.001 -1.326Q379.848 -1.836 379.848 -2.3800000000000003Q379.848 -2.9240000000000004 380.001 -3.434Q380.154 -3.9440000000000004 380.54499999999996 -4.335Q380.936 -4.726 381.446 -4.879Q381.956 -5.032 382.5 -5.032Q383.044 -5.032 383.58799999999997 -4.862Q384.132 -4.692 384.506 -4.301Q384.88 -3.91 385.01599999999996 -3.366Q385.152 -2.822 385.152 -2.278Q385.152 -0.9520000000000001 384.846 0.34Q384.54 1.6320000000000001 384.03 2.8390000000000004Q383.52 4.046 382.823 5.168Q382.126 6.29 381.31 7.3100000000000005Z M414.2900000000001 7.582000000000001Q413.5760000000001 7.582000000000001 412.845 7.463000000000001Q412.11400000000003 7.344 411.4680000000001 7.021000000000001Q410.82200000000006 6.698 410.278 6.171Q409.73400000000004 5.644 409.37700000000007 5.015000000000001Q409.02000000000004 4.386 408.85 3.6550000000000002Q408.68000000000006 2.9240000000000004 408.68000000000006 2.21H411.33200000000005Q411.33200000000005 2.822 411.53600000000006 3.383Q411.74000000000007 3.9440000000000004 412.148 4.386Q412.55600000000004 4.828 413.134 5.015000000000001Q413.71200000000005 5.202 414.2900000000001 5.202Q414.80000000000007 5.202 415.29300000000006 5.015000000000001Q415.78600000000006 4.828 416.14300000000003 4.471Q416.50000000000006 4.114 416.73800000000006 3.6550000000000002Q416.97600000000006 3.196 417.1120000000001 2.7030000000000003Q417.24800000000005 2.21 417.28200000000004 1.7000000000000002Q417.31600000000003 1.1900000000000002 417.31600000000003 0.68V-15.3H412.69200000000006V-17.68H419.9680000000001V0.68Q419.9680000000001 1.53 419.8660000000001 2.363Q419.76400000000007 3.196 419.475 3.995Q419.18600000000004 4.7940000000000005 418.69300000000004 5.4910000000000005Q418.20000000000005 6.188000000000001 417.50300000000004 6.681000000000001Q416.80600000000004 7.174 415.97300000000007 7.378Q415.14000000000004 7.582000000000001 414.2900000000001 7.582000000000001ZM418.37000000000006 -20.672Q417.92800000000005 -20.672 417.5200000000001 -20.791Q417.1120000000001 -20.91 416.80600000000004 -21.216Q416.50000000000006 -21.522000000000002 416.3810000000001 -21.93Q416.26200000000006 -22.338 416.26200000000006 -22.78Q416.26200000000006 -23.222 416.3810000000001 -23.630000000000003Q416.50000000000006 -24.038 416.80600000000004 -24.344Q417.1120000000001 -24.650000000000002 417.5200000000001 -24.786Q417.92800000000005 -24.922 418.37000000000006 -24.922Q418.81200000000007 -24.922 419.22 -24.786Q419.62800000000004 -24.650000000000002 419.9340000000001 -24.344Q420.24000000000007 -24.038 420.3760000000001 -23.630000000000003Q420.51200000000006 -23.222 420.51200000000006 -22.78Q420.51200000000006 -22.338 420.3760000000001 -21.93Q420.24000000000007 -21.522000000000002 419.9340000000001 -21.216Q419.62800000000004 -20.91 419.22 -20.791Q418.81200000000007 -20.672 418.37000000000006 -20.672Z M432.4460000000001 0.272Q431.63000000000005 0.272 430.831 0.017Q430.03200000000004 -0.23800000000000002 429.4200000000001 -0.782Q428.80800000000005 -1.326 428.4000000000001 -2.0570000000000004Q427.9920000000001 -2.7880000000000003 427.7540000000001 -3.5700000000000003Q427.5160000000001 -4.352 427.43100000000004 -5.168Q427.34600000000006 -5.984 427.34600000000006 -6.800000000000001V-15.3H425.78200000000004V-17.68H429.99800000000005V-6.800000000000001Q429.99800000000005 -6.256 430.0490000000001 -5.695Q430.1000000000001 -5.134 430.2700000000001 -4.607Q430.44000000000005 -4.08 430.72900000000004 -3.604Q431.01800000000003 -3.128 431.44300000000004 -2.771Q431.86800000000005 -2.414 432.41200000000003 -2.261Q432.9560000000001 -2.108 433.50000000000006 -2.108Q434.04400000000004 -2.108 434.5880000000001 -2.261Q435.13200000000006 -2.414 435.5570000000001 -2.771Q435.9820000000001 -3.128 436.2710000000001 -3.604Q436.56000000000006 -4.08 436.73 -4.607Q436.90000000000003 -5.134 436.951 -5.695Q437.00200000000007 -6.256 437.00200000000007 -6.800000000000001V-15.3H435.43800000000005V-17.68H439.65400000000005V-2.3800000000000003H441.2180000000001V0.0H437.00200000000007V-3.196Q436.76400000000007 -2.482 436.33900000000006 -1.8190000000000002Q435.91400000000004 -1.1560000000000001 435.3190000000001 -0.663Q434.72400000000005 -0.17 433.95900000000006 0.051000000000000004Q433.1940000000001 0.272 432.4460000000001 0.272Z M449.31000000000006 0.272Q448.46000000000004 0.272 447.66100000000006 0.034Q446.8620000000001 -0.20400000000000001 446.23300000000006 -0.748Q445.60400000000004 -1.292 445.1790000000001 -2.0060000000000002Q444.7540000000001 -2.72 444.4990000000001 -3.519Q444.2440000000001 -4.3180000000000005 444.1590000000001 -5.151Q444.07400000000007 -5.984 444.07400000000007 -6.800000000000001V-10.88Q444.07400000000007 -11.696000000000002 444.1590000000001 -12.529Q444.2440000000001 -13.362 444.4990000000001 -14.161000000000001Q444.7540000000001 -14.96 445.1790000000001 -15.674000000000001Q445.60400000000004 -16.388 446.23300000000006 -16.932000000000002Q446.8620000000001 -17.476000000000003 447.66100000000006 -17.714000000000002Q448.46000000000004 -17.952 449.31000000000006 -17.952Q450.09200000000004 -17.952 450.874 -17.731Q451.65600000000006 -17.51 452.26800000000003 -17.017000000000003Q452.88000000000005 -16.524 453.32200000000006 -15.844000000000001Q453.76400000000007 -15.164000000000001 454.00200000000007 -14.416V-22.610000000000003H452.43800000000005V-24.990000000000002H456.65400000000005V-2.3800000000000003H458.2180000000001V0.0H454.00200000000007V-3.2640000000000002Q453.76400000000007 -2.516 453.32200000000006 -1.836Q452.88000000000005 -1.1560000000000001 452.26800000000003 -0.663Q451.65600000000006 -0.17 450.874 0.051000000000000004Q450.09200000000004 0.272 449.31000000000006 0.272ZM450.36400000000003 -2.108Q450.9080000000001 -2.108 451.46900000000005 -2.261Q452.0300000000001 -2.414 452.4720000000001 -2.7540000000000004Q452.91400000000004 -3.0940000000000003 453.22 -3.5700000000000003Q453.52600000000007 -4.046 453.7130000000001 -4.59Q453.90000000000003 -5.134 453.951 -5.678000000000001Q454.00200000000007 -6.222 454.00200000000007 -6.800000000000001V-10.88Q454.00200000000007 -11.458 453.951 -12.002Q453.90000000000003 -12.546000000000001 453.7130000000001 -13.09Q453.52600000000007 -13.634 453.22 -14.11Q452.91400000000004 -14.586 452.4720000000001 -14.926000000000002Q452.0300000000001 -15.266000000000002 451.4860000000001 -15.419Q450.94200000000006 -15.572000000000001 450.36400000000003 -15.572000000000001Q449.78600000000006 -15.572000000000001 449.2420000000001 -15.419Q448.69800000000004 -15.266000000000002 448.2560000000001 -14.926000000000002Q447.8140000000001 -14.586 447.50800000000004 -14.11Q447.20200000000006 -13.634 447.01500000000004 -13.09Q446.82800000000003 -12.546000000000001 446.77700000000004 -12.002Q446.72600000000006 -11.458 446.72600000000006 -10.88V-6.800000000000001Q446.72600000000006 -6.222 446.77700000000004 -5.678000000000001Q446.82800000000003 -5.134 447.01500000000004 -4.59Q447.20200000000006 -4.046 447.50800000000004 -3.5700000000000003Q447.8140000000001 -3.0940000000000003 448.2560000000001 -2.7540000000000004Q448.69800000000004 -2.414 449.2420000000001 -2.261Q449.78600000000006 -2.108 450.36400000000003 -2.108Z M467.4320000000001 7.582000000000001Q466.6840000000001 7.582000000000001 465.9530000000001 7.48Q465.22200000000004 7.378 464.54200000000003 7.140000000000001Q463.8620000000001 6.902 463.25000000000006 6.460000000000001Q462.63800000000003 6.018000000000001 462.2130000000001 5.44Q461.78800000000007 4.862 461.55000000000007 4.165Q461.31200000000007 3.4680000000000004 461.2780000000001 2.72H463.93000000000006Q463.93000000000006 3.3320000000000003 464.2700000000001 3.8420000000000005Q464.61000000000007 4.352 465.12000000000006 4.675000000000001Q465.63000000000005 4.998 466.225 5.1Q466.82000000000005 5.202 467.4320000000001 5.202Q467.97600000000006 5.202 468.5200000000001 5.049Q469.0640000000001 4.896000000000001 469.5060000000001 4.556000000000001Q469.94800000000004 4.216 470.2370000000001 3.7230000000000003Q470.52600000000007 3.2300000000000004 470.7130000000001 2.7030000000000003Q470.90000000000003 2.176 470.951 1.6150000000000002Q471.00200000000007 1.054 471.00200000000007 0.51V-3.2640000000000002Q470.76400000000007 -2.516 470.32200000000006 -1.836Q469.88000000000005 -1.1560000000000001 469.26800000000003 -0.663Q468.65600000000006 -0.17 467.874 0.051000000000000004Q467.09200000000004 0.272 466.31000000000006 0.272Q465.46000000000004 0.272 464.66100000000006 0.034Q463.8620000000001 -0.20400000000000001 463.23300000000006 -0.748Q462.60400000000004 -1.292 462.1790000000001 -2.0060000000000002Q461.7540000000001 -2.72 461.4990000000001 -3.519Q461.2440000000001 -4.3180000000000005 461.1590000000001 -5.151Q461.07400000000007 -5.984 461.07400000000007 -6.800000000000001V-10.88Q461.07400000000007 -11.696000000000002 461.1590000000001 -12.529Q461.2440000000001 -13.362 461.4990000000001 -14.161000000000001Q461.7540000000001 -14.96 462.1790000000001 -15.674000000000001Q462.60400000000004 -16.388 463.23300000000006 -16.932000000000002Q463.8620000000001 -17.476000000000003 464.66100000000006 -17.714000000000002Q465.46000000000004 -17.952 466.31000000000006 -17.952Q467.09200000000004 -17.952 467.874 -17.731Q468.65600000000006 -17.51 469.26800000000003 -17.017000000000003Q469.88000000000005 -16.524 470.32200000000006 -15.844000000000001Q470.76400000000007 -15.164000000000001 471.00200000000007 -14.416V-17.68H475.2180000000001V-15.3H473.65400000000005V0.51Q473.65400000000005 1.3940000000000001 473.5350000000001 2.295Q473.41600000000005 3.196 473.076 4.0120000000000005Q472.73600000000005 4.828 472.158 5.542Q471.58000000000004 6.256 470.83200000000005 6.732Q470.08400000000006 7.208 469.20000000000005 7.3950000000000005Q468.31600000000003 7.582000000000001 467.4320000000001 7.582000000000001ZM467.36400000000003 -2.108Q467.94200000000006 -2.108 468.4860000000001 -2.261Q469.0300000000001 -2.414 469.4720000000001 -2.7540000000000004Q469.91400000000004 -3.0940000000000003 470.22 -3.5700000000000003Q470.52600000000007 -4.046 470.7130000000001 -4.59Q470.90000000000003 -5.134 470.951 -5.678000000000001Q471.00200000000007 -6.222 471.00200000000007 -6.800000000000001V-10.88Q471.00200000000007 -11.458 470.951 -12.002Q470.90000000000003 -12.546000000000001 470.7130000000001 -13.09Q470.52600000000007 -13.634 470.22 -14.11Q469.91400000000004 -14.586 469.4720000000001 -14.926000000000002Q469.0300000000001 -15.266000000000002 468.4860000000001 -15.419Q467.94200000000006 -15.572000000000001 467.36400000000003 -15.572000000000001Q466.78600000000006 -15.572000000000001 466.2420000000001 -15.419Q465.69800000000004 -15.266000000000002 465.2560000000001 -14.926000000000002Q464.8140000000001 -14.586 464.50800000000004 -14.11Q464.20200000000006 -13.634 464.01500000000004 -13.09Q463.82800000000003 -12.546000000000001 463.77700000000004 -12.002Q463.72600000000006 -11.458 463.72600000000006 -10.88V-6.800000000000001Q463.72600000000006 -6.222 463.77700000000004 -5.678000000000001Q463.82800000000003 -5.134 464.01500000000004 -4.59Q464.20200000000006 -4.046 464.50800000000004 -3.5700000000000003Q464.8140000000001 -3.0940000000000003 465.2560000000001 -2.7540000000000004Q465.69800000000004 -2.414 466.2420000000001 -2.261Q466.78600000000006 -2.108 467.36400000000003 -2.108Z M484.50000000000006 0.272Q483.58200000000005 0.272 482.6980000000001 0.085Q481.8140000000001 -0.10200000000000001 481.03200000000004 -0.561Q480.25000000000006 -1.02 479.6550000000001 -1.717Q479.06000000000006 -2.414 478.7030000000001 -3.247Q478.34600000000006 -4.08 478.21000000000004 -4.981Q478.07400000000007 -5.882000000000001 478.07400000000007 -6.800000000000001V-10.88Q478.07400000000007 -11.798 478.21000000000004 -12.699000000000002Q478.34600000000006 -13.600000000000001 478.7030000000001 -14.433000000000002Q479.06000000000006 -15.266000000000002 479.6550000000001 -15.963000000000001Q480.25000000000006 -16.66 481.03200000000004 -17.119Q481.8140000000001 -17.578000000000003 482.6980000000001 -17.765Q483.58200000000005 -17.952 484.50000000000006 -17.952Q485.41800000000006 -17.952 486.302 -17.765Q487.18600000000004 -17.578000000000003 487.9680000000001 -17.119Q488.75000000000006 -16.66 489.345 -15.963000000000001Q489.94000000000005 -15.266000000000002 490.297 -14.433000000000002Q490.65400000000005 -13.600000000000001 490.7900000000001 -12.699000000000002Q490.92600000000004 -11.798 490.92600000000004 -10.88V-7.65H480.72600000000006V-6.800000000000001Q480.72600000000006 -6.222 480.7940000000001 -5.6610000000000005Q480.8620000000001 -5.1000000000000005 481.0490000000001 -4.556000000000001Q481.23600000000005 -4.0120000000000005 481.5590000000001 -3.5360000000000005Q481.88200000000006 -3.06 482.34100000000007 -2.72Q482.80000000000007 -2.3800000000000003 483.3610000000001 -2.244Q483.9220000000001 -2.108 484.50000000000006 -2.108Q485.1460000000001 -2.108 485.79200000000003 -2.244Q486.43800000000005 -2.3800000000000003 486.999 -2.737Q487.56000000000006 -3.0940000000000003 487.88300000000004 -3.6890000000000005Q488.2060000000001 -4.284000000000001 488.2060000000001 -4.930000000000001H490.85800000000006Q490.85800000000006 -4.148000000000001 490.62000000000006 -3.4170000000000007Q490.38200000000006 -2.6860000000000004 489.94000000000005 -2.04Q489.49800000000005 -1.3940000000000001 488.869 -0.935Q488.24000000000007 -0.47600000000000003 487.52600000000007 -0.20400000000000001Q486.81200000000007 0.068 486.047 0.17Q485.28200000000004 0.272 484.50000000000006 0.272ZM488.27400000000006 -10.030000000000001V-10.88Q488.27400000000006 -11.458 488.206 -12.019Q488.13800000000003 -12.58 487.951 -13.124Q487.76400000000007 -13.668000000000001 487.44100000000003 -14.144000000000002Q487.11800000000005 -14.620000000000001 486.65900000000005 -14.96Q486.20000000000005 -15.3 485.639 -15.436Q485.07800000000003 -15.572000000000001 484.50000000000006 -15.572000000000001Q483.9220000000001 -15.572000000000001 483.3610000000001 -15.436Q482.80000000000007 -15.3 482.34100000000007 -14.96Q481.88200000000006 -14.620000000000001 481.5590000000001 -14.144000000000002Q481.23600000000005 -13.668000000000001 481.0490000000001 -13.124Q480.8620000000001 -12.58 480.7940000000001 -12.019Q480.72600000000006 -11.458 480.72600000000006 -10.88V-10.030000000000001Z M510.47600000000006 0.0V-2.21H511.73400000000004V-15.47H510.47600000000006V-17.68H514.182V-16.082Q514.3520000000001 -16.456 514.5900000000001 -16.813000000000002Q514.8280000000001 -17.17 515.1510000000001 -17.442Q515.474 -17.714000000000002 515.8820000000001 -17.833000000000002Q516.2900000000001 -17.952 516.7320000000001 -17.952Q517.2420000000001 -17.952 517.7350000000001 -17.765Q518.2280000000001 -17.578000000000003 518.585 -17.204Q518.942 -16.830000000000002 519.163 -16.371000000000002Q519.384 -15.912 519.5200000000001 -15.402000000000001Q519.6220000000001 -15.912 519.8430000000001 -16.371000000000002Q520.0640000000001 -16.830000000000002 520.421 -17.204Q520.778 -17.578000000000003 521.271 -17.765Q521.764 -17.952 522.2740000000001 -17.952Q522.7840000000001 -17.952 523.277 -17.765Q523.7700000000001 -17.578000000000003 524.1270000000001 -17.204Q524.484 -16.830000000000002 524.705 -16.371000000000002Q524.926 -15.912 525.0450000000001 -15.419Q525.1640000000001 -14.926000000000002 525.2150000000001 -14.416Q525.2660000000001 -13.906 525.2660000000001 -13.396V-2.21H526.5240000000001V0.0H522.8180000000001V-13.396Q522.8180000000001 -13.770000000000001 522.767 -14.178Q522.716 -14.586 522.529 -14.943000000000001Q522.3420000000001 -15.3 522.0020000000001 -15.521Q521.662 -15.742 521.288 -15.742Q520.8800000000001 -15.742 520.5400000000001 -15.521Q520.2 -15.3 520.013 -14.943000000000001Q519.826 -14.586 519.7750000000001 -14.178Q519.724 -13.770000000000001 519.724 -13.396V0.0H517.2760000000001V-13.396Q517.2760000000001 -13.770000000000001 517.2250000000001 -14.178Q517.1740000000001 -14.586 516.9870000000001 -14.943000000000001Q516.8000000000001 -15.3 516.46 -15.521Q516.12 -15.742 515.7120000000001 -15.742Q515.3380000000001 -15.742 514.998 -15.521Q514.658 -15.3 514.471 -14.943000000000001Q514.2840000000001 -14.586 514.2330000000001 -14.178Q514.182 -13.770000000000001 514.182 -13.396V0.0Z M529.584 7.3100000000000005V4.930000000000001H531.386Q531.726 4.930000000000001 532.1 4.845000000000001Q532.474 4.760000000000001 532.729 4.505000000000001Q532.984 4.25 533.12 3.91Q533.256 3.5700000000000003 533.358 3.196L534.14 0.40800000000000003L529.584 -15.3H527.782V-17.68H533.562V-15.3H532.236L535.534 -3.196L538.764 -15.3H537.438V-17.68H543.218V-15.3H541.45L535.874 3.842Q535.67 4.6240000000000006 535.3299999999999 5.338000000000001Q534.99 6.0520000000000005 534.361 6.545Q533.732 7.038 532.95 7.174Q532.168 7.3100000000000005 531.386 7.3100000000000005Z M567.97 0.0 563.482 -15.3H561.646V-17.68H567.426V-15.3H566.236L568.786 -5.882000000000001Q568.956 -5.236000000000001 569.143 -4.556000000000001Q569.33 -3.8760000000000003 569.5 -3.2300000000000004Q569.67 -3.8760000000000003 569.857 -4.556000000000001Q570.044 -5.236000000000001 570.214 -5.882000000000001L572.764 -15.3H571.574V-17.68H577.354V-15.3H575.518L571.03 0.0Z M586.5 0.272Q585.582 0.272 584.698 0.085Q583.814 -0.10200000000000001 583.0319999999999 -0.561Q582.25 -1.02 581.655 -1.717Q581.06 -2.414 580.703 -3.247Q580.346 -4.08 580.21 -4.981Q580.074 -5.882000000000001 580.074 -6.800000000000001V-10.88Q580.074 -11.798 580.21 -12.699000000000002Q580.346 -13.600000000000001 580.703 -14.433000000000002Q581.06 -15.266000000000002 581.655 -15.963000000000001Q582.25 -16.66 583.0319999999999 -17.119Q583.814 -17.578000000000003 584.698 -17.765Q585.582 -17.952 586.5 -17.952Q587.418 -17.952 588.302 -17.765Q589.186 -17.578000000000003 589.9680000000001 -17.119Q590.75 -16.66 591.345 -15.963000000000001Q591.94 -15.266000000000002 592.297 -14.433000000000002Q592.654 -13.600000000000001 592.79 -12.699000000000002Q592.926 -11.798 592.926 -10.88V-6.800000000000001Q592.926 -5.882000000000001 592.79 -4.981Q592.654 -4.08 592.297 -3.247Q591.94 -2.414 591.345 -1.717Q590.75 -1.02 589.9680000000001 -0.561Q589.186 -0.10200000000000001 588.302 0.085Q587.418 0.272 586.5 0.272ZM586.5 -2.108Q587.078 -2.108 587.639 -2.244Q588.2 -2.3800000000000003 588.6590000000001 -2.72Q589.118 -3.06 589.441 -3.5360000000000005Q589.764 -4.0120000000000005 589.951 -4.556000000000001Q590.138 -5.1000000000000005 590.206 -5.6610000000000005Q590.274 -6.222 590.274 -6.800000000000001V-10.88Q590.274 -11.458 590.206 -12.019Q590.138 -12.58 589.951 -13.124Q589.764 -13.668000000000001 589.441 -14.144000000000002Q589.118 -14.620000000000001 588.6590000000001 -14.96Q588.2 -15.3 587.639 -15.436Q587.078 -15.572000000000001 586.5 -15.572000000000001Q585.922 -15.572000000000001 585.361 -15.436Q584.8 -15.3 584.3409999999999 -14.96Q583.882 -14.620000000000001 583.559 -14.144000000000002Q583.236 -13.668000000000001 583.049 -13.124Q582.862 -12.58 582.794 -12.019Q582.726 -11.458 582.726 -10.88V-6.800000000000001Q582.726 -6.222 582.794 -5.6610000000000005Q582.862 -5.1000000000000005 583.049 -4.556000000000001Q583.236 -4.0120000000000005 583.559 -3.5360000000000005Q583.882 -3.06 584.3409999999999 -2.72Q584.8 -2.3800000000000003 585.361 -2.244Q585.922 -2.108 586.5 -2.108Z M601.426 0.0H599.08L596.564 -15.3H595.544V-17.68H600.44V-15.3H599.046L600.406 -3.604L602.31 -12.716000000000001H604.69L606.594 -3.604L607.954 -15.3H606.56V-17.68H611.456V-15.3H610.436L607.92 0.0H605.574L603.5 -9.894Z M620.5 0.272Q619.956 0.272 619.446 0.11900000000000001Q618.936 -0.034 618.5450000000001 -0.42500000000000004Q618.154 -0.8160000000000001 618.001 -1.326Q617.848 -1.836 617.848 -2.3800000000000003Q617.848 -2.9240000000000004 618.001 -3.434Q618.154 -3.9440000000000004 618.5450000000001 -4.335Q618.936 -4.726 619.446 -4.879Q619.956 -5.032 620.5 -5.032Q621.044 -5.032 621.554 -4.879Q622.064 -4.726 622.4549999999999 -4.335Q622.846 -3.9440000000000004 622.999 -3.434Q623.152 -2.9240000000000004 623.152 -2.3800000000000003Q623.152 -1.836 622.999 -1.326Q622.846 -0.8160000000000001 622.4549999999999 -0.42500000000000004Q622.064 -0.034 621.554 0.11900000000000001Q621.044 0.272 620.5 0.272Z"/>
  </g>
</svg>
