<svg xmlns="http://www.w3.org/2000/svg" width="587" height="73" viewBox="0 0 587 73" role="img" aria-labelledby="title desc">
  <title id="title">Iosevka Term Slab Compact Light Italic preview</title>
  <desc id="desc">Sphinx of black quartz, judge my vow.</desc>
  <style>
    .preview-text { fill: #24292f; }
    @media (prefers-color-scheme: dark) {
      .preview-text { fill: #f0f6fc; }
    }
  </style>
  <g class="preview-text" transform="translate(24.20 45.26)">
    <path d="M6.392 0.272Q5.678000000000001 0.272 4.981000000000001 0.136Q4.284000000000001 0.0 3.6890000000000005 -0.34Q3.0940000000000003 -0.68 2.6690000000000005 -1.2240000000000002Q2.244 -1.7680000000000002 2.0060000000000002 -2.414L1.6320000000000001 0.0H-0.20400000000000001L0.782 -5.984H2.6180000000000003Q2.482 -5.134 2.5500000000000003 -4.301Q2.6180000000000003 -3.4680000000000004 3.0260000000000002 -2.822Q3.434 -2.176 4.182 -1.8530000000000002Q4.930000000000001 -1.53 5.78 -1.53Q6.596 -1.53 7.412 -1.819Q8.228 -2.108 8.857 -2.7030000000000003Q9.486 -3.298 9.86 -4.097Q10.234 -4.896000000000001 10.336 -5.678000000000001Q10.506 -6.596 10.370000000000001 -7.446000000000001Q10.234 -8.296000000000001 9.826 -9.027000000000001Q9.418000000000001 -9.758000000000001 8.823 -10.319Q8.228 -10.88 7.531000000000001 -11.339Q6.8340000000000005 -11.798 6.171 -12.291Q5.508 -12.784 4.93 -13.362000000000002Q4.352 -13.940000000000001 3.9270000000000005 -14.654Q3.5020000000000002 -15.368 3.2300000000000004 -16.184Q2.958 -17.0 2.9240000000000004 -17.867Q2.89 -18.734 3.0260000000000002 -19.618000000000002Q3.1620000000000004 -20.332 3.383 -21.029000000000003Q3.604 -21.726000000000003 3.978 -22.372Q4.352 -23.018 4.862 -23.579Q5.372000000000001 -24.14 6.018000000000001 -24.531Q6.664000000000001 -24.922 7.378 -25.092Q8.092 -25.262 8.806000000000001 -25.262Q9.520000000000001 -25.262 10.183 -25.126Q10.846 -24.990000000000002 11.424 -24.650000000000002Q12.002 -24.310000000000002 12.41 -23.783Q12.818000000000001 -23.256 13.056000000000001 -22.610000000000003L13.430000000000001 -24.990000000000002H15.266000000000002L14.280000000000001 -19.006H12.444Q12.58 -19.856 12.529 -20.672000000000004Q12.478000000000002 -21.488000000000003 12.087000000000002 -22.151000000000003Q11.696000000000002 -22.814 10.965 -23.137Q10.234 -23.46 9.418000000000001 -23.46Q8.636000000000001 -23.46 7.837000000000001 -23.171Q7.038 -22.882 6.426 -22.270000000000003Q5.814 -21.658 5.474 -20.876Q5.134 -20.094 4.998 -19.312Q4.828 -18.428 4.964 -17.561Q5.1000000000000005 -16.694000000000003 5.508000000000001 -15.963000000000001Q5.916 -15.232000000000001 6.5280000000000005 -14.688000000000002Q7.140000000000001 -14.144000000000002 7.82 -13.668000000000001Q8.5 -13.192 9.163 -12.699000000000002Q9.826 -12.206000000000001 10.404 -11.628Q10.982000000000001 -11.05 11.424000000000001 -10.336Q11.866000000000001 -9.622 12.104000000000001 -8.823Q12.342 -8.024000000000001 12.393 -7.140000000000001Q12.444 -6.256 12.308000000000002 -5.372000000000001Q12.172 -4.658 11.951 -3.9610000000000003Q11.73 -3.2640000000000002 11.339 -2.601Q10.948 -1.9380000000000002 10.421 -1.3770000000000002Q9.894 -0.8160000000000001 9.231000000000002 -0.42500000000000004Q8.568000000000001 -0.034 7.8370000000000015 0.11900000000000001Q7.106000000000001 0.272 6.392 0.272Z M13.328 7.3100000000000005 17.17 -15.878000000000002H15.708V-17.68H19.482L19.006 -14.892000000000001Q19.346 -15.538 19.856 -16.133000000000003Q20.366 -16.728 20.995 -17.153000000000002Q21.624000000000002 -17.578000000000003 22.338 -17.765Q23.052 -17.952 23.766 -17.952Q24.65 -17.952 25.432 -17.68Q26.214 -17.408 26.775 -16.847Q27.336 -16.286 27.642 -15.538Q27.948 -14.790000000000001 28.067 -13.957Q28.186 -13.124 28.118000000000002 -12.257000000000001Q28.05 -11.39 27.914 -10.540000000000001L27.166 -5.95Q27.03 -5.202 26.826 -4.471Q26.622 -3.74 26.282 -3.043Q25.942 -2.346 25.449 -1.7000000000000002Q24.956000000000003 -1.054 24.293000000000003 -0.595Q23.630000000000003 -0.136 22.882 0.068Q22.134 0.272 21.386000000000003 0.272Q20.536 0.272 19.771 0.017Q19.006 -0.23800000000000002 18.445 -0.782Q17.884 -1.326 17.578 -2.0570000000000004Q17.272 -2.7880000000000003 17.136 -3.5700000000000003L15.334 7.3100000000000005ZM20.638 -1.53Q21.182000000000002 -1.53 21.777 -1.683Q22.372 -1.836 22.899 -2.176Q23.426000000000002 -2.516 23.834000000000003 -2.992Q24.242 -3.4680000000000004 24.514000000000003 -4.0120000000000005Q24.786 -4.556 24.939 -5.117000000000001Q25.092 -5.678000000000001 25.194000000000003 -6.256L25.976 -10.846Q26.078000000000003 -11.458 26.095000000000002 -12.07Q26.112000000000002 -12.682 26.044 -13.277000000000001Q25.976 -13.872000000000002 25.772 -14.416Q25.568 -14.96 25.177 -15.368000000000002Q24.786 -15.776000000000002 24.191000000000003 -15.963000000000001Q23.596 -16.150000000000002 22.984 -16.150000000000002Q22.44 -16.150000000000002 21.879 -16.014000000000003Q21.318 -15.878000000000002 20.808 -15.572000000000003Q20.298000000000002 -15.266000000000002 19.89 -14.807000000000002Q19.482 -14.348 19.192999999999998 -13.838000000000001Q18.904 -13.328000000000001 18.734 -12.767000000000001Q18.564 -12.206000000000001 18.462 -11.662L17.714 -7.072000000000001Q17.612000000000002 -6.426 17.578000000000003 -5.797000000000001Q17.544 -5.168 17.612000000000002 -4.556Q17.68 -3.9440000000000004 17.867 -3.383Q18.054000000000002 -2.822 18.445 -2.3970000000000002Q18.836 -1.9720000000000002 19.414 -1.7510000000000001Q19.992 -1.53 20.638 -1.53Z M29.308 0.0 33.15 -23.188000000000002H31.688000000000002L31.654 -24.990000000000002H35.428L33.762 -14.926000000000002Q34.136 -15.572000000000001 34.595 -16.150000000000002Q35.054 -16.728 35.666 -17.153000000000002Q36.278 -17.578000000000003 36.992000000000004 -17.765Q37.706 -17.952 38.386 -17.952Q39.236000000000004 -17.952 40.018 -17.68Q40.8 -17.408 41.344 -16.830000000000002Q41.888000000000005 -16.252000000000002 42.160000000000004 -15.487000000000002Q42.432 -14.722000000000001 42.534000000000006 -13.906000000000002Q42.636 -13.090000000000002 42.585 -12.240000000000002Q42.534 -11.39 42.398 -10.540000000000001L40.936 -1.802H42.398L42.432 0.0H38.658L40.46 -10.846Q40.562 -11.458 40.579 -12.053Q40.596000000000004 -12.648000000000001 40.545 -13.243000000000002Q40.494 -13.838000000000001 40.29 -14.382000000000001Q40.086 -14.926000000000002 39.712 -15.334000000000001Q39.338 -15.742 38.777 -15.946000000000002Q38.216 -16.150000000000002 37.604 -16.150000000000002Q37.06 -16.150000000000002 36.516000000000005 -16.014000000000003Q35.972 -15.878000000000002 35.462 -15.555000000000001Q34.952 -15.232000000000001 34.561 -14.773000000000001Q34.17 -14.314000000000002 33.897999999999996 -13.804000000000002Q33.626 -13.294 33.473 -12.75Q33.32 -12.206000000000001 33.218 -11.662L31.314 0.0Z M52.734 0.272Q52.02 0.272 51.34 0.085Q50.660000000000004 -0.10200000000000001 50.133 -0.527Q49.606 -0.9520000000000001 49.3 -1.564Q48.994 -2.176 48.875 -2.8560000000000003Q48.756 -3.5360000000000005 48.79 -4.267Q48.824 -4.998 48.96 -5.712000000000001L50.626000000000005 -15.878000000000002H46.138L46.172000000000004 -17.68H52.938L50.898 -5.406000000000001Q50.83 -4.964 50.796 -4.522Q50.762 -4.08 50.813 -3.6550000000000002Q50.864000000000004 -3.2300000000000004 51.017 -2.8390000000000004Q51.17 -2.4480000000000004 51.442 -2.1420000000000003Q51.714 -1.836 52.105000000000004 -1.683Q52.496 -1.53 52.938 -1.53Q53.346000000000004 -1.53 53.771 -1.683Q54.196 -1.836 54.553 -2.1420000000000003Q54.910000000000004 -2.4480000000000004 55.148 -2.822Q55.386 -3.196 55.57300000000001 -3.587Q55.760000000000005 -3.978 55.896 -4.386Q56.032000000000004 -4.7940000000000005 56.1 -5.202L57.936 -4.930000000000001Q57.800000000000004 -4.284000000000001 57.57900000000001 -3.6720000000000006Q57.358000000000004 -3.06 57.035000000000004 -2.465Q56.712 -1.87 56.253 -1.343Q55.794000000000004 -0.8160000000000001 55.233000000000004 -0.44200000000000006Q54.672 -0.068 54.025999999999996 0.10200000000000001Q53.38 0.272 52.734 0.272ZM52.97200000000001 -21.012Q52.53 -21.012 52.156000000000006 -21.165Q51.782000000000004 -21.318 51.527 -21.624000000000002Q51.272000000000006 -21.930000000000003 51.20400000000001 -22.355000000000004Q51.136 -22.78 51.20400000000001 -23.222Q51.23800000000001 -23.494000000000003 51.408 -23.783Q51.578 -24.072000000000003 51.833000000000006 -24.242000000000004Q52.08800000000001 -24.412000000000003 52.37700000000001 -24.480000000000004Q52.666000000000004 -24.548000000000002 52.938 -24.548000000000002Q53.38 -24.548000000000002 53.771 -24.395000000000003Q54.162000000000006 -24.242 54.400000000000006 -23.936Q54.638000000000005 -23.630000000000003 54.723000000000006 -23.205000000000002Q54.80800000000001 -22.78 54.706 -22.338Q54.672000000000004 -22.066000000000003 54.50200000000001 -21.777Q54.33200000000001 -21.488000000000003 54.09400000000001 -21.318000000000005Q53.85600000000001 -21.148000000000003 53.55000000000001 -21.080000000000002Q53.24400000000001 -21.012 52.97200000000001 -21.012Z M58.82 0.0 61.438 -15.878000000000002H59.976V-17.68H63.75L63.274 -14.926000000000002Q63.648 -15.572000000000001 64.107 -16.150000000000002Q64.566 -16.728 65.178 -17.153000000000002Q65.79 -17.578000000000003 66.504 -17.765Q67.218 -17.952 67.898 -17.952Q68.748 -17.952 69.53 -17.68Q70.312 -17.408 70.856 -16.830000000000002Q71.4 -16.252000000000002 71.672 -15.487000000000002Q71.944 -14.722000000000001 72.04599999999999 -13.906000000000002Q72.148 -13.090000000000002 72.09700000000001 -12.240000000000002Q72.046 -11.39 71.91 -10.540000000000001L70.44800000000001 -1.802H71.91L71.944 0.0H68.17L69.97200000000001 -10.846Q70.074 -11.458 70.09100000000001 -12.053Q70.108 -12.648000000000001 70.057 -13.243000000000002Q70.006 -13.838000000000001 69.80199999999999 -14.382000000000001Q69.598 -14.926000000000002 69.22399999999999 -15.334000000000001Q68.85 -15.742 68.289 -15.946000000000002Q67.72800000000001 -16.150000000000002 67.116 -16.150000000000002Q66.572 -16.150000000000002 66.028 -16.014000000000003Q65.48400000000001 -15.878000000000002 64.974 -15.555000000000001Q64.464 -15.232000000000001 64.07300000000001 -14.773000000000001Q63.682 -14.314000000000002 63.41 -13.804000000000002Q63.138 -13.294 62.985 -12.75Q62.832 -12.206000000000001 62.730000000000004 -11.662L60.826 0.0Z M76.568 0.272Q75.956 0.272 75.429 0.0Q74.902 -0.272 74.613 -0.7480000000000001Q74.324 -1.2240000000000002 74.17099999999999 -1.7850000000000001Q74.018 -2.346 74.001 -2.9410000000000003Q73.984 -3.5360000000000005 74.035 -4.148000000000001Q74.086 -4.760000000000001 74.188 -5.372000000000001L74.324 -6.188000000000001H76.22800000000001L76.092 -5.372000000000001Q76.024 -4.998 75.973 -4.607Q75.922 -4.216 75.922 -3.8420000000000005Q75.922 -3.4680000000000004 75.939 -3.0940000000000003Q75.956 -2.72 76.041 -2.3630000000000004Q76.126 -2.0060000000000002 76.364 -1.7340000000000002Q76.602 -1.4620000000000002 77.01 -1.4620000000000002Q77.35 -1.4620000000000002 77.656 -1.6830000000000003Q77.962 -1.9040000000000001 78.166 -2.2270000000000003Q78.37 -2.5500000000000003 78.523 -2.8900000000000006Q78.676 -3.2300000000000004 78.795 -3.5700000000000003Q78.914 -3.91 78.982 -4.267Q79.05 -4.6240000000000006 79.118 -4.964L80.71600000000001 -14.620000000000001Q80.784 -14.96 80.75 -15.266000000000002Q80.71600000000001 -15.572000000000001 80.529 -15.810000000000002Q80.342 -16.048000000000002 80.053 -16.150000000000002Q79.764 -16.252000000000002 79.458 -16.252000000000002Q79.152 -16.252000000000002 78.863 -16.150000000000002Q78.574 -16.048000000000002 78.37 -15.844000000000001L75.99 -13.430000000000001L74.664 -14.654000000000002L77.044 -17.034000000000002Q77.52 -17.51 78.166 -17.731Q78.812 -17.952 79.458 -17.952Q80.002 -17.952 80.529 -17.748Q81.056 -17.544 81.362 -17.119Q81.668 -16.694000000000003 81.77000000000001 -16.133000000000003Q81.872 -15.572000000000001 81.804 -15.028Q81.974 -15.538 82.24600000000001 -16.048000000000002Q82.518 -16.558 82.892 -16.983Q83.266 -17.408 83.793 -17.68Q84.32000000000001 -17.952 84.83 -17.952Q85.44200000000001 -17.952 85.96900000000001 -17.68Q86.49600000000001 -17.408 86.802 -16.932000000000002Q87.108 -16.456 87.244 -15.895Q87.38 -15.334000000000001 87.414 -14.739Q87.44800000000001 -14.144000000000002 87.397 -13.532000000000002Q87.346 -12.920000000000002 87.244 -12.308000000000002L87.108 -11.492H85.20400000000001L85.34 -12.308000000000002Q85.374 -12.682 85.425 -13.073Q85.476 -13.464 85.493 -13.838000000000001Q85.51 -14.212000000000002 85.493 -14.586000000000002Q85.476 -14.96 85.374 -15.317Q85.272 -15.674000000000001 85.051 -15.946000000000002Q84.83 -16.218 84.422 -16.218Q84.08200000000001 -16.218 83.77600000000001 -15.997Q83.47 -15.776000000000002 83.249 -15.453000000000001Q83.028 -15.13 82.875 -14.790000000000001Q82.72200000000001 -14.450000000000001 82.62 -14.110000000000001Q82.518 -13.770000000000001 82.43299999999999 -13.413Q82.348 -13.056000000000001 82.31400000000001 -12.716000000000001L80.71600000000001 -3.06Q80.648 -2.72 80.682 -2.414Q80.71600000000001 -2.108 80.903 -1.87Q81.09 -1.6320000000000001 81.379 -1.5300000000000002Q81.668 -1.4280000000000002 81.974 -1.4280000000000002Q82.28 -1.4280000000000002 82.569 -1.5300000000000002Q82.858 -1.6320000000000001 83.062 -1.836L85.408 -4.25L86.73400000000001 -3.0260000000000002L84.388 -0.646Q83.912 -0.17 83.249 0.051000000000000004Q82.586 0.272 81.94 0.272Q81.396 0.272 80.869 0.068Q80.342 -0.136 80.053 -0.561Q79.764 -0.9860000000000001 79.662 -1.5470000000000002Q79.56 -2.108 79.628 -2.652Q79.424 -2.1420000000000003 79.152 -1.6320000000000001Q78.88 -1.122 78.506 -0.6970000000000001Q78.132 -0.272 77.605 0.0Q77.078 0.272 76.568 0.272Z M109.004 0.272Q108.086 0.272 107.23599999999999 0.051000000000000004Q106.386 -0.17 105.70599999999999 -0.68Q105.026 -1.1900000000000002 104.584 -1.9380000000000002Q104.142 -2.6860000000000004 103.955 -3.5360000000000005Q103.768 -4.386 103.80199999999999 -5.304Q103.836 -6.222 103.97200000000001 -7.140000000000001L104.754 -11.73Q104.89 -12.512 105.128 -13.311Q105.366 -14.110000000000001 105.80799999999999 -14.841000000000001Q106.25 -15.572000000000001 106.862 -16.184Q107.474 -16.796000000000003 108.22200000000001 -17.204Q108.97 -17.612000000000002 109.803 -17.782000000000004Q110.636 -17.952 111.418 -17.952Q112.336 -17.952 113.203 -17.731Q114.07000000000001 -17.51 114.75 -17.0Q115.43 -16.490000000000002 115.87200000000001 -15.742Q116.31400000000001 -14.994000000000002 116.48400000000001 -14.144000000000002Q116.654 -13.294 116.637 -12.376000000000001Q116.62 -11.458 116.45 -10.540000000000001L115.702 -5.95Q115.566 -5.168 115.311 -4.369Q115.056 -3.5700000000000003 114.631 -2.8390000000000004Q114.206 -2.108 113.577 -1.496Q112.94800000000001 -0.8840000000000001 112.2 -0.4760000000000001Q111.452 -0.068 110.619 0.10200000000000001Q109.786 0.272 109.004 0.272ZM109.004 -1.53Q109.58200000000001 -1.53 110.177 -1.666Q110.772 -1.802 111.316 -2.1420000000000003Q111.86 -2.482 112.285 -2.958Q112.71000000000001 -3.434 113.016 -3.978Q113.322 -4.522 113.475 -5.1000000000000005Q113.628 -5.678000000000001 113.73 -6.256L114.512 -10.846Q114.614 -11.458 114.648 -12.087Q114.682 -12.716000000000001 114.58000000000001 -13.311Q114.47800000000001 -13.906 114.257 -14.450000000000001Q114.036 -14.994000000000002 113.628 -15.385000000000002Q113.22 -15.776000000000002 112.625 -15.963000000000001Q112.03 -16.150000000000002 111.418 -16.150000000000002Q110.84 -16.150000000000002 110.245 -16.014000000000003Q109.65 -15.878000000000002 109.123 -15.538Q108.596 -15.198 108.154 -14.722000000000001Q107.712 -14.246 107.423 -13.702000000000002Q107.134 -13.158000000000001 106.964 -12.580000000000002Q106.794 -12.002 106.69200000000001 -11.424000000000001L105.944 -6.8340000000000005Q105.842 -6.222 105.80799999999999 -5.593Q105.774 -4.964 105.85900000000001 -4.369000000000001Q105.944 -3.7740000000000005 106.182 -3.2300000000000004Q106.42 -2.6860000000000004 106.828 -2.2950000000000004Q107.236 -1.9040000000000001 107.814 -1.717Q108.392 -1.53 109.004 -1.53Z M116.212 7.3100000000000005V5.508H117.708Q118.49 5.508 119.289 5.287000000000001Q120.08800000000001 5.066000000000001 120.73400000000001 4.539000000000001Q121.38 4.0120000000000005 121.737 3.2470000000000003Q122.09400000000001 2.482 122.196 1.7000000000000002L124.81400000000001 -14.110000000000001H119.884V-15.912H125.12L125.69800000000001 -19.380000000000003Q125.834 -20.162000000000003 126.089 -20.893Q126.34400000000001 -21.624000000000002 126.786 -22.304000000000002Q127.22800000000001 -22.984 127.857 -23.528000000000002Q128.486 -24.072000000000003 129.21699999999998 -24.412000000000003Q129.948 -24.752000000000002 130.71300000000002 -24.871000000000002Q131.478 -24.990000000000002 132.226 -24.990000000000002H133.756V-23.188000000000002H132.26Q131.716 -23.188000000000002 131.17200000000003 -23.086000000000002Q130.62800000000001 -22.984 130.101 -22.729Q129.574 -22.474 129.132 -22.083Q128.69 -21.692 128.401 -21.199Q128.112 -20.706000000000003 127.94200000000001 -20.179000000000002Q127.772 -19.652 127.70400000000001 -19.108L127.16 -15.912H132.09V-14.110000000000001H126.854L124.236 1.7000000000000002Q124.134 2.482 123.87899999999999 3.213Q123.624 3.9440000000000004 123.182 4.6240000000000006Q122.74000000000001 5.304 122.111 5.848000000000001Q121.482 6.392 120.73400000000001 6.732000000000001Q119.986 7.072000000000001 119.221 7.191000000000001Q118.456 7.3100000000000005 117.708 7.3100000000000005Z M154.19 0.272Q153.34 0.272 152.575 0.017Q151.81 -0.23800000000000002 151.249 -0.782Q150.688 -1.326 150.382 -2.0570000000000004Q150.076 -2.7880000000000003 149.94 -3.5700000000000003L149.362 0.0H147.356L151.198 -23.188000000000002H149.736L149.702 -24.990000000000002H153.476L151.81 -14.892000000000001Q152.15 -15.538 152.66000000000003 -16.133000000000003Q153.17000000000002 -16.728 153.799 -17.153000000000002Q154.428 -17.578000000000003 155.142 -17.765Q155.856 -17.952 156.57 -17.952Q157.454 -17.952 158.236 -17.68Q159.018 -17.408 159.579 -16.847Q160.14000000000001 -16.286 160.44600000000003 -15.538Q160.752 -14.790000000000001 160.871 -13.957Q160.99 -13.124 160.92200000000003 -12.257000000000001Q160.854 -11.39 160.71800000000002 -10.540000000000001L159.97 -5.95Q159.834 -5.202 159.63 -4.471Q159.42600000000002 -3.74 159.086 -3.043Q158.746 -2.346 158.253 -1.7000000000000002Q157.76 -1.054 157.09699999999998 -0.595Q156.434 -0.136 155.68599999999998 0.068Q154.938 0.272 154.19 0.272ZM153.442 -1.53Q153.986 -1.53 154.58100000000002 -1.683Q155.17600000000002 -1.836 155.703 -2.176Q156.23 -2.516 156.63799999999998 -2.992Q157.046 -3.4680000000000004 157.31799999999998 -4.0120000000000005Q157.59 -4.556 157.743 -5.117000000000001Q157.89600000000002 -5.678000000000001 157.998 -6.256L158.78 -10.846Q158.882 -11.458 158.899 -12.07Q158.916 -12.682 158.848 -13.277000000000001Q158.78 -13.872000000000002 158.57600000000002 -14.416Q158.372 -14.96 157.981 -15.368000000000002Q157.59 -15.776000000000002 156.995 -15.963000000000001Q156.4 -16.150000000000002 155.788 -16.150000000000002Q155.244 -16.150000000000002 154.683 -16.014000000000003Q154.122 -15.878000000000002 153.61200000000002 -15.572000000000003Q153.102 -15.266000000000002 152.69400000000002 -14.807000000000002Q152.286 -14.348 151.997 -13.838000000000001Q151.708 -13.328000000000001 151.538 -12.767000000000001Q151.368 -12.206000000000001 151.266 -11.662L150.518 -7.072000000000001Q150.416 -6.426 150.382 -5.797000000000001Q150.348 -5.168 150.416 -4.556Q150.484 -3.9440000000000004 150.671 -3.383Q150.858 -2.822 151.24900000000002 -2.3970000000000002Q151.64000000000001 -1.9720000000000002 152.21800000000002 -1.7510000000000001Q152.796 -1.53 153.442 -1.53Z M170.782 0.272Q170.068 0.272 169.388 0.085Q168.708 -0.10200000000000001 168.18099999999998 -0.527Q167.654 -0.9520000000000001 167.348 -1.564Q167.042 -2.176 166.923 -2.8560000000000003Q166.804 -3.5360000000000005 166.83800000000002 -4.267Q166.872 -4.998 167.008 -5.712000000000001L169.898 -23.188000000000002H165.41V-24.990000000000002H172.17600000000002L168.946 -5.406000000000001Q168.87800000000001 -4.964 168.844 -4.522Q168.81 -4.08 168.861 -3.6550000000000002Q168.912 -3.2300000000000004 169.065 -2.8390000000000004Q169.218 -2.4480000000000004 169.49 -2.1420000000000003Q169.762 -1.836 170.15300000000002 -1.683Q170.544 -1.53 170.986 -1.53Q171.394 -1.53 171.81900000000002 -1.683Q172.244 -1.836 172.601 -2.1420000000000003Q172.958 -2.4480000000000004 173.196 -2.822Q173.434 -3.196 173.62099999999998 -3.587Q173.808 -3.978 173.94400000000002 -4.386Q174.08 -4.7940000000000005 174.148 -5.202L175.984 -4.930000000000001Q175.848 -4.284000000000001 175.627 -3.6720000000000006Q175.406 -3.06 175.083 -2.465Q174.76 -1.87 174.301 -1.343Q173.842 -0.8160000000000001 173.281 -0.44200000000000006Q172.72 -0.068 172.074 0.10200000000000001Q171.428 0.272 170.782 0.272Z M181.9 0.272Q181.016 0.272 180.23399999999998 0.0Q179.452 -0.272 178.90800000000002 -0.8330000000000001Q178.364 -1.3940000000000001 178.058 -2.1420000000000003Q177.752 -2.89 177.633 -3.723Q177.514 -4.556 177.565 -5.423Q177.616 -6.29 177.752 -7.140000000000001L178.534 -11.73Q178.636 -12.478000000000002 178.857 -13.209000000000001Q179.078 -13.940000000000001 179.401 -14.637Q179.724 -15.334000000000001 180.23399999999998 -15.98Q180.744 -16.626 181.39 -17.085Q182.036 -17.544 182.784 -17.748Q183.532 -17.952 184.28 -17.952Q185.13 -17.952 185.912 -17.697000000000003Q186.69400000000002 -17.442 187.238 -16.898000000000003Q187.782 -16.354000000000003 188.08800000000002 -15.623000000000001Q188.394 -14.892000000000001 188.53 -14.110000000000001L189.142 -17.68H191.148L188.632 -2.482Q188.598 -2.278 188.615 -2.091Q188.632 -1.9040000000000001 188.751 -1.7850000000000001Q188.87 -1.6660000000000001 189.04000000000002 -1.598Q189.21 -1.53 189.41400000000002 -1.53H190.06L190.026 0.272H189.108Q188.53 0.272 188.003 0.11900000000000001Q187.476 -0.034 187.102 -0.40800000000000003Q186.728 -0.782 186.626 -1.343Q186.524 -1.9040000000000001 186.626 -2.482L186.66 -2.7880000000000003Q186.32 -2.1420000000000003 185.81 -1.5470000000000002Q185.3 -0.9520000000000001 184.671 -0.527Q184.042 -0.10200000000000001 183.328 0.085Q182.614 0.272 181.9 0.272ZM182.68200000000002 -1.53Q183.226 -1.53 183.787 -1.666Q184.348 -1.802 184.858 -2.108Q185.368 -2.414 185.793 -2.873Q186.21800000000002 -3.3320000000000003 186.507 -3.8420000000000005Q186.796 -4.352 186.949 -4.913Q187.102 -5.474 187.204 -6.018000000000001L187.952 -10.608Q188.088 -11.254000000000001 188.122 -11.883000000000001Q188.156 -12.512 188.08800000000002 -13.124Q188.02 -13.736 187.816 -14.297Q187.612 -14.858 187.221 -15.283000000000001Q186.83 -15.708000000000002 186.252 -15.929000000000002Q185.674 -16.150000000000002 185.028 -16.150000000000002Q184.484 -16.150000000000002 183.906 -15.997000000000002Q183.328 -15.844000000000001 182.801 -15.504000000000001Q182.274 -15.164000000000001 181.86599999999999 -14.688000000000002Q181.458 -14.212000000000002 181.186 -13.668000000000001Q180.91400000000002 -13.124 180.74400000000003 -12.563Q180.574 -12.002 180.472 -11.424000000000001L179.724 -6.8340000000000005Q179.622 -6.222 179.58800000000002 -5.61Q179.554 -4.998 179.622 -4.4030000000000005Q179.69 -3.8080000000000003 179.911 -3.2640000000000002Q180.132 -2.72 180.52300000000002 -2.3120000000000003Q180.91400000000002 -1.9040000000000001 181.49200000000002 -1.717Q182.07 -1.53 182.68200000000002 -1.53Z M197.642 0.272Q196.724 0.272 195.84 0.068Q194.95600000000002 -0.136 194.276 -0.6460000000000001Q193.596 -1.1560000000000001 193.154 -1.9040000000000001Q192.712 -2.652 192.50799999999998 -3.5020000000000002Q192.304 -4.352 192.33800000000002 -5.287000000000001Q192.372 -6.222 192.508 -7.140000000000001L193.29 -11.73Q193.42600000000002 -12.546000000000001 193.681 -13.345000000000002Q193.936 -14.144000000000002 194.378 -14.875000000000002Q194.82 -15.606000000000002 195.466 -16.218000000000004Q196.112 -16.830000000000002 196.877 -17.238Q197.642 -17.646 198.458 -17.799Q199.274 -17.952 200.09 -17.952Q201.654 -17.952 203.082 -17.476Q204.51 -17.0 205.632 -16.082L204.918 -11.696000000000002H203.082L203.66 -15.198Q202.87800000000001 -15.674000000000001 201.96 -15.912000000000003Q201.042 -16.150000000000002 200.09 -16.150000000000002Q199.512 -16.150000000000002 198.9 -16.014000000000003Q198.288 -15.878000000000002 197.74400000000003 -15.555000000000001Q197.20000000000002 -15.232000000000001 196.758 -14.756Q196.316 -14.280000000000001 196.01 -13.736Q195.704 -13.192 195.517 -12.614Q195.33 -12.036000000000001 195.228 -11.424000000000001L194.48 -6.8340000000000005Q194.37800000000001 -6.188000000000001 194.361 -5.559000000000001Q194.344 -4.930000000000001 194.446 -4.3180000000000005Q194.548 -3.7060000000000004 194.803 -3.1620000000000004Q195.058 -2.6180000000000003 195.517 -2.244Q195.976 -1.87 196.571 -1.7000000000000002Q197.166 -1.53 197.812 -1.53Q198.62800000000001 -1.53 199.461 -1.87Q200.294 -2.21 200.94 -2.873Q201.586 -3.5360000000000005 201.99400000000003 -4.335000000000001Q202.40200000000002 -5.134 202.606 -5.95L204.442 -5.474Q204.238 -4.726 203.91500000000002 -3.995Q203.592 -3.2640000000000002 203.116 -2.601Q202.64000000000001 -1.9380000000000002 202.02800000000002 -1.36Q201.416 -0.782 200.702 -0.40800000000000003Q199.988 -0.034 199.20600000000002 0.11900000000000001Q198.424 0.272 197.642 0.272Z M215.22 0.272Q214.88 0.272 214.54000000000002 0.187Q214.20000000000002 0.10200000000000001 213.928 -0.10200000000000002Q213.656 -0.30600000000000005 213.52 -0.629Q213.38400000000001 -0.9520000000000001 213.282 -1.258L211.752 -7.174Q211.31 -7.174 210.885 -7.259Q210.46 -7.344 210.086 -7.514L208.862 0.0H206.856L210.698 -23.188000000000002H209.202V-24.990000000000002H212.976L211.004 -13.090000000000002Q211.37800000000001 -13.974 211.854 -14.824000000000002Q212.33 -15.674000000000001 213.01 -16.388Q213.69 -17.102 214.574 -17.527Q215.458 -17.952 216.376 -17.952Q216.92000000000002 -17.952 217.447 -17.799Q217.974 -17.646 218.348 -17.306Q218.722 -16.966 218.96 -16.490000000000002Q219.198 -16.014000000000003 219.28300000000002 -15.487000000000002Q219.368 -14.96 219.334 -14.416Q219.3 -13.872000000000002 219.198 -13.294Q219.062 -12.308000000000002 218.62 -11.305000000000001Q218.178 -10.302000000000001 217.39600000000002 -9.520000000000001Q216.614 -8.738000000000001 215.628 -8.245000000000001Q214.642 -7.752000000000001 213.622 -7.48L215.118 -1.7000000000000002Q215.15200000000002 -1.6320000000000001 215.169 -1.5300000000000002Q215.186 -1.4280000000000002 215.254 -1.4280000000000002Q215.288 -1.4280000000000002 215.322 -1.4280000000000002Q215.356 -1.4280000000000002 215.39000000000001 -1.4620000000000002L218.858 -4.7940000000000005L220.15 -3.5700000000000003L216.68200000000002 -0.23800000000000002Q216.376 0.034 215.985 0.15300000000000002Q215.594 0.272 215.22 0.272ZM211.82 -8.908000000000001Q212.398 -8.908000000000001 213.01 -9.061Q213.622 -9.214 214.2 -9.452000000000002Q214.778 -9.690000000000001 215.322 -10.064Q215.866 -10.438 216.24 -10.931000000000001Q216.614 -11.424000000000001 216.852 -12.002Q217.09 -12.58 217.192 -13.192Q217.26 -13.702000000000002 217.26 -14.212000000000002Q217.26 -14.722000000000001 217.107 -15.164000000000001Q216.954 -15.606000000000002 216.529 -15.878000000000002Q216.104 -16.150000000000002 215.594 -16.150000000000002Q214.88 -16.150000000000002 214.149 -15.793000000000003Q213.418 -15.436000000000002 212.857 -14.858Q212.296 -14.280000000000001 211.905 -13.583000000000002Q211.514 -12.886000000000001 211.24200000000002 -12.172Q210.97 -11.458 210.749 -10.727Q210.528 -9.996 210.392 -9.248000000000001Q210.698 -9.078000000000001 211.072 -8.993000000000002Q211.446 -8.908000000000001 211.82 -8.908000000000001Z M244.018 7.3100000000000005 245.684 -2.7880000000000003Q245.344 -2.1420000000000003 244.834 -1.5470000000000002Q244.324 -0.9520000000000001 243.695 -0.527Q243.066 -0.10200000000000001 242.352 0.085Q241.638 0.272 240.924 0.272Q240.04 0.272 239.25799999999998 0.0Q238.476 -0.272 237.93200000000002 -0.8330000000000001Q237.388 -1.3940000000000001 237.082 -2.1420000000000003Q236.776 -2.89 236.657 -3.723Q236.538 -4.556 236.589 -5.423Q236.64000000000001 -6.29 236.776 -7.140000000000001L237.558 -11.73Q237.66 -12.478000000000002 237.881 -13.209000000000001Q238.102 -13.940000000000001 238.425 -14.637Q238.748 -15.334000000000001 239.25799999999998 -15.98Q239.768 -16.626 240.414 -17.085Q241.06 -17.544 241.808 -17.748Q242.556 -17.952 243.304 -17.952Q244.154 -17.952 244.936 -17.697000000000003Q245.71800000000002 -17.442 246.262 -16.898000000000003Q246.806 -16.354000000000003 247.11200000000002 -15.623000000000001Q247.418 -14.892000000000001 247.554 -14.110000000000001L248.166 -17.68H250.172L246.33 5.508H247.792V7.3100000000000005ZM241.70600000000002 -1.53Q242.25 -1.53 242.811 -1.666Q243.372 -1.802 243.882 -2.108Q244.392 -2.414 244.817 -2.873Q245.24200000000002 -3.3320000000000003 245.531 -3.8420000000000005Q245.82 -4.352 245.973 -4.913Q246.126 -5.474 246.228 -6.018000000000001L246.976 -10.608Q247.112 -11.254000000000001 247.14600000000002 -11.883000000000001Q247.18 -12.512 247.11200000000002 -13.124Q247.044 -13.736 246.84 -14.297Q246.636 -14.858 246.245 -15.283000000000001Q245.854 -15.708000000000002 245.276 -15.929000000000002Q244.698 -16.150000000000002 244.052 -16.150000000000002Q243.508 -16.150000000000002 242.93 -15.997000000000002Q242.352 -15.844000000000001 241.825 -15.504000000000001Q241.298 -15.164000000000001 240.89 -14.688000000000002Q240.482 -14.212000000000002 240.21 -13.668000000000001Q239.93800000000002 -13.124 239.76800000000003 -12.563Q239.598 -12.002 239.496 -11.424000000000001L238.748 -6.8340000000000005Q238.64600000000002 -6.222 238.61200000000002 -5.61Q238.578 -4.998 238.64600000000002 -4.4030000000000005Q238.714 -3.8080000000000003 238.935 -3.2640000000000002Q239.156 -2.72 239.54700000000003 -2.3120000000000003Q239.93800000000002 -1.9040000000000001 240.51600000000002 -1.717Q241.094 -1.53 241.70600000000002 -1.53Z M255.816 0.272Q254.966 0.272 254.18400000000003 0.0Q253.40200000000002 -0.272 252.875 -0.8500000000000001Q252.348 -1.4280000000000002 252.05900000000003 -2.193Q251.77 -2.958 251.668 -3.7740000000000005Q251.566 -4.590000000000001 251.61700000000002 -5.44Q251.668 -6.29 251.804 -7.140000000000001L253.266 -15.878000000000002H251.804V-17.68H255.578L253.776 -6.8340000000000005Q253.674 -6.222 253.64 -5.627000000000001Q253.606 -5.032 253.65699999999998 -4.437Q253.708 -3.842 253.912 -3.298Q254.116 -2.754 254.49 -2.346Q254.864 -1.9380000000000002 255.425 -1.734Q255.986 -1.53 256.598 -1.53Q257.142 -1.53 257.68600000000004 -1.666Q258.23 -1.802 258.757 -2.125Q259.284 -2.4480000000000004 259.658 -2.907Q260.032 -3.366 260.304 -3.8760000000000003Q260.576 -4.386 260.72900000000004 -4.93Q260.882 -5.474 260.984 -6.018000000000001L262.922 -17.68H264.928L262.412 -2.482Q262.378 -2.278 262.395 -2.091Q262.412 -1.9040000000000001 262.53099999999995 -1.7850000000000001Q262.65 -1.6660000000000001 262.82 -1.598Q262.99 -1.53 263.194 -1.53H263.84000000000003L263.806 0.272H262.88800000000003Q262.31 0.272 261.783 0.11900000000000001Q261.25600000000003 -0.034 260.882 -0.40800000000000003Q260.508 -0.782 260.406 -1.343Q260.30400000000003 -1.9040000000000001 260.406 -2.482L260.44 -2.754Q260.1 -2.108 259.624 -1.53Q259.148 -0.9520000000000001 258.536 -0.527Q257.924 -0.10200000000000001 257.21 0.085Q256.496 0.272 255.816 0.272Z M270.436 0.272Q269.552 0.272 268.77 0.0Q267.988 -0.272 267.44399999999996 -0.8330000000000001Q266.9 -1.3940000000000001 266.594 -2.1420000000000003Q266.288 -2.89 266.169 -3.723Q266.05 -4.556 266.101 -5.423Q266.152 -6.29 266.288 -7.140000000000001L267.07 -11.73Q267.172 -12.478000000000002 267.39300000000003 -13.209000000000001Q267.61400000000003 -13.940000000000001 267.937 -14.637Q268.26 -15.334000000000001 268.77 -15.98Q269.28000000000003 -16.626 269.92600000000004 -17.085Q270.572 -17.544 271.32 -17.748Q272.068 -17.952 272.81600000000003 -17.952Q273.666 -17.952 274.448 -17.697000000000003Q275.23 -17.442 275.774 -16.898000000000003Q276.318 -16.354000000000003 276.624 -15.623000000000001Q276.93 -14.892000000000001 277.06600000000003 -14.110000000000001L277.678 -17.68H279.684L277.168 -2.482Q277.134 -2.278 277.151 -2.091Q277.168 -1.9040000000000001 277.28700000000003 -1.7850000000000001Q277.406 -1.6660000000000001 277.576 -1.598Q277.746 -1.53 277.95 -1.53H278.596L278.562 0.272H277.644Q277.06600000000003 0.272 276.539 0.11900000000000001Q276.012 -0.034 275.63800000000003 -0.40800000000000003Q275.264 -0.782 275.16200000000003 -1.343Q275.06 -1.9040000000000001 275.162 -2.482L275.196 -2.7880000000000003Q274.856 -2.1420000000000003 274.346 -1.5470000000000002Q273.836 -0.9520000000000001 273.207 -0.527Q272.57800000000003 -0.10200000000000001 271.86400000000003 0.085Q271.15 0.272 270.436 0.272ZM271.218 -1.53Q271.762 -1.53 272.323 -1.666Q272.884 -1.802 273.394 -2.108Q273.904 -2.414 274.329 -2.873Q274.754 -3.3320000000000003 275.043 -3.8420000000000005Q275.332 -4.352 275.485 -4.913Q275.63800000000003 -5.474 275.74 -6.018000000000001L276.488 -10.608Q276.624 -11.254000000000001 276.658 -11.883000000000001Q276.692 -12.512 276.624 -13.124Q276.556 -13.736 276.352 -14.297Q276.148 -14.858 275.757 -15.283000000000001Q275.366 -15.708000000000002 274.788 -15.929000000000002Q274.21 -16.150000000000002 273.564 -16.150000000000002Q273.02 -16.150000000000002 272.442 -15.997000000000002Q271.86400000000003 -15.844000000000001 271.337 -15.504000000000001Q270.81 -15.164000000000001 270.40200000000004 -14.688000000000002Q269.994 -14.212000000000002 269.722 -13.668000000000001Q269.45 -13.124 269.28 -12.563Q269.11 -12.002 269.008 -11.424000000000001L268.26 -6.8340000000000005Q268.158 -6.222 268.124 -5.61Q268.09000000000003 -4.998 268.158 -4.4030000000000005Q268.226 -3.8080000000000003 268.447 -3.2640000000000002Q268.668 -2.72 269.05899999999997 -2.3120000000000003Q269.45 -1.9040000000000001 270.028 -1.717Q270.606 -1.53 271.218 -1.53Z M282.60800000000006 0.0 285.22600000000006 -15.878000000000002H282.60800000000006V-17.68H287.538L286.92600000000004 -13.940000000000001Q287.232 -14.722000000000001 287.742 -15.453000000000001Q288.252 -16.184 288.898 -16.762Q289.54400000000004 -17.34 290.36 -17.646Q291.17600000000004 -17.952 291.992 -17.952Q292.502 -17.952 292.961 -17.833000000000002Q293.42 -17.714000000000002 293.76 -17.408Q294.1 -17.102 294.30400000000003 -16.677Q294.50800000000004 -16.252000000000002 294.559 -15.776000000000002Q294.61 -15.3 294.576 -14.807000000000002Q294.54200000000003 -14.314000000000002 294.47400000000005 -13.838000000000001H292.468Q292.53600000000006 -14.246 292.53600000000006 -14.637Q292.53600000000006 -15.028 292.40000000000003 -15.385000000000002Q292.264 -15.742 291.94100000000003 -15.946000000000002Q291.61800000000005 -16.150000000000002 291.244 -16.150000000000002Q290.53000000000003 -16.150000000000002 289.85 -15.895000000000001Q289.17 -15.64 288.60900000000004 -15.13Q288.04800000000006 -14.620000000000001 287.65700000000004 -13.991Q287.266 -13.362 286.97700000000003 -12.699000000000002Q286.68800000000005 -12.036000000000001 286.5350000000001 -11.339000000000002Q286.38200000000006 -10.642000000000001 286.24600000000004 -9.962000000000002L284.61400000000003 0.0Z M303.11 0.272Q302.362 0.272 301.665 0.085Q300.968 -0.10200000000000001 300.424 -0.51Q299.88 -0.918 299.53999999999996 -1.5470000000000002Q299.2 -2.176 299.06399999999996 -2.873Q298.928 -3.5700000000000003 298.962 -4.301Q298.996 -5.032 299.132 -5.78L300.798 -15.878000000000002H297.60200000000003V-17.68H301.104L302.294 -24.990000000000002H304.3L303.11 -17.68H308.822L308.788 -15.878000000000002H302.80400000000003L301.07 -5.474Q301.002 -5.032 300.968 -4.573Q300.934 -4.114 300.985 -3.672Q301.036 -3.2300000000000004 301.206 -2.822Q301.376 -2.414 301.66499999999996 -2.108Q301.954 -1.802 302.379 -1.666Q302.80400000000003 -1.53 303.28000000000003 -1.53Q303.722 -1.53 304.198 -1.7000000000000002Q304.674 -1.87 305.048 -2.193Q305.422 -2.516 305.694 -2.9240000000000004Q305.966 -3.3320000000000003 306.153 -3.774Q306.34000000000003 -4.216 306.476 -4.658Q306.612 -5.1000000000000005 306.68 -5.542000000000001V-5.5760000000000005L308.618 -5.474V-5.44Q308.516 -4.726 308.295 -4.046Q308.074 -3.366 307.751 -2.72Q307.428 -2.0740000000000003 306.935 -1.4960000000000002Q306.442 -0.918 305.83000000000004 -0.51Q305.218 -0.10200000000000001 304.521 0.085Q303.824 0.272 303.11 0.272Z M318.10400000000004 0.272Q317.62800000000004 0.272 317.20300000000003 0.11900000000000001Q316.778 -0.034 316.38700000000006 -0.255Q315.99600000000004 -0.47600000000000003 315.605 -0.6970000000000001Q315.21400000000006 -0.918 314.82300000000004 -1.139Q314.432 -1.36 314.00700000000006 -1.5300000000000002Q313.58200000000005 -1.7000000000000002 313.17400000000004 -1.87L311.848 -2.346L311.47400000000005 0.0H309.672L310.31800000000004 -3.91L320.89200000000005 -13.838000000000001L320.17800000000005 -14.178Q319.53200000000004 -14.450000000000001 318.937 -14.739Q318.34200000000004 -15.028 317.74700000000007 -15.334Q317.15200000000004 -15.64 316.50600000000003 -15.895000000000001Q315.86 -16.150000000000002 315.18 -16.150000000000002Q314.84000000000003 -16.150000000000002 314.58500000000004 -15.912000000000003Q314.33000000000004 -15.674000000000001 314.16 -15.385000000000002Q313.99 -15.096000000000002 313.871 -14.790000000000003Q313.752 -14.484000000000002 313.65000000000003 -14.178Q313.54800000000006 -13.872000000000002 313.48 -13.566000000000003Q313.41200000000003 -13.260000000000002 313.37800000000004 -12.954L313.10600000000005 -11.254000000000001H311.27000000000004L311.54200000000003 -12.954Q311.61 -13.498000000000001 311.76300000000003 -14.042000000000002Q311.91600000000005 -14.586 312.12 -15.13Q312.324 -15.674000000000001 312.63 -16.184Q312.93600000000004 -16.694000000000003 313.37800000000004 -17.102000000000004Q313.82000000000005 -17.51 314.36400000000003 -17.731Q314.908 -17.952 315.45200000000006 -17.952Q316.26800000000003 -17.952 316.982 -17.697000000000003Q317.696 -17.442 318.34200000000004 -17.102Q318.98800000000006 -16.762 319.634 -16.439Q320.28000000000003 -16.116 320.994 -15.81L321.776 -15.47L322.15000000000003 -17.68H323.95200000000006L323.30600000000004 -13.770000000000001L312.83400000000006 -3.9440000000000004L313.85400000000004 -3.5700000000000003Q314.466 -3.3320000000000003 315.02700000000004 -3.0600000000000005Q315.588 -2.7880000000000003 316.115 -2.4650000000000003Q316.64200000000005 -2.1420000000000003 317.20300000000003 -1.8360000000000003Q317.764 -1.53 318.41 -1.53Q318.75000000000006 -1.53 319.00500000000005 -1.7680000000000002Q319.26000000000005 -2.0060000000000002 319.43000000000006 -2.295Q319.6 -2.584 319.71900000000005 -2.89Q319.838 -3.196 319.94000000000005 -3.5020000000000002Q320.04200000000003 -3.8080000000000003 320.11 -4.114Q320.17800000000005 -4.42 320.24600000000004 -4.726L320.51800000000003 -6.426H322.35400000000004L322.08200000000005 -4.726Q321.98 -4.182 321.84400000000005 -3.6380000000000003Q321.708 -3.0940000000000003 321.487 -2.5500000000000003Q321.266 -2.0060000000000002 320.97700000000003 -1.4960000000000002Q320.68800000000005 -0.9860000000000001 320.24600000000004 -0.5780000000000001Q319.80400000000003 -0.17 319.24300000000005 0.051000000000000004Q318.682 0.272 318.10400000000004 0.272Z M327.794 7.3100000000000005 326.4 6.018000000000001Q327.692 4.7940000000000005 328.695 3.3320000000000003Q329.698 1.87 330.174 0.272H330.038Q329.596 0.272 329.171 0.11900000000000001Q328.746 -0.034 328.44 -0.34Q328.134 -0.646 327.981 -1.088Q327.82800000000003 -1.53 327.82800000000003 -1.9720000000000002Q327.82800000000003 -2.108 327.845 -2.244Q327.862 -2.3800000000000003 327.896 -2.516Q327.964 -2.89 328.151 -3.247Q328.338 -3.604 328.644 -3.825Q328.95 -4.046 329.32399999999996 -4.148Q329.698 -4.25 330.072 -4.25Q330.48 -4.25 330.88800000000003 -4.131Q331.296 -4.0120000000000005 331.602 -3.7740000000000005Q331.908 -3.5360000000000005 332.078 -3.1790000000000003Q332.248 -2.822 332.31600000000003 -2.431Q332.384 -2.04 332.33299999999997 -1.6150000000000002Q332.282 -1.1900000000000002 332.214 -0.782Q332.01 0.34 331.619 1.428Q331.228 2.516 330.68399999999997 3.536Q330.14 4.556 329.392 5.508000000000001Q328.644 6.460000000000001 327.794 7.3100000000000005Z M356.966 7.582000000000001Q355.946 7.582000000000001 355.028 7.242000000000001Q354.11 6.902 353.53200000000004 6.154Q352.954 5.406000000000001 352.80100000000004 4.42Q352.648 3.434 352.818 2.4480000000000004V2.346H354.824V2.414Q354.722 3.0260000000000002 354.773 3.638Q354.824 4.25 355.113 4.76Q355.402 5.2700000000000005 355.946 5.525Q356.49 5.78 357.136 5.78Q357.612 5.78 358.105 5.559Q358.598 5.338 358.95500000000004 4.964Q359.312 4.590000000000001 359.584 4.131Q359.856 3.672 360.043 3.1790000000000003Q360.23 2.6860000000000004 360.332 2.1930000000000005Q360.434 1.7000000000000002 360.536 1.2240000000000002L363.358 -15.878000000000002H358.904V-17.68H365.704L362.508 1.53Q362.406 2.244 362.202 2.958Q361.998 3.672 361.658 4.352Q361.318 5.032 360.842 5.644Q360.366 6.256 359.754 6.715Q359.142 7.174 358.411 7.378Q357.68 7.582000000000001 356.966 7.582000000000001ZM365.262 -21.012Q364.82 -21.012 364.446 -21.165Q364.072 -21.318 363.817 -21.624000000000002Q363.562 -21.930000000000003 363.494 -22.355000000000004Q363.426 -22.78 363.494 -23.222Q363.528 -23.494000000000003 363.698 -23.783Q363.868 -24.072000000000003 364.123 -24.242000000000004Q364.378 -24.412000000000003 364.66700000000003 -24.480000000000004Q364.956 -24.548000000000002 365.228 -24.548000000000002Q365.67 -24.548000000000002 366.06100000000004 -24.395000000000003Q366.452 -24.242 366.69 -23.936Q366.928 -23.630000000000003 367.01300000000003 -23.205000000000002Q367.098 -22.78 366.99600000000004 -22.338Q366.962 -22.066000000000003 366.79200000000003 -21.777Q366.622 -21.488000000000003 366.384 -21.318000000000005Q366.146 -21.148000000000003 365.84000000000003 -21.080000000000002Q365.534 -21.012 365.262 -21.012Z M373.86400000000003 0.272Q373.014 0.272 372.232 0.0Q371.45000000000005 -0.272 370.923 -0.8500000000000001Q370.396 -1.4280000000000002 370.107 -2.193Q369.81800000000004 -2.958 369.716 -3.7740000000000005Q369.61400000000003 -4.590000000000001 369.665 -5.44Q369.716 -6.29 369.85200000000003 -7.140000000000001L371.314 -15.878000000000002H369.85200000000003V-17.68H373.62600000000003L371.824 -6.8340000000000005Q371.72200000000004 -6.222 371.68800000000005 -5.627000000000001Q371.65400000000005 -5.032 371.70500000000004 -4.437Q371.75600000000003 -3.842 371.96000000000004 -3.298Q372.16400000000004 -2.754 372.538 -2.346Q372.91200000000003 -1.9380000000000002 373.47300000000007 -1.734Q374.03400000000005 -1.53 374.646 -1.53Q375.19000000000005 -1.53 375.73400000000004 -1.666Q376.278 -1.802 376.80500000000006 -2.125Q377.33200000000005 -2.4480000000000004 377.706 -2.907Q378.08000000000004 -3.366 378.35200000000003 -3.8760000000000003Q378.624 -4.386 378.77700000000004 -4.93Q378.93000000000006 -5.474 379.03200000000004 -6.018000000000001L380.97 -17.68H382.97600000000006L380.46000000000004 -2.482Q380.42600000000004 -2.278 380.44300000000004 -2.091Q380.46000000000004 -1.9040000000000001 380.57900000000006 -1.7850000000000001Q380.69800000000004 -1.6660000000000001 380.86800000000005 -1.598Q381.038 -1.53 381.242 -1.53H381.88800000000003L381.85400000000004 0.272H380.93600000000004Q380.35800000000006 0.272 379.831 0.11900000000000001Q379.30400000000003 -0.034 378.93000000000006 -0.40800000000000003Q378.55600000000004 -0.782 378.45400000000006 -1.343Q378.35200000000003 -1.9040000000000001 378.454 -2.482L378.48800000000006 -2.754Q378.148 -2.108 377.672 -1.53Q377.196 -0.9520000000000001 376.58400000000006 -0.527Q375.97200000000004 -0.10200000000000001 375.25800000000004 0.085Q374.54400000000004 0.272 373.86400000000003 0.272Z M388.484 0.272Q387.6 0.272 386.818 0.0Q386.036 -0.272 385.49199999999996 -0.8330000000000001Q384.948 -1.3940000000000001 384.642 -2.1420000000000003Q384.336 -2.89 384.217 -3.723Q384.098 -4.556 384.149 -5.423Q384.2 -6.29 384.336 -7.140000000000001L385.118 -11.73Q385.22 -12.478000000000002 385.44100000000003 -13.209000000000001Q385.66200000000003 -13.940000000000001 385.985 -14.637Q386.308 -15.334000000000001 386.818 -15.98Q387.32800000000003 -16.626 387.97400000000005 -17.085Q388.62 -17.544 389.368 -17.748Q390.116 -17.952 390.86400000000003 -17.952Q391.714 -17.952 392.496 -17.697000000000003Q393.278 -17.442 393.822 -16.898000000000003Q394.366 -16.354000000000003 394.672 -15.623000000000001Q394.978 -14.892000000000001 395.11400000000003 -14.110000000000001L396.644 -23.188000000000002H395.182L395.148 -24.990000000000002H398.922L395.216 -2.482Q395.182 -2.278 395.199 -2.091Q395.216 -1.9040000000000001 395.33500000000004 -1.7850000000000001Q395.454 -1.6660000000000001 395.624 -1.598Q395.794 -1.53 395.998 -1.53H396.644L396.61 0.272H395.692Q395.11400000000003 0.272 394.587 0.11900000000000001Q394.06 -0.034 393.68600000000004 -0.40800000000000003Q393.312 -0.782 393.21000000000004 -1.343Q393.108 -1.9040000000000001 393.21 -2.482L393.244 -2.7880000000000003Q392.904 -2.1420000000000003 392.394 -1.5470000000000002Q391.884 -0.9520000000000001 391.255 -0.527Q390.62600000000003 -0.10200000000000001 389.91200000000003 0.085Q389.198 0.272 388.484 0.272ZM389.266 -1.53Q389.81 -1.53 390.371 -1.666Q390.932 -1.802 391.442 -2.108Q391.952 -2.414 392.377 -2.873Q392.802 -3.3320000000000003 393.091 -3.8420000000000005Q393.38 -4.352 393.533 -4.913Q393.68600000000004 -5.474 393.788 -6.018000000000001L394.536 -10.608Q394.672 -11.254000000000001 394.706 -11.883000000000001Q394.74 -12.512 394.672 -13.124Q394.604 -13.736 394.4 -14.297Q394.196 -14.858 393.805 -15.283000000000001Q393.414 -15.708000000000002 392.836 -15.929000000000002Q392.258 -16.150000000000002 391.612 -16.150000000000002Q391.068 -16.150000000000002 390.49 -15.997000000000002Q389.91200000000003 -15.844000000000001 389.385 -15.504000000000001Q388.858 -15.164000000000001 388.45000000000005 -14.688000000000002Q388.04200000000003 -14.212000000000002 387.77 -13.668000000000001Q387.498 -13.124 387.328 -12.563Q387.158 -12.002 387.056 -11.424000000000001L386.308 -6.8340000000000005Q386.206 -6.222 386.172 -5.61Q386.13800000000003 -4.998 386.206 -4.4030000000000005Q386.274 -3.8080000000000003 386.495 -3.2640000000000002Q386.716 -2.72 387.10699999999997 -2.3120000000000003Q387.498 -1.9040000000000001 388.076 -1.717Q388.654 -1.53 389.266 -1.53Z M402.79800000000006 7.582000000000001Q402.08400000000006 7.582000000000001 401.40400000000005 7.497000000000001Q400.72400000000005 7.412000000000001 400.095 7.157Q399.466 6.902 398.939 6.494Q398.41200000000003 6.086 398.08900000000006 5.525Q397.766 4.964 397.64700000000005 4.267Q397.528 3.5700000000000003 397.66400000000004 2.8560000000000003H399.636Q399.53400000000005 3.5360000000000005 399.77200000000005 4.148000000000001Q400.01000000000005 4.760000000000001 400.50300000000004 5.134Q400.99600000000004 5.508 401.64200000000005 5.644Q402.288 5.78 402.968 5.78Q403.51200000000006 5.78 404.09000000000003 5.627000000000001Q404.668 5.474 405.178 5.117000000000001Q405.68800000000005 4.760000000000001 406.062 4.284000000000001Q406.43600000000004 3.8080000000000003 406.69100000000003 3.281Q406.946 2.754 407.11600000000004 2.193Q407.28600000000006 1.6320000000000001 407.38800000000003 1.054L408.00000000000006 -2.7880000000000003Q407.66 -2.1420000000000003 407.15000000000003 -1.5470000000000002Q406.64000000000004 -0.9520000000000001 406.0110000000001 -0.527Q405.38200000000006 -0.10200000000000001 404.668 0.085Q403.954 0.272 403.24 0.272Q402.35600000000005 0.272 401.57400000000007 0.0Q400.79200000000003 -0.272 400.24800000000005 -0.8330000000000001Q399.704 -1.3940000000000001 399.398 -2.1420000000000003Q399.09200000000004 -2.89 398.97300000000007 -3.723Q398.85400000000004 -4.556 398.90500000000003 -5.423Q398.956 -6.29 399.09200000000004 -7.140000000000001L399.874 -11.73Q399.97600000000006 -12.478000000000002 400.197 -13.209000000000001Q400.418 -13.940000000000001 400.741 -14.637Q401.064 -15.334000000000001 401.57400000000007 -15.98Q402.08400000000006 -16.626 402.73 -17.085Q403.37600000000003 -17.544 404.124 -17.748Q404.872 -17.952 405.62000000000006 -17.952Q406.47 -17.952 407.25200000000007 -17.697000000000003Q408.03400000000005 -17.442 408.57800000000003 -16.898000000000003Q409.122 -16.354000000000003 409.428 -15.623000000000001Q409.73400000000004 -14.892000000000001 409.87000000000006 -14.110000000000001L410.482 -17.68H412.48800000000006L409.326 1.36Q409.19000000000005 2.1420000000000003 408.96900000000005 2.9240000000000004Q408.74800000000005 3.7060000000000004 408.32300000000004 4.437Q407.898 5.168 407.269 5.797000000000001Q406.64000000000004 6.426 405.90900000000005 6.8340000000000005Q405.17800000000005 7.242000000000001 404.379 7.412000000000001Q403.58000000000004 7.582000000000001 402.79800000000006 7.582000000000001ZM404.02200000000005 -1.53Q404.56600000000003 -1.53 405.12700000000007 -1.666Q405.68800000000005 -1.802 406.19800000000004 -2.108Q406.708 -2.414 407.13300000000004 -2.873Q407.55800000000005 -3.3320000000000003 407.84700000000004 -3.8420000000000005Q408.136 -4.352 408.289 -4.913Q408.442 -5.474 408.54400000000004 -6.018000000000001L409.29200000000003 -10.608Q409.42800000000005 -11.254000000000001 409.46200000000005 -11.883000000000001Q409.49600000000004 -12.512 409.428 -13.124Q409.36 -13.736 409.15600000000006 -14.297Q408.95200000000006 -14.858 408.56100000000004 -15.283000000000001Q408.17 -15.708000000000002 407.592 -15.929000000000002Q407.014 -16.150000000000002 406.36800000000005 -16.150000000000002Q405.824 -16.150000000000002 405.246 -15.997000000000002Q404.668 -15.844000000000001 404.141 -15.504000000000001Q403.61400000000003 -15.164000000000001 403.206 -14.688000000000002Q402.79800000000006 -14.212000000000002 402.52600000000007 -13.668000000000001Q402.254 -13.124 402.08400000000006 -12.563Q401.91400000000004 -12.002 401.812 -11.424000000000001L401.064 -6.8340000000000005Q400.96200000000005 -6.222 400.92800000000005 -5.61Q400.89400000000006 -4.998 400.96200000000005 -4.4030000000000005Q401.03000000000003 -3.8080000000000003 401.25100000000003 -3.2640000000000002Q401.47200000000004 -2.72 401.86300000000006 -2.3120000000000003Q402.254 -1.9040000000000001 402.832 -1.717Q403.41 -1.53 404.02200000000005 -1.53Z M419.118 0.272Q418.166 0.272 417.28200000000004 0.068Q416.398 -0.136 415.701 -0.629Q415.004 -1.122 414.528 -1.87Q414.052 -2.6180000000000003 413.865 -3.4850000000000003Q413.678 -4.352 413.695 -5.2700000000000005Q413.712 -6.188000000000001 413.848 -7.140000000000001L414.63 -11.73Q414.766 -12.512 414.987 -13.294Q415.208 -14.076 415.63300000000004 -14.790000000000001Q416.058 -15.504000000000001 416.63599999999997 -16.133000000000003Q417.214 -16.762 417.945 -17.187Q418.676 -17.612000000000002 419.49199999999996 -17.782000000000004Q420.308 -17.952 421.09000000000003 -17.952Q421.872 -17.952 422.62 -17.833000000000002Q423.368 -17.714000000000002 424.031 -17.391000000000002Q424.694 -17.068 425.204 -16.541000000000004Q425.714 -16.014000000000003 425.986 -15.334000000000003Q426.258 -14.654000000000002 426.30899999999997 -13.889000000000001Q426.36 -13.124 426.224 -12.342Q426.088 -11.492 425.663 -10.676000000000002Q425.238 -9.860000000000001 424.524 -9.282Q423.81 -8.704 422.96000000000004 -8.415000000000001Q422.11 -8.126000000000001 421.24300000000005 -7.922000000000001Q420.37600000000003 -7.718000000000001 419.526 -7.633000000000001Q418.676 -7.548000000000001 417.826 -7.548000000000001Q417.35 -7.548000000000001 416.891 -7.565000000000001Q416.432 -7.582000000000001 415.956 -7.65L415.82 -6.8340000000000005Q415.718 -6.188000000000001 415.701 -5.542000000000001Q415.684 -4.896000000000001 415.803 -4.284000000000001Q415.922 -3.672 416.194 -3.1450000000000005Q416.466 -2.6180000000000003 416.942 -2.244Q417.418 -1.87 418.01300000000003 -1.7000000000000002Q418.608 -1.53 419.254 -1.53Q420.002 -1.53 420.733 -1.7680000000000002Q421.464 -2.0060000000000002 422.09299999999996 -2.499Q422.722 -2.992 423.181 -3.6550000000000002Q423.64 -4.3180000000000005 423.878 -5.032L425.612 -4.284000000000001Q425.17 -3.3320000000000003 424.524 -2.4480000000000004Q423.878 -1.564 423.01099999999997 -0.935Q422.144 -0.30600000000000005 421.124 -0.017000000000000015Q420.104 0.272 419.118 0.272ZM417.622 -9.452Q418.098 -9.452 418.591 -9.486Q419.084 -9.520000000000001 419.577 -9.571000000000002Q420.07 -9.622 420.563 -9.724Q421.056 -9.826 421.532 -9.962Q422.008 -10.098 422.48400000000004 -10.319Q422.96000000000004 -10.540000000000001 423.351 -10.897000000000002Q423.742 -11.254000000000001 423.963 -11.73Q424.184 -12.206000000000001 424.252 -12.682Q424.38800000000003 -13.396 424.235 -14.093Q424.082 -14.790000000000001 423.623 -15.266000000000002Q423.164 -15.742 422.48400000000004 -15.946000000000002Q421.80400000000003 -16.150000000000002 421.09000000000003 -16.150000000000002Q420.512 -16.150000000000002 419.93399999999997 -15.997000000000002Q419.356 -15.844000000000001 418.846 -15.504000000000001Q418.336 -15.164000000000001 417.94500000000005 -14.688000000000002Q417.55400000000003 -14.212000000000002 417.28200000000004 -13.668000000000001Q417.01 -13.124 416.84000000000003 -12.563Q416.67 -12.002 416.568 -11.424000000000001L416.262 -9.520000000000001Q416.60200000000003 -9.486 416.942 -9.469000000000001Q417.282 -9.452 417.622 -9.452Z M442.374 0.0 444.992 -15.946000000000002H443.87L443.904 -17.68H447.202L446.964 -16.354000000000003Q447.168 -16.694000000000003 447.423 -16.983000000000004Q447.678 -17.272000000000002 448.001 -17.493000000000002Q448.324 -17.714000000000002 448.68100000000004 -17.833000000000002Q449.038 -17.952 449.41200000000003 -17.952Q449.854 -17.952 450.262 -17.748Q450.67 -17.544 450.891 -17.17Q451.112 -16.796000000000003 451.231 -16.371000000000002Q451.35 -15.946000000000002 451.384 -15.504000000000001Q451.55400000000003 -15.946000000000002 451.826 -16.388Q452.098 -16.830000000000002 452.45500000000004 -17.187Q452.812 -17.544 453.288 -17.748Q453.764 -17.952 454.24 -17.952Q454.75 -17.952 455.175 -17.68Q455.6 -17.408 455.821 -16.966Q456.04200000000003 -16.524 456.127 -16.014000000000003Q456.212 -15.504000000000001 456.229 -14.994000000000002Q456.246 -14.484000000000002 456.195 -13.940000000000001Q456.144 -13.396 456.04200000000003 -12.886000000000001L454.206 -1.7340000000000002H455.32800000000003V0.0H452.03000000000003L454.206 -13.192Q454.274 -13.668000000000001 454.308 -14.127Q454.342 -14.586 454.274 -15.028Q454.206 -15.47 453.968 -15.844000000000001Q453.73 -16.218 453.254 -16.218Q452.812 -16.218 452.42100000000005 -15.878Q452.03000000000003 -15.538 451.826 -15.113Q451.622 -14.688 451.50300000000004 -14.246Q451.384 -13.804 451.31600000000003 -13.362L449.106 0.0H447.202L449.378 -13.192Q449.446 -13.668000000000001 449.48 -14.127Q449.514 -14.586 449.446 -15.028Q449.378 -15.47 449.14 -15.844000000000001Q448.902 -16.218 448.426 -16.218Q447.984 -16.218 447.59299999999996 -15.878Q447.202 -15.538 446.998 -15.113Q446.794 -14.688 446.67499999999995 -14.246Q446.556 -13.804 446.488 -13.362L444.278 0.0Z M461.82200000000006 7.582000000000001Q461.10800000000006 7.582000000000001 460.42800000000005 7.497000000000001Q459.74800000000005 7.412000000000001 459.119 7.157Q458.49 6.902 457.963 6.494Q457.43600000000004 6.086 457.11300000000006 5.525Q456.79 4.964 456.67100000000005 4.267Q456.552 3.5700000000000003 456.68800000000005 2.8560000000000003H458.66Q458.55800000000005 3.5360000000000005 458.79600000000005 4.148000000000001Q459.03400000000005 4.760000000000001 459.52700000000004 5.134Q460.02000000000004 5.508 460.66600000000005 5.644Q461.312 5.78 461.992 5.78Q462.53600000000006 5.78 463.11400000000003 5.627000000000001Q463.692 5.474 464.202 5.117000000000001Q464.71200000000005 4.760000000000001 465.086 4.284000000000001Q465.46000000000004 3.8080000000000003 465.71500000000003 3.281Q465.97 2.754 466.14000000000004 2.193Q466.31000000000006 1.6320000000000001 466.41200000000003 1.054L467.02400000000006 -2.754Q466.684 -2.108 466.208 -1.53Q465.732 -0.9520000000000001 465.12 -0.527Q464.50800000000004 -0.10200000000000001 463.79400000000004 0.085Q463.08000000000004 0.272 462.40000000000003 0.272Q461.55 0.272 460.76800000000003 0.0Q459.98600000000005 -0.272 459.45900000000006 -0.8500000000000001Q458.932 -1.4280000000000002 458.64300000000003 -2.193Q458.35400000000004 -2.958 458.25200000000007 -3.7740000000000005Q458.15000000000003 -4.590000000000001 458.201 -5.44Q458.252 -6.29 458.38800000000003 -7.140000000000001L459.85 -15.878000000000002H458.38800000000003V-17.68H462.16200000000003L460.36 -6.8340000000000005Q460.25800000000004 -6.222 460.22400000000005 -5.627000000000001Q460.19000000000005 -5.032 460.24100000000004 -4.437Q460.29200000000003 -3.842 460.49600000000004 -3.298Q460.70000000000005 -2.754 461.07400000000007 -2.346Q461.44800000000004 -1.9380000000000002 462.009 -1.734Q462.57000000000005 -1.53 463.182 -1.53Q463.72600000000006 -1.53 464.27000000000004 -1.666Q464.814 -1.802 465.341 -2.125Q465.86800000000005 -2.4480000000000004 466.2420000000001 -2.907Q466.61600000000004 -3.366 466.88800000000003 -3.8760000000000003Q467.16 -4.386 467.313 -4.93Q467.466 -5.474 467.56800000000004 -6.018000000000001L469.50600000000003 -17.68H471.51200000000006L468.35 1.36Q468.21400000000006 2.1420000000000003 467.99300000000005 2.9240000000000004Q467.77200000000005 3.7060000000000004 467.34700000000004 4.437Q466.922 5.168 466.293 5.797000000000001Q465.66400000000004 6.426 464.93300000000005 6.8340000000000005Q464.20200000000006 7.242000000000001 463.403 7.412000000000001Q462.60400000000004 7.582000000000001 461.82200000000006 7.582000000000001Z M491.266 0.0 489.49800000000005 -15.878000000000002H487.934V-17.68H491.43600000000004L492.55800000000005 -5.882000000000001Q492.66 -5.1000000000000005 492.72800000000007 -4.301Q492.79600000000005 -3.5020000000000002 492.86400000000003 -2.6860000000000004Q493.20400000000006 -3.5020000000000002 493.54400000000004 -4.301Q493.884 -5.1000000000000005 494.19000000000005 -5.882000000000001L499.25600000000003 -17.68H501.36400000000003L493.57800000000003 0.0Z M507.416 0.272Q506.498 0.272 505.648 0.051000000000000004Q504.798 -0.17 504.118 -0.68Q503.438 -1.1900000000000002 502.996 -1.9380000000000002Q502.55400000000003 -2.6860000000000004 502.367 -3.5360000000000005Q502.18 -4.386 502.214 -5.304Q502.248 -6.222 502.384 -7.140000000000001L503.166 -11.73Q503.302 -12.512 503.54 -13.311Q503.778 -14.110000000000001 504.22 -14.841000000000001Q504.66200000000003 -15.572000000000001 505.274 -16.184Q505.886 -16.796000000000003 506.634 -17.204Q507.382 -17.612000000000002 508.21500000000003 -17.782000000000004Q509.048 -17.952 509.83 -17.952Q510.748 -17.952 511.615 -17.731Q512.482 -17.51 513.162 -17.0Q513.842 -16.490000000000002 514.284 -15.742Q514.726 -14.994000000000002 514.896 -14.144000000000002Q515.066 -13.294 515.049 -12.376000000000001Q515.032 -11.458 514.862 -10.540000000000001L514.114 -5.95Q513.9780000000001 -5.168 513.723 -4.369Q513.468 -3.5700000000000003 513.043 -2.8390000000000004Q512.618 -2.108 511.98900000000003 -1.496Q511.36 -0.8840000000000001 510.612 -0.4760000000000001Q509.86400000000003 -0.068 509.03100000000006 0.10200000000000001Q508.19800000000004 0.272 507.416 0.272ZM507.416 -1.53Q507.994 -1.53 508.58900000000006 -1.666Q509.184 -1.802 509.728 -2.1420000000000003Q510.272 -2.482 510.697 -2.958Q511.122 -3.434 511.428 -3.978Q511.73400000000004 -4.522 511.887 -5.1000000000000005Q512.04 -5.678000000000001 512.142 -6.256L512.924 -10.846Q513.026 -11.458 513.06 -12.087Q513.094 -12.716000000000001 512.992 -13.311Q512.89 -13.906 512.669 -14.450000000000001Q512.448 -14.994000000000002 512.04 -15.385000000000002Q511.632 -15.776000000000002 511.03700000000003 -15.963000000000001Q510.442 -16.150000000000002 509.83 -16.150000000000002Q509.252 -16.150000000000002 508.65700000000004 -16.014000000000003Q508.062 -15.878000000000002 507.53499999999997 -15.538Q507.008 -15.198 506.56600000000003 -14.722000000000001Q506.124 -14.246 505.83500000000004 -13.702000000000002Q505.546 -13.158000000000001 505.376 -12.580000000000002Q505.206 -12.002 505.104 -11.424000000000001L504.356 -6.8340000000000005Q504.254 -6.222 504.22 -5.593Q504.18600000000004 -4.964 504.271 -4.369000000000001Q504.356 -3.7740000000000005 504.594 -3.2300000000000004Q504.832 -2.6860000000000004 505.24 -2.2950000000000004Q505.648 -1.9040000000000001 506.226 -1.717Q506.80400000000003 -1.53 507.416 -1.53Z M520.0300000000001 0.0H518.1600000000001L518.5 -15.878000000000002H517.1740000000001V-17.68H520.5060000000001L519.758 -3.366L523.124 -12.716000000000001H524.96L525.1980000000001 -3.366L529.21 -17.68H531.182L525.7080000000001 0.0H523.8380000000001L523.6 -10.030000000000001Z M536.996 0.272Q536.452 0.272 535.9590000000001 0.085Q535.466 -0.10200000000000001 535.1600000000001 -0.51Q534.854 -0.918 534.769 -1.445Q534.684 -1.9720000000000002 534.7860000000001 -2.516Q534.854 -2.89 535.041 -3.247Q535.2280000000001 -3.604 535.551 -3.825Q535.874 -4.046 536.248 -4.148Q536.622 -4.25 536.996 -4.25Q537.54 -4.25 538.0329999999999 -4.046Q538.526 -3.842 538.8489999999999 -3.451Q539.172 -3.06 539.24 -2.516Q539.308 -1.9720000000000002 539.24 -1.4280000000000002Q539.172 -1.054 538.985 -0.714Q538.798 -0.374 538.4580000000001 -0.136Q538.118 0.10200000000000001 537.744 0.187Q537.37 0.272 536.996 0.272Z"/>
  </g>
</svg>
