<svg xmlns="http://www.w3.org/2000/svg" width="588" height="73" viewBox="0 0 588 73" role="img" aria-labelledby="title desc">
  <title id="title">Iosevka Term Slab Compact Italic preview</title>
  <desc id="desc">Sphinx of black quartz, judge my vow.</desc>
  <style>
    .preview-text { fill: #24292f; }
    @media (prefers-color-scheme: dark) {
      .preview-text { fill: #f0f6fc; }
    }
  </style>
  <g class="preview-text" transform="translate(24.27 45.26)">
    <path d="M6.664000000000001 0.272Q5.95 0.272 5.2700000000000005 0.136Q4.590000000000001 0.0 4.0120000000000005 -0.35700000000000004Q3.434 -0.7140000000000001 3.0090000000000003 -1.241Q2.584 -1.7680000000000002 2.346 -2.414L1.9720000000000002 0.0H-0.272L0.748 -6.12H2.992Q2.8560000000000003 -5.372000000000001 2.8900000000000006 -4.607Q2.9240000000000004 -3.842 3.2810000000000006 -3.2300000000000004Q3.6380000000000003 -2.6180000000000003 4.3180000000000005 -2.3120000000000003Q4.998 -2.0060000000000002 5.746 -2.0060000000000002Q6.460000000000001 -2.0060000000000002 7.2250000000000005 -2.2780000000000005Q7.99 -2.5500000000000003 8.534 -3.0940000000000003Q9.078000000000001 -3.6380000000000003 9.401 -4.352Q9.724 -5.066000000000001 9.860000000000001 -5.814Q9.996 -6.664000000000001 9.86 -7.514000000000001Q9.724 -8.364 9.333 -9.061Q8.942 -9.758000000000001 8.33 -10.285Q7.718000000000001 -10.812000000000001 7.055000000000001 -11.288Q6.392 -11.764000000000001 5.763 -12.274000000000001Q5.134 -12.784 4.607 -13.379000000000001Q4.08 -13.974 3.7060000000000004 -14.705000000000002Q3.3320000000000003 -15.436000000000002 3.111 -16.235000000000003Q2.89 -17.034000000000002 2.856 -17.884Q2.822 -18.734 2.958 -19.618000000000002Q3.0940000000000003 -20.298000000000002 3.298 -20.978Q3.5020000000000002 -21.658 3.859 -22.304000000000002Q4.216 -22.950000000000003 4.709 -23.528000000000002Q5.202 -24.106 5.814 -24.514000000000003Q6.426 -24.922 7.140000000000001 -25.092Q7.854000000000001 -25.262 8.534 -25.262Q9.248000000000001 -25.262 9.911000000000001 -25.126Q10.574000000000002 -24.990000000000002 11.135000000000002 -24.633000000000003Q11.696000000000002 -24.276000000000003 12.087000000000002 -23.766000000000002Q12.478000000000002 -23.256 12.716000000000001 -22.610000000000003L13.090000000000002 -24.990000000000002H15.334000000000001L14.348 -18.87H12.104000000000001Q12.206000000000001 -19.618000000000002 12.172 -20.366Q12.138000000000002 -21.114 11.798000000000002 -21.726Q11.458 -22.338 10.829 -22.661Q10.200000000000001 -22.984 9.452 -22.984Q8.738000000000001 -22.984 8.007000000000001 -22.712000000000003Q7.276000000000001 -22.44 6.7490000000000006 -21.879Q6.222 -21.318 5.916 -20.621000000000002Q5.61 -19.924000000000003 5.474 -19.21Q5.338 -18.326 5.474 -17.493000000000002Q5.61 -16.66 6.001 -15.946000000000002Q6.392 -15.232000000000001 7.0040000000000004 -14.705000000000002Q7.6160000000000005 -14.178 8.262 -13.702000000000002Q8.908000000000001 -13.226 9.554000000000002 -12.733Q10.200000000000001 -12.24 10.71 -11.628Q11.22 -11.016 11.611 -10.302Q12.002 -9.588000000000001 12.223 -8.772Q12.444 -7.956 12.478000000000002 -7.106Q12.512 -6.256 12.376000000000001 -5.372000000000001Q12.274000000000001 -4.692 12.036000000000001 -3.995Q11.798 -3.298 11.424 -2.652Q11.05 -2.0060000000000002 10.557 -1.4280000000000002Q10.064 -0.8500000000000001 9.418 -0.4590000000000001Q8.772 -0.068 8.058 0.10200000000000001Q7.344 0.272 6.664000000000001 0.272Z M13.26 7.3100000000000005 17.034 -15.402000000000001H15.742V-17.68H19.992L19.55 -14.994000000000002Q19.856 -15.64 20.315 -16.201Q20.774 -16.762 21.369 -17.17Q21.964 -17.578000000000003 22.644 -17.765Q23.324 -17.952 23.97 -17.952Q24.854 -17.952 25.619 -17.68Q26.384 -17.408 26.928 -16.813000000000002Q27.472 -16.218 27.744 -15.453Q28.016000000000002 -14.688 28.118000000000002 -13.872Q28.22 -13.056000000000001 28.169 -12.206000000000001Q28.118000000000002 -11.356000000000002 27.982 -10.472000000000001L27.200000000000003 -5.882000000000001Q27.098 -5.168 26.911 -4.454000000000001Q26.724 -3.74 26.401000000000003 -3.0600000000000005Q26.078000000000003 -2.3800000000000003 25.619 -1.7510000000000003Q25.16 -1.122 24.548000000000002 -0.646Q23.936 -0.17 23.188000000000002 0.051000000000000004Q22.44 0.272 21.726 0.272Q20.91 0.272 20.162 0.017Q19.414 -0.23800000000000002 18.87 -0.782Q18.326 -1.326 18.037 -2.04Q17.748 -2.754 17.646 -3.5360000000000005L15.844000000000001 7.3100000000000005ZM20.672 -2.0060000000000002Q21.182000000000002 -2.0060000000000002 21.709000000000003 -2.1420000000000003Q22.236 -2.278 22.695 -2.601Q23.154000000000003 -2.9240000000000004 23.494000000000003 -3.349Q23.834000000000003 -3.7740000000000005 24.089000000000002 -4.267Q24.344 -4.760000000000001 24.48 -5.253Q24.616 -5.746 24.684 -6.256L25.466 -10.846Q25.534 -11.424000000000001 25.585 -11.968Q25.636000000000003 -12.512 25.585 -13.039000000000001Q25.534 -13.566 25.347 -14.059000000000001Q25.16 -14.552000000000001 24.82 -14.926000000000002Q24.48 -15.3 23.987000000000002 -15.487000000000002Q23.494 -15.674000000000001 22.950000000000003 -15.674000000000001Q22.202 -15.674000000000001 21.471000000000004 -15.368000000000002Q20.740000000000002 -15.062000000000001 20.196 -14.484000000000002Q19.652 -13.906 19.380000000000003 -13.175Q19.108 -12.444 19.006 -11.73L18.224 -7.106000000000001Q18.156 -6.562 18.105 -5.984Q18.054000000000002 -5.406000000000001 18.105 -4.862Q18.156 -4.3180000000000005 18.308999999999997 -3.7910000000000004Q18.462 -3.2640000000000002 18.785 -2.8560000000000003Q19.108 -2.4480000000000004 19.601 -2.2270000000000003Q20.094 -2.0060000000000002 20.672 -2.0060000000000002Z M29.240000000000002 0.0 32.980000000000004 -22.712000000000003H31.688000000000002V-24.990000000000002H35.938L34.306 -15.028Q34.612 -15.64 35.054 -16.201Q35.496 -16.762 36.057 -17.17Q36.618 -17.578000000000003 37.281000000000006 -17.765Q37.944 -17.952 38.59 -17.952Q39.44 -17.952 40.205 -17.663000000000004Q40.97 -17.374000000000002 41.497 -16.779000000000003Q42.024 -16.184 42.278999999999996 -15.419Q42.534 -14.654000000000002 42.619 -13.838000000000001Q42.704 -13.022 42.653000000000006 -12.172Q42.602000000000004 -11.322000000000001 42.466 -10.472000000000001L41.106 -2.278H42.398V0.0H38.148L39.95 -10.846Q40.018 -11.39 40.069 -11.934000000000001Q40.120000000000005 -12.478000000000002 40.069 -13.005000000000003Q40.018 -13.532000000000002 39.848 -14.025000000000002Q39.678 -14.518 39.372 -14.892000000000001Q39.066 -15.266000000000002 38.59 -15.470000000000002Q38.114000000000004 -15.674000000000001 37.57 -15.674000000000001Q36.856 -15.674000000000001 36.125 -15.351Q35.394 -15.028 34.884 -14.450000000000001Q34.374 -13.872000000000002 34.119 -13.158000000000001Q33.864000000000004 -12.444 33.762 -11.73L31.824 0.0Z M52.7 0.272Q51.986000000000004 0.272 51.289 0.085Q50.592 -0.10200000000000001 50.048 -0.51Q49.504000000000005 -0.918 49.164 -1.5300000000000002Q48.824 -2.1420000000000003 48.688 -2.8390000000000004Q48.552 -3.5360000000000005 48.586 -4.267Q48.620000000000005 -4.998 48.756 -5.746L50.354 -15.402000000000001H46.172000000000004V-17.68H53.278L51.238 -5.372000000000001Q51.136 -4.7940000000000005 51.136 -4.216Q51.136 -3.6380000000000003 51.34 -3.1450000000000005Q51.544000000000004 -2.652 51.986000000000004 -2.329Q52.428 -2.0060000000000002 52.972 -2.0060000000000002Q53.38 -2.0060000000000002 53.754000000000005 -2.1590000000000003Q54.128 -2.3120000000000003 54.434 -2.601Q54.74 -2.89 54.961 -3.2300000000000004Q55.182 -3.5700000000000003 55.335 -3.9440000000000004Q55.488 -4.3180000000000005 55.59 -4.692Q55.692 -5.066000000000001 55.760000000000005 -5.44L58.072 -5.202Q57.936 -4.556 57.715 -3.8930000000000002Q57.494 -3.2300000000000004 57.153999999999996 -2.6180000000000003Q56.814 -2.0060000000000002 56.355000000000004 -1.4450000000000003Q55.896 -0.8840000000000001 55.318 -0.49300000000000005Q54.74 -0.10200000000000001 54.06 0.085Q53.38 0.272 52.7 0.272ZM52.972 -20.672Q52.496 -20.672 52.02 -20.842Q51.544000000000004 -21.012 51.272000000000006 -21.386000000000003Q51.0 -21.76 50.915000000000006 -22.270000000000003Q50.830000000000005 -22.78 50.898 -23.290000000000003Q50.966 -23.630000000000003 51.153000000000006 -23.970000000000002Q51.34 -24.310000000000002 51.629000000000005 -24.531000000000002Q51.918000000000006 -24.752000000000002 52.275000000000006 -24.837000000000003Q52.632000000000005 -24.922 53.006 -24.922Q53.482 -24.922 53.958 -24.735Q54.434000000000005 -24.548000000000002 54.723 -24.174Q55.012 -23.8 55.097 -23.29Q55.182 -22.78 55.080000000000005 -22.270000000000003Q55.012 -21.930000000000003 54.825 -21.590000000000003Q54.638000000000005 -21.25 54.349000000000004 -21.029Q54.06 -20.808 53.703 -20.740000000000002Q53.346000000000004 -20.672 52.972 -20.672Z M58.752 0.0 61.302 -15.402000000000001H60.01V-17.68H64.26L63.818 -15.028Q64.124 -15.64 64.566 -16.201Q65.008 -16.762 65.56899999999999 -17.17Q66.13 -17.578000000000003 66.793 -17.765Q67.456 -17.952 68.102 -17.952Q68.952 -17.952 69.717 -17.663000000000004Q70.482 -17.374000000000002 71.009 -16.779000000000003Q71.536 -16.184 71.791 -15.419Q72.046 -14.654000000000002 72.131 -13.838000000000001Q72.21600000000001 -13.022 72.165 -12.172Q72.114 -11.322000000000001 71.97800000000001 -10.472000000000001L70.618 -2.278H71.91V0.0H67.66L69.462 -10.846Q69.53 -11.39 69.581 -11.934000000000001Q69.632 -12.478000000000002 69.581 -13.005000000000003Q69.53 -13.532000000000002 69.36 -14.025000000000002Q69.19 -14.518 68.884 -14.892000000000001Q68.578 -15.266000000000002 68.102 -15.470000000000002Q67.626 -15.674000000000001 67.082 -15.674000000000001Q66.368 -15.674000000000001 65.637 -15.351Q64.906 -15.028 64.396 -14.450000000000001Q63.886 -13.872000000000002 63.631 -13.158000000000001Q63.376000000000005 -12.444 63.274 -11.73L61.336 0.0Z M76.602 0.272Q75.956 0.272 75.412 -0.017000000000000015Q74.868 -0.30600000000000005 74.562 -0.799Q74.256 -1.292 74.137 -1.887Q74.018 -2.482 73.98400000000001 -3.111Q73.95 -3.74 74.001 -4.369Q74.052 -4.998 74.154 -5.644L74.29 -6.392H76.67L76.534 -5.644Q76.5 -5.372000000000001 76.449 -5.1000000000000005Q76.398 -4.828 76.381 -4.573Q76.364 -4.3180000000000005 76.34700000000001 -4.046Q76.33 -3.7740000000000005 76.34700000000001 -3.519Q76.364 -3.2640000000000002 76.381 -2.992Q76.398 -2.72 76.46600000000001 -2.482Q76.534 -2.244 76.70400000000001 -2.04Q76.874 -1.836 77.112 -1.836Q77.418 -1.836 77.673 -2.0740000000000003Q77.928 -2.3120000000000003 78.098 -2.5840000000000005Q78.268 -2.8560000000000003 78.387 -3.1620000000000004Q78.506 -3.4680000000000004 78.59100000000001 -3.7570000000000006Q78.676 -4.046 78.727 -4.352Q78.778 -4.658 78.846 -4.964L80.41 -14.450000000000001Q80.444 -14.688 80.42699999999999 -14.96Q80.41 -15.232000000000001 80.274 -15.436Q80.138 -15.64 79.9 -15.742Q79.662 -15.844000000000001 79.39 -15.844000000000001Q79.152 -15.844000000000001 78.89699999999999 -15.759Q78.642 -15.674000000000001 78.47200000000001 -15.504000000000001L76.22800000000001 -13.226L74.562 -14.688L76.806 -16.966Q77.316 -17.51 78.013 -17.731Q78.71000000000001 -17.952 79.39 -17.952Q79.934 -17.952 80.444 -17.748Q80.95400000000001 -17.544 81.277 -17.136000000000003Q81.6 -16.728 81.719 -16.201Q81.838 -15.674000000000001 81.804 -15.13Q82.008 -15.64 82.28 -16.116Q82.552 -16.592000000000002 82.926 -17.017000000000003Q83.3 -17.442 83.793 -17.697000000000003Q84.286 -17.952 84.796 -17.952Q85.44200000000001 -17.952 85.986 -17.663000000000004Q86.53 -17.374000000000002 86.85300000000001 -16.881Q87.176 -16.388 87.295 -15.793000000000001Q87.414 -15.198 87.44800000000001 -14.569Q87.482 -13.940000000000001 87.414 -13.311Q87.346 -12.682 87.244 -12.036000000000001L87.142 -11.288H84.762L84.864 -12.036000000000001Q84.932 -12.308000000000002 84.96600000000001 -12.580000000000002Q85.0 -12.852 85.03399999999999 -13.107Q85.068 -13.362 85.068 -13.634Q85.068 -13.906 85.068 -14.161000000000001Q85.068 -14.416 85.051 -14.688Q85.034 -14.96 84.96600000000001 -15.198Q84.898 -15.436000000000002 84.72800000000001 -15.64Q84.558 -15.844000000000001 84.32000000000001 -15.844000000000001Q84.014 -15.844000000000001 83.759 -15.606000000000002Q83.504 -15.368 83.334 -15.096Q83.164 -14.824000000000002 83.045 -14.518Q82.926 -14.212000000000002 82.82400000000001 -13.923000000000002Q82.72200000000001 -13.634 82.671 -13.328Q82.62 -13.022 82.586 -12.716000000000001L80.988 -3.2300000000000004Q80.95400000000001 -2.992 80.988 -2.72Q81.022 -2.4480000000000004 81.158 -2.244Q81.294 -2.04 81.532 -1.9380000000000002Q81.77 -1.836 82.042 -1.836Q82.28 -1.836 82.518 -1.9210000000000003Q82.756 -2.0060000000000002 82.926 -2.176L85.17 -4.454000000000001L86.836 -2.992L84.592 -0.7140000000000001Q84.116 -0.17 83.402 0.051000000000000004Q82.688 0.272 82.008 0.272Q81.464 0.272 80.95400000000001 0.068Q80.444 -0.136 80.12100000000001 -0.544Q79.798 -0.9520000000000001 79.679 -1.479Q79.56 -2.0060000000000002 79.594 -2.5500000000000003Q79.424 -2.04 79.152 -1.564Q78.88 -1.088 78.506 -0.663Q78.132 -0.23800000000000002 77.622 0.017Q77.112 0.272 76.602 0.272Z M109.072 0.272Q108.12 0.272 107.236 0.068Q106.352 -0.136 105.672 -0.6460000000000001Q104.992 -1.1560000000000001 104.55000000000001 -1.9210000000000003Q104.108 -2.6860000000000004 103.904 -3.553Q103.7 -4.42 103.73400000000001 -5.338Q103.768 -6.256 103.938 -7.208L104.686 -11.798Q104.822 -12.58 105.077 -13.362000000000002Q105.33200000000001 -14.144000000000002 105.774 -14.875000000000002Q106.21600000000001 -15.606000000000002 106.828 -16.218000000000004Q107.44 -16.830000000000002 108.205 -17.238Q108.97 -17.646 109.769 -17.799Q110.568 -17.952 111.35 -17.952Q112.302 -17.952 113.186 -17.748Q114.07000000000001 -17.544 114.75 -17.034Q115.43 -16.524 115.88900000000001 -15.759Q116.348 -14.994000000000002 116.535 -14.127000000000002Q116.72200000000001 -13.260000000000002 116.688 -12.342000000000002Q116.654 -11.424000000000001 116.518 -10.472000000000001L115.736 -5.882000000000001Q115.634 -5.1000000000000005 115.37899999999999 -4.3180000000000005Q115.124 -3.5360000000000005 114.682 -2.8050000000000006Q114.24000000000001 -2.0740000000000003 113.62800000000001 -1.4620000000000002Q113.016 -0.8500000000000001 112.251 -0.44200000000000006Q111.486 -0.034 110.67 0.11900000000000001Q109.854 0.272 109.072 0.272ZM109.072 -2.0060000000000002Q109.854 -2.0060000000000002 110.636 -2.346Q111.418 -2.6860000000000004 111.97900000000001 -3.3150000000000004Q112.54 -3.9440000000000004 112.82900000000001 -4.726Q113.118 -5.508 113.22 -6.256L114.00200000000001 -10.846Q114.07000000000001 -11.424000000000001 114.12100000000001 -11.968Q114.172 -12.512 114.104 -13.056000000000001Q114.036 -13.600000000000001 113.849 -14.093Q113.662 -14.586 113.28800000000001 -14.943000000000001Q112.914 -15.3 112.42099999999999 -15.487000000000002Q111.928 -15.674000000000001 111.35 -15.674000000000001Q110.568 -15.674000000000001 109.803 -15.334000000000001Q109.038 -14.994000000000002 108.477 -14.365000000000002Q107.916 -13.736 107.62700000000001 -12.954Q107.33800000000001 -12.172 107.202 -11.424000000000001L106.45400000000001 -6.8340000000000005Q106.352 -6.256 106.31800000000001 -5.712Q106.284 -5.168 106.352 -4.6240000000000006Q106.42 -4.08 106.607 -3.587Q106.794 -3.0940000000000003 107.151 -2.737Q107.508 -2.3800000000000003 108.001 -2.1930000000000005Q108.494 -2.0060000000000002 109.072 -2.0060000000000002Z M116.144 7.3100000000000005V5.032H117.84400000000001Q118.558 5.032 119.272 4.828Q119.986 4.6240000000000006 120.581 4.131Q121.176 3.6380000000000003 121.516 2.958Q121.85600000000001 2.278 121.958 1.564L124.50800000000001 -13.736H119.85000000000001L119.816 -16.048000000000002H124.882L125.392 -19.244Q125.528 -20.026 125.80000000000001 -20.791Q126.072 -21.556 126.51400000000001 -22.253Q126.956 -22.950000000000003 127.619 -23.494Q128.282 -24.038 129.013 -24.378Q129.744 -24.718000000000004 130.526 -24.854000000000003Q131.308 -24.990000000000002 132.09 -24.990000000000002H133.79V-22.712000000000003H132.09Q131.342 -22.712000000000003 130.594 -22.457Q129.846 -22.202 129.251 -21.641000000000002Q128.656 -21.080000000000002 128.35000000000002 -20.349000000000004Q128.044 -19.618000000000002 127.94200000000001 -18.87L127.46600000000001 -16.048000000000002H132.124L132.15800000000002 -13.736H127.092L124.542 1.564Q124.406 2.346 124.15100000000001 3.111Q123.896 3.8760000000000003 123.43700000000001 4.573Q122.97800000000001 5.2700000000000005 122.33200000000001 5.814Q121.686 6.3580000000000005 120.938 6.698Q120.19 7.038 119.408 7.174Q118.626 7.3100000000000005 117.84400000000001 7.3100000000000005Z M154.53 0.272Q153.714 0.272 152.966 0.017Q152.218 -0.23800000000000002 151.67399999999998 -0.782Q151.13 -1.326 150.841 -2.04Q150.552 -2.754 150.45 -3.5360000000000005L149.872 0.0H147.288L151.028 -22.712000000000003H149.736V-24.990000000000002H153.986L152.354 -14.994000000000002Q152.66 -15.64 153.119 -16.201Q153.578 -16.762 154.173 -17.17Q154.768 -17.578000000000003 155.448 -17.765Q156.12800000000001 -17.952 156.774 -17.952Q157.65800000000002 -17.952 158.423 -17.68Q159.188 -17.408 159.732 -16.813000000000002Q160.276 -16.218 160.548 -15.453Q160.82 -14.688 160.922 -13.872Q161.024 -13.056000000000001 160.973 -12.206000000000001Q160.922 -11.356000000000002 160.786 -10.472000000000001L160.004 -5.882000000000001Q159.90200000000002 -5.168 159.715 -4.454000000000001Q159.528 -3.74 159.20499999999998 -3.0600000000000005Q158.882 -2.3800000000000003 158.423 -1.7510000000000003Q157.964 -1.122 157.352 -0.646Q156.74 -0.17 155.99200000000002 0.051000000000000004Q155.244 0.272 154.53 0.272ZM153.476 -2.0060000000000002Q153.986 -2.0060000000000002 154.51299999999998 -2.1420000000000003Q155.04 -2.278 155.499 -2.601Q155.958 -2.9240000000000004 156.298 -3.349Q156.638 -3.7740000000000005 156.893 -4.267Q157.148 -4.760000000000001 157.284 -5.253Q157.42000000000002 -5.746 157.488 -6.256L158.27 -10.846Q158.338 -11.424000000000001 158.389 -11.968Q158.44 -12.512 158.389 -13.039000000000001Q158.338 -13.566 158.151 -14.059000000000001Q157.964 -14.552000000000001 157.624 -14.926000000000002Q157.284 -15.3 156.791 -15.487000000000002Q156.298 -15.674000000000001 155.754 -15.674000000000001Q155.006 -15.674000000000001 154.275 -15.368000000000002Q153.544 -15.062000000000001 153.0 -14.484000000000002Q152.45600000000002 -13.906 152.18400000000003 -13.175Q151.912 -12.444 151.81 -11.73L151.028 -7.106000000000001Q150.96 -6.562 150.909 -5.984Q150.858 -5.406000000000001 150.909 -4.862Q150.96 -4.3180000000000005 151.113 -3.7910000000000004Q151.266 -3.2640000000000002 151.589 -2.8560000000000003Q151.912 -2.4480000000000004 152.405 -2.2270000000000003Q152.898 -2.0060000000000002 153.476 -2.0060000000000002Z M170.748 0.272Q170.034 0.272 169.337 0.085Q168.64000000000001 -0.10200000000000001 168.096 -0.51Q167.552 -0.918 167.212 -1.5300000000000002Q166.872 -2.1420000000000003 166.736 -2.8390000000000004Q166.6 -3.5360000000000005 166.63400000000001 -4.267Q166.668 -4.998 166.804 -5.746L169.592 -22.712000000000003H165.41V-24.990000000000002H172.516L169.286 -5.372000000000001Q169.184 -4.7940000000000005 169.184 -4.216Q169.184 -3.6380000000000003 169.388 -3.1450000000000005Q169.592 -2.652 170.034 -2.329Q170.476 -2.0060000000000002 171.02 -2.0060000000000002Q171.428 -2.0060000000000002 171.80200000000002 -2.1590000000000003Q172.17600000000002 -2.3120000000000003 172.48200000000003 -2.601Q172.788 -2.89 173.00900000000001 -3.2300000000000004Q173.23000000000002 -3.5700000000000003 173.383 -3.9440000000000004Q173.536 -4.3180000000000005 173.638 -4.692Q173.74 -5.066000000000001 173.808 -5.44L176.12 -5.202Q175.984 -4.556 175.763 -3.8930000000000002Q175.542 -3.2300000000000004 175.202 -2.6180000000000003Q174.862 -2.0060000000000002 174.40300000000002 -1.4450000000000003Q173.94400000000002 -0.8840000000000001 173.366 -0.49300000000000005Q172.788 -0.10200000000000001 172.108 0.085Q171.428 0.272 170.748 0.272Z M181.696 0.272Q180.812 0.272 180.04700000000003 0.0Q179.282 -0.272 178.755 -0.8670000000000001Q178.228 -1.4620000000000002 177.93900000000002 -2.2270000000000003Q177.65 -2.992 177.548 -3.8080000000000003Q177.446 -4.6240000000000006 177.514 -5.474Q177.582 -6.324000000000001 177.718 -7.208L178.466 -11.798Q178.602 -12.512 178.789 -13.226Q178.976 -13.940000000000001 179.28199999999998 -14.620000000000001Q179.588 -15.3 180.047 -15.929Q180.506 -16.558 181.135 -17.034Q181.764 -17.51 182.495 -17.731Q183.226 -17.952 183.94 -17.952Q184.756 -17.952 185.52100000000002 -17.697000000000003Q186.286 -17.442 186.813 -16.898000000000003Q187.34 -16.354000000000003 187.62900000000002 -15.640000000000002Q187.918 -14.926000000000002 188.054 -14.144000000000002L188.632 -17.68H191.216L188.734 -2.822Q188.734 -2.652 188.751 -2.499Q188.768 -2.346 188.853 -2.2270000000000003Q188.93800000000002 -2.108 189.091 -2.0570000000000004Q189.244 -2.0060000000000002 189.38 -2.0060000000000002H190.026V0.272H189.006Q188.394 0.272 187.799 0.11900000000000001Q187.204 -0.034 186.779 -0.44200000000000006Q186.354 -0.8500000000000001 186.21800000000002 -1.445Q186.082 -2.04 186.15 -2.6860000000000004Q185.844 -2.04 185.368 -1.479Q184.892 -0.918 184.297 -0.51Q183.702 -0.10200000000000001 183.022 0.085Q182.342 0.272 181.696 0.272ZM182.716 -2.0060000000000002Q183.464 -2.0060000000000002 184.195 -2.3120000000000003Q184.92600000000002 -2.6180000000000003 185.47000000000003 -3.1960000000000006Q186.014 -3.7740000000000005 186.286 -4.505000000000001Q186.558 -5.236000000000001 186.69400000000002 -5.95L187.442 -10.574000000000002Q187.544 -11.118 187.578 -11.696000000000002Q187.612 -12.274000000000001 187.578 -12.818000000000001Q187.544 -13.362 187.39100000000002 -13.889Q187.238 -14.416 186.91500000000002 -14.824000000000002Q186.592 -15.232000000000001 186.082 -15.453000000000001Q185.572 -15.674000000000001 184.994 -15.674000000000001Q184.484 -15.674000000000001 183.974 -15.538Q183.464 -15.402000000000001 183.005 -15.079Q182.546 -14.756 182.189 -14.331Q181.832 -13.906 181.594 -13.413Q181.356 -12.920000000000002 181.22 -12.427000000000001Q181.084 -11.934000000000001 180.982 -11.424000000000001L180.234 -6.8340000000000005Q180.132 -6.256 180.098 -5.712Q180.064 -5.168 180.115 -4.641Q180.166 -4.114 180.353 -3.621Q180.54 -3.128 180.863 -2.7540000000000004Q181.186 -2.3800000000000003 181.679 -2.1930000000000005Q182.172 -2.0060000000000002 182.716 -2.0060000000000002Z M197.71 0.272Q196.758 0.272 195.87400000000002 0.068Q194.99 -0.136 194.276 -0.6460000000000001Q193.562 -1.1560000000000001 193.12 -1.9040000000000001Q192.678 -2.652 192.457 -3.519Q192.236 -4.386 192.26999999999998 -5.321Q192.304 -6.256 192.474 -7.208L193.222 -11.798Q193.358 -12.58 193.613 -13.379000000000001Q193.868 -14.178 194.327 -14.909Q194.786 -15.64 195.41500000000002 -16.252000000000002Q196.044 -16.864 196.80900000000003 -17.255000000000003Q197.574 -17.646 198.39000000000001 -17.799Q199.20600000000002 -17.952 200.022 -17.952Q201.62 -17.952 203.082 -17.442Q204.544 -16.932000000000002 205.70000000000002 -16.014000000000003L204.952 -11.56H202.708L203.252 -14.824000000000002Q202.538 -15.232000000000001 201.722 -15.453000000000001Q200.906 -15.674000000000001 200.022 -15.674000000000001Q199.24 -15.674000000000001 198.441 -15.351Q197.642 -15.028 197.064 -14.399000000000001Q196.486 -13.770000000000001 196.18 -12.988000000000001Q195.874 -12.206000000000001 195.738 -11.424000000000001L194.99 -6.8340000000000005Q194.888 -6.256 194.85399999999998 -5.678000000000001Q194.82 -5.1000000000000005 194.905 -4.556000000000001Q194.99 -4.0120000000000005 195.228 -3.519Q195.466 -3.0260000000000002 195.857 -2.686Q196.248 -2.346 196.77499999999998 -2.176Q197.302 -2.0060000000000002 197.88 -2.0060000000000002Q198.662 -2.0060000000000002 199.42700000000002 -2.3630000000000004Q200.192 -2.72 200.736 -3.3320000000000003Q201.28 -3.9440000000000004 201.62 -4.675000000000001Q201.96 -5.406000000000001 202.16400000000002 -6.188000000000001L204.544 -5.61Q204.34 -4.862 204.0 -4.114Q203.66 -3.366 203.20100000000002 -2.686Q202.74200000000002 -2.0060000000000002 202.13 -1.411Q201.518 -0.8160000000000001 200.787 -0.44200000000000006Q200.056 -0.068 199.257 0.10200000000000001Q198.458 0.272 197.71 0.272Z M215.458 0.272Q214.982 0.272 214.54000000000002 0.17Q214.098 0.068 213.758 -0.18700000000000003Q213.418 -0.44200000000000006 213.248 -0.8500000000000001Q213.078 -1.258 212.976 -1.7000000000000002L211.888 -6.970000000000001Q211.514 -7.0040000000000004 211.191 -7.089Q210.868 -7.174 210.528 -7.344L209.338 0.0H206.788L210.528 -22.712000000000003H209.236V-24.990000000000002H213.452L211.514 -13.226Q211.854 -14.076 212.313 -14.892000000000001Q212.772 -15.708000000000002 213.418 -16.405Q214.064 -17.102 214.914 -17.527Q215.764 -17.952 216.648 -17.952Q217.192 -17.952 217.719 -17.799Q218.246 -17.646 218.62 -17.289Q218.994 -16.932000000000002 219.215 -16.456000000000003Q219.436 -15.98 219.50400000000002 -15.453000000000001Q219.572 -14.926000000000002 219.555 -14.382000000000001Q219.538 -13.838000000000001 219.436 -13.260000000000002Q219.266 -12.274000000000001 218.875 -11.322000000000001Q218.484 -10.370000000000001 217.787 -9.571000000000002Q217.09 -8.772 216.155 -8.228Q215.22 -7.684 214.268 -7.378L215.322 -2.1420000000000003Q215.356 -2.0740000000000003 215.339 -2.04Q215.322 -2.0060000000000002 215.356 -1.9380000000000002Q215.356 -1.9040000000000001 215.39 -1.87Q215.424 -1.836 215.458 -1.836Q215.49200000000002 -1.836 215.543 -1.836Q215.594 -1.836 215.594 -1.87L218.824 -5.1000000000000005L220.45600000000002 -3.604L217.26 -0.40800000000000003Q216.886 -0.034 216.393 0.11900000000000001Q215.9 0.272 215.458 0.272ZM212.19400000000002 -9.112Q212.738 -9.112 213.28199999999998 -9.265Q213.826 -9.418000000000001 214.336 -9.656Q214.846 -9.894 215.27100000000002 -10.251000000000001Q215.696 -10.608 216.036 -11.067Q216.376 -11.526000000000002 216.563 -12.053Q216.75 -12.58 216.818 -13.090000000000002Q216.92000000000002 -13.532000000000002 216.937 -13.957Q216.954 -14.382000000000001 216.818 -14.773000000000001Q216.68200000000002 -15.164000000000001 216.359 -15.419Q216.036 -15.674000000000001 215.594 -15.674000000000001Q214.948 -15.674000000000001 214.28500000000003 -15.351Q213.622 -15.028 213.14600000000002 -14.501000000000001Q212.67000000000002 -13.974 212.33 -13.345Q211.99 -12.716000000000001 211.71800000000002 -12.087Q211.446 -11.458 211.25900000000001 -10.795000000000002Q211.072 -10.132000000000001 210.936 -9.486Q211.208 -9.282 211.531 -9.197Q211.854 -9.112 212.19400000000002 -9.112Z M243.508 7.3100000000000005 245.174 -2.6860000000000004Q244.868 -2.04 244.392 -1.479Q243.916 -0.918 243.321 -0.51Q242.726 -0.10200000000000001 242.046 0.085Q241.366 0.272 240.72 0.272Q239.836 0.272 239.07100000000003 0.0Q238.306 -0.272 237.779 -0.8670000000000001Q237.252 -1.4620000000000002 236.96300000000002 -2.2270000000000003Q236.674 -2.992 236.572 -3.8080000000000003Q236.47 -4.6240000000000006 236.538 -5.474Q236.606 -6.324000000000001 236.742 -7.208L237.49 -11.798Q237.626 -12.512 237.813 -13.226Q238.0 -13.940000000000001 238.30599999999998 -14.620000000000001Q238.612 -15.3 239.071 -15.929Q239.53 -16.558 240.159 -17.034Q240.788 -17.51 241.519 -17.731Q242.25 -17.952 242.964 -17.952Q243.78 -17.952 244.54500000000002 -17.697000000000003Q245.31 -17.442 245.837 -16.898000000000003Q246.364 -16.354000000000003 246.65300000000002 -15.640000000000002Q246.942 -14.926000000000002 247.078 -14.144000000000002L247.656 -17.68H250.24L246.466 5.032H247.758V7.3100000000000005ZM241.74 -2.0060000000000002Q242.488 -2.0060000000000002 243.219 -2.3120000000000003Q243.95000000000002 -2.6180000000000003 244.49400000000003 -3.1960000000000006Q245.038 -3.7740000000000005 245.31 -4.505000000000001Q245.582 -5.236000000000001 245.71800000000002 -5.95L246.466 -10.574000000000002Q246.568 -11.118 246.602 -11.696000000000002Q246.636 -12.274000000000001 246.602 -12.818000000000001Q246.568 -13.362 246.41500000000002 -13.889Q246.262 -14.416 245.93900000000002 -14.824000000000002Q245.616 -15.232000000000001 245.106 -15.453000000000001Q244.596 -15.674000000000001 244.018 -15.674000000000001Q243.508 -15.674000000000001 242.998 -15.538Q242.488 -15.402000000000001 242.029 -15.079Q241.57 -14.756 241.213 -14.331Q240.856 -13.906 240.618 -13.413Q240.38 -12.920000000000002 240.244 -12.427000000000001Q240.108 -11.934000000000001 240.006 -11.424000000000001L239.258 -6.8340000000000005Q239.156 -6.256 239.122 -5.712Q239.088 -5.168 239.139 -4.641Q239.19 -4.114 239.377 -3.621Q239.564 -3.128 239.887 -2.7540000000000004Q240.21 -2.3800000000000003 240.703 -2.1930000000000005Q241.196 -2.0060000000000002 241.74 -2.0060000000000002Z M255.612 0.272Q254.762 0.272 253.997 -0.017000000000000015Q253.232 -0.30600000000000005 252.722 -0.901Q252.21200000000002 -1.496 251.94 -2.261Q251.668 -3.0260000000000002 251.583 -3.8420000000000005Q251.498 -4.658 251.566 -5.508000000000001Q251.63400000000001 -6.3580000000000005 251.77 -7.208L253.13 -15.402000000000001H251.838V-17.68H256.088L254.286 -6.8340000000000005Q254.184 -6.29 254.13299999999998 -5.746Q254.082 -5.202 254.15 -4.675000000000001Q254.21800000000002 -4.148000000000001 254.371 -3.6550000000000002Q254.524 -3.1620000000000004 254.82999999999998 -2.7880000000000003Q255.136 -2.414 255.61200000000002 -2.21Q256.088 -2.0060000000000002 256.632 -2.0060000000000002Q257.346 -2.0060000000000002 258.094 -2.329Q258.842 -2.652 259.33500000000004 -3.2300000000000004Q259.82800000000003 -3.8080000000000003 260.083 -4.522Q260.338 -5.236000000000001 260.474 -5.95L262.412 -17.68H264.996L262.514 -2.822Q262.514 -2.652 262.531 -2.499Q262.548 -2.346 262.63300000000004 -2.2270000000000003Q262.718 -2.108 262.871 -2.0570000000000004Q263.024 -2.0060000000000002 263.16 -2.0060000000000002H263.806V0.272H262.786Q262.174 0.272 261.57899999999995 0.11900000000000001Q260.984 -0.034 260.576 -0.42500000000000004Q260.168 -0.8160000000000001 259.99800000000005 -1.411Q259.82800000000003 -2.0060000000000002 259.93 -2.652Q259.624 -2.04 259.165 -1.479Q258.706 -0.918 258.145 -0.51Q257.584 -0.10200000000000001 256.921 0.085Q256.258 0.272 255.612 0.272Z M270.232 0.272Q269.348 0.272 268.58299999999997 0.0Q267.818 -0.272 267.291 -0.8670000000000001Q266.764 -1.4620000000000002 266.475 -2.2270000000000003Q266.186 -2.992 266.084 -3.8080000000000003Q265.982 -4.6240000000000006 266.05 -5.474Q266.118 -6.324000000000001 266.254 -7.208L267.002 -11.798Q267.138 -12.512 267.325 -13.226Q267.512 -13.940000000000001 267.818 -14.620000000000001Q268.124 -15.3 268.583 -15.929Q269.04200000000003 -16.558 269.67100000000005 -17.034Q270.3 -17.51 271.031 -17.731Q271.762 -17.952 272.476 -17.952Q273.29200000000003 -17.952 274.057 -17.697000000000003Q274.822 -17.442 275.349 -16.898000000000003Q275.876 -16.354000000000003 276.16499999999996 -15.640000000000002Q276.454 -14.926000000000002 276.59000000000003 -14.144000000000002L277.168 -17.68H279.752L277.27 -2.822Q277.27 -2.652 277.28700000000003 -2.499Q277.30400000000003 -2.346 277.389 -2.2270000000000003Q277.474 -2.108 277.627 -2.0570000000000004Q277.78000000000003 -2.0060000000000002 277.916 -2.0060000000000002H278.562V0.272H277.54200000000003Q276.93 0.272 276.33500000000004 0.11900000000000001Q275.74 -0.034 275.315 -0.44200000000000006Q274.89 -0.8500000000000001 274.754 -1.445Q274.618 -2.04 274.686 -2.6860000000000004Q274.38 -2.04 273.904 -1.479Q273.428 -0.918 272.83299999999997 -0.51Q272.238 -0.10200000000000001 271.558 0.085Q270.878 0.272 270.232 0.272ZM271.252 -2.0060000000000002Q272.0 -2.0060000000000002 272.731 -2.3120000000000003Q273.462 -2.6180000000000003 274.006 -3.1960000000000006Q274.55 -3.7740000000000005 274.822 -4.505000000000001Q275.094 -5.236000000000001 275.23 -5.95L275.978 -10.574000000000002Q276.08 -11.118 276.11400000000003 -11.696000000000002Q276.148 -12.274000000000001 276.11400000000003 -12.818000000000001Q276.08 -13.362 275.927 -13.889Q275.774 -14.416 275.451 -14.824000000000002Q275.128 -15.232000000000001 274.618 -15.453000000000001Q274.108 -15.674000000000001 273.53000000000003 -15.674000000000001Q273.02 -15.674000000000001 272.51 -15.538Q272.0 -15.402000000000001 271.541 -15.079Q271.082 -14.756 270.725 -14.331Q270.368 -13.906 270.13 -13.413Q269.892 -12.920000000000002 269.756 -12.427000000000001Q269.62 -11.934000000000001 269.51800000000003 -11.424000000000001L268.77 -6.8340000000000005Q268.668 -6.256 268.634 -5.712Q268.6 -5.168 268.651 -4.641Q268.702 -4.114 268.889 -3.621Q269.076 -3.128 269.399 -2.7540000000000004Q269.722 -2.3800000000000003 270.21500000000003 -2.1930000000000005Q270.708 -2.0060000000000002 271.252 -2.0060000000000002Z M282.54 0.0 285.09000000000003 -15.402000000000001H282.64200000000005V-17.68H288.014L287.40200000000004 -14.076Q287.776 -14.824000000000002 288.235 -15.521Q288.694 -16.218 289.30600000000004 -16.779Q289.918 -17.34 290.683 -17.646Q291.44800000000004 -17.952 292.23 -17.952Q292.74 -17.952 293.199 -17.782000000000004Q293.658 -17.612000000000002 293.96400000000006 -17.255000000000003Q294.27000000000004 -16.898 294.423 -16.439Q294.576 -15.98 294.62700000000007 -15.487000000000002Q294.67800000000005 -14.994000000000002 294.62700000000007 -14.484000000000002Q294.576 -13.974 294.47400000000005 -13.464H291.89000000000004Q291.958 -13.838000000000001 291.992 -14.195Q292.026 -14.552000000000001 291.94100000000003 -14.875Q291.85600000000005 -15.198 291.58400000000006 -15.436Q291.312 -15.674000000000001 290.97200000000004 -15.674000000000001Q290.36 -15.674000000000001 289.74800000000005 -15.402000000000001Q289.136 -15.13 288.694 -14.654Q288.252 -14.178 287.92900000000003 -13.600000000000001Q287.60600000000005 -13.022 287.36800000000005 -12.427Q287.13000000000005 -11.832 286.994 -11.237000000000002Q286.85800000000006 -10.642000000000001 286.75600000000003 -10.030000000000001L285.09000000000003 0.0Z M303.008 0.272Q302.26 0.272 301.529 0.085Q300.798 -0.10200000000000001 300.254 -0.544Q299.71 -0.9860000000000001 299.35299999999995 -1.6150000000000002Q298.996 -2.244 298.84299999999996 -2.9750000000000005Q298.69 -3.7060000000000004 298.707 -4.471Q298.724 -5.236000000000001 298.86 -5.984L300.424 -15.402000000000001H297.568V-17.68H300.798L301.988 -24.990000000000002H304.572L303.382 -17.68H308.754L308.788 -15.402000000000001H303.008L301.376 -5.61Q301.308 -5.202 301.274 -4.7940000000000005Q301.24 -4.386 301.291 -3.995Q301.342 -3.604 301.461 -3.247Q301.58 -2.89 301.83500000000004 -2.601Q302.09000000000003 -2.3120000000000003 302.447 -2.1590000000000003Q302.80400000000003 -2.0060000000000002 303.212 -2.0060000000000002Q303.62 -2.0060000000000002 304.028 -2.1930000000000005Q304.436 -2.3800000000000003 304.74199999999996 -2.686Q305.048 -2.992 305.286 -3.383Q305.524 -3.7740000000000005 305.677 -4.165Q305.83 -4.556 305.94899999999996 -4.964Q306.068 -5.372000000000001 306.136 -5.78L308.652 -5.61Q308.55 -4.896000000000001 308.312 -4.199000000000001Q308.074 -3.5020000000000002 307.73400000000004 -2.8390000000000004Q307.394 -2.176 306.918 -1.5810000000000002Q306.442 -0.9860000000000001 305.796 -0.561Q305.15 -0.136 304.436 0.068Q303.722 0.272 303.008 0.272Z M318.002 0.272Q317.526 0.272 317.101 0.11900000000000001Q316.67600000000004 -0.034 316.285 -0.255Q315.894 -0.47600000000000003 315.50300000000004 -0.7140000000000001Q315.112 -0.9520000000000001 314.73800000000006 -1.173Q314.36400000000003 -1.3940000000000001 313.939 -1.564Q313.514 -1.7340000000000002 313.07200000000006 -1.9040000000000001L312.25600000000003 -2.244L311.88200000000006 0.0H309.60400000000004L310.28400000000005 -4.25L320.28000000000003 -13.532000000000002L319.94000000000005 -13.668000000000001Q319.362 -13.940000000000001 318.80100000000004 -14.246000000000002Q318.24 -14.552000000000001 317.67900000000003 -14.858Q317.11800000000005 -15.164000000000001 316.50600000000003 -15.419Q315.894 -15.674000000000001 315.21400000000006 -15.674000000000001Q314.908 -15.674000000000001 314.687 -15.419Q314.466 -15.164000000000001 314.33000000000004 -14.892000000000001Q314.194 -14.620000000000001 314.092 -14.348Q313.99 -14.076 313.90500000000003 -13.787Q313.82000000000005 -13.498000000000001 313.769 -13.209000000000001Q313.718 -12.920000000000002 313.65000000000003 -12.648000000000001L313.37800000000004 -10.982000000000001H311.134L311.406 -12.648000000000001Q311.50800000000004 -13.226 311.66100000000006 -13.804000000000002Q311.814 -14.382000000000001 312.035 -14.96Q312.25600000000003 -15.538 312.596 -16.065Q312.93600000000004 -16.592000000000002 313.37800000000004 -17.034000000000002Q313.82000000000005 -17.476000000000003 314.4150000000001 -17.714000000000002Q315.01000000000005 -17.952 315.588 -17.952Q316.37000000000006 -17.952 317.05000000000007 -17.68Q317.73 -17.408 318.37600000000003 -17.068Q319.02200000000005 -16.728 319.68500000000006 -16.405Q320.348 -16.082 321.028 -15.776000000000002L321.40200000000004 -15.606000000000002L321.742 -17.68H324.02000000000004L323.30600000000004 -13.430000000000001L313.446 -4.25L313.99 -4.046Q314.398 -3.91 314.755 -3.74Q315.112 -3.5700000000000003 315.46900000000005 -3.3660000000000005Q315.826 -3.1620000000000004 316.16600000000005 -2.9410000000000003Q316.50600000000003 -2.72 316.846 -2.516Q317.18600000000004 -2.3120000000000003 317.577 -2.1590000000000003Q317.968 -2.0060000000000002 318.37600000000003 -2.0060000000000002Q318.682 -2.0060000000000002 318.92 -2.261Q319.158 -2.516 319.294 -2.7880000000000003Q319.43 -3.06 319.515 -3.332Q319.6 -3.604 319.68500000000006 -3.8930000000000002Q319.77000000000004 -4.182 319.8380000000001 -4.471Q319.90600000000006 -4.760000000000001 319.94000000000005 -5.032L320.21200000000005 -6.698H322.456L322.184 -5.032Q322.08200000000005 -4.454000000000001 321.946 -3.8760000000000003Q321.81000000000006 -3.298 321.57200000000006 -2.72Q321.33400000000006 -2.1420000000000003 321.0110000000001 -1.6150000000000002Q320.68800000000005 -1.088 320.24600000000004 -0.646Q319.80400000000003 -0.20400000000000001 319.192 0.034Q318.58000000000004 0.272 318.002 0.272Z M327.658 7.3100000000000005 325.992 5.5760000000000005Q327.284 4.488 328.355 3.1450000000000005Q329.426 1.802 330.004 0.272Q329.46 0.272 328.95 0.085Q328.44 -0.10200000000000001 328.1 -0.459Q327.76 -0.8160000000000001 327.60699999999997 -1.326Q327.454 -1.836 327.42 -2.3800000000000003Q327.454 -2.5500000000000003 327.471 -2.7030000000000003Q327.488 -2.8560000000000003 327.488 -3.0260000000000002Q327.59000000000003 -3.4680000000000004 327.81100000000004 -3.8760000000000003Q328.032 -4.284000000000001 328.406 -4.556000000000001Q328.78000000000003 -4.828 329.20500000000004 -4.93Q329.63 -5.032 330.072 -5.032Q330.752 -5.032 331.381 -4.76Q332.01 -4.488 332.35 -3.9440000000000004Q332.69 -3.4000000000000004 332.724 -2.72Q332.758 -2.04 332.622 -1.36Q332.418 -0.136 331.993 1.037Q331.568 2.21 330.922 3.315Q330.276 4.42 329.443 5.423Q328.61 6.426 327.658 7.3100000000000005Z M357.034 7.582000000000001Q355.946 7.582000000000001 354.977 7.259Q354.008 6.936000000000001 353.379 6.188000000000001Q352.75 5.44 352.563 4.42Q352.37600000000003 3.4000000000000004 352.546 2.346L352.58 2.21H355.13V2.278Q355.028 2.8560000000000003 355.096 3.4000000000000004Q355.164 3.9440000000000004 355.402 4.386Q355.64 4.828 356.13300000000004 5.066000000000001Q356.62600000000003 5.304 357.204 5.304Q357.646 5.304 358.088 5.1000000000000005Q358.53000000000003 4.896000000000001 358.853 4.556000000000001Q359.176 4.216 359.414 3.8080000000000003Q359.652 3.4000000000000004 359.805 2.958Q359.958 2.516 360.077 2.074Q360.196 1.6320000000000001 360.264 1.1900000000000002L363.01800000000003 -15.402000000000001H358.87V-17.68H365.976L362.78000000000003 1.564Q362.644 2.3120000000000003 362.457 3.0260000000000002Q362.27 3.74 361.913 4.42Q361.556 5.1000000000000005 361.046 5.712000000000001Q360.536 6.324000000000001 359.89 6.766Q359.244 7.208 358.496 7.3950000000000005Q357.748 7.582000000000001 357.034 7.582000000000001ZM365.228 -20.672Q364.752 -20.672 364.276 -20.842Q363.8 -21.012 363.528 -21.386000000000003Q363.25600000000003 -21.76 363.17100000000005 -22.270000000000003Q363.086 -22.78 363.154 -23.290000000000003Q363.22200000000004 -23.630000000000003 363.409 -23.970000000000002Q363.596 -24.310000000000002 363.885 -24.531000000000002Q364.17400000000004 -24.752000000000002 364.53100000000006 -24.837000000000003Q364.88800000000003 -24.922 365.262 -24.922Q365.738 -24.922 366.214 -24.735Q366.69 -24.548000000000002 366.97900000000004 -24.174Q367.26800000000003 -23.8 367.353 -23.29Q367.438 -22.78 367.336 -22.270000000000003Q367.26800000000003 -21.930000000000003 367.081 -21.590000000000003Q366.894 -21.25 366.605 -21.029Q366.31600000000003 -20.808 365.95900000000006 -20.740000000000002Q365.60200000000003 -20.672 365.228 -20.672Z M373.66 0.272Q372.81000000000006 0.272 372.0450000000001 -0.017000000000000015Q371.28000000000003 -0.30600000000000005 370.77000000000004 -0.901Q370.26000000000005 -1.496 369.98800000000006 -2.261Q369.716 -3.0260000000000002 369.63100000000003 -3.8420000000000005Q369.54600000000005 -4.658 369.61400000000003 -5.508000000000001Q369.682 -6.3580000000000005 369.81800000000004 -7.208L371.17800000000005 -15.402000000000001H369.886V-17.68H374.136L372.33400000000006 -6.8340000000000005Q372.232 -6.29 372.18100000000004 -5.746Q372.13000000000005 -5.202 372.19800000000004 -4.675000000000001Q372.266 -4.148000000000001 372.41900000000004 -3.6550000000000002Q372.57200000000006 -3.1620000000000004 372.87800000000004 -2.7880000000000003Q373.184 -2.414 373.66 -2.21Q374.136 -2.0060000000000002 374.68 -2.0060000000000002Q375.39400000000006 -2.0060000000000002 376.14200000000005 -2.329Q376.89000000000004 -2.652 377.38300000000004 -3.2300000000000004Q377.87600000000003 -3.8080000000000003 378.13100000000003 -4.522Q378.386 -5.236000000000001 378.52200000000005 -5.95L380.46000000000004 -17.68H383.04400000000004L380.562 -2.822Q380.562 -2.652 380.57900000000006 -2.499Q380.59600000000006 -2.346 380.68100000000004 -2.2270000000000003Q380.766 -2.108 380.91900000000004 -2.0570000000000004Q381.07200000000006 -2.0060000000000002 381.208 -2.0060000000000002H381.85400000000004V0.272H380.83400000000006Q380.22200000000004 0.272 379.62700000000007 0.11900000000000001Q379.03200000000004 -0.034 378.624 -0.42500000000000004Q378.216 -0.8160000000000001 378.04600000000005 -1.411Q377.87600000000003 -2.0060000000000002 377.978 -2.652Q377.672 -2.04 377.213 -1.479Q376.754 -0.918 376.19300000000004 -0.51Q375.63200000000006 -0.10200000000000001 374.96900000000005 0.085Q374.30600000000004 0.272 373.66 0.272Z M388.28000000000003 0.272Q387.396 0.272 386.631 0.0Q385.866 -0.272 385.339 -0.8670000000000001Q384.812 -1.4620000000000002 384.523 -2.2270000000000003Q384.234 -2.992 384.132 -3.8080000000000003Q384.03000000000003 -4.6240000000000006 384.098 -5.474Q384.166 -6.324000000000001 384.302 -7.208L385.05 -11.798Q385.186 -12.512 385.373 -13.226Q385.56 -13.940000000000001 385.866 -14.620000000000001Q386.172 -15.3 386.63100000000003 -15.929Q387.09000000000003 -16.558 387.71900000000005 -17.034Q388.348 -17.51 389.079 -17.731Q389.81 -17.952 390.524 -17.952Q391.34000000000003 -17.952 392.105 -17.697000000000003Q392.87 -17.442 393.397 -16.898000000000003Q393.924 -16.354000000000003 394.21299999999997 -15.640000000000002Q394.502 -14.926000000000002 394.63800000000003 -14.144000000000002L396.032 -22.712000000000003H394.774L394.74 -24.990000000000002H398.99L395.318 -2.822Q395.318 -2.652 395.33500000000004 -2.499Q395.35200000000003 -2.346 395.437 -2.2270000000000003Q395.522 -2.108 395.675 -2.0570000000000004Q395.82800000000003 -2.0060000000000002 395.964 -2.0060000000000002H396.61V0.272H395.59000000000003Q394.978 0.272 394.38300000000004 0.11900000000000001Q393.788 -0.034 393.363 -0.44200000000000006Q392.938 -0.8500000000000001 392.802 -1.445Q392.666 -2.04 392.734 -2.6860000000000004Q392.428 -2.04 391.952 -1.479Q391.476 -0.918 390.881 -0.51Q390.286 -0.10200000000000001 389.606 0.085Q388.926 0.272 388.28000000000003 0.272ZM389.3 -2.0060000000000002Q390.048 -2.0060000000000002 390.779 -2.3120000000000003Q391.51 -2.6180000000000003 392.054 -3.1960000000000006Q392.598 -3.7740000000000005 392.87 -4.505000000000001Q393.142 -5.236000000000001 393.278 -5.95L394.026 -10.574000000000002Q394.128 -11.118 394.16200000000003 -11.696000000000002Q394.196 -12.274000000000001 394.16200000000003 -12.818000000000001Q394.128 -13.362 393.975 -13.889Q393.822 -14.416 393.499 -14.824000000000002Q393.176 -15.232000000000001 392.666 -15.453000000000001Q392.156 -15.674000000000001 391.57800000000003 -15.674000000000001Q391.068 -15.674000000000001 390.558 -15.538Q390.048 -15.402000000000001 389.589 -15.079Q389.13 -14.756 388.773 -14.331Q388.416 -13.906 388.178 -13.413Q387.94 -12.920000000000002 387.804 -12.427000000000001Q387.668 -11.934000000000001 387.56600000000003 -11.424000000000001L386.818 -6.8340000000000005Q386.716 -6.256 386.682 -5.712Q386.648 -5.168 386.699 -4.641Q386.75 -4.114 386.937 -3.621Q387.124 -3.128 387.447 -2.7540000000000004Q387.77 -2.3800000000000003 388.26300000000003 -2.1930000000000005Q388.75600000000003 -2.0060000000000002 389.3 -2.0060000000000002Z M402.86600000000004 7.582000000000001Q402.11800000000005 7.582000000000001 401.42100000000005 7.497000000000001Q400.72400000000005 7.412000000000001 400.06100000000004 7.157Q399.398 6.902 398.87100000000004 6.477Q398.34400000000005 6.0520000000000005 398.0210000000001 5.457000000000001Q397.69800000000004 4.862 397.596 4.148Q397.494 3.434 397.59600000000006 2.72H400.146Q400.07800000000003 3.298 400.26500000000004 3.842Q400.45200000000006 4.386 400.87700000000007 4.709Q401.302 5.032 401.88 5.168Q402.458 5.304 403.03600000000006 5.304Q403.54600000000005 5.304 404.03900000000004 5.151Q404.53200000000004 4.998 404.99100000000004 4.675000000000001Q405.45000000000005 4.352 405.773 3.91Q406.09600000000006 3.4680000000000004 406.30000000000007 2.992Q406.504 2.516 406.64 2.023Q406.776 1.53 406.87800000000004 1.054L407.49 -2.6860000000000004Q407.184 -2.04 406.708 -1.479Q406.232 -0.918 405.63700000000006 -0.51Q405.04200000000003 -0.10200000000000001 404.362 0.085Q403.682 0.272 403.03600000000006 0.272Q402.15200000000004 0.272 401.38700000000006 0.0Q400.622 -0.272 400.095 -0.8670000000000001Q399.56800000000004 -1.4620000000000002 399.279 -2.2270000000000003Q398.99 -2.992 398.88800000000003 -3.8080000000000003Q398.78600000000006 -4.6240000000000006 398.85400000000004 -5.474Q398.922 -6.324000000000001 399.05800000000005 -7.208L399.80600000000004 -11.798Q399.942 -12.512 400.129 -13.226Q400.31600000000003 -13.940000000000001 400.62200000000007 -14.620000000000001Q400.92800000000005 -15.3 401.38700000000006 -15.929Q401.84600000000006 -16.558 402.475 -17.034Q403.10400000000004 -17.51 403.83500000000004 -17.731Q404.56600000000003 -17.952 405.28000000000003 -17.952Q406.09600000000006 -17.952 406.86100000000005 -17.697000000000003Q407.62600000000003 -17.442 408.153 -16.898000000000003Q408.68000000000006 -16.354000000000003 408.96900000000005 -15.640000000000002Q409.25800000000004 -14.926000000000002 409.39400000000006 -14.144000000000002L409.97200000000004 -17.68H412.55600000000004L409.39400000000006 1.4280000000000002Q409.25800000000004 2.21 409.00300000000004 2.992Q408.74800000000005 3.7740000000000005 408.34000000000003 4.488Q407.932 5.202 407.32000000000005 5.814Q406.708 6.426 405.96000000000004 6.8340000000000005Q405.21200000000005 7.242000000000001 404.43000000000006 7.412000000000001Q403.648 7.582000000000001 402.86600000000004 7.582000000000001ZM404.05600000000004 -2.0060000000000002Q404.80400000000003 -2.0060000000000002 405.535 -2.3120000000000003Q406.266 -2.6180000000000003 406.81000000000006 -3.1960000000000006Q407.35400000000004 -3.7740000000000005 407.62600000000003 -4.505000000000001Q407.898 -5.236000000000001 408.03400000000005 -5.95L408.78200000000004 -10.574000000000002Q408.884 -11.118 408.918 -11.696000000000002Q408.95200000000006 -12.274000000000001 408.918 -12.818000000000001Q408.884 -13.362 408.731 -13.889Q408.57800000000003 -14.416 408.255 -14.824000000000002Q407.932 -15.232000000000001 407.422 -15.453000000000001Q406.91200000000003 -15.674000000000001 406.33400000000006 -15.674000000000001Q405.824 -15.674000000000001 405.314 -15.538Q404.80400000000003 -15.402000000000001 404.345 -15.079Q403.886 -14.756 403.529 -14.331Q403.172 -13.906 402.934 -13.413Q402.696 -12.920000000000002 402.56000000000006 -12.427000000000001Q402.42400000000004 -11.934000000000001 402.32200000000006 -11.424000000000001L401.574 -6.8340000000000005Q401.47200000000004 -6.256 401.43800000000005 -5.712Q401.40400000000005 -5.168 401.45500000000004 -4.641Q401.50600000000003 -4.114 401.69300000000004 -3.621Q401.88000000000005 -3.128 402.20300000000003 -2.7540000000000004Q402.526 -2.3800000000000003 403.019 -2.1930000000000005Q403.51200000000006 -2.0060000000000002 404.05600000000004 -2.0060000000000002Z M419.152 0.272Q418.2 0.272 417.299 0.068Q416.398 -0.136 415.684 -0.629Q414.97 -1.122 414.494 -1.87Q414.01800000000003 -2.6180000000000003 413.814 -3.5020000000000002Q413.61 -4.386 413.627 -5.321Q413.644 -6.256 413.814 -7.208L414.562 -11.798Q414.698 -12.546000000000001 414.919 -13.328000000000001Q415.14 -14.110000000000001 415.565 -14.824000000000002Q415.99 -15.538 416.58500000000004 -16.167Q417.18 -16.796000000000003 417.911 -17.204Q418.642 -17.612000000000002 419.44100000000003 -17.782000000000004Q420.24 -17.952 421.022 -17.952Q421.80400000000003 -17.952 422.586 -17.833000000000002Q423.368 -17.714000000000002 424.048 -17.374000000000002Q424.728 -17.034000000000002 425.221 -16.490000000000002Q425.714 -15.946000000000002 426.00300000000004 -15.249000000000002Q426.29200000000003 -14.552000000000001 426.326 -13.753Q426.36 -12.954 426.224 -12.172Q426.088 -11.322000000000001 425.68 -10.489Q425.272 -9.656 424.558 -9.078Q423.844 -8.5 422.977 -8.194Q422.11 -7.888000000000001 421.26 -7.684000000000001Q420.41 -7.48 419.543 -7.378Q418.676 -7.276000000000001 417.826 -7.276000000000001Q417.452 -7.276000000000001 417.095 -7.293000000000001Q416.738 -7.3100000000000005 416.398 -7.344L416.33 -6.8340000000000005Q416.228 -6.222 416.194 -5.644Q416.16 -5.066000000000001 416.26200000000006 -4.522Q416.36400000000003 -3.978 416.60200000000003 -3.4850000000000003Q416.84000000000003 -2.992 417.265 -2.652Q417.69 -2.3120000000000003 418.217 -2.1590000000000003Q418.744 -2.0060000000000002 419.322 -2.0060000000000002Q420.002 -2.0060000000000002 420.699 -2.244Q421.396 -2.482 421.957 -2.9750000000000005Q422.51800000000003 -3.4680000000000004 422.89200000000005 -4.08Q423.266 -4.692 423.504 -5.338L425.68 -4.42Q425.272 -3.434 424.64300000000003 -2.5330000000000004Q424.014 -1.6320000000000001 423.13 -0.9690000000000001Q422.246 -0.30600000000000005 421.209 -0.017000000000000015Q420.172 0.272 419.152 0.272ZM417.52 -9.690000000000001Q417.962 -9.690000000000001 418.421 -9.724Q418.88 -9.758000000000001 419.339 -9.809000000000001Q419.798 -9.860000000000001 420.257 -9.945Q420.716 -10.030000000000001 421.158 -10.149000000000001Q421.6 -10.268 422.04200000000003 -10.472000000000001Q422.484 -10.676 422.858 -10.982Q423.232 -11.288 423.453 -11.73Q423.674 -12.172 423.742 -12.614Q423.844 -13.226 423.725 -13.838000000000001Q423.606 -14.450000000000001 423.21500000000003 -14.875Q422.824 -15.3 422.22900000000004 -15.487000000000002Q421.634 -15.674000000000001 421.022 -15.674000000000001Q420.512 -15.674000000000001 420.002 -15.521Q419.492 -15.368 419.05 -15.062000000000001Q418.608 -14.756 418.251 -14.314Q417.894 -13.872000000000002 417.673 -13.396Q417.452 -12.920000000000002 417.31600000000003 -12.41Q417.18 -11.9 417.07800000000003 -11.424000000000001L416.806 -9.724Q416.976 -9.724 417.163 -9.707Q417.35 -9.690000000000001 417.52 -9.690000000000001Z M442.17 0.0 444.754 -15.572000000000001H443.76800000000003L443.734 -17.68H447.474L447.236 -16.354000000000003Q447.44 -16.694000000000003 447.695 -16.983000000000004Q447.95 -17.272000000000002 448.256 -17.493000000000002Q448.562 -17.714000000000002 448.93600000000004 -17.833000000000002Q449.31 -17.952 449.65000000000003 -17.952Q450.12600000000003 -17.952 450.51700000000005 -17.748Q450.908 -17.544 451.129 -17.17Q451.35 -16.796000000000003 451.452 -16.371000000000002Q451.55400000000003 -15.946000000000002 451.622 -15.47Q451.79200000000003 -15.946000000000002 452.047 -16.388Q452.302 -16.830000000000002 452.659 -17.187Q453.016 -17.544 453.492 -17.748Q453.968 -17.952 454.444 -17.952Q454.988 -17.952 455.396 -17.663000000000004Q455.80400000000003 -17.374000000000002 456.025 -16.932000000000002Q456.246 -16.490000000000002 456.331 -15.98Q456.416 -15.47 456.433 -14.943000000000001Q456.45 -14.416 456.399 -13.889Q456.348 -13.362 456.246 -12.818000000000001L454.478 -2.108H455.464L455.498 0.0H451.758L453.934 -13.226Q454.002 -13.600000000000001 454.036 -14.008000000000001Q454.07 -14.416 454.019 -14.790000000000001Q453.968 -15.164000000000001 453.764 -15.504000000000001Q453.56 -15.844000000000001 453.152 -15.844000000000001Q452.778 -15.844000000000001 452.472 -15.521Q452.166 -15.198 451.97900000000004 -14.824000000000002Q451.79200000000003 -14.450000000000001 451.69000000000005 -14.076Q451.588 -13.702000000000002 451.52 -13.294L449.344 0.0H446.964L449.14 -13.226Q449.208 -13.600000000000001 449.242 -14.008000000000001Q449.276 -14.416 449.225 -14.790000000000001Q449.17400000000004 -15.164000000000001 448.97 -15.504000000000001Q448.766 -15.844000000000001 448.392 -15.844000000000001Q447.984 -15.844000000000001 447.678 -15.521Q447.372 -15.198 447.185 -14.824000000000002Q446.998 -14.450000000000001 446.89599999999996 -14.076Q446.794 -13.702000000000002 446.726 -13.294L444.55 0.0Z M461.89000000000004 7.582000000000001Q461.14200000000005 7.582000000000001 460.44500000000005 7.497000000000001Q459.74800000000005 7.412000000000001 459.08500000000004 7.157Q458.422 6.902 457.89500000000004 6.477Q457.36800000000005 6.0520000000000005 457.0450000000001 5.457000000000001Q456.72200000000004 4.862 456.62 4.148Q456.51800000000003 3.434 456.62000000000006 2.72H459.17Q459.10200000000003 3.298 459.28900000000004 3.842Q459.47600000000006 4.386 459.90100000000007 4.709Q460.326 5.032 460.904 5.168Q461.482 5.304 462.06000000000006 5.304Q462.57000000000005 5.304 463.06300000000005 5.151Q463.55600000000004 4.998 464.01500000000004 4.675000000000001Q464.47400000000005 4.352 464.797 3.91Q465.12000000000006 3.4680000000000004 465.32400000000007 2.992Q465.528 2.516 465.664 2.023Q465.8 1.53 465.90200000000004 1.054L466.514 -2.652Q466.208 -2.04 465.749 -1.479Q465.29 -0.918 464.72900000000004 -0.51Q464.16800000000006 -0.10200000000000001 463.50500000000005 0.085Q462.84200000000004 0.272 462.196 0.272Q461.34600000000006 0.272 460.581 -0.017000000000000015Q459.81600000000003 -0.30600000000000005 459.30600000000004 -0.901Q458.79600000000005 -1.496 458.524 -2.261Q458.252 -3.0260000000000002 458.16700000000003 -3.8420000000000005Q458.08200000000005 -4.658 458.15000000000003 -5.508000000000001Q458.218 -6.3580000000000005 458.35400000000004 -7.208L459.71400000000006 -15.402000000000001H458.422V-17.68H462.672L460.87000000000006 -6.8340000000000005Q460.76800000000003 -6.29 460.71700000000004 -5.746Q460.66600000000005 -5.202 460.73400000000004 -4.675000000000001Q460.802 -4.148000000000001 460.95500000000004 -3.6550000000000002Q461.10800000000006 -3.1620000000000004 461.41400000000004 -2.7880000000000003Q461.72 -2.414 462.196 -2.21Q462.672 -2.0060000000000002 463.216 -2.0060000000000002Q463.93000000000006 -2.0060000000000002 464.67800000000005 -2.329Q465.42600000000004 -2.652 465.91900000000004 -3.2300000000000004Q466.41200000000003 -3.8080000000000003 466.66700000000003 -4.522Q466.922 -5.236000000000001 467.05800000000005 -5.95L468.99600000000004 -17.68H471.58000000000004L468.41800000000006 1.4280000000000002Q468.28200000000004 2.21 468.02700000000004 2.992Q467.77200000000005 3.7740000000000005 467.36400000000003 4.488Q466.956 5.202 466.34400000000005 5.814Q465.732 6.426 464.98400000000004 6.8340000000000005Q464.23600000000005 7.242000000000001 463.45400000000006 7.412000000000001Q462.672 7.582000000000001 461.89000000000004 7.582000000000001Z M490.96000000000004 0.0 489.46400000000006 -15.402000000000001H488.002L487.968 -17.68H491.91200000000003L492.76200000000006 -5.882000000000001Q492.83000000000004 -5.2700000000000005 492.88100000000003 -4.641Q492.932 -4.0120000000000005 492.966 -3.4000000000000004Q493.20400000000006 -4.0120000000000005 493.45900000000006 -4.641Q493.71400000000006 -5.2700000000000005 493.98600000000005 -5.882000000000001L498.78000000000003 -17.68H501.466L493.884 0.0Z M507.484 0.272Q506.532 0.272 505.648 0.068Q504.764 -0.136 504.084 -0.6460000000000001Q503.404 -1.1560000000000001 502.962 -1.9210000000000003Q502.52 -2.6860000000000004 502.31600000000003 -3.553Q502.112 -4.42 502.146 -5.338Q502.18 -6.256 502.35 -7.208L503.098 -11.798Q503.234 -12.58 503.48900000000003 -13.362000000000002Q503.744 -14.144000000000002 504.18600000000004 -14.875000000000002Q504.628 -15.606000000000002 505.24 -16.218000000000004Q505.85200000000003 -16.830000000000002 506.617 -17.238Q507.382 -17.646 508.18100000000004 -17.799Q508.98 -17.952 509.762 -17.952Q510.714 -17.952 511.59799999999996 -17.748Q512.482 -17.544 513.162 -17.034Q513.842 -16.524 514.3009999999999 -15.759Q514.76 -14.994000000000002 514.947 -14.127000000000002Q515.134 -13.260000000000002 515.1 -12.342000000000002Q515.066 -11.424000000000001 514.9300000000001 -10.472000000000001L514.148 -5.882000000000001Q514.046 -5.1000000000000005 513.791 -4.3180000000000005Q513.5360000000001 -3.5360000000000005 513.094 -2.8050000000000006Q512.652 -2.0740000000000003 512.04 -1.4620000000000002Q511.428 -0.8500000000000001 510.663 -0.44200000000000006Q509.898 -0.034 509.082 0.11900000000000001Q508.266 0.272 507.484 0.272ZM507.484 -2.0060000000000002Q508.266 -2.0060000000000002 509.048 -2.346Q509.83 -2.6860000000000004 510.39099999999996 -3.3150000000000004Q510.952 -3.9440000000000004 511.241 -4.726Q511.53000000000003 -5.508 511.632 -6.256L512.414 -10.846Q512.482 -11.424000000000001 512.533 -11.968Q512.5840000000001 -12.512 512.5160000000001 -13.056000000000001Q512.448 -13.600000000000001 512.261 -14.093Q512.074 -14.586 511.7 -14.943000000000001Q511.326 -15.3 510.833 -15.487000000000002Q510.34000000000003 -15.674000000000001 509.762 -15.674000000000001Q508.98 -15.674000000000001 508.21500000000003 -15.334000000000001Q507.45 -14.994000000000002 506.889 -14.365000000000002Q506.32800000000003 -13.736 506.039 -12.954Q505.75 -12.172 505.61400000000003 -11.424000000000001L504.866 -6.8340000000000005Q504.764 -6.256 504.73 -5.712Q504.696 -5.168 504.764 -4.6240000000000006Q504.832 -4.08 505.019 -3.587Q505.206 -3.0940000000000003 505.563 -2.737Q505.92 -2.3800000000000003 506.413 -2.1930000000000005Q506.906 -2.0060000000000002 507.484 -2.0060000000000002Z M517.956 0.0 518.296 -15.402000000000001H517.038V-17.68H520.812L519.928 -4.08L522.9200000000001 -12.716000000000001H525.164L525.3000000000001 -4.08L528.904 -17.68H531.3860000000001L525.912 0.0H523.634L523.498 -9.554L520.234 0.0Z M537.064 0.272Q536.452 0.272 535.874 0.051000000000000004Q535.296 -0.17 534.922 -0.646Q534.548 -1.122 534.446 -1.7510000000000003Q534.344 -2.3800000000000003 534.446 -3.0260000000000002Q534.548 -3.4680000000000004 534.7860000000001 -3.8760000000000003Q535.024 -4.284000000000001 535.3810000000001 -4.556000000000001Q535.738 -4.828 536.1800000000001 -4.93Q536.622 -5.032 537.064 -5.032Q537.676 -5.032 538.271 -4.811Q538.866 -4.590000000000001 539.223 -4.114000000000001Q539.58 -3.6380000000000003 539.682 -3.0090000000000003Q539.784 -2.3800000000000003 539.682 -1.7340000000000002Q539.614 -1.292 539.376 -0.884Q539.138 -0.47600000000000003 538.764 -0.20400000000000001Q538.39 0.068 537.948 0.17Q537.506 0.272 537.064 0.272Z"/>
  </g>
</svg>
