<svg xmlns="http://www.w3.org/2000/svg" width="589" height="73" viewBox="0 0 589 73" role="img" aria-labelledby="title desc">
  <title id="title">Iosevka Term Slab Compact Regular Sonic preview</title>
  <desc id="desc">Sphinx of black quartz, judge my vow.</desc>
  <style>
    .preview-text { fill: #24292f; }
    @media (prefers-color-scheme: dark) {
      .preview-text { fill: #f0f6fc; }
    }
  </style>
  <g class="preview-text" transform="translate(23.86 45.26)">
    <path d="M8.874 0.272Q8.16 0.272 7.429 0.15300000000000002Q6.698 0.034 6.069000000000001 -0.255Q5.44 -0.544 4.947000000000001 -0.9690000000000001Q4.454000000000001 -1.3940000000000001 4.08 -1.9040000000000001V0.0H0.136V-6.426H4.08Q4.08 -5.814 4.199 -5.1850000000000005Q4.3180000000000005 -4.556 4.726000000000001 -4.029Q5.134 -3.5020000000000002 5.814 -3.1790000000000003Q6.494000000000001 -2.8560000000000003 7.242000000000001 -2.8560000000000003Q7.99 -2.8560000000000003 8.653 -3.128Q9.316 -3.4000000000000004 9.724 -3.8930000000000002Q10.132000000000001 -4.386 10.302000000000001 -4.964Q10.472000000000001 -5.542000000000001 10.472000000000001 -6.12Q10.472000000000001 -6.936000000000001 10.132000000000001 -7.718Q9.792000000000002 -8.5 9.197000000000001 -9.129000000000001Q8.602 -9.758000000000001 7.7860000000000005 -10.217Q6.970000000000001 -10.676 6.1370000000000005 -11.118Q5.304 -11.56 4.505000000000001 -12.053Q3.7060000000000004 -12.546000000000001 3.0090000000000003 -13.124000000000002Q2.3120000000000003 -13.702000000000002 1.7680000000000002 -14.382000000000001Q1.2240000000000002 -15.062000000000001 0.8500000000000001 -15.81Q0.47600000000000003 -16.558 0.30600000000000005 -17.357Q0.136 -18.156000000000002 0.136 -18.972Q0.136 -19.720000000000002 0.28900000000000003 -20.451Q0.44200000000000006 -21.182000000000002 0.7140000000000001 -21.879Q0.9860000000000001 -22.576 1.4620000000000002 -23.222Q1.9380000000000002 -23.868000000000002 2.652 -24.344Q3.366 -24.82 4.25 -25.041Q5.134 -25.262 6.0520000000000005 -25.262Q6.766000000000001 -25.262 7.4460000000000015 -25.143Q8.126000000000001 -25.024 8.738000000000001 -24.735Q9.350000000000001 -24.446 9.843 -24.038000000000004Q10.336 -23.630000000000003 10.676 -23.12V-24.990000000000002H14.620000000000001V-18.564H10.676Q10.676 -18.972 10.642 -19.363Q10.608 -19.754 10.455000000000002 -20.162Q10.302000000000001 -20.57 10.081000000000001 -20.927Q9.860000000000001 -21.284000000000002 9.503 -21.573Q9.146 -21.862000000000002 8.653 -21.998Q8.16 -22.134 7.684 -22.134Q6.970000000000001 -22.134 6.324000000000001 -21.845Q5.678000000000001 -21.556 5.321000000000001 -21.080000000000002Q4.964 -20.604000000000003 4.7940000000000005 -20.026000000000003Q4.6240000000000006 -19.448 4.6240000000000006 -18.87Q4.6240000000000006 -18.088 4.964 -17.306Q5.304 -16.524 5.899000000000001 -15.878Q6.494000000000001 -15.232000000000001 7.3100000000000005 -14.773000000000001Q8.126000000000001 -14.314000000000002 8.959000000000001 -13.872000000000002Q9.792000000000002 -13.430000000000001 10.591000000000001 -12.954Q11.39 -12.478000000000002 12.087 -11.883000000000001Q12.784 -11.288 13.328000000000001 -10.608Q13.872000000000002 -9.928 14.246000000000002 -9.18Q14.620000000000001 -8.432 14.790000000000001 -7.633000000000001Q14.96 -6.8340000000000005 14.96 -6.018000000000001Q14.96 -5.2700000000000005 14.807000000000002 -4.522Q14.654000000000002 -3.7740000000000005 14.365000000000002 -3.0770000000000004Q14.076 -2.3800000000000003 13.566 -1.7340000000000002Q13.056000000000001 -1.088 12.325000000000001 -0.6120000000000001Q11.594000000000001 -0.136 10.693000000000001 0.068Q9.792000000000002 0.272 8.874 0.272Z M21.726 7.3100000000000005H13.566V4.182H14.892V-14.552000000000001H13.566V-17.68H19.380000000000003V-14.722000000000001Q19.652 -15.368 20.077 -15.98Q20.502000000000002 -16.592000000000002 21.131 -17.051000000000002Q21.76 -17.51 22.576 -17.731Q23.392000000000003 -17.952 24.242 -17.952Q25.194000000000003 -17.952 26.095000000000002 -17.663000000000004Q26.996000000000002 -17.374000000000002 27.642000000000003 -16.830000000000002Q28.288000000000004 -16.286 28.679000000000002 -15.589000000000002Q29.07 -14.892000000000001 29.308 -14.161000000000001Q29.546 -13.430000000000001 29.631 -12.665000000000001Q29.716 -11.9 29.716 -11.152000000000001V-6.5280000000000005Q29.716 -5.78 29.631 -5.015000000000001Q29.546 -4.25 29.308 -3.519Q29.07 -2.7880000000000003 28.679000000000002 -2.091Q28.288000000000004 -1.3940000000000001 27.642000000000003 -0.8500000000000001Q26.996000000000002 -0.30600000000000005 26.095000000000002 -0.017000000000000015Q25.194000000000003 0.272 24.242 0.272Q23.392000000000003 0.272 22.576 0.051000000000000004Q21.76 -0.17 21.131 -0.629Q20.502000000000002 -1.088 20.077 -1.7000000000000002Q19.652 -2.3120000000000003 19.380000000000003 -2.958V4.182H21.726ZM22.304000000000002 -2.8560000000000003Q22.814 -2.8560000000000003 23.29 -3.0260000000000002Q23.766 -3.196 24.106 -3.4850000000000003Q24.446 -3.7740000000000005 24.667 -4.148000000000001Q24.888 -4.522 25.024 -4.913Q25.16 -5.304 25.194000000000003 -5.712Q25.228 -6.12 25.228 -6.5280000000000005V-11.152000000000001Q25.228 -11.56 25.194000000000003 -11.968Q25.16 -12.376000000000001 25.024 -12.767000000000001Q24.888 -13.158000000000001 24.667 -13.532Q24.446 -13.906 24.106 -14.195Q23.766 -14.484000000000002 23.29 -14.654000000000002Q22.814 -14.824000000000002 22.304000000000002 -14.824000000000002Q21.794 -14.824000000000002 21.317999999999998 -14.654000000000002Q20.842 -14.484000000000002 20.502 -14.195Q20.162 -13.906 19.941 -13.532Q19.72 -13.158000000000001 19.584 -12.767000000000001Q19.448 -12.376000000000001 19.414 -11.968Q19.380000000000003 -11.56 19.380000000000003 -11.152000000000001V-6.5280000000000005Q19.380000000000003 -6.12 19.414 -5.712Q19.448 -5.304 19.584 -4.913Q19.72 -4.522 19.941 -4.148000000000001Q20.162 -3.7740000000000005 20.502 -3.4850000000000003Q20.842 -3.196 21.317999999999998 -3.0260000000000002Q21.794 -2.8560000000000003 22.304000000000002 -2.8560000000000003Z M29.682000000000002 0.0V-2.278H31.144000000000002V-22.712000000000003H29.682000000000002V-24.990000000000002H33.694V-14.620000000000001Q33.932 -15.3 34.306 -15.929Q34.68 -16.558 35.224000000000004 -17.034Q35.768 -17.51 36.482 -17.731Q37.196 -17.952 37.910000000000004 -17.952Q38.692 -17.952 39.44 -17.697000000000003Q40.188 -17.442 40.766000000000005 -16.898000000000003Q41.344 -16.354000000000003 41.701 -15.657000000000002Q42.058 -14.96 42.278999999999996 -14.212Q42.5 -13.464 42.568 -12.682Q42.636 -11.9 42.636 -11.152000000000001V-2.278H44.098V0.0H38.658V-2.278H40.086V-11.152000000000001Q40.086 -11.662 40.035 -12.172Q39.984 -12.682 39.848 -13.192Q39.712 -13.702000000000002 39.457 -14.161000000000001Q39.202 -14.620000000000001 38.811 -14.977Q38.42 -15.334000000000001 37.91 -15.504000000000001Q37.4 -15.674000000000001 36.89 -15.674000000000001Q36.38 -15.674000000000001 35.870000000000005 -15.504000000000001Q35.36 -15.334000000000001 34.969 -14.977Q34.578 -14.620000000000001 34.323 -14.161000000000001Q34.068 -13.702000000000002 33.932 -13.192Q33.796 -12.682 33.745000000000005 -12.172Q33.694 -11.662 33.694 -11.152000000000001V-2.278H35.122V0.0Z M46.036 0.0V-2.278H50.592V-15.402000000000001H46.478V-17.68H53.142V-2.278H57.256V0.0ZM51.816 -20.672Q51.374 -20.672 50.966 -20.791Q50.558 -20.91 50.252 -21.216Q49.946000000000005 -21.522000000000002 49.827000000000005 -21.93Q49.708000000000006 -22.338 49.708000000000006 -22.78Q49.708000000000006 -23.222 49.827000000000005 -23.630000000000003Q49.946000000000005 -24.038 50.252 -24.344Q50.558 -24.650000000000002 50.966 -24.786Q51.374 -24.922 51.816 -24.922Q52.258 -24.922 52.666000000000004 -24.786Q53.074000000000005 -24.650000000000002 53.38000000000001 -24.344Q53.68600000000001 -24.038 53.822 -23.630000000000003Q53.958000000000006 -23.222 53.958000000000006 -22.78Q53.958000000000006 -22.338 53.822 -21.93Q53.68600000000001 -21.522000000000002 53.38000000000001 -21.216Q53.074000000000005 -20.91 52.666000000000004 -20.791Q52.258 -20.672 51.816 -20.672Z M59.194 0.0V-2.278H60.656V-15.402000000000001H59.194V-17.68H63.206V-14.620000000000001Q63.444 -15.3 63.818000000000005 -15.929Q64.19200000000001 -16.558 64.736 -17.034Q65.28 -17.51 65.994 -17.731Q66.708 -17.952 67.422 -17.952Q68.20400000000001 -17.952 68.952 -17.697000000000003Q69.7 -17.442 70.27799999999999 -16.898000000000003Q70.856 -16.354000000000003 71.213 -15.657000000000002Q71.57000000000001 -14.96 71.791 -14.212Q72.012 -13.464 72.08 -12.682Q72.148 -11.9 72.148 -11.152000000000001V-2.278H73.61V0.0H68.17V-2.278H69.598V-11.152000000000001Q69.598 -11.662 69.547 -12.172Q69.49600000000001 -12.682 69.36000000000001 -13.192Q69.224 -13.702000000000002 68.969 -14.161000000000001Q68.714 -14.620000000000001 68.32300000000001 -14.977Q67.932 -15.334000000000001 67.422 -15.504000000000001Q66.912 -15.674000000000001 66.402 -15.674000000000001Q65.892 -15.674000000000001 65.382 -15.504000000000001Q64.872 -15.334000000000001 64.481 -14.977Q64.09 -14.620000000000001 63.835 -14.161000000000001Q63.58 -13.702000000000002 63.444 -13.192Q63.308 -12.682 63.257000000000005 -12.172Q63.206 -11.662 63.206 -11.152000000000001V-2.278H64.634V0.0Z M73.95 0.0V-2.278H76.296L79.866 -8.84L76.296 -15.402000000000001H73.95V-17.68H79.39V-15.402000000000001H79.118L81.158 -11.39L83.19800000000001 -15.402000000000001H82.926V-17.68H88.366V-15.402000000000001H86.02L82.45 -8.84L86.02 -2.278H88.366V0.0H82.926V-2.278H83.19800000000001L81.158 -6.29L79.118 -2.278H79.39V0.0Z M110.67 0.272Q109.58200000000001 0.272 108.545 0.085Q107.508 -0.10200000000000001 106.57300000000001 -0.544Q105.638 -0.9860000000000001 104.941 -1.6660000000000001Q104.244 -2.346 103.836 -3.1450000000000005Q103.428 -3.9440000000000004 103.25800000000001 -4.811000000000001Q103.08800000000001 -5.678000000000001 103.08800000000001 -6.5280000000000005V-11.152000000000001Q103.08800000000001 -12.002 103.25800000000001 -12.869Q103.428 -13.736 103.836 -14.535Q104.244 -15.334000000000001 104.941 -16.014000000000003Q105.638 -16.694000000000003 106.57300000000001 -17.136000000000003Q107.508 -17.578000000000003 108.545 -17.765Q109.58200000000001 -17.952 110.67 -17.952Q111.75800000000001 -17.952 112.79500000000002 -17.765Q113.83200000000001 -17.578000000000003 114.767 -17.136000000000003Q115.702 -16.694000000000003 116.399 -16.014000000000003Q117.096 -15.334000000000001 117.504 -14.535Q117.912 -13.736 118.08200000000001 -12.869Q118.25200000000001 -12.002 118.25200000000001 -11.152000000000001V-6.5280000000000005Q118.25200000000001 -5.678000000000001 118.08200000000001 -4.811000000000001Q117.912 -3.9440000000000004 117.504 -3.1450000000000005Q117.096 -2.346 116.399 -1.6660000000000001Q115.702 -0.9860000000000001 114.767 -0.544Q113.83200000000001 -0.10200000000000001 112.79500000000002 0.085Q111.75800000000001 0.272 110.67 0.272ZM110.67 -2.8560000000000003Q111.18 -2.8560000000000003 111.673 -3.0090000000000003Q112.166 -3.1620000000000004 112.53999999999999 -3.4510000000000005Q112.914 -3.74 113.152 -4.114000000000001Q113.39 -4.488 113.509 -4.896000000000001Q113.628 -5.304 113.696 -5.712Q113.76400000000001 -6.12 113.76400000000001 -6.5280000000000005V-11.152000000000001Q113.76400000000001 -11.56 113.696 -11.968Q113.628 -12.376000000000001 113.509 -12.784Q113.39 -13.192 113.152 -13.566Q112.914 -13.940000000000001 112.53999999999999 -14.229000000000001Q112.166 -14.518 111.673 -14.671000000000001Q111.18 -14.824000000000002 110.67 -14.824000000000002Q110.16 -14.824000000000002 109.667 -14.671000000000001Q109.174 -14.518 108.80000000000001 -14.229000000000001Q108.426 -13.940000000000001 108.188 -13.566Q107.95 -13.192 107.831 -12.784Q107.712 -12.376000000000001 107.644 -11.968Q107.57600000000001 -11.56 107.57600000000001 -11.152000000000001V-6.5280000000000005Q107.57600000000001 -6.12 107.644 -5.712Q107.712 -5.304 107.831 -4.896000000000001Q107.95 -4.488 108.188 -4.114000000000001Q108.426 -3.74 108.80000000000001 -3.4510000000000005Q109.174 -3.1620000000000004 109.667 -3.0090000000000003Q110.16 -2.8560000000000003 110.67 -2.8560000000000003Z M119.918 0.0V-2.278H123.08V-13.736H119.68V-16.048000000000002H123.08V-19.89Q123.08 -20.536 123.148 -21.182000000000002Q123.21600000000001 -21.828000000000003 123.43700000000001 -22.457Q123.658 -23.086000000000002 124.03200000000001 -23.630000000000003Q124.406 -24.174000000000003 124.933 -24.548000000000002Q125.46000000000001 -24.922 126.10600000000001 -25.092Q126.75200000000001 -25.262 127.398 -25.262Q128.316 -25.262 129.183 -24.939Q130.05 -24.616000000000003 130.645 -23.919000000000004Q131.24 -23.222 131.495 -22.321Q131.75 -21.42 131.75 -20.536V-20.400000000000002H129.2V-20.468Q129.2 -20.91 129.115 -21.335Q129.03 -21.76 128.82600000000002 -22.134Q128.622 -22.508000000000003 128.231 -22.746000000000002Q127.84 -22.984 127.398 -22.984Q126.922 -22.984 126.514 -22.644000000000002Q126.106 -22.304000000000002 125.919 -21.845000000000002Q125.732 -21.386000000000003 125.664 -20.893Q125.596 -20.400000000000002 125.596 -19.89V-16.048000000000002H130.594V-13.736H125.596V-2.278H129.744V0.0Z M157.046 0.272Q156.196 0.272 155.38 0.051000000000000004Q154.564 -0.17 153.935 -0.629Q153.306 -1.088 152.88100000000003 -1.7000000000000002Q152.45600000000002 -2.3120000000000003 152.184 -2.958V0.0H146.37V-3.128H147.696V-21.862000000000002H146.37V-24.990000000000002H152.184V-14.722000000000001Q152.45600000000002 -15.368 152.88100000000003 -15.98Q153.306 -16.592000000000002 153.935 -17.051000000000002Q154.564 -17.51 155.38 -17.731Q156.196 -17.952 157.046 -17.952Q157.998 -17.952 158.899 -17.663000000000004Q159.8 -17.374000000000002 160.44600000000003 -16.830000000000002Q161.092 -16.286 161.483 -15.589000000000002Q161.874 -14.892000000000001 162.112 -14.161000000000001Q162.35 -13.430000000000001 162.435 -12.665000000000001Q162.52 -11.9 162.52 -11.152000000000001V-6.5280000000000005Q162.52 -5.78 162.435 -5.015000000000001Q162.35 -4.25 162.112 -3.519Q161.874 -2.7880000000000003 161.483 -2.091Q161.092 -1.3940000000000001 160.44600000000003 -0.8500000000000001Q159.8 -0.30600000000000005 158.899 -0.017000000000000015Q157.998 0.272 157.046 0.272ZM155.108 -2.8560000000000003Q155.618 -2.8560000000000003 156.094 -3.0260000000000002Q156.57 -3.196 156.91 -3.4850000000000003Q157.25 -3.7740000000000005 157.471 -4.148000000000001Q157.692 -4.522 157.828 -4.913Q157.964 -5.304 157.998 -5.712Q158.032 -6.12 158.032 -6.5280000000000005V-11.152000000000001Q158.032 -11.56 157.998 -11.968Q157.964 -12.376000000000001 157.828 -12.767000000000001Q157.692 -13.158000000000001 157.471 -13.532Q157.25 -13.906 156.91 -14.195Q156.57 -14.484000000000002 156.094 -14.654000000000002Q155.618 -14.824000000000002 155.108 -14.824000000000002Q154.598 -14.824000000000002 154.122 -14.654000000000002Q153.64600000000002 -14.484000000000002 153.306 -14.195Q152.966 -13.906 152.745 -13.532Q152.524 -13.158000000000001 152.388 -12.767000000000001Q152.252 -12.376000000000001 152.21800000000002 -11.968Q152.184 -11.56 152.184 -11.152000000000001V-6.5280000000000005Q152.184 -6.12 152.21800000000002 -5.712Q152.252 -5.304 152.388 -4.913Q152.524 -4.522 152.745 -4.148000000000001Q152.966 -3.7740000000000005 153.306 -3.4850000000000003Q153.64600000000002 -3.196 154.122 -3.0260000000000002Q154.598 -2.8560000000000003 155.108 -2.8560000000000003Z M162.792 0.0V-3.128H167.722V-21.862000000000002H163.336V-24.990000000000002H172.21V-3.128H176.596V0.0Z M183.26 0.272Q182.274 0.272 181.322 -0.05099999999999999Q180.37 -0.374 179.69 -1.088Q179.01 -1.802 178.721 -2.771Q178.43200000000002 -3.74 178.43200000000002 -4.726Q178.43200000000002 -5.542000000000001 178.61900000000003 -6.3580000000000005Q178.806 -7.174 179.248 -7.871Q179.69 -8.568000000000001 180.37 -9.061Q181.05 -9.554 181.815 -9.843Q182.58 -10.132000000000001 183.39600000000002 -10.234000000000002Q184.212 -10.336 185.028 -10.336H187.64600000000002V-12.24Q187.64600000000002 -12.920000000000002 187.459 -13.583000000000002Q187.272 -14.246 186.82999999999998 -14.739Q186.388 -15.232000000000001 185.74200000000002 -15.453000000000001Q185.096 -15.674000000000001 184.416 -15.674000000000001Q183.804 -15.674000000000001 183.209 -15.521Q182.614 -15.368 182.138 -14.977Q181.662 -14.586 181.424 -14.008000000000001Q181.186 -13.430000000000001 181.186 -12.852V-12.750000000000002H178.636V-12.920000000000002Q178.636 -13.634 178.82299999999998 -14.331Q179.01 -15.028 179.401 -15.64Q179.792 -16.252000000000002 180.353 -16.711000000000002Q180.91400000000002 -17.17 181.577 -17.459000000000003Q182.24 -17.748 182.971 -17.85Q183.702 -17.952 184.416 -17.952Q185.198 -17.952 185.96300000000002 -17.816000000000003Q186.728 -17.68 187.40800000000002 -17.34Q188.088 -17.0 188.649 -16.456Q189.21 -15.912 189.567 -15.232000000000001Q189.924 -14.552000000000001 190.06 -13.787Q190.196 -13.022 190.196 -12.24V-2.278H191.65800000000002V0.0H187.64600000000002V-2.7880000000000003Q187.40800000000002 -2.108 186.983 -1.5130000000000001Q186.558 -0.918 185.98000000000002 -0.51Q185.40200000000002 -0.10200000000000001 184.688 0.085Q183.974 0.272 183.26 0.272ZM184.314 -2.0060000000000002Q185.028 -2.0060000000000002 185.725 -2.295Q186.422 -2.584 186.864 -3.1450000000000005Q187.306 -3.7060000000000004 187.476 -4.437Q187.64600000000002 -5.168 187.64600000000002 -5.882000000000001V-8.058H185.028Q184.552 -8.058 184.059 -8.007Q183.566 -7.956 183.12400000000002 -7.803000000000001Q182.68200000000002 -7.65 182.257 -7.3950000000000005Q181.832 -7.140000000000001 181.526 -6.766Q181.22 -6.392 181.101 -5.916Q180.982 -5.44 180.982 -4.964Q180.982 -4.3180000000000005 181.22 -3.7230000000000003Q181.458 -3.128 181.934 -2.72Q182.41 -2.3120000000000003 183.039 -2.1590000000000003Q183.668 -2.0060000000000002 184.314 -2.0060000000000002Z M199.104 0.272Q198.254 0.272 197.404 0.085Q196.554 -0.10200000000000001 195.84 -0.561Q195.126 -1.02 194.599 -1.717Q194.072 -2.414 193.74900000000002 -3.196Q193.42600000000002 -3.978 193.30700000000002 -4.828Q193.18800000000002 -5.678000000000001 193.18800000000002 -6.5280000000000005V-11.152000000000001Q193.18800000000002 -11.934000000000001 193.27300000000002 -12.733Q193.358 -13.532000000000002 193.613 -14.314000000000002Q193.868 -15.096000000000002 194.293 -15.793000000000003Q194.718 -16.490000000000002 195.32999999999998 -17.0Q195.942 -17.51 196.74099999999999 -17.731Q197.54 -17.952 198.322 -17.952Q199.002 -17.952 199.66500000000002 -17.816000000000003Q200.328 -17.68 200.906 -17.34Q201.484 -17.0 201.943 -16.490000000000002Q202.40200000000002 -15.98 202.708 -15.368V-17.68H204.952V-11.56H202.708Q202.708 -12.308000000000002 202.538 -13.073Q202.368 -13.838000000000001 201.909 -14.450000000000001Q201.45 -15.062000000000001 200.719 -15.368000000000002Q199.988 -15.674000000000001 199.24 -15.674000000000001Q198.696 -15.674000000000001 198.16899999999998 -15.521Q197.642 -15.368 197.21699999999998 -15.028Q196.792 -14.688 196.486 -14.229000000000001Q196.18 -13.770000000000001 196.01 -13.260000000000002Q195.84 -12.750000000000002 195.789 -12.206000000000001Q195.738 -11.662 195.738 -11.152000000000001V-6.5280000000000005Q195.738 -6.018000000000001 195.789 -5.4910000000000005Q195.84 -4.964 196.01 -4.454000000000001Q196.18 -3.9440000000000004 196.452 -3.468Q196.724 -2.992 197.132 -2.669Q197.54 -2.346 198.05 -2.176Q198.56 -2.0060000000000002 199.104 -2.0060000000000002Q199.852 -2.0060000000000002 200.53199999999998 -2.3120000000000003Q201.212 -2.6180000000000003 201.654 -3.213Q202.096 -3.8080000000000003 202.28300000000002 -4.522Q202.47 -5.236000000000001 202.47 -5.984V-6.12H205.02V-5.882000000000001Q205.02 -5.1000000000000005 204.85000000000002 -4.301Q204.68 -3.5020000000000002 204.34 -2.771Q204.0 -2.04 203.45600000000002 -1.428Q202.912 -0.8160000000000001 202.215 -0.42500000000000004Q201.518 -0.034 200.719 0.11900000000000001Q199.92000000000002 0.272 199.104 0.272Z M207.23 0.0V-2.278H208.692V-22.712000000000003H207.23V-24.990000000000002H211.208V-9.146L217.43 -17.68H221.17000000000002V-15.402000000000001H218.722L214.37 -9.622L219.028 -2.278H221.17000000000002V0.0H217.566L212.90800000000002 -7.684L211.208 -5.474V-2.278H212.67000000000002V0.0Z M243.882 7.3100000000000005V4.182H246.228V-2.958Q245.95600000000002 -2.3120000000000003 245.531 -1.7000000000000002Q245.106 -1.088 244.477 -0.629Q243.848 -0.17 243.032 0.051000000000000004Q242.216 0.272 241.4 0.272Q240.41400000000002 0.272 239.513 -0.017000000000000015Q238.612 -0.30600000000000005 237.966 -0.8500000000000001Q237.32 -1.3940000000000001 236.929 -2.091Q236.538 -2.7880000000000003 236.3 -3.519Q236.062 -4.25 235.977 -5.015000000000001Q235.892 -5.78 235.892 -6.5280000000000005V-11.152000000000001Q235.892 -11.9 235.977 -12.665000000000001Q236.062 -13.430000000000001 236.3 -14.161000000000001Q236.538 -14.892000000000001 236.929 -15.589000000000002Q237.32 -16.286 237.966 -16.830000000000002Q238.612 -17.374000000000002 239.513 -17.663000000000004Q240.41400000000002 -17.952 241.4 -17.952Q242.216 -17.952 243.032 -17.731Q243.848 -17.51 244.477 -17.051000000000002Q245.106 -16.592000000000002 245.531 -15.98Q245.95600000000002 -15.368 246.228 -14.722000000000001V-17.68H252.042V-14.552000000000001H250.716V4.182H252.042V7.3100000000000005ZM243.304 -2.8560000000000003Q243.814 -2.8560000000000003 244.29 -3.0260000000000002Q244.766 -3.196 245.106 -3.4850000000000003Q245.446 -3.7740000000000005 245.667 -4.148000000000001Q245.888 -4.522 246.024 -4.913Q246.16 -5.304 246.19400000000002 -5.712Q246.228 -6.12 246.228 -6.5280000000000005V-11.152000000000001Q246.228 -11.56 246.19400000000002 -11.968Q246.16 -12.376000000000001 246.024 -12.767000000000001Q245.888 -13.158000000000001 245.667 -13.532Q245.446 -13.906 245.106 -14.195Q244.766 -14.484000000000002 244.29 -14.654000000000002Q243.814 -14.824000000000002 243.304 -14.824000000000002Q242.794 -14.824000000000002 242.318 -14.654000000000002Q241.842 -14.484000000000002 241.502 -14.195Q241.162 -13.906 240.941 -13.532Q240.72 -13.158000000000001 240.584 -12.767000000000001Q240.448 -12.376000000000001 240.414 -11.968Q240.38 -11.56 240.38 -11.152000000000001V-6.5280000000000005Q240.38 -6.12 240.414 -5.712Q240.448 -5.304 240.584 -4.913Q240.72 -4.522 240.941 -4.148000000000001Q241.162 -3.7740000000000005 241.502 -3.4850000000000003Q241.842 -3.196 242.318 -3.0260000000000002Q242.794 -2.8560000000000003 243.304 -2.8560000000000003Z M256.29200000000003 0.272Q255.34 0.272 254.45600000000002 -0.017000000000000015Q253.572 -0.30600000000000005 252.977 -0.8670000000000001Q252.382 -1.4280000000000002 251.974 -2.125Q251.566 -2.822 251.36200000000002 -3.5530000000000004Q251.15800000000002 -4.284000000000001 251.073 -5.032Q250.988 -5.78 250.988 -6.5280000000000005V-14.552000000000001H249.662V-17.68H255.476V-6.5280000000000005Q255.476 -6.154000000000001 255.51 -5.746Q255.544 -5.338 255.68 -4.947Q255.816 -4.556 256.003 -4.182Q256.19 -3.8080000000000003 256.496 -3.5020000000000002Q256.802 -3.196 257.261 -3.0260000000000002Q257.72 -2.8560000000000003 258.23 -2.8560000000000003Q258.74 -2.8560000000000003 259.199 -3.0260000000000002Q259.658 -3.196 259.964 -3.5020000000000002Q260.27 -3.8080000000000003 260.457 -4.182Q260.644 -4.556 260.78 -4.947Q260.916 -5.338 260.95 -5.746Q260.984 -6.154000000000001 260.984 -6.5280000000000005V-14.552000000000001H259.624V-17.68H265.472V-3.128H266.798V0.0H260.984V-2.89Q260.712 -2.278 260.304 -1.683Q259.896 -1.088 259.30100000000004 -0.629Q258.706 -0.17 257.90700000000004 0.051000000000000004Q257.108 0.272 256.29200000000003 0.272Z M271.796 0.272Q270.81 0.272 269.858 -0.05099999999999999Q268.906 -0.374 268.226 -1.088Q267.546 -1.802 267.257 -2.771Q266.968 -3.74 266.968 -4.726Q266.968 -5.542000000000001 267.155 -6.3580000000000005Q267.342 -7.174 267.784 -7.871Q268.226 -8.568000000000001 268.906 -9.061Q269.586 -9.554 270.351 -9.843Q271.116 -10.132000000000001 271.932 -10.234000000000002Q272.748 -10.336 273.564 -10.336H276.182V-12.24Q276.182 -12.920000000000002 275.995 -13.583000000000002Q275.808 -14.246 275.366 -14.739Q274.924 -15.232000000000001 274.278 -15.453000000000001Q273.632 -15.674000000000001 272.952 -15.674000000000001Q272.34000000000003 -15.674000000000001 271.745 -15.521Q271.15 -15.368 270.674 -14.977Q270.198 -14.586 269.96 -14.008000000000001Q269.722 -13.430000000000001 269.722 -12.852V-12.750000000000002H267.172V-12.920000000000002Q267.172 -13.634 267.35900000000004 -14.331Q267.546 -15.028 267.937 -15.64Q268.32800000000003 -16.252000000000002 268.889 -16.711000000000002Q269.45 -17.17 270.113 -17.459000000000003Q270.776 -17.748 271.507 -17.85Q272.238 -17.952 272.952 -17.952Q273.734 -17.952 274.499 -17.816000000000003Q275.264 -17.68 275.944 -17.34Q276.624 -17.0 277.185 -16.456Q277.746 -15.912 278.10299999999995 -15.232000000000001Q278.46 -14.552000000000001 278.596 -13.787Q278.732 -13.022 278.732 -12.24V-2.278H280.194V0.0H276.182V-2.7880000000000003Q275.944 -2.108 275.519 -1.5130000000000001Q275.094 -0.918 274.51599999999996 -0.51Q273.938 -0.10200000000000001 273.224 0.085Q272.51 0.272 271.796 0.272ZM272.85 -2.0060000000000002Q273.564 -2.0060000000000002 274.261 -2.295Q274.958 -2.584 275.4 -3.1450000000000005Q275.842 -3.7060000000000004 276.012 -4.437Q276.182 -5.168 276.182 -5.882000000000001V-8.058H273.564Q273.088 -8.058 272.595 -8.007Q272.10200000000003 -7.956 271.66 -7.803000000000001Q271.218 -7.65 270.793 -7.3950000000000005Q270.368 -7.140000000000001 270.062 -6.766Q269.75600000000003 -6.392 269.63700000000006 -5.916Q269.51800000000003 -5.44 269.51800000000003 -4.964Q269.51800000000003 -4.3180000000000005 269.75600000000003 -3.7230000000000003Q269.994 -3.128 270.47 -2.72Q270.946 -2.3120000000000003 271.57500000000005 -2.1590000000000003Q272.204 -2.0060000000000002 272.85 -2.0060000000000002Z M281.826 0.0V-2.278H284.444V-15.402000000000001H281.826V-17.68H286.994V-13.804Q287.16400000000004 -14.586 287.4870000000001 -15.317Q287.81000000000006 -16.048000000000002 288.30300000000005 -16.643Q288.79600000000005 -17.238 289.52700000000004 -17.595Q290.25800000000004 -17.952 291.04 -17.952Q291.55 -17.952 292.06000000000006 -17.799Q292.57000000000005 -17.646 292.9440000000001 -17.289Q293.31800000000004 -16.932000000000002 293.57300000000004 -16.473000000000003Q293.82800000000003 -16.014000000000003 293.947 -15.521Q294.06600000000003 -15.028 294.117 -14.501000000000001Q294.168 -13.974 294.168 -13.464H291.61800000000005Q291.61800000000005 -13.838000000000001 291.567 -14.229000000000001Q291.516 -14.620000000000001 291.32900000000006 -14.943000000000001Q291.14200000000005 -15.266000000000002 290.802 -15.470000000000002Q290.46200000000005 -15.674000000000001 290.088 -15.674000000000001Q289.612 -15.674000000000001 289.153 -15.470000000000002Q288.694 -15.266000000000002 288.37100000000004 -14.892000000000001Q288.04800000000006 -14.518 287.82700000000006 -14.093Q287.60600000000005 -13.668000000000001 287.47 -13.209000000000001Q287.33400000000006 -12.750000000000002 287.2320000000001 -12.274000000000001Q287.13000000000005 -11.798 287.07900000000006 -11.305Q287.028 -10.812000000000001 287.011 -10.336000000000002Q286.994 -9.860000000000001 286.994 -9.384V-2.278H290.122V0.0Z M304.47 0.272Q303.75600000000003 0.272 303.059 0.085Q302.362 -0.10200000000000001 301.80100000000004 -0.51Q301.24 -0.918 300.832 -1.5130000000000001Q300.424 -2.108 300.203 -2.771Q299.982 -3.434 299.89700000000005 -4.148Q299.812 -4.862 299.812 -5.542000000000001V-15.402000000000001H296.752V-17.68H299.812V-24.990000000000002H302.362V-17.68H307.938V-15.402000000000001H302.362V-5.542000000000001Q302.362 -5.168 302.379 -4.777Q302.396 -4.386 302.481 -4.0120000000000005Q302.56600000000003 -3.6380000000000003 302.71900000000005 -3.2810000000000006Q302.872 -2.9240000000000004 303.127 -2.6350000000000002Q303.382 -2.346 303.73900000000003 -2.176Q304.096 -2.0060000000000002 304.47 -2.0060000000000002Q304.878 -2.0060000000000002 305.235 -2.2270000000000003Q305.592 -2.4480000000000004 305.83 -2.7880000000000003Q306.068 -3.128 306.204 -3.5020000000000002Q306.34000000000003 -3.8760000000000003 306.425 -4.284000000000001Q306.51 -4.692 306.544 -5.1Q306.57800000000003 -5.508 306.57800000000003 -5.916V-6.12H309.128V-5.814Q309.128 -5.1000000000000005 309.02599999999995 -4.386Q308.924 -3.672 308.703 -2.992Q308.482 -2.3120000000000003 308.091 -1.6830000000000003Q307.7 -1.054 307.139 -0.595Q306.57800000000003 -0.136 305.88100000000003 0.068Q305.184 0.272 304.47 0.272Z M311.50800000000004 0.0V-2.278L320.314 -15.402000000000001H313.752V-12.750000000000002H311.50800000000004V-17.68H323.00000000000006V-15.402000000000001L314.194 -2.278H320.75600000000003V-4.930000000000001H323.00000000000006V0.0Z M330.786 7.3100000000000005 328.848 5.814Q329.936 4.6240000000000006 330.82 3.2300000000000004Q331.704 1.836 332.18 0.272H331.976Q331.466 0.272 330.93899999999996 0.10200000000000001Q330.412 -0.068 330.038 -0.44200000000000006Q329.664 -0.8160000000000001 329.51099999999997 -1.326Q329.358 -1.836 329.358 -2.3800000000000003Q329.358 -2.9240000000000004 329.51099999999997 -3.434Q329.664 -3.9440000000000004 330.055 -4.335Q330.446 -4.726 330.956 -4.879Q331.466 -5.032 332.01 -5.032Q332.55400000000003 -5.032 333.098 -4.862Q333.642 -4.692 334.01599999999996 -4.301Q334.39 -3.91 334.526 -3.366Q334.66200000000003 -2.822 334.66200000000003 -2.278Q334.66200000000003 -0.9520000000000001 334.356 0.34Q334.05 1.6320000000000001 333.523 2.8390000000000004Q332.996 4.046 332.299 5.168Q331.60200000000003 6.29 330.786 7.3100000000000005Z M359.5114677734375 7.582000000000001Q358.2568876953125 7.582000000000001 357.0232172851563 7.208Q355.78954687500004 6.8340000000000005 354.95316015625 6.0520000000000005Q354.1167734375 5.2700000000000005 353.7403994140625 4.267Q353.36402539062505 3.2640000000000002 353.36402539062505 2.21H356.45865625Q356.45865625 2.754 356.62593359375 3.3150000000000004Q356.7932109375 3.8760000000000003 357.1695849609375 4.335000000000001Q357.54595898437503 4.7940000000000005 358.1941586914063 5.049Q358.8423583984375 5.304 359.5114677734375 5.304Q360.0969384765625 5.304 360.61968017578124 5.083Q361.142421875 4.862 361.4978862304688 4.4879999999999995Q361.8533505859375 4.114 362.062447265625 3.672Q362.27154394531254 3.2300000000000004 362.397001953125 2.7880000000000003Q362.5224599609375 2.346 362.56427929687504 1.87Q362.6060986328125 1.3940000000000001 362.6060986328125 0.918V-15.402000000000001H357.25322363281254V-17.68H365.7007294921875V0.918Q365.7007294921875 1.7340000000000002 365.5961811523438 2.516Q365.49163281250003 3.298 365.19889746093753 4.046Q364.90616210937503 4.7940000000000005 364.404330078125 5.474Q363.902498046875 6.154000000000001 363.12884033203125 6.647Q362.3551826171875 7.140000000000001 361.41424755859373 7.361000000000001Q360.4733125 7.582000000000001 359.5114677734375 7.582000000000001ZM363.83079589843754 -20.672Q363.28714453125 -20.672 362.78531250000003 -20.791Q362.28348046875004 -20.91 361.90710644531254 -21.216Q361.53073242187503 -21.522000000000002 361.38436474609375 -21.93Q361.23799707031253 -22.338 361.23799707031253 -22.78Q361.23799707031253 -23.222 361.38436474609375 -23.630000000000003Q361.53073242187503 -24.038 361.90710644531254 -24.344Q362.28348046875004 -24.650000000000002 362.78531250000003 -24.786Q363.28714453125 -24.922 363.83079589843754 -24.922Q364.374447265625 -24.922 364.87627929687505 -24.786Q365.37811132812504 -24.650000000000002 365.7544853515625 -24.344Q366.130859375 -24.038 366.29813671875 -23.630000000000003Q366.46541406250003 -23.222 366.46541406250003 -22.78Q366.46541406250003 -22.338 366.29813671875 -21.93Q366.130859375 -21.522000000000002 365.7544853515625 -21.216Q365.37811132812504 -20.91 364.87627929687505 -20.791Q364.374447265625 -20.672 363.83079589843754 -20.672Z M374.34000000000003 0.272Q373.38800000000003 0.272 372.504 -0.017000000000000015Q371.62000000000006 -0.30600000000000005 371.02500000000003 -0.8670000000000001Q370.43 -1.4280000000000002 370.02200000000005 -2.125Q369.61400000000003 -2.822 369.41 -3.5530000000000004Q369.206 -4.284000000000001 369.12100000000004 -5.032Q369.03600000000006 -5.78 369.03600000000006 -6.5280000000000005V-14.552000000000001H367.71000000000004V-17.68H373.52400000000006V-6.5280000000000005Q373.52400000000006 -6.154000000000001 373.55800000000005 -5.746Q373.59200000000004 -5.338 373.72800000000007 -4.947Q373.86400000000003 -4.556 374.05100000000004 -4.182Q374.23800000000006 -3.8080000000000003 374.54400000000004 -3.5020000000000002Q374.85 -3.196 375.309 -3.0260000000000002Q375.76800000000003 -2.8560000000000003 376.278 -2.8560000000000003Q376.788 -2.8560000000000003 377.247 -3.0260000000000002Q377.706 -3.196 378.01200000000006 -3.5020000000000002Q378.31800000000004 -3.8080000000000003 378.505 -4.182Q378.692 -4.556 378.82800000000003 -4.947Q378.96400000000006 -5.338 378.99800000000005 -5.746Q379.03200000000004 -6.154000000000001 379.03200000000004 -6.5280000000000005V-14.552000000000001H377.672V-17.68H383.52000000000004V-3.128H384.84600000000006V0.0H379.03200000000004V-2.89Q378.76000000000005 -2.278 378.35200000000003 -1.683Q377.944 -1.088 377.34900000000005 -0.629Q376.754 -0.17 375.95500000000004 0.051000000000000004Q375.15600000000006 0.272 374.34000000000003 0.272Z M389.878 0.272Q389.062 0.272 388.314 0.017Q387.56600000000003 -0.23800000000000002 386.971 -0.765Q386.37600000000003 -1.292 386.002 -1.9890000000000003Q385.628 -2.6860000000000004 385.407 -3.434Q385.186 -4.182 385.101 -4.964Q385.016 -5.746 385.016 -6.5280000000000005V-11.152000000000001Q385.016 -11.934000000000001 385.101 -12.716000000000001Q385.186 -13.498000000000001 385.407 -14.246000000000002Q385.628 -14.994000000000002 386.002 -15.691000000000003Q386.37600000000003 -16.388 386.971 -16.915Q387.56600000000003 -17.442 388.314 -17.697000000000003Q389.062 -17.952 389.878 -17.952Q390.62600000000003 -17.952 391.34000000000003 -17.731Q392.05400000000003 -17.51 392.632 -17.034Q393.21 -16.558 393.601 -15.912Q393.992 -15.266000000000002 394.23 -14.552000000000001V-22.712000000000003H392.802V-24.990000000000002H396.78000000000003V-2.278H398.242V0.0H394.23V-3.128Q393.992 -2.414 393.601 -1.7680000000000002Q393.21 -1.122 392.632 -0.646Q392.05400000000003 -0.17 391.34000000000003 0.051000000000000004Q390.62600000000003 0.272 389.878 0.272ZM390.898 -2.0060000000000002Q391.442 -2.0060000000000002 391.952 -2.176Q392.462 -2.346 392.87 -2.686Q393.278 -3.0260000000000002 393.55 -3.4850000000000003Q393.822 -3.9440000000000004 393.975 -4.454000000000001Q394.128 -4.964 394.179 -5.4910000000000005Q394.23 -6.018000000000001 394.23 -6.5280000000000005V-11.152000000000001Q394.23 -11.662 394.179 -12.189Q394.128 -12.716000000000001 393.975 -13.226Q393.822 -13.736 393.55 -14.195Q393.278 -14.654000000000002 392.87 -14.994000000000002Q392.462 -15.334000000000001 391.952 -15.504000000000001Q391.442 -15.674000000000001 390.898 -15.674000000000001Q390.354 -15.674000000000001 389.844 -15.504000000000001Q389.334 -15.334000000000001 388.92600000000004 -14.994000000000002Q388.51800000000003 -14.654000000000002 388.246 -14.195Q387.974 -13.736 387.821 -13.226Q387.668 -12.716000000000001 387.617 -12.189Q387.56600000000003 -11.662 387.56600000000003 -11.152000000000001V-6.5280000000000005Q387.56600000000003 -6.018000000000001 387.617 -5.4910000000000005Q387.668 -4.964 387.821 -4.454000000000001Q387.974 -3.9440000000000004 388.246 -3.4850000000000003Q388.51800000000003 -3.0260000000000002 388.92600000000004 -2.686Q389.334 -2.346 389.844 -2.176Q390.354 -2.0060000000000002 390.898 -2.0060000000000002Z M405.72200000000004 7.582000000000001Q404.668 7.582000000000001 403.61400000000003 7.327000000000001Q402.56000000000006 7.072000000000001 401.744 6.409000000000001Q400.92800000000005 5.746 400.46900000000005 4.760000000000001Q400.01000000000005 3.7740000000000005 399.97600000000006 2.72H402.526Q402.526 3.298 402.798 3.825Q403.07000000000005 4.352 403.52900000000005 4.692Q403.98800000000006 5.032 404.56600000000003 5.168Q405.14400000000006 5.304 405.72200000000004 5.304Q406.232 5.304 406.742 5.134Q407.252 4.964 407.66 4.6240000000000006Q408.06800000000004 4.284000000000001 408.32300000000004 3.8080000000000007Q408.57800000000003 3.3320000000000003 408.731 2.8390000000000004Q408.884 2.346 408.93500000000006 1.819Q408.98600000000005 1.292 408.98600000000005 0.782V-3.128Q408.74800000000005 -2.414 408.357 -1.7680000000000002Q407.966 -1.122 407.38800000000003 -0.646Q406.81000000000006 -0.17 406.09600000000006 0.051000000000000004Q405.38200000000006 0.272 404.634 0.272Q403.81800000000004 0.272 403.07000000000005 0.017Q402.32200000000006 -0.23800000000000002 401.7270000000001 -0.765Q401.13200000000006 -1.292 400.75800000000004 -1.9890000000000003Q400.384 -2.6860000000000004 400.163 -3.434Q399.942 -4.182 399.857 -4.964Q399.77200000000005 -5.746 399.77200000000005 -6.5280000000000005V-11.152000000000001Q399.77200000000005 -11.934000000000001 399.857 -12.716000000000001Q399.942 -13.498000000000001 400.163 -14.246000000000002Q400.384 -14.994000000000002 400.75800000000004 -15.691000000000003Q401.13200000000006 -16.388 401.7270000000001 -16.915Q402.32200000000006 -17.442 403.07000000000005 -17.697000000000003Q403.81800000000004 -17.952 404.634 -17.952Q405.38200000000006 -17.952 406.09600000000006 -17.731Q406.81000000000006 -17.51 407.38800000000003 -17.034Q407.966 -16.558 408.357 -15.912Q408.74800000000005 -15.266000000000002 408.98600000000005 -14.552000000000001V-17.68H412.99800000000005V-15.402000000000001H411.53600000000006V0.782Q411.53600000000006 1.598 411.41700000000003 2.448Q411.29800000000006 3.298 410.9920000000001 4.097Q410.68600000000004 4.896000000000001 410.17600000000004 5.5760000000000005Q409.66600000000005 6.256 408.95200000000006 6.732Q408.23800000000006 7.208 407.4050000000001 7.3950000000000005Q406.57200000000006 7.582000000000001 405.72200000000004 7.582000000000001ZM405.65400000000005 -2.0060000000000002Q406.19800000000004 -2.0060000000000002 406.708 -2.176Q407.218 -2.346 407.62600000000003 -2.686Q408.03400000000005 -3.0260000000000002 408.30600000000004 -3.4850000000000003Q408.57800000000003 -3.9440000000000004 408.731 -4.454000000000001Q408.884 -4.964 408.93500000000006 -5.4910000000000005Q408.98600000000005 -6.018000000000001 408.98600000000005 -6.5280000000000005V-11.152000000000001Q408.98600000000005 -11.662 408.93500000000006 -12.189Q408.884 -12.716000000000001 408.731 -13.226Q408.57800000000003 -13.736 408.30600000000004 -14.195Q408.03400000000005 -14.654000000000002 407.62600000000003 -14.994000000000002Q407.218 -15.334000000000001 406.708 -15.504000000000001Q406.19800000000004 -15.674000000000001 405.65400000000005 -15.674000000000001Q405.11 -15.674000000000001 404.6 -15.504000000000001Q404.09000000000003 -15.334000000000001 403.682 -14.994000000000002Q403.27400000000006 -14.654000000000002 403.00200000000007 -14.195Q402.73 -13.736 402.577 -13.226Q402.42400000000004 -12.716000000000001 402.37300000000005 -12.189Q402.32200000000006 -11.662 402.32200000000006 -11.152000000000001V-6.5280000000000005Q402.32200000000006 -6.018000000000001 402.37300000000005 -5.4910000000000005Q402.42400000000004 -4.964 402.577 -4.454000000000001Q402.73 -3.9440000000000004 403.00200000000007 -3.4850000000000003Q403.27400000000006 -3.0260000000000002 403.682 -2.686Q404.09000000000003 -2.346 404.6 -2.176Q405.11 -2.0060000000000002 405.65400000000005 -2.0060000000000002Z M420.546 0.272Q419.66200000000003 0.272 418.812 0.085Q417.962 -0.10200000000000001 417.231 -0.561Q416.5 -1.02 415.956 -1.7000000000000002Q415.41200000000003 -2.3800000000000003 415.08900000000006 -3.1790000000000003Q414.766 -3.978 414.64700000000005 -4.828Q414.528 -5.678000000000001 414.528 -6.5280000000000005V-11.152000000000001Q414.528 -12.002 414.64700000000005 -12.852Q414.766 -13.702000000000002 415.08900000000006 -14.501000000000001Q415.41200000000003 -15.3 415.956 -15.98Q416.5 -16.66 417.248 -17.119Q417.996 -17.578000000000003 418.846 -17.765Q419.696 -17.952 420.546 -17.952Q421.396 -17.952 422.246 -17.765Q423.096 -17.578000000000003 423.844 -17.119Q424.592 -16.66 425.13599999999997 -15.98Q425.68 -15.3 426.00300000000004 -14.501000000000001Q426.326 -13.702000000000002 426.44500000000005 -12.852Q426.564 -12.002 426.564 -11.152000000000001V-7.684H417.07800000000003V-6.5280000000000005Q417.07800000000003 -6.018000000000001 417.129 -5.474Q417.18 -4.930000000000001 417.35 -4.42Q417.52 -3.91 417.80899999999997 -3.451Q418.098 -2.992 418.523 -2.652Q418.948 -2.3120000000000003 419.475 -2.1590000000000003Q420.002 -2.0060000000000002 420.546 -2.0060000000000002Q421.158 -2.0060000000000002 421.78700000000003 -2.1590000000000003Q422.416 -2.3120000000000003 422.909 -2.72Q423.402 -3.128 423.674 -3.7060000000000004Q423.946 -4.284000000000001 423.946 -4.930000000000001H426.496Q426.496 -4.182 426.29200000000003 -3.468Q426.088 -2.754 425.697 -2.125Q425.306 -1.496 424.711 -1.0030000000000001Q424.116 -0.51 423.43600000000004 -0.221Q422.75600000000003 0.068 422.025 0.17Q421.294 0.272 420.546 0.272ZM424.014 -9.996V-11.152000000000001Q424.014 -11.662 423.963 -12.206000000000001Q423.91200000000003 -12.750000000000002 423.742 -13.260000000000002Q423.572 -13.770000000000001 423.283 -14.229000000000001Q422.994 -14.688 422.569 -15.028Q422.144 -15.368 421.617 -15.521Q421.09000000000003 -15.674000000000001 420.546 -15.674000000000001Q420.002 -15.674000000000001 419.475 -15.521Q418.948 -15.368 418.523 -15.028Q418.098 -14.688 417.80899999999997 -14.229000000000001Q417.52 -13.770000000000001 417.35 -13.260000000000002Q417.18 -12.750000000000002 417.129 -12.206000000000001Q417.07800000000003 -11.662 417.07800000000003 -11.152000000000001V-9.996Z M441.116 0.0V-2.6860000000000004H442.374V-14.994000000000002H441.116V-17.68H446.216V-16.150000000000002Q446.35200000000003 -16.490000000000002 446.59000000000003 -16.830000000000002Q446.82800000000003 -17.17 447.151 -17.425Q447.474 -17.68 447.933 -17.816000000000003Q448.392 -17.952 448.834 -17.952Q449.378 -17.952 449.922 -17.731Q450.466 -17.51 450.80600000000004 -17.136000000000003Q451.146 -16.762 451.384 -16.32Q451.622 -15.878000000000002 451.724 -15.436000000000002Q451.86 -15.878000000000002 452.064 -16.32Q452.26800000000003 -16.762 452.625 -17.136000000000003Q452.982 -17.51 453.509 -17.731Q454.036 -17.952 454.61400000000003 -17.952Q455.26 -17.952 455.804 -17.697000000000003Q456.348 -17.442 456.688 -17.034Q457.028 -16.626 457.249 -16.167Q457.47 -15.708000000000002 457.572 -15.215000000000002Q457.67400000000004 -14.722000000000001 457.708 -14.229000000000001Q457.742 -13.736 457.742 -13.226V-2.6860000000000004H459.0V0.0H453.90000000000003V-13.226Q453.90000000000003 -13.532000000000002 453.88300000000004 -13.821000000000002Q453.866 -14.110000000000001 453.781 -14.399000000000001Q453.696 -14.688 453.509 -14.977Q453.322 -15.266000000000002 452.948 -15.266000000000002Q452.574 -15.266000000000002 452.387 -14.977Q452.2 -14.688 452.115 -14.399000000000001Q452.03000000000003 -14.110000000000001 452.01300000000003 -13.821000000000002Q451.996 -13.532000000000002 451.996 -13.226V0.0H448.12V-13.226Q448.12 -13.532000000000002 448.103 -13.821000000000002Q448.086 -14.110000000000001 448.001 -14.399000000000001Q447.916 -14.688 447.72900000000004 -14.977Q447.54200000000003 -15.266000000000002 447.168 -15.266000000000002Q446.794 -15.266000000000002 446.60699999999997 -14.977Q446.42 -14.688 446.33500000000004 -14.399000000000001Q446.25 -14.110000000000001 446.233 -13.821000000000002Q446.216 -13.532000000000002 446.216 -13.226V0.0Z M459.34000000000003 7.3100000000000005V5.032H461.278Q461.58400000000006 5.032 461.87300000000005 4.947Q462.16200000000003 4.862 462.36600000000004 4.641Q462.57000000000005 4.42 462.672 4.131Q462.77400000000006 3.842 462.84200000000004 3.5700000000000003L462.87600000000003 3.5360000000000005L463.52200000000005 0.918L459.34000000000003 -15.402000000000001H457.60600000000005V-17.68H463.04600000000005V-15.402000000000001H461.89000000000004L464.848 -3.0260000000000002L465.35800000000006 -5.168L467.73800000000006 -15.402000000000001H466.58200000000005V-17.68H472.02200000000005V-15.402000000000001H470.288L465.324 4.114Q465.25600000000003 4.352 465.20500000000004 4.573Q465.15400000000005 4.7940000000000005 465.052 5.032Q464.848 5.5760000000000005 464.491 6.069000000000001Q464.134 6.562 463.607 6.868Q463.08000000000004 7.174 462.4680000000001 7.242000000000001Q461.85600000000005 7.3100000000000005 461.278 7.3100000000000005Z M496.91 0.0H491.742L487.526 -14.552000000000001H485.826V-17.68H493.03400000000005V-14.552000000000001H491.946L493.98600000000005 -5.882000000000001Q494.088 -5.542000000000001 494.173 -5.168000000000001Q494.25800000000004 -4.7940000000000005 494.326 -4.42Q494.39400000000006 -4.7940000000000005 494.47900000000004 -5.168000000000001Q494.564 -5.542000000000001 494.66600000000005 -5.882000000000001L496.706 -14.552000000000001H495.61800000000005V-17.68H502.826V-14.552000000000001H501.12600000000003Z M509.082 0.272Q508.232 0.272 507.382 0.085Q506.532 -0.10200000000000001 505.784 -0.561Q505.036 -1.02 504.492 -1.7000000000000002Q503.94800000000004 -2.3800000000000003 503.625 -3.1790000000000003Q503.302 -3.978 503.183 -4.828Q503.064 -5.678000000000001 503.064 -6.5280000000000005V-11.152000000000001Q503.064 -12.002 503.183 -12.852Q503.302 -13.702000000000002 503.625 -14.501000000000001Q503.94800000000004 -15.3 504.492 -15.98Q505.036 -16.66 505.784 -17.119Q506.532 -17.578000000000003 507.382 -17.765Q508.232 -17.952 509.082 -17.952Q509.932 -17.952 510.78200000000004 -17.765Q511.632 -17.578000000000003 512.38 -17.119Q513.128 -16.66 513.672 -15.98Q514.216 -15.3 514.539 -14.501000000000001Q514.862 -13.702000000000002 514.981 -12.852Q515.1 -12.002 515.1 -11.152000000000001V-6.5280000000000005Q515.1 -5.678000000000001 514.981 -4.828Q514.862 -3.978 514.539 -3.1790000000000003Q514.216 -2.3800000000000003 513.672 -1.7000000000000002Q513.128 -1.02 512.38 -0.561Q511.632 -0.10200000000000001 510.78200000000004 0.085Q509.932 0.272 509.082 0.272ZM509.082 -2.0060000000000002Q509.62600000000003 -2.0060000000000002 510.153 -2.1590000000000003Q510.68 -2.3120000000000003 511.105 -2.652Q511.53000000000003 -2.992 511.8190000000001 -3.451Q512.1080000000001 -3.91 512.278 -4.42Q512.448 -4.930000000000001 512.499 -5.474Q512.55 -6.018000000000001 512.55 -6.5280000000000005V-11.152000000000001Q512.55 -11.662 512.499 -12.206000000000001Q512.448 -12.750000000000002 512.278 -13.260000000000002Q512.1080000000001 -13.770000000000001 511.8190000000001 -14.229000000000001Q511.53000000000003 -14.688 511.105 -15.028Q510.68 -15.368 510.153 -15.521Q509.62600000000003 -15.674000000000001 509.082 -15.674000000000001Q508.538 -15.674000000000001 508.01099999999997 -15.521Q507.484 -15.368 507.05899999999997 -15.028Q506.634 -14.688 506.345 -14.229000000000001Q506.056 -13.770000000000001 505.88599999999997 -13.260000000000002Q505.716 -12.750000000000002 505.665 -12.206000000000001Q505.61400000000003 -11.662 505.61400000000003 -11.152000000000001V-6.5280000000000005Q505.61400000000003 -6.018000000000001 505.665 -5.474Q505.716 -4.930000000000001 505.88599999999997 -4.42Q506.056 -3.91 506.345 -3.451Q506.634 -2.992 507.05899999999997 -2.652Q507.484 -2.3120000000000003 508.01099999999997 -2.1590000000000003Q508.538 -2.0060000000000002 509.082 -2.0060000000000002Z M522.104 0.0H519.86L517.6500000000001 -15.402000000000001H516.7660000000001V-17.68H521.22V-15.402000000000001H519.996L521.152 -4.0120000000000005L522.716 -12.716000000000001H524.96L526.524 -4.0120000000000005L527.6800000000001 -15.402000000000001H526.456V-17.68H530.9100000000001V-15.402000000000001H530.0260000000001L527.816 0.0H525.572L523.8380000000001 -9.622Z M538.594 0.272Q538.05 0.272 537.54 0.11900000000000001Q537.03 -0.034 536.639 -0.42500000000000004Q536.248 -0.8160000000000001 536.095 -1.326Q535.942 -1.836 535.942 -2.3800000000000003Q535.942 -2.9240000000000004 536.095 -3.434Q536.248 -3.9440000000000004 536.639 -4.335Q537.03 -4.726 537.54 -4.879Q538.05 -5.032 538.594 -5.032Q539.138 -5.032 539.648 -4.879Q540.158 -4.726 540.549 -4.335Q540.94 -3.9440000000000004 541.0930000000001 -3.434Q541.246 -2.9240000000000004 541.246 -2.3800000000000003Q541.246 -1.836 541.0930000000001 -1.326Q540.94 -0.8160000000000001 540.549 -0.42500000000000004Q540.158 -0.034 539.648 0.11900000000000001Q539.138 0.272 538.594 0.272Z"/>
  </g>
</svg>
