<svg xmlns="http://www.w3.org/2000/svg" width="589" height="97" viewBox="0 0 589 97" role="img" aria-labelledby="title desc">
  <title id="title">Iosevka Term Slab Compact Bold Italic preview</title>
  <desc id="desc">Sphinx of black quartz, judge my vow.</desc>
  <rect width="100%" height="100%" rx="10" fill="#0d1117"/>
  <text x="24" y="34" fill="#8b949e" font-family="ui-monospace, SFMono-Regular, Menlo, Consolas, monospace" font-size="16">Iosevka Term Slab Compact Bold Italic</text>
  <g transform="translate(24.41 71.50)" fill="#f0f6fc">
    <path d="M7.106000000000001 0.272Q6.460000000000001 0.272 5.848000000000001 0.15300000000000002Q5.236000000000001 0.034 4.7090000000000005 -0.272Q4.182 -0.5780000000000001 3.7910000000000004 -1.037Q3.4000000000000004 -1.496 3.1620000000000004 -2.04L2.822 0.0H-0.40800000000000003L0.646 -6.426H3.8760000000000003Q3.7740000000000005 -5.814 3.7740000000000005 -5.202Q3.7740000000000005 -4.590000000000001 3.9780000000000006 -4.063000000000001Q4.182 -3.5360000000000005 4.675000000000001 -3.1960000000000006Q5.168 -2.8560000000000003 5.78 -2.8560000000000003Q6.3580000000000005 -2.8560000000000003 6.936 -3.111Q7.514 -3.366 7.939 -3.825Q8.364 -4.284000000000001 8.602 -4.845000000000001Q8.84 -5.406000000000001 8.942 -5.984Q9.078000000000001 -6.8340000000000005 8.942 -7.633000000000001Q8.806000000000001 -8.432 8.432 -9.112000000000002Q8.058 -9.792000000000002 7.463 -10.302000000000001Q6.868 -10.812000000000001 6.256 -11.288Q5.644 -11.764000000000001 5.083 -12.308Q4.522 -12.852 4.08 -13.464Q3.6380000000000003 -14.076 3.3150000000000004 -14.807Q2.992 -15.538 2.8390000000000004 -16.32Q2.6860000000000004 -17.102 2.6860000000000004 -17.935000000000002Q2.6860000000000004 -18.768 2.822 -19.584000000000003Q2.9240000000000004 -20.264000000000003 3.1450000000000005 -20.927Q3.366 -21.59 3.672 -22.219Q3.978 -22.848000000000003 4.437 -23.426000000000002Q4.896000000000001 -24.004 5.474 -24.446Q6.0520000000000005 -24.888 6.732000000000001 -25.075000000000003Q7.412000000000001 -25.262 8.092 -25.262Q8.738000000000001 -25.262 9.333000000000002 -25.143Q9.928 -25.024 10.438 -24.718000000000004Q10.948 -24.412000000000003 11.322000000000001 -23.970000000000002Q11.696000000000002 -23.528000000000002 11.934000000000001 -22.984L12.24 -24.990000000000002H15.47L14.416 -18.564H11.186Q11.254000000000001 -18.938000000000002 11.288 -19.346000000000004Q11.322000000000001 -19.754 11.288 -20.145000000000003Q11.254000000000001 -20.536 11.135000000000002 -20.893Q11.016 -21.25 10.778 -21.539Q10.540000000000001 -21.828000000000003 10.166 -21.981Q9.792000000000002 -22.134 9.418000000000001 -22.134Q8.84 -22.134 8.279 -21.879Q7.718000000000001 -21.624000000000002 7.327000000000001 -21.148000000000003Q6.936000000000001 -20.672 6.715000000000001 -20.128Q6.494000000000001 -19.584000000000003 6.392 -19.006Q6.256 -18.19 6.392 -17.374000000000002Q6.5280000000000005 -16.558 6.902000000000001 -15.878Q7.276000000000001 -15.198 7.871 -14.688Q8.466000000000001 -14.178 9.061 -13.702000000000002Q9.656 -13.226 10.217 -12.699000000000002Q10.778 -12.172 11.237000000000002 -11.543000000000001Q11.696000000000002 -10.914000000000001 12.002000000000002 -10.183Q12.308000000000002 -9.452 12.478000000000002 -8.67Q12.648000000000001 -7.888000000000001 12.648000000000001 -7.072000000000001Q12.648000000000001 -6.256 12.512 -5.406000000000001Q12.41 -4.726 12.189 -4.046Q11.968 -3.366 11.645 -2.737Q11.322000000000001 -2.108 10.846 -1.53Q10.370000000000001 -0.9520000000000001 9.775000000000002 -0.527Q9.180000000000001 -0.10200000000000001 8.483 0.085Q7.7860000000000005 0.272 7.106000000000001 0.272Z M13.124 7.3100000000000005 16.762 -14.552000000000001H15.878V-17.68H20.944000000000003L20.536 -15.232000000000001Q20.842 -15.81 21.25 -16.32Q21.658 -16.830000000000002 22.151000000000003 -17.204Q22.644000000000002 -17.578000000000003 23.256 -17.765Q23.868000000000002 -17.952 24.446 -17.952Q25.296 -17.952 26.044 -17.629Q26.792 -17.306 27.268 -16.694000000000003Q27.744 -16.082 27.982 -15.317Q28.22 -14.552000000000001 28.305 -13.736Q28.39 -12.920000000000002 28.305 -12.07Q28.22 -11.22 28.084000000000003 -10.404L27.336 -5.78Q27.234 -5.134 27.064 -4.454000000000001Q26.894000000000002 -3.7740000000000005 26.622 -3.1110000000000007Q26.35 -2.4480000000000004 25.942 -1.8360000000000003Q25.534 -1.2240000000000002 24.990000000000002 -0.7310000000000001Q24.446 -0.23800000000000002 23.749000000000002 0.017Q23.052 0.272 22.372 0.272Q21.59 0.272 20.893 0.0Q20.196 -0.272 19.703000000000003 -0.799Q19.21 -1.326 18.955 -2.023Q18.7 -2.72 18.598 -3.4680000000000004L16.796 7.3100000000000005ZM20.808 -2.8560000000000003Q21.386000000000003 -2.8560000000000003 21.947000000000003 -3.1790000000000003Q22.508000000000003 -3.5020000000000002 22.882 -4.029Q23.256 -4.556 23.46 -5.134Q23.664 -5.712000000000001 23.766 -6.324000000000001L24.514000000000003 -10.914000000000001Q24.582 -11.322000000000001 24.616 -11.747Q24.65 -12.172 24.616 -12.580000000000002Q24.582 -12.988000000000001 24.497 -13.379000000000001Q24.412 -13.770000000000001 24.208 -14.110000000000001Q24.004 -14.450000000000001 23.647 -14.637Q23.29 -14.824000000000002 22.848 -14.824000000000002Q22.304000000000002 -14.824000000000002 21.777 -14.586000000000002Q21.25 -14.348 20.859 -13.889000000000001Q20.468 -13.430000000000001 20.264000000000003 -12.886000000000001Q20.060000000000002 -12.342 19.958 -11.832L19.21 -7.208Q19.142 -6.766000000000001 19.091 -6.307Q19.04 -5.848000000000001 19.057000000000002 -5.406000000000001Q19.074 -4.964 19.159 -4.539Q19.244 -4.114 19.431 -3.723Q19.618000000000002 -3.3320000000000003 19.975 -3.0940000000000003Q20.332 -2.8560000000000003 20.808 -2.8560000000000003Z M29.104 0.0 32.708 -21.862000000000002H31.824V-24.990000000000002H36.89L35.292 -15.3Q35.598 -15.844000000000001 35.989000000000004 -16.337000000000003Q36.38 -16.830000000000002 36.856 -17.204Q37.332 -17.578000000000003 37.91 -17.765Q38.488 -17.952 39.066 -17.952Q39.916 -17.952 40.647 -17.629Q41.378 -17.306 41.837 -16.677Q42.296 -16.048000000000002 42.5 -15.283000000000001Q42.704 -14.518 42.772000000000006 -13.702000000000002Q42.84 -12.886000000000001 42.772000000000006 -12.053Q42.704 -11.22 42.568 -10.404L41.378 -3.128H42.262V0.0H37.196L38.998000000000005 -10.914000000000001Q39.066 -11.322000000000001 39.1 -11.73Q39.134 -12.138000000000002 39.117000000000004 -12.546000000000001Q39.1 -12.954 39.032 -13.345Q38.964 -13.736 38.777 -14.076Q38.59 -14.416 38.25 -14.620000000000001Q37.910000000000004 -14.824000000000002 37.468 -14.824000000000002Q36.958 -14.824000000000002 36.414 -14.569000000000003Q35.870000000000005 -14.314000000000002 35.53 -13.855Q35.19 -13.396 35.003 -12.869Q34.816 -12.342 34.714 -11.832L32.776 0.0Z M52.666000000000004 0.272Q51.884 0.272 51.153000000000006 0.10200000000000001Q50.422000000000004 -0.068 49.844 -0.4760000000000001Q49.266 -0.8840000000000001 48.875 -1.496Q48.484 -2.108 48.314 -2.822Q48.144 -3.5360000000000005 48.161 -4.301Q48.178 -5.066000000000001 48.314 -5.848000000000001L49.776 -14.552000000000001H46.206V-17.68H53.958L51.918 -5.304Q51.85 -4.896000000000001 51.85 -4.488Q51.85 -4.08 51.969 -3.7060000000000004Q52.088 -3.3320000000000003 52.428 -3.0940000000000003Q52.768 -2.8560000000000003 53.176 -2.8560000000000003Q53.618 -2.8560000000000003 54.009 -3.1790000000000003Q54.400000000000006 -3.5020000000000002 54.638000000000005 -3.91Q54.876000000000005 -4.3180000000000005 55.012 -4.777000000000001Q55.148 -5.236000000000001 55.216 -5.678000000000001L55.25 -5.746L58.344 -5.61L58.31 -5.474Q58.208 -4.7940000000000005 57.97 -4.097Q57.732 -3.4000000000000004 57.391999999999996 -2.7540000000000004Q57.052 -2.108 56.542 -1.5130000000000001Q56.032000000000004 -0.918 55.403000000000006 -0.51Q54.774 -0.10200000000000001 54.06 0.085Q53.346000000000004 0.272 52.666000000000004 0.272ZM53.074 -20.060000000000002Q52.428 -20.060000000000002 51.849999999999994 -20.298000000000002Q51.272 -20.536 50.881 -21.012Q50.49 -21.488000000000003 50.405 -22.134Q50.32 -22.78 50.422 -23.426000000000002Q50.49 -23.902 50.728 -24.310000000000002Q50.966 -24.718000000000004 51.357 -25.007000000000005Q51.748 -25.296000000000003 52.19 -25.398000000000003Q52.632 -25.500000000000004 53.108000000000004 -25.500000000000004Q53.754 -25.500000000000004 54.349000000000004 -25.262Q54.944 -25.024 55.318 -24.548000000000002Q55.692 -24.072000000000003 55.794 -23.426000000000002Q55.896 -22.78 55.76 -22.134Q55.692 -21.658 55.454 -21.25Q55.216 -20.842000000000002 54.825 -20.553000000000004Q54.434 -20.264000000000003 53.992 -20.162000000000003Q53.55 -20.060000000000002 53.074 -20.060000000000002Z M58.616 0.0 61.03 -14.552000000000001H60.146V-17.68H65.212L64.804 -15.3Q65.11 -15.844000000000001 65.501 -16.337000000000003Q65.892 -16.830000000000002 66.368 -17.204Q66.844 -17.578000000000003 67.422 -17.765Q68.0 -17.952 68.578 -17.952Q69.428 -17.952 70.15899999999999 -17.629Q70.89 -17.306 71.349 -16.677Q71.808 -16.048000000000002 72.012 -15.283000000000001Q72.21600000000001 -14.518 72.284 -13.702000000000002Q72.352 -12.886000000000001 72.284 -12.053Q72.21600000000001 -11.22 72.08 -10.404L70.89 -3.128H71.774V0.0H66.708L68.51 -10.914000000000001Q68.578 -11.322000000000001 68.612 -11.73Q68.646 -12.138000000000002 68.62899999999999 -12.546000000000001Q68.612 -12.954 68.544 -13.345Q68.476 -13.736 68.289 -14.076Q68.102 -14.416 67.762 -14.620000000000001Q67.422 -14.824000000000002 66.98 -14.824000000000002Q66.47 -14.824000000000002 65.926 -14.569000000000003Q65.382 -14.314000000000002 65.042 -13.855Q64.702 -13.396 64.515 -12.869Q64.328 -12.342 64.226 -11.832L62.288000000000004 0.0Z M76.602 0.272Q75.922 0.272 75.378 -0.05099999999999999Q74.834 -0.374 74.511 -0.9180000000000001Q74.188 -1.4620000000000002 74.05199999999999 -2.108Q73.916 -2.754 73.882 -3.4000000000000004Q73.848 -4.046 73.916 -4.726000000000001Q73.984 -5.406000000000001 74.086 -6.086L74.222 -6.766000000000001H77.35L77.214 -6.086Q77.18 -5.882000000000001 77.18 -5.695Q77.18 -5.508 77.146 -5.321Q77.112 -5.134 77.078 -4.93Q77.044 -4.726 77.027 -4.539Q77.01 -4.352 76.993 -4.165Q76.976 -3.978 76.959 -3.774Q76.94200000000001 -3.5700000000000003 76.94200000000001 -3.383Q76.94200000000001 -3.196 76.959 -3.0090000000000003Q76.976 -2.822 77.027 -2.6180000000000003Q77.078 -2.414 77.248 -2.414Q77.452 -2.414 77.60499999999999 -2.584Q77.758 -2.754 77.84299999999999 -2.941Q77.928 -3.128 77.99600000000001 -3.3150000000000004Q78.06400000000001 -3.5020000000000002 78.132 -3.7060000000000004Q78.2 -3.91 78.251 -4.097Q78.302 -4.284000000000001 78.33600000000001 -4.471Q78.37 -4.658 78.404 -4.862Q78.438 -5.066000000000001 78.47200000000001 -5.236000000000001L79.968 -14.178Q80.002 -14.348 79.985 -14.535Q79.968 -14.722000000000001 79.88300000000001 -14.892000000000001Q79.798 -15.062000000000001 79.64500000000001 -15.147000000000002Q79.492 -15.232000000000001 79.288 -15.232000000000001Q79.152 -15.232000000000001 78.982 -15.164000000000001Q78.812 -15.096000000000002 78.71000000000001 -14.994000000000002L76.568 -12.818000000000001L74.324 -14.756L76.432 -16.898Q76.70400000000001 -17.204 77.061 -17.408Q77.418 -17.612000000000002 77.792 -17.731Q78.166 -17.85 78.53999999999999 -17.901000000000003Q78.914 -17.952 79.288 -17.952Q79.866 -17.952 80.35900000000001 -17.765Q80.852 -17.578000000000003 81.19200000000001 -17.17Q81.532 -16.762 81.668 -16.235Q81.804 -15.708000000000002 81.838 -15.164000000000001Q82.008 -15.674000000000001 82.28 -16.150000000000002Q82.552 -16.626 82.926 -17.034Q83.3 -17.442 83.793 -17.697000000000003Q84.286 -17.952 84.796 -17.952Q85.476 -17.952 86.037 -17.629Q86.598 -17.306 86.92099999999999 -16.762Q87.244 -16.218 87.363 -15.572000000000001Q87.482 -14.926000000000002 87.51599999999999 -14.280000000000001Q87.55 -13.634 87.482 -12.954Q87.414 -12.274000000000001 87.312 -11.594000000000001L87.21000000000001 -10.914000000000001H84.08200000000001L84.184 -11.594000000000001Q84.218 -11.798 84.23500000000001 -11.985Q84.25200000000001 -12.172 84.286 -12.359000000000002Q84.32000000000001 -12.546000000000001 84.35400000000001 -12.75Q84.388 -12.954 84.405 -13.141000000000002Q84.422 -13.328000000000001 84.422 -13.515Q84.422 -13.702000000000002 84.439 -13.906000000000002Q84.456 -14.110000000000001 84.456 -14.297Q84.456 -14.484000000000002 84.439 -14.671000000000001Q84.422 -14.858 84.37100000000001 -15.062000000000001Q84.32000000000001 -15.266000000000002 84.15 -15.266000000000002Q83.946 -15.266000000000002 83.793 -15.096000000000002Q83.64 -14.926000000000002 83.572 -14.739Q83.504 -14.552000000000001 83.436 -14.365000000000002Q83.368 -14.178 83.3 -13.974Q83.232 -13.770000000000001 83.181 -13.583000000000002Q83.13 -13.396 83.07900000000001 -13.209Q83.028 -13.022 82.994 -12.818000000000001Q82.96000000000001 -12.614 82.926 -12.444L81.464 -3.5020000000000002Q81.43 -3.3320000000000003 81.43 -3.1450000000000005Q81.43 -2.958 81.515 -2.7880000000000003Q81.6 -2.6180000000000003 81.77 -2.5330000000000004Q81.94 -2.4480000000000004 82.144 -2.4480000000000004Q82.28 -2.4480000000000004 82.43299999999999 -2.516Q82.586 -2.584 82.72200000000001 -2.6860000000000004L84.83 -4.862L87.108 -2.9240000000000004L85.0 -0.782Q84.694 -0.47600000000000003 84.337 -0.272Q83.98 -0.068 83.623 0.051000000000000004Q83.266 0.17 82.875 0.22100000000000003Q82.48400000000001 0.272 82.11 0.272Q81.532 0.272 81.039 0.085Q80.546 -0.10200000000000001 80.206 -0.51Q79.866 -0.918 79.72999999999999 -1.445Q79.594 -1.9720000000000002 79.594 -2.516Q79.39 -2.0060000000000002 79.13499999999999 -1.5300000000000002Q78.88 -1.054 78.506 -0.646Q78.132 -0.23800000000000002 77.622 0.017Q77.112 0.272 76.602 0.272Z M109.14 0.272Q108.188 0.272 107.287 0.068Q106.386 -0.136 105.672 -0.6460000000000001Q104.958 -1.1560000000000001 104.499 -1.9210000000000003Q104.04 -2.6860000000000004 103.819 -3.5700000000000003Q103.598 -4.454000000000001 103.632 -5.389000000000001Q103.666 -6.324000000000001 103.802 -7.276000000000001L104.584 -11.9Q104.686 -12.682 104.941 -13.464Q105.196 -14.246 105.638 -14.96Q106.08 -15.674000000000001 106.726 -16.269000000000002Q107.372 -16.864 108.12 -17.255000000000003Q108.868 -17.646 109.667 -17.799Q110.46600000000001 -17.952 111.282 -17.952Q112.23400000000001 -17.952 113.135 -17.748Q114.036 -17.544 114.75 -17.034Q115.464 -16.524 115.94 -15.759Q116.416 -14.994000000000002 116.62 -14.110000000000001Q116.824 -13.226 116.807 -12.291Q116.79 -11.356000000000002 116.62 -10.404L115.872 -5.78Q115.736 -4.998 115.481 -4.216Q115.226 -3.434 114.78399999999999 -2.72Q114.342 -2.0060000000000002 113.713 -1.411Q113.084 -0.8160000000000001 112.33600000000001 -0.42500000000000004Q111.58800000000001 -0.034 110.772 0.11900000000000001Q109.956 0.272 109.14 0.272ZM109.174 -2.8560000000000003Q109.786 -2.8560000000000003 110.381 -3.1620000000000004Q110.976 -3.4680000000000004 111.367 -3.9780000000000006Q111.75800000000001 -4.488 111.97900000000001 -5.1000000000000005Q112.2 -5.712000000000001 112.302 -6.324000000000001L113.05 -10.914000000000001Q113.118 -11.322000000000001 113.152 -11.747Q113.186 -12.172 113.152 -12.597000000000001Q113.118 -13.022 113.01599999999999 -13.413Q112.914 -13.804 112.676 -14.127Q112.438 -14.450000000000001 112.081 -14.637Q111.724 -14.824000000000002 111.282 -14.824000000000002Q110.67 -14.824000000000002 110.075 -14.518Q109.48 -14.212000000000002 109.089 -13.702000000000002Q108.69800000000001 -13.192 108.477 -12.58Q108.256 -11.968 108.154 -11.356000000000002L107.406 -6.766000000000001Q107.33800000000001 -6.3580000000000005 107.304 -5.933Q107.27 -5.508 107.287 -5.083Q107.304 -4.658 107.423 -4.267Q107.542 -3.8760000000000003 107.763 -3.5530000000000004Q107.98400000000001 -3.2300000000000004 108.358 -3.043Q108.732 -2.8560000000000003 109.174 -2.8560000000000003Z M116.042 7.3100000000000005V4.182H118.08200000000001Q118.66 4.182 119.27199999999999 3.995Q119.884 3.8080000000000003 120.36 3.4000000000000004Q120.836 2.992 121.108 2.431Q121.38 1.87 121.482 1.258L123.862 -13.124H119.714L119.68 -16.252000000000002H124.372L124.81400000000001 -18.938000000000002Q124.95 -19.754 125.22200000000001 -20.57Q125.494 -21.386000000000003 125.97 -22.117000000000004Q126.446 -22.848000000000003 127.126 -23.426000000000002Q127.806 -24.004 128.588 -24.361000000000004Q129.37 -24.718000000000004 130.186 -24.854000000000003Q131.002 -24.990000000000002 131.818 -24.990000000000002H133.892V-21.862000000000002H131.852Q131.20600000000002 -21.862000000000002 130.577 -21.607Q129.948 -21.352 129.472 -20.842Q128.996 -20.332 128.758 -19.703000000000003Q128.52 -19.074 128.38400000000001 -18.428L128.044 -16.252000000000002H132.192L132.226 -13.124H127.534L125.154 1.258Q125.018 2.0740000000000003 124.74600000000001 2.8900000000000006Q124.474 3.7060000000000004 123.998 4.437Q123.522 5.168 122.84200000000001 5.746Q122.162 6.324000000000001 121.363 6.681000000000001Q120.56400000000001 7.038 119.748 7.174Q118.932 7.3100000000000005 118.116 7.3100000000000005Z M155.17600000000002 0.272Q154.394 0.272 153.697 0.0Q153.0 -0.272 152.507 -0.799Q152.014 -1.326 151.75900000000001 -2.023Q151.504 -2.72 151.40200000000002 -3.4680000000000004L150.824 0.0H147.15200000000002L150.756 -21.862000000000002H149.872V-24.990000000000002H154.938L153.34 -15.232000000000001Q153.64600000000002 -15.81 154.054 -16.32Q154.462 -16.830000000000002 154.95499999999998 -17.204Q155.448 -17.578000000000003 156.06 -17.765Q156.672 -17.952 157.25 -17.952Q158.1 -17.952 158.848 -17.629Q159.596 -17.306 160.072 -16.694000000000003Q160.548 -16.082 160.786 -15.317Q161.024 -14.552000000000001 161.109 -13.736Q161.19400000000002 -12.920000000000002 161.109 -12.07Q161.024 -11.22 160.888 -10.404L160.14000000000001 -5.78Q160.038 -5.134 159.868 -4.454000000000001Q159.698 -3.7740000000000005 159.426 -3.1110000000000007Q159.154 -2.4480000000000004 158.74599999999998 -1.8360000000000003Q158.338 -1.2240000000000002 157.79399999999998 -0.7310000000000001Q157.25 -0.23800000000000002 156.553 0.017Q155.856 0.272 155.17600000000002 0.272ZM153.612 -2.8560000000000003Q154.19 -2.8560000000000003 154.751 -3.1790000000000003Q155.312 -3.5020000000000002 155.686 -4.029Q156.06 -4.556 156.264 -5.134Q156.46800000000002 -5.712000000000001 156.57 -6.324000000000001L157.318 -10.914000000000001Q157.386 -11.322000000000001 157.42000000000002 -11.747Q157.454 -12.172 157.42000000000002 -12.580000000000002Q157.386 -12.988000000000001 157.301 -13.379000000000001Q157.216 -13.770000000000001 157.012 -14.110000000000001Q156.808 -14.450000000000001 156.451 -14.637Q156.094 -14.824000000000002 155.65200000000002 -14.824000000000002Q155.108 -14.824000000000002 154.58100000000002 -14.586000000000002Q154.054 -14.348 153.663 -13.889000000000001Q153.272 -13.430000000000001 153.06799999999998 -12.886000000000001Q152.864 -12.342 152.762 -11.832L152.014 -7.208Q151.946 -6.766000000000001 151.89499999999998 -6.307Q151.844 -5.848000000000001 151.861 -5.406000000000001Q151.87800000000001 -4.964 151.96300000000002 -4.539Q152.048 -4.114 152.235 -3.723Q152.422 -3.3320000000000003 152.779 -3.0940000000000003Q153.136 -2.8560000000000003 153.612 -2.8560000000000003Z M170.714 0.272Q169.93200000000002 0.272 169.20100000000002 0.10200000000000001Q168.47 -0.068 167.892 -0.4760000000000001Q167.314 -0.8840000000000001 166.923 -1.496Q166.532 -2.108 166.36200000000002 -2.822Q166.192 -3.5360000000000005 166.209 -4.301Q166.226 -5.066000000000001 166.362 -5.848000000000001L169.014 -21.862000000000002H165.44400000000002V-24.990000000000002H173.196L169.966 -5.304Q169.898 -4.896000000000001 169.898 -4.488Q169.898 -4.08 170.017 -3.7060000000000004Q170.136 -3.3320000000000003 170.476 -3.0940000000000003Q170.816 -2.8560000000000003 171.224 -2.8560000000000003Q171.666 -2.8560000000000003 172.05700000000002 -3.1790000000000003Q172.448 -3.5020000000000002 172.686 -3.91Q172.924 -4.3180000000000005 173.06 -4.777000000000001Q173.196 -5.236000000000001 173.264 -5.678000000000001L173.298 -5.746L176.392 -5.61L176.358 -5.474Q176.256 -4.7940000000000005 176.018 -4.097Q175.78 -3.4000000000000004 175.44 -2.7540000000000004Q175.1 -2.108 174.59 -1.5130000000000001Q174.08 -0.918 173.45100000000002 -0.51Q172.822 -0.10200000000000001 172.108 0.085Q171.394 0.272 170.714 0.272Z M181.22 0.272Q180.37 0.272 179.639 -0.05099999999999999Q178.90800000000002 -0.374 178.41500000000002 -0.986Q177.922 -1.598 177.701 -2.363Q177.48 -3.128 177.39499999999998 -3.9440000000000004Q177.31 -4.760000000000001 177.378 -5.610000000000001Q177.446 -6.460000000000001 177.582 -7.276000000000001L178.364 -11.9Q178.466 -12.546000000000001 178.619 -13.226Q178.772 -13.906 179.06099999999998 -14.569Q179.35 -15.232000000000001 179.75799999999998 -15.844000000000001Q180.166 -16.456 180.70999999999998 -16.948999999999998Q181.254 -17.442 181.934 -17.697000000000003Q182.614 -17.952 183.294 -17.952Q184.076 -17.952 184.773 -17.68Q185.47 -17.408 185.96300000000002 -16.881Q186.45600000000002 -16.354000000000003 186.728 -15.657000000000002Q187.0 -14.96 187.102 -14.212000000000002L187.68 -17.68H191.352L189.006 -3.5020000000000002Q188.93800000000002 -3.2300000000000004 189.108 -3.043Q189.278 -2.8560000000000003 189.516 -2.8560000000000003H190.162L190.12800000000001 0.272H188.972Q188.292 0.272 187.62900000000002 0.136Q186.966 0.0 186.405 -0.374Q185.844 -0.748 185.538 -1.343Q185.232 -1.9380000000000002 185.198 -2.6180000000000003Q184.96 -2.04 184.55200000000002 -1.496Q184.144 -0.9520000000000001 183.61700000000002 -0.544Q183.09 -0.136 182.461 0.068Q181.832 0.272 181.22 0.272ZM182.852 -2.8560000000000003Q183.39600000000002 -2.8560000000000003 183.923 -3.0940000000000003Q184.45 -3.3320000000000003 184.824 -3.7910000000000004Q185.198 -4.25 185.419 -4.7940000000000005Q185.64000000000001 -5.338 185.708 -5.848000000000001L186.49 -10.472000000000001Q186.558 -10.914000000000001 186.59199999999998 -11.373000000000001Q186.626 -11.832 186.626 -12.274000000000001Q186.626 -12.716000000000001 186.541 -13.141000000000002Q186.45600000000002 -13.566 186.269 -13.957Q186.082 -14.348 185.725 -14.586000000000002Q185.368 -14.824000000000002 184.892 -14.824000000000002Q184.314 -14.824000000000002 183.753 -14.501000000000001Q183.192 -14.178 182.818 -13.651Q182.44400000000002 -13.124 182.24 -12.546Q182.036 -11.968 181.934 -11.356000000000002L181.186 -6.766000000000001Q181.118 -6.3580000000000005 181.084 -5.933Q181.05 -5.508 181.084 -5.1Q181.118 -4.692 181.203 -4.301Q181.288 -3.91 181.47500000000002 -3.5700000000000003Q181.662 -3.2300000000000004 182.036 -3.043Q182.41 -2.8560000000000003 182.852 -2.8560000000000003Z M197.778 0.272Q196.826 0.272 195.90800000000002 0.068Q194.99 -0.136 194.25900000000001 -0.6460000000000001Q193.528 -1.1560000000000001 193.052 -1.9040000000000001Q192.576 -2.652 192.35500000000002 -3.536Q192.13400000000001 -4.42 192.168 -5.372Q192.202 -6.324000000000001 192.338 -7.276000000000001L193.12 -11.9Q193.222 -12.682 193.494 -13.464Q193.766 -14.246 194.208 -14.977Q194.65 -15.708000000000002 195.296 -16.303Q195.942 -16.898 196.724 -17.272Q197.506 -17.646 198.305 -17.799Q199.104 -17.952 199.886 -17.952Q201.586 -17.952 203.116 -17.408Q204.64600000000002 -16.864 205.802 -15.878000000000002L205.054 -11.254000000000001H201.824L202.3 -14.280000000000001Q201.756 -14.518 201.161 -14.671000000000001Q200.566 -14.824000000000002 199.92000000000002 -14.824000000000002Q199.308 -14.824000000000002 198.696 -14.535Q198.084 -14.246 197.659 -13.719000000000001Q197.234 -13.192 197.013 -12.58Q196.792 -11.968 196.69 -11.356000000000002L195.942 -6.766000000000001Q195.874 -6.324000000000001 195.84 -5.882000000000001Q195.806 -5.44 195.85700000000003 -4.998Q195.90800000000002 -4.556 196.061 -4.165Q196.214 -3.7740000000000005 196.503 -3.4680000000000004Q196.792 -3.1620000000000004 197.2 -3.0090000000000003Q197.608 -2.8560000000000003 198.05 -2.8560000000000003Q198.458 -2.8560000000000003 198.88299999999998 -3.0090000000000003Q199.308 -3.1620000000000004 199.648 -3.4510000000000005Q199.988 -3.74 200.26 -4.114000000000001Q200.532 -4.488 200.719 -4.8790000000000004Q200.906 -5.2700000000000005 201.042 -5.678000000000001Q201.178 -6.086 201.28 -6.5280000000000005L204.748 -5.78Q204.544 -4.998 204.221 -4.2330000000000005Q203.898 -3.4680000000000004 203.422 -2.7710000000000004Q202.946 -2.0740000000000003 202.317 -1.479Q201.68800000000002 -0.8840000000000001 200.94 -0.4760000000000001Q200.192 -0.068 199.376 0.10200000000000001Q198.56 0.272 197.778 0.272Z M215.764 0.272Q215.05 0.272 214.404 0.11900000000000001Q213.758 -0.034 213.248 -0.42500000000000004Q212.738 -0.8160000000000001 212.534 -1.4450000000000003Q212.33 -2.0740000000000003 212.296 -2.72L212.058 -6.732Q211.922 -6.766000000000001 211.769 -6.8340000000000005Q211.616 -6.902 211.48000000000002 -7.0040000000000004L210.324 0.0H206.65200000000002L210.256 -21.862000000000002H209.372V-24.990000000000002H214.43800000000002L212.568 -13.532000000000002Q212.84 -14.314000000000002 213.265 -15.062000000000001Q213.69 -15.81 214.251 -16.456Q214.812 -17.102 215.594 -17.527Q216.376 -17.952 217.15800000000002 -17.952Q217.736 -17.952 218.22899999999998 -17.782000000000004Q218.722 -17.612000000000002 219.096 -17.255000000000003Q219.47 -16.898 219.674 -16.405Q219.87800000000001 -15.912 219.94600000000003 -15.385000000000002Q220.014 -14.858 219.997 -14.314Q219.98000000000002 -13.770000000000001 219.87800000000001 -13.192Q219.708 -12.274000000000001 219.402 -11.373000000000001Q219.096 -10.472000000000001 218.518 -9.673000000000002Q217.94 -8.874 217.14100000000002 -8.262Q216.342 -7.65 215.458 -7.276000000000001L215.662 -2.89Q215.696 -2.8560000000000003 215.679 -2.822Q215.662 -2.7880000000000003 215.662 -2.754L215.62800000000001 -2.6180000000000003Q215.62800000000001 -2.5500000000000003 215.645 -2.482Q215.662 -2.414 215.73000000000002 -2.414Q215.798 -2.414 215.849 -2.431Q215.9 -2.4480000000000004 215.9 -2.482L218.62 -5.61L220.966 -3.842L218.28 -0.7140000000000001Q218.042 -0.44200000000000006 217.736 -0.255Q217.43 -0.068 217.107 0.051000000000000004Q216.784 0.17 216.427 0.22100000000000003Q216.07 0.272 215.764 0.272ZM212.874 -9.350000000000001Q213.52 -9.350000000000001 214.132 -9.690000000000001Q214.744 -10.030000000000001 215.16899999999998 -10.557000000000002Q215.594 -11.084000000000001 215.815 -11.713000000000001Q216.036 -12.342 216.138 -12.954Q216.172 -13.226 216.20600000000002 -13.515Q216.24 -13.804 216.20600000000002 -14.076Q216.172 -14.348 216.019 -14.586000000000002Q215.866 -14.824000000000002 215.594 -14.824000000000002Q215.05 -14.824000000000002 214.54000000000002 -14.518Q214.03 -14.212000000000002 213.673 -13.770000000000001Q213.316 -13.328000000000001 213.04399999999998 -12.818000000000001Q212.772 -12.308000000000002 212.56799999999998 -11.798000000000002Q212.364 -11.288 212.228 -10.761Q212.092 -10.234 211.95600000000002 -9.690000000000001Q212.126 -9.520000000000001 212.364 -9.435000000000002Q212.602 -9.350000000000001 212.874 -9.350000000000001Z M242.556 7.3100000000000005 244.18800000000002 -2.4480000000000004Q243.882 -1.87 243.474 -1.36Q243.066 -0.8500000000000001 242.55599999999998 -0.47600000000000003Q242.046 -0.10200000000000001 241.434 0.085Q240.822 0.272 240.244 0.272Q239.394 0.272 238.663 -0.05099999999999999Q237.93200000000002 -0.374 237.43900000000002 -0.986Q236.946 -1.598 236.725 -2.363Q236.504 -3.128 236.41899999999998 -3.9440000000000004Q236.334 -4.760000000000001 236.402 -5.610000000000001Q236.47 -6.460000000000001 236.606 -7.276000000000001L237.388 -11.9Q237.49 -12.546000000000001 237.643 -13.226Q237.796 -13.906 238.08499999999998 -14.569Q238.374 -15.232000000000001 238.78199999999998 -15.844000000000001Q239.19 -16.456 239.73399999999998 -16.948999999999998Q240.278 -17.442 240.958 -17.697000000000003Q241.638 -17.952 242.318 -17.952Q243.1 -17.952 243.797 -17.68Q244.494 -17.408 244.98700000000002 -16.881Q245.48000000000002 -16.354000000000003 245.752 -15.657000000000002Q246.024 -14.96 246.126 -14.212000000000002L246.704 -17.68H250.376L246.738 4.182H247.622V7.3100000000000005ZM241.876 -2.8560000000000003Q242.42000000000002 -2.8560000000000003 242.947 -3.0940000000000003Q243.474 -3.3320000000000003 243.848 -3.7910000000000004Q244.222 -4.25 244.443 -4.7940000000000005Q244.66400000000002 -5.338 244.732 -5.848000000000001L245.514 -10.472000000000001Q245.582 -10.914000000000001 245.61599999999999 -11.373000000000001Q245.65 -11.832 245.65 -12.274000000000001Q245.65 -12.716000000000001 245.565 -13.141000000000002Q245.48000000000002 -13.566 245.293 -13.957Q245.106 -14.348 244.749 -14.586000000000002Q244.392 -14.824000000000002 243.916 -14.824000000000002Q243.338 -14.824000000000002 242.777 -14.501000000000001Q242.216 -14.178 241.842 -13.651Q241.46800000000002 -13.124 241.264 -12.546Q241.06 -11.968 240.958 -11.356000000000002L240.21 -6.766000000000001Q240.142 -6.3580000000000005 240.108 -5.933Q240.074 -5.508 240.108 -5.1Q240.142 -4.692 240.227 -4.301Q240.312 -3.91 240.49900000000002 -3.5700000000000003Q240.686 -3.2300000000000004 241.06 -3.043Q241.434 -2.8560000000000003 241.876 -2.8560000000000003Z M255.136 0.272Q254.286 0.272 253.572 -0.05099999999999999Q252.858 -0.374 252.399 -1.0030000000000001Q251.94 -1.6320000000000001 251.719 -2.3970000000000002Q251.498 -3.1620000000000004 251.43 -3.9780000000000006Q251.362 -4.7940000000000005 251.43 -5.627000000000001Q251.498 -6.460000000000001 251.63400000000001 -7.276000000000001L252.858 -14.552000000000001H251.97400000000002V-17.68H257.04L255.238 -6.766000000000001Q255.17000000000002 -6.3580000000000005 255.13600000000002 -5.950000000000001Q255.102 -5.542000000000001 255.119 -5.134Q255.136 -4.726 255.204 -4.335Q255.272 -3.9440000000000004 255.459 -3.604Q255.64600000000002 -3.2640000000000002 255.98600000000002 -3.0600000000000005Q256.326 -2.8560000000000003 256.76800000000003 -2.8560000000000003Q257.278 -2.8560000000000003 257.805 -3.111Q258.332 -3.366 258.68899999999996 -3.825Q259.046 -4.284000000000001 259.233 -4.811Q259.42 -5.338 259.488 -5.848000000000001L261.46 -17.68H265.132L262.786 -3.5020000000000002Q262.718 -3.2300000000000004 262.88800000000003 -3.043Q263.058 -2.8560000000000003 263.296 -2.8560000000000003H263.942L263.908 0.272H262.752Q262.072 0.272 261.409 0.136Q260.746 0.0 260.202 -0.35700000000000004Q259.658 -0.7140000000000001 259.33500000000004 -1.3090000000000002Q259.012 -1.9040000000000001 259.012 -2.584Q258.706 -2.0060000000000002 258.332 -1.479Q257.958 -0.9520000000000001 257.448 -0.544Q256.938 -0.136 256.34299999999996 0.068Q255.748 0.272 255.136 0.272Z M269.75600000000003 0.272Q268.906 0.272 268.175 -0.05099999999999999Q267.444 -0.374 266.951 -0.986Q266.458 -1.598 266.237 -2.363Q266.016 -3.128 265.93100000000004 -3.9440000000000004Q265.846 -4.760000000000001 265.914 -5.610000000000001Q265.982 -6.460000000000001 266.118 -7.276000000000001L266.9 -11.9Q267.002 -12.546000000000001 267.155 -13.226Q267.308 -13.906 267.597 -14.569Q267.886 -15.232000000000001 268.294 -15.844000000000001Q268.702 -16.456 269.246 -16.948999999999998Q269.79 -17.442 270.47 -17.697000000000003Q271.15 -17.952 271.83 -17.952Q272.612 -17.952 273.309 -17.68Q274.00600000000003 -17.408 274.499 -16.881Q274.992 -16.354000000000003 275.264 -15.657000000000002Q275.536 -14.96 275.63800000000003 -14.212000000000002L276.216 -17.68H279.88800000000003L277.54200000000003 -3.5020000000000002Q277.474 -3.2300000000000004 277.644 -3.043Q277.814 -2.8560000000000003 278.052 -2.8560000000000003H278.698L278.664 0.272H277.508Q276.82800000000003 0.272 276.165 0.136Q275.502 0.0 274.94100000000003 -0.374Q274.38 -0.748 274.074 -1.343Q273.76800000000003 -1.9380000000000002 273.734 -2.6180000000000003Q273.496 -2.04 273.08799999999997 -1.496Q272.68 -0.9520000000000001 272.153 -0.544Q271.626 -0.136 270.99699999999996 0.068Q270.368 0.272 269.75600000000003 0.272ZM271.388 -2.8560000000000003Q271.932 -2.8560000000000003 272.459 -3.0940000000000003Q272.986 -3.3320000000000003 273.36 -3.7910000000000004Q273.734 -4.25 273.955 -4.7940000000000005Q274.176 -5.338 274.244 -5.848000000000001L275.026 -10.472000000000001Q275.094 -10.914000000000001 275.128 -11.373000000000001Q275.162 -11.832 275.162 -12.274000000000001Q275.162 -12.716000000000001 275.077 -13.141000000000002Q274.992 -13.566 274.805 -13.957Q274.618 -14.348 274.26099999999997 -14.586000000000002Q273.904 -14.824000000000002 273.428 -14.824000000000002Q272.85 -14.824000000000002 272.289 -14.501000000000001Q271.728 -14.178 271.35400000000004 -13.651Q270.98 -13.124 270.776 -12.546Q270.572 -11.968 270.47 -11.356000000000002L269.722 -6.766000000000001Q269.654 -6.3580000000000005 269.62 -5.933Q269.586 -5.508 269.62 -5.1Q269.654 -4.692 269.73900000000003 -4.301Q269.824 -3.91 270.01099999999997 -3.5700000000000003Q270.198 -3.2300000000000004 270.572 -3.043Q270.946 -2.8560000000000003 271.388 -2.8560000000000003Z M282.23400000000004 0.0 284.648 -14.552000000000001H282.71000000000004L282.67600000000004 -17.68H288.86400000000003L288.28600000000006 -14.280000000000001Q288.62600000000003 -14.994000000000002 289.034 -15.64Q289.442 -16.286 290.00300000000004 -16.830000000000002Q290.564 -17.374000000000002 291.278 -17.663000000000004Q291.992 -17.952 292.74 -17.952Q293.28400000000005 -17.952 293.74300000000005 -17.697000000000003Q294.20200000000006 -17.442 294.44000000000005 -17.0Q294.67800000000005 -16.558 294.76300000000003 -16.048000000000002Q294.848 -15.538 294.865 -14.994Q294.88200000000006 -14.450000000000001 294.831 -13.906Q294.78000000000003 -13.362 294.67800000000005 -12.818000000000001H291.00600000000003Q291.074 -13.124 291.091 -13.43Q291.10800000000006 -13.736 291.057 -14.025000000000002Q291.00600000000003 -14.314000000000002 290.836 -14.569000000000003Q290.66600000000005 -14.824000000000002 290.394 -14.824000000000002Q289.918 -14.824000000000002 289.49300000000005 -14.501000000000001Q289.06800000000004 -14.178 288.79600000000005 -13.753Q288.52400000000006 -13.328000000000001 288.33700000000005 -12.886000000000001Q288.15000000000003 -12.444 288.014 -11.985000000000001Q287.87800000000004 -11.526000000000002 287.77600000000007 -11.05Q287.67400000000004 -10.574000000000002 287.60600000000005 -10.132000000000001L285.94000000000005 0.0Z M302.77 0.272Q301.954 0.272 301.18899999999996 0.068Q300.424 -0.136 299.82899999999995 -0.595Q299.234 -1.054 298.86 -1.734Q298.486 -2.414 298.33299999999997 -3.1790000000000003Q298.18 -3.9440000000000004 298.214 -4.760000000000001Q298.248 -5.5760000000000005 298.384 -6.392L299.744 -14.552000000000001H297.5V-17.68H300.254L301.444 -24.990000000000002H305.116L303.926 -17.68H308.686L308.72 -14.552000000000001H303.416L301.954 -5.882000000000001Q301.886 -5.406000000000001 301.852 -4.930000000000001Q301.818 -4.454000000000001 301.91999999999996 -4.0120000000000005Q302.022 -3.5700000000000003 302.31100000000004 -3.213Q302.6 -2.8560000000000003 303.076 -2.8560000000000003Q303.382 -2.8560000000000003 303.671 -3.0940000000000003Q303.96 -3.3320000000000003 304.164 -3.6210000000000004Q304.368 -3.91 304.504 -4.216Q304.64 -4.522 304.74199999999996 -4.845000000000001Q304.844 -5.168 304.929 -5.491Q305.014 -5.814 305.082 -6.154000000000001L308.618 -5.78Q308.482 -5.066000000000001 308.244 -4.352Q308.00600000000003 -3.6380000000000003 307.649 -2.958Q307.29200000000003 -2.278 306.799 -1.649Q306.306 -1.02 305.64300000000003 -0.5780000000000001Q304.98 -0.136 304.249 0.068Q303.51800000000003 0.272 302.77 0.272Z M317.458 0.272Q317.016 0.272 316.625 0.11900000000000001Q316.23400000000004 -0.034 315.86 -0.255Q315.48600000000005 -0.47600000000000003 315.163 -0.7310000000000001Q314.84000000000003 -0.9860000000000001 314.466 -1.207Q314.09200000000004 -1.4280000000000002 313.701 -1.6150000000000002Q313.31000000000006 -1.802 312.90200000000004 -1.9720000000000002L312.59600000000006 0.0H309.468L310.25000000000006 -4.862L319.22600000000006 -12.954Q318.78400000000005 -13.158000000000001 318.37600000000003 -13.413Q317.968 -13.668000000000001 317.62800000000004 -13.940000000000001H317.59400000000005Q317.15200000000004 -14.246 316.67600000000004 -14.535Q316.20000000000005 -14.824000000000002 315.622 -14.824000000000002Q315.35 -14.824000000000002 315.112 -14.620000000000001Q314.874 -14.416 314.721 -14.161000000000001Q314.56800000000004 -13.906 314.48300000000006 -13.651Q314.398 -13.396 314.313 -13.141000000000002Q314.228 -12.886000000000001 314.177 -12.614Q314.12600000000003 -12.342 314.05800000000005 -12.07L313.82000000000005 -10.438H310.93L311.168 -12.07Q311.30400000000003 -12.750000000000002 311.47400000000005 -13.413Q311.644 -14.076 311.933 -14.722000000000001Q312.22200000000004 -15.368 312.61300000000006 -15.963000000000001Q313.004 -16.558 313.548 -17.017000000000003Q314.09200000000004 -17.476000000000003 314.77200000000005 -17.714000000000002Q315.45200000000006 -17.952 316.13200000000006 -17.952Q316.778 -17.952 317.37300000000005 -17.68Q317.968 -17.408 318.495 -17.085Q319.02200000000005 -16.762 319.56600000000003 -16.439Q320.11 -16.116 320.72200000000004 -15.844000000000001L321.028 -17.68H324.15600000000006L323.34000000000003 -12.818000000000001L314.50000000000006 -4.7940000000000005Q314.942 -4.590000000000001 315.367 -4.3180000000000005Q315.79200000000003 -4.046 316.183 -3.74Q316.574 -3.434 317.016 -3.1450000000000005Q317.458 -2.8560000000000003 318.002 -2.8560000000000003Q318.27400000000006 -2.8560000000000003 318.51200000000006 -3.0600000000000005Q318.75000000000006 -3.2640000000000002 318.8860000000001 -3.519Q319.02200000000005 -3.7740000000000005 319.124 -4.029000000000001Q319.22600000000006 -4.284000000000001 319.29400000000004 -4.539000000000001Q319.362 -4.7940000000000005 319.43000000000006 -5.066000000000001Q319.49800000000005 -5.338 319.53200000000004 -5.61L319.80400000000003 -7.242000000000001H322.694L322.422 -5.61Q322.32000000000005 -4.930000000000001 322.13300000000004 -4.267Q321.946 -3.604 321.67400000000004 -2.958Q321.40200000000004 -2.3120000000000003 320.994 -1.717Q320.586 -1.122 320.059 -0.663Q319.53200000000004 -0.20400000000000001 318.83500000000004 0.034Q318.13800000000003 0.272 317.458 0.272Z M327.35200000000003 7.3100000000000005 325.278 4.862Q326.604 3.978 327.777 2.822Q328.95 1.6660000000000001 329.698 0.272Q329.086 0.20400000000000001 328.50800000000004 -0.034Q327.93 -0.272 327.539 -0.7310000000000001Q327.148 -1.1900000000000002 326.961 -1.802Q326.774 -2.414 326.774 -3.0260000000000002Q326.774 -3.2300000000000004 326.791 -3.434Q326.808 -3.6380000000000003 326.842 -3.842Q326.944 -4.386 327.216 -4.896000000000001Q327.488 -5.406000000000001 327.964 -5.746Q328.44 -6.086 329.001 -6.222Q329.562 -6.3580000000000005 330.106 -6.3580000000000005Q330.616 -6.3580000000000005 331.14300000000003 -6.239000000000001Q331.67 -6.12 332.078 -5.848000000000001Q332.486 -5.5760000000000005 332.79200000000003 -5.1850000000000005Q333.098 -4.7940000000000005 333.251 -4.301Q333.404 -3.8080000000000003 333.404 -3.281Q333.404 -2.754 333.302 -2.21Q333.098 -0.8500000000000001 332.605 0.476Q332.112 1.802 331.33000000000004 3.026Q330.548 4.25 329.528 5.321Q328.508 6.392 327.35200000000003 7.3100000000000005Z M357.068 7.582000000000001Q356.32 7.582000000000001 355.572 7.463000000000001Q354.824 7.344 354.19500000000005 7.021000000000001Q353.56600000000003 6.698 353.073 6.171Q352.58 5.644 352.325 4.981Q352.07 4.3180000000000005 352.002 3.5700000000000003Q351.934 2.822 352.07 2.04V1.9040000000000001H355.708V1.9720000000000002Q355.64 2.414 355.69100000000003 2.856Q355.742 3.298 355.929 3.672Q356.116 4.046 356.507 4.25Q356.898 4.454000000000001 357.34000000000003 4.454000000000001Q357.714 4.454000000000001 358.071 4.25Q358.428 4.046 358.683 3.7230000000000003Q358.938 3.4000000000000004 359.125 3.043Q359.312 2.6860000000000004 359.43100000000004 2.3120000000000003Q359.55 1.9380000000000002 359.635 1.5810000000000002Q359.72 1.2240000000000002 359.788 0.8500000000000001L362.338 -14.552000000000001H358.76800000000003V-17.68H366.52L363.358 1.36Q363.222 2.108 363.001 2.89Q362.78000000000003 3.672 362.389 4.386Q361.998 5.1000000000000005 361.437 5.729000000000001Q360.87600000000003 6.3580000000000005 360.16200000000003 6.783Q359.448 7.208 358.649 7.3950000000000005Q357.85 7.582000000000001 357.068 7.582000000000001ZM365.228 -20.060000000000002Q364.582 -20.060000000000002 364.004 -20.298000000000002Q363.426 -20.536 363.03499999999997 -21.012Q362.644 -21.488000000000003 362.55899999999997 -22.134Q362.474 -22.78 362.576 -23.426000000000002Q362.644 -23.902 362.882 -24.310000000000002Q363.12 -24.718000000000004 363.51099999999997 -25.007000000000005Q363.902 -25.296000000000003 364.344 -25.398000000000003Q364.786 -25.500000000000004 365.262 -25.500000000000004Q365.908 -25.500000000000004 366.50300000000004 -25.262Q367.098 -25.024 367.472 -24.548000000000002Q367.846 -24.072000000000003 367.948 -23.426000000000002Q368.05 -22.78 367.914 -22.134Q367.846 -21.658 367.608 -21.25Q367.37 -20.842000000000002 366.97900000000004 -20.553000000000004Q366.588 -20.264000000000003 366.146 -20.162000000000003Q365.704 -20.060000000000002 365.228 -20.060000000000002Z M373.184 0.272Q372.33400000000006 0.272 371.62000000000006 -0.05099999999999999Q370.90600000000006 -0.374 370.44700000000006 -1.0030000000000001Q369.98800000000006 -1.6320000000000001 369.76700000000005 -2.3970000000000002Q369.54600000000005 -3.1620000000000004 369.47800000000007 -3.9780000000000006Q369.41 -4.7940000000000005 369.47800000000007 -5.627000000000001Q369.54600000000005 -6.460000000000001 369.682 -7.276000000000001L370.90600000000006 -14.552000000000001H370.02200000000005V-17.68H375.088L373.28600000000006 -6.766000000000001Q373.218 -6.3580000000000005 373.184 -5.950000000000001Q373.15000000000003 -5.542000000000001 373.16700000000003 -5.134Q373.184 -4.726 373.25200000000007 -4.335Q373.32000000000005 -3.9440000000000004 373.50700000000006 -3.604Q373.694 -3.2640000000000002 374.034 -3.0600000000000005Q374.374 -2.8560000000000003 374.81600000000003 -2.8560000000000003Q375.326 -2.8560000000000003 375.85300000000007 -3.111Q376.38000000000005 -3.366 376.7370000000001 -3.825Q377.09400000000005 -4.284000000000001 377.28100000000006 -4.811Q377.468 -5.338 377.53600000000006 -5.848000000000001L379.50800000000004 -17.68H383.18000000000006L380.83400000000006 -3.5020000000000002Q380.766 -3.2300000000000004 380.93600000000004 -3.043Q381.10600000000005 -2.8560000000000003 381.34400000000005 -2.8560000000000003H381.99L381.956 0.272H380.8Q380.12000000000006 0.272 379.45700000000005 0.136Q378.79400000000004 0.0 378.25 -0.35700000000000004Q377.706 -0.7140000000000001 377.38300000000004 -1.3090000000000002Q377.06000000000006 -1.9040000000000001 377.06000000000006 -2.584Q376.754 -2.0060000000000002 376.38 -1.479Q376.00600000000003 -0.9520000000000001 375.49600000000004 -0.544Q374.98600000000005 -0.136 374.3910000000001 0.068Q373.79600000000005 0.272 373.184 0.272Z M387.80400000000003 0.272Q386.954 0.272 386.223 -0.05099999999999999Q385.492 -0.374 384.999 -0.986Q384.50600000000003 -1.598 384.285 -2.363Q384.064 -3.128 383.97900000000004 -3.9440000000000004Q383.894 -4.760000000000001 383.962 -5.610000000000001Q384.03000000000003 -6.460000000000001 384.166 -7.276000000000001L384.948 -11.9Q385.05 -12.546000000000001 385.203 -13.226Q385.356 -13.906 385.645 -14.569Q385.934 -15.232000000000001 386.342 -15.844000000000001Q386.75 -16.456 387.294 -16.948999999999998Q387.838 -17.442 388.51800000000003 -17.697000000000003Q389.198 -17.952 389.878 -17.952Q390.66 -17.952 391.357 -17.68Q392.05400000000003 -17.408 392.547 -16.881Q393.04 -16.354000000000003 393.312 -15.657000000000002Q393.584 -14.96 393.68600000000004 -14.212000000000002L394.944 -21.862000000000002H394.06V-24.990000000000002H399.12600000000003L395.59000000000003 -3.5020000000000002Q395.522 -3.2300000000000004 395.692 -3.043Q395.862 -2.8560000000000003 396.1 -2.8560000000000003H396.746L396.712 0.272H395.556Q394.87600000000003 0.272 394.213 0.136Q393.55 0.0 392.98900000000003 -0.374Q392.428 -0.748 392.122 -1.343Q391.81600000000003 -1.9380000000000002 391.782 -2.6180000000000003Q391.544 -2.04 391.13599999999997 -1.496Q390.728 -0.9520000000000001 390.201 -0.544Q389.674 -0.136 389.04499999999996 0.068Q388.416 0.272 387.80400000000003 0.272ZM389.436 -2.8560000000000003Q389.98 -2.8560000000000003 390.507 -3.0940000000000003Q391.034 -3.3320000000000003 391.408 -3.7910000000000004Q391.782 -4.25 392.003 -4.7940000000000005Q392.224 -5.338 392.29200000000003 -5.848000000000001L393.074 -10.472000000000001Q393.142 -10.914000000000001 393.176 -11.373000000000001Q393.21 -11.832 393.21 -12.274000000000001Q393.21 -12.716000000000001 393.125 -13.141000000000002Q393.04 -13.566 392.853 -13.957Q392.666 -14.348 392.30899999999997 -14.586000000000002Q391.952 -14.824000000000002 391.476 -14.824000000000002Q390.898 -14.824000000000002 390.337 -14.501000000000001Q389.776 -14.178 389.40200000000004 -13.651Q389.028 -13.124 388.824 -12.546Q388.62 -11.968 388.51800000000003 -11.356000000000002L387.77 -6.766000000000001Q387.702 -6.3580000000000005 387.668 -5.933Q387.634 -5.508 387.668 -5.1Q387.702 -4.692 387.78700000000003 -4.301Q387.872 -3.91 388.05899999999997 -3.5700000000000003Q388.246 -3.2300000000000004 388.62 -3.043Q388.994 -2.8560000000000003 389.436 -2.8560000000000003Z M402.934 7.582000000000001Q402.15200000000004 7.582000000000001 401.42100000000005 7.48Q400.69000000000005 7.378 400.01000000000005 7.106Q399.33000000000004 6.8340000000000005 398.803 6.392Q398.276 5.95 397.93600000000004 5.321Q397.59600000000006 4.692 397.494 3.9610000000000003Q397.39200000000005 3.2300000000000004 397.528 2.482V2.414H401.16600000000005V2.4480000000000004Q401.098 2.8560000000000003 401.217 3.2640000000000002Q401.336 3.672 401.625 3.944Q401.91400000000004 4.216 402.322 4.335000000000001Q402.73 4.454000000000001 403.172 4.454000000000001Q403.54600000000005 4.454000000000001 403.937 4.301Q404.32800000000003 4.148000000000001 404.6170000000001 3.8590000000000004Q404.90600000000006 3.5700000000000003 405.12700000000007 3.2300000000000004Q405.348 2.89 405.50100000000003 2.516Q405.65400000000005 2.1420000000000003 405.7560000000001 1.7680000000000002Q405.85800000000006 1.3940000000000001 405.92600000000004 0.9860000000000001L406.504 -2.4480000000000004Q406.19800000000004 -1.87 405.7900000000001 -1.36Q405.38200000000006 -0.8500000000000001 404.87200000000007 -0.47600000000000003Q404.362 -0.10200000000000001 403.75 0.085Q403.13800000000003 0.272 402.56000000000006 0.272Q401.71000000000004 0.272 400.97900000000004 -0.05099999999999999Q400.24800000000005 -0.374 399.75500000000005 -0.986Q399.26200000000006 -1.598 399.04100000000005 -2.363Q398.82000000000005 -3.128 398.735 -3.9440000000000004Q398.65000000000003 -4.760000000000001 398.7180000000001 -5.610000000000001Q398.78600000000006 -6.460000000000001 398.922 -7.276000000000001L399.704 -11.9Q399.80600000000004 -12.546000000000001 399.95900000000006 -13.226Q400.112 -13.906 400.40100000000007 -14.569Q400.69000000000005 -15.232000000000001 401.09800000000007 -15.844000000000001Q401.50600000000003 -16.456 402.05000000000007 -16.948999999999998Q402.59400000000005 -17.442 403.274 -17.697000000000003Q403.954 -17.952 404.634 -17.952Q405.41600000000005 -17.952 406.11300000000006 -17.68Q406.81000000000006 -17.408 407.30300000000005 -16.881Q407.79600000000005 -16.354000000000003 408.06800000000004 -15.657000000000002Q408.34000000000003 -14.96 408.442 -14.212000000000002L409.02000000000004 -17.68H412.692L409.49600000000004 1.53Q409.36 2.3120000000000003 409.122 3.077Q408.884 3.842 408.45900000000006 4.556Q408.03400000000005 5.2700000000000005 407.40500000000003 5.882000000000001Q406.776 6.494000000000001 406.028 6.885000000000001Q405.28000000000003 7.276000000000001 404.49800000000005 7.429Q403.716 7.582000000000001 402.934 7.582000000000001ZM404.192 -2.8560000000000003Q404.73600000000005 -2.8560000000000003 405.26300000000003 -3.0940000000000003Q405.79 -3.3320000000000003 406.164 -3.7910000000000004Q406.538 -4.25 406.759 -4.7940000000000005Q406.98 -5.338 407.04800000000006 -5.848000000000001L407.83000000000004 -10.472000000000001Q407.898 -10.914000000000001 407.932 -11.373000000000001Q407.966 -11.832 407.966 -12.274000000000001Q407.966 -12.716000000000001 407.88100000000003 -13.141000000000002Q407.79600000000005 -13.566 407.60900000000004 -13.957Q407.422 -14.348 407.06500000000005 -14.586000000000002Q406.708 -14.824000000000002 406.232 -14.824000000000002Q405.65400000000005 -14.824000000000002 405.0930000000001 -14.501000000000001Q404.53200000000004 -14.178 404.158 -13.651Q403.78400000000005 -13.124 403.58000000000004 -12.546Q403.37600000000003 -11.968 403.27400000000006 -11.356000000000002L402.526 -6.766000000000001Q402.458 -6.3580000000000005 402.42400000000004 -5.933Q402.39000000000004 -5.508 402.42400000000004 -5.1Q402.458 -4.692 402.543 -4.301Q402.62800000000004 -3.91 402.81500000000005 -3.5700000000000003Q403.002 -3.2300000000000004 403.37600000000003 -3.043Q403.75000000000006 -2.8560000000000003 404.192 -2.8560000000000003Z M419.22 0.272Q418.26800000000003 0.272 417.333 0.068Q416.398 -0.136 415.66700000000003 -0.629Q414.936 -1.122 414.426 -1.87Q413.916 -2.6180000000000003 413.695 -3.519Q413.474 -4.42 413.50800000000004 -5.372Q413.54200000000003 -6.324000000000001 413.678 -7.276000000000001L414.46 -11.9Q414.562 -12.648000000000001 414.817 -13.430000000000001Q415.072 -14.212000000000002 415.48 -14.926000000000002Q415.88800000000003 -15.64 416.5 -16.235Q417.112 -16.830000000000002 417.843 -17.238Q418.574 -17.646 419.356 -17.799Q420.13800000000003 -17.952 420.92 -17.952Q421.77 -17.952 422.56899999999996 -17.816000000000003Q423.368 -17.68 424.065 -17.323Q424.762 -16.966 425.289 -16.388Q425.81600000000003 -15.81 426.105 -15.079Q426.394 -14.348 426.411 -13.515Q426.428 -12.682 426.29200000000003 -11.866000000000001Q426.156 -10.982000000000001 425.74800000000005 -10.149000000000001Q425.34000000000003 -9.316 424.62600000000003 -8.704Q423.91200000000003 -8.092 423.028 -7.7860000000000005Q422.144 -7.48 421.27700000000004 -7.276000000000001Q420.41 -7.072000000000001 419.543 -6.953000000000001Q418.676 -6.8340000000000005 417.79200000000003 -6.8340000000000005Q417.656 -6.8340000000000005 417.53700000000003 -6.851000000000001Q417.418 -6.868 417.282 -6.868V-6.766000000000001Q417.214 -6.324000000000001 417.18 -5.865Q417.146 -5.406000000000001 417.214 -4.981Q417.282 -4.556 417.452 -4.148Q417.622 -3.74 417.911 -3.4510000000000005Q418.2 -3.1620000000000004 418.625 -3.0090000000000003Q419.05 -2.8560000000000003 419.492 -2.8560000000000003Q420.036 -2.8560000000000003 420.58000000000004 -3.111Q421.124 -3.366 421.53200000000004 -3.7910000000000004Q421.94 -4.216 422.22900000000004 -4.743Q422.51800000000003 -5.2700000000000005 422.722 -5.814L425.884 -4.590000000000001Q425.476 -3.5700000000000003 424.83000000000004 -2.6350000000000002Q424.184 -1.7000000000000002 423.283 -1.02Q422.382 -0.34 421.328 -0.034Q420.274 0.272 419.22 0.272ZM417.826 -10.166Q418.2 -10.166 418.557 -10.2Q418.914 -10.234 419.27099999999996 -10.285Q419.628 -10.336 419.985 -10.404Q420.342 -10.472000000000001 420.69899999999996 -10.557000000000002Q421.056 -10.642000000000001 421.39599999999996 -10.795000000000002Q421.736 -10.948 422.025 -11.186Q422.314 -11.424000000000001 422.501 -11.764000000000001Q422.688 -12.104000000000001 422.722 -12.478000000000002Q422.824 -12.920000000000002 422.756 -13.362000000000002Q422.688 -13.804 422.433 -14.144000000000002Q422.178 -14.484000000000002 421.78700000000003 -14.654000000000002Q421.396 -14.824000000000002 420.92 -14.824000000000002Q420.342 -14.824000000000002 419.781 -14.484000000000002Q419.22 -14.144000000000002 418.88 -13.634Q418.54 -13.124 418.336 -12.546Q418.132 -11.968 418.03000000000003 -11.356000000000002Z M441.898 0.0 444.38 -14.994000000000002H443.53000000000003V-17.68H447.95L447.712 -16.32Q447.916 -16.66 448.171 -16.966Q448.426 -17.272000000000002 448.73199999999997 -17.493000000000002Q449.038 -17.714000000000002 449.395 -17.833000000000002Q449.752 -17.952 450.092 -17.952Q450.568 -17.952 450.959 -17.731Q451.35 -17.51 451.554 -17.136000000000003Q451.758 -16.762 451.86 -16.32Q451.962 -15.878000000000002 451.996 -15.436000000000002Q452.166 -15.878000000000002 452.404 -16.337000000000003Q452.642 -16.796000000000003 453.01599999999996 -17.153000000000002Q453.39 -17.51 453.849 -17.731Q454.308 -17.952 454.784 -17.952Q455.32800000000003 -17.952 455.736 -17.646Q456.144 -17.34 456.365 -16.881Q456.586 -16.422 456.654 -15.895Q456.722 -15.368 456.705 -14.841000000000001Q456.688 -14.314000000000002 456.637 -13.787000000000003Q456.586 -13.260000000000002 456.51800000000003 -12.716000000000001L454.85200000000003 -2.6860000000000004H455.702V0.0H451.282L453.458 -13.226Q453.492 -13.430000000000001 453.509 -13.617Q453.526 -13.804 453.543 -14.008000000000001Q453.56 -14.212000000000002 453.543 -14.399000000000001Q453.526 -14.586 453.492 -14.773Q453.458 -14.96 453.33900000000006 -15.113000000000001Q453.22 -15.266000000000002 453.016 -15.266000000000002Q452.812 -15.266000000000002 452.659 -15.113000000000001Q452.50600000000003 -14.96 452.404 -14.773Q452.302 -14.586 452.217 -14.399000000000001Q452.132 -14.212000000000002 452.081 -14.008000000000001Q452.03000000000003 -13.804 451.97900000000004 -13.600000000000001Q451.928 -13.396 451.894 -13.192L449.718 0.0H446.59000000000003L448.766 -13.226Q448.8 -13.430000000000001 448.817 -13.617Q448.834 -13.804 448.851 -14.008000000000001Q448.868 -14.212000000000002 448.851 -14.399000000000001Q448.834 -14.586 448.8 -14.773Q448.766 -14.96 448.64700000000005 -15.113000000000001Q448.528 -15.266000000000002 448.324 -15.266000000000002Q448.12 -15.266000000000002 447.967 -15.113000000000001Q447.814 -14.96 447.712 -14.773Q447.61 -14.586 447.525 -14.399000000000001Q447.44 -14.212000000000002 447.389 -14.008000000000001Q447.338 -13.804 447.28700000000003 -13.600000000000001Q447.236 -13.396 447.202 -13.192L445.026 0.0Z M461.958 7.582000000000001Q461.17600000000004 7.582000000000001 460.44500000000005 7.48Q459.71400000000006 7.378 459.03400000000005 7.106Q458.35400000000004 6.8340000000000005 457.827 6.392Q457.3 5.95 456.96000000000004 5.321Q456.62000000000006 4.692 456.51800000000003 3.9610000000000003Q456.41600000000005 3.2300000000000004 456.552 2.482V2.414H460.19000000000005V2.4480000000000004Q460.122 2.8560000000000003 460.241 3.2640000000000002Q460.36 3.672 460.649 3.944Q460.93800000000005 4.216 461.346 4.335000000000001Q461.754 4.454000000000001 462.196 4.454000000000001Q462.57000000000005 4.454000000000001 462.961 4.301Q463.35200000000003 4.148000000000001 463.6410000000001 3.8590000000000004Q463.93000000000006 3.5700000000000003 464.15100000000007 3.2300000000000004Q464.372 2.89 464.52500000000003 2.516Q464.67800000000005 2.1420000000000003 464.7800000000001 1.7680000000000002Q464.88200000000006 1.3940000000000001 464.95000000000005 0.9860000000000001L465.494 -2.3800000000000003Q465.22200000000004 -1.836 464.831 -1.343Q464.44000000000005 -0.8500000000000001 463.94700000000006 -0.47600000000000003Q463.45400000000006 -0.10200000000000001 462.8760000000001 0.085Q462.29800000000006 0.272 461.72 0.272Q460.87000000000006 0.272 460.15600000000006 -0.05099999999999999Q459.442 -0.374 458.98300000000006 -1.0030000000000001Q458.52400000000006 -1.6320000000000001 458.30300000000005 -2.3970000000000002Q458.08200000000005 -3.1620000000000004 458.014 -3.9780000000000006Q457.946 -4.7940000000000005 458.014 -5.627000000000001Q458.08200000000005 -6.460000000000001 458.218 -7.276000000000001L459.442 -14.552000000000001H458.55800000000005V-17.68H463.624L461.82200000000006 -6.766000000000001Q461.754 -6.3580000000000005 461.72 -5.950000000000001Q461.68600000000004 -5.542000000000001 461.70300000000003 -5.134Q461.72 -4.726 461.788 -4.335Q461.85600000000005 -3.9440000000000004 462.043 -3.604Q462.23 -3.2640000000000002 462.57000000000005 -3.0600000000000005Q462.91 -2.8560000000000003 463.35200000000003 -2.8560000000000003Q463.862 -2.8560000000000003 464.389 -3.111Q464.91600000000005 -3.366 465.273 -3.825Q465.63000000000005 -4.284000000000001 465.817 -4.811Q466.004 -5.338 466.07200000000006 -5.848000000000001L468.04400000000004 -17.68H471.716L468.52000000000004 1.53Q468.384 2.3120000000000003 468.146 3.077Q467.908 3.842 467.48300000000006 4.556Q467.05800000000005 5.2700000000000005 466.42900000000003 5.882000000000001Q465.8 6.494000000000001 465.052 6.885000000000001Q464.30400000000003 7.276000000000001 463.52200000000005 7.429Q462.74 7.582000000000001 461.958 7.582000000000001Z M490.314 0.0 489.29400000000004 -14.552000000000001H488.172L488.13800000000003 -17.68H492.83000000000004L493.10200000000003 -5.882000000000001Q493.136 -5.542000000000001 493.136 -5.1850000000000005Q493.136 -4.828 493.136 -4.454000000000001Q493.27200000000005 -4.828 493.408 -5.1850000000000005Q493.54400000000004 -5.542000000000001 493.646 -5.882000000000001L497.862 -17.68H501.636L494.53000000000003 0.0Z M507.552 0.272Q506.6 0.272 505.699 0.068Q504.798 -0.136 504.084 -0.6460000000000001Q503.37 -1.1560000000000001 502.911 -1.9210000000000003Q502.452 -2.6860000000000004 502.231 -3.5700000000000003Q502.01 -4.454000000000001 502.044 -5.389000000000001Q502.07800000000003 -6.324000000000001 502.214 -7.276000000000001L502.996 -11.9Q503.098 -12.682 503.353 -13.464Q503.608 -14.246 504.05 -14.96Q504.492 -15.674000000000001 505.13800000000003 -16.269000000000002Q505.784 -16.864 506.53200000000004 -17.255000000000003Q507.28000000000003 -17.646 508.079 -17.799Q508.878 -17.952 509.694 -17.952Q510.646 -17.952 511.547 -17.748Q512.448 -17.544 513.162 -17.034Q513.876 -16.524 514.352 -15.759Q514.828 -14.994000000000002 515.0319999999999 -14.110000000000001Q515.236 -13.226 515.219 -12.291Q515.202 -11.356000000000002 515.032 -10.404L514.284 -5.78Q514.148 -4.998 513.893 -4.216Q513.638 -3.434 513.196 -2.72Q512.754 -2.0060000000000002 512.125 -1.411Q511.496 -0.8160000000000001 510.748 -0.42500000000000004Q510.0 -0.034 509.18399999999997 0.11900000000000001Q508.368 0.272 507.552 0.272ZM507.586 -2.8560000000000003Q508.19800000000004 -2.8560000000000003 508.793 -3.1620000000000004Q509.38800000000003 -3.4680000000000004 509.779 -3.9780000000000006Q510.17 -4.488 510.391 -5.1000000000000005Q510.612 -5.712000000000001 510.714 -6.324000000000001L511.462 -10.914000000000001Q511.53000000000003 -11.322000000000001 511.564 -11.747Q511.598 -12.172 511.564 -12.597000000000001Q511.53000000000003 -13.022 511.428 -13.413Q511.326 -13.804 511.088 -14.127Q510.85 -14.450000000000001 510.49300000000005 -14.637Q510.136 -14.824000000000002 509.694 -14.824000000000002Q509.082 -14.824000000000002 508.48699999999997 -14.518Q507.892 -14.212000000000002 507.501 -13.702000000000002Q507.11 -13.192 506.889 -12.58Q506.668 -11.968 506.56600000000003 -11.356000000000002L505.818 -6.766000000000001Q505.75 -6.3580000000000005 505.716 -5.933Q505.682 -5.508 505.699 -5.083Q505.716 -4.658 505.83500000000004 -4.267Q505.954 -3.8760000000000003 506.175 -3.5530000000000004Q506.396 -3.2300000000000004 506.77 -3.043Q507.144 -2.8560000000000003 507.586 -2.8560000000000003Z M526.2180000000001 0.0H523.3280000000001L523.294 -8.364L520.5400000000001 0.0H517.6500000000001L517.99 -14.552000000000001H516.936V-17.68H521.4920000000001L520.268 -5.61L522.614 -12.716000000000001H525.47L525.436 -5.61L528.224 -17.68H531.658Z M537.166 0.272Q536.6560000000001 0.272 536.163 0.15300000000000002Q535.67 0.034 535.2280000000001 -0.22100000000000003Q534.7860000000001 -0.47600000000000003 534.4970000000001 -0.884Q534.208 -1.292 534.0550000000001 -1.7680000000000002Q533.902 -2.244 533.885 -2.771Q533.868 -3.298 533.936 -3.842Q534.038 -4.386 534.31 -4.896000000000001Q534.582 -5.406000000000001 535.058 -5.746Q535.534 -6.086 536.095 -6.222Q536.6560000000001 -6.3580000000000005 537.2 -6.3580000000000005Q537.71 -6.3580000000000005 538.22 -6.239000000000001Q538.73 -6.12 539.155 -5.848000000000001Q539.58 -5.5760000000000005 539.869 -5.1850000000000005Q540.158 -4.7940000000000005 540.311 -4.301Q540.464 -3.8080000000000003 540.481 -3.281Q540.498 -2.754 540.4300000000001 -2.244Q540.328 -1.7000000000000002 540.056 -1.1900000000000002Q539.784 -0.68 539.308 -0.323Q538.832 0.034 538.271 0.15300000000000002Q537.71 0.272 537.166 0.272Z"/>
  </g>
</svg>
