<svg xmlns="http://www.w3.org/2000/svg" width="947" height="81" viewBox="0 0 947 81" role="img" aria-labelledby="title desc">
  <title id="title">Pixel Iosevka Slab 24 preview</title>
  <desc id="desc">Sphinx of black quartz, judge my vow.</desc>
  <rect width="100%" height="100%" rx="10" fill="#0d1117"/>
  <g transform="translate(24.00 51.04)" fill="#f0f6fc">
    <path d="M3.5360000000000005 -31.042H12.376000000000001V-27.506H3.5360000000000005ZM14.144000000000002 -31.042H15.912V-22.202H14.144000000000002ZM1.7680000000000002 -29.274H3.5360000000000005V-16.898H1.7680000000000002ZM12.376000000000001 -29.274H14.144000000000002V-23.970000000000002H12.376000000000001ZM15.912 -29.274H17.68V-23.970000000000002H15.912ZM3.5360000000000005 -27.506H7.072000000000001V-25.738000000000003H3.5360000000000005ZM3.5360000000000005 -25.738000000000003H5.304V-15.13H3.5360000000000005ZM0.0 -23.970000000000002H1.7680000000000002V-22.202H0.0ZM5.304 -18.666H8.84V-13.362H5.304ZM8.84 -16.898H10.608V-11.594000000000001H8.84ZM10.608 -15.13H14.144000000000002V-11.594000000000001H10.608ZM14.144000000000002 -13.362H15.912V-0.9860000000000001H14.144000000000002ZM12.376000000000001 -11.594000000000001H14.144000000000002V0.782H12.376000000000001ZM15.912 -9.826H17.68V-4.522H15.912ZM1.7680000000000002 -8.058H3.5360000000000005V0.782H1.7680000000000002ZM0.0 -6.29H1.7680000000000002V0.782H0.0ZM3.5360000000000005 -6.29H5.304V0.782H3.5360000000000005ZM5.304 -2.754H12.376000000000001V0.782H5.304Z M24.786 -22.202H30.090000000000003V-18.666H24.786ZM33.626000000000005 -22.202H38.93000000000001V-18.666H33.626000000000005ZM30.090000000000003 -20.434H33.626000000000005V-16.898H30.090000000000003ZM38.93000000000001 -20.434H40.698V0.782H38.93000000000001ZM26.554000000000002 -18.666H30.090000000000003V9.622H26.554000000000002ZM37.162000000000006 -18.666H38.93000000000001V-15.13H37.162000000000006ZM40.698 -18.666H42.466V-0.9860000000000001H40.698ZM30.090000000000003 -16.898H31.858000000000004V-15.13H30.090000000000003ZM30.090000000000003 -6.29H31.858000000000004V0.782H30.090000000000003ZM37.162000000000006 -4.522H38.93000000000001V0.782H37.162000000000006ZM31.858000000000004 -2.754H37.162000000000006V0.782H31.858000000000004ZM24.786 6.086H26.554000000000002V9.622H24.786ZM30.090000000000003 6.086H31.858000000000004V9.622H30.090000000000003ZM31.858000000000004 7.854000000000001H33.626000000000005V9.622H31.858000000000004Z M49.572 -31.042H56.644000000000005V-27.506H49.572ZM51.34 -27.506H56.644000000000005V0.782H51.34ZM58.412000000000006 -22.202H63.71600000000001V-18.666H58.412000000000006ZM56.644000000000005 -20.434H58.412000000000006V-16.898H56.644000000000005ZM63.71600000000001 -20.434H65.48400000000001V0.782H63.71600000000001ZM61.94800000000001 -18.666H63.71600000000001V-16.898H61.94800000000001ZM65.48400000000001 -18.666H67.25200000000001V0.782H65.48400000000001ZM67.25200000000001 -15.13H69.02000000000001V0.782H67.25200000000001ZM49.572 -2.754H51.34V0.782H49.572ZM56.644000000000005 -2.754H58.412000000000006V0.782H56.644000000000005ZM61.94800000000001 -2.754H63.71600000000001V0.782H61.94800000000001ZM69.02000000000001 -2.754H70.78800000000001V0.782H69.02000000000001Z M79.662 -31.042H83.19800000000001V-25.738000000000003H79.662ZM77.894 -29.274H79.662V-27.506H77.894ZM83.19800000000001 -29.274H84.96600000000001V-25.738000000000003H83.19800000000001ZM81.43 -25.738000000000003H83.19800000000001V-23.970000000000002H81.43ZM74.358 -22.202H83.19800000000001V-18.666H74.358ZM79.662 -18.666H83.19800000000001V0.782H79.662ZM74.358 -2.754H79.662V0.782H74.358ZM83.19800000000001 -2.754H88.50200000000001V0.782H83.19800000000001Z M100.912 -22.202H104.44800000000001V0.782H100.912ZM107.98400000000001 -22.202H113.28800000000001V-18.666H107.98400000000001ZM99.144 -20.434H100.912V-18.666H99.144ZM104.44800000000001 -20.434H107.98400000000001V-16.898H104.44800000000001ZM113.28800000000001 -20.434H115.05600000000001V0.782H113.28800000000001ZM111.52000000000001 -18.666H113.28800000000001V-16.898H111.52000000000001ZM115.05600000000001 -18.666H116.82400000000001V0.782H115.05600000000001ZM104.44800000000001 -16.898H106.21600000000001V0.782H104.44800000000001ZM116.82400000000001 -15.13H118.59200000000001V0.782H116.82400000000001ZM99.144 -2.754H100.912V0.782H99.144ZM106.21600000000001 -2.754H107.98400000000001V0.782H106.21600000000001ZM111.52000000000001 -2.754H113.28800000000001V0.782H111.52000000000001ZM118.59200000000001 -2.754H120.36000000000001V0.782H118.59200000000001Z M125.69800000000001 -22.202H132.77V-18.666H125.69800000000001ZM136.306 -22.202H143.37800000000001V-18.666H136.306ZM123.93 -20.434H125.69800000000001V-18.666H123.93ZM143.37800000000001 -20.434H145.14600000000002V-18.666H143.37800000000001ZM127.46600000000001 -18.666H132.77V-16.898H127.46600000000001ZM136.306 -18.666H141.61V-16.898H136.306ZM129.234 -16.898H132.77V-15.13H129.234ZM136.306 -16.898H139.842V-15.13H136.306ZM131.002 -15.13H138.074V-11.594000000000001H131.002ZM132.77 -11.594000000000001H136.306V-4.522H132.77ZM131.002 -9.826H132.77V0.782H131.002ZM136.306 -9.826H138.074V0.782H136.306ZM129.234 -6.29H131.002V0.782H129.234ZM138.074 -6.29H139.842V0.782H138.074ZM123.93 -2.754H129.234V0.782H123.93ZM139.842 -2.754H145.14600000000002V0.782H139.842Z M178.806 -22.202H185.87800000000001V-18.666H178.806ZM177.038 -20.434H178.806V0.782H177.038ZM185.87800000000001 -20.434H187.64600000000002V0.782H185.87800000000001ZM175.27 -18.666H177.038V-0.9860000000000001H175.27ZM178.806 -18.666H180.574V-16.898H178.806ZM184.11 -18.666H185.87800000000001V-16.898H184.11ZM187.64600000000002 -18.666H189.41400000000002V-0.9860000000000001H187.64600000000002ZM173.502 -16.898H175.27V-4.522H173.502ZM189.41400000000002 -16.898H191.18200000000002V-4.522H189.41400000000002ZM178.806 -2.754H185.87800000000001V0.782H178.806Z M207.12800000000001 -31.042H212.43200000000002V-27.506H207.12800000000001ZM205.36 -29.274H207.12800000000001V0.782H205.36ZM212.43200000000002 -29.274H214.20000000000002V-23.970000000000002H212.43200000000002ZM203.592 -27.506H205.36V0.782H203.592ZM207.12800000000001 -27.506H208.89600000000002V-25.738000000000003H207.12800000000001ZM210.66400000000002 -27.506H212.43200000000002V-25.738000000000003H210.66400000000002ZM214.20000000000002 -27.506H215.96800000000002V-23.970000000000002H214.20000000000002ZM200.056 -20.434H203.592V-16.898H200.056ZM207.12800000000001 -20.434H214.20000000000002V-16.898H207.12800000000001ZM198.288 -18.666H200.056V-16.898H198.288ZM207.12800000000001 -16.898H208.89600000000002V-15.13H207.12800000000001ZM200.056 -2.754H203.592V0.782H200.056ZM207.12800000000001 -2.754H212.43200000000002V0.782H207.12800000000001Z M247.86 -31.042H254.93200000000002V-27.506H247.86ZM249.62800000000001 -27.506H253.16400000000002V0.782H249.62800000000001ZM256.7 -22.202H262.004V-18.666H256.7ZM253.16400000000002 -20.434H256.7V-16.898H253.16400000000002ZM262.004 -20.434H263.772V0.782H262.004ZM260.236 -18.666H262.004V-15.13H260.236ZM263.772 -18.666H265.54V-0.9860000000000001H263.772ZM253.16400000000002 -16.898H254.93200000000002V-15.13H253.16400000000002ZM253.16400000000002 -6.29H254.93200000000002V0.782H253.16400000000002ZM260.236 -4.522H262.004V0.782H260.236ZM247.86 -2.754H249.62800000000001V0.782H247.86ZM254.93200000000002 -2.754H260.236V0.782H254.93200000000002Z M272.646 -31.042H281.486V-27.506H272.646ZM277.95 -27.506H281.486V0.782H277.95ZM272.646 -2.754H277.95V0.782H272.646ZM281.486 -2.754H286.79V0.782H281.486Z M302.736 -22.202H309.808V-18.666H302.736ZM299.2 -20.434H302.736V-15.13H299.2ZM309.808 -20.434H311.576V0.782H309.808ZM302.736 -18.666H304.504V-16.898H302.736ZM308.04 -18.666H309.808V-16.898H308.04ZM311.576 -18.666H313.344V0.782H311.576ZM297.432 -16.898H299.2V-15.13H297.432ZM313.344 -15.13H315.112V0.782H313.344ZM304.504 -13.362H309.808V-9.826H304.504ZM300.968 -11.594000000000001H304.504V-8.058H300.968ZM299.2 -9.826H300.968V-0.9860000000000001H299.2ZM304.504 -9.826H306.272V-8.058H304.504ZM297.432 -8.058H299.2V-2.754H297.432ZM300.968 -8.058H302.736V0.782H300.968ZM302.736 -2.754H309.808V0.782H302.736ZM315.112 -2.754H316.88V0.782H315.112Z M327.522 -22.202H332.826V-18.666H327.522ZM336.362 -22.202H338.13V-13.362H336.362ZM323.986 -20.434H327.522V-0.9860000000000001H323.986ZM332.826 -20.434H336.362V-16.898H332.826ZM338.13 -20.434H339.898V-13.362H338.13ZM327.522 -18.666H329.29V-16.898H327.522ZM322.218 -16.898H323.986V-4.522H322.218ZM334.594 -16.898H336.362V-13.362H334.594ZM336.362 -8.058H338.13V-0.9860000000000001H336.362ZM334.594 -6.29H336.362V0.782H334.594ZM338.13 -6.29H339.898V-4.522H338.13ZM327.522 -2.754H334.594V0.782H327.522ZM325.754 -0.9860000000000001H327.522V0.782H325.754Z M347.004 -31.042H352.308V-27.506H347.004ZM348.772 -27.506H352.308V0.782H348.772ZM361.148 -22.202H364.684V-18.666H361.148ZM359.38 -20.434H361.148V-15.13H359.38ZM364.684 -20.434H366.452V-18.666H364.684ZM357.612 -18.666H359.38V-13.362H357.612ZM361.148 -18.666H362.916V-16.898H361.148ZM355.844 -16.898H357.612V-4.522H355.844ZM354.076 -15.13H355.844V-8.058H354.076ZM352.308 -11.594000000000001H354.076V-6.29H352.308ZM357.612 -8.058H359.38V-2.754H357.612ZM359.38 -6.29H361.148V0.782H359.38ZM347.004 -2.754H348.772V0.782H347.004ZM352.308 -2.754H354.076V0.782H352.308ZM361.148 -2.754H366.452V0.782H361.148Z M400.112 -22.202H405.416V-18.666H400.112ZM408.952 -22.202H414.25600000000003V-18.666H408.952ZM398.344 -20.434H400.112V0.782H398.344ZM405.416 -20.434H408.952V-16.898H405.416ZM396.576 -18.666H398.344V-0.9860000000000001H396.576ZM400.112 -18.666H401.88V-15.13H400.112ZM408.952 -18.666H412.488V9.622H408.952ZM407.184 -16.898H408.952V-15.13H407.184ZM407.184 -6.29H408.952V0.782H407.184ZM400.112 -4.522H401.88V0.782H400.112ZM401.88 -2.754H407.184V0.782H401.88ZM407.184 6.086H408.952V9.622H407.184ZM412.488 6.086H414.25600000000003V9.622H412.488ZM405.416 7.854000000000001H407.184V9.622H405.416Z M423.13 -22.202H426.666V-6.29H423.13ZM433.738 -22.202H439.04200000000003V-18.666H433.738ZM421.362 -20.434H423.13V-18.666H421.362ZM426.666 -20.434H428.434V0.782H426.666ZM439.04200000000003 -20.434H440.81V0.782H439.04200000000003ZM435.50600000000003 -18.666H439.04200000000003V0.782H435.50600000000003ZM424.898 -6.29H426.666V-0.9860000000000001H424.898ZM428.434 -2.754H435.50600000000003V-0.9860000000000001H428.434ZM440.81 -2.754H442.57800000000003V0.782H440.81ZM428.434 -0.9860000000000001H433.738V0.782H428.434Z M451.452 -22.202H458.524V-18.666H451.452ZM447.916 -20.434H451.452V-15.13H447.916ZM458.524 -20.434H460.29200000000003V0.782H458.524ZM451.452 -18.666H453.22V-16.898H451.452ZM456.75600000000003 -18.666H458.524V-16.898H456.75600000000003ZM460.29200000000003 -18.666H462.06V0.782H460.29200000000003ZM446.148 -16.898H447.916V-15.13H446.148ZM462.06 -15.13H463.82800000000003V0.782H462.06ZM453.22 -13.362H458.524V-9.826H453.22ZM449.684 -11.594000000000001H453.22V-8.058H449.684ZM447.916 -9.826H449.684V-0.9860000000000001H447.916ZM453.22 -9.826H454.988V-8.058H453.22ZM446.148 -8.058H447.916V-2.754H446.148ZM449.684 -8.058H451.452V0.782H449.684ZM451.452 -2.754H458.524V0.782H451.452ZM463.82800000000003 -2.754H465.596V0.782H463.82800000000003Z M472.702 -22.202H478.00600000000003V-18.666H472.702ZM481.54200000000003 -22.202H486.846V-18.666H481.54200000000003ZM470.934 -20.434H472.702V-18.666H470.934ZM478.00600000000003 -20.434H481.54200000000003V-16.898H478.00600000000003ZM486.846 -20.434H488.61400000000003V-15.13H486.846ZM474.47 -18.666H478.00600000000003V0.782H474.47ZM483.31 -18.666H486.846V-16.898H483.31ZM478.00600000000003 -16.898H479.774V0.782H478.00600000000003ZM485.07800000000003 -16.898H486.846V-15.13H485.07800000000003ZM470.934 -2.754H474.47V0.782H470.934ZM479.774 -2.754H483.31V0.782H479.774Z M501.024 -31.042H504.56V-0.9860000000000001H501.024ZM497.488 -22.202H501.024V-18.666H497.488ZM504.56 -22.202H511.632V-18.666H504.56ZM495.72 -20.434H497.488V-18.666H495.72ZM509.86400000000003 -8.058H513.4V-0.9860000000000001H509.86400000000003ZM504.56 -2.754H509.86400000000003V0.782H504.56ZM502.79200000000003 -0.9860000000000001H504.56V0.782H502.79200000000003ZM509.86400000000003 -0.9860000000000001H511.632V0.782H509.86400000000003Z M522.2740000000001 -22.202H536.4180000000001V-18.666H522.2740000000001ZM520.5060000000001 -20.434H522.2740000000001V-15.13H520.5060000000001ZM536.4180000000001 -20.434H538.186V-18.666H536.4180000000001ZM522.2740000000001 -18.666H525.8100000000001V-15.13H522.2740000000001ZM532.8820000000001 -18.666H536.4180000000001V-15.13H532.8820000000001ZM531.114 -16.898H532.8820000000001V-11.594000000000001H531.114ZM529.3460000000001 -15.13H531.114V-8.058H529.3460000000001ZM532.8820000000001 -15.13H534.6500000000001V-13.362H532.8820000000001ZM527.5780000000001 -11.594000000000001H529.3460000000001V-6.29H527.5780000000001ZM525.8100000000001 -9.826H527.5780000000001V-4.522H525.8100000000001ZM524.042 -6.29H525.8100000000001V0.782H524.042ZM534.6500000000001 -6.29H536.4180000000001V0.782H534.6500000000001ZM522.2740000000001 -4.522H524.042V0.782H522.2740000000001ZM532.8820000000001 -4.522H534.6500000000001V0.782H532.8820000000001ZM536.4180000000001 -4.522H538.186V0.782H536.4180000000001ZM520.5060000000001 -2.754H522.2740000000001V0.782H520.5060000000001ZM525.8100000000001 -2.754H532.8820000000001V0.782H525.8100000000001Z M547.0600000000001 -6.29H550.596V0.782H547.0600000000001ZM545.292 -4.522H547.0600000000001V0.782H545.292ZM550.596 -4.522H552.364V2.5500000000000003H550.596ZM548.828 0.782H550.596V6.086H548.828ZM547.0600000000001 2.5500000000000003H548.828V9.622H547.0600000000001ZM545.292 6.086H547.0600000000001V9.622H545.292Z M605.472 -31.042H609.008V-25.738000000000003H605.472ZM609.008 -29.274H610.7760000000001V-25.738000000000003H609.008ZM607.24 -25.738000000000003H609.008V-23.970000000000002H607.24ZM600.168 -22.202H609.008V-18.666H600.168ZM609.008 -20.434H610.7760000000001V4.3180000000000005H609.008ZM605.472 -18.666H609.008V7.854000000000001H605.472ZM596.6320000000001 2.5500000000000003H598.4V7.854000000000001H596.6320000000001ZM594.864 4.3180000000000005H596.6320000000001V6.086H594.864ZM598.4 4.3180000000000005H600.168V9.622H598.4ZM600.168 6.086H605.472V9.622H600.168ZM605.472 7.854000000000001H607.24V9.622H605.472Z M621.4180000000001 -22.202H624.9540000000001V-6.29H621.4180000000001ZM632.0260000000001 -22.202H637.33V-18.666H632.0260000000001ZM619.6500000000001 -20.434H621.4180000000001V-18.666H619.6500000000001ZM624.9540000000001 -20.434H626.7220000000001V0.782H624.9540000000001ZM637.33 -20.434H639.0980000000001V0.782H637.33ZM633.7940000000001 -18.666H637.33V0.782H633.7940000000001ZM623.186 -6.29H624.9540000000001V-0.9860000000000001H623.186ZM626.7220000000001 -2.754H633.7940000000001V-0.9860000000000001H626.7220000000001ZM639.0980000000001 -2.754H640.8660000000001V0.782H639.0980000000001ZM626.7220000000001 -0.9860000000000001H632.0260000000001V0.782H626.7220000000001Z M655.044 -31.042H662.116V-27.506H655.044ZM656.812 -27.506H660.3480000000001V0.782H656.812ZM647.972 -22.202H653.2760000000001V-18.666H647.972ZM646.2040000000001 -20.434H647.972V0.782H646.2040000000001ZM653.2760000000001 -20.434H656.812V-16.898H653.2760000000001ZM644.436 -18.666H646.2040000000001V-0.9860000000000001H644.436ZM647.972 -18.666H649.74V-15.13H647.972ZM655.044 -16.898H656.812V-15.13H655.044ZM655.044 -6.29H656.812V0.782H655.044ZM647.972 -4.522H649.74V0.782H647.972ZM649.74 -2.754H655.044V0.782H649.74ZM660.3480000000001 -2.754H662.116V0.782H660.3480000000001Z M674.5260000000001 -22.202H679.83V-18.666H674.5260000000001ZM683.3660000000001 -22.202H686.902V2.5500000000000003H683.3660000000001ZM670.9900000000001 -20.434H674.5260000000001V-0.9860000000000001H670.9900000000001ZM679.83 -20.434H683.3660000000001V-16.898H679.83ZM686.902 -20.434H688.6700000000001V-18.666H686.902ZM674.5260000000001 -18.666H676.2940000000001V-16.898H674.5260000000001ZM669.2220000000001 -16.898H670.9900000000001V-4.522H669.2220000000001ZM681.5980000000001 -16.898H683.3660000000001V9.622H681.5980000000001ZM674.5260000000001 -2.754H681.5980000000001V-0.9860000000000001H674.5260000000001ZM672.758 -0.9860000000000001H679.83V0.782H672.758ZM683.3660000000001 2.5500000000000003H685.1340000000001V7.854000000000001H683.3660000000001ZM669.2220000000001 4.3180000000000005H674.5260000000001V6.086H669.2220000000001ZM670.9900000000001 6.086H681.5980000000001V7.854000000000001H670.9900000000001ZM672.758 7.854000000000001H681.5980000000001V9.622H672.758Z M699.312 -22.202H706.384V-18.666H699.312ZM697.544 -20.434H699.312V0.782H697.544ZM706.384 -20.434H708.152V-8.058H706.384ZM695.7760000000001 -18.666H697.544V-0.9860000000000001H695.7760000000001ZM699.312 -18.666H701.08V-16.898H699.312ZM704.616 -18.666H706.384V-16.898H704.616ZM708.152 -18.666H709.9200000000001V-8.058H708.152ZM694.008 -16.898H695.7760000000001V-4.522H694.008ZM709.9200000000001 -16.898H711.688V-9.826H709.9200000000001ZM699.312 -11.594000000000001H706.384V-8.058H699.312ZM708.152 -6.29H709.9200000000001V-0.9860000000000001H708.152ZM706.384 -4.522H708.152V0.782H706.384ZM709.9200000000001 -4.522H711.688V-2.754H709.9200000000001ZM699.312 -2.754H706.384V0.782H699.312Z M743.58 -22.202H748.884V-18.666H743.58ZM750.652 -22.202H754.188V-18.666H750.652ZM757.724 -22.202H761.26V-18.666H757.724ZM748.884 -20.434H750.652V-18.666H748.884ZM754.188 -20.434H757.724V-18.666H754.188ZM761.26 -20.434H763.028V0.782H761.26ZM745.3480000000001 -18.666H748.884V0.782H745.3480000000001ZM752.4200000000001 -18.666H755.956V0.782H752.4200000000001ZM759.4920000000001 -18.666H761.26V0.782H759.4920000000001ZM743.58 -2.754H745.3480000000001V0.782H743.58ZM763.028 -2.754H764.796V0.782H763.028Z M770.1340000000001 -22.202H777.2060000000001V-18.666H770.1340000000001ZM780.7420000000001 -22.202H787.8140000000001V-18.666H780.7420000000001ZM768.3660000000001 -20.434H770.1340000000001V-18.666H768.3660000000001ZM787.8140000000001 -20.434H789.5820000000001V-18.666H787.8140000000001ZM771.902 -18.666H775.4380000000001V-13.362H771.902ZM782.5100000000001 -18.666H786.046V-13.362H782.5100000000001ZM775.4380000000001 -15.13H777.2060000000001V-0.9860000000000001H775.4380000000001ZM780.7420000000001 -15.13H782.5100000000001V-0.9860000000000001H780.7420000000001ZM773.6700000000001 -13.362H775.4380000000001V-6.29H773.6700000000001ZM782.5100000000001 -13.362H784.2780000000001V-6.29H782.5100000000001ZM777.2060000000001 -8.058H780.7420000000001V6.086H777.2060000000001ZM775.4380000000001 4.3180000000000005H777.2060000000001V9.622H775.4380000000001ZM771.902 6.086H775.4380000000001V9.622H771.902ZM777.2060000000001 6.086H778.974V9.622H777.2060000000001Z M819.7060000000001 -22.202H825.0100000000001V-18.666H819.7060000000001ZM832.0820000000001 -22.202H837.3860000000001V-18.666H832.0820000000001ZM817.9380000000001 -20.434H819.7060000000001V-18.666H817.9380000000001ZM825.0100000000001 -20.434H826.7780000000001V-18.666H825.0100000000001ZM830.3140000000001 -20.434H832.0820000000001V-18.666H830.3140000000001ZM837.3860000000001 -20.434H839.1540000000001V-18.666H837.3860000000001ZM821.474 -18.666H825.0100000000001V-13.362H821.474ZM832.0820000000001 -18.666H835.618V-13.362H832.0820000000001ZM825.0100000000001 -15.13H826.7780000000001V-0.9860000000000001H825.0100000000001ZM830.3140000000001 -15.13H832.0820000000001V-0.9860000000000001H830.3140000000001ZM823.2420000000001 -13.362H825.0100000000001V-6.29H823.2420000000001ZM832.0820000000001 -13.362H833.8500000000001V-6.29H832.0820000000001ZM826.7780000000001 -8.058H830.3140000000001V0.782H826.7780000000001Z M848.028 -22.202H855.1V-18.666H848.028ZM846.26 -20.434H848.028V0.782H846.26ZM855.1 -20.434H856.868V0.782H855.1ZM844.4920000000001 -18.666H846.26V-0.9860000000000001H844.4920000000001ZM848.028 -18.666H849.796V-16.898H848.028ZM853.332 -18.666H855.1V-16.898H853.332ZM856.868 -18.666H858.6360000000001V-0.9860000000000001H856.868ZM842.724 -16.898H844.4920000000001V-4.522H842.724ZM858.6360000000001 -16.898H860.404V-4.522H858.6360000000001ZM848.028 -2.754H855.1V0.782H848.028Z M867.5100000000001 -22.202H874.5820000000001V-18.666H867.5100000000001ZM881.6540000000001 -22.202H888.7260000000001V-18.666H881.6540000000001ZM869.2780000000001 -18.666H872.8140000000001V-11.594000000000001H869.2780000000001ZM883.4220000000001 -18.666H886.9580000000001V-11.594000000000001H883.4220000000001ZM876.3500000000001 -15.13H879.8860000000001V-6.29H876.3500000000001ZM871.046 -11.594000000000001H876.3500000000001V-0.9860000000000001H871.046ZM879.8860000000001 -11.594000000000001H885.19V-0.9860000000000001H879.8860000000001ZM872.8140000000001 -0.9860000000000001H876.3500000000001V0.782H872.8140000000001ZM879.8860000000001 -0.9860000000000001H883.4220000000001V0.782H879.8860000000001Z M894.0640000000001 -6.29H897.6V0.782H894.0640000000001ZM892.296 -4.522H894.0640000000001V0.782H892.296ZM897.6 -4.522H899.368V0.782H897.6Z"/>
  </g>
</svg>
