<svg xmlns="http://www.w3.org/2000/svg" width="437" height="66" viewBox="0 0 437 66" role="img" aria-labelledby="title desc" style="background: transparent;">
  <title id="title">RuneScape Small Mono preview</title>
  <desc id="desc">Sphinx of black quartz, judge my vow.</desc>
  <style>
    svg { background: transparent; }
    .preview-text { fill: #24292f; }
    @media (prefers-color-scheme: dark) {
      .preview-text { fill: #f0f6fc; }
    }
  </style>
  <g class="preview-text" transform="translate(24.00 43.38)">
    <path d="M2.125 -4.25V-6.375H6.375V-4.25ZM0.0 -6.375V-8.5H2.125V-6.375ZM6.375 -6.375V-8.5H8.5V-6.375ZM8.5 -8.5V-12.75H10.625V-8.5ZM2.125 -12.75V-14.875H8.5V-12.75ZM0.0 -14.875V-19.125H2.125V-14.875ZM8.5 -17.0V-19.125H10.625V-17.0ZM2.125 -19.125V-21.25H8.5V-19.125Z M11.6875 0.0V-12.75H13.8125V-6.375H18.0625V-4.25H13.8125V0.0ZM18.0625 -6.375V-12.75H20.1875V-6.375ZM13.8125 -12.75V-14.875H18.0625V-12.75Z M28.6875 -4.25V-12.75H30.8125V-4.25ZM22.3125 -4.25V-21.25H24.4375V-14.875H28.6875V-12.75H24.4375V-4.25Z M36.125 -4.25V-12.75H38.25V-4.25ZM36.125 -14.875V-17.0H38.25V-14.875Z M49.9375 -4.25V-12.75H52.0625V-4.25ZM43.5625 -4.25V-14.875H49.9375V-12.75H45.6875V-4.25Z M53.125 -4.25V-6.375H55.25V-4.25ZM61.625 -4.25V-6.375H63.75V-4.25ZM55.25 -6.375V-8.5H57.375V-6.375ZM59.5 -6.375V-8.5H61.625V-6.375ZM57.375 -8.5V-10.625H59.5V-8.5ZM55.25 -10.625V-12.75H57.375V-10.625ZM59.5 -10.625V-12.75H61.625V-10.625ZM53.125 -12.75V-14.875H55.25V-12.75ZM61.625 -12.75V-14.875H63.75V-12.75Z M77.5625 -4.25V-6.375H81.8125V-4.25ZM75.4375 -6.375V-12.75H77.5625V-6.375ZM81.8125 -6.375V-12.75H83.9375V-6.375ZM77.5625 -12.75V-14.875H81.8125V-12.75Z M86.0625 2.125V0.0H88.1875V2.125ZM88.1875 0.0V-8.5H86.0625V-10.625H88.1875V-14.875H90.3125V-10.625H92.4375V-8.5H90.3125V0.0ZM92.4375 -12.75V-14.875H94.5625V-12.75ZM90.3125 -14.875V-17.0H92.4375V-14.875Z M113.6875 -6.375V-12.75H115.8125V-6.375ZM107.3125 -4.25V-21.25H109.4375V-14.875H113.6875V-12.75H109.4375V-6.375H113.6875V-4.25Z M121.125 -4.25V-21.25H123.25V-4.25Z M128.5625 -6.375V-8.5H130.6875V-6.375ZM128.5625 -10.625V-12.75H130.6875V-10.625ZM130.6875 -4.25V-6.375H134.9375V-8.5H130.6875V-10.625H134.9375V-12.75H137.0625V-4.25ZM130.6875 -12.75V-14.875H134.9375V-12.75Z M142.375 -4.25V-6.375H146.625V-4.25ZM140.25 -6.375V-12.75H142.375V-6.375ZM142.375 -12.75V-14.875H146.625V-12.75Z M156.1875 -4.25V-6.375H158.3125V-4.25ZM154.0625 -6.375V-8.5H156.1875V-6.375ZM154.0625 -12.75V-14.875H156.1875V-12.75ZM149.8125 -4.25V-21.25H151.9375V-12.75H154.0625V-8.5H151.9375V-4.25Z M170.0 -6.375V-12.75H172.125V-6.375ZM176.375 2.125V-4.25H172.125V-6.375H176.375V-12.75H178.5V-2.125H180.625V0.0H178.5V2.125ZM172.125 -12.75V-14.875H176.375V-12.75Z M183.8125 -4.25V-6.375H188.0625V-4.25ZM181.6875 -6.375V-14.875H183.8125V-6.375ZM188.0625 -6.375V-14.875H190.1875V-6.375Z M192.3125 -6.375V-8.5H194.4375V-6.375ZM192.3125 -10.625V-12.75H194.4375V-10.625ZM194.4375 -4.25V-6.375H198.6875V-8.5H194.4375V-10.625H198.6875V-12.75H200.8125V-4.25ZM194.4375 -12.75V-14.875H198.6875V-12.75Z M204.0 -4.25V-14.875H206.125V-12.75H208.25V-10.625H206.125V-4.25ZM208.25 -12.75V-14.875H210.375V-12.75Z M217.8125 -4.25V-6.375H219.9375V-4.25ZM215.6875 -6.375V-19.125H217.8125V-14.875H219.9375V-12.75H217.8125V-6.375Z M224.1875 -4.25V-8.5H226.3125V-6.375H232.6875V-4.25ZM226.3125 -8.5V-10.625H228.4375V-8.5ZM228.4375 -10.625V-12.75H224.1875V-14.875H232.6875V-12.75H230.5625V-10.625Z M236.9375 -4.25V-6.375H239.0625V-4.25ZM239.0625 -6.375V-8.5H236.9375V-10.625H241.1875V-6.375Z M259.25 2.125V0.0H261.375V2.125ZM257.125 0.0V-4.25H259.25V0.0ZM261.375 0.0V-12.75H263.5V0.0ZM261.375 -14.875V-17.0H263.5V-14.875Z M268.8125 -4.25V-6.375H273.0625V-4.25ZM266.6875 -6.375V-14.875H268.8125V-6.375ZM273.0625 -6.375V-14.875H275.1875V-6.375Z M277.3125 -6.375V-12.75H279.4375V-6.375ZM279.4375 -4.25V-6.375H283.6875V-12.75H279.4375V-14.875H283.6875V-23.375H285.8125V-4.25Z M290.0625 2.125V0.0H294.3125V2.125ZM287.9375 0.0V-2.125H290.0625V0.0ZM287.9375 -6.375V-12.75H290.0625V-6.375ZM294.3125 0.0V-4.25H290.0625V-6.375H294.3125V-12.75H296.4375V0.0ZM290.0625 -12.75V-14.875H294.3125V-12.75Z M300.6875 -4.25V-6.375H307.0625V-4.25ZM298.5625 -6.375V-12.75H300.6875V-10.625H304.9375V-8.5H300.6875V-6.375ZM304.9375 -10.625V-12.75H307.0625V-10.625ZM300.6875 -12.75V-14.875H304.9375V-12.75Z M318.75 -4.25V-12.75H320.875V-4.25ZM323.0 -4.25V-12.75H325.125V-4.25ZM327.25 -4.25V-12.75H329.375V-4.25ZM320.875 -12.75V-14.875H323.0V-12.75ZM325.125 -12.75V-14.875H327.25V-12.75Z M332.5625 2.125V0.0H336.8125V2.125ZM330.4375 0.0V-2.125H332.5625V0.0ZM330.4375 -8.5V-14.875H332.5625V-8.5ZM336.8125 0.0V-6.375H332.5625V-8.5H336.8125V-14.875H338.9375V0.0Z M354.875 -4.25V-6.375H357.0V-4.25ZM352.75 -6.375V-10.625H354.875V-6.375ZM357.0 -6.375V-10.625H359.125V-6.375ZM350.625 -10.625V-14.875H352.75V-10.625ZM359.125 -10.625V-14.875H361.25V-10.625Z M364.4375 -4.25V-6.375H368.6875V-4.25ZM362.3125 -6.375V-12.75H364.4375V-6.375ZM368.6875 -6.375V-12.75H370.8125V-6.375ZM364.4375 -12.75V-14.875H368.6875V-12.75Z M374.0 -4.25V-6.375H376.125V-10.625H378.25V-6.375H380.375V-4.25ZM371.875 -6.375V-14.875H374.0V-6.375ZM380.375 -6.375V-14.875H382.5V-6.375Z M386.75 -4.25V-6.375H388.875V-4.25Z"/>
  </g>
</svg>
