<svg xmlns="http://www.w3.org/2000/svg" width="450" height="66" viewBox="0 0 450 66" role="img" aria-labelledby="title desc" style="background: transparent;">
  <title id="title">RuneScape Small preview</title>
  <desc id="desc">Sphinx of black quartz, judge my vow.</desc>
  <style>
    svg { background: transparent; }
    .preview-text { fill: #24292f; }
    @media (prefers-color-scheme: dark) {
      .preview-text { fill: #f0f6fc; }
    }
  </style>
  <g class="preview-text" transform="translate(21.88 43.38)">
    <path d="M4.25 -4.25V-6.375H8.5V-4.25ZM2.125 -6.375V-8.5H4.25V-6.375ZM8.5 -6.375V-8.5H10.625V-6.375ZM10.625 -8.5V-12.75H12.75V-8.5ZM4.25 -12.75V-14.875H10.625V-12.75ZM2.125 -14.875V-19.125H4.25V-14.875ZM10.625 -17.0V-19.125H12.75V-17.0ZM4.25 -19.125V-21.25H10.625V-19.125Z M17.0 0.0V-12.75H19.125V-6.375H23.375V-4.25H19.125V0.0ZM23.375 -6.375V-12.75H25.5V-6.375ZM19.125 -12.75V-14.875H23.375V-12.75Z M36.125 -4.25V-12.75H38.25V-4.25ZM29.75 -4.25V-21.25H31.875V-14.875H36.125V-12.75H31.875V-4.25Z M42.5 -4.25V-12.75H44.625V-4.25ZM42.5 -14.875V-17.0H44.625V-14.875Z M55.25 -4.25V-12.75H57.375V-4.25ZM48.875 -4.25V-14.875H55.25V-12.75H51.0V-4.25Z M61.625 -4.25V-6.375H63.75V-4.25ZM70.125 -4.25V-6.375H72.25V-4.25ZM63.75 -6.375V-8.5H65.875V-6.375ZM68.0 -6.375V-8.5H70.125V-6.375ZM65.875 -8.5V-10.625H68.0V-8.5ZM63.75 -10.625V-12.75H65.875V-10.625ZM68.0 -10.625V-12.75H70.125V-10.625ZM61.625 -12.75V-14.875H63.75V-12.75ZM70.125 -12.75V-14.875H72.25V-12.75Z M85.0 -4.25V-6.375H89.25V-4.25ZM82.875 -6.375V-12.75H85.0V-6.375ZM89.25 -6.375V-12.75H91.375V-6.375ZM85.0 -12.75V-14.875H89.25V-12.75Z M95.625 2.125V0.0H97.75V2.125ZM97.75 0.0V-8.5H95.625V-10.625H97.75V-14.875H99.875V-10.625H102.0V-8.5H99.875V0.0ZM102.0 -12.75V-14.875H104.125V-12.75ZM99.875 -14.875V-17.0H102.0V-14.875Z M119.0 -6.375V-12.75H121.125V-6.375ZM112.625 -4.25V-21.25H114.75V-14.875H119.0V-12.75H114.75V-6.375H119.0V-4.25Z M125.375 -4.25V-21.25H127.5V-4.25Z M131.75 -6.375V-8.5H133.875V-6.375ZM131.75 -10.625V-12.75H133.875V-10.625ZM133.875 -4.25V-6.375H138.125V-8.5H133.875V-10.625H138.125V-12.75H140.25V-4.25ZM133.875 -12.75V-14.875H138.125V-12.75Z M146.625 -4.25V-6.375H150.875V-4.25ZM144.5 -6.375V-12.75H146.625V-6.375ZM146.625 -12.75V-14.875H150.875V-12.75Z M161.5 -4.25V-6.375H163.625V-4.25ZM159.375 -6.375V-8.5H161.5V-6.375ZM159.375 -12.75V-14.875H161.5V-12.75ZM155.125 -4.25V-21.25H157.25V-12.75H159.375V-8.5H157.25V-4.25Z M172.125 -6.375V-12.75H174.25V-6.375ZM178.5 2.125V-4.25H174.25V-6.375H178.5V-12.75H180.625V-2.125H182.75V0.0H180.625V2.125ZM174.25 -12.75V-14.875H178.5V-12.75Z M187.0 -4.25V-6.375H191.25V-4.25ZM184.875 -6.375V-14.875H187.0V-6.375ZM191.25 -6.375V-14.875H193.375V-6.375Z M197.625 -6.375V-8.5H199.75V-6.375ZM197.625 -10.625V-12.75H199.75V-10.625ZM199.75 -4.25V-6.375H204.0V-8.5H199.75V-10.625H204.0V-12.75H206.125V-4.25ZM199.75 -12.75V-14.875H204.0V-12.75Z M210.375 -4.25V-14.875H212.5V-12.75H214.625V-10.625H212.5V-4.25ZM214.625 -12.75V-14.875H216.75V-12.75Z M223.125 -4.25V-6.375H225.25V-4.25ZM221.0 -6.375V-19.125H223.125V-14.875H225.25V-12.75H223.125V-6.375Z M229.5 -4.25V-8.5H231.625V-6.375H238.0V-4.25ZM231.625 -8.5V-10.625H233.75V-8.5ZM233.75 -10.625V-12.75H229.5V-14.875H238.0V-12.75H235.875V-10.625Z M242.25 -4.25V-6.375H244.375V-4.25ZM244.375 -6.375V-8.5H242.25V-10.625H246.5V-6.375Z M259.25 2.125V0.0H261.375V2.125ZM257.125 0.0V-4.25H259.25V0.0ZM261.375 0.0V-12.75H263.5V0.0ZM261.375 -14.875V-17.0H263.5V-14.875Z M269.875 -4.25V-6.375H274.125V-4.25ZM267.75 -6.375V-14.875H269.875V-6.375ZM274.125 -6.375V-14.875H276.25V-6.375Z M280.5 -6.375V-12.75H282.625V-6.375ZM282.625 -4.25V-6.375H286.875V-12.75H282.625V-14.875H286.875V-23.375H289.0V-4.25Z M295.375 2.125V0.0H299.625V2.125ZM293.25 0.0V-2.125H295.375V0.0ZM293.25 -6.375V-12.75H295.375V-6.375ZM299.625 0.0V-4.25H295.375V-6.375H299.625V-12.75H301.75V0.0ZM295.375 -12.75V-14.875H299.625V-12.75Z M308.125 -4.25V-6.375H314.5V-4.25ZM306.0 -6.375V-12.75H308.125V-10.625H312.375V-8.5H308.125V-6.375ZM312.375 -10.625V-12.75H314.5V-10.625ZM308.125 -12.75V-14.875H312.375V-12.75Z M325.125 -4.25V-12.75H327.25V-4.25ZM329.375 -4.25V-12.75H331.5V-4.25ZM333.625 -4.25V-12.75H335.75V-4.25ZM327.25 -12.75V-14.875H329.375V-12.75ZM331.5 -12.75V-14.875H333.625V-12.75Z M342.125 2.125V0.0H346.375V2.125ZM340.0 0.0V-2.125H342.125V0.0ZM340.0 -8.5V-14.875H342.125V-8.5ZM346.375 0.0V-6.375H342.125V-8.5H346.375V-14.875H348.5V0.0Z M363.375 -4.25V-6.375H365.5V-4.25ZM361.25 -6.375V-10.625H363.375V-6.375ZM365.5 -6.375V-10.625H367.625V-6.375ZM359.125 -10.625V-14.875H361.25V-10.625ZM367.625 -10.625V-14.875H369.75V-10.625Z M376.125 -4.25V-6.375H380.375V-4.25ZM374.0 -6.375V-12.75H376.125V-6.375ZM380.375 -6.375V-12.75H382.5V-6.375ZM376.125 -12.75V-14.875H380.375V-12.75Z M388.875 -4.25V-6.375H391.0V-10.625H393.125V-6.375H395.25V-4.25ZM386.75 -6.375V-14.875H388.875V-6.375ZM395.25 -6.375V-14.875H397.375V-6.375Z M401.625 -4.25V-6.375H403.75V-4.25Z"/>
  </g>
</svg>
