<svg xmlns="http://www.w3.org/2000/svg" width="522" height="70" viewBox="0 0 522 70" role="img" aria-labelledby="title desc">
  <title id="title">RuneScape Regular Sonic preview</title>
  <desc id="desc">Sphinx of black quartz, judge my vow.</desc>
  <rect width="100%" height="100%" rx="10" fill="#0d1117"/>
  <g transform="translate(21.88 45.50)" fill="#f0f6fc">
    <path d="M4.25 -4.25V-6.375H2.125V-8.5H6.375V-6.375H10.625V-12.75H8.5V-14.875H4.25V-17.0H2.125V-23.375H4.25V-25.5H12.75V-23.375H14.875V-21.25H10.625V-23.375H6.375V-19.125H8.5V-17.0H12.75V-14.875H14.875V-6.375H12.75V-4.25Z M27.625 -6.375V-14.875H23.375V-6.375ZM19.125 2.125V-14.875H21.25V-17.0H29.75V-14.875H31.875V-6.375H29.75V-4.25H23.375V2.125Z M44.625 -4.25V-14.875H46.75V-4.25ZM40.375 -14.875V-17.0H44.625V-14.875ZM36.125 -4.25V-25.5H38.25V-14.875H40.375V-12.75H38.25V-4.25Z M51.0 -4.25V-14.875H53.125V-4.25ZM51.0 -17.0V-19.125H53.125V-17.0Z M65.875 -4.25V-14.875H68.0V-4.25ZM57.375 -4.25V-17.0H59.5V-14.875H61.625V-12.75H59.5V-4.25ZM61.625 -14.875V-17.0H65.875V-14.875Z M72.25 -4.25V-6.375H74.375V-4.25ZM80.75 -4.25V-6.375H82.875V-4.25ZM74.375 -6.375V-10.625H76.5V-6.375ZM78.625 -6.375V-10.625H80.75V-6.375ZM76.5 -10.625V-12.75H78.625V-10.625ZM74.375 -12.75V-14.875H76.5V-12.75ZM78.625 -12.75V-14.875H80.75V-12.75ZM72.25 -14.875V-17.0H74.375V-14.875ZM80.75 -14.875V-17.0H82.875V-14.875Z M102.0 -6.375V-14.875H97.75V-6.375ZM95.625 -4.25V-6.375H93.5V-14.875H95.625V-17.0H104.125V-14.875H106.25V-6.375H104.125V-4.25Z M110.5 2.125V0.0H112.625V2.125ZM112.625 0.0V-10.625H110.5V-12.75H112.625V-19.125H114.75V-12.75H116.875V-10.625H114.75V0.0ZM119.0 -17.0V-19.125H121.125V-17.0ZM114.75 -19.125V-21.25H119.0V-19.125Z M138.125 -6.375V-14.875H133.875V-6.375ZM129.625 -4.25V-25.5H133.875V-17.0H140.25V-14.875H142.375V-6.375H140.25V-4.25Z M146.625 -4.25V-25.5H150.875V-4.25Z M155.125 -6.375V-10.625H157.25V-6.375ZM155.125 -12.75V-14.875H157.25V-12.75ZM157.25 -4.25V-6.375H163.625V-10.625H157.25V-12.75H163.625V-14.875H165.75V-4.25ZM157.25 -14.875V-17.0H163.625V-14.875Z M172.125 -4.25V-6.375H178.5V-4.25ZM170.0 -6.375V-14.875H172.125V-6.375ZM172.125 -14.875V-17.0H178.5V-14.875Z M191.25 -4.25V-6.375H193.375V-4.25ZM189.125 -6.375V-8.5H191.25V-6.375ZM187.0 -8.5V-10.625H189.125V-8.5ZM187.0 -12.75V-14.875H189.125V-12.75ZM189.125 -14.875V-17.0H191.25V-14.875ZM182.75 -4.25V-25.5H184.875V-12.75H187.0V-10.625H184.875V-4.25Z M210.375 -6.375V-14.875H208.25V-12.75H206.125V-8.5H208.25V-6.375ZM210.375 4.25V-4.25H206.125V-6.375H204.0V-8.5H201.875V-12.75H204.0V-14.875H206.125V-17.0H212.5V-14.875H214.625V-2.125H216.75V0.0H214.625V2.125H212.5V4.25Z M221.0 -4.25V-6.375H218.875V-17.0H223.125V-6.375H227.375V-17.0H231.625V-4.25Z M235.875 -6.375V-10.625H238.0V-6.375ZM235.875 -12.75V-14.875H238.0V-12.75ZM238.0 -4.25V-6.375H244.375V-10.625H238.0V-12.75H244.375V-14.875H246.5V-4.25ZM238.0 -14.875V-17.0H244.375V-14.875Z M250.75 -4.25V-17.0H252.875V-14.875H255.0V-12.75H252.875V-4.25ZM255.0 -14.875V-17.0H257.125V-14.875Z M263.5 -4.25V-6.375H267.75V-4.25ZM261.375 -6.375V-23.375H263.5V-17.0H267.75V-14.875H263.5V-6.375Z M272.0 -4.25V-8.5H274.125V-6.375H282.625V-4.25ZM274.125 -8.5V-10.625H276.25V-8.5ZM276.25 -10.625V-12.75H278.375V-10.625ZM278.375 -12.75V-14.875H272.0V-17.0H282.625V-14.875H280.5V-12.75Z M286.875 -2.125V-4.25H289.0V-2.125ZM289.0 -4.25V-8.5H286.875V-10.625H291.125V-4.25Z M303.875 4.25V2.125H301.75V-2.125H306.0V2.125H308.125V-14.875H312.375V2.125H310.25V4.25ZM308.125 -17.0V-19.125H312.375V-17.0Z M318.75 -4.25V-6.375H316.625V-17.0H320.875V-6.375H325.125V-17.0H329.375V-4.25Z M333.625 -6.375V-12.75H335.75V-6.375ZM335.75 -12.75V-14.875H337.875V-12.75ZM335.75 -4.25V-6.375H342.125V-14.875H337.875V-17.0H342.125V-25.5H344.25V-4.25Z M350.625 4.25V2.125H357.0V4.25ZM348.5 2.125V0.0H350.625V2.125ZM348.5 -6.375V-14.875H350.625V-6.375ZM357.0 2.125V-4.25H350.625V-6.375H357.0V-14.875H359.125V2.125ZM350.625 -14.875V-17.0H357.0V-14.875Z M365.5 -4.25V-6.375H374.0V-4.25ZM363.375 -6.375V-14.875H365.5V-10.625H371.875V-8.5H365.5V-6.375ZM371.875 -10.625V-14.875H374.0V-10.625ZM365.5 -14.875V-17.0H371.875V-14.875Z M384.625 -4.25V-17.0H393.125V-14.875H395.25V-4.25H391.0V-14.875H388.875V-4.25ZM397.375 -4.25V-14.875H395.25V-17.0H399.5V-14.875H401.625V-4.25Z M408.0 4.25V2.125H412.25V4.25ZM405.875 2.125V0.0H408.0V2.125ZM412.25 2.125V0.0H414.375V2.125ZM405.875 -8.5V-17.0H408.0V-8.5ZM414.375 0.0V-6.375H408.0V-8.5H414.375V-17.0H416.5V0.0Z M431.375 -4.25V-8.5H429.25V-12.75H427.125V-17.0H431.375V-12.75H435.625V-17.0H439.875V-12.75H437.75V-8.5H435.625V-4.25Z M446.25 -4.25V-6.375H452.625V-4.25ZM444.125 -6.375V-14.875H446.25V-6.375ZM452.625 -6.375V-14.875H454.75V-6.375ZM446.25 -14.875V-17.0H452.625V-14.875Z M461.125 -4.25V-6.375H463.25V-12.75H465.375V-6.375H467.5V-4.25ZM459.0 -6.375V-17.0H461.125V-6.375ZM467.5 -6.375V-17.0H469.625V-6.375Z M473.875 -4.25V-6.375H476.0V-4.25Z"/>
  </g>
</svg>
