<svg xmlns="http://www.w3.org/2000/svg" width="498" height="70" viewBox="0 0 498 70" role="img" aria-labelledby="title desc">
  <title id="title">RuneScape preview</title>
  <desc id="desc">Sphinx of black quartz, judge my vow.</desc>
  <rect width="100%" height="100%" rx="10" fill="#0d1117"/>
  <g transform="translate(21.88 45.50)" fill="#f0f6fc">
    <path d="M4.25 -4.25V-6.375H8.5V-4.25ZM2.125 -6.375V-8.5H4.25V-6.375ZM8.5 -6.375V-8.5H10.625V-6.375ZM10.625 -8.5V-12.75H12.75V-8.5ZM8.5 -12.75V-14.875H10.625V-12.75ZM6.375 -14.875V-17.0H8.5V-14.875ZM4.25 -17.0V-19.125H6.375V-17.0ZM2.125 -19.125V-21.25H4.25V-19.125ZM4.25 -21.25V-23.375H6.375V-21.25ZM10.625 -21.25V-23.375H12.75V-21.25ZM6.375 -23.375V-25.5H10.625V-23.375Z M17.0 4.25V-14.875H19.125V-6.375H25.5V-4.25H19.125V4.25ZM25.5 -6.375V-14.875H27.625V-6.375ZM19.125 -14.875V-17.0H25.5V-14.875Z M40.375 -4.25V-14.875H42.5V-4.25ZM36.125 -14.875V-17.0H40.375V-14.875ZM31.875 -4.25V-25.5H34.0V-14.875H36.125V-12.75H34.0V-4.25Z M46.75 -4.25V-14.875H48.875V-4.25ZM46.75 -17.0V-19.125H48.875V-17.0Z M61.625 -4.25V-14.875H63.75V-4.25ZM53.125 -4.25V-17.0H55.25V-14.875H57.375V-12.75H55.25V-4.25ZM57.375 -14.875V-17.0H61.625V-14.875Z M68.0 -4.25V-6.375H70.125V-4.25ZM76.5 -4.25V-6.375H78.625V-4.25ZM70.125 -6.375V-10.625H72.25V-6.375ZM74.375 -6.375V-10.625H76.5V-6.375ZM72.25 -10.625V-12.75H74.375V-10.625ZM70.125 -12.75V-14.875H72.25V-12.75ZM74.375 -12.75V-14.875H76.5V-12.75ZM68.0 -14.875V-17.0H70.125V-14.875ZM76.5 -14.875V-17.0H78.625V-14.875Z M91.375 -4.25V-6.375H97.75V-4.25ZM89.25 -6.375V-14.875H91.375V-6.375ZM97.75 -6.375V-14.875H99.875V-6.375ZM91.375 -14.875V-17.0H97.75V-14.875Z M104.125 2.125V0.0H106.25V2.125ZM106.25 0.0V-10.625H104.125V-12.75H106.25V-19.125H108.375V-12.75H110.5V-10.625H108.375V0.0ZM112.625 -17.0V-19.125H114.75V-17.0ZM108.375 -19.125V-21.25H112.625V-19.125Z M131.75 -6.375V-12.75H133.875V-6.375ZM129.625 -12.75V-14.875H131.75V-12.75ZM123.25 -4.25V-25.5H125.375V-17.0H129.625V-14.875H125.375V-6.375H131.75V-4.25Z M138.125 -4.25V-25.5H140.25V-4.25Z M144.5 -6.375V-10.625H146.625V-6.375ZM144.5 -12.75V-14.875H146.625V-12.75ZM146.625 -4.25V-6.375H153.0V-10.625H146.625V-12.75H153.0V-14.875H155.125V-4.25ZM146.625 -14.875V-17.0H153.0V-14.875Z M161.5 -4.25V-6.375H167.875V-4.25ZM159.375 -6.375V-14.875H161.5V-6.375ZM161.5 -14.875V-17.0H167.875V-14.875Z M180.625 -4.25V-6.375H182.75V-4.25ZM178.5 -6.375V-8.5H180.625V-6.375ZM176.375 -8.5V-10.625H178.5V-8.5ZM176.375 -12.75V-14.875H178.5V-12.75ZM178.5 -14.875V-17.0H180.625V-14.875ZM172.125 -4.25V-25.5H174.25V-12.75H176.375V-10.625H174.25V-4.25Z M193.375 -6.375V-8.5H195.5V-6.375ZM191.25 -8.5V-12.75H193.375V-8.5ZM193.375 -12.75V-14.875H195.5V-12.75ZM199.75 4.25V-4.25H195.5V-6.375H199.75V-14.875H201.875V4.25ZM195.5 -14.875V-17.0H199.75V-14.875Z M208.25 -4.25V-6.375H214.625V-4.25ZM206.125 -6.375V-17.0H208.25V-6.375ZM214.625 -6.375V-17.0H216.75V-6.375Z M221.0 -6.375V-10.625H223.125V-6.375ZM221.0 -12.75V-14.875H223.125V-12.75ZM223.125 -4.25V-6.375H229.5V-10.625H223.125V-12.75H229.5V-14.875H231.625V-4.25ZM223.125 -14.875V-17.0H229.5V-14.875Z M235.875 -4.25V-17.0H238.0V-14.875H240.125V-12.75H238.0V-4.25ZM240.125 -14.875V-17.0H242.25V-14.875Z M248.625 -4.25V-6.375H252.875V-4.25ZM246.5 -6.375V-23.375H248.625V-17.0H252.875V-14.875H248.625V-6.375Z M257.125 -4.25V-8.5H259.25V-6.375H267.75V-4.25ZM259.25 -8.5V-10.625H261.375V-8.5ZM261.375 -10.625V-12.75H263.5V-10.625ZM263.5 -12.75V-14.875H257.125V-17.0H267.75V-14.875H265.625V-12.75Z M272.0 -2.125V-4.25H274.125V-2.125ZM274.125 -4.25V-8.5H272.0V-10.625H276.25V-4.25Z M289.0 4.25V2.125H293.25V4.25ZM286.875 2.125V-2.125H289.0V2.125ZM293.25 2.125V-14.875H295.375V2.125ZM293.25 -17.0V-19.125H295.375V-17.0Z M301.75 -4.25V-6.375H308.125V-4.25ZM299.625 -6.375V-17.0H301.75V-6.375ZM308.125 -6.375V-17.0H310.25V-6.375Z M314.5 -6.375V-12.75H316.625V-6.375ZM316.625 -12.75V-14.875H318.75V-12.75ZM316.625 -4.25V-6.375H323.0V-14.875H318.75V-17.0H323.0V-25.5H325.125V-4.25Z M331.5 4.25V2.125H337.875V4.25ZM329.375 2.125V0.0H331.5V2.125ZM329.375 -6.375V-14.875H331.5V-6.375ZM337.875 2.125V-4.25H331.5V-6.375H337.875V-14.875H340.0V2.125ZM331.5 -14.875V-17.0H337.875V-14.875Z M346.375 -4.25V-6.375H354.875V-4.25ZM344.25 -6.375V-14.875H346.375V-10.625H352.75V-8.5H346.375V-6.375ZM352.75 -10.625V-14.875H354.875V-10.625ZM346.375 -14.875V-17.0H352.75V-14.875Z M365.5 -4.25V-14.875H367.625V-4.25ZM371.875 -4.25V-14.875H374.0V-4.25ZM378.25 -4.25V-14.875H380.375V-4.25ZM367.625 -14.875V-17.0H371.875V-14.875ZM374.0 -14.875V-17.0H378.25V-14.875Z M386.75 4.25V2.125H391.0V4.25ZM384.625 2.125V0.0H386.75V2.125ZM391.0 2.125V0.0H393.125V2.125ZM384.625 -8.5V-17.0H386.75V-8.5ZM393.125 0.0V-6.375H386.75V-8.5H393.125V-17.0H395.25V0.0Z M410.125 -4.25V-8.5H412.25V-4.25ZM408.0 -8.5V-12.75H410.125V-8.5ZM412.25 -8.5V-12.75H414.375V-8.5ZM405.875 -12.75V-17.0H408.0V-12.75ZM414.375 -12.75V-17.0H416.5V-12.75Z M422.875 -4.25V-6.375H429.25V-4.25ZM420.75 -6.375V-14.875H422.875V-6.375ZM429.25 -6.375V-14.875H431.375V-6.375ZM422.875 -14.875V-17.0H429.25V-14.875Z M437.75 -4.25V-6.375H439.875V-12.75H442.0V-6.375H444.125V-4.25ZM435.625 -6.375V-17.0H437.75V-6.375ZM444.125 -6.375V-17.0H446.25V-6.375Z M450.5 -4.25V-6.375H452.625V-4.25Z"/>
  </g>
</svg>
