<svg xmlns="http://www.w3.org/2000/svg" width="667" height="91" viewBox="0 0 667 91" role="img" aria-labelledby="title desc">
  <title id="title">Terminus Regular Sonic preview</title>
  <desc id="desc">Sphinx of black quartz, judge my vow.</desc>
  <rect width="100%" height="100%" rx="10" fill="#0d1117"/>
  <text x="24" y="34" fill="#8b949e" font-family="ui-monospace, SFMono-Regular, Menlo, Consolas, monospace" font-size="16">Terminus Regular Sonic</text>
  <g transform="translate(21.89 67.96)" fill="#f0f6fc">
    <path d="M4.25 -20.876V-21.964000000000002H12.750000000000002V-20.876H13.804V-19.822000000000003H14.892000000000001V-16.626H12.750000000000002V-18.768H11.696000000000002V-19.822000000000003H5.304V-18.768H4.25V-13.464H5.304V-12.376000000000001H12.750000000000002V-11.322000000000001H13.804V-10.268H14.892000000000001V-2.822H13.804V-1.7680000000000002H12.750000000000002V-0.68H4.25V-1.7680000000000002H3.196V-2.822H2.108V-6.018000000000001H4.25V-3.8760000000000003H5.304V-2.822H11.696000000000002V-3.8760000000000003H12.750000000000002V-9.180000000000001H11.696000000000002V-10.268H4.25V-11.322000000000001H3.196V-12.376000000000001H2.108V-19.822000000000003H3.196V-20.876Z M19.108 4.6240000000000006V-15.572000000000001H29.75V-14.518H30.804000000000002V-13.464H31.892000000000003V-2.822H30.804000000000002V-1.7680000000000002H29.75V-0.68H21.25V4.6240000000000006ZM28.696 -12.376000000000001V-13.464H21.25V-2.822H28.696V-3.8760000000000003H29.75V-12.376000000000001Z M36.108 -0.68V-21.964000000000002H38.25V-15.572000000000001H46.75V-14.518H47.804V-13.464H48.892V-0.68H46.75V-12.376000000000001H45.696V-13.464H38.25V-0.68Z M56.30400000000001 -13.464V-15.572000000000001H60.55400000000001V-2.822H62.69600000000001V-0.68H56.30400000000001V-2.822H58.446000000000005V-13.464ZM58.446000000000005 -17.68V-21.964000000000002H60.55400000000001V-17.68Z M70.108 -0.68V-15.572000000000001H80.75V-14.518H81.804V-13.464H82.892V-0.68H80.75V-12.376000000000001H79.696V-13.464H72.25V-0.68Z M87.108 -12.376000000000001V-15.572000000000001H89.25V-13.464H90.304V-12.376000000000001H91.392V-11.322000000000001H92.446V-10.268H94.554V-11.322000000000001H95.608V-12.376000000000001H96.696V-13.464H97.75V-15.572000000000001H99.892V-12.376000000000001H98.804V-11.322000000000001H97.75V-10.268H96.696V-9.180000000000001H95.608V-7.072000000000001H96.696V-6.018000000000001H97.75V-4.964H98.804V-3.8760000000000003H99.892V-0.68H97.75V-2.822H96.696V-3.8760000000000003H95.608V-4.964H94.554V-6.018000000000001H92.446V-4.964H91.392V-3.8760000000000003H90.304V-2.822H89.25V-0.68H87.108V-3.8760000000000003H88.196V-4.964H89.25V-6.018000000000001H90.304V-7.072000000000001H91.392V-9.180000000000001H90.304V-10.268H89.25V-11.322000000000001H88.196V-12.376000000000001Z M123.25000000000001 -14.518V-15.572000000000001H131.75000000000003V-14.518H132.804V-13.464H133.89200000000002V-2.822H132.804V-1.7680000000000002H131.75000000000003V-0.68H123.25000000000001V-1.7680000000000002H122.19600000000001V-2.822H121.10800000000002V-13.464H122.19600000000001V-14.518ZM130.69600000000003 -12.376000000000001V-13.464H124.30400000000002V-12.376000000000001H123.25000000000001V-3.8760000000000003H124.30400000000002V-2.822H130.69600000000003V-3.8760000000000003H131.75000000000003V-12.376000000000001Z M145.52 -20.876V-21.964000000000002H151.912V-19.822000000000003H146.574V-18.768H145.52V-15.572000000000001H149.77V-13.464H145.52V-0.68H143.412V-13.464H139.162V-15.572000000000001H143.412V-19.822000000000003H144.466V-20.876Z M172.108 -0.68V-21.964000000000002H174.25V-15.572000000000001H182.75V-14.518H183.804V-13.464H184.892V-2.822H183.804V-1.7680000000000002H182.75V-0.68ZM181.696 -12.376000000000001V-13.464H174.25V-2.822H181.696V-3.8760000000000003H182.75V-12.376000000000001Z M192.304 -19.822000000000003V-21.964000000000002H196.554V-2.822H198.696V-0.68H192.304V-2.822H194.446V-19.822000000000003Z M207.19600000000003 -13.464V-15.572000000000001H216.75000000000003V-14.518H217.80400000000003V-13.464H218.89200000000002V-0.68H208.25000000000003V-1.7680000000000002H207.19600000000003V-2.822H206.10800000000003V-8.126000000000001H207.19600000000003V-9.180000000000001H208.25000000000003V-10.268H216.75000000000003V-12.376000000000001H215.69600000000003V-13.464ZM216.75000000000003 -2.822V-8.126000000000001H209.30400000000003V-7.072000000000001H208.25000000000003V-3.8760000000000003H209.30400000000003V-2.822Z M225.25000000000003 -14.518V-15.572000000000001H233.75000000000003V-14.518H234.80400000000003V-13.464H235.89200000000002V-11.322000000000001H233.75000000000003V-12.376000000000001H232.69600000000003V-13.464H226.30400000000003V-12.376000000000001H225.25000000000003V-3.8760000000000003H226.30400000000003V-2.822H232.69600000000003V-3.8760000000000003H233.75000000000003V-4.964H235.89200000000002V-2.822H234.80400000000003V-1.7680000000000002H233.75000000000003V-0.68H225.25000000000003V-1.7680000000000002H224.19600000000003V-2.822H223.10800000000003V-13.464H224.19600000000003V-14.518Z M241.16200000000003 -0.68V-21.964000000000002H243.27000000000004V-9.180000000000001H244.35800000000003V-10.268H245.41200000000003V-11.322000000000001H246.46600000000004V-12.376000000000001H247.52000000000004V-13.464H248.57400000000004V-14.518H249.66200000000003V-15.572000000000001H252.85800000000003V-14.518H251.77000000000004V-13.464H250.71600000000004V-12.376000000000001H249.66200000000003V-11.322000000000001H248.57400000000004V-10.268H247.52000000000004V-9.180000000000001H246.46600000000004V-7.072000000000001H247.52000000000004V-6.018000000000001H248.57400000000004V-4.964H249.66200000000003V-3.8760000000000003H250.71600000000004V-2.822H251.77000000000004V-1.7680000000000002H252.85800000000003V-0.68H249.66200000000003V-1.7680000000000002H248.57400000000004V-2.822H247.52000000000004V-3.8760000000000003H246.46600000000004V-4.964H245.41200000000003V-6.018000000000001H244.35800000000003V-7.072000000000001H243.27000000000004V-0.68Z M276.25 -14.518V-15.572000000000001H286.892V4.6240000000000006H284.75V-0.68H276.25V-1.7680000000000002H275.196V-2.822H274.108V-13.464H275.196V-14.518ZM284.75 -2.822V-13.464H277.304V-12.376000000000001H276.25V-3.8760000000000003H277.304V-2.822Z M291.108 -2.822V-15.572000000000001H293.25V-3.8760000000000003H294.304V-2.822H301.75V-15.572000000000001H303.892V-0.68H293.25V-1.7680000000000002H292.196V-2.822Z M309.196 -13.464V-15.572000000000001H318.75V-14.518H319.804V-13.464H320.892V-0.68H310.25V-1.7680000000000002H309.196V-2.822H308.108V-8.126000000000001H309.196V-9.180000000000001H310.25V-10.268H318.75V-12.376000000000001H317.696V-13.464ZM318.75 -2.822V-8.126000000000001H311.304V-7.072000000000001H310.25V-3.8760000000000003H311.304V-2.822Z M325.108 -0.68V-15.572000000000001H327.25V-13.464H328.304V-14.518H329.392V-15.572000000000001H337.892V-13.464H330.446V-12.376000000000001H329.392V-11.322000000000001H328.304V-10.268H327.25V-0.68Z M346.392 -15.572000000000001V-21.964000000000002H348.5V-15.572000000000001H352.75V-13.464H348.5V-3.8760000000000003H349.554V-2.822H354.892V-0.68H348.5V-1.7680000000000002H347.446V-2.822H346.392V-13.464H342.108V-15.572000000000001Z M359.108 -13.464V-15.572000000000001H371.892V-12.376000000000001H370.804V-11.322000000000001H369.75V-10.268H368.696V-9.180000000000001H367.608V-8.126000000000001H366.554V-7.072000000000001H365.5V-6.018000000000001H364.446V-4.964H363.392V-3.8760000000000003H362.304V-2.822H371.892V-0.68H359.108V-3.8760000000000003H360.196V-4.964H361.25V-6.018000000000001H362.304V-7.072000000000001H363.392V-8.126000000000001H364.446V-9.180000000000001H365.5V-10.268H366.554V-11.322000000000001H367.608V-12.376000000000001H368.696V-13.464Z M381.446 -1.7680000000000002V-4.964H383.554V-0.68H382.5V0.374H381.446V1.4280000000000002H379.304V0.374H380.392V-1.7680000000000002Z M417.52000000000004 -13.464V-15.572000000000001H421.77000000000004V2.482H420.71600000000007V3.5360000000000005H419.66200000000003V4.6240000000000006H413.27000000000004V3.5360000000000005H412.21600000000007V2.482H411.16200000000003V-0.68H413.27000000000004V1.4280000000000002H414.35800000000006V2.482H418.57400000000007V1.4280000000000002H419.66200000000003V-13.464ZM419.66200000000003 -17.68V-21.964000000000002H421.77000000000004V-17.68Z M427.10800000000006 -2.822V-15.572000000000001H429.25000000000006V-3.8760000000000003H430.30400000000003V-2.822H437.75000000000006V-15.572000000000001H439.89200000000005V-0.68H429.25000000000006V-1.7680000000000002H428.1960000000001V-2.822Z M454.75000000000006 -15.572000000000001V-21.964000000000002H456.89200000000005V-0.68H446.25000000000006V-1.7680000000000002H445.1960000000001V-2.822H444.10800000000006V-13.464H445.1960000000001V-14.518H446.25000000000006V-15.572000000000001ZM454.75000000000006 -2.822V-13.464H447.30400000000003V-12.376000000000001H446.25000000000006V-3.8760000000000003H447.30400000000003V-2.822Z M463.25000000000006 -14.518V-15.572000000000001H473.89200000000005V2.482H472.80400000000003V3.5360000000000005H471.75000000000006V4.6240000000000006H462.1960000000001V2.482H470.6960000000001V1.4280000000000002H471.75000000000006V-0.68H463.25000000000006V-1.7680000000000002H462.1960000000001V-2.822H461.10800000000006V-13.464H462.1960000000001V-14.518ZM471.75000000000006 -2.822V-13.464H464.30400000000003V-12.376000000000001H463.25000000000006V-3.8760000000000003H464.30400000000003V-2.822Z M480.25000000000006 -14.518V-15.572000000000001H488.75000000000006V-14.518H489.80400000000003V-13.464H490.89200000000005V-7.072000000000001H480.25000000000006V-3.8760000000000003H481.30400000000003V-2.822H488.75000000000006V-3.8760000000000003H490.89200000000005V-1.7680000000000002H489.80400000000003V-0.68H480.25000000000006V-1.7680000000000002H479.1960000000001V-2.822H478.10800000000006V-13.464H479.1960000000001V-14.518ZM487.6960000000001 -12.376000000000001V-13.464H481.30400000000003V-12.376000000000001H480.25000000000006V-9.180000000000001H488.75000000000006V-12.376000000000001Z M512.1080000000001 -0.68V-15.572000000000001H522.7500000000001V-14.518H523.8040000000001V-13.464H524.892V-0.68H522.7500000000001V-12.376000000000001H521.696V-13.464H519.5540000000001V-0.68H517.446V-13.464H514.25V-0.68Z M529.108 -2.822V-15.572000000000001H531.25V-3.8760000000000003H532.304V-2.822H539.75V-15.572000000000001H541.892V2.482H540.804V3.5360000000000005H539.75V4.6240000000000006H530.196V2.482H538.696V1.4280000000000002H539.75V-0.68H531.25V-1.7680000000000002H530.196V-2.822Z M563.108 -12.376000000000001V-15.572000000000001H565.25V-12.376000000000001H566.304V-9.180000000000001H567.392V-6.018000000000001H568.446V-3.8760000000000003H570.554V-6.018000000000001H571.608V-9.180000000000001H572.696V-12.376000000000001H573.75V-15.572000000000001H575.892V-12.376000000000001H574.804V-9.180000000000001H573.75V-6.018000000000001H572.696V-3.8760000000000003H571.608V-0.68H567.392V-3.8760000000000003H566.304V-6.018000000000001H565.25V-9.180000000000001H564.196V-12.376000000000001Z M582.25 -14.518V-15.572000000000001H590.75V-14.518H591.804V-13.464H592.892V-2.822H591.804V-1.7680000000000002H590.75V-0.68H582.25V-1.7680000000000002H581.196V-2.822H580.108V-13.464H581.196V-14.518ZM589.696 -12.376000000000001V-13.464H583.304V-12.376000000000001H582.25V-3.8760000000000003H583.304V-2.822H589.696V-3.8760000000000003H590.75V-12.376000000000001Z M597.108 -2.822V-15.572000000000001H599.25V-3.8760000000000003H600.304V-2.822H602.446V-11.322000000000001H604.554V-2.822H606.696V-3.8760000000000003H607.75V-15.572000000000001H609.892V-2.822H608.804V-1.7680000000000002H607.75V-0.68H599.25V-1.7680000000000002H598.196V-2.822Z M619.412 -0.68V-4.964H621.52V-0.68Z"/>
  </g>
</svg>
